<svg xmlns="http://www.w3.org/2000/svg" xmlns:xlink="http://www.w3.org/1999/xlink" fill="none" version="1.1" width="36" height="36" viewBox="0 0 36 36"><g><g transform="matrix(0.7071067094802856,-0.7071067094802856,0.7071067094802856,0.7071067094802856,-4.1091336094541475,3.6792820115806535)"><rect x="2.38671875" y="6.7998046875" width="6.239999294281006" height="37.91999435424805" rx="3.119999647140503" fill="#97C9FF" fill-opacity="1"/></g><g transform="matrix(0.7071067690849304,0.7071067690849304,-0.7071067690849304,0.7071067690849304,10.240204532456119,-19.94860199809773)"><rect x="29.2001953125" y="2.38671875" width="6.239999294281006" height="37.91999816894531" rx="3.119999647140503" fill="#4BA0FF" fill-opacity="1"/></g><g><path d="M9.8399963,22.08C12.093322,22.08,13.919998,23.906677,13.919998,26.159998L13.919998,31.92C13.919998,34.173321,15.746678,36.000004,18.000004,36.000004C20.253323,36.000004,22.080002,34.173321,22.080002,31.92L22.080002,26.159998C22.080002,23.906677,23.906679,22.08,26.16,22.08L31.919998,22.08C34.173325,22.08,36.000008,20.253321,36.000008,18.000002C36.000008,15.746677,34.173325,13.919998,31.919998,13.919998L26.16,13.919998C23.906679,13.919998,22.080002,12.093322,22.080002,9.8399973L22.080002,4.0800004C22.080002,1.8266782,20.253323,0,18.000004,0C15.746678,0,13.919998,1.8266782,13.919998,4.0800004L13.919998,9.8399973C13.919998,12.093322,12.093322,13.919998,9.8399963,13.919998L4.0800009,13.919998C1.826678,13.919998,0,15.746677,0,18.000002C0,20.253321,1.826678,22.08,4.0800009,22.08L9.8399963,22.08Z" fill-rule="evenodd" fill="#0077FD" fill-opacity="1"/></g><g><path d="M12.7025609875,17.40335935L12.7026415175,17.40324008Q13.8571476875,18.18257791,15.1821331875,18.59442472Q16.5512852875,19.02,17.9998049875,19.02Q19.4483232875,19.02,20.8174743875,18.59442478Q22.1424598875,18.18257789,23.296968687499998,17.40323967L23.297048687500002,17.4033587Q23.479578687500002,17.28014398,23.6998046875,17.28014398Q23.7707046875,17.28014398,23.8402406875,17.29397583Q23.9097786875,17.30780768,23.9752806875,17.33493984Q24.0407826875,17.36207193,24.0997336875,17.40146166Q24.1586846875,17.44085133,24.2088186875,17.49098492Q24.2589516875,17.54111856,24.2983416875,17.60006943Q24.3377316875,17.65902036,24.364863687499998,17.72452307Q24.3919966875,17.79002577,24.405828687499998,17.85956307Q24.4196606875,17.929100372,24.4196606875,18Q24.4196606875,18.088353992,24.3982926875,18.17408544Q24.3769266875,18.25981688,24.3354606875,18.33783638Q24.2939946875,18.41585588,24.2348926875,18.48153183Q24.175790687499997,18.54720777,24.102559687499998,18.5966413L24.1026396875,18.59676033Q22.7723766875,19.4947395,21.2448997875,19.9695275Q19.6669625875,20.46,17.9998049875,20.46Q16.3326463875,20.46,14.7547082875,19.9695275Q13.2272284075,19.4947389,11.8969678575,18.59675992L11.8970483875,18.59664065Q11.8238177875,18.547207,11.7647155475,18.48153114Q11.7056132575,18.41585523,11.6641478575,18.33783588Q11.6226825675,18.25981647,11.6013156175,18.17408516Q11.5799487275,18.088353842,11.5799486675,18Q11.5799486675,17.929100372,11.5937805175,17.85956307Q11.6076123675,17.79002577,11.6347445275,17.72452307Q11.6618766175,17.65902036,11.7012663475,17.60006946Q11.7406560175,17.54111856,11.7907896075,17.49098492Q11.8409232475,17.44085133,11.8998741175,17.4014616Q11.9588250475,17.36207193,12.0243277575,17.33493984Q12.0898304575,17.30780768,12.1593677575,17.29397583Q12.2289050595,17.28014398,12.2998046875,17.28014398Q12.5200304975,17.28014398,12.7025609875,17.40335935Z" fill-rule="evenodd" fill="#FFFFFF" fill-opacity="1"/></g></g></svg>