<svg xmlns="http://www.w3.org/2000/svg" xmlns:xlink="http://www.w3.org/1999/xlink" fill="none" version="1.1" width="48" height="48" viewBox="0 0 48 48"><defs><linearGradient x1="0.5" y1="0" x2="0.5" y2="1" id="master_svg0_132_7353"><stop offset="0%" stop-color="#FFFFFF" stop-opacity="1"/><stop offset="100%" stop-color="#F2F4F7" stop-opacity="1"/></linearGradient><clipPath id="master_svg1_169_7977"><rect x="0" y="0" width="48" height="48" rx="24"/></clipPath><clipPath id="master_svg2_169_7978"><rect x="12" y="12" width="24" height="24" rx="0"/></clipPath></defs><g clip-path="url(#master_svg1_169_7977)"><rect x="0" y="0" width="48" height="48" rx="24" fill="url(#master_svg0_132_7353)" fill-opacity="1"/><g clip-path="url(#master_svg2_169_7978)"><g><path d="M13.77352855,24.824481Q13,27.506878,13,30L13.00019997,30Q13.00020003,30.098472,13.01941091,30.195050000000002Q13.03862178,30.291629999999998,13.07630527,30.382606Q13.11398876,30.473581,13.1686967,30.555458Q13.223404649999999,30.637335,13.29303467,30.706964Q13.3626647,30.776594,13.44454092,30.831302Q13.52641714,30.886009,13.61739314,30.923693Q13.70836911,30.961376,13.8049487,30.980589000000002Q13.901528291,30.9998,14,30.9998Q14.098471709,30.9998,14.1950513,30.980587999999997Q14.29163089,30.961377,14.38260686,30.923693999999998Q14.47358286,30.886009,14.55545908,30.831302Q14.6373353,30.776594,14.70696533,30.706964Q14.776595350000001,30.637335,14.83130324,30.555458Q14.88601118,30.473581,14.92369467,30.382606Q14.96137822,30.291629999999998,14.98058909,30.195051Q14.99979997,30.098472,14.99980003,30L15,30Q15,27.789493,15.6952215,25.378644Q16.4337311,22.8176827,17.695127,21.0096827Q20.5627561,16.89941436,24.552785999999998,18.8944311Q24.656927,18.9465008,24.770246999999998,18.9732513Q24.883566000000002,19.0000014,24.999999000000003,19.000001Q25.116432,19.0000005,25.229751999999998,18.9732492Q25.343071000000002,18.9464979,25.447212999999998,18.8944273L27,18.1180338L27,19Q27,19.265568000000002,27.13176,19.4961448L30.715359,25.7673454Q30.999998,26.2654867,30.999998,26.839399L30.999998,27.5729Q30.999998,28.164062,30.582029,28.582031Q30.164061,29,29.572901,29Q29.235969,29,28.934719,28.849373999999997L24.395221,26.579576Q23.7453566,26.2546444,23.4204273,25.6047859Q23.0598783,24.8836889,23.2554417,24.1014357L23.4701481,23.2425084L23.4699545,23.2424603Q23.4997997,23.1230669,23.4997997,23Q23.4997997,22.901527899999998,23.4805889,22.804947900000002Q23.4613771,22.7083683,23.4236937,22.6173921Q23.3860102,22.5264158,23.3313026,22.44454Q23.276594199999998,22.3626642,23.206964499999998,22.2930341Q23.1373339,22.2234039,23.0554581,22.1686959Q22.9735813,22.113987899999998,22.882605599999998,22.0763049Q22.791629800000003,22.0386219,22.6950502,22.0194106Q22.5984707,22.0001998,22.5,22.0001998Q22.4169598,22.0001998,22.3350592,22.0138988Q22.253156699999998,22.0275979,22.1746387,22.0546212Q22.096119899999998,22.0816436,22.0231352,22.1212502Q21.9501505,22.160856199999998,21.8847003,22.2119608Q21.8192487,22.2630644,21.7631249,22.324266Q21.7070017,22.3854666,21.6617441,22.4550886Q21.6164856,22.5247102,21.583333500000002,22.6008444Q21.5501814,22.6769791,21.5300446,22.7575397L21.52985,22.7574911L21.3151574,23.6163645Q20.9401541,25.116377800000002,21.6315727,26.4992123Q22.2546444,27.745356,23.5007782,28.368423L28.040285,30.638225Q28.76383,31,29.572901,31Q30.992489,31,31.996244,29.996244Q33,28.992488,33,27.5729L33,26.839399Q33,25.7343874,32.451839,24.7750549L29,18.7344325L29,16.5Q29,16.26393203,28.894427,16.05278641Q28.85038,15.96469307,28.789991999999998,15.88688546Q28.729607,15.80907786,28.655200999999998,15.74454618Q28.580795000000002,15.68001443,28.495229000000002,15.63123846Q28.409664,15.58246255,28.316226999999998,15.5513168Q28.22279,15.52017117,28.125071,15.507852549999999Q28.027352999999998,15.4955339,27.92911,15.50251591Q27.830866,15.50949788,27.735872999999998,15.53551203Q27.64088,15.56152618,27.552787000000002,15.60557282L24.985315999999997,16.88930795Q22.3741922,15.75034499,19.9876838,16.61442444Q17.7602856,17.42089504,16.054873,19.8653193Q14.60386068,21.9451036,13.77352855,24.824481Z" fill-rule="evenodd" fill="#222E3D" fill-opacity="1"/></g><g><path d="M23.105751689999998,27.94712415Q23.00019997,27.73602077,23.00019997,27.5Q23.00020003,27.401528291,23.01941091,27.3049487Q23.03862178,27.20836911,23.07630527,27.11739314Q23.11398876,27.02641714,23.1686967,26.94454092Q23.22340465,26.8626647,23.29303467,26.79303467Q23.3626647,26.72340465,23.44454092,26.66869676Q23.52641714,26.61398882,23.61739314,26.57630533Q23.70836911,26.53862178,23.8049487,26.51941091Q23.901528291,26.50020003,24,26.50019997Q24.13925609,26.50020003,24.27321187,26.53825402Q24.40716764,26.57630807,24.52562594,26.64951932Q24.64408427,26.72273058,24.73802769,26.825526Q24.83197105,26.92832142,24.894248310000002,27.05287585L24.89442718,27.05278641Q24.97803205,27.21999612,25.0888181,27.5061933994Q25.295963,28.041318060000002,25.4662349,28.6798373Q26,30.6814566,26,33L25.9998,33Q25.999799799999998,33.098471599999996,25.9805889,33.1950507Q25.961378,33.2916307,25.9236945,33.3826065Q25.886011,33.473582300000004,25.831303,33.5554585Q25.7765951,33.6373348,25.7069652,33.7069654Q25.6373353,33.7765951,25.555459,33.8313031Q25.4735827,33.8860106,25.3826067,33.9236941Q25.2916307,33.9613776,25.1950512,33.9805889Q25.0984716,33.9997997,25,33.9998002Q24.90152824,33.9997997,24.80494863,33.9805889Q24.70836902,33.9613776,24.61739302,33.9236941Q24.52641702,33.8860106,24.4445408,33.8313026Q24.36266458,33.7765951,24.29303458,33.7069654Q24.22340459,33.6373348,24.16869663,33.5554585Q24.11398868,33.473582300000004,24.076305196,33.3826065Q24.038621716,33.2916307,24.019410843,33.1950507Q24.00019997358,33.098471599999996,24.00019997358,33L24,33Q24,30.9435434,23.53376508,29.1951627Q23.39153683,28.6618068,23.22368193,28.2281816Q23.14696795,28.03000391,23.10557282,27.94721359L23.105751689999998,27.94712415Z" fill-rule="evenodd" fill="#222E3D" fill-opacity="1"/></g><g><path d="M28.252099988789062,19.259300215255738L34.225500058789066,15.822900057255737C34.70689965878906,15.545909885255737,35.22879985878906,16.116809845255737,34.89369965878906,16.553870205255738L30.67720035878906,22.052099915255738C30.47920035878906,22.310299615255737,30.08670045878906,22.320099615255735,29.875400558789064,22.072199615255737L28.11860084878906,20.010359515255736C27.91660022778906,19.773340015255737,27.980199813789064,19.415740015255736,28.252099988789062,19.259300215255738Z" fill="#222E3D" fill-opacity="1"/></g></g><rect x="0.5" y="0.5" width="47" height="47" rx="23.5" fill-opacity="0" stroke-opacity="0.10000000149011612" stroke="#000000" fill="none" stroke-width="1"/></g></svg>