<svg xmlns="http://www.w3.org/2000/svg" xmlns:xlink="http://www.w3.org/1999/xlink" fill="none" version="1.1" width="48" height="48" viewBox="0 0 48 48"><defs><linearGradient x1="0.5" y1="0" x2="0.5" y2="1" id="master_svg0_132_7353"><stop offset="0%" stop-color="#FFFFFF" stop-opacity="1"/><stop offset="100%" stop-color="#F2F4F7" stop-opacity="1"/></linearGradient><clipPath id="master_svg1_169_8007"><rect x="0" y="0" width="48" height="48" rx="24"/></clipPath><clipPath id="master_svg2_169_8008"><rect x="12" y="12" width="24" height="24" rx="0"/></clipPath></defs><g clip-path="url(#master_svg1_169_8007)"><rect x="0" y="0" width="48" height="48" rx="24" fill="url(#master_svg0_132_7353)" fill-opacity="1"/><g clip-path="url(#master_svg2_169_8008)"><g><path d="M24.46431828125,22.87895225515137Q25.19205328125,23.606799355151367,25.31964428125,24.624765155151366L25.31984228125,24.624740355151367Q25.331110281249998,24.714647255151366,25.35835928125,24.801063555151366Q25.38560628125,24.887479755151368,25.42794828125,24.967589355151368Q25.47028828125,25.04769895515137,25.52634028125,25.11889075515137Q25.58239328125,25.19008305515137,25.65033328125,25.250038155151366Q25.71827128125,25.309992755151367,25.79588228125,25.356757155151367Q25.87349328125,25.403521055151366,25.95824728125,25.43557025515137Q26.043000281250002,25.467618955151366,26.13213528125,25.483909155151366Q26.221269281250002,25.500199355151366,26.311880281249998,25.500199755151367Q26.41035128125,25.500199355151366,26.50693128125,25.48098845515137Q26.60351028125,25.461777655151366,26.69448528125,25.424093755151368Q26.78546128125,25.386409755151366,26.86733828125,25.331702255151367Q26.94921428125,25.276994255151365,27.01884428125,25.207364555151365Q27.08847428125,25.137734455151367,27.14318228125,25.055858155151366Q27.19788928125,24.973981855151365,27.235573281249998,24.883005655151365Q27.27325628125,24.792029855151366,27.292468281250002,24.695450355151365Q27.31167928125,24.598871255151366,27.31168028125,24.50039955515137Q27.31168028125,24.437986855151365,27.30391828125,24.376058855151367L27.30411628125,24.37603405515137Q27.09124128125,22.677634755151367,25.878642281250002,21.464848225151368L25.535282281249998,21.121589305151367Q24.07091808125,19.657224835151368,21.99986938125,19.657224835151368Q19.92882058125,19.657224835151368,18.46435238125,21.121693645151367L15.12120789125,24.464787955151365Q13.65673578125,25.929260255151366,13.65673818125,28.000352355151367Q13.65674072125,30.07143685515137,15.12120071125,31.535904655151366L15.46440440125,31.87905865515137Q16.92882108125,33.343475655151366,18.999887981249998,33.343475655151366Q21.07095768125,33.343475655151366,22.535418481249998,31.87900465515137L22.706840481249998,31.70765365515137L22.70669838125,31.707511655151368Q22.84738918125,31.566878655151367,22.92353438125,31.38310265515137Q22.99967958125,31.19932565515137,22.99967958125,31.000400655151367Q22.99967958125,30.90192765515137,22.98046878125,30.805348655151366Q22.96125798125,30.708768655151367,22.92357348125,30.617793055151367Q22.88588998125,30.526817355151366,22.83118248125,30.44494055515137Q22.77647398125,30.363064755151367,22.70684428125,30.293435055151367Q22.63721468125,30.223804455151367,22.55533838125,30.169096955151367Q22.47346208125,30.11438945515137,22.38248588125,30.07670595515137Q22.29150958125,30.03902245515137,22.19493058125,30.019811655151365Q22.09835048125,30.00060085515137,21.99987938125,30.00060085515137Q21.80106068125,30.00060085515137,21.61736868125,30.07666585515137Q21.43367628125,30.152731855151366,21.29306078125,30.293288255151367L21.29291918125,30.293147055151366L21.12120008125,30.464795155151368Q20.24252648125,31.34347465515137,18.999887981249998,31.34347465515137Q17.75724768125,31.34347465515137,16.87851378125,30.464740755151368L16.53541858125,30.12169555515137Q15.65673968125,29.24301145515137,15.65673816125,28.000349555151367Q15.65673667125,26.75768615515137,16.53541078125,25.879012155151365L19.87856678125,22.535906755151366Q20.75724788125,21.65722475515137,21.99986938125,21.65722475515137Q23.242490781249998,21.65722475515137,24.121276881249997,22.536011055151366L24.46431828125,22.87895225515137Z" fill-rule="evenodd" fill="#222E3D" fill-opacity="1"/></g><g><path d="M25.46425058859863,17.121836665151367L25.292750088598634,17.293406485151365L25.292891488598634,17.293547805151366Q25.152332788598635,17.43416321515137,25.07626628859863,17.61785662515137Q25.000199788598632,17.801550055151367,25.000199988598634,18.000370055151368Q25.000199788598632,18.098841655151368,25.01941058859863,18.195421055151368Q25.03862138859863,18.292000755151367,25.07630488859863,18.38297675515137Q25.11398838859863,18.47395265515137,25.168696388598633,18.555828955151366Q25.22340438859863,18.63770505515137,25.293034588598633,18.707335255151367Q25.362664488598632,18.776965155151366,25.444540488598633,18.831673155151368Q25.52641678859863,18.886380955151367,25.617392588598634,18.924064355151366Q25.708368288598635,18.96174815515137,25.80494828859863,18.980958955151365Q25.901527888598633,19.00016975515137,25.99999998859863,19.000169955151367Q26.198924988598634,19.000169955151367,26.38269998859863,18.924026055151366Q26.566475388598633,18.847882055151366,26.70710848859863,18.70719215515137L26.707250088598634,18.707333755151367L26.87875028859863,18.535763955151367Q27.757288488598633,17.657224855151366,28.999949888598632,17.657224855151366Q30.242610888598634,17.657224855151366,31.121293088598634,18.535906755151366L31.464351688598633,18.879005655151367Q32.34307618859863,19.757728555151367,32.34307618859863,21.000370055151368Q32.34307618859863,22.24301145515137,31.464393588598632,23.121693155151366L28.121293088598634,26.464793255151367Q27.242611388598633,27.34347465515137,25.999949888598632,27.34347465515137Q24.75728868859863,27.34347465515137,23.878608988598632,26.464793255151367L23.535505088598633,26.121692655151367Q22.807751388598632,25.393939055151368,22.680233298598633,24.376090055151366L22.680035228598634,24.376114855151368Q22.668770968598633,24.28620335515137,22.641525388598634,24.199782355151367Q22.614279748598634,24.11336135515137,22.571940778598634,24.03324745515137Q22.529601688598632,23.953132655151368,22.473548948598634,23.881935555151365Q22.41749620859863,23.810738555151367,22.349556568598633,23.750780155151368Q22.28161680859863,23.690820255151365,22.204004228598635,23.64405255515137Q22.126391648598634,23.597285255151366,22.041635538598634,23.565233755151368Q21.956879378598632,23.533181155151368,21.86774181859863,23.516890055151368Q21.778604261598634,23.500599355151365,21.687990188598633,23.500599355151365Q21.589518479598635,23.500599355151365,21.492938888598633,23.519809755151368Q21.396359298598632,23.539020555151367,21.305383328598634,23.576704055151367Q21.214407328598632,23.614387555151367,21.132531108598634,23.669095055151367Q21.050654888598633,23.723803555151367,20.981024858598634,23.793433655151368Q20.911394838598632,23.86306335515137,20.856686948598632,23.944939655151366Q20.801979008598632,24.02681585515137,20.764295518598633,24.117792155151367Q20.726611968598633,24.20876785515137,20.707401098598634,24.30534795515137Q20.68819021859863,24.40192795515137,20.688190158598633,24.50039955515137Q20.688190158598633,24.562784155151366,20.695945258598634,24.624685255151366L20.695746538598634,24.62471005515137Q20.908529638598633,26.323143955151366,22.121294378598634,27.535909655151368L22.464394688598635,27.879006655151365Q23.928862088598635,29.343475655151366,25.999949888598632,29.343475655151366Q28.071039188598633,29.343475655151366,29.535507188598633,27.87900765515137L32.87860618859863,24.53590725515137Q34.34307618859863,23.071437855151366,34.34307618859863,21.000370055151368Q34.34307618859863,18.929301755151368,32.87864818859863,17.464874145151366L32.53550718859863,17.121693815151367Q31.071039188598633,15.657224775151366,28.999949888598632,15.657224775151366Q26.92886118859863,15.657224895151368,25.46425058859863,17.121836665151367Z" fill-rule="evenodd" fill="#222E3D" fill-opacity="1"/></g></g><rect x="0.5" y="0.5" width="47" height="47" rx="23.5" fill-opacity="0" stroke-opacity="0.10000000149011612" stroke="#000000" fill="none" stroke-width="1"/></g></svg>