<svg xmlns="http://www.w3.org/2000/svg" xmlns:xlink="http://www.w3.org/1999/xlink" fill="none" version="1.1" width="48" height="48" viewBox="0 0 48 48"><defs><linearGradient x1="0.5" y1="0" x2="0.5" y2="1" id="master_svg0_132_7353"><stop offset="0%" stop-color="#FFFFFF" stop-opacity="1"/><stop offset="100%" stop-color="#F2F4F7" stop-opacity="1"/></linearGradient><clipPath id="master_svg1_169_7991"><rect x="0" y="0" width="48" height="48" rx="24"/></clipPath><clipPath id="master_svg2_169_7992"><rect x="12" y="12" width="24" height="24" rx="0"/></clipPath></defs><g clip-path="url(#master_svg1_169_7991)"><rect x="0" y="0" width="48" height="48" rx="24" fill="url(#master_svg0_132_7353)" fill-opacity="1"/><g clip-path="url(#master_svg2_169_7992)"><g><path d="M18.473730080511473,23.77150159874756Q18.545608080511474,23.74533950874756,18.612669480511475,23.70854758874756Q18.679730880511475,23.67175572874756,18.740415080511475,23.625190498747557Q18.801099280511473,23.57862531874756,18.853993880511474,23.523370678747558Q18.906887980511474,23.468116048747557,18.950760880511474,23.40545796874756Q18.994634180511476,23.34280001874756,19.028465280511476,23.27419712874756Q19.062296380511476,23.205594268747557,19.085297080511474,23.13264336874756Q19.108298780511475,23.059692528747558,19.119934580511476,22.984091688747558Q19.131570380511477,22.908490843747558,19.131570380511477,22.83199977874756Q19.131570380511477,22.73352806974756,19.112359480511476,22.63694847874756Q19.093148680511476,22.540368888747558,19.055464780511475,22.44939291874756Q19.017780780511472,22.358416918747558,18.963073280511473,22.27654069874756Q18.908365280511475,22.19466447874756,18.838735580511475,22.12503444874756Q18.769105480511474,22.055404428747558,18.687229180511473,22.000696538747558Q18.605352880511475,21.945988598747558,18.514376680511475,21.90830510874756Q18.423400380511474,21.87062155874756,18.326820880511477,21.85141068874756Q18.230241280511475,21.832199808747557,18.131770180511474,21.83219974874756Q17.955473880511477,21.83219974874756,17.789810380511476,21.89249795874756L17.789741980511476,21.89231001874756L14.500873150511474,23.08939218874756Q13.527752790511475,23.443528238747557,13.090104640511475,24.382089878747557Q12.652476880511475,25.32060737874756,13.006646390511474,26.29371807874756L13.348677690511474,27.23344897874756Q13.702858550511475,28.20646427874756,14.641350450511474,28.64409397874756Q15.579843780511474,29.081724178747557,16.552957780511473,28.72758957874756L19.841877980511477,27.530490378747558L19.841809280511477,27.530302478747558Q19.913687180511474,27.504140378747557,19.980748680511475,27.467348578747558Q20.047810080511475,27.43055627874756,20.108493780511473,27.38399127874756Q20.169178480511476,27.33742617874756,20.222073080511475,27.28217127874756Q20.274967180511474,27.226916778747558,20.318839980511473,27.16425847874756Q20.362713380511472,27.10160067874756,20.396544480511473,27.03299807874756Q20.430375580511473,26.964395078747557,20.453376280511474,26.891443778747558Q20.476377980511476,26.818493078747558,20.488013780511473,26.742892278747558Q20.499650480511477,26.66729137874756,20.499649980511474,26.590800278747558Q20.499649480511476,26.49232817874756,20.480438680511476,26.395748578747558Q20.461227880511473,26.29916907874756,20.423543880511474,26.208193278747558Q20.385860880511473,26.117217078747558,20.331152880511475,26.03534077874756Q20.276444880511477,25.95346477874756,20.206815280511474,25.883834878747557Q20.137184580511473,25.814204678747558,20.055308380511477,25.75949687874756Q19.973432080511476,25.704788878747557,19.882456280511477,25.66710547874756Q19.791480580511475,25.629422178747557,19.694900480511475,25.610211378747557Q19.598321480511473,25.591000278747558,19.499849780511475,25.591000278747558Q19.323554080511474,25.591000278747558,19.157890280511474,25.651298278747557L19.157822180511474,25.65111037874756L15.868901980511474,26.84820987874756Q15.674322080511475,26.91902117874756,15.486592280511475,26.831480978747557Q15.298875380511475,26.743946578747558,15.228042880511474,26.549353378747558L14.886033580511475,25.60968227874756Q14.815191270511475,25.41503737874756,14.902727880511474,25.227310178747558Q14.990247080511475,25.03962017874756,15.184826880511475,24.968809078747558L18.473798280511474,23.77168953874756L18.473730080511473,23.77150159874756Z" fill-rule="evenodd" fill="#222E3D" fill-opacity="1"/></g><g><path d="M23.768754953674318,20.778863787121583Q23.840633353674317,20.752701997121584,23.907695253674316,20.715910317121583Q23.974757153674318,20.67911857712158,24.035441853674318,20.632553397121583Q24.096126553674317,20.58598828712158,24.149021153674315,20.530733527121583Q24.201915753674317,20.475478767121583,24.245789053674315,20.412820577121582Q24.289662853674315,20.350162447121583,24.323493953674316,20.28155937712158Q24.357325553674315,20.212956307121583,24.380326253674315,20.14000510712158Q24.403327953674317,20.067053957121583,24.414963753674314,19.991452797121582Q24.426599953674316,19.91585163812158,24.426599953674316,19.839360237121582Q24.426599953674316,19.740888528121584,24.407388653674317,19.644308937121583Q24.388177853674318,19.54772934712158,24.350493953674317,19.456753377121583Q24.312809953674318,19.36577737712158,24.25810245367432,19.283901157121583Q24.203394453674317,19.202024937121582,24.133764753674317,19.132394907121583Q24.064134553674315,19.06276488712158,23.982258353674318,19.00805699712158Q23.900382053674317,18.95334905712158,23.809405853674317,18.915665567121582Q23.718430053674318,18.87798201712158,23.62185095367432,18.858771147121583Q23.525271453674318,18.83956026712158,23.426799753674317,18.839560207121583Q23.250506353674318,18.839560207121583,23.084845053674314,18.899856507121584L23.084776853674317,18.89966875712158L19.326054693674315,20.26774567712158Q18.158345033674316,20.692750097121582,17.633183423674318,21.818971737121583Q17.108028453674315,22.945179237121582,17.533032533674316,24.112933637121582L18.217064153674315,25.992210837121583Q18.642070773674316,27.159941237121583,19.768276553674315,27.68512443712158Q20.894504753674315,28.210317637121584,22.062211253674317,27.78529313712158L25.821021553674317,26.41719243712158L25.820952853674317,26.41700413712158Q25.892831753674315,26.39084243712158,25.959893653674317,26.35405113712158Q26.026955653674317,26.317259837121583,26.087640753674314,26.27069473712158Q26.148324953674315,26.22412963712158,26.201220053674316,26.168874737121584Q26.254114153674315,26.113619837121583,26.297987953674316,26.05096103712158Q26.341861753674316,25.988303137121584,26.375693353674315,25.91970013712158Q26.409524953674314,25.85109713712158,26.432526553674315,25.77814583712158Q26.455527353674317,25.705194437121584,26.467164053674317,25.629592937121583Q26.478799853674317,25.55399133712158,26.478799853674317,25.477499937121582Q26.478798853674316,25.37902733712158,26.459588053674317,25.28244783712158Q26.440377253674317,25.185868237121582,26.402693753674317,25.09489253712158Q26.365010253674317,25.003916237121583,26.310302753674318,24.922039937121582Q26.255594753674316,24.840163737121582,26.185965053674316,24.770534037121582Q26.11633495367432,24.70090393712158,26.034458153674315,24.646195437121584Q25.952582353674316,24.591487837121583,25.861606153674316,24.55380443712158Q25.770629853674315,24.51612093712158,25.674050853674316,24.496910537121583Q25.577471253674318,24.477699737121583,25.479000053674316,24.477699737121583Q25.302707653674318,24.477699737121583,25.137046853674317,24.53799583712158L25.136978653674316,24.53780793712158L21.378168853674318,25.905908137121582Q20.988938553674316,26.047581237121584,20.613546153674317,25.87252473712158Q20.238134753674316,25.69745923712158,20.096455953674315,25.308188437121583L19.412407753674316,23.428866337121583Q19.270742353674315,23.039621837121583,19.445801653674316,22.664202937121583Q19.620853053674317,22.288800937121582,20.010084753674317,22.14713453712158L23.768823153674315,20.779051717121582L23.768754953674318,20.778863787121583Z" fill-rule="evenodd" fill="#222E3D" fill-opacity="1"/></g><g><path d="M23.117651518977052,18.91479106691284Q22.50498953897705,20.22867586691284,23.000800008977052,21.590998666912842L23.00081109897705,21.59102916691284L24.02690423897705,24.41010996691284Q24.52272182897705,25.772403266912843,25.836637038977052,26.385103866912843Q27.15054533897705,26.99780186691284,28.51293513897705,26.50198586691284L33.68111513897705,24.62082906691284Q34.45962463897705,24.33757356691284,34.80974763897705,23.586661366912843Q35.15982863897705,22.83584166691284,34.87649363897705,22.05738066691284L32.82438943897705,16.419249176912842Q32.54104323897705,15.640790496912842,31.79026603897705,15.290686966912842Q31.039465938977052,14.940572466912842,30.26097963897705,15.223917546912842L25.09269393897705,17.10502286691284Q23.73033617797705,17.600857766912842,23.117651518977052,18.91479106691284ZM24.88020033897705,20.907000566912842L24.88018943897705,20.906970466912842Q24.66770600897705,20.32310386691284,24.93027373897705,19.760013866912843Q25.192844838977052,19.196916866912844,25.77670643897705,18.984418166912842L30.945010638977053,17.103306366912843L32.99710753897705,22.74141886691284L27.82886503897705,24.62261246691284Q27.24501613897705,24.835092066912843,26.681887638977052,24.57249596691284Q26.11878273897705,24.309910266912844,25.90629673897705,23.72608996691284L24.88020033897705,20.907000566912842Z" fill-rule="evenodd" fill="#222E3D" fill-opacity="1"/></g><g><path d="M22.00019997,27Q22.00020003,26.901528291,22.01941091,26.8049487Q22.03862178,26.70836911,22.07630527,26.61739314Q22.11398876,26.52641714,22.1686967,26.44454092Q22.22340465,26.3626647,22.29303467,26.29303467Q22.3626647,26.22340465,22.44454092,26.16869676Q22.52641714,26.11398882,22.61739314,26.07630533Q22.70836911,26.03862178,22.8049487,26.01941091Q22.901528291,26.00020003,23,26.00019997Q23.098471709,26.00020003,23.1950513,26.01941091Q23.29163089,26.03862178,23.38260686,26.07630527Q23.47358286,26.11398876,23.55545908,26.1686967Q23.6373353,26.22340465,23.70696533,26.29303467Q23.77659535,26.3626647,23.83130324,26.44454092Q23.88601118,26.52641714,23.92369467,26.61739314Q23.96137822,26.70836911,23.98058909,26.8049487Q23.99979997,26.901528291,23.99980003,27L24,27L24,32L23.99980003,32Q23.99979997,32.098471599999996,23.98058909,32.1950512Q23.96137822,32.2916307,23.92369473,32.3826065Q23.88601124,32.473582300000004,23.8313033,32.555459Q23.77659535,32.6373348,23.70696533,32.7069654Q23.6373353,32.7765951,23.55545908,32.8313031Q23.47358286,32.8860111,23.38260686,32.9236941Q23.29163089,32.9613781,23.1950513,32.9805889Q23.098471709,32.9997997,23,32.9998002Q22.901528291,32.9997997,22.8049487,32.9805889Q22.70836911,32.9613781,22.61739314,32.9236941Q22.52641714,32.8860111,22.44454092,32.8313026Q22.3626647,32.7765951,22.29303467,32.7069654Q22.22340465,32.6373348,22.16869676,32.5554585Q22.11398882,32.473582300000004,22.07630533,32.3826065Q22.03862178,32.2916307,22.01941091,32.1950512Q22.00020003,32.098471599999996,22.00019997,32L22,32L22,27L22.00019997,27Z" fill-rule="evenodd" fill="#222E3D" fill-opacity="1"/></g><g><path d="M20,33L26,33L26,32.99980003Q26.0984716,32.99979997,26.1950507,32.98058909Q26.2916307,32.96137822,26.3826065,32.92369473Q26.4735823,32.88601124,26.5554585,32.8313033Q26.637334799999998,32.77659535,26.706965,32.70696533Q26.7765946,32.6373353,26.8313026,32.55545908Q26.8860102,32.47358286,26.9236941,32.38260686Q26.9613781,32.29163089,26.9805889,32.1950513Q26.9997997,32.098471709,26.9998002,32Q26.9997997,31.901528291,26.9805889,31.8049487Q26.9613781,31.70836911,26.9236941,31.61739314Q26.8860106,31.52641714,26.8313026,31.44454092Q26.7765951,31.3626647,26.7069654,31.29303467Q26.637334799999998,31.22340465,26.5554585,31.16869676Q26.4735823,31.11398882,26.3826065,31.07630533Q26.2916307,31.03862178,26.1950507,31.01941091Q26.0984716,31.00020003,26,31.00019997L26,31L20,31L20,31.00019997Q19.901528291,31.00020003,19.8049487,31.01941091Q19.70836911,31.03862178,19.61739314,31.07630527Q19.52641714,31.11398876,19.44454092,31.1686967Q19.3626647,31.22340465,19.29303467,31.29303467Q19.22340465,31.3626647,19.16869676,31.44454092Q19.11398882,31.52641714,19.07630533,31.61739314Q19.03862178,31.70836911,19.01941091,31.8049487Q19.00020003,31.901528291,19.00019997,32Q19.00020003,32.098471709,19.01941091,32.1950513Q19.03862178,32.29163089,19.07630527,32.38260686Q19.11398876,32.47358286,19.1686967,32.55545908Q19.22340465,32.6373353,19.29303467,32.70696533Q19.3626647,32.77659535,19.44454092,32.83130324Q19.52641714,32.88601118,19.61739314,32.92369467Q19.70836911,32.96137822,19.8049487,32.98058909Q19.901528291,32.99979997,20,32.99980003L20,33Z" fill-rule="evenodd" fill="#222E3D" fill-opacity="1"/></g></g><rect x="0.5" y="0.5" width="47" height="47" rx="23.5" fill-opacity="0" stroke-opacity="0.10000000149011612" stroke="#000000" fill="none" stroke-width="1"/></g></svg>