<svg xmlns="http://www.w3.org/2000/svg" xmlns:xlink="http://www.w3.org/1999/xlink" fill="none" version="1.1" width="240" height="160" viewBox="0 0 240 160"><defs><filter id="master_svg0_153_2980" filterUnits="objectBoundingBox" color-interpolation-filters="sRGB" x="-0.265625" y="-0.09166666666666666" width="1.34375" height="1.1833333333333333"><feFlood flood-opacity="0" result="BackgroundImageFix"/><feColorMatrix in="SourceAlpha" type="matrix" values="0 0 0 0 0 0 0 0 0 0 0 0 0 0 0 0 0 0 127 0"/><feMorphology radius="-1" operator="dilate" in="SourceAlpha" result="effect1_dropShadow"/><feOffset dy="4" dx="0"/><feGaussianBlur stdDeviation="3"/><feColorMatrix type="matrix" values="0 0 0 0 0.06666667014360428 0 0 0 0 0.06666667014360428 0 0 0 0 0.06666667014360428 0 0 0 0.10000000149011612 0"/><feBlend mode="normal" in2="BackgroundImageFix" result="effect1_dropShadow"/><feColorMatrix in="SourceAlpha" type="matrix" values="0 0 0 0 0 0 0 0 0 0 0 0 0 0 0 0 0 0 127 0"/><feMorphology radius="-2" operator="dilate" in="SourceAlpha" result="effect2_dropShadow"/><feOffset dy="2" dx="0"/><feGaussianBlur stdDeviation="2"/><feColorMatrix type="matrix" values="0 0 0 0 0.06666667014360428 0 0 0 0 0.06666667014360428 0 0 0 0 0.06666667014360428 0 0 0 0.05999999865889549 0"/><feBlend mode="normal" in2="effect1_dropShadow" result="effect2_dropShadow"/><feBlend mode="normal" in="SourceGraphic" in2="effect2_dropShadow" result="shape"/></filter><clipPath id="master_svg1_153_2980"><rect x="88" y="20" width="64" height="120" rx="12"/></clipPath><clipPath id="master_svg2_153_2990"><rect x="112" y="24" width="16" height="6" rx="3"/></clipPath><clipPath id="master_svg3_153_2991"><rect x="112" y="134" width="16" height="2" rx="1"/></clipPath><filter id="master_svg4_153_2981" filterUnits="objectBoundingBox" color-interpolation-filters="sRGB" x="-0.16071428571428573" y="-0.2916666666666667" width="1.2142857142857142" height="1.5"><feFlood flood-opacity="0" result="BackgroundImageFix"/><feColorMatrix in="SourceAlpha" type="matrix" values="0 0 0 0 0 0 0 0 0 0 0 0 0 0 0 0 0 0 127 0"/><feOffset dy="1" dx="0"/><feGaussianBlur stdDeviation="1.5"/><feColorMatrix type="matrix" values="0 0 0 0 0.06666667014360428 0 0 0 0 0.06666667014360428 0 0 0 0 0.06666667014360428 0 0 0 0.10000000149011612 0"/><feBlend mode="normal" in2="BackgroundImageFix" result="effect1_dropShadow"/><feColorMatrix in="SourceAlpha" type="matrix" values="0 0 0 0 0 0 0 0 0 0 0 0 0 0 0 0 0 0 127 0"/><feMorphology radius="-1" operator="dilate" in="SourceAlpha" result="effect2_dropShadow"/><feOffset dy="1" dx="0"/><feGaussianBlur stdDeviation="1"/><feColorMatrix type="matrix" values="0 0 0 0 0.06666667014360428 0 0 0 0 0.06666667014360428 0 0 0 0 0.06666667014360428 0 0 0 0.10000000149011612 0"/><feBlend mode="normal" in2="effect1_dropShadow" result="effect2_dropShadow"/><feBlend mode="normal" in="SourceGraphic" in2="effect2_dropShadow" result="shape"/></filter><clipPath id="master_svg5_153_2981"><rect x="92" y="79" width="56" height="24" rx="4"/></clipPath><clipPath id="master_svg6_153_2984"><rect x="96" y="83" width="16" height="16" rx="2"/></clipPath><clipPath id="master_svg7_153_2989"><rect x="116" y="83" width="16" height="4" rx="2"/></clipPath><clipPath id="master_svg8_153_2983"><rect x="116" y="93" width="28" height="2" rx="1"/></clipPath><clipPath id="master_svg9_153_2982"><rect x="116" y="97" width="20" height="2" rx="1"/></clipPath><filter id="master_svga_153_2993" filterUnits="objectBoundingBox" color-interpolation-filters="sRGB" x="-0.16071428571428573" y="-0.2916666666666667" width="1.2142857142857142" height="1.5"><feFlood flood-opacity="0" result="BackgroundImageFix"/><feColorMatrix in="SourceAlpha" type="matrix" values="0 0 0 0 0 0 0 0 0 0 0 0 0 0 0 0 0 0 127 0"/><feOffset dy="1" dx="0"/><feGaussianBlur stdDeviation="1.5"/><feColorMatrix type="matrix" values="0 0 0 0 0.06666667014360428 0 0 0 0 0.06666667014360428 0 0 0 0 0.06666667014360428 0 0 0 0.10000000149011612 0"/><feBlend mode="normal" in2="BackgroundImageFix" result="effect1_dropShadow"/><feColorMatrix in="SourceAlpha" type="matrix" values="0 0 0 0 0 0 0 0 0 0 0 0 0 0 0 0 0 0 127 0"/><feMorphology radius="-1" operator="dilate" in="SourceAlpha" result="effect2_dropShadow"/><feOffset dy="1" dx="0"/><feGaussianBlur stdDeviation="1"/><feColorMatrix type="matrix" values="0 0 0 0 0.06666667014360428 0 0 0 0 0.06666667014360428 0 0 0 0 0.06666667014360428 0 0 0 0.10000000149011612 0"/><feBlend mode="normal" in2="effect1_dropShadow" result="effect2_dropShadow"/><feBlend mode="normal" in="SourceGraphic" in2="effect2_dropShadow" result="shape"/></filter><clipPath id="master_svgb_153_2993"><rect x="92" y="106" width="56" height="24" rx="4"/></clipPath><clipPath id="master_svgc_153_2994"><rect x="96" y="110" width="16" height="16" rx="2"/></clipPath><clipPath id="master_svgd_153_2999"><rect x="116" y="110" width="16" height="4" rx="2"/></clipPath><clipPath id="master_svge_153_3000"><rect x="116" y="120" width="28" height="2" rx="1"/></clipPath><clipPath id="master_svgf_153_3001"><rect x="116" y="124" width="20" height="2" rx="1"/></clipPath></defs><g><g filter="url(#master_svg0_153_2980)"><g clip-path="url(#master_svg1_153_2980)"><rect x="88" y="20" width="64" height="120" rx="12" fill="#E4EBF1" fill-opacity="1"/><g clip-path="url(#master_svg2_153_2990)"><rect x="112" y="24" width="16" height="6" rx="3" fill="#B3C1D0" fill-opacity="1"/></g><g clip-path="url(#master_svg3_153_2991)"><rect x="112" y="134" width="16" height="2" rx="1" fill="#B3C1D0" fill-opacity="1"/></g><g filter="url(#master_svg4_153_2981)"><g clip-path="url(#master_svg5_153_2981)"><rect x="92" y="79" width="56" height="24" rx="4" fill="#FFFFFF" fill-opacity="1"/><g clip-path="url(#master_svg6_153_2984)"><rect x="96" y="83" width="16" height="16" rx="2" fill="#E4EBF1" fill-opacity="1"/><g><path d="M98.1796875,94L100.0664062,88.1796875L102.2226562,88.1796875L104.1796875,94L102.390625,94L101.7148438,91.7421875Q101.4960938,91.0078125,101.3046875,90.2167969Q101.1132812,89.4257812,100.9414062,88.6445312L101.3007812,88.6445312Q101.1367188,89.4257812,100.96875,90.2167969Q100.8007812,91.0078125,100.5898438,91.7421875L99.9453125,94L98.1796875,94ZM99.578125,92.8828125L99.578125,91.703125L102.78125,91.703125L102.78125,92.8828125L99.578125,92.8828125ZM105.9804688,94.054688Q105.515625,94.054688,105.1230469,93.810547Q104.7304688,93.566406,104.4960938,93.070312Q104.2617188,92.5742188,104.2617188,91.8203125Q104.2617188,91.0273438,104.5078125,90.5332031Q104.7539062,90.0390625,105.1445312,89.8085938Q105.5351562,89.578125,105.9648438,89.578125Q106.2890625,89.578125,106.5332031,89.6894531Q106.7773438,89.8007812,106.9433594,89.9882812Q107.109375,90.1757812,107.1914062,90.3984375L107.2148438,90.3984375L107.2148438,88.1796875L108.785156,88.1796875L108.785156,94L107.2304688,94L107.2304688,93.28125L107.1914062,93.28125Q107.1015625,93.503906,106.9335938,93.677734Q106.765625,93.851562,106.5273438,93.953125Q106.2890625,94.054688,105.9804688,94.054688ZM106.5585938,92.8515625Q106.7734375,92.8515625,106.9296875,92.7246094Q107.0859375,92.5976562,107.1699219,92.3671875Q107.2539062,92.1367188,107.2539062,91.8203125Q107.2539062,91.4960938,107.1699219,91.2636719Q107.0859375,91.03125,106.9296875,90.90625Q106.7734375,90.78125,106.5585938,90.78125Q106.34375,90.78125,106.1914062,90.90625Q106.0390625,91.03125,105.9589844,91.2636719Q105.8789062,91.4960938,105.8789062,91.8203125Q105.8789062,92.140625,105.9589844,92.3730469Q106.0390625,92.6054688,106.1914062,92.7285156Q106.34375,92.8515625,106.5585938,92.8515625Z" fill="#99AABD" fill-opacity="1"/></g></g><g clip-path="url(#master_svg7_153_2989)"><rect x="116" y="83" width="16" height="4" rx="2" fill="#F2F4F7" fill-opacity="1"/></g><g clip-path="url(#master_svg8_153_2983)"><rect x="116" y="93" width="28" height="2" rx="1" fill="#F2F4F7" fill-opacity="1"/></g><g clip-path="url(#master_svg9_153_2982)"><rect x="116" y="97" width="20" height="2" rx="1" fill="#F2F4F7" fill-opacity="1"/></g></g></g><g filter="url(#master_svga_153_2993)"><g clip-path="url(#master_svgb_153_2993)"><rect x="92" y="106" width="56" height="24" rx="4" fill="#FFFFFF" fill-opacity="1"/><g clip-path="url(#master_svgc_153_2994)"><rect x="96" y="110" width="16" height="16" rx="2" fill="#E4EBF1" fill-opacity="1"/><g><path d="M98.1796875,121L100.0664062,115.1796875L102.2226562,115.1796875L104.1796875,121L102.390625,121L101.7148438,118.7421875Q101.4960938,118.0078125,101.3046875,117.2167969Q101.1132812,116.4257812,100.9414062,115.6445312L101.3007812,115.6445312Q101.1367188,116.4257812,100.96875,117.2167969Q100.8007812,118.0078125,100.5898438,118.7421875L99.9453125,121L98.1796875,121ZM99.578125,119.8828125L99.578125,118.703125L102.78125,118.703125L102.78125,119.8828125L99.578125,119.8828125ZM105.9804688,121.054688Q105.515625,121.054688,105.1230469,120.810547Q104.7304688,120.566406,104.4960938,120.070312Q104.2617188,119.5742188,104.2617188,118.8203125Q104.2617188,118.0273438,104.5078125,117.5332031Q104.7539062,117.0390625,105.1445312,116.8085938Q105.5351562,116.578125,105.9648438,116.578125Q106.2890625,116.578125,106.5332031,116.6894531Q106.7773438,116.8007812,106.9433594,116.9882812Q107.109375,117.1757812,107.1914062,117.3984375L107.2148438,117.3984375L107.2148438,115.1796875L108.785156,115.1796875L108.785156,121L107.2304688,121L107.2304688,120.28125L107.1914062,120.28125Q107.1015625,120.503906,106.9335938,120.677734Q106.765625,120.851562,106.5273438,120.953125Q106.2890625,121.054688,105.9804688,121.054688ZM106.5585938,119.8515625Q106.7734375,119.8515625,106.9296875,119.7246094Q107.0859375,119.5976562,107.1699219,119.3671875Q107.2539062,119.1367188,107.2539062,118.8203125Q107.2539062,118.4960938,107.1699219,118.2636719Q107.0859375,118.03125,106.9296875,117.90625Q106.7734375,117.78125,106.5585938,117.78125Q106.34375,117.78125,106.1914062,117.90625Q106.0390625,118.03125,105.9589844,118.2636719Q105.8789062,118.4960938,105.8789062,118.8203125Q105.8789062,119.140625,105.9589844,119.3730469Q106.0390625,119.6054688,106.1914062,119.7285156Q106.34375,119.8515625,106.5585938,119.8515625Z" fill="#99AABD" fill-opacity="1"/></g></g><g clip-path="url(#master_svgd_153_2999)"><rect x="116" y="110" width="16" height="4" rx="2" fill="#F2F4F7" fill-opacity="1"/></g><g clip-path="url(#master_svge_153_3000)"><rect x="116" y="120" width="28" height="2" rx="1" fill="#F2F4F7" fill-opacity="1"/></g><g clip-path="url(#master_svgf_153_3001)"><rect x="116" y="124" width="20" height="2" rx="1" fill="#F2F4F7" fill-opacity="1"/></g></g></g><g><path d="M104.2576904,53.159667999999996Q102.8468018,53.159667999999996,101.8461914,52.450683999999995Q100.8457031,51.741577,100.3127441,50.408325Q99.77978516,49.074951,99.77978516,47.186157Q99.77978516,45.303589,100.3148193,43.9656982Q100.8499756,42.6276855,101.8502197,41.9136963Q102.8504639,41.199707000000004,104.2576904,41.199707000000004Q105.6652832,41.199707000000004,106.6693115,41.9144287Q107.6734619,42.6291504,108.2049561,43.966430700000004Q108.73645020000001,45.303589,108.73645020000001,47.187866Q108.73645020000001,49.071167,108.2071533,50.406616Q107.6779785,51.741943,106.6772461,52.450806Q105.6766357,53.159667999999996,104.2576904,53.159667999999996ZM104.2584229,51.413086Q105.024292,51.413086,105.55896,50.914917Q106.09375,50.416626,106.375,49.472533999999996Q106.65625,48.528442,106.65625,47.187134Q106.65625,45.838745,106.375,44.888793899999996Q106.09375,43.9387207,105.5584717,43.4377441Q105.0231934,42.936767599999996,104.2589111,42.936767599999996Q103.4946289,42.936767599999996,102.9584961,43.4399414Q102.4224854,43.9431152,102.1412354,44.8909912Q101.8599854,45.838745,101.8599854,47.187134Q101.8599854,48.528442,102.1398926,49.472533999999996Q102.4199219,50.416626,102.9562988,50.914917Q103.4927979,51.413086,104.2584229,51.413086ZM114.364868,53.169678000000005Q113.267456,53.169678000000005,112.419067,52.739502Q111.570801,52.309326,111.048584,51.559692Q110.526489,50.809937,110.402222,49.858276000000004L112.449829,49.858276000000004Q112.602783,50.540161,113.095947,50.959717Q113.589111,51.379272,114.362915,51.379272Q115.181152,51.379272,115.74633800000001,50.898804Q116.311523,50.418335,116.606201,49.528076Q116.900879,48.637817,116.900879,47.409546L116.825806,47.409546Q116.546997,47.899902,116.1073,48.254272Q115.667725,48.608520999999996,115.114136,48.799683Q114.560669,48.990723,113.933594,48.990723Q112.905273,48.990723,112.078735,48.500488000000004Q111.252319,48.010132,110.773804,47.150024Q110.29541,46.289795,110.29541,45.190552Q110.29541,44.039917,110.824585,43.1308594Q111.35376,42.2216797,112.29895,41.6989746Q113.244141,41.176269500000004,114.497192,41.1896973Q115.35022000000001,41.1940918,116.140991,41.493042Q116.931885,41.7919922,117.556396,42.4475098Q118.180908,43.1029053,118.546875,44.1824951Q118.912842,45.262085,118.912842,46.834595Q118.912842,48.328125,118.599121,49.500977Q118.2854,50.673828,117.692627,51.49353Q117.099854,52.31311,116.257446,52.741455Q115.415161,53.169678000000005,114.364868,53.169678000000005ZM114.465088,47.387939Q114.931641,47.387939,115.332397,47.208984Q115.733154,47.029907,116.031006,46.718018Q116.328979,46.406006,116.497803,46Q116.666748,45.593872,116.666748,45.132202Q116.666748,44.5262451,116.383545,44.0183105Q116.100342,43.510376,115.611206,43.2017822Q115.122192,42.8931885,114.494995,42.8931885Q113.878784,42.8931885,113.386719,43.1928711Q112.894653,43.4925537,112.60791,44.005249Q112.321167,44.5178223,112.321167,45.151123Q112.321167,45.779297,112.600342,46.286743Q112.879639,46.794067,113.363159,47.091064Q113.846802,47.387939,114.465088,47.387939ZM122.171387,53.133179Q121.646729,53.133179,121.284302,52.773315Q120.921997,52.41333,120.921997,51.891235Q120.921997,51.36853,121.284302,51.008911Q121.646729,50.649292,122.171387,50.649292Q122.696533,50.649292,123.058594,51.008911Q123.420776,51.36853,123.420776,51.891235Q123.420776,52.41333,123.058594,52.773315Q122.696533,53.133179,122.171387,53.133179ZM122.171387,47.195679Q121.646729,47.195679,121.284302,46.835815Q120.921997,46.47583,120.921997,45.953735Q120.921997,45.43103,121.284302,45.071411Q121.646729,44.711792,122.171387,44.711792Q122.696533,44.711792,123.058594,45.071411Q123.420776,45.43103,123.420776,45.953735Q123.420776,46.47583,123.058594,46.835815Q122.696533,47.195679,122.171387,47.195679ZM125.440674,50.783325L125.440674,49.129149999999996L130.424316,41.359375L131.78857399999998,41.359375L131.78857399999998,43.6955566L130.96130399999998,43.6955566L127.568359,48.98645L127.568359,49.071655L134.519043,49.071655L134.519043,50.783325L125.440674,50.783325ZM131.016479,53L131.016479,50.284424L131.045898,49.532959L131.045898,41.359375L133.012695,41.359375L133.012695,53L131.016479,53ZM140.81213400000001,41.359375L140.81213400000001,53L138.749512,53L138.749512,43.228881799999996L138.678833,43.228881799999996L135.953979,45.165771L135.953979,43.189331100000004L138.550049,41.359375L140.81213400000001,41.359375Z" fill="#B3C1D0" fill-opacity="1"/></g><rect x="88.5" y="20.5" width="63" height="119" rx="11.5" fill-opacity="0" stroke-opacity="0.10000000149011612" stroke="#000000" fill="none" stroke-width="1"/></g></g></g></svg>