<svg xmlns="http://www.w3.org/2000/svg" xmlns:xlink="http://www.w3.org/1999/xlink" fill="none" version="1.1" width="240" height="160" viewBox="0 0 240 160"><defs><clipPath id="master_svg0_148_00779"><rect x="0" y="0" width="240" height="160" rx="0"/></clipPath><filter id="master_svg1_148_00799" filterUnits="objectBoundingBox" color-interpolation-filters="sRGB" x="-0.10625" y="-0.09166666666666666" width="1.1375" height="1.1833333333333333"><feFlood flood-opacity="0" result="BackgroundImageFix"/><feColorMatrix in="SourceAlpha" type="matrix" values="0 0 0 0 0 0 0 0 0 0 0 0 0 0 0 0 0 0 127 0"/><feMorphology radius="-1" operator="dilate" in="SourceAlpha" result="effect1_dropShadow"/><feOffset dy="4" dx="0"/><feGaussianBlur stdDeviation="3"/><feColorMatrix type="matrix" values="0 0 0 0 0.06666667014360428 0 0 0 0 0.06666667014360428 0 0 0 0 0.06666667014360428 0 0 0 0.10000000149011612 0"/><feBlend mode="normal" in2="BackgroundImageFix" result="effect1_dropShadow"/><feColorMatrix in="SourceAlpha" type="matrix" values="0 0 0 0 0 0 0 0 0 0 0 0 0 0 0 0 0 0 127 0"/><feMorphology radius="-2" operator="dilate" in="SourceAlpha" result="effect2_dropShadow"/><feOffset dy="2" dx="0"/><feGaussianBlur stdDeviation="2"/><feColorMatrix type="matrix" values="0 0 0 0 0.06666667014360428 0 0 0 0 0.06666667014360428 0 0 0 0 0.06666667014360428 0 0 0 0.05999999865889549 0"/><feBlend mode="normal" in2="effect1_dropShadow" result="effect2_dropShadow"/><feBlend mode="normal" in="SourceGraphic" in2="effect2_dropShadow" result="shape"/></filter><clipPath id="master_svg2_148_00799"><rect x="16" y="16" width="160" height="120" rx="8"/></clipPath><clipPath id="master_svg3_148_00800"><rect x="16" y="16" width="160" height="16" rx="0"/></clipPath><clipPath id="master_svg4_148_00804"><rect x="16" y="32" width="160" height="104" rx="0"/></clipPath><clipPath id="master_svg5_148_00809"><rect x="24" y="40" width="144" height="44" rx="4"/></clipPath><clipPath id="master_svg6_148_00819"><rect x="24" y="88" width="45" height="32" rx="4"/></clipPath><clipPath id="master_svg7_148_00818"><rect x="74" y="88" width="44" height="32" rx="4"/></clipPath><clipPath id="master_svg8_148_00805"><rect x="123" y="88" width="45" height="32" rx="4"/></clipPath><clipPath id="master_svg9_153_2240"><rect x="24" y="124" width="32" height="4" rx="2"/></clipPath><clipPath id="master_svga_153_2241"><rect x="74" y="124" width="32" height="4" rx="2"/></clipPath><clipPath id="master_svgb_153_2242"><rect x="123" y="124" width="32" height="4" rx="2"/></clipPath><filter id="master_svgc_148_00780" filterUnits="objectBoundingBox" color-interpolation-filters="sRGB" x="-0.265625" y="-0.09166666666666666" width="1.34375" height="1.1833333333333333"><feFlood flood-opacity="0" result="BackgroundImageFix"/><feColorMatrix in="SourceAlpha" type="matrix" values="0 0 0 0 0 0 0 0 0 0 0 0 0 0 0 0 0 0 127 0"/><feMorphology radius="-1" operator="dilate" in="SourceAlpha" result="effect1_dropShadow"/><feOffset dy="4" dx="0"/><feGaussianBlur stdDeviation="3"/><feColorMatrix type="matrix" values="0 0 0 0 0.06666667014360428 0 0 0 0 0.06666667014360428 0 0 0 0 0.06666667014360428 0 0 0 0.10000000149011612 0"/><feBlend mode="normal" in2="BackgroundImageFix" result="effect1_dropShadow"/><feColorMatrix in="SourceAlpha" type="matrix" values="0 0 0 0 0 0 0 0 0 0 0 0 0 0 0 0 0 0 127 0"/><feMorphology radius="-2" operator="dilate" in="SourceAlpha" result="effect2_dropShadow"/><feOffset dy="2" dx="0"/><feGaussianBlur stdDeviation="2"/><feColorMatrix type="matrix" values="0 0 0 0 0.06666667014360428 0 0 0 0 0.06666667014360428 0 0 0 0 0.06666667014360428 0 0 0 0.05999999865889549 0"/><feBlend mode="normal" in2="effect1_dropShadow" result="effect2_dropShadow"/><feBlend mode="normal" in="SourceGraphic" in2="effect2_dropShadow" result="shape"/></filter><clipPath id="master_svgd_148_00780"><rect x="160" y="24" width="64" height="120" rx="12"/></clipPath><clipPath id="master_svge_148_00798"><rect x="184" y="28" width="16" height="6" rx="3"/></clipPath><clipPath id="master_svgf_148_00794"><rect x="184" y="138" width="16" height="2" rx="1"/></clipPath><clipPath id="master_svgg_148_00785"><rect x="165" y="40" width="54" height="40" rx="4"/></clipPath><clipPath id="master_svgh_148_00781"><rect x="165" y="84" width="25" height="18" rx="4"/></clipPath><clipPath id="master_svgi_148_00784"><rect x="165" y="112" width="25" height="18" rx="4"/></clipPath><clipPath id="master_svgj_148_00782"><rect x="194" y="84" width="25" height="18" rx="4"/></clipPath><clipPath id="master_svgk_148_00796"><rect x="194" y="112" width="25" height="18" rx="4"/></clipPath><clipPath id="master_svgl_153_2247"><rect x="165" y="104" width="16" height="4" rx="2"/></clipPath><clipPath id="master_svgm_153_2254"><rect x="165" y="132" width="16" height="4" rx="2"/></clipPath><clipPath id="master_svgn_153_2255"><rect x="194" y="132" width="16" height="4" rx="2"/></clipPath><clipPath id="master_svgo_153_2248"><rect x="194" y="104" width="16" height="4" rx="2"/></clipPath></defs><g clip-path="url(#master_svg0_148_00779)"><g filter="url(#master_svg1_148_00799)"><g clip-path="url(#master_svg2_148_00799)"><rect x="16" y="16" width="160" height="120" rx="8" fill="#FFFFFF" fill-opacity="1"/><g clip-path="url(#master_svg3_148_00800)"><rect x="16" y="16" width="160" height="16" rx="0" fill="#F2F4F7" fill-opacity="1"/><g><ellipse cx="24" cy="24" rx="2" ry="2" fill="#99AABD" fill-opacity="1"/></g><g><ellipse cx="30" cy="24" rx="2" ry="2" fill="#B3C1D0" fill-opacity="1"/></g><g><ellipse cx="36" cy="24" rx="2" ry="2" fill="#CDD7E2" fill-opacity="1"/></g></g><g clip-path="url(#master_svg4_148_00804)"><g clip-path="url(#master_svg5_148_00809)"><rect x="24" y="40" width="144" height="44" rx="4" fill="#E4EBF1" fill-opacity="1"/><g><path d="M86.31445312,67L89.6162109,56.8144531L93.3896484,56.8144531L96.814453,67L93.6835938,67L92.5009766,63.048828Q92.1181641,61.763672,91.7832031,60.379394500000004Q91.4482422,58.9951172,91.1474609,57.6279297L91.7763672,57.6279297Q91.4892578,58.9951172,91.1953125,60.379394500000004Q90.9013672,61.763672,90.5322266,63.048828L89.4042969,67L86.31445312,67ZM88.7617188,65.044922L88.7617188,62.980469L94.3671875,62.980469L94.3671875,65.044922L88.7617188,65.044922ZM99.96582000000001,67.095703Q99.152344,67.095703,98.465332,66.668457Q97.77832000000001,66.24121099999999,97.36816400000001,65.373047Q96.958008,64.504883,96.958008,63.185547Q96.958008,61.797852,97.388672,60.933105499999996Q97.81933599999999,60.0683594,98.50292999999999,59.6650391Q99.186523,59.2617188,99.938477,59.2617188Q100.505859,59.2617188,100.933105,59.456542999999996Q101.360352,59.651367199999996,101.650879,59.979492199999996Q101.941406,60.307617199999996,102.08496099999999,60.6972656L102.125977,60.6972656L102.125977,56.8144531L104.874023,56.8144531L104.874023,67L102.15332000000001,67L102.15332000000001,65.742188L102.08496099999999,65.742188Q101.927734,66.13183599999999,101.63378900000001,66.436035Q101.339844,66.740234,100.922852,66.917969Q100.505859,67.095703,99.96582000000001,67.095703ZM100.97753900000001,64.990234Q101.353516,64.990234,101.626953,64.768066Q101.900391,64.545898,102.047363,64.142578Q102.19433599999999,63.739258,102.19433599999999,63.185547Q102.19433599999999,62.618164,102.047363,62.211426Q101.900391,61.804688,101.626953,61.585938Q101.353516,61.367188,100.97753900000001,61.367188Q100.601562,61.367188,100.33496099999999,61.585938Q100.068359,61.804688,99.928223,62.211426Q99.78808599999999,62.618164,99.78808599999999,63.185547Q99.78808599999999,63.746094,99.928223,64.152832Q100.068359,64.55957000000001,100.33496099999999,64.774902Q100.601562,64.990234,100.97753900000001,64.990234Z" fill="#99AABD" fill-opacity="1"/></g><g><g><rect x="90" y="78" width="6" height="2" rx="1" fill="#99AABD" fill-opacity="1"/></g><g><rect x="97" y="78" width="2" height="2" rx="1" fill="#B3C1D0" fill-opacity="1"/></g><g><rect x="100" y="78" width="2" height="2" rx="1" fill="#B3C1D0" fill-opacity="1"/></g></g></g><g clip-path="url(#master_svg6_148_00819)"><rect x="24" y="88" width="45" height="32" rx="4" fill="#F2F4F7" fill-opacity="1"/></g><g clip-path="url(#master_svg7_148_00818)"><rect x="74" y="88" width="44" height="32" rx="4" fill="#F2F4F7" fill-opacity="1"/></g><g clip-path="url(#master_svg8_148_00805)"><rect x="123" y="88" width="45" height="32" rx="4" fill="#F2F4F7" fill-opacity="1"/></g><g clip-path="url(#master_svg9_153_2240)"><rect x="24" y="124" width="32" height="4" rx="2" fill="#F2F4F7" fill-opacity="1"/></g><g clip-path="url(#master_svga_153_2241)"><rect x="74" y="124" width="32" height="4" rx="2" fill="#F2F4F7" fill-opacity="1"/></g><g clip-path="url(#master_svgb_153_2242)"><rect x="123" y="124" width="32" height="4" rx="2" fill="#F2F4F7" fill-opacity="1"/></g></g><rect x="16.5" y="16.5" width="159" height="119" rx="7.5" fill-opacity="0" stroke-opacity="0.10000000149011612" stroke="#000000" fill="none" stroke-width="1"/></g></g><g filter="url(#master_svgc_148_00780)"><g clip-path="url(#master_svgd_148_00780)"><rect x="160" y="24" width="64" height="120" rx="12" fill="#FFFFFF" fill-opacity="1"/><g clip-path="url(#master_svge_148_00798)"><rect x="184" y="28" width="16" height="6" rx="3" fill="#CDD7E2" fill-opacity="1"/></g><g clip-path="url(#master_svgf_148_00794)"><rect x="184" y="138" width="16" height="2" rx="1" fill="#CDD7E2" fill-opacity="1"/></g><g clip-path="url(#master_svgg_148_00785)"><rect x="165" y="40" width="54" height="40" rx="4" fill="#E4EBF1" fill-opacity="1"/><g><path d="M183.26953125,64L186.0996094,55.2695312L189.3339844,55.2695312L192.2695312,64L189.5859375,64L188.5722656,60.613281Q188.2441406,59.5117188,187.9570312,58.325195300000004Q187.6699219,57.1386719,187.4121094,55.9667969L187.9511719,55.9667969Q187.7050781,57.1386719,187.453125,58.325195300000004Q187.2011719,59.5117188,186.8847656,60.613281L185.9179688,64L183.26953125,64ZM185.3671875,62.324219L185.3671875,60.554688L190.171875,60.554688L190.171875,62.324219L185.3671875,62.324219ZM194.97070300000001,64.082031Q194.273438,64.082031,193.68457,63.71582Q193.09570300000001,63.349609,192.7441406,62.605469Q192.3925781,61.861328,192.3925781,60.730469Q192.3925781,59.5410156,192.7617188,58.799804699999996Q193.130859,58.0585938,193.71679699999999,57.7128906Q194.302734,57.3671875,194.947266,57.3671875Q195.433594,57.3671875,195.799805,57.5341797Q196.166016,57.7011719,196.415039,57.9824219Q196.664062,58.2636719,196.787109,58.5976562L196.822266,58.5976562L196.822266,55.2695312L199.177734,55.2695312L199.177734,64L196.84570300000001,64L196.84570300000001,62.921875L196.787109,62.921875Q196.652344,63.255859,196.400391,63.516602Q196.148438,63.777344,195.791016,63.929688Q195.433594,64.082031,194.97070300000001,64.082031ZM195.837891,62.277344Q196.160156,62.277344,196.394531,62.086914Q196.628906,61.896484,196.754883,61.550781Q196.880859,61.205078,196.880859,60.730469Q196.880859,60.244141,196.754883,59.895507800000004Q196.628906,59.546875,196.394531,59.359375Q196.160156,59.171875,195.837891,59.171875Q195.515625,59.171875,195.287109,59.359375Q195.058594,59.546875,194.938477,59.895507800000004Q194.818359,60.244141,194.818359,60.730469Q194.818359,61.210938,194.938477,61.55957Q195.058594,61.908203,195.287109,62.092773Q195.515625,62.277344,195.837891,62.277344Z" fill="#99AABD" fill-opacity="1"/></g><g><g><rect x="186" y="74" width="6" height="2" rx="1" fill="#99AABD" fill-opacity="1"/></g><g><rect x="193" y="74" width="2" height="2" rx="1" fill="#B3C1D0" fill-opacity="1"/></g><g><rect x="196" y="74" width="2" height="2" rx="1" fill="#B3C1D0" fill-opacity="1"/></g></g></g><g clip-path="url(#master_svgh_148_00781)"><rect x="165" y="84" width="25" height="18" rx="4" fill="#F2F4F7" fill-opacity="1"/></g><g clip-path="url(#master_svgi_148_00784)"><rect x="165" y="112" width="25" height="18" rx="4" fill="#F2F4F7" fill-opacity="1"/></g><g clip-path="url(#master_svgj_148_00782)"><rect x="194" y="84" width="25" height="18" rx="4" fill="#F2F4F7" fill-opacity="1"/></g><g clip-path="url(#master_svgk_148_00796)"><rect x="194" y="112" width="25" height="18" rx="4" fill="#F2F4F7" fill-opacity="1"/></g><g clip-path="url(#master_svgl_153_2247)"><rect x="165" y="104" width="16" height="4" rx="2" fill="#F2F4F7" fill-opacity="1"/></g><g clip-path="url(#master_svgm_153_2254)"><rect x="165" y="132" width="16" height="4" rx="2" fill="#F2F4F7" fill-opacity="1"/></g><g clip-path="url(#master_svgn_153_2255)"><rect x="194" y="132" width="16" height="4" rx="2" fill="#F2F4F7" fill-opacity="1"/></g><g clip-path="url(#master_svgo_153_2248)"><rect x="194" y="104" width="16" height="4" rx="2" fill="#F2F4F7" fill-opacity="1"/></g><rect x="160.5" y="24.5" width="63" height="119" rx="11.5" fill-opacity="0" stroke-opacity="0.10000000149011612" stroke="#000000" fill="none" stroke-width="1"/></g></g></g></svg>