<svg xmlns="http://www.w3.org/2000/svg" xmlns:xlink="http://www.w3.org/1999/xlink" fill="none" version="1.1" width="240" height="160" viewBox="0 0 240 160"><defs><filter id="master_svg0_153_2147" filterUnits="objectBoundingBox" color-interpolation-filters="sRGB" x="-0.10625" y="-0.09166666666666666" width="1.1375" height="1.1833333333333333"><feFlood flood-opacity="0" result="BackgroundImageFix"/><feColorMatrix in="SourceAlpha" type="matrix" values="0 0 0 0 0 0 0 0 0 0 0 0 0 0 0 0 0 0 127 0"/><feMorphology radius="-1" operator="dilate" in="SourceAlpha" result="effect1_dropShadow"/><feOffset dy="4" dx="0"/><feGaussianBlur stdDeviation="3"/><feColorMatrix type="matrix" values="0 0 0 0 0.06666667014360428 0 0 0 0 0.06666667014360428 0 0 0 0 0.06666667014360428 0 0 0 0.10000000149011612 0"/><feBlend mode="normal" in2="BackgroundImageFix" result="effect1_dropShadow"/><feColorMatrix in="SourceAlpha" type="matrix" values="0 0 0 0 0 0 0 0 0 0 0 0 0 0 0 0 0 0 127 0"/><feMorphology radius="-2" operator="dilate" in="SourceAlpha" result="effect2_dropShadow"/><feOffset dy="2" dx="0"/><feGaussianBlur stdDeviation="2"/><feColorMatrix type="matrix" values="0 0 0 0 0.06666667014360428 0 0 0 0 0.06666667014360428 0 0 0 0 0.06666667014360428 0 0 0 0.05999999865889549 0"/><feBlend mode="normal" in2="effect1_dropShadow" result="effect2_dropShadow"/><feBlend mode="normal" in="SourceGraphic" in2="effect2_dropShadow" result="shape"/></filter><clipPath id="master_svg1_153_2147"><rect x="16" y="16" width="160" height="120" rx="8"/></clipPath><clipPath id="master_svg2_153_2148"><rect x="16" y="16" width="160" height="16" rx="0"/></clipPath><clipPath id="master_svg3_153_2152"><rect x="16" y="32" width="160" height="104" rx="0"/></clipPath><clipPath id="master_svg4_153_2362"><rect x="24" y="40" width="40" height="40" rx="4"/></clipPath><clipPath id="master_svg5_153_2383"><rect x="32" y="48" width="24" height="24" rx="0"/></clipPath><clipPath id="master_svg6_153_2379"><rect x="68" y="52" width="64" height="4" rx="2"/></clipPath><clipPath id="master_svg7_153_2381"><rect x="68" y="60" width="40" height="4" rx="2"/></clipPath><clipPath id="master_svg8_153_2391"><rect x="24" y="104" width="144" height="24" rx="4"/></clipPath><clipPath id="master_svg9_153_2380"><rect x="68" y="40" width="32" height="8" rx="4"/></clipPath><clipPath id="master_svga_153_2472"><rect x="24" y="88" width="40" height="8" rx="4"/></clipPath><clipPath id="master_svgb_153_2602"><rect x="76" y="88" width="40" height="8" rx="4"/></clipPath><clipPath id="master_svgc_153_2603"><rect x="128" y="88" width="40" height="8" rx="4"/></clipPath><filter id="master_svgd_153_2153" filterUnits="objectBoundingBox" color-interpolation-filters="sRGB" x="-0.265625" y="-0.09166666666666666" width="1.34375" height="1.1833333333333333"><feFlood flood-opacity="0" result="BackgroundImageFix"/><feColorMatrix in="SourceAlpha" type="matrix" values="0 0 0 0 0 0 0 0 0 0 0 0 0 0 0 0 0 0 127 0"/><feMorphology radius="-1" operator="dilate" in="SourceAlpha" result="effect1_dropShadow"/><feOffset dy="4" dx="0"/><feGaussianBlur stdDeviation="3"/><feColorMatrix type="matrix" values="0 0 0 0 0.06666667014360428 0 0 0 0 0.06666667014360428 0 0 0 0 0.06666667014360428 0 0 0 0.10000000149011612 0"/><feBlend mode="normal" in2="BackgroundImageFix" result="effect1_dropShadow"/><feColorMatrix in="SourceAlpha" type="matrix" values="0 0 0 0 0 0 0 0 0 0 0 0 0 0 0 0 0 0 127 0"/><feMorphology radius="-2" operator="dilate" in="SourceAlpha" result="effect2_dropShadow"/><feOffset dy="2" dx="0"/><feGaussianBlur stdDeviation="2"/><feColorMatrix type="matrix" values="0 0 0 0 0.06666667014360428 0 0 0 0 0.06666667014360428 0 0 0 0 0.06666667014360428 0 0 0 0.05999999865889549 0"/><feBlend mode="normal" in2="effect1_dropShadow" result="effect2_dropShadow"/><feBlend mode="normal" in="SourceGraphic" in2="effect2_dropShadow" result="shape"/></filter><clipPath id="master_svge_153_2153"><rect x="160" y="24" width="64" height="120" rx="12"/></clipPath><clipPath id="master_svgf_153_2155"><rect x="184" y="28" width="16" height="6" rx="3"/></clipPath><clipPath id="master_svgg_153_2154"><rect x="184" y="138" width="16" height="2" rx="1"/></clipPath><clipPath id="master_svgh_153_2476"><rect x="164" y="40" width="56" height="56" rx="4"/></clipPath><clipPath id="master_svgi_153_2477"><rect x="180" y="56" width="24" height="24" rx="0"/></clipPath><clipPath id="master_svgj_153_2483"><rect x="164" y="117" width="144" height="16" rx="4"/></clipPath><clipPath id="master_svgk_153_2487"><rect x="164" y="100" width="16" height="5" rx="2.5"/></clipPath><clipPath id="master_svgl_153_2757"><rect x="184" y="100" width="16" height="5" rx="2.5"/></clipPath><clipPath id="master_svgm_153_2758"><rect x="204" y="100" width="16" height="5" rx="2.5"/></clipPath><clipPath id="master_svgn_153_2604"><rect x="164" y="109" width="56" height="4" rx="2"/></clipPath></defs><g><g filter="url(#master_svg0_153_2147)"><g clip-path="url(#master_svg1_153_2147)"><rect x="16" y="16" width="160" height="120" rx="8" fill="#FFFFFF" fill-opacity="1"/><g clip-path="url(#master_svg2_153_2148)"><rect x="16" y="16" width="160" height="16" rx="0" fill="#F2F4F7" fill-opacity="1"/><g><ellipse cx="24" cy="24" rx="2" ry="2" fill="#99AABD" fill-opacity="1"/></g><g><ellipse cx="30" cy="24" rx="2" ry="2" fill="#B3C1D0" fill-opacity="1"/></g><g><ellipse cx="36" cy="24" rx="2" ry="2" fill="#CDD7E2" fill-opacity="1"/></g></g><g clip-path="url(#master_svg3_153_2152)"><g clip-path="url(#master_svg4_153_2362)"><rect x="24" y="40" width="40" height="40" rx="4" fill="#F2F4F7" fill-opacity="1"/><g clip-path="url(#master_svg5_153_2383)"><g><path d="M43.83781197377395,52.743709575C43.83781197377395,51.207329755,45.676013973773955,50.416649585,46.791312973773955,51.473299505L54.45081297377396,58.729639575C55.17941297377396,59.419939075,55.17941297377396,60.580240275,54.45081297377396,61.270540374999996L46.791312973773955,68.526840375C45.676013973773955,69.583540375,43.83781197377395,68.792839375,43.83781197377395,67.256439375L43.83781197377395,64.507740375C40.41989257377396,64.561741375,38.512352773773955,64.900539375,37.32562287377396,65.440540375C36.129123073773954,65.985040375,35.59211287377396,66.764839375,34.91921287377396,68.07733937500001C34.361232773773956,69.165840375,32.828732907773954,68.660640375,32.840062797069955,67.562240375C32.88268285977396,63.431039375,33.53952294377395,60.315639475,35.51937277377396,58.275039175C37.34952287377396,56.388619875,40.108022973773956,55.624949975,43.83781197377395,55.514389475L43.83781197377395,52.743709575Z" fill="#CDD7E2" fill-opacity="1"/></g></g></g><g clip-path="url(#master_svg6_153_2379)"><rect x="68" y="52" width="64" height="4" rx="2" fill="#F2F4F7" fill-opacity="1"/></g><g clip-path="url(#master_svg7_153_2381)"><rect x="68" y="60" width="40" height="4" rx="2" fill="#F2F4F7" fill-opacity="1"/></g><g clip-path="url(#master_svg8_153_2391)"><rect x="24" y="104" width="144" height="24" rx="4" fill="#E4EBF1" fill-opacity="1"/><g><path d="M32.3305664,116.1628418L32.3305664,120L30.80767822,120L30.80767822,111.2695312L32.3095093,111.2695312L32.3095093,115.0687866L32.1531372,115.0687866Q32.4245911,114.219635,32.959259,113.793457Q33.4940186,113.3671875,34.295105,113.3671875Q34.9698486,113.3671875,35.4750366,113.6554871Q35.9802246,113.9437866,36.259552,114.4948425Q36.5389709,115.0458069,36.5389709,115.8356323L36.5389709,120L35.0123291,120L35.0123291,116.0690002Q35.0123291,115.4101868,34.6705627,115.0362854Q34.3288879,114.6622925,33.7298584,114.6622925Q33.3264771,114.6622925,33.0094299,114.8388977Q32.6924744,115.0155029,32.5114746,115.3501282Q32.3305664,115.6846619,32.3305664,116.1628418ZM41.184814,113.4492188L41.184814,114.6426086L37.4648438,114.6426086L37.4648438,113.4492188L41.184814,113.4492188ZM38.394378700000004,111.890625L39.9172668,111.890625L39.9172668,118.155212Q39.9172668,118.510345,40.069611,118.676697Q40.221954,118.842957,40.572601,118.842957Q40.674316,118.842957,40.846436,118.818512Q41.018646000000004,118.793976,41.124297999999996,118.770538L41.364349000000004,119.945892Q41.11377,120.023438,40.851929,120.055847Q40.590179,120.088348,40.345093,120.088348Q39.404754600000004,120.088348,38.8995667,119.620056Q38.394378700000004,119.151764,38.394378700000004,118.28576699999999L38.394378700000004,111.890625ZM45.421143,113.4492188L45.421143,114.6426086L41.701172,114.6426086L41.701172,113.4492188L45.421143,113.4492188ZM42.630707,111.890625L44.153594999999996,111.890625L44.153594999999996,118.155212Q44.153594999999996,118.510345,44.305939,118.676697Q44.458282,118.842957,44.808929,118.842957Q44.910645,118.842957,45.082764,118.818512Q45.254974000000004,118.793976,45.360625999999996,118.770538L45.600677,119.945892Q45.350098,120.023438,45.088257,120.055847Q44.826508000000004,120.088348,44.581421,120.088348Q43.641083,120.088348,43.135895,119.620056Q42.630707,119.151764,42.630707,118.28576699999999L42.630707,111.890625ZM46.627991,122.449219L46.627991,113.4492188L48.119934,113.4492188L48.119934,114.5339355L48.216064,114.5339355Q48.333709999999996,114.3012085,48.549774,114.0292969Q48.76593,113.7573853,49.137726,113.5622864Q49.509521,113.3671875,50.093353,113.3671875Q50.852509,113.3671875,51.461792,113.7541809Q52.071075,114.1410828,52.430786,114.8935547Q52.790588,115.6460266,52.790588,116.7379761Q52.790588,117.812531,52.439026,118.567932Q52.087463,119.323334,51.477173,119.721497Q50.866882000000004,120.119568,50.088684,120.119568Q49.526641999999995,120.119568,49.153198,119.927856Q48.779755,119.736053,48.557739,119.467896Q48.335815,119.199646,48.216064,118.963165L48.150879,118.963165L48.150879,122.449219L46.627991,122.449219ZM49.675323,118.866119Q50.187195,118.866119,50.532806,118.587799Q50.878417999999996,118.309479,51.054749,117.825897Q51.231171,117.342224,51.231171,116.7304688Q51.231171,116.1203613,51.056671,115.6442871Q50.882172,115.1681213,50.53656,114.8943787Q50.190948,114.6205444,49.675323,114.6205444Q49.173065,114.6205444,48.826172,114.8831177Q48.479279,115.1455994,48.300751000000005,115.6180115Q48.122314,116.0904236,48.122314,116.7304688Q48.122314,117.366302,48.302673,117.847046Q48.483032,118.327789,48.831756999999996,118.596954Q49.180572999999995,118.866119,49.675323,118.866119ZM56.593781,120.132202Q55.841949,120.132202,55.26059,119.915863Q54.679230000000004,119.699524,54.308807,119.284332Q53.938385,118.869141,53.823302999999996,118.277161L55.249145999999996,118.00946Q55.381348,118.493683,55.725677000000005,118.729889Q56.070007000000004,118.966003,56.624268,118.966003Q57.1875,118.966003,57.517731,118.740509Q57.847961,118.515015,57.847961,118.184509Q57.847961,117.899506,57.630707,117.715118Q57.413452,117.53064,56.963013000000004,117.434052L55.847809,117.193085Q54.919189,116.9926758,54.462433000000004,116.535553Q54.005676,116.0784302,54.005676,115.3574524Q54.005676,114.7507324,54.339935,114.3042297Q54.674285999999995,113.8577271,55.268555,113.6124573Q55.862823,113.3671875,56.646515,113.3671875Q57.390015,113.3671875,57.925964,113.5777588Q58.462006,113.7883301,58.793701,114.1670837Q59.125488000000004,114.5458374,59.255127,115.05725100000001L57.897217,115.3222961Q57.783508,114.9813538,57.490082,114.7437744Q57.196655,114.5061951,56.667206,114.5061951Q56.182434,114.5061951,55.857147,114.7177734Q55.53186,114.9292603,55.53186,115.265625Q55.53186,115.5509033,55.745911,115.7379456Q55.960052000000005,115.9248962,56.460480000000004,116.0343933L57.575134,116.2687683Q58.505859,116.4670715,58.957764,116.9063416Q59.40976,117.34552,59.40976,118.03829999999999Q59.40976,118.658936,59.050781,119.130432Q58.691895,119.601837,58.057159,119.867065Q57.422516,120.132202,56.593781,120.132202ZM61.812377999999995,120.099335Q61.416779,120.099335,61.144226,119.828888Q60.871674,119.558441,60.871674,119.164948Q60.871674,118.771454,61.144226,118.501007Q61.416779,118.230469,61.812377999999995,118.230469Q62.207977,118.230469,62.48053,118.501007Q62.753174,118.771454,62.753174,119.164948Q62.753174,119.558441,62.48053,119.828888Q62.207977,120.099335,61.812377999999995,120.099335ZM61.812377999999995,115.6227722Q61.416779,115.6227722,61.144226,115.3523254Q60.871674,115.0818787,60.871674,114.688385Q60.871674,114.2948914,61.144226,114.0244446Q61.416779,113.7539062,61.812377999999995,113.7539062Q62.207977,113.7539062,62.48053,114.0244446Q62.753174,114.2948914,62.753174,114.688385Q62.753174,115.0818787,62.48053,115.3523254Q62.207977,115.6227722,61.812377999999995,115.6227722ZM68.07650799999999,110.859375L65.26400799999999,121.3125L63.924408,121.3125L66.736908,110.859375L68.07650799999999,110.859375ZM72.62338299999999,110.859375L69.81088299999999,121.3125L68.471283,121.3125L71.283783,110.859375L72.62338299999999,110.859375ZM73.112549,120L75.662842,116.0468445L75.659088,117.226593L73.240997,113.4492188L74.916504,113.4492188L75.58337399999999,114.5625Q75.876526,115.0631104,76.10476700000001,115.537262Q76.333099,116.0114136,76.56866500000001,116.4541626L75.93978899999999,116.4541626Q76.18542500000001,116.0135193,76.402954,115.5383606Q76.62048300000001,115.0631104,76.92370600000001,114.5625L77.61236600000001,113.4492188L79.256012,113.4492188L76.80514500000001,117.25451699999999L76.80514500000001,116.0955505L79.35296600000001,120L77.687622,120L76.88269,118.6875Q76.586975,118.192291,76.35708600000001,117.723358Q76.12728899999999,117.254333,75.889252,116.8228455L76.52179000000001,116.8228455Q76.28997799999999,117.254333,76.076477,117.723358Q75.862976,118.192291,75.567627,118.6875L74.761597,120L73.112549,120ZM79.938721,120L82.489014,116.0468445L82.48526,117.226593L80.067169,113.4492188L81.742676,113.4492188L82.409546,114.5625Q82.702698,115.0631104,82.930939,115.537262Q83.15927099999999,116.0114136,83.394836,116.4541626L82.765961,116.4541626Q83.011597,116.0135193,83.22912600000001,115.5383606Q83.44665499999999,115.0631104,83.749878,114.5625L84.438538,113.4492188L86.082184,113.4492188L83.631317,117.25451699999999L83.631317,116.0955505L86.179138,120L84.51379399999999,120L83.70886200000001,118.6875Q83.41314700000001,118.192291,83.183258,117.723358Q82.953461,117.254333,82.715424,116.8228455L83.347961,116.8228455Q83.11615,117.254333,82.902649,117.723358Q82.689148,118.192291,82.393799,118.6875L81.58776900000001,120L79.938721,120ZM86.764893,120L89.315186,116.0468445L89.311432,117.226593L86.89334099999999,113.4492188L88.568848,113.4492188L89.23571799999999,114.5625Q89.52887,115.0631104,89.75711100000001,115.537262Q89.985443,116.0114136,90.221008,116.4541626L89.59213299999999,116.4541626Q89.83776900000001,116.0135193,90.055298,115.5383606Q90.272827,115.0631104,90.57605000000001,114.5625L91.26470900000001,113.4492188L92.908356,113.4492188L90.45748900000001,117.25451699999999L90.45748900000001,116.0955505L93.00531000000001,120L91.339966,120L90.535034,118.6875Q90.239319,118.192291,90.00943000000001,117.723358Q89.77963299999999,117.254333,89.541595,116.8228455L90.174133,116.8228455Q89.94232199999999,117.254333,89.72882100000001,117.723358Q89.51532,118.192291,89.219971,118.6875L88.41394,120L86.764893,120ZM93.591064,120L96.141357,116.0468445L96.137604,117.226593L93.719513,113.4492188L95.39502,113.4492188L96.06189,114.5625Q96.355042,115.0631104,96.583282,115.537262Q96.811615,116.0114136,97.04718,116.4541626L96.418304,116.4541626Q96.66394,116.0135193,96.88147,115.5383606Q97.098999,115.0631104,97.402222,114.5625L98.090881,113.4492188L99.734528,113.4492188L97.283661,117.25451699999999L97.283661,116.0955505L99.831482,120L98.166138,120L97.361206,118.6875Q97.065491,118.192291,96.835602,117.723358Q96.605804,117.254333,96.367767,116.8228455L97.000305,116.8228455Q96.768494,117.254333,96.554993,117.723358Q96.341492,118.192291,96.046143,118.6875L95.240112,120L93.591064,120ZM100.417236,120L102.967529,116.0468445L102.963776,117.226593L100.545685,113.4492188L102.221191,113.4492188L102.888062,114.5625Q103.181213,115.0631104,103.409454,115.537262Q103.637787,116.0114136,103.873352,116.4541626L103.244476,116.4541626Q103.490112,116.0135193,103.707642,115.5383606Q103.925171,115.0631104,104.228394,114.5625L104.917053,113.4492188L106.560699,113.4492188L104.109833,117.25451699999999L104.109833,116.0955505L106.657654,120L104.99231,120L104.187378,118.6875Q103.891663,118.192291,103.661774,117.723358Q103.431976,117.254333,103.193939,116.8228455L103.826477,116.8228455Q103.594666,117.254333,103.381165,117.723358Q103.167664,118.192291,102.872314,118.6875L102.066284,120L100.417236,120ZM107.243408,120L109.793701,116.0468445L109.789948,117.226593L107.371857,113.4492188L109.047363,113.4492188L109.714233,114.5625Q110.007385,115.0631104,110.235626,115.537262Q110.463959,116.0114136,110.699524,116.4541626L110.070648,116.4541626Q110.316284,116.0135193,110.533813,115.5383606Q110.751343,115.0631104,111.054565,114.5625L111.743225,113.4492188L113.386871,113.4492188L110.936005,117.25451699999999L110.936005,116.0955505L113.483826,120L111.818481,120L111.01355,118.6875Q110.717834,118.192291,110.487946,117.723358Q110.258148,117.254333,110.020111,116.8228455L110.652649,116.8228455Q110.420837,117.254333,110.207336,117.723358Q109.993835,118.192291,109.698486,118.6875L108.892456,120L107.243408,120ZM115.689331,120.099335Q115.293732,120.099335,115.021179,119.828888Q114.748627,119.558441,114.748627,119.164948Q114.748627,118.771454,115.021179,118.501007Q115.293732,118.230469,115.689331,118.230469Q116.08493,118.230469,116.357483,118.501007Q116.630127,118.771454,116.630127,119.164948Q116.630127,119.558441,116.357483,119.828888Q116.08493,120.099335,115.689331,120.099335ZM117.895752,120L120.446045,116.0468445L120.442291,117.226593L118.0242,113.4492188L119.699707,113.4492188L120.366577,114.5625Q120.659729,115.0631104,120.88797,115.537262Q121.116302,116.0114136,121.351868,116.4541626L120.722992,116.4541626Q120.968628,116.0135193,121.186157,115.5383606Q121.403687,115.0631104,121.706909,114.5625L122.395569,113.4492188L124.039215,113.4492188L121.588348,117.25451699999999L121.588348,116.0955505L124.136169,120L122.470825,120L121.665894,118.6875Q121.370178,118.192291,121.140289,117.723358Q120.910492,117.254333,120.672455,116.8228455L121.304993,116.8228455Q121.073181,117.254333,120.85968,117.723358Q120.646179,118.192291,120.35083,118.6875L119.5448,120L117.895752,120ZM124.721924,120L127.272217,116.0468445L127.268463,117.226593L124.850372,113.4492188L126.525879,113.4492188L127.192749,114.5625Q127.485901,115.0631104,127.714142,115.537262Q127.942474,116.0114136,128.17804,116.4541626L127.549164,116.4541626Q127.7948,116.0135193,128.012329,115.5383606Q128.22985799999998,115.0631104,128.53308099999998,114.5625L129.221741,113.4492188L130.86539,113.4492188L128.41451999999998,117.25451699999999L128.41451999999998,116.0955505L130.96233999999998,120L129.296997,120L128.492065,118.6875Q128.19635,118.192291,127.966461,117.723358Q127.736664,117.254333,127.498627,116.8228455L128.131165,116.8228455Q127.899353,117.254333,127.685852,117.723358Q127.472351,118.192291,127.177002,118.6875L126.370972,120L124.721924,120ZM131.5481,120L134.09839,116.0468445L134.09464,117.226593L131.67654,113.4492188L133.35205000000002,113.4492188L134.01891999999998,114.5625Q134.31207,115.0631104,134.54031,115.537262Q134.76864999999998,116.0114136,135.00421,116.4541626L134.37534,116.4541626Q134.62097,116.0135193,134.8385,115.5383606Q135.05603000000002,115.0631104,135.35925,114.5625L136.04791,113.4492188L137.69155999999998,113.4492188L135.24069,117.25451699999999L135.24069,116.0955505L137.78851,120L136.12317000000002,120L135.31824,118.6875Q135.02252,118.192291,134.79263,117.723358Q134.56284,117.254333,134.32479999999998,116.8228455L134.95734,116.8228455Q134.72552000000002,117.254333,134.51202,117.723358Q134.29852,118.192291,134.00317,118.6875L133.19714,120L131.5481,120ZM142.43198,110.859375L139.61948,121.3125L138.27988,121.3125L141.09238,110.859375L142.43198,110.859375ZM142.92113999999998,120L145.47144,116.0468445L145.46768,117.226593L143.04959,113.4492188L144.7251,113.4492188L145.39197000000001,114.5625Q145.68511999999998,115.0631104,145.91336,115.537262Q146.14168999999998,116.0114136,146.37726,116.4541626L145.74838,116.4541626Q145.99402,116.0135193,146.21155,115.5383606Q146.42908,115.0631104,146.7323,114.5625L147.42095999999998,113.4492188L149.06461000000002,113.4492188L146.61374,117.25451699999999L146.61374,116.0955505L149.16156,120L147.49622,120L146.69128,118.6875Q146.39557000000002,118.192291,146.16568,117.723358Q145.93588,117.254333,145.69785000000002,116.8228455L146.33038,116.8228455Q146.09857,117.254333,145.88506999999998,117.723358Q145.67157,118.192291,145.37622,118.6875L144.57019,120L142.92113999999998,120ZM149.74731,120L152.29761000000002,116.0468445L152.29385000000002,117.226593L149.87576,113.4492188L151.55127,113.4492188L152.21814,114.5625Q152.51129,115.0631104,152.73953,115.537262Q152.96786,116.0114136,153.20343,116.4541626L152.57455,116.4541626Q152.82019,116.0135193,153.03771999999998,115.5383606Q153.25525,115.0631104,153.55847,114.5625L154.24713,113.4492188L155.89078,113.4492188L153.43991,117.25451699999999L153.43991,116.0955505L155.98773,120L154.32238999999998,120L153.51746,118.6875Q153.22174,118.192291,152.99185,117.723358Q152.76205,117.254333,152.52402,116.8228455L153.15656,116.8228455Q152.92473999999999,117.254333,152.71124,117.723358Q152.49774,118.192291,152.20238999999998,118.6875L151.39636000000002,120L149.74731,120ZM156.57349,120L159.12378,116.0468445L159.12003,117.226593L156.70193,113.4492188L158.37744,113.4492188L159.04431,114.5625Q159.33746,115.0631104,159.5657,115.537262Q159.79404,116.0114136,160.0296,116.4541626L159.40073,116.4541626Q159.64636,116.0135193,159.86389,115.5383606Q160.08142,115.0631104,160.38464,114.5625L161.0733,113.4492188L162.71695,113.4492188L160.26608,117.25451699999999L160.26608,116.0955505L162.8139,120L161.14856,120L160.34363,118.6875Q160.04791,118.192291,159.81802,117.723358Q159.58823,117.254333,159.35019,116.8228455L159.98273,116.8228455Q159.75092,117.254333,159.53741,117.723358Q159.32391,118.192291,159.02856,118.6875L158.22253,120L156.57349,120Z" fill="#99AABD" fill-opacity="1"/></g></g><g clip-path="url(#master_svg9_153_2380)"><rect x="68" y="40" width="32" height="8" rx="4" fill="#F2F4F7" fill-opacity="1"/></g><g clip-path="url(#master_svga_153_2472)"><rect x="24" y="88" width="40" height="8" rx="4" fill="#E4EBF1" fill-opacity="1"/></g><g clip-path="url(#master_svgb_153_2602)"><rect x="76" y="88" width="40" height="8" rx="4" fill="#F2F4F7" fill-opacity="1"/></g><g clip-path="url(#master_svgc_153_2603)"><rect x="128" y="88" width="40" height="8" rx="4" fill="#F2F4F7" fill-opacity="1"/></g></g><rect x="16.5" y="16.5" width="159" height="119" rx="7.5" fill-opacity="0" stroke-opacity="0.10000000149011612" stroke="#000000" fill="none" stroke-width="1"/></g></g><g filter="url(#master_svgd_153_2153)"><g clip-path="url(#master_svge_153_2153)"><rect x="160" y="24" width="64" height="120" rx="12" fill="#FFFFFF" fill-opacity="1"/><g clip-path="url(#master_svgf_153_2155)"><rect x="184" y="28" width="16" height="6" rx="3" fill="#CDD7E2" fill-opacity="1"/></g><g clip-path="url(#master_svgg_153_2154)"><rect x="184" y="138" width="16" height="2" rx="1" fill="#CDD7E2" fill-opacity="1"/></g><g clip-path="url(#master_svgh_153_2476)"><rect x="164" y="40" width="56" height="56" rx="4" fill="#F2F4F7" fill-opacity="1"/><g clip-path="url(#master_svgi_153_2477)"><g><path d="M191.83781197377397,60.743709575C191.83781197377397,59.207329755,193.67601397377396,58.416649585,194.79131297377396,59.473299505L202.45081297377396,66.729639575C203.17941297377396,67.419939075,203.17941297377396,68.580240275,202.45081297377396,69.270540375L194.79131297377396,76.526840375C193.67601397377396,77.583540375,191.83781197377397,76.792839375,191.83781197377397,75.256439375L191.83781197377397,72.507740375C188.41989257377395,72.561741375,186.51235277377396,72.900539375,185.32562287377397,73.440540375C184.12912307377397,73.985040375,183.59211287377394,74.764839375,182.91921287377394,76.07733937500001C182.36123277377396,77.165840375,180.82873290777397,76.660640375,180.84006279706995,75.562240375C180.88268285977395,71.431039375,181.53952294377396,68.315639475,183.51937277377397,66.275039175C185.34952287377396,64.388619875,188.10802297377396,63.624949975,191.83781197377397,63.514389475L191.83781197377397,60.743709575Z" fill="#CDD7E2" fill-opacity="1"/></g></g></g><g clip-path="url(#master_svgj_153_2483)"><rect x="164" y="117" width="144" height="16" rx="4" fill="#E4EBF1" fill-opacity="1"/><g><path d="M169.5537109,125.4418945L169.5537109,128L168.53845215,128L168.53845215,122.1796875L169.5396729,122.1796875L169.5396729,124.7125244L169.4354248,124.7125244Q169.616394,124.1464233,169.9728394,123.8623047Q170.3293457,123.578125,170.8634033,123.578125Q171.3132324,123.578125,171.6500244,123.7703247Q171.9868164,123.9625244,172.1730347,124.329895Q172.359314,124.6972046,172.359314,125.2237549L172.359314,128L171.3415527,128L171.3415527,125.3793335Q171.3415527,124.9401245,171.1137085,124.6908569Q170.8859253,124.4415283,170.4865723,124.4415283Q170.2176514,124.4415283,170.0062866,124.5592651Q169.7949829,124.677002,169.6743164,124.9000854Q169.5537109,125.12310790000001,169.5537109,125.4418945ZM175.456543,123.6328125L175.456543,124.42840580000001L172.9765625,124.42840580000001L172.9765625,123.6328125L175.456543,123.6328125ZM173.5962524,122.59375L174.6115112,122.59375L174.6115112,126.7701416Q174.6115112,127.006897,174.7130737,127.117798Q174.8146362,127.228638,175.0484009,127.228638Q175.1162109,127.228638,175.230957,127.212341Q175.3457642,127.195984,175.4161987,127.180359L175.5762329,127.963928Q175.4091797,128.015625,175.2346191,128.037231Q175.0601196,128.058899,174.8967285,128.058899Q174.2698364,128.058899,173.9330444,127.746704Q173.5962524,127.434509,173.5962524,126.8571777L173.5962524,122.59375ZM178.280762,123.6328125L178.280762,124.42840580000001L175.8007812,124.42840580000001L175.8007812,123.6328125L178.280762,123.6328125ZM176.4204712,122.59375L177.43573,122.59375L177.43573,126.7701416Q177.43573,127.006897,177.5372925,127.117798Q177.638855,127.228638,177.8726196,127.228638Q177.9404297,127.228638,178.055176,127.212341Q178.169983,127.195984,178.240417,127.180359L178.400452,127.963928Q178.233398,128.015625,178.058838,128.037231Q177.8843384,128.058899,177.7209473,128.058899Q177.0940552,128.058899,176.7572632,127.746704Q176.4204712,127.434509,176.4204712,126.8571777L176.4204712,122.59375ZM179.085327,129.632812L179.085327,123.6328125L180.079956,123.6328125L180.079956,124.355957L180.144043,124.355957Q180.222473,124.2008057,180.366516,124.0195312Q180.51062,123.8382568,180.758484,123.7081909Q181.006348,123.578125,181.395569,123.578125Q181.901672,123.578125,182.307861,123.8361206Q182.71405,124.0940552,182.953857,124.5957031Q183.193726,125.0973511,183.193726,125.8253174Q183.193726,126.541687,182.959351,127.045288Q182.724976,127.548889,182.318115,127.814331Q181.911255,128.079712,181.392456,128.079712Q181.017761,128.079712,180.768799,127.951904Q180.519836,127.824036,180.371826,127.645264Q180.223877,127.466431,180.144043,127.30877699999999L180.100586,127.30877699999999L180.100586,129.632812L179.085327,129.632812ZM181.116882,127.24408Q181.45813,127.24408,181.688538,127.058533Q181.918945,126.8729858,182.036499,126.5505981Q182.154114,126.2281494,182.154114,125.8203125Q182.154114,125.4135742,182.037781,125.0961914Q181.921448,124.7787476,181.69104,124.5962524Q181.460632,124.4136963,181.116882,124.4136963Q180.782043,124.4136963,180.550781,124.5887451Q180.319519,124.7637329,180.2005,125.0786743Q180.081543,125.3936157,180.081543,125.8203125Q180.081543,126.2442017,180.201782,126.5646973Q180.322021,126.88519289999999,180.554504,127.06463600000001Q180.787048,127.24408,181.116882,127.24408ZM185.729187,128.088135Q185.227966,128.088135,184.840393,127.943909Q184.45282,127.799683,184.205872,127.522888Q183.958923,127.246094,183.882202,126.8514404L184.832764,126.6729736Q184.920898,126.9957886,185.150452,127.153259Q185.380005,127.310669,185.749512,127.310669Q186.125,127.310669,186.345154,127.160339Q186.56530800000002,127.01001,186.56530800000002,126.7896729Q186.56530800000002,126.59967040000001,186.420471,126.4767456Q186.275635,126.3537598,185.975342,126.2893677L185.231873,126.1287231Q184.612793,125.9951172,184.308289,125.6903687Q184.003784,125.3856201,184.003784,124.90496830000001Q184.003784,124.5004883,184.22662400000002,124.2028198Q184.449524,123.9051514,184.84570300000001,123.7416382Q185.241882,123.578125,185.764343,123.578125Q186.26001,123.578125,186.61731,123.7185059Q186.97467,123.8588867,187.195801,124.1113892Q187.416992,124.3638916,187.503418,124.704834L186.598145,124.88153080000001Q186.522339,124.6542358,186.326721,124.4958496Q186.131104,124.3374634,185.77813700000002,124.3374634Q185.454956,124.3374634,185.238098,124.4785156Q185.02124,124.6195068,185.02124,124.84375Q185.02124,125.0339355,185.16394,125.15863039999999Q185.306702,125.2832642,185.64032,125.3562622L186.383423,125.5125122Q187.003906,125.6447144,187.305176,125.937561Q187.606506,126.2303467,187.606506,126.6921997Q187.606506,127.105957,187.367188,127.420288Q187.12793,127.73455799999999,186.704773,127.911377Q186.281677,128.088135,185.729187,128.088135ZM189.20825200000002,128.066223Q188.944519,128.066223,188.76281699999998,127.885925Q188.581116,127.70562699999999,188.581116,127.443298Q188.581116,127.180969,188.76281699999998,127.000671Q188.944519,126.8203125,189.20825200000002,126.8203125Q189.471985,126.8203125,189.653687,127.000671Q189.835449,127.180969,189.835449,127.443298Q189.835449,127.70562699999999,189.653687,127.885925Q189.471985,128.066223,189.20825200000002,128.066223ZM189.20825200000002,125.0818481Q188.944519,125.0818481,188.76281699999998,124.9015503Q188.581116,124.7212524,188.581116,124.4589233Q188.581116,124.19659419999999,188.76281699999998,124.0162964Q188.944519,123.8359375,189.20825200000002,123.8359375Q189.471985,123.8359375,189.653687,124.0162964Q189.835449,124.19659419999999,189.835449,124.4589233Q189.835449,124.7212524,189.653687,124.9015503Q189.471985,125.0818481,189.20825200000002,125.0818481ZM193.384338,121.90625L191.509338,128.875L190.616272,128.875L192.491272,121.90625L193.384338,121.90625ZM196.415588,121.90625L194.540588,128.875L193.647522,128.875L195.522522,121.90625L196.415588,121.90625ZM196.741699,128L198.441895,125.364563L198.439392,126.151062L196.827332,123.6328125L197.944336,123.6328125L198.388916,124.375Q198.584351,124.7087402,198.736511,125.0248413Q198.888733,125.3409424,199.045776,125.6361084L198.626526,125.6361084Q198.790283,125.3423462,198.935303,125.0255737Q199.080322,124.7087402,199.282471,124.375L199.741577,123.6328125L200.837341,123.6328125L199.20343,126.1696777L199.20343,125.3970337L200.90197799999999,128L199.79174799999998,128L199.25512700000002,127.125Q199.057983,126.7948608,198.904724,126.4822388Q198.751526,126.1695557,198.592834,125.881897L199.014526,125.881897Q198.859985,126.1695557,198.717651,126.4822388Q198.57531699999998,126.7948608,198.378418,127.125L197.841064,128L196.741699,128ZM201.29248,128L202.99267600000002,125.364563L202.990173,126.151062L201.37811299999998,123.6328125L202.495117,123.6328125L202.939697,124.375Q203.135132,124.7087402,203.287292,125.0248413Q203.439514,125.3409424,203.59655800000002,125.6361084L203.17730699999998,125.6361084Q203.34106400000002,125.3423462,203.486084,125.0255737Q203.631104,124.7087402,203.83325200000002,124.375L204.292358,123.6328125L205.388123,123.6328125L203.754211,126.1696777L203.754211,125.3970337L205.45275900000001,128L204.342529,128L203.805908,127.125Q203.608765,126.7948608,203.45550500000002,126.4822388Q203.30230699999998,126.1695557,203.143616,125.881897L203.56530800000002,125.881897Q203.410767,126.1695557,203.26843300000002,126.4822388Q203.126099,126.7948608,202.92919899999998,127.125L202.391846,128L201.29248,128ZM205.843262,128L207.543457,125.364563L207.540955,126.151062L205.928894,123.6328125L207.045898,123.6328125L207.490479,124.375Q207.685913,124.7087402,207.838074,125.0248413Q207.990295,125.3409424,208.147339,125.6361084L207.728088,125.6361084Q207.891846,125.3423462,208.036865,125.0255737Q208.181885,124.7087402,208.384033,124.375L208.84314,123.6328125L209.938904,123.6328125L208.304993,126.1696777L208.304993,125.3970337L210.00354,128L208.89331099999998,128L208.35668900000002,127.125Q208.159546,126.7948608,208.006287,126.4822388Q207.853088,126.1695557,207.694397,125.881897L208.116089,125.881897Q207.961548,126.1695557,207.819214,126.4822388Q207.67687999999998,126.7948608,207.47998,127.125L206.94262700000002,128L205.843262,128ZM210.394043,128L212.094238,125.364563L212.091736,126.151062L210.479675,123.6328125L211.59668,123.6328125L212.04126,124.375Q212.236694,124.7087402,212.388855,125.0248413Q212.541077,125.3409424,212.69812000000002,125.6361084L212.27886999999998,125.6361084Q212.44262700000002,125.3423462,212.587646,125.0255737Q212.732666,124.7087402,212.93481400000002,124.375L213.393921,123.6328125L214.489685,123.6328125L212.855774,126.1696777L212.855774,125.3970337L214.55432100000002,128L213.444092,128L212.907471,127.125Q212.710327,126.7948608,212.55706800000002,126.4822388Q212.40386999999998,126.1695557,212.245178,125.881897L212.66687000000002,125.881897Q212.512329,126.1695557,212.36999500000002,126.4822388Q212.227661,126.7948608,212.030762,127.125L211.493408,128L210.394043,128ZM214.94482399999998,128L216.64502,125.364563L216.642517,126.151062L215.030457,123.6328125L216.147461,123.6328125L216.592041,124.375Q216.787476,124.7087402,216.939636,125.0248413Q217.091858,125.3409424,217.248901,125.6361084L216.829651,125.6361084Q216.993408,125.3423462,217.138428,125.0255737Q217.283447,124.7087402,217.485596,124.375L217.944702,123.6328125L219.040466,123.6328125L217.406555,126.1696777L217.406555,125.3970337L219.10510299999999,128L217.99487299999998,128L217.45825200000002,127.125Q217.261108,126.7948608,217.107849,126.4822388Q216.954651,126.1695557,216.795959,125.881897L217.217651,125.881897Q217.06311,126.1695557,216.920776,126.4822388Q216.77844199999998,126.7948608,216.581543,127.125L216.04418900000002,128L214.94482399999998,128ZM219.495605,128L221.19580100000002,125.364563L221.193298,126.151062L219.58123799999998,123.6328125L220.698242,123.6328125L221.142822,124.375Q221.338257,124.7087402,221.490417,125.0248413Q221.642639,125.3409424,221.79968300000002,125.6361084L221.38043199999998,125.6361084Q221.54418900000002,125.3423462,221.689209,125.0255737Q221.834229,124.7087402,222.03637700000002,124.375L222.495483,123.6328125L223.591248,123.6328125L221.957336,126.1696777L221.957336,125.3970337L223.65588400000001,128L222.545654,128L222.009033,127.125Q221.81189,126.7948608,221.65863000000002,126.4822388Q221.50543199999998,126.1695557,221.346741,125.881897L221.76843300000002,125.881897Q221.613892,126.1695557,221.47155800000002,126.4822388Q221.329224,126.7948608,221.13232399999998,127.125L220.594971,128L219.495605,128ZM225.126221,128.066223Q224.86248799999998,128.066223,224.680786,127.885925Q224.499084,127.70562699999999,224.499084,127.443298Q224.499084,127.180969,224.680786,127.000671Q224.86248799999998,126.8203125,225.126221,126.8203125Q225.389954,126.8203125,225.571655,127.000671Q225.753418,127.180969,225.753418,127.443298Q225.753418,127.70562699999999,225.571655,127.885925Q225.389954,128.066223,225.126221,128.066223ZM226.597168,128L228.297363,125.364563L228.294861,126.151062L226.6828,123.6328125L227.799805,123.6328125L228.244385,124.375Q228.439819,124.7087402,228.59198,125.0248413Q228.744202,125.3409424,228.90124500000002,125.6361084L228.48199499999998,125.6361084Q228.64575200000002,125.3423462,228.790771,125.0255737Q228.935791,124.7087402,229.13793900000002,124.375L229.597046,123.6328125L230.69281,123.6328125L229.058899,126.1696777L229.058899,125.3970337L230.75744600000002,128L229.647217,128L229.110596,127.125Q228.913452,126.7948608,228.76019300000002,126.4822388Q228.60699499999998,126.1695557,228.448303,125.881897L228.86999500000002,125.881897Q228.715454,126.1695557,228.57312000000002,126.4822388Q228.430786,126.7948608,228.233887,127.125L227.696533,128L226.597168,128ZM231.14794899999998,128L232.848145,125.364563L232.845642,126.151062L231.233582,123.6328125L232.35058600000002,123.6328125L232.795166,124.375Q232.990601,124.7087402,233.142761,125.0248413Q233.294983,125.3409424,233.452026,125.6361084L233.032776,125.6361084Q233.196533,125.3423462,233.341553,125.0255737Q233.486572,124.7087402,233.688721,124.375L234.147827,123.6328125L235.24359099999998,123.6328125L233.60968,126.1696777L233.60968,125.3970337L235.30822799999999,128L234.19799799999998,128L233.66137700000002,127.125Q233.46423299999998,126.7948608,233.310974,126.4822388Q233.157776,126.1695557,232.99908399999998,125.881897L233.420776,125.881897Q233.266235,126.1695557,233.123901,126.4822388Q232.98156699999998,126.7948608,232.784668,127.125L232.24731400000002,128L231.14794899999998,128ZM235.69873,128L237.39892600000002,125.364563L237.396423,126.151062L235.78436299999998,123.6328125L236.901367,123.6328125L237.345947,124.375Q237.541382,124.7087402,237.69354199999998,125.0248413Q237.845764,125.3409424,238.00280800000002,125.6361084L237.58355699999998,125.6361084Q237.74731400000002,125.3423462,237.892334,125.0255737Q238.037354,124.7087402,238.23950200000002,124.375L238.69860799999998,123.6328125L239.794373,123.6328125L238.160461,126.1696777L238.160461,125.3970337L239.85900900000001,128L238.748779,128L238.212158,127.125Q238.015015,126.7948608,237.86175500000002,126.4822388Q237.70855699999998,126.1695557,237.549866,125.881897L237.97155800000002,125.881897Q237.81701700000002,126.1695557,237.67468300000002,126.4822388Q237.532349,126.7948608,237.33544899999998,127.125L236.798096,128L235.69873,128ZM242.954651,121.90625L241.079651,128.875L240.18658399999998,128.875L242.06158399999998,121.90625L242.954651,121.90625ZM243.28076199999998,128L244.980957,125.364563L244.978455,126.151062L243.366394,123.6328125L244.483398,123.6328125L244.927979,124.375Q245.123413,124.7087402,245.275574,125.0248413Q245.427795,125.3409424,245.584839,125.6361084L245.165588,125.6361084Q245.329346,125.3423462,245.474365,125.0255737Q245.619385,124.7087402,245.821533,124.375L246.28064,123.6328125L247.37640399999998,123.6328125L245.742493,126.1696777L245.742493,125.3970337L247.44104,128L246.33081099999998,128L245.79418900000002,127.125Q245.597046,126.7948608,245.443787,126.4822388Q245.290588,126.1695557,245.13189699999998,125.881897L245.553589,125.881897Q245.399048,126.1695557,245.256714,126.4822388Q245.11437999999998,126.7948608,244.91748,127.125L244.38012700000002,128L243.28076199999998,128ZM247.831543,128L249.53173800000002,125.364563L249.529236,126.151062L247.917175,123.6328125L249.03418,123.6328125L249.47876,124.375Q249.674194,124.7087402,249.826355,125.0248413Q249.978577,125.3409424,250.13562000000002,125.6361084L249.71636999999998,125.6361084Q249.88012700000002,125.3423462,250.025146,125.0255737Q250.170166,124.7087402,250.37231400000002,124.375L250.831421,123.6328125L251.927185,123.6328125L250.293274,126.1696777L250.293274,125.3970337L251.99182100000002,128L250.881592,128L250.344971,127.125Q250.147827,126.7948608,249.99456800000002,126.4822388Q249.84136999999998,126.1695557,249.682678,125.881897L250.10437000000002,125.881897Q249.949829,126.1695557,249.80749500000002,126.4822388Q249.665161,126.7948608,249.46826199999998,127.125L248.930908,128L247.831543,128ZM252.38232399999998,128L254.08252,125.364563L254.080017,126.151062L252.467957,123.6328125L253.58496100000002,123.6328125L254.029541,124.375Q254.224976,124.7087402,254.377136,125.0248413Q254.529358,125.3409424,254.686401,125.6361084L254.267151,125.6361084Q254.430908,125.3423462,254.575928,125.0255737Q254.720947,124.7087402,254.923096,124.375L255.382202,123.6328125L256.477966,123.6328125L254.844055,126.1696777L254.844055,125.3970337L256.542603,128L255.43237299999998,128L254.89575200000002,127.125Q254.69860799999998,126.7948608,254.545349,126.4822388Q254.392151,126.1695557,254.23345899999998,125.881897L254.655151,125.881897Q254.50061,126.1695557,254.358276,126.4822388Q254.21594199999998,126.7948608,254.019043,127.125L253.48168900000002,128L252.38232399999998,128Z" fill="#99AABD" fill-opacity="1"/></g></g><g clip-path="url(#master_svgk_153_2487)"><rect x="164" y="100" width="16" height="5" rx="2.5" fill="#E4EBF1" fill-opacity="1"/></g><g clip-path="url(#master_svgl_153_2757)"><rect x="184" y="100" width="16" height="5" rx="2.5" fill="#F2F4F7" fill-opacity="1"/></g><g clip-path="url(#master_svgm_153_2758)"><rect x="204" y="100" width="16" height="5" rx="2.5" fill="#F2F4F7" fill-opacity="1"/></g><g clip-path="url(#master_svgn_153_2604)"><rect x="164" y="109" width="56" height="4" rx="2" fill="#F2F4F7" fill-opacity="1"/></g><rect x="160.5" y="24.5" width="63" height="119" rx="11.5" fill-opacity="0" stroke-opacity="0.10000000149011612" stroke="#000000" fill="none" stroke-width="1"/></g></g></g></svg>