<svg xmlns="http://www.w3.org/2000/svg" xmlns:xlink="http://www.w3.org/1999/xlink" fill="none" version="1.1" width="240" height="160" viewBox="0 0 240 160"><defs><filter id="master_svg0_177_5294" filterUnits="objectBoundingBox" color-interpolation-filters="sRGB" x="-0.10625" y="-0.09166666666666666" width="1.1375" height="1.1833333333333333"><feFlood flood-opacity="0" result="BackgroundImageFix"/><feColorMatrix in="SourceAlpha" type="matrix" values="0 0 0 0 0 0 0 0 0 0 0 0 0 0 0 0 0 0 127 0"/><feMorphology radius="-1" operator="dilate" in="SourceAlpha" result="effect1_dropShadow"/><feOffset dy="4" dx="0"/><feGaussianBlur stdDeviation="3"/><feColorMatrix type="matrix" values="0 0 0 0 0.06666667014360428 0 0 0 0 0.06666667014360428 0 0 0 0 0.06666667014360428 0 0 0 0.10000000149011612 0"/><feBlend mode="normal" in2="BackgroundImageFix" result="effect1_dropShadow"/><feColorMatrix in="SourceAlpha" type="matrix" values="0 0 0 0 0 0 0 0 0 0 0 0 0 0 0 0 0 0 127 0"/><feMorphology radius="-2" operator="dilate" in="SourceAlpha" result="effect2_dropShadow"/><feOffset dy="2" dx="0"/><feGaussianBlur stdDeviation="2"/><feColorMatrix type="matrix" values="0 0 0 0 0.06666667014360428 0 0 0 0 0.06666667014360428 0 0 0 0 0.06666667014360428 0 0 0 0.05999999865889549 0"/><feBlend mode="normal" in2="effect1_dropShadow" result="effect2_dropShadow"/><feBlend mode="normal" in="SourceGraphic" in2="effect2_dropShadow" result="shape"/></filter><clipPath id="master_svg1_177_5294"><rect x="16" y="16" width="160" height="120" rx="8"/></clipPath><clipPath id="master_svg2_177_5303"><rect x="16" y="16" width="160" height="16" rx="0"/></clipPath><clipPath id="master_svg3_177_5295"><rect x="16" y="32" width="160" height="104" rx="0"/></clipPath><filter id="master_svg4_177_5298" filterUnits="objectBoundingBox" color-interpolation-filters="sRGB" x="-0.09375" y="-0.09722222222222222" width="1.125" height="1.1666666666666667"><feFlood flood-opacity="0" result="BackgroundImageFix"/><feColorMatrix in="SourceAlpha" type="matrix" values="0 0 0 0 0 0 0 0 0 0 0 0 0 0 0 0 0 0 127 0"/><feOffset dy="1" dx="0"/><feGaussianBlur stdDeviation="1.5"/><feColorMatrix type="matrix" values="0 0 0 0 0.06666667014360428 0 0 0 0 0.06666667014360428 0 0 0 0 0.06666667014360428 0 0 0 0.10000000149011612 0"/><feBlend mode="normal" in2="BackgroundImageFix" result="effect1_dropShadow"/><feColorMatrix in="SourceAlpha" type="matrix" values="0 0 0 0 0 0 0 0 0 0 0 0 0 0 0 0 0 0 127 0"/><feMorphology radius="-1" operator="dilate" in="SourceAlpha" result="effect2_dropShadow"/><feOffset dy="1" dx="0"/><feGaussianBlur stdDeviation="1"/><feColorMatrix type="matrix" values="0 0 0 0 0.06666667014360428 0 0 0 0 0.06666667014360428 0 0 0 0 0.06666667014360428 0 0 0 0.10000000149011612 0"/><feBlend mode="normal" in2="effect1_dropShadow" result="effect2_dropShadow"/><feBlend mode="normal" in="SourceGraphic" in2="effect2_dropShadow" result="shape"/></filter><clipPath id="master_svg5_177_5298"><rect x="40" y="48" width="96" height="72" rx="4"/></clipPath><filter id="master_svg6_177_5296" filterUnits="objectBoundingBox" color-interpolation-filters="sRGB" x="-1.4166666666666667" y="-0.9166666666666666" width="2.8333333333333335" height="2.8333333333333335"><feFlood flood-opacity="0" result="BackgroundImageFix"/><feColorMatrix in="SourceAlpha" type="matrix" values="0 0 0 0 0 0 0 0 0 0 0 0 0 0 0 0 0 0 127 0"/><feMorphology radius="-1" operator="dilate" in="SourceAlpha" result="effect1_dropShadow"/><feOffset dy="4" dx="0"/><feGaussianBlur stdDeviation="3"/><feColorMatrix type="matrix" values="0 0 0 0 0.06666667014360428 0 0 0 0 0.06666667014360428 0 0 0 0 0.06666667014360428 0 0 0 0.10000000149011612 0"/><feBlend mode="normal" in2="BackgroundImageFix" result="effect1_dropShadow"/><feColorMatrix in="SourceAlpha" type="matrix" values="0 0 0 0 0 0 0 0 0 0 0 0 0 0 0 0 0 0 127 0"/><feMorphology radius="-2" operator="dilate" in="SourceAlpha" result="effect2_dropShadow"/><feOffset dy="2" dx="0"/><feGaussianBlur stdDeviation="2"/><feColorMatrix type="matrix" values="0 0 0 0 0.06666667014360428 0 0 0 0 0.06666667014360428 0 0 0 0 0.06666667014360428 0 0 0 0.05999999865889549 0"/><feBlend mode="normal" in2="effect1_dropShadow" result="effect2_dropShadow"/><feBlend mode="normal" in="SourceGraphic" in2="effect2_dropShadow" result="shape"/></filter><clipPath id="master_svg7_177_5296"><rect x="34" y="42" width="12" height="12" rx="6"/></clipPath><filter id="master_svg8_177_5284" filterUnits="objectBoundingBox" color-interpolation-filters="sRGB" x="-0.265625" y="-0.09166666666666666" width="1.34375" height="1.1833333333333333"><feFlood flood-opacity="0" result="BackgroundImageFix"/><feColorMatrix in="SourceAlpha" type="matrix" values="0 0 0 0 0 0 0 0 0 0 0 0 0 0 0 0 0 0 127 0"/><feMorphology radius="-1" operator="dilate" in="SourceAlpha" result="effect1_dropShadow"/><feOffset dy="4" dx="0"/><feGaussianBlur stdDeviation="3"/><feColorMatrix type="matrix" values="0 0 0 0 0.06666667014360428 0 0 0 0 0.06666667014360428 0 0 0 0 0.06666667014360428 0 0 0 0.10000000149011612 0"/><feBlend mode="normal" in2="BackgroundImageFix" result="effect1_dropShadow"/><feColorMatrix in="SourceAlpha" type="matrix" values="0 0 0 0 0 0 0 0 0 0 0 0 0 0 0 0 0 0 127 0"/><feMorphology radius="-2" operator="dilate" in="SourceAlpha" result="effect2_dropShadow"/><feOffset dy="2" dx="0"/><feGaussianBlur stdDeviation="2"/><feColorMatrix type="matrix" values="0 0 0 0 0.06666667014360428 0 0 0 0 0.06666667014360428 0 0 0 0 0.06666667014360428 0 0 0 0.05999999865889549 0"/><feBlend mode="normal" in2="effect1_dropShadow" result="effect2_dropShadow"/><feBlend mode="normal" in="SourceGraphic" in2="effect2_dropShadow" result="shape"/></filter><clipPath id="master_svg9_177_5284"><rect x="160" y="24" width="64" height="120" rx="12"/></clipPath><clipPath id="master_svga_177_5286"><rect x="184" y="28" width="16" height="6" rx="3"/></clipPath><clipPath id="master_svgb_177_5285"><rect x="184" y="138" width="16" height="2" rx="1"/></clipPath><filter id="master_svgc_177_5289" filterUnits="objectBoundingBox" color-interpolation-filters="sRGB" x="-0.16071428571428573" y="-0.12962962962962962" width="1.2142857142857142" height="1.2222222222222223"><feFlood flood-opacity="0" result="BackgroundImageFix"/><feColorMatrix in="SourceAlpha" type="matrix" values="0 0 0 0 0 0 0 0 0 0 0 0 0 0 0 0 0 0 127 0"/><feOffset dy="1" dx="0"/><feGaussianBlur stdDeviation="1.5"/><feColorMatrix type="matrix" values="0 0 0 0 0.06666667014360428 0 0 0 0 0.06666667014360428 0 0 0 0 0.06666667014360428 0 0 0 0.10000000149011612 0"/><feBlend mode="normal" in2="BackgroundImageFix" result="effect1_dropShadow"/><feColorMatrix in="SourceAlpha" type="matrix" values="0 0 0 0 0 0 0 0 0 0 0 0 0 0 0 0 0 0 127 0"/><feMorphology radius="-1" operator="dilate" in="SourceAlpha" result="effect2_dropShadow"/><feOffset dy="1" dx="0"/><feGaussianBlur stdDeviation="1"/><feColorMatrix type="matrix" values="0 0 0 0 0.06666667014360428 0 0 0 0 0.06666667014360428 0 0 0 0 0.06666667014360428 0 0 0 0.10000000149011612 0"/><feBlend mode="normal" in2="effect1_dropShadow" result="effect2_dropShadow"/><feBlend mode="normal" in="SourceGraphic" in2="effect2_dropShadow" result="shape"/></filter><clipPath id="master_svgd_177_5289"><rect x="164" y="56" width="56" height="54" rx="4"/></clipPath><filter id="master_svge_177_5287" filterUnits="objectBoundingBox" color-interpolation-filters="sRGB" x="-1.4166666666666667" y="-0.9166666666666666" width="2.8333333333333335" height="2.8333333333333335"><feFlood flood-opacity="0" result="BackgroundImageFix"/><feColorMatrix in="SourceAlpha" type="matrix" values="0 0 0 0 0 0 0 0 0 0 0 0 0 0 0 0 0 0 127 0"/><feMorphology radius="-1" operator="dilate" in="SourceAlpha" result="effect1_dropShadow"/><feOffset dy="4" dx="0"/><feGaussianBlur stdDeviation="3"/><feColorMatrix type="matrix" values="0 0 0 0 0.06666667014360428 0 0 0 0 0.06666667014360428 0 0 0 0 0.06666667014360428 0 0 0 0.10000000149011612 0"/><feBlend mode="normal" in2="BackgroundImageFix" result="effect1_dropShadow"/><feColorMatrix in="SourceAlpha" type="matrix" values="0 0 0 0 0 0 0 0 0 0 0 0 0 0 0 0 0 0 127 0"/><feMorphology radius="-2" operator="dilate" in="SourceAlpha" result="effect2_dropShadow"/><feOffset dy="2" dx="0"/><feGaussianBlur stdDeviation="2"/><feColorMatrix type="matrix" values="0 0 0 0 0.06666667014360428 0 0 0 0 0.06666667014360428 0 0 0 0 0.06666667014360428 0 0 0 0.05999999865889549 0"/><feBlend mode="normal" in2="effect1_dropShadow" result="effect2_dropShadow"/><feBlend mode="normal" in="SourceGraphic" in2="effect2_dropShadow" result="shape"/></filter><clipPath id="master_svgf_177_5287"><rect x="186" y="104" width="12" height="12" rx="6"/></clipPath></defs><g><g filter="url(#master_svg0_177_5294)"><g clip-path="url(#master_svg1_177_5294)"><rect x="16" y="16" width="160" height="120" rx="8" fill="#FFFFFF" fill-opacity="1"/><g clip-path="url(#master_svg2_177_5303)"><rect x="16" y="16" width="160" height="16" rx="0" fill="#F2F4F7" fill-opacity="1"/><g><ellipse cx="24" cy="24" rx="2" ry="2" fill="#99AABD" fill-opacity="1"/></g><g><ellipse cx="30" cy="24" rx="2" ry="2" fill="#B3C1D0" fill-opacity="1"/></g><g><ellipse cx="36" cy="24" rx="2" ry="2" fill="#CDD7E2" fill-opacity="1"/></g></g><g clip-path="url(#master_svg3_177_5295)"><rect x="16" y="32" width="160" height="104" rx="0" fill="#E4EBF1" fill-opacity="1"/><g filter="url(#master_svg4_177_5298)"><g clip-path="url(#master_svg5_177_5298)"><rect x="40" y="48" width="96" height="72" rx="4" fill="#FFFFFF" fill-opacity="1"/><g><path d="M79.31445312,89L82.6162109,78.8144531L86.3896484,78.8144531L89.814453,89L86.6835938,89L85.5009766,85.048828Q85.1181641,83.763672,84.7832031,82.3793945Q84.4482422,80.9951172,84.1474609,79.6279297L84.7763672,79.6279297Q84.4892578,80.9951172,84.1953125,82.3793945Q83.9013672,83.763672,83.5322266,85.048828L82.4042969,89L79.31445312,89ZM81.7617188,87.044922L81.7617188,84.980469L87.3671875,84.980469L87.3671875,87.044922L81.7617188,87.044922ZM92.96582000000001,89.095703Q92.152344,89.095703,91.465332,88.668457Q90.77832000000001,88.24121099999999,90.36816400000001,87.373047Q89.958008,86.504883,89.958008,85.185547Q89.958008,83.797852,90.388672,82.9331055Q90.81933599999999,82.0683594,91.50292999999999,81.6650391Q92.186523,81.2617188,92.938477,81.2617188Q93.505859,81.2617188,93.933105,81.456543Q94.360352,81.6513672,94.650879,81.9794922Q94.941406,82.3076172,95.08496099999999,82.6972656L95.125977,82.6972656L95.125977,78.8144531L97.874023,78.8144531L97.874023,89L95.15332000000001,89L95.15332000000001,87.742188L95.08496099999999,87.742188Q94.927734,88.13183599999999,94.63378900000001,88.436035Q94.339844,88.740234,93.922852,88.917969Q93.505859,89.095703,92.96582000000001,89.095703ZM93.97753900000001,86.990234Q94.353516,86.990234,94.626953,86.768066Q94.900391,86.545898,95.047363,86.142578Q95.19433599999999,85.739258,95.19433599999999,85.185547Q95.19433599999999,84.61816400000001,95.047363,84.211426Q94.900391,83.804688,94.626953,83.585938Q94.353516,83.367188,93.97753900000001,83.367188Q93.601562,83.367188,93.33496099999999,83.585938Q93.068359,83.804688,92.928223,84.211426Q92.78808599999999,84.61816400000001,92.78808599999999,85.185547Q92.78808599999999,85.746094,92.928223,86.152832Q93.068359,86.55957000000001,93.33496099999999,86.774902Q93.601562,86.990234,93.97753900000001,86.990234Z" fill="#99AABD" fill-opacity="1"/></g></g></g><g filter="url(#master_svg6_177_5296)"><g clip-path="url(#master_svg7_177_5296)"><rect x="34" y="42" width="12" height="12" rx="6" fill="#99AABD" fill-opacity="1"/><g><path d="M37.29303461,46.70696539Q37.15241045,46.56634122,37.07630527,46.38260692Q37.00019997,46.19887258,37.00019997,46Q37.00020003,45.901528291,37.01941091,45.8049487Q37.03862178,45.70836911,37.07630527,45.61739314Q37.11398876,45.52641714,37.1686967,45.44454092Q37.22340465,45.3626647,37.29303467,45.29303467Q37.3626647,45.22340465,37.44454092,45.16869676Q37.52641714,45.11398882,37.61739314,45.07630533Q37.70836911,45.03862178,37.8049487,45.01941091Q37.901528291,45.00020003,38,45.00019997Q38.19887258,45.00019997,38.38260692,45.07630527Q38.56634122,45.15241045,38.70696539,45.29303461L38.70710677,45.29289323L40,46.5857864L41.2928932,45.29289323L41.2930346,45.29303467Q41.4336586,45.15241051,41.617393,45.07630527Q41.8011274,45.00019997,42,45.00019997Q42.098471599999996,45.00020003,42.1950512,45.01941091Q42.2916307,45.03862178,42.3826065,45.07630527Q42.473582300000004,45.11398876,42.5554585,45.1686967Q42.6373348,45.22340465,42.706965,45.29303467Q42.7765946,45.3626647,42.8313026,45.44454092Q42.8860102,45.52641714,42.9236941,45.61739314Q42.9613781,45.70836911,42.9805889,45.8049487Q42.9997997,45.901528291,42.9998002,46Q42.9998002,46.19887266,42.9236946,46.38260701Q42.8475895,46.5663414,42.7069654,46.70696551L42.7071066,46.70710677L41.4142137,48L42.7071066,49.2928932L42.7069654,49.2930346Q42.8475895,49.4336586,42.9236946,49.617393Q42.9998002,49.8011274,42.9998002,50Q42.9997997,50.098471599999996,42.9805889,50.1950512Q42.9613781,50.2916307,42.9236941,50.3826065Q42.8860102,50.473582300000004,42.8313026,50.5554585Q42.7765946,50.6373348,42.706965,50.706965Q42.6373348,50.7765946,42.555459,50.8313026Q42.473582300000004,50.8860102,42.3826065,50.9236941Q42.2916307,50.9613781,42.1950512,50.9805889Q42.098471599999996,50.9997997,42,50.9998002Q41.8011274,50.9998002,41.617393,50.9236946Q41.4336586,50.8475895,41.2930346,50.7069654L41.2928932,50.7071066L40,49.4142137L38.70710677,50.7071066L38.70696551,50.7069654Q38.5663414,50.8475895,38.38260701,50.9236946Q38.19887266,50.9998002,38,50.9998002Q37.901528291,50.9997997,37.8049487,50.9805889Q37.70836911,50.9613781,37.61739314,50.9236941Q37.52641714,50.8860102,37.44454092,50.8313026Q37.3626647,50.7765946,37.29303467,50.706965Q37.22340465,50.6373348,37.16869676,50.555459Q37.11398882,50.473582300000004,37.07630533,50.3826065Q37.03862178,50.2916307,37.01941091,50.1950512Q37.00020003,50.098471599999996,37.00019997,50Q37.00019997,49.8011274,37.07630527,49.6173933Q37.15241051,49.4336586,37.29303467,49.2930346L37.29289323,49.2928932L38.5857864,48L37.29289323,46.70710677L37.29303461,46.70696539Z" fill-rule="evenodd" fill="#FFFFFF" fill-opacity="1"/></g></g></g></g><rect x="16.5" y="16.5" width="159" height="119" rx="7.5" fill-opacity="0" stroke-opacity="0.10000000149011612" stroke="#000000" fill="none" stroke-width="1"/></g></g><g filter="url(#master_svg8_177_5284)"><g clip-path="url(#master_svg9_177_5284)"><rect x="160" y="24" width="64" height="120" rx="12" fill="#E4EBF1" fill-opacity="1"/><g clip-path="url(#master_svga_177_5286)"><rect x="184" y="28" width="16" height="6" rx="3" fill="#B3C1D0" fill-opacity="1"/></g><g clip-path="url(#master_svgb_177_5285)"><rect x="184" y="138" width="16" height="2" rx="1" fill="#B3C1D0" fill-opacity="1"/></g><g filter="url(#master_svgc_177_5289)"><g clip-path="url(#master_svgd_177_5289)"><rect x="164" y="56" width="56" height="54" rx="4" fill="#FFFFFF" fill-opacity="1"/><g><path d="M183.31445312,88L186.6162109,77.8144531L190.3896484,77.8144531L193.81445300000001,88L190.6835938,88L189.5009766,84.048828Q189.1181641,82.763672,188.7832031,81.3793945Q188.4482422,79.9951172,188.1474609,78.6279297L188.7763672,78.6279297Q188.4892578,79.9951172,188.1953125,81.3793945Q187.9013672,82.763672,187.5322266,84.048828L186.4042969,88L183.31445312,88ZM185.7617188,86.044922L185.7617188,83.980469L191.3671875,83.980469L191.3671875,86.044922L185.7617188,86.044922ZM196.96582,88.095703Q196.152344,88.095703,195.465332,87.668457Q194.77832,87.24121099999999,194.368164,86.373047Q193.958008,85.504883,193.958008,84.185547Q193.958008,82.797852,194.38867199999999,81.9331055Q194.819336,81.0683594,195.50293,80.6650391Q196.186523,80.2617188,196.938477,80.2617188Q197.505859,80.2617188,197.933105,80.456543Q198.360352,80.6513672,198.650879,80.9794922Q198.941406,81.3076172,199.084961,81.6972656L199.125977,81.6972656L199.125977,77.8144531L201.874023,77.8144531L201.874023,88L199.15332,88L199.15332,86.742188L199.084961,86.742188Q198.927734,87.13183599999999,198.633789,87.436035Q198.339844,87.740234,197.922852,87.917969Q197.505859,88.095703,196.96582,88.095703ZM197.977539,85.990234Q198.353516,85.990234,198.62695300000001,85.768066Q198.900391,85.545898,199.047363,85.142578Q199.194336,84.739258,199.194336,84.185547Q199.194336,83.61816400000001,199.047363,83.211426Q198.900391,82.804688,198.62695300000001,82.585938Q198.353516,82.367188,197.977539,82.367188Q197.601562,82.367188,197.334961,82.585938Q197.068359,82.804688,196.928223,83.211426Q196.788086,83.61816400000001,196.788086,84.185547Q196.788086,84.746094,196.928223,85.152832Q197.068359,85.55957000000001,197.334961,85.774902Q197.601562,85.990234,197.977539,85.990234Z" fill="#99AABD" fill-opacity="1"/></g></g></g><g filter="url(#master_svge_177_5287)"><g clip-path="url(#master_svgf_177_5287)"><rect x="186" y="104" width="12" height="12" rx="6" fill="#99AABD" fill-opacity="1"/><g><path d="M189.29303461,108.70696539Q189.15241045,108.56634122,189.07630527,108.38260692Q189.00019997,108.19887258,189.00019997,108Q189.00020003,107.901528291,189.01941091,107.8049487Q189.03862178,107.70836911,189.07630527,107.61739314Q189.11398876,107.52641714,189.1686967,107.44454092Q189.22340465,107.3626647,189.29303467,107.29303467Q189.3626647,107.22340465,189.44454092,107.16869676Q189.52641714,107.11398882,189.61739314,107.07630533Q189.70836911,107.03862178,189.8049487,107.01941091Q189.901528291,107.00020003,190,107.00019997Q190.19887258,107.00019997,190.38260692,107.07630527Q190.56634122,107.15241045,190.70696539,107.29303461L190.70710677,107.29289323L192,108.5857864L193.2928932,107.29289323L193.2930346,107.29303467Q193.4336586,107.15241051,193.617393,107.07630527Q193.8011274,107.00019997,194,107.00019997Q194.0984716,107.00020003,194.1950512,107.01941091Q194.2916307,107.03862178,194.3826065,107.07630527Q194.4735823,107.11398876,194.5554585,107.1686967Q194.6373348,107.22340465,194.706965,107.29303467Q194.7765946,107.3626647,194.8313026,107.44454092Q194.8860102,107.52641714,194.9236941,107.61739314Q194.9613781,107.70836911,194.9805889,107.8049487Q194.9997997,107.901528291,194.9998002,108Q194.9998002,108.19887266,194.9236946,108.38260701Q194.8475895,108.5663414,194.7069654,108.70696551L194.7071066,108.70710677L193.4142137,110L194.7071066,111.2928932L194.7069654,111.2930346Q194.8475895,111.4336586,194.9236946,111.61739299999999Q194.9998002,111.8011274,194.9998002,112Q194.9997997,112.0984716,194.9805889,112.1950512Q194.9613781,112.2916307,194.9236941,112.3826065Q194.8860102,112.4735823,194.8313026,112.5554585Q194.7765946,112.6373348,194.706965,112.706965Q194.6373348,112.7765946,194.555459,112.8313026Q194.4735823,112.8860102,194.3826065,112.9236941Q194.2916307,112.9613781,194.1950512,112.9805889Q194.0984716,112.9997997,194,112.9998002Q193.8011274,112.9998002,193.617393,112.9236946Q193.4336586,112.8475895,193.2930346,112.7069654L193.2928932,112.7071066L192,111.4142137L190.70710677,112.7071066L190.70696551,112.7069654Q190.5663414,112.8475895,190.38260701,112.9236946Q190.19887266,112.9998002,190,112.9998002Q189.901528291,112.9997997,189.8049487,112.9805889Q189.70836911,112.9613781,189.61739314,112.9236941Q189.52641714,112.8860102,189.44454092,112.8313026Q189.3626647,112.7765946,189.29303467,112.706965Q189.22340465,112.6373348,189.16869676,112.555459Q189.11398882,112.4735823,189.07630533,112.3826065Q189.03862178,112.2916307,189.01941091,112.1950512Q189.00020003,112.0984716,189.00019997,112Q189.00019997,111.8011274,189.07630527,111.6173933Q189.15241051,111.4336586,189.29303467,111.2930346L189.29289323,111.2928932L190.5857864,110L189.29289323,108.70710677L189.29303461,108.70696539Z" fill-rule="evenodd" fill="#FFFFFF" fill-opacity="1"/></g></g></g><rect x="160.5" y="24.5" width="63" height="119" rx="11.5" fill-opacity="0" stroke-opacity="0.10000000149011612" stroke="#000000" fill="none" stroke-width="1"/></g></g></g></svg>