<svg xmlns="http://www.w3.org/2000/svg" xmlns:xlink="http://www.w3.org/1999/xlink" fill="none" version="1.1" width="240" height="160" viewBox="0 0 240 160"><defs><filter id="master_svg0_177_5261" filterUnits="objectBoundingBox" color-interpolation-filters="sRGB" x="-0.10625" y="-0.09166666666666666" width="1.1375" height="1.1833333333333333"><feFlood flood-opacity="0" result="BackgroundImageFix"/><feColorMatrix in="SourceAlpha" type="matrix" values="0 0 0 0 0 0 0 0 0 0 0 0 0 0 0 0 0 0 127 0"/><feMorphology radius="-1" operator="dilate" in="SourceAlpha" result="effect1_dropShadow"/><feOffset dy="4" dx="0"/><feGaussianBlur stdDeviation="3"/><feColorMatrix type="matrix" values="0 0 0 0 0.06666667014360428 0 0 0 0 0.06666667014360428 0 0 0 0 0.06666667014360428 0 0 0 0.10000000149011612 0"/><feBlend mode="normal" in2="BackgroundImageFix" result="effect1_dropShadow"/><feColorMatrix in="SourceAlpha" type="matrix" values="0 0 0 0 0 0 0 0 0 0 0 0 0 0 0 0 0 0 127 0"/><feMorphology radius="-2" operator="dilate" in="SourceAlpha" result="effect2_dropShadow"/><feOffset dy="2" dx="0"/><feGaussianBlur stdDeviation="2"/><feColorMatrix type="matrix" values="0 0 0 0 0.06666667014360428 0 0 0 0 0.06666667014360428 0 0 0 0 0.06666667014360428 0 0 0 0.05999999865889549 0"/><feBlend mode="normal" in2="effect1_dropShadow" result="effect2_dropShadow"/><feBlend mode="normal" in="SourceGraphic" in2="effect2_dropShadow" result="shape"/></filter><clipPath id="master_svg1_177_5261"><rect x="16" y="16" width="160" height="120" rx="8"/></clipPath><clipPath id="master_svg2_177_5262"><rect x="16" y="16" width="160" height="16" rx="0"/></clipPath><clipPath id="master_svg3_177_5266"><rect x="16" y="32" width="160" height="104" rx="0"/></clipPath><filter id="master_svg4_177_5267" filterUnits="objectBoundingBox" color-interpolation-filters="sRGB" x="-0.06338028169014084" y="-0.07954545454545454" width="1.0845070422535212" height="1.1363636363636365"><feFlood flood-opacity="0" result="BackgroundImageFix"/><feColorMatrix in="SourceAlpha" type="matrix" values="0 0 0 0 0 0 0 0 0 0 0 0 0 0 0 0 0 0 127 0"/><feOffset dy="1" dx="0"/><feGaussianBlur stdDeviation="1.5"/><feColorMatrix type="matrix" values="0 0 0 0 0.06666667014360428 0 0 0 0 0.06666667014360428 0 0 0 0 0.06666667014360428 0 0 0 0.10000000149011612 0"/><feBlend mode="normal" in2="BackgroundImageFix" result="effect1_dropShadow"/><feColorMatrix in="SourceAlpha" type="matrix" values="0 0 0 0 0 0 0 0 0 0 0 0 0 0 0 0 0 0 127 0"/><feMorphology radius="-1" operator="dilate" in="SourceAlpha" result="effect2_dropShadow"/><feOffset dy="1" dx="0"/><feGaussianBlur stdDeviation="1"/><feColorMatrix type="matrix" values="0 0 0 0 0.06666667014360428 0 0 0 0 0.06666667014360428 0 0 0 0 0.06666667014360428 0 0 0 0.10000000149011612 0"/><feBlend mode="normal" in2="effect1_dropShadow" result="effect2_dropShadow"/><feBlend mode="normal" in="SourceGraphic" in2="effect2_dropShadow" result="shape"/></filter><clipPath id="master_svg5_177_5267"><rect x="25" y="40" width="142" height="88" rx="2"/></clipPath><filter id="master_svg6_177_5253" filterUnits="objectBoundingBox" color-interpolation-filters="sRGB" x="-0.265625" y="-0.09166666666666666" width="1.34375" height="1.1833333333333333"><feFlood flood-opacity="0" result="BackgroundImageFix"/><feColorMatrix in="SourceAlpha" type="matrix" values="0 0 0 0 0 0 0 0 0 0 0 0 0 0 0 0 0 0 127 0"/><feMorphology radius="-1" operator="dilate" in="SourceAlpha" result="effect1_dropShadow"/><feOffset dy="4" dx="0"/><feGaussianBlur stdDeviation="3"/><feColorMatrix type="matrix" values="0 0 0 0 0.06666667014360428 0 0 0 0 0.06666667014360428 0 0 0 0 0.06666667014360428 0 0 0 0.10000000149011612 0"/><feBlend mode="normal" in2="BackgroundImageFix" result="effect1_dropShadow"/><feColorMatrix in="SourceAlpha" type="matrix" values="0 0 0 0 0 0 0 0 0 0 0 0 0 0 0 0 0 0 127 0"/><feMorphology radius="-2" operator="dilate" in="SourceAlpha" result="effect2_dropShadow"/><feOffset dy="2" dx="0"/><feGaussianBlur stdDeviation="2"/><feColorMatrix type="matrix" values="0 0 0 0 0.06666667014360428 0 0 0 0 0.06666667014360428 0 0 0 0 0.06666667014360428 0 0 0 0.05999999865889549 0"/><feBlend mode="normal" in2="effect1_dropShadow" result="effect2_dropShadow"/><feBlend mode="normal" in="SourceGraphic" in2="effect2_dropShadow" result="shape"/></filter><clipPath id="master_svg7_177_5253"><rect x="160" y="24" width="64" height="120" rx="12"/></clipPath><clipPath id="master_svg8_177_5254"><rect x="184" y="28" width="16" height="6" rx="3"/></clipPath><clipPath id="master_svg9_177_5260"><rect x="184" y="138" width="16" height="2" rx="1"/></clipPath><filter id="master_svga_177_5255" filterUnits="objectBoundingBox" color-interpolation-filters="sRGB" x="-0.16666666666666666" y="-0.07446808510638298" width="1.2222222222222223" height="1.127659574468085"><feFlood flood-opacity="0" result="BackgroundImageFix"/><feColorMatrix in="SourceAlpha" type="matrix" values="0 0 0 0 0 0 0 0 0 0 0 0 0 0 0 0 0 0 127 0"/><feOffset dy="1" dx="0"/><feGaussianBlur stdDeviation="1.5"/><feColorMatrix type="matrix" values="0 0 0 0 0.06666667014360428 0 0 0 0 0.06666667014360428 0 0 0 0 0.06666667014360428 0 0 0 0.10000000149011612 0"/><feBlend mode="normal" in2="BackgroundImageFix" result="effect1_dropShadow"/><feColorMatrix in="SourceAlpha" type="matrix" values="0 0 0 0 0 0 0 0 0 0 0 0 0 0 0 0 0 0 127 0"/><feMorphology radius="-1" operator="dilate" in="SourceAlpha" result="effect2_dropShadow"/><feOffset dy="1" dx="0"/><feGaussianBlur stdDeviation="1"/><feColorMatrix type="matrix" values="0 0 0 0 0.06666667014360428 0 0 0 0 0.06666667014360428 0 0 0 0 0.06666667014360428 0 0 0 0.10000000149011612 0"/><feBlend mode="normal" in2="effect1_dropShadow" result="effect2_dropShadow"/><feBlend mode="normal" in="SourceGraphic" in2="effect2_dropShadow" result="shape"/></filter><clipPath id="master_svgb_177_5255"><rect x="165" y="39" width="54" height="94" rx="4"/></clipPath></defs><g><g filter="url(#master_svg0_177_5261)"><g clip-path="url(#master_svg1_177_5261)"><rect x="16" y="16" width="160" height="120" rx="8" fill="#FFFFFF" fill-opacity="1"/><g clip-path="url(#master_svg2_177_5262)"><rect x="16" y="16" width="160" height="16" rx="0" fill="#F2F4F7" fill-opacity="1"/><g><ellipse cx="24" cy="24" rx="2" ry="2" fill="#99AABD" fill-opacity="1"/></g><g><ellipse cx="30" cy="24" rx="2" ry="2" fill="#B3C1D0" fill-opacity="1"/></g><g><ellipse cx="36" cy="24" rx="2" ry="2" fill="#CDD7E2" fill-opacity="1"/></g></g><g clip-path="url(#master_svg3_177_5266)"><rect x="16" y="32" width="160" height="104" rx="0" fill="#E4EBF1" fill-opacity="1"/><g filter="url(#master_svg4_177_5267)"><g clip-path="url(#master_svg5_177_5267)"><rect x="25" y="40" width="142" height="88" rx="2" fill="#FFFFFF" fill-opacity="1"/><g><path d="M86.81445312,89L90.1162109,78.8144531L93.8896484,78.8144531L97.314453,89L94.1835938,89L93.0009766,85.048828Q92.6181641,83.763672,92.2832031,82.3793945Q91.9482422,80.9951172,91.6474609,79.6279297L92.2763672,79.6279297Q91.9892578,80.9951172,91.6953125,82.3793945Q91.4013672,83.763672,91.0322266,85.048828L89.9042969,89L86.81445312,89ZM89.2617188,87.044922L89.2617188,84.980469L94.8671875,84.980469L94.8671875,87.044922L89.2617188,87.044922ZM100.46582000000001,89.095703Q99.652344,89.095703,98.965332,88.668457Q98.27832000000001,88.24121099999999,97.86816400000001,87.373047Q97.458008,86.504883,97.458008,85.185547Q97.458008,83.797852,97.888672,82.9331055Q98.31933599999999,82.0683594,99.00292999999999,81.6650391Q99.686523,81.2617188,100.438477,81.2617188Q101.005859,81.2617188,101.433105,81.456543Q101.860352,81.6513672,102.150879,81.9794922Q102.441406,82.3076172,102.58496099999999,82.6972656L102.625977,82.6972656L102.625977,78.8144531L105.374023,78.8144531L105.374023,89L102.65332000000001,89L102.65332000000001,87.742188L102.58496099999999,87.742188Q102.427734,88.13183599999999,102.13378900000001,88.436035Q101.839844,88.740234,101.422852,88.917969Q101.005859,89.095703,100.46582000000001,89.095703ZM101.47753900000001,86.990234Q101.853516,86.990234,102.126953,86.768066Q102.400391,86.545898,102.547363,86.142578Q102.69433599999999,85.739258,102.69433599999999,85.185547Q102.69433599999999,84.61816400000001,102.547363,84.211426Q102.400391,83.804688,102.126953,83.585938Q101.853516,83.367188,101.47753900000001,83.367188Q101.101562,83.367188,100.83496099999999,83.585938Q100.568359,83.804688,100.428223,84.211426Q100.28808599999999,84.61816400000001,100.28808599999999,85.185547Q100.28808599999999,85.746094,100.428223,86.152832Q100.568359,86.55957000000001,100.83496099999999,86.774902Q101.101562,86.990234,101.47753900000001,86.990234Z" fill="#99AABD" fill-opacity="1"/></g></g></g></g><rect x="16.5" y="16.5" width="159" height="119" rx="7.5" fill-opacity="0" stroke-opacity="0.10000000149011612" stroke="#000000" fill="none" stroke-width="1"/></g></g><g filter="url(#master_svg6_177_5253)"><g clip-path="url(#master_svg7_177_5253)"><rect x="160" y="24" width="64" height="120" rx="12" fill="#E4EBF1" fill-opacity="1"/><g clip-path="url(#master_svg8_177_5254)"><rect x="184" y="28" width="16" height="6" rx="3" fill="#B3C1D0" fill-opacity="1"/></g><g clip-path="url(#master_svg9_177_5260)"><rect x="184" y="138" width="16" height="2" rx="1" fill="#B3C1D0" fill-opacity="1"/></g><g filter="url(#master_svga_177_5255)"><g clip-path="url(#master_svgb_177_5255)"><rect x="165" y="39" width="54" height="94" rx="4" fill="#FFFFFF" fill-opacity="1"/><g><path d="M183.31445312,89L186.6162109,78.8144531L190.3896484,78.8144531L193.81445300000001,89L190.6835938,89L189.5009766,85.048828Q189.1181641,83.763672,188.7832031,82.3793945Q188.4482422,80.9951172,188.1474609,79.6279297L188.7763672,79.6279297Q188.4892578,80.9951172,188.1953125,82.3793945Q187.9013672,83.763672,187.5322266,85.048828L186.4042969,89L183.31445312,89ZM185.7617188,87.044922L185.7617188,84.980469L191.3671875,84.980469L191.3671875,87.044922L185.7617188,87.044922ZM196.96582,89.095703Q196.152344,89.095703,195.465332,88.668457Q194.77832,88.24121099999999,194.368164,87.373047Q193.958008,86.504883,193.958008,85.185547Q193.958008,83.797852,194.38867199999999,82.9331055Q194.819336,82.0683594,195.50293,81.6650391Q196.186523,81.2617188,196.938477,81.2617188Q197.505859,81.2617188,197.933105,81.456543Q198.360352,81.6513672,198.650879,81.9794922Q198.941406,82.3076172,199.084961,82.6972656L199.125977,82.6972656L199.125977,78.8144531L201.874023,78.8144531L201.874023,89L199.15332,89L199.15332,87.742188L199.084961,87.742188Q198.927734,88.13183599999999,198.633789,88.436035Q198.339844,88.740234,197.922852,88.917969Q197.505859,89.095703,196.96582,89.095703ZM197.977539,86.990234Q198.353516,86.990234,198.62695300000001,86.768066Q198.900391,86.545898,199.047363,86.142578Q199.194336,85.739258,199.194336,85.185547Q199.194336,84.61816400000001,199.047363,84.211426Q198.900391,83.804688,198.62695300000001,83.585938Q198.353516,83.367188,197.977539,83.367188Q197.601562,83.367188,197.334961,83.585938Q197.068359,83.804688,196.928223,84.211426Q196.788086,84.61816400000001,196.788086,85.185547Q196.788086,85.746094,196.928223,86.152832Q197.068359,86.55957000000001,197.334961,86.774902Q197.601562,86.990234,197.977539,86.990234Z" fill="#99AABD" fill-opacity="1"/></g></g></g><rect x="160.5" y="24.5" width="63" height="119" rx="11.5" fill-opacity="0" stroke-opacity="0.10000000149011612" stroke="#000000" fill="none" stroke-width="1"/></g></g></g></svg>