<svg xmlns="http://www.w3.org/2000/svg" xmlns:xlink="http://www.w3.org/1999/xlink" fill="none" version="1.1" width="240" height="160" viewBox="0 0 240 160"><defs><filter id="master_svg0_153_1934" filterUnits="objectBoundingBox" color-interpolation-filters="sRGB" x="-0.10625" y="-0.09166666666666666" width="1.1375" height="1.1833333333333333"><feFlood flood-opacity="0" result="BackgroundImageFix"/><feColorMatrix in="SourceAlpha" type="matrix" values="0 0 0 0 0 0 0 0 0 0 0 0 0 0 0 0 0 0 127 0"/><feMorphology radius="-1" operator="dilate" in="SourceAlpha" result="effect1_dropShadow"/><feOffset dy="4" dx="0"/><feGaussianBlur stdDeviation="3"/><feColorMatrix type="matrix" values="0 0 0 0 0.06666667014360428 0 0 0 0 0.06666667014360428 0 0 0 0 0.06666667014360428 0 0 0 0.10000000149011612 0"/><feBlend mode="normal" in2="BackgroundImageFix" result="effect1_dropShadow"/><feColorMatrix in="SourceAlpha" type="matrix" values="0 0 0 0 0 0 0 0 0 0 0 0 0 0 0 0 0 0 127 0"/><feMorphology radius="-2" operator="dilate" in="SourceAlpha" result="effect2_dropShadow"/><feOffset dy="2" dx="0"/><feGaussianBlur stdDeviation="2"/><feColorMatrix type="matrix" values="0 0 0 0 0.06666667014360428 0 0 0 0 0.06666667014360428 0 0 0 0 0.06666667014360428 0 0 0 0.05999999865889549 0"/><feBlend mode="normal" in2="effect1_dropShadow" result="effect2_dropShadow"/><feBlend mode="normal" in="SourceGraphic" in2="effect2_dropShadow" result="shape"/></filter><clipPath id="master_svg1_153_1934"><rect x="16" y="16" width="160" height="120" rx="8"/></clipPath><clipPath id="master_svg2_153_1952"><rect x="16" y="16" width="160" height="16" rx="0"/></clipPath><clipPath id="master_svg3_153_1935"><rect x="16" y="32" width="160" height="104" rx="0"/></clipPath><clipPath id="master_svg4_153_1944"><rect x="24" y="75" width="45" height="45" rx="4"/></clipPath><clipPath id="master_svg5_153_1943"><rect x="24" y="40" width="45" height="7" rx="3.5"/></clipPath><clipPath id="master_svg6_153_1950"><rect x="152" y="41" width="16" height="4" rx="2"/></clipPath><clipPath id="master_svg7_153_1942"><rect x="132" y="41" width="16" height="4" rx="2"/></clipPath><clipPath id="master_svg8_153_1937"><rect x="24" y="124" width="32" height="4" rx="2"/></clipPath><clipPath id="master_svg9_153_1949"><rect x="24" y="59" width="94" height="4" rx="2"/></clipPath><clipPath id="master_svga_153_1936"><rect x="24" y="51" width="108" height="4" rx="2"/></clipPath><clipPath id="master_svgb_153_1951"><rect x="24" y="67" width="144" height="4" rx="2"/></clipPath><clipPath id="master_svgc_153_1940"><rect x="74" y="124" width="32" height="4" rx="2"/></clipPath><clipPath id="master_svgd_153_1941"><rect x="74" y="75" width="44" height="45" rx="4"/></clipPath><clipPath id="master_svge_153_1938"><rect x="123" y="75" width="45" height="45" rx="4"/></clipPath><clipPath id="master_svgf_153_1939"><rect x="123" y="124" width="32" height="4" rx="2"/></clipPath><filter id="master_svgg_153_1920" filterUnits="objectBoundingBox" color-interpolation-filters="sRGB" x="-0.265625" y="-0.09166666666666666" width="1.34375" height="1.1833333333333333"><feFlood flood-opacity="0" result="BackgroundImageFix"/><feColorMatrix in="SourceAlpha" type="matrix" values="0 0 0 0 0 0 0 0 0 0 0 0 0 0 0 0 0 0 127 0"/><feMorphology radius="-1" operator="dilate" in="SourceAlpha" result="effect1_dropShadow"/><feOffset dy="4" dx="0"/><feGaussianBlur stdDeviation="3"/><feColorMatrix type="matrix" values="0 0 0 0 0.06666667014360428 0 0 0 0 0.06666667014360428 0 0 0 0 0.06666667014360428 0 0 0 0.10000000149011612 0"/><feBlend mode="normal" in2="BackgroundImageFix" result="effect1_dropShadow"/><feColorMatrix in="SourceAlpha" type="matrix" values="0 0 0 0 0 0 0 0 0 0 0 0 0 0 0 0 0 0 127 0"/><feMorphology radius="-2" operator="dilate" in="SourceAlpha" result="effect2_dropShadow"/><feOffset dy="2" dx="0"/><feGaussianBlur stdDeviation="2"/><feColorMatrix type="matrix" values="0 0 0 0 0.06666667014360428 0 0 0 0 0.06666667014360428 0 0 0 0 0.06666667014360428 0 0 0 0.05999999865889549 0"/><feBlend mode="normal" in2="effect1_dropShadow" result="effect2_dropShadow"/><feBlend mode="normal" in="SourceGraphic" in2="effect2_dropShadow" result="shape"/></filter><clipPath id="master_svgh_153_1920"><rect x="160" y="24" width="64" height="120" rx="12"/></clipPath><clipPath id="master_svgi_153_1932"><rect x="184" y="28" width="16" height="6" rx="3"/></clipPath><clipPath id="master_svgj_153_1930"><rect x="184" y="138" width="16" height="2" rx="1"/></clipPath><clipPath id="master_svgk_153_1921"><rect x="164" y="40" width="28" height="7" rx="3.5"/></clipPath><clipPath id="master_svgl_153_1933"><rect x="164" y="62" width="36" height="4" rx="2"/></clipPath><clipPath id="master_svgm_153_1927"><rect x="164" y="54" width="42" height="4" rx="2"/></clipPath><clipPath id="master_svgn_153_1928"><rect x="204" y="42" width="16" height="4" rx="2"/></clipPath><clipPath id="master_svgo_153_1922"><rect x="164" y="70" width="56" height="56" rx="4"/></clipPath><clipPath id="master_svgp_153_1929"><rect x="164" y="130" width="44" height="4" rx="2"/></clipPath></defs><g><g filter="url(#master_svg0_153_1934)"><g clip-path="url(#master_svg1_153_1934)"><rect x="16" y="16" width="160" height="120" rx="8" fill="#FFFFFF" fill-opacity="1"/><g clip-path="url(#master_svg2_153_1952)"><rect x="16" y="16" width="160" height="16" rx="0" fill="#F2F4F7" fill-opacity="1"/><g><ellipse cx="24" cy="24" rx="2" ry="2" fill="#99AABD" fill-opacity="1"/></g><g><ellipse cx="30" cy="24" rx="2" ry="2" fill="#B3C1D0" fill-opacity="1"/></g><g><ellipse cx="36" cy="24" rx="2" ry="2" fill="#CDD7E2" fill-opacity="1"/></g></g><g clip-path="url(#master_svg3_153_1935)"><g clip-path="url(#master_svg4_153_1944)"><rect x="24" y="75" width="45" height="45" rx="4" fill="#E4EBF1" fill-opacity="1"/><g><path d="M37.31445312,103L40.6162109,92.8144531L44.3896484,92.8144531L47.814453,103L44.6835938,103L43.5009766,99.048828Q43.1181641,97.763672,42.7832031,96.3793945Q42.4482422,94.9951172,42.1474609,93.6279297L42.7763672,93.6279297Q42.4892578,94.9951172,42.1953125,96.3793945Q41.9013672,97.763672,41.5322266,99.048828L40.4042969,103L37.31445312,103ZM39.7617188,101.044922L39.7617188,98.980469L45.3671875,98.980469L45.3671875,101.044922L39.7617188,101.044922ZM50.96582,103.095703Q50.152344,103.095703,49.465332000000004,102.668457Q48.77832,102.24121099999999,48.368164,101.373047Q47.958008,100.504883,47.958008,99.185547Q47.958008,97.797852,48.388672,96.9331055Q48.819336,96.0683594,49.50293,95.6650391Q50.186523,95.2617188,50.938477,95.2617188Q51.505859,95.2617188,51.933105,95.456543Q52.360352,95.6513672,52.650879,95.9794922Q52.941406,96.3076172,53.084961,96.6972656L53.125977,96.6972656L53.125977,92.8144531L55.874023,92.8144531L55.874023,103L53.15332,103L53.15332,101.742188L53.084961,101.742188Q52.927734,102.13183599999999,52.633789,102.436035Q52.339844,102.740234,51.922852,102.917969Q51.505859,103.095703,50.96582,103.095703ZM51.977539,100.990234Q52.353516,100.990234,52.626953,100.768066Q52.900391,100.545898,53.047363000000004,100.142578Q53.194336,99.739258,53.194336,99.185547Q53.194336,98.61816400000001,53.047363000000004,98.211426Q52.900391,97.804688,52.626953,97.585938Q52.353516,97.367188,51.977539,97.367188Q51.601562,97.367188,51.334961,97.585938Q51.068359,97.804688,50.928223,98.211426Q50.788086,98.61816400000001,50.788086,99.185547Q50.788086,99.746094,50.928223,100.152832Q51.068359,100.55957000000001,51.334961,100.774902Q51.601562,100.990234,51.977539,100.990234Z" fill="#99AABD" fill-opacity="1"/></g></g><g clip-path="url(#master_svg5_153_1943)"><rect x="24" y="40" width="45" height="7" rx="3.5" fill="#F2F4F7" fill-opacity="1"/></g><g clip-path="url(#master_svg6_153_1950)"><rect x="152" y="41" width="16" height="4" rx="2" fill="#F2F4F7" fill-opacity="1"/></g><g clip-path="url(#master_svg7_153_1942)"><rect x="132" y="41" width="16" height="4" rx="2" fill="#F2F4F7" fill-opacity="1"/></g><g clip-path="url(#master_svg8_153_1937)"><rect x="24" y="124" width="32" height="4" rx="2" fill="#E4EBF1" fill-opacity="1"/></g><g clip-path="url(#master_svg9_153_1949)"><rect x="24" y="59" width="94" height="4" rx="2" fill="#F2F4F7" fill-opacity="1"/></g><g clip-path="url(#master_svga_153_1936)"><rect x="24" y="51" width="108" height="4" rx="2" fill="#F2F4F7" fill-opacity="1"/></g><g clip-path="url(#master_svgb_153_1951)"><rect x="24" y="67" width="144" height="4" rx="2" fill="#F2F4F7" fill-opacity="1"/></g><g clip-path="url(#master_svgc_153_1940)"><rect x="74" y="124" width="32" height="4" rx="2" fill="#F2F4F7" fill-opacity="1"/></g><g clip-path="url(#master_svgd_153_1941)"><rect x="74" y="75" width="44" height="45" rx="4" fill="#F2F4F7" fill-opacity="1"/></g><g clip-path="url(#master_svge_153_1938)"><rect x="123" y="75" width="45" height="45" rx="4" fill="#F2F4F7" fill-opacity="1"/></g><g clip-path="url(#master_svgf_153_1939)"><rect x="123" y="124" width="32" height="4" rx="2" fill="#F2F4F7" fill-opacity="1"/></g></g><rect x="16.5" y="16.5" width="159" height="119" rx="7.5" fill-opacity="0" stroke-opacity="0.10000000149011612" stroke="#000000" fill="none" stroke-width="1"/></g></g><g filter="url(#master_svgg_153_1920)"><g clip-path="url(#master_svgh_153_1920)"><rect x="160" y="24" width="64" height="120" rx="12" fill="#FFFFFF" fill-opacity="1"/><g clip-path="url(#master_svgi_153_1932)"><rect x="184" y="28" width="16" height="6" rx="3" fill="#CDD7E2" fill-opacity="1"/></g><g clip-path="url(#master_svgj_153_1930)"><rect x="184" y="138" width="16" height="2" rx="1" fill="#CDD7E2" fill-opacity="1"/></g><g clip-path="url(#master_svgk_153_1921)"><rect x="164" y="40" width="28" height="7" rx="3.5" fill="#F2F4F7" fill-opacity="1"/></g><g clip-path="url(#master_svgl_153_1933)"><rect x="164" y="62" width="36" height="4" rx="2" fill="#F2F4F7" fill-opacity="1"/></g><g clip-path="url(#master_svgm_153_1927)"><rect x="164" y="54" width="42" height="4" rx="2" fill="#F2F4F7" fill-opacity="1"/></g><g clip-path="url(#master_svgn_153_1928)"><rect x="204" y="42" width="16" height="4" rx="2" fill="#F2F4F7" fill-opacity="1"/></g><g clip-path="url(#master_svgo_153_1922)"><rect x="164" y="70" width="56" height="56" rx="4" fill="#E4EBF1" fill-opacity="1"/><g><path d="M184.26953125,102L187.0996094,93.2695312L190.3339844,93.2695312L193.2695312,102L190.5859375,102L189.5722656,98.613281Q189.2441406,97.5117188,188.9570312,96.3251953Q188.6699219,95.1386719,188.4121094,93.9667969L188.9511719,93.9667969Q188.7050781,95.1386719,188.453125,96.3251953Q188.2011719,97.5117188,187.8847656,98.613281L186.9179688,102L184.26953125,102ZM186.3671875,100.324219L186.3671875,98.554688L191.171875,98.554688L191.171875,100.324219L186.3671875,100.324219ZM195.97070300000001,102.082031Q195.273438,102.082031,194.68457,101.71582000000001Q194.09570300000001,101.349609,193.7441406,100.605469Q193.3925781,99.861328,193.3925781,98.730469Q193.3925781,97.5410156,193.7617188,96.7998047Q194.130859,96.0585938,194.71679699999999,95.7128906Q195.302734,95.3671875,195.947266,95.3671875Q196.433594,95.3671875,196.799805,95.5341797Q197.166016,95.7011719,197.415039,95.9824219Q197.664062,96.2636719,197.787109,96.5976562L197.822266,96.5976562L197.822266,93.2695312L200.177734,93.2695312L200.177734,102L197.84570300000001,102L197.84570300000001,100.921875L197.787109,100.921875Q197.652344,101.255859,197.400391,101.516602Q197.148438,101.777344,196.791016,101.929688Q196.433594,102.082031,195.97070300000001,102.082031ZM196.837891,100.277344Q197.160156,100.277344,197.394531,100.08691400000001Q197.628906,99.896484,197.754883,99.550781Q197.880859,99.205078,197.880859,98.730469Q197.880859,98.244141,197.754883,97.8955078Q197.628906,97.546875,197.394531,97.359375Q197.160156,97.171875,196.837891,97.171875Q196.515625,97.171875,196.287109,97.359375Q196.058594,97.546875,195.938477,97.8955078Q195.818359,98.244141,195.818359,98.730469Q195.818359,99.210938,195.938477,99.55957000000001Q196.058594,99.908203,196.287109,100.092773Q196.515625,100.277344,196.837891,100.277344Z" fill="#99AABD" fill-opacity="1"/></g></g><g clip-path="url(#master_svgp_153_1929)"><rect x="164" y="130" width="44" height="4" rx="2" fill="#E4EBF1" fill-opacity="1"/></g><rect x="160.5" y="24.5" width="63" height="119" rx="11.5" fill-opacity="0" stroke-opacity="0.10000000149011612" stroke="#000000" fill="none" stroke-width="1"/></g></g></g></svg>