<svg xmlns="http://www.w3.org/2000/svg" xmlns:xlink="http://www.w3.org/1999/xlink" fill="none" version="1.1" width="240" height="160" viewBox="0 0 240 160"><defs><filter id="master_svg0_153_4135" filterUnits="objectBoundingBox" color-interpolation-filters="sRGB" x="-0.10625" y="-0.09166666666666666" width="1.1375" height="1.1833333333333333"><feFlood flood-opacity="0" result="BackgroundImageFix"/><feColorMatrix in="SourceAlpha" type="matrix" values="0 0 0 0 0 0 0 0 0 0 0 0 0 0 0 0 0 0 127 0"/><feMorphology radius="-1" operator="dilate" in="SourceAlpha" result="effect1_dropShadow"/><feOffset dy="4" dx="0"/><feGaussianBlur stdDeviation="3"/><feColorMatrix type="matrix" values="0 0 0 0 0.06666667014360428 0 0 0 0 0.06666667014360428 0 0 0 0 0.06666667014360428 0 0 0 0.10000000149011612 0"/><feBlend mode="normal" in2="BackgroundImageFix" result="effect1_dropShadow"/><feColorMatrix in="SourceAlpha" type="matrix" values="0 0 0 0 0 0 0 0 0 0 0 0 0 0 0 0 0 0 127 0"/><feMorphology radius="-2" operator="dilate" in="SourceAlpha" result="effect2_dropShadow"/><feOffset dy="2" dx="0"/><feGaussianBlur stdDeviation="2"/><feColorMatrix type="matrix" values="0 0 0 0 0.06666667014360428 0 0 0 0 0.06666667014360428 0 0 0 0 0.06666667014360428 0 0 0 0.05999999865889549 0"/><feBlend mode="normal" in2="effect1_dropShadow" result="effect2_dropShadow"/><feBlend mode="normal" in="SourceGraphic" in2="effect2_dropShadow" result="shape"/></filter><clipPath id="master_svg1_153_4135"><rect x="40" y="20" width="160" height="120" rx="8"/></clipPath><clipPath id="master_svg2_153_4136"><rect x="40" y="20" width="160" height="16" rx="0"/></clipPath><clipPath id="master_svg3_153_4140"><rect x="40" y="36" width="160" height="104" rx="0"/></clipPath><filter id="master_svg4_153_4141" filterUnits="objectBoundingBox" color-interpolation-filters="sRGB" x="-0.125" y="-0.10294117647058823" width="1.1666666666666667" height="1.1764705882352942"><feFlood flood-opacity="0" result="BackgroundImageFix"/><feColorMatrix in="SourceAlpha" type="matrix" values="0 0 0 0 0 0 0 0 0 0 0 0 0 0 0 0 0 0 127 0"/><feOffset dy="1" dx="0"/><feGaussianBlur stdDeviation="1.5"/><feColorMatrix type="matrix" values="0 0 0 0 0.06666667014360428 0 0 0 0 0.06666667014360428 0 0 0 0 0.06666667014360428 0 0 0 0.10000000149011612 0"/><feBlend mode="normal" in2="BackgroundImageFix" result="effect1_dropShadow"/><feColorMatrix in="SourceAlpha" type="matrix" values="0 0 0 0 0 0 0 0 0 0 0 0 0 0 0 0 0 0 127 0"/><feMorphology radius="-1" operator="dilate" in="SourceAlpha" result="effect2_dropShadow"/><feOffset dy="1" dx="0"/><feGaussianBlur stdDeviation="1"/><feColorMatrix type="matrix" values="0 0 0 0 0.06666667014360428 0 0 0 0 0.06666667014360428 0 0 0 0 0.06666667014360428 0 0 0 0.10000000149011612 0"/><feBlend mode="normal" in2="effect1_dropShadow" result="effect2_dropShadow"/><feBlend mode="normal" in="SourceGraphic" in2="effect2_dropShadow" result="shape"/></filter><clipPath id="master_svg5_153_4141"><rect x="120" y="64" width="72" height="68" rx="4"/></clipPath><clipPath id="master_svg6_153_4142"><rect x="124" y="68" width="64" height="36" rx="2"/></clipPath><clipPath id="master_svg7_153_4150"><rect x="138" y="108" width="22" height="4" rx="2"/></clipPath><clipPath id="master_svg8_153_4165"><rect x="124" y="120" width="64" height="8" rx="4"/></clipPath><clipPath id="master_svg9_153_4149"><rect x="138" y="114" width="50" height="2" rx="1"/></clipPath><clipPath id="master_svga_153_4167"><rect x="124" y="106" width="12" height="12" rx="6"/></clipPath></defs><g><g filter="url(#master_svg0_153_4135)"><g clip-path="url(#master_svg1_153_4135)"><rect x="40" y="20" width="160" height="120" rx="8" fill="#FFFFFF" fill-opacity="1"/><g clip-path="url(#master_svg2_153_4136)"><rect x="40" y="20" width="160" height="16" rx="0" fill="#F2F4F7" fill-opacity="1"/><g><ellipse cx="48" cy="28" rx="2" ry="2" fill="#99AABD" fill-opacity="1"/></g><g><ellipse cx="54" cy="28" rx="2" ry="2" fill="#B3C1D0" fill-opacity="1"/></g><g><ellipse cx="60" cy="28" rx="2" ry="2" fill="#CDD7E2" fill-opacity="1"/></g></g><g clip-path="url(#master_svg3_153_4140)"><rect x="40" y="36" width="160" height="104" rx="0" fill="#E4EBF1" fill-opacity="1"/><g filter="url(#master_svg4_153_4141)"><g clip-path="url(#master_svg5_153_4141)"><rect x="120" y="64" width="72" height="68" rx="4" fill="#FFFFFF" fill-opacity="1"/><g clip-path="url(#master_svg6_153_4142)"><rect x="124" y="68" width="64" height="36" rx="2" fill="#E4EBF1" fill-opacity="1"/><g><path d="M146.31445312,91L149.6162109,80.8144531L153.3896484,80.8144531L156.81445300000001,91L153.6835938,91L152.5009766,87.048828Q152.1181641,85.763672,151.7832031,84.3793945Q151.4482422,82.9951172,151.1474609,81.6279297L151.7763672,81.6279297Q151.4892578,82.9951172,151.1953125,84.3793945Q150.9013672,85.763672,150.5322266,87.048828L149.4042969,91L146.31445312,91ZM148.7617188,89.044922L148.7617188,86.980469L154.3671875,86.980469L154.3671875,89.044922L148.7617188,89.044922ZM159.96582,91.095703Q159.152344,91.095703,158.465332,90.668457Q157.77832,90.24121099999999,157.368164,89.373047Q156.958008,88.504883,156.958008,87.185547Q156.958008,85.797852,157.38867199999999,84.9331055Q157.819336,84.0683594,158.50293,83.6650391Q159.186523,83.2617188,159.938477,83.2617188Q160.505859,83.2617188,160.933105,83.456543Q161.360352,83.6513672,161.650879,83.9794922Q161.941406,84.3076172,162.084961,84.6972656L162.125977,84.6972656L162.125977,80.8144531L164.874023,80.8144531L164.874023,91L162.15332,91L162.15332,89.742188L162.084961,89.742188Q161.927734,90.13183599999999,161.633789,90.436035Q161.339844,90.740234,160.922852,90.917969Q160.505859,91.095703,159.96582,91.095703ZM160.977539,88.990234Q161.353516,88.990234,161.62695300000001,88.768066Q161.900391,88.545898,162.047363,88.142578Q162.194336,87.739258,162.194336,87.185547Q162.194336,86.61816400000001,162.047363,86.211426Q161.900391,85.804688,161.62695300000001,85.585938Q161.353516,85.367188,160.977539,85.367188Q160.601562,85.367188,160.334961,85.585938Q160.068359,85.804688,159.928223,86.211426Q159.788086,86.61816400000001,159.788086,87.185547Q159.788086,87.746094,159.928223,88.152832Q160.068359,88.55957000000001,160.334961,88.774902Q160.601562,88.990234,160.977539,88.990234Z" fill="#99AABD" fill-opacity="1"/></g></g><g clip-path="url(#master_svg7_153_4150)"><rect x="138" y="108" width="22" height="4" rx="2" fill="#F2F4F7" fill-opacity="1"/></g><g clip-path="url(#master_svg8_153_4165)"><rect x="124" y="120" width="64" height="8" rx="4" fill="#E4EBF1" fill-opacity="1"/></g><g clip-path="url(#master_svg9_153_4149)"><rect x="138" y="114" width="50" height="2" rx="1" fill="#F2F4F7" fill-opacity="1"/></g><g clip-path="url(#master_svga_153_4167)"><rect x="124" y="106" width="12" height="12" rx="6" fill="#F2F4F7" fill-opacity="1"/></g></g></g></g><rect x="40.5" y="20.5" width="159" height="119" rx="7.5" fill-opacity="0" stroke-opacity="0.10000000149011612" stroke="#000000" fill="none" stroke-width="1"/></g></g></g></svg>