<svg xmlns="http://www.w3.org/2000/svg" xmlns:xlink="http://www.w3.org/1999/xlink" fill="none" version="1.1" width="240" height="160" viewBox="0 0 240 160"><defs><filter id="master_svg0_153_2769" filterUnits="objectBoundingBox" color-interpolation-filters="sRGB" x="-0.10625" y="-0.09166666666666666" width="1.1375" height="1.1833333333333333"><feFlood flood-opacity="0" result="BackgroundImageFix"/><feColorMatrix in="SourceAlpha" type="matrix" values="0 0 0 0 0 0 0 0 0 0 0 0 0 0 0 0 0 0 127 0"/><feMorphology radius="-1" operator="dilate" in="SourceAlpha" result="effect1_dropShadow"/><feOffset dy="4" dx="0"/><feGaussianBlur stdDeviation="3"/><feColorMatrix type="matrix" values="0 0 0 0 0.06666667014360428 0 0 0 0 0.06666667014360428 0 0 0 0 0.06666667014360428 0 0 0 0.10000000149011612 0"/><feBlend mode="normal" in2="BackgroundImageFix" result="effect1_dropShadow"/><feColorMatrix in="SourceAlpha" type="matrix" values="0 0 0 0 0 0 0 0 0 0 0 0 0 0 0 0 0 0 127 0"/><feMorphology radius="-2" operator="dilate" in="SourceAlpha" result="effect2_dropShadow"/><feOffset dy="2" dx="0"/><feGaussianBlur stdDeviation="2"/><feColorMatrix type="matrix" values="0 0 0 0 0.06666667014360428 0 0 0 0 0.06666667014360428 0 0 0 0 0.06666667014360428 0 0 0 0.05999999865889549 0"/><feBlend mode="normal" in2="effect1_dropShadow" result="effect2_dropShadow"/><feBlend mode="normal" in="SourceGraphic" in2="effect2_dropShadow" result="shape"/></filter><clipPath id="master_svg1_153_2769"><rect x="64" y="16" width="160" height="120" rx="8"/></clipPath><clipPath id="master_svg2_153_2778"><rect x="64" y="16" width="160" height="16" rx="0"/></clipPath><clipPath id="master_svg3_153_2770"><rect x="64" y="32" width="160" height="104" rx="0"/></clipPath><filter id="master_svg4_153_2919" filterUnits="objectBoundingBox" color-interpolation-filters="sRGB" x="-0.125" y="-0.21875" width="1.1666666666666667" height="1.375"><feFlood flood-opacity="0" result="BackgroundImageFix"/><feColorMatrix in="SourceAlpha" type="matrix" values="0 0 0 0 0 0 0 0 0 0 0 0 0 0 0 0 0 0 127 0"/><feOffset dy="1" dx="0"/><feGaussianBlur stdDeviation="1.5"/><feColorMatrix type="matrix" values="0 0 0 0 0.06666667014360428 0 0 0 0 0.06666667014360428 0 0 0 0 0.06666667014360428 0 0 0 0.10000000149011612 0"/><feBlend mode="normal" in2="BackgroundImageFix" result="effect1_dropShadow"/><feColorMatrix in="SourceAlpha" type="matrix" values="0 0 0 0 0 0 0 0 0 0 0 0 0 0 0 0 0 0 127 0"/><feMorphology radius="-1" operator="dilate" in="SourceAlpha" result="effect2_dropShadow"/><feOffset dy="1" dx="0"/><feGaussianBlur stdDeviation="1"/><feColorMatrix type="matrix" values="0 0 0 0 0.06666667014360428 0 0 0 0 0.06666667014360428 0 0 0 0 0.06666667014360428 0 0 0 0.10000000149011612 0"/><feBlend mode="normal" in2="effect1_dropShadow" result="effect2_dropShadow"/><feBlend mode="normal" in="SourceGraphic" in2="effect2_dropShadow" result="shape"/></filter><clipPath id="master_svg5_153_2919"><rect x="144" y="40" width="72" height="32" rx="4"/></clipPath><clipPath id="master_svg6_153_2923"><rect x="148" y="44" width="24" height="24" rx="2"/></clipPath><clipPath id="master_svg7_153_2928"><rect x="176" y="48" width="16" height="4" rx="2"/></clipPath><clipPath id="master_svg8_153_2922"><rect x="176" y="54" width="36" height="2" rx="1"/></clipPath><clipPath id="master_svg9_153_2921"><rect x="176" y="58" width="36" height="2" rx="1"/></clipPath><clipPath id="master_svga_153_2920"><rect x="176" y="62" width="26" height="2" rx="1"/></clipPath><filter id="master_svgb_153_2782" filterUnits="objectBoundingBox" color-interpolation-filters="sRGB" x="-0.265625" y="-0.09166666666666666" width="1.34375" height="1.1833333333333333"><feFlood flood-opacity="0" result="BackgroundImageFix"/><feColorMatrix in="SourceAlpha" type="matrix" values="0 0 0 0 0 0 0 0 0 0 0 0 0 0 0 0 0 0 127 0"/><feMorphology radius="-1" operator="dilate" in="SourceAlpha" result="effect1_dropShadow"/><feOffset dy="4" dx="0"/><feGaussianBlur stdDeviation="3"/><feColorMatrix type="matrix" values="0 0 0 0 0.06666667014360428 0 0 0 0 0.06666667014360428 0 0 0 0 0.06666667014360428 0 0 0 0.10000000149011612 0"/><feBlend mode="normal" in2="BackgroundImageFix" result="effect1_dropShadow"/><feColorMatrix in="SourceAlpha" type="matrix" values="0 0 0 0 0 0 0 0 0 0 0 0 0 0 0 0 0 0 127 0"/><feMorphology radius="-2" operator="dilate" in="SourceAlpha" result="effect2_dropShadow"/><feOffset dy="2" dx="0"/><feGaussianBlur stdDeviation="2"/><feColorMatrix type="matrix" values="0 0 0 0 0.06666667014360428 0 0 0 0 0.06666667014360428 0 0 0 0 0.06666667014360428 0 0 0 0.05999999865889549 0"/><feBlend mode="normal" in2="effect1_dropShadow" result="effect2_dropShadow"/><feBlend mode="normal" in="SourceGraphic" in2="effect2_dropShadow" result="shape"/></filter><clipPath id="master_svgc_153_2782"><rect x="16" y="24" width="64" height="120" rx="12"/></clipPath><clipPath id="master_svgd_153_2783"><rect x="40" y="28" width="16" height="6" rx="3"/></clipPath><clipPath id="master_svge_153_2786"><rect x="40" y="138" width="16" height="2" rx="1"/></clipPath><filter id="master_svgf_153_2787" filterUnits="objectBoundingBox" color-interpolation-filters="sRGB" x="-0.16071428571428573" y="-0.2916666666666667" width="1.2142857142857142" height="1.5"><feFlood flood-opacity="0" result="BackgroundImageFix"/><feColorMatrix in="SourceAlpha" type="matrix" values="0 0 0 0 0 0 0 0 0 0 0 0 0 0 0 0 0 0 127 0"/><feOffset dy="1" dx="0"/><feGaussianBlur stdDeviation="1.5"/><feColorMatrix type="matrix" values="0 0 0 0 0.06666667014360428 0 0 0 0 0.06666667014360428 0 0 0 0 0.06666667014360428 0 0 0 0.10000000149011612 0"/><feBlend mode="normal" in2="BackgroundImageFix" result="effect1_dropShadow"/><feColorMatrix in="SourceAlpha" type="matrix" values="0 0 0 0 0 0 0 0 0 0 0 0 0 0 0 0 0 0 127 0"/><feMorphology radius="-1" operator="dilate" in="SourceAlpha" result="effect2_dropShadow"/><feOffset dy="1" dx="0"/><feGaussianBlur stdDeviation="1"/><feColorMatrix type="matrix" values="0 0 0 0 0.06666667014360428 0 0 0 0 0.06666667014360428 0 0 0 0 0.06666667014360428 0 0 0 0.10000000149011612 0"/><feBlend mode="normal" in2="effect1_dropShadow" result="effect2_dropShadow"/><feBlend mode="normal" in="SourceGraphic" in2="effect2_dropShadow" result="shape"/></filter><clipPath id="master_svgg_153_2787"><rect x="20" y="40" width="56" height="24" rx="4"/></clipPath><clipPath id="master_svgh_153_2836"><rect x="24" y="44" width="16" height="16" rx="2"/></clipPath><clipPath id="master_svgi_153_2911"><rect x="44" y="44" width="16" height="4" rx="2"/></clipPath><clipPath id="master_svgj_153_2913"><rect x="44" y="54" width="28" height="2" rx="1"/></clipPath><clipPath id="master_svgk_153_2914"><rect x="44" y="58" width="20" height="2" rx="1"/></clipPath></defs><g><g filter="url(#master_svg0_153_2769)"><g clip-path="url(#master_svg1_153_2769)"><rect x="64" y="16" width="160" height="120" rx="8" fill="#FFFFFF" fill-opacity="1"/><g clip-path="url(#master_svg2_153_2778)"><rect x="64" y="16" width="160" height="16" rx="0" fill="#F2F4F7" fill-opacity="1"/><g><ellipse cx="72" cy="24" rx="2" ry="2" fill="#99AABD" fill-opacity="1"/></g><g><ellipse cx="78" cy="24" rx="2" ry="2" fill="#B3C1D0" fill-opacity="1"/></g><g><ellipse cx="84" cy="24" rx="2" ry="2" fill="#CDD7E2" fill-opacity="1"/></g></g><g clip-path="url(#master_svg3_153_2770)"><rect x="64" y="32" width="160" height="104" rx="0" fill="#E4EBF1" fill-opacity="1"/><g filter="url(#master_svg4_153_2919)"><g clip-path="url(#master_svg5_153_2919)"><rect x="144" y="40" width="72" height="32" rx="4" fill="#FFFFFF" fill-opacity="1"/><g clip-path="url(#master_svg6_153_2923)"><rect x="148" y="44" width="24" height="24" rx="2" fill="#E4EBF1" fill-opacity="1"/><g><path d="M151.26953125,60L154.0996094,51.2695312L157.3339844,51.2695312L160.2695312,60L157.5859375,60L156.5722656,56.613281Q156.2441406,55.5117188,155.9570312,54.325195300000004Q155.6699219,53.1386719,155.4121094,51.9667969L155.9511719,51.9667969Q155.7050781,53.1386719,155.453125,54.325195300000004Q155.2011719,55.5117188,154.8847656,56.613281L153.9179688,60L151.26953125,60ZM153.3671875,58.324219L153.3671875,56.554688L158.171875,56.554688L158.171875,58.324219L153.3671875,58.324219ZM162.97070300000001,60.082031Q162.273438,60.082031,161.68457,59.71582Q161.09570300000001,59.349609,160.7441406,58.605469Q160.3925781,57.861328,160.3925781,56.730469Q160.3925781,55.5410156,160.7617188,54.799804699999996Q161.130859,54.0585938,161.71679699999999,53.7128906Q162.302734,53.3671875,162.947266,53.3671875Q163.433594,53.3671875,163.799805,53.5341797Q164.166016,53.7011719,164.415039,53.9824219Q164.664062,54.2636719,164.787109,54.5976562L164.822266,54.5976562L164.822266,51.2695312L167.177734,51.2695312L167.177734,60L164.84570300000001,60L164.84570300000001,58.921875L164.787109,58.921875Q164.652344,59.255859,164.400391,59.516602Q164.148438,59.777344,163.791016,59.929688Q163.433594,60.082031,162.97070300000001,60.082031ZM163.837891,58.277344Q164.160156,58.277344,164.394531,58.086914Q164.628906,57.896484,164.754883,57.550781Q164.880859,57.205078,164.880859,56.730469Q164.880859,56.244141,164.754883,55.895507800000004Q164.628906,55.546875,164.394531,55.359375Q164.160156,55.171875,163.837891,55.171875Q163.515625,55.171875,163.287109,55.359375Q163.058594,55.546875,162.938477,55.895507800000004Q162.818359,56.244141,162.818359,56.730469Q162.818359,57.210938,162.938477,57.55957Q163.058594,57.908203,163.287109,58.092773Q163.515625,58.277344,163.837891,58.277344Z" fill="#99AABD" fill-opacity="1"/></g></g><g clip-path="url(#master_svg7_153_2928)"><rect x="176" y="48" width="16" height="4" rx="2" fill="#F2F4F7" fill-opacity="1"/></g><g clip-path="url(#master_svg8_153_2922)"><rect x="176" y="54" width="36" height="2" rx="1" fill="#F2F4F7" fill-opacity="1"/></g><g clip-path="url(#master_svg9_153_2921)"><rect x="176" y="58" width="36" height="2" rx="1" fill="#F2F4F7" fill-opacity="1"/></g><g clip-path="url(#master_svga_153_2920)"><rect x="176" y="62" width="26" height="2" rx="1" fill="#F2F4F7" fill-opacity="1"/></g></g></g></g><rect x="64.5" y="16.5" width="159" height="119" rx="7.5" fill-opacity="0" stroke-opacity="0.10000000149011612" stroke="#000000" fill="none" stroke-width="1"/></g></g><g filter="url(#master_svgb_153_2782)"><g clip-path="url(#master_svgc_153_2782)"><rect x="16" y="24" width="64" height="120" rx="12" fill="#E4EBF1" fill-opacity="1"/><g clip-path="url(#master_svgd_153_2783)"><rect x="40" y="28" width="16" height="6" rx="3" fill="#B3C1D0" fill-opacity="1"/></g><g clip-path="url(#master_svge_153_2786)"><rect x="40" y="138" width="16" height="2" rx="1" fill="#B3C1D0" fill-opacity="1"/></g><g filter="url(#master_svgf_153_2787)"><g clip-path="url(#master_svgg_153_2787)"><rect x="20" y="40" width="56" height="24" rx="4" fill="#FFFFFF" fill-opacity="1"/><g clip-path="url(#master_svgh_153_2836)"><rect x="24" y="44" width="16" height="16" rx="2" fill="#E4EBF1" fill-opacity="1"/><g><path d="M26.1796875,55L28.0664062,49.1796875L30.2226562,49.1796875L32.1796875,55L30.390625,55L29.7148438,52.7421875Q29.4960938,52.0078125,29.3046875,51.2167969Q29.1132812,50.4257812,28.9414062,49.6445312L29.3007812,49.6445312Q29.1367188,50.4257812,28.96875,51.2167969Q28.8007812,52.0078125,28.5898438,52.7421875L27.9453125,55L26.1796875,55ZM27.578125,53.8828125L27.578125,52.703125L30.78125,52.703125L30.78125,53.8828125L27.578125,53.8828125ZM33.9804688,55.054688Q33.515625,55.054688,33.1230469,54.810547Q32.7304688,54.566406,32.4960938,54.070312Q32.2617188,53.5742188,32.2617188,52.8203125Q32.2617188,52.0273438,32.5078125,51.5332031Q32.7539062,51.0390625,33.1445312,50.8085938Q33.5351562,50.578125,33.9648438,50.578125Q34.2890625,50.578125,34.5332031,50.6894531Q34.7773438,50.8007812,34.9433594,50.9882812Q35.109375,51.1757812,35.1914062,51.3984375L35.2148438,51.3984375L35.2148438,49.1796875L36.785156,49.1796875L36.785156,55L35.2304688,55L35.2304688,54.28125L35.1914062,54.28125Q35.1015625,54.503906,34.9335938,54.677734Q34.765625,54.851562,34.5273438,54.953125Q34.2890625,55.054688,33.9804688,55.054688ZM34.5585938,53.8515625Q34.7734375,53.8515625,34.9296875,53.7246094Q35.0859375,53.5976562,35.1699219,53.3671875Q35.2539062,53.1367188,35.2539062,52.8203125Q35.2539062,52.4960938,35.1699219,52.2636719Q35.0859375,52.03125,34.9296875,51.90625Q34.7734375,51.78125,34.5585938,51.78125Q34.34375,51.78125,34.1914062,51.90625Q34.0390625,52.03125,33.9589844,52.2636719Q33.8789062,52.4960938,33.8789062,52.8203125Q33.8789062,53.140625,33.9589844,53.3730469Q34.0390625,53.6054688,34.1914062,53.7285156Q34.34375,53.8515625,34.5585938,53.8515625Z" fill="#99AABD" fill-opacity="1"/></g></g><g clip-path="url(#master_svgi_153_2911)"><rect x="44" y="44" width="16" height="4" rx="2" fill="#F2F4F7" fill-opacity="1"/></g><g clip-path="url(#master_svgj_153_2913)"><rect x="44" y="54" width="28" height="2" rx="1" fill="#F2F4F7" fill-opacity="1"/></g><g clip-path="url(#master_svgk_153_2914)"><rect x="44" y="58" width="20" height="2" rx="1" fill="#F2F4F7" fill-opacity="1"/></g></g></g><rect x="16.5" y="24.5" width="63" height="119" rx="11.5" fill-opacity="0" stroke-opacity="0.10000000149011612" stroke="#000000" fill="none" stroke-width="1"/></g></g></g></svg>