<svg xmlns="http://www.w3.org/2000/svg" xmlns:xlink="http://www.w3.org/1999/xlink" fill="none" version="1.1" width="240" height="160" viewBox="0 0 240 160"><defs><filter id="master_svg0_151_1561" filterUnits="objectBoundingBox" color-interpolation-filters="sRGB" x="-0.10625" y="-0.09166666666666666" width="1.1375" height="1.1833333333333333"><feFlood flood-opacity="0" result="BackgroundImageFix"/><feColorMatrix in="SourceAlpha" type="matrix" values="0 0 0 0 0 0 0 0 0 0 0 0 0 0 0 0 0 0 127 0"/><feMorphology radius="-1" operator="dilate" in="SourceAlpha" result="effect1_dropShadow"/><feOffset dy="4" dx="0"/><feGaussianBlur stdDeviation="3"/><feColorMatrix type="matrix" values="0 0 0 0 0.06666667014360428 0 0 0 0 0.06666667014360428 0 0 0 0 0.06666667014360428 0 0 0 0.10000000149011612 0"/><feBlend mode="normal" in2="BackgroundImageFix" result="effect1_dropShadow"/><feColorMatrix in="SourceAlpha" type="matrix" values="0 0 0 0 0 0 0 0 0 0 0 0 0 0 0 0 0 0 127 0"/><feMorphology radius="-2" operator="dilate" in="SourceAlpha" result="effect2_dropShadow"/><feOffset dy="2" dx="0"/><feGaussianBlur stdDeviation="2"/><feColorMatrix type="matrix" values="0 0 0 0 0.06666667014360428 0 0 0 0 0.06666667014360428 0 0 0 0 0.06666667014360428 0 0 0 0.05999999865889549 0"/><feBlend mode="normal" in2="effect1_dropShadow" result="effect2_dropShadow"/><feBlend mode="normal" in="SourceGraphic" in2="effect2_dropShadow" result="shape"/></filter><clipPath id="master_svg1_151_1561"><rect x="16" y="16" width="160" height="120" rx="8"/></clipPath><clipPath id="master_svg2_151_1562"><rect x="16" y="16" width="160" height="16" rx="0"/></clipPath><clipPath id="master_svg3_151_1566"><rect x="16" y="32" width="160" height="104" rx="0"/></clipPath><clipPath id="master_svg4_151_1573"><rect x="24" y="40" width="112" height="63" rx="4"/></clipPath><clipPath id="master_svg5_151_1585"><rect x="140" y="40" width="28" height="20" rx="4"/></clipPath><clipPath id="master_svg6_151_1571"><rect x="140" y="64" width="28" height="20" rx="4"/></clipPath><clipPath id="master_svg7_151_1567"><rect x="140" y="88" width="28" height="20" rx="4"/></clipPath><clipPath id="master_svg8_151_1583"><rect x="140" y="112" width="28" height="20" rx="4"/></clipPath><clipPath id="master_svg9_151_1578"><rect x="24" y="118" width="10" height="10" rx="5"/></clipPath><clipPath id="master_svga_151_1568"><rect x="33" y="109" width="103" height="2" rx="1"/></clipPath><clipPath id="master_svgb_151_1572"><rect x="38" y="121" width="16" height="4" rx="2"/></clipPath><clipPath id="master_svgc_151_1584"><rect x="126" y="120" width="10" height="6" rx="3"/></clipPath><clipPath id="master_svgd_151_1570"><rect x="112" y="120" width="10" height="6" rx="3"/></clipPath><clipPath id="master_svge_151_1579"><rect x="98" y="120" width="10" height="6" rx="3"/></clipPath><filter id="master_svgf_151_1586" filterUnits="objectBoundingBox" color-interpolation-filters="sRGB" x="-0.265625" y="-0.09166666666666666" width="1.34375" height="1.1833333333333333"><feFlood flood-opacity="0" result="BackgroundImageFix"/><feColorMatrix in="SourceAlpha" type="matrix" values="0 0 0 0 0 0 0 0 0 0 0 0 0 0 0 0 0 0 127 0"/><feMorphology radius="-1" operator="dilate" in="SourceAlpha" result="effect1_dropShadow"/><feOffset dy="4" dx="0"/><feGaussianBlur stdDeviation="3"/><feColorMatrix type="matrix" values="0 0 0 0 0.06666667014360428 0 0 0 0 0.06666667014360428 0 0 0 0 0.06666667014360428 0 0 0 0.10000000149011612 0"/><feBlend mode="normal" in2="BackgroundImageFix" result="effect1_dropShadow"/><feColorMatrix in="SourceAlpha" type="matrix" values="0 0 0 0 0 0 0 0 0 0 0 0 0 0 0 0 0 0 127 0"/><feMorphology radius="-2" operator="dilate" in="SourceAlpha" result="effect2_dropShadow"/><feOffset dy="2" dx="0"/><feGaussianBlur stdDeviation="2"/><feColorMatrix type="matrix" values="0 0 0 0 0.06666667014360428 0 0 0 0 0.06666667014360428 0 0 0 0 0.06666667014360428 0 0 0 0.05999999865889549 0"/><feBlend mode="normal" in2="effect1_dropShadow" result="effect2_dropShadow"/><feBlend mode="normal" in="SourceGraphic" in2="effect2_dropShadow" result="shape"/></filter><clipPath id="master_svgg_151_1586"><rect x="160" y="24" width="64" height="120" rx="12"/></clipPath><clipPath id="master_svgh_151_1593"><rect x="184" y="28" width="16" height="6" rx="3"/></clipPath><clipPath id="master_svgi_151_1594"><rect x="184" y="138" width="16" height="2" rx="1"/></clipPath><clipPath id="master_svgj_151_1596"><rect x="164" y="40" width="56" height="32" rx="4"/></clipPath><clipPath id="master_svgk_151_1602"><rect x="173" y="78" width="47" height="2" rx="1"/></clipPath><clipPath id="master_svgl_151_1601"><rect x="164" y="86" width="10" height="10" rx="5"/></clipPath><clipPath id="master_svgm_151_1587"><rect x="164" y="122" width="10" height="10" rx="5"/></clipPath><clipPath id="master_svgn_151_1592"><rect x="178" y="89" width="12" height="4" rx="2"/></clipPath><clipPath id="master_svgo_151_1595"><rect x="178" y="125" width="42" height="4" rx="2"/></clipPath><clipPath id="master_svgp_151_1604"><rect x="164" y="100" width="56" height="18" rx="4"/></clipPath><clipPath id="master_svgq_151_1588"><rect x="210" y="88" width="10" height="6" rx="3"/></clipPath></defs><g><g filter="url(#master_svg0_151_1561)"><g clip-path="url(#master_svg1_151_1561)"><rect x="16" y="16" width="160" height="120" rx="8" fill="#FFFFFF" fill-opacity="1"/><g clip-path="url(#master_svg2_151_1562)"><rect x="16" y="16" width="160" height="16" rx="0" fill="#F2F4F7" fill-opacity="1"/><g><ellipse cx="24" cy="24" rx="2" ry="2" fill="#99AABD" fill-opacity="1"/></g><g><ellipse cx="30" cy="24" rx="2" ry="2" fill="#B3C1D0" fill-opacity="1"/></g><g><ellipse cx="36" cy="24" rx="2" ry="2" fill="#CDD7E2" fill-opacity="1"/></g></g><g clip-path="url(#master_svg3_151_1566)"><g clip-path="url(#master_svg4_151_1573)"><rect x="24" y="40" width="112" height="63" rx="4" fill="#E4EBF1" fill-opacity="1"/><g><path d="M71.31445312,76.5L74.6162109,66.3144531L78.3896484,66.3144531L81.814453,76.5L78.6835938,76.5L77.5009766,72.548828Q77.1181641,71.263672,76.7832031,69.8793945Q76.4482422,68.4951172,76.1474609,67.1279297L76.7763672,67.1279297Q76.4892578,68.4951172,76.1953125,69.8793945Q75.9013672,71.263672,75.5322266,72.548828L74.4042969,76.5L71.31445312,76.5ZM73.7617188,74.544922L73.7617188,72.480469L79.3671875,72.480469L79.3671875,74.544922L73.7617188,74.544922ZM84.96582000000001,76.595703Q84.152344,76.595703,83.465332,76.168457Q82.77832000000001,75.74121099999999,82.36816400000001,74.873047Q81.958008,74.004883,81.958008,72.685547Q81.958008,71.297852,82.388672,70.4331055Q82.81933599999999,69.5683594,83.50292999999999,69.1650391Q84.186523,68.7617188,84.938477,68.7617188Q85.505859,68.7617188,85.933105,68.956543Q86.360352,69.1513672,86.650879,69.4794922Q86.941406,69.8076172,87.08496099999999,70.1972656L87.125977,70.1972656L87.125977,66.3144531L89.874023,66.3144531L89.874023,76.5L87.15332000000001,76.5L87.15332000000001,75.242188L87.08496099999999,75.242188Q86.927734,75.63183599999999,86.63378900000001,75.936035Q86.339844,76.240234,85.922852,76.417969Q85.505859,76.595703,84.96582000000001,76.595703ZM85.97753900000001,74.490234Q86.353516,74.490234,86.626953,74.268066Q86.900391,74.045898,87.047363,73.642578Q87.19433599999999,73.239258,87.19433599999999,72.685547Q87.19433599999999,72.11816400000001,87.047363,71.711426Q86.900391,71.304688,86.626953,71.085938Q86.353516,70.867188,85.97753900000001,70.867188Q85.601562,70.867188,85.33496099999999,71.085938Q85.068359,71.304688,84.928223,71.711426Q84.78808599999999,72.11816400000001,84.78808599999999,72.685547Q84.78808599999999,73.246094,84.928223,73.652832Q85.068359,74.05957000000001,85.33496099999999,74.274902Q85.601562,74.490234,85.97753900000001,74.490234Z" fill="#99AABD" fill-opacity="1"/></g></g><g clip-path="url(#master_svg5_151_1585)"><rect x="140" y="40" width="28" height="20" rx="4" fill="#F2F4F7" fill-opacity="1"/></g><g clip-path="url(#master_svg6_151_1571)"><rect x="140" y="64" width="28" height="20" rx="4" fill="#F2F4F7" fill-opacity="1"/></g><g clip-path="url(#master_svg7_151_1567)"><rect x="140" y="88" width="28" height="20" rx="4" fill="#F2F4F7" fill-opacity="1"/></g><g clip-path="url(#master_svg8_151_1583)"><rect x="140" y="112" width="28" height="20" rx="4" fill="#F2F4F7" fill-opacity="1"/></g><g clip-path="url(#master_svg9_151_1578)"><rect x="24" y="118" width="10" height="10" rx="5" fill="#F2F4F7" fill-opacity="1"/></g><g><g><rect x="24" y="107" width="2" height="6" rx="0" fill="#99AABD" fill-opacity="1"/></g><g><rect x="27" y="107" width="2" height="6" rx="0" fill="#99AABD" fill-opacity="1"/></g></g><g clip-path="url(#master_svga_151_1568)"><rect x="33" y="109" width="103" height="2" rx="1" fill="#E4EBF1" fill-opacity="1"/><g><rect x="33" y="109" width="56" height="2" rx="0" fill="#B3C1D0" fill-opacity="1"/></g></g><g clip-path="url(#master_svgb_151_1572)"><rect x="38" y="121" width="16" height="4" rx="2" fill="#F2F4F7" fill-opacity="1"/></g><g clip-path="url(#master_svgc_151_1584)"><rect x="126" y="120" width="10" height="6" rx="3" fill="#F2F4F7" fill-opacity="1"/></g><g clip-path="url(#master_svgd_151_1570)"><rect x="112" y="120" width="10" height="6" rx="3" fill="#F2F4F7" fill-opacity="1"/></g><g clip-path="url(#master_svge_151_1579)"><rect x="98" y="120" width="10" height="6" rx="3" fill="#F2F4F7" fill-opacity="1"/></g></g><rect x="16.5" y="16.5" width="159" height="119" rx="7.5" fill-opacity="0" stroke-opacity="0.10000000149011612" stroke="#000000" fill="none" stroke-width="1"/></g></g><g filter="url(#master_svgf_151_1586)"><g clip-path="url(#master_svgg_151_1586)"><rect x="160" y="24" width="64" height="120" rx="12" fill="#FFFFFF" fill-opacity="1"/><g clip-path="url(#master_svgh_151_1593)"><rect x="184" y="28" width="16" height="6" rx="3" fill="#CDD7E2" fill-opacity="1"/></g><g clip-path="url(#master_svgi_151_1594)"><rect x="184" y="138" width="16" height="2" rx="1" fill="#CDD7E2" fill-opacity="1"/></g><g clip-path="url(#master_svgj_151_1596)"><rect x="164" y="40" width="56" height="32" rx="4" fill="#E4EBF1" fill-opacity="1"/><g><path d="M183.26953125,60L186.0996094,51.2695312L189.3339844,51.2695312L192.2695312,60L189.5859375,60L188.5722656,56.613281Q188.2441406,55.5117188,187.9570312,54.325195300000004Q187.6699219,53.1386719,187.4121094,51.9667969L187.9511719,51.9667969Q187.7050781,53.1386719,187.453125,54.325195300000004Q187.2011719,55.5117188,186.8847656,56.613281L185.9179688,60L183.26953125,60ZM185.3671875,58.324219L185.3671875,56.554688L190.171875,56.554688L190.171875,58.324219L185.3671875,58.324219ZM194.97070300000001,60.082031Q194.273438,60.082031,193.68457,59.71582Q193.09570300000001,59.349609,192.7441406,58.605469Q192.3925781,57.861328,192.3925781,56.730469Q192.3925781,55.5410156,192.7617188,54.799804699999996Q193.130859,54.0585938,193.71679699999999,53.7128906Q194.302734,53.3671875,194.947266,53.3671875Q195.433594,53.3671875,195.799805,53.5341797Q196.166016,53.7011719,196.415039,53.9824219Q196.664062,54.2636719,196.787109,54.5976562L196.822266,54.5976562L196.822266,51.2695312L199.177734,51.2695312L199.177734,60L196.84570300000001,60L196.84570300000001,58.921875L196.787109,58.921875Q196.652344,59.255859,196.400391,59.516602Q196.148438,59.777344,195.791016,59.929688Q195.433594,60.082031,194.97070300000001,60.082031ZM195.837891,58.277344Q196.160156,58.277344,196.394531,58.086914Q196.628906,57.896484,196.754883,57.550781Q196.880859,57.205078,196.880859,56.730469Q196.880859,56.244141,196.754883,55.895507800000004Q196.628906,55.546875,196.394531,55.359375Q196.160156,55.171875,195.837891,55.171875Q195.515625,55.171875,195.287109,55.359375Q195.058594,55.546875,194.938477,55.895507800000004Q194.818359,56.244141,194.818359,56.730469Q194.818359,57.210938,194.938477,57.55957Q195.058594,57.908203,195.287109,58.092773Q195.515625,58.277344,195.837891,58.277344Z" fill="#99AABD" fill-opacity="1"/></g></g><g><g><rect x="164" y="76" width="2" height="6" rx="0" fill="#99AABD" fill-opacity="1"/></g><g><rect x="167" y="76" width="2" height="6" rx="0" fill="#99AABD" fill-opacity="1"/></g></g><g clip-path="url(#master_svgk_151_1602)"><rect x="173" y="78" width="47" height="2" rx="1" fill="#E4EBF1" fill-opacity="1"/><g><rect x="173" y="78" width="24" height="2" rx="0" fill="#B3C1D0" fill-opacity="1"/></g></g><g clip-path="url(#master_svgl_151_1601)"><rect x="164" y="86" width="10" height="10" rx="5" fill="#F2F4F7" fill-opacity="1"/></g><g clip-path="url(#master_svgm_151_1587)"><rect x="164" y="122" width="10" height="10" rx="5" fill="#F2F4F7" fill-opacity="1"/></g><g clip-path="url(#master_svgn_151_1592)"><rect x="178" y="89" width="12" height="4" rx="2" fill="#F2F4F7" fill-opacity="1"/></g><g clip-path="url(#master_svgo_151_1595)"><rect x="178" y="125" width="42" height="4" rx="2" fill="#F2F4F7" fill-opacity="1"/></g><g clip-path="url(#master_svgp_151_1604)"><rect x="164" y="100" width="56" height="18" rx="4" fill="#F2F4F7" fill-opacity="1"/></g><g clip-path="url(#master_svgq_151_1588)"><rect x="210" y="88" width="10" height="6" rx="3" fill="#F2F4F7" fill-opacity="1"/></g><rect x="160.5" y="24.5" width="63" height="119" rx="11.5" fill-opacity="0" stroke-opacity="0.10000000149011612" stroke="#000000" fill="none" stroke-width="1"/></g></g></g></svg>