<svg xmlns="http://www.w3.org/2000/svg" xmlns:xlink="http://www.w3.org/1999/xlink" fill="none" version="1.1" width="260" height="120" viewBox="0 0 260 120"><defs><clipPath id="master_svg0_284_4275"><rect x="0" y="0" width="260" height="120" rx="0"/></clipPath><clipPath id="master_svg1_295_2507"><rect x="34" y="40" width="192" height="40" rx="0"/></clipPath><linearGradient x1="1.0833100080490112" y1="1.2299424409866333" x2="1.3792475461959837" y2="0.14796875417232508" id="master_svg2_295_2517"><stop offset="0%" stop-color="#00B7B3" stop-opacity="1"/><stop offset="100%" stop-color="#2EAFE6" stop-opacity="1"/></linearGradient></defs><g clip-path="url(#master_svg0_284_4275)"><g clip-path="url(#master_svg1_295_2507)"><g><rect x="34" y="40" width="40" height="40" rx="6" fill="url(#master_svg2_295_2517)" fill-opacity="1" style="mix-blend-mode:passthrough"/></g><g><path d="M59.53730059106445,58.2763L56.68189959106445,54.5376997L59.536899591064454,50.8000002L48.79899979106445,50.8000002L48.79899979106445,58.2763L59.53730059106445,58.2763ZM45.59899998106445,48L65.19899959106445,48L60.205200591064454,54.5377998L65.19899959106445,61.0763L48.92930029106445,61.0763L48.79899979106445,79.999901L45.46879959106445,79.999901L45.59899998106445,48Z" fill-rule="evenodd" fill="#FFFFFF" fill-opacity="1" style="mix-blend-mode:passthrough"/></g><g><path d="M184.8020015,48.39863014C184.6929935,48.15608978,184.4510045,48,184.1849975,48L183.4340055,48C183.1690065,48,182.9290005,48.1545496,182.8190005,48.39527988L172.835006714,70.2929C172.6309967,70.739401,172.95899963,71.2465,173.45100403,71.2465L176.1920013,71.2465C176.4559937,71.2465,176.6970062,71.092501,176.8070068,70.8524L179.8580017,64.1966L187.7050015,64.1966L190.7839965,70.8545C190.8950045,71.093399,191.1349945,71.2465,191.3979945,71.2465L194.0240025,71.2465C194.5149995,71.2465,194.8419955,70.7425,194.6410065,70.296301L184.8020015,48.39863014ZM212.58599850000002,48.31641006C212.9589995,48.31641006,213.26199350000002,48.61835003,213.26199350000002,48.99081993L213.26199350000002,70.571899C213.26199350000002,70.944401,212.9589995,71.2463,212.58599850000002,71.2463L210.2480015,71.2463C209.8749995,71.2463,209.5720065,70.944401,209.5720065,70.571899L209.5720065,69.84440000000001C208.01199350000002,71.118601,206.2539975,71.764299,204.31900050000002,71.764299C201.89300550000002,71.764299,199.8090055,70.8741,198.1040035,69.112301C196.4049985,67.3557,195.5480045,65.2311,195.5480045,62.774C195.5480045,60.3146,196.4160005,58.193001,198.1369935,56.4456997C199.8609925,54.6953001,201.9830015,53.8123999,204.4629975,53.8123999C206.4049985,53.8123999,208.1159975,54.4279003,209.5720065,55.6443005L209.5720065,48.99081993C209.5720065,48.61835003,209.8749995,48.31641006,210.2480015,48.31641006L212.58599850000002,48.31641006ZM220.9510045,53.8125C222.5279995,53.8125,224.1399995,54.6401997,225.7949985,56.2485008C226.0610045,56.5074005,226.0679935,56.932199499999996,225.8090055,57.1993008L224.2799985,58.7819C224.0240025,59.047001,223.6020055,59.0583,223.3320005,58.807301C222.3110045,57.8579006,221.4199985,57.4057999,220.67700150000002,57.4057999C220.2480015,57.4057999,219.9129945,57.5310001,219.63699350000002,57.7866993C219.36999550000002,58.0333,219.2469945,58.314699,219.2469945,58.673598999999996C219.2469945,59.024799,219.3890075,59.3263,219.7050015,59.614799C220.0820005,59.959,220.7839965,60.4093,221.7949985,60.946699L221.9720005,61.0403C223.19799849999998,61.6819,224.1549985,62.3992,224.8410035,63.198999C225.5740055,64.0534,225.9409945,65.1015,225.9409945,66.3134C225.9409945,67.834999,225.4029995,69.1397,224.3410035,70.188101C223.2799985,71.2353,221.9589995,71.7644,220.4170075,71.7644C218.3000035,71.7644,216.5189975,70.860201,215.12399249999999,69.0896C214.9210055,68.8321,214.9329985,68.466499,215.1519925,68.2227L216.6529995,66.55380099999999C216.9259945,66.250299,217.4040065,66.2556,217.6699985,66.5651C218.5910035,67.63680099999999,219.4759975,68.142401,220.3309935,68.142401C220.89300550000002,68.142401,221.35299650000002,67.9657,221.7469945,67.602501C222.1309965,67.2474,222.3090055,66.8636,222.3090055,66.414101C222.3090055,65.9599,222.1519925,65.6031,221.8209995,65.29939999999999C221.4490055,64.958799,220.8000035,64.542999,219.8840025,64.06530000000001L219.3370055,63.785C218.2189945,63.198499999999996,217.3520055,62.5429,216.73800649999998,61.810900000000004C216.0429995,60.9813,215.7010045,59.907101,215.7010045,58.6161C215.7010045,57.2908993,216.1950075,56.142499900000004,217.1629945,55.2103004C218.1320035,54.2770996,219.4080045,53.8125,220.9510045,53.8125ZM204.5229945,57.4633007C203.0260005,57.4633007,201.8009945,57.9862995,200.8040005,59.048201C199.7949985,60.122601,199.2980045,61.368,199.2980045,62.8172C199.2980045,64.263599,199.8079985,65.512199,200.8430025,66.596399C201.8710025,67.6726,203.0800015,68.1999,204.5090025,68.1999C205.8509975,68.1999,207.0410005,67.7031,208.1109925,66.688C209.1670075,65.6856,209.6900025,64.429001,209.6900025,62.874701C209.6900025,61.307899,209.2010045,60.026699,208.2169955,58.9944C207.2400055,57.9696007,206.0229945,57.4633007,204.5229945,57.4633007ZM181.6300049,60.344601L183.8090055,55.5508003L185.9700015,60.344601L181.6300049,60.344601Z" fill-rule="evenodd" fill="#2E2F39" fill-opacity="1" style="mix-blend-mode:passthrough"/></g><g><path d="M130.09750400000001,48.990819934697264C130.09750400000001,48.618350024697264,129.794701,48.316410064697266,129.421204,48.316410064697266L127.02619899999999,48.316410064697266C126.652702,48.316410064697266,126.349899,48.618350024697264,126.349899,48.990819934697264L126.349899,54.21520046469727L124.313797,54.21520046469727C123.94030000000001,54.21520046469727,123.637497,54.51720046469727,123.637497,54.889699964697265L123.637497,56.96139906469727C123.637497,57.333900464697265,123.94030000000001,57.635900464697265,124.313797,57.635900464697265L126.349899,57.635900464697265L126.349899,68.26989906469727C126.349899,69.40920106469727,126.622803,70.29060006469726,127.206497,70.88540106469726C127.791702,71.48160006469726,128.648102,71.76429906469727,129.73860200000001,71.76429906469727C130.196098,71.76429906469727,130.810303,71.70360006469727,131.590599,71.58350006469726L131.952301,71.52549906469727C132.280197,71.47300006469726,132.521301,71.19080006469727,132.521301,70.85969906469727L132.521301,68.81670006469727C132.521301,68.44420006469727,132.218498,68.14230006469727,131.845001,68.14230006469727L130.357697,68.14139906469727C130.25969700000002,68.13979906469726,130.1744,68.13570006469726,130.102699,68.12940006469726C130.100502,68.09569906469727,130.09890000000001,68.05830006469726,130.098099,68.01740106469727L130.09750400000001,57.635900464697265L132.537498,57.635900464697265C132.911003,57.635900464697265,133.213799,57.333900464697265,133.213799,56.96139906469727L133.213799,54.889699964697265C133.213799,54.51720046469727,132.911003,54.21520046469727,132.537498,54.21520046469727L130.09750400000001,54.21520046469727L130.09750400000001,48.990819934697264ZM169.39300500000002,56.44580076469727C167.669006,54.69550036469727,165.552994,53.81249996469727,163.082001,53.81249996469727C161.14700299999998,53.81249996469727,159.442001,54.42780016469727,157.987,55.643699664697266L157.987,54.88980006469727C157.987,54.51729966469726,157.684998,54.21529956469727,157.310997,54.21529956469727L154.945,54.21529956469727C154.571999,54.21529956469727,154.268997,54.51729966469726,154.268997,54.88980006469727L154.268997,76.12559906469727C154.268997,76.49800106469726,154.571999,76.79999906469726,154.945,76.79999906469726L157.310997,76.79999906469726C157.684998,76.79999906469726,157.987,76.49800106469726,157.987,76.12559906469727L157.987,69.84499906469726C159.545998,71.11879906469727,161.297997,71.76440006469727,163.225998,71.76440006469727C165.641998,71.76440006469727,167.72199999999998,70.87400006469727,169.42700200000002,69.11240006469727C171.12600700000002,67.35580106469726,171.98199499999998,65.23119906469726,171.98199499999998,62.77409906469727C171.98199499999998,60.314699064697265,171.11399799999998,58.19309996469727,169.39300500000002,56.44580076469727ZM143.021004,53.81249996469727C145.473999,53.81249996469727,147.578003,54.70180036469726,149.292,56.46310046469726C151.001999,58.21969986469726,151.862999,60.34490006469726,151.862999,62.80279906469727C151.862999,65.25960006469727,151.012001,67.37949906469727,149.321999,69.12669906469726C147.625999,70.88030006469727,145.512001,71.76440006469727,143.021004,71.76440006469727C140.530998,71.76440006469727,138.413002,70.88080006469727,136.707001,69.12820006469727C135.007004,67.38100006469726,134.150002,65.26050006469727,134.150002,62.80279906469727C134.150002,60.34490006469726,135.012001,58.21969986469726,136.722,56.46310046469726C138.435997,54.70149996469726,140.549004,53.81249996469727,143.021004,53.81249996469727ZM109.34760299999999,54.890000364697265C109.34760299999999,54.51760006469726,109.0448,54.21559996469726,108.671303,54.21559996469726L106.276299,54.21559996469726C105.90280200000001,54.21559996469726,105.599998,54.51760006469726,105.599998,54.890000364697265L105.599998,70.57230006469726C105.599998,70.94479906469726,105.90280200000001,71.24670006469727,106.276299,71.24670006469727L108.671303,71.24670006469727C109.0448,71.24670006469727,109.34760299999999,70.94479906469726,109.34760299999999,70.57230006469726L109.34760299999999,54.890000364697265ZM114.8862,48.316410064697266C115.259697,48.316410064697266,115.5625,48.618350024697264,115.5625,48.990819934697264L115.5625,70.57189906469726C115.5625,70.94440106469727,115.259697,71.24630006469727,114.8862,71.24630006469727L112.519997,71.24630006469727C112.1465,71.24630006469727,111.84380300000001,70.94440106469727,111.84380300000001,70.57189906469726L111.84380300000001,48.990819934697264C111.84380300000001,48.618350024697264,112.1465,48.316410064697266,112.519997,48.316410064697266L114.8862,48.316410064697266ZM121.806198,48.990819934697264C121.806198,48.618350024697264,121.50340299999999,48.316410064697266,121.129898,48.316410064697266L118.763802,48.316410064697266C118.390297,48.316410064697266,118.087502,48.618350024697264,118.087502,48.990819934697264L118.087502,70.57189906469726C118.087502,70.94440106469727,118.390297,71.24630006469727,118.763802,71.24630006469727L121.129898,71.24630006469727C121.50340299999999,71.24630006469727,121.806198,70.94440106469727,121.806198,70.57189906469726L121.806198,48.990819934697264ZM89.1866989,48.834380154697264C89.5601997,48.834380154697264,89.862999,49.13632011469726,89.862999,49.508790064697266L89.862999,57.49559976469727L98.638603,57.49559976469727L98.638603,49.508790064697266C98.638603,49.13632011469726,98.941399,48.834380154697264,99.314903,48.834380154697264L101.796402,48.834380154697264C102.169899,48.834380154697264,102.472702,49.13632011469726,102.472702,49.508790064697266L102.472702,70.57200006469726C102.472702,70.94440106469727,102.169899,71.24640106469727,101.796402,71.24640106469727L99.314903,71.24640106469727C98.941399,71.24640106469727,98.638603,70.94440106469727,98.638603,70.57200006469726L98.638603,61.26149906469726L89.862999,61.26149906469726L89.862999,70.57200006469726C89.862999,70.94440106469727,89.5601997,71.24640106469727,89.1866989,71.24640106469727L86.67630005,71.24640106469727C86.30279922,71.24640106469727,86,70.94440106469727,86,70.57200006469726L86,49.508790064697266C86,49.13632011469726,86.30279922,48.834380154697264,86.67630005,48.834380154697264L89.1866989,48.834380154697264ZM159.342003,58.998501064697265C160.338997,57.97019956469727,161.553001,57.463300664697265,163.024994,57.463300664697265C164.496002,57.463300664697265,165.720001,57.97920036469726,166.737,59.027500064697264C167.759003,60.08090006469727,168.264008,61.336800064697265,168.264008,62.83160006469727C168.264008,64.32399906469726,167.751999,65.57840006469726,166.712997,66.63170006469727C165.673996,67.68440006469726,164.475998,68.19990006469726,163.082993,68.19990006469726C161.627998,68.19990006469726,160.405998,67.69150006469727,159.378998,66.65850106469726C158.35199699999998,65.62579906469726,157.844002,64.36310006469726,157.844002,62.83160006469727C157.844002,61.296600064697266,158.33999599999999,60.03140106469726,159.342003,58.998501064697265ZM143.004997,57.49220086469727C141.626999,57.49220086469727,140.452003,58.01320076469727,139.443001,59.079201064697266C138.426003,60.15290106469727,137.925003,61.41160006469727,137.925003,62.88929906469727C137.925003,64.36800006469727,138.407997,65.60160106469726,139.384003,66.62590006469726C140.350998,67.64139906469727,141.549004,68.14250006469726,143.019997,68.14250006469726C144.431999,68.14250006469726,145.617996,67.63690006469727,146.616997,66.60720106469726C147.619003,65.57290106469726,148.113998,64.34090006469727,148.113998,62.87490106469727C148.113998,61.408300064697265,147.609001,60.155100064697265,146.584,59.08120006469726C145.565002,58.01390076469727,144.385002,57.49220086469727,143.004997,57.49220086469727ZM109.253998,49.046270374697265C108.770203,48.563770294697264,108.16010299999999,48.316410064697266,107.462898,48.316410064697266C106.77919800000001,48.316410064697266,106.176804,48.57291030469727,105.694298,49.067060474697264C105.216797,49.55611036469727,104.96880300000001,50.15110016469727,104.96880300000001,50.81799986469726C104.96880300000001,51.48490046469727,105.216797,52.07989976469727,105.694298,52.569000264697266C106.177498,53.063799864697266,106.785004,53.31960006469727,107.477402,53.31960006469727C108.165901,53.31960006469727,108.770897,53.07159996469726,109.253998,52.58979986469727C109.737198,52.107899664697264,109.985901,51.504599564697266,109.985901,50.81799986469726C109.985901,50.13140006469727,109.737198,49.52809996469727,109.253998,49.046270374697265Z" fill-rule="evenodd" fill="#38B0E4" fill-opacity="1" style="mix-blend-mode:passthrough"/></g></g></g></svg>