<svg xmlns="http://www.w3.org/2000/svg" xmlns:xlink="http://www.w3.org/1999/xlink" fill="none" version="1.1" width="260" height="120" viewBox="0 0 260 120"><defs><clipPath id="master_svg0_284_4275"><rect x="0" y="0" width="260" height="120" rx="0"/></clipPath><clipPath id="master_svg1_284_4276"><rect x="32" y="40" width="195.1219482421875" height="40" rx="0"/></clipPath><linearGradient x1="0.036106307059526443" y1="0.8835248351097107" x2="0.9948169022927754" y2="0.8537834409340235" id="master_svg2_284_2812"><stop offset="0%" stop-color="#C73414" stop-opacity="1"/><stop offset="7.5599998235702515%" stop-color="#C52F0F" stop-opacity="1"/><stop offset="100%" stop-color="#FD4305" stop-opacity="1"/></linearGradient></defs><g clip-path="url(#master_svg0_284_4275)"><g clip-path="url(#master_svg1_284_4276)"><g><path d="M98.14469179687501,67.549667375L91.422833796875,49.700649735C91.241078796875,49.245440025,90.901957796875,49.005859375,90.417564796875,49.005859375L87.341178396875,49.005859375C86.856688496875,49.005859375,86.517566696875,49.245440025,86.335905996875,49.700649735L79.614051639875,67.549667375L79.553466796875,67.801178375C79.553466796875,67.968883375,79.614051639875,68.112688375,79.723029176875,68.220493375C79.832002996875,68.328298375,79.977370856875,68.38820237499999,80.146929566875,68.38820237499999L82.629761696875,68.38820237499999C83.017372396875,68.38820237499999,83.295907996875,68.208494375,83.441272696875,67.861078375L84.72507669687499,64.518931375L93.009370796875,64.518931375L94.293271796875,67.861078375C94.438542796875,68.208494375,94.717179796875,68.38820237499999,95.104685796875,68.38820237499999L97.587619796875,68.38820237499999C97.732883796875,68.38820237499999,97.878249796875,68.328298375,97.99941779687501,68.220493375C98.120490796875,68.112688375,98.18108179687499,67.968883375,98.18108179687499,67.801178375L98.14469179687501,67.549667375ZM85.718248796875,61.296493375L88.879322096875,52.779322875L92.040492796875,61.296493375L85.718248796875,61.296493375Z" fill="#444444" fill-opacity="1" style="mix-blend-mode:passthrough"/></g><g><path d="M116.68681786962891,56.54194116875C116.5777458696289,51.52272076875,113.76789286962891,49.01904296875,108.26925896962891,49.01904296875L107.3366713696289,49.01904296875C107.26398756962891,49.01904296875,107.20340636962891,49.07893557075,107.20340636962891,49.15080910875L107.20340636962891,52.09764766875C107.20340636962891,52.16955016875,107.26398756962891,52.22945306875,107.3366713696289,52.22945306875L108.13598636962891,52.22945306875C109.69842626962891,52.22945306875,110.84896186962891,52.57686806875,111.5756968696289,53.29559896875C112.3024258696289,54.00242806875,112.6899388696289,55.11647696875,112.7263288696289,56.63784266875C112.7626228696289,57.70398906875,112.78682086962891,58.38672066875,112.78682086962891,58.68623256875C112.78682086962891,58.961744268749996,112.7626228696289,59.65657496875,112.7263288696289,60.758622968750004C112.6899388696289,62.35189296875,112.3266238696289,63.477938968749996,111.63627786962891,64.16076896875C110.94594086962891,64.84359696875,109.83159546962891,65.19091796875,108.28135396962891,65.19091796875L104.7205703696289,65.19091796875L104.7205703696289,49.13883841875C104.7205703696289,49.06695556275,104.6599888696289,49.01904296875,104.5994007696289,49.01904296875L101.4625209596289,49.01904296875C101.2566686296289,49.01904296875,101.09920542962891,49.09091651475,100.9659403596289,49.22269197875C100.8448674376289,49.35445811875,100.7842788696289,49.51018428875,100.7842788696289,49.71383326875L100.7842788696289,67.73052596875C100.7842788696289,67.91023396874999,100.8448674376289,68.06594296875,100.9780357296289,68.19774196875C101.1113082496289,68.32945296875,101.26877149962891,68.40135596875,101.4625209596289,68.40135596875L108.42672256962891,68.40135596875C111.2123818696289,68.40135596875,113.2592098696289,67.77842696875,114.60359786962891,66.55657596875C115.9358938696289,65.32271996875,116.63833286962891,63.41803796875,116.7110078696289,60.842525968749996C116.7473018696289,59.776380968750004,116.7715988696289,59.057647968750004,116.7715988696289,58.71023366875C116.73520786962891,58.33881756875,116.7231138696289,57.60808756875,116.68681786962891,56.54194116875Z" fill="#444444" fill-opacity="1" style="mix-blend-mode:passthrough"/></g><g><path d="M134.5239365395508,60.1713510625C134.06442353955077,59.4645210625,133.33760153955077,58.889498062499996,132.35613253955077,58.4343747625C131.38735553955078,57.9671554625,130.05565053955078,57.5598392625,128.39584353955078,57.1885223625C127.18472003955078,56.8770103625,126.26422783955078,56.5894975625,125.62227963955078,56.3499836625C124.99252323955078,56.0983743625,124.52013353955078,55.8108639625,124.22950173955078,55.4754485625C123.92667003955079,55.1400332625,123.78139923955078,54.7327160625,123.78139923955078,54.2295937625C123.78139923955078,53.4988622625,124.07203863955078,52.9358382625,124.66550063955079,52.5406179625C125.24686863955078,52.1453008625,126.05837483955078,51.9655938625,127.08783773955078,51.9655938625C128.02042583955077,51.9655938625,128.8076448395508,52.1692035625,129.43749753955078,52.5645213625C130.07905953955077,52.9598383625,130.4429635395508,53.4509606625,130.52783953955077,54.0499844625C130.6732075395508,54.3733992625,130.96394253955077,54.5411066625,131.36296353955078,54.5411066625L134.0273585395508,54.5411066625C134.19710853955078,54.5411066625,134.33076753955078,54.4812040625,134.4517445395508,54.3613996625C134.56101153955078,54.2415947625,134.62149853955077,54.1098866625,134.62149853955077,53.9540815625C134.58442753955077,53.1634473625,134.27028553955077,52.3609111625,133.68881853955077,51.5582761625C133.10735653955078,50.7556424625,132.2351565395508,50.0848128625,131.10930353955078,49.5457783925C129.9824755395508,49.0186857325,128.63808533955077,48.7431640625,127.08783773955078,48.7431640625C125.61018423955078,48.7431640625,124.32637593955079,48.9827540825,123.21213483955079,49.4619155525C122.09789343955079,49.9411057625,121.25008513955078,50.5999348625,120.64442283955078,51.4384715625C120.05096011955078,52.2770080625,119.74823316955079,53.2353496625,119.74823316955079,54.3014960625C119.74823316955079,55.8827652625,120.25691663955078,57.1046190625,121.28637883955078,57.9551553625C122.31584073955078,58.8056930625,123.92667003955079,59.4765210625,126.13096333955079,60.0036450625C127.47535033955079,60.3509620625,128.49271873955078,60.6504740625,129.17106433955078,60.9020830625C129.84881553955077,61.1535960625,130.35808753955078,61.441109062500004,130.69662353955079,61.7765240625C131.03613553955077,62.1119370625,131.19320353955078,62.519254062499996,131.19320353955078,63.022378062499996C131.19320353955078,63.7770110625,130.86637553955077,64.3760360625,130.2127185395508,64.8072550625C129.5464745395508,65.2384740625,128.56540203955078,65.4541820625,127.25740433955079,65.4541820625C126.10676523955078,65.4541820625,125.18627973955078,65.2384740625,124.53232573955079,64.8192540625C123.86618613955078,64.3880350625,123.44228173955078,63.872913062500004,123.26062063955078,63.2379860625C123.15154643955078,63.0702770625,123.01837803955078,62.9384740625,122.89720773955078,62.8546700625C122.76403283955078,62.7588630625,122.59447363955078,62.7228630625,122.38852503955079,62.7228630625L119.84510790955078,62.7228630625C119.67554923955078,62.7228630625,119.53018134955079,62.7827680625,119.42120380955078,62.9025710625C119.31223371955078,63.022378062499996,119.26374053955078,63.154183062499996,119.26374053955078,63.3098880625C119.30013089255078,64.2682300625,119.62706350955078,65.1546710625,120.23271834955078,65.9692100625C120.85037933955078,66.7838400625,121.74667333955078,67.4306700625,122.94569373955078,67.93379006250001C124.14472243955078,68.4369140625,125.57389063955078,68.6765230625,127.24530843955078,68.6765230625C128.8319397395508,68.6765230625,130.2244265395508,68.44891506249999,131.42344853955078,67.9817900625C132.63516153955078,67.5265710625,133.55516053955077,66.8557450625,134.2214985395508,65.9812050625C134.88784053955078,65.1067680625,135.21466953955078,64.0645250625,135.21466953955078,62.8666700625C135.22637753955078,61.7645220625,134.99710753955077,60.8660820625,134.5239365395508,60.1713510625Z" fill="#444444" fill-opacity="1" style="mix-blend-mode:passthrough"/></g><g><path d="M152.13847239941407,49.209508405C152.00578939941406,49.077732004,151.83603739941407,49.005859375,151.63018739941407,49.005859375L137.33847462941407,49.005859375C137.13262232941406,49.005859375,136.97457107941406,49.077732004,136.85359490941406,49.209508405C136.73261875641407,49.341273605,136.67213439941406,49.497010085,136.67213439941406,49.700649735L136.67213439941406,51.773078875C136.67213439941406,51.976688875,136.73261875641407,52.144396075,136.86627831941405,52.276200575C136.99896278941407,52.407907975,137.15701409941406,52.467810675,137.33847462941407,52.467810675L142.51018479941405,52.467810675L142.51018479941405,67.717371375C142.51018479941405,67.897077375,142.58237699941407,68.052784375,142.70335389941405,68.18459337499999C142.82530499941407,68.316297375,142.99408249941405,68.38820237499999,143.17652509941405,68.38820237499999L145.80384349941406,68.38820237499999C146.01067069941405,68.38820237499999,146.16774649941405,68.316297375,146.28872299941406,68.18459337499999C146.40969179941408,68.052784375,146.47018339941405,67.897077375,146.47018339941405,67.717371375L146.47018339941405,52.479810275L151.61750339941406,52.479810275C151.82335439941406,52.479810275,151.99310539941405,52.419908775,152.12676539941407,52.288200875C152.24774139941405,52.156395475,152.31994139941406,51.988688475000004,152.31994139941406,51.785078775L152.31994139941406,49.712629735C152.33262639941407,49.508990945,152.25945139941408,49.341273605,152.13847239941407,49.209508405Z" fill="#444444" fill-opacity="1" style="mix-blend-mode:passthrough"/></g><g><path d="M168.88973008203124,65.35862396875C168.76777808203124,65.23881896875,168.59900808203125,65.17901196875,168.39314308203126,65.17901196875L158.99413058203126,65.17901196875L158.99413058203126,60.17169596875L167.55705008203125,60.17169596875C167.76290208203125,60.17169596875,167.91997108203125,60.11179396875,168.05363808203126,59.991987968749996C168.18729108203124,59.87218496875,168.25949008203125,59.70447796875,168.25949008203125,59.50086796875L168.25949008203125,57.76389126875C168.25949008203125,57.56018446875,168.18729108203124,57.40447806875,168.05363808203126,57.272670768750004C167.91997108203125,57.140963568749996,167.75120308203125,57.06906126875,167.55705008203125,57.06906126875L158.99413058203126,57.06906126875L158.99413058203126,52.22945306875L168.17460708203126,52.22945306875C168.38046008203125,52.22945306875,168.55022608203126,52.16955016875,168.68387908203124,52.04974536875C168.81656408203125,51.92994066875,168.87704708203125,51.76223376875,168.87704708203125,51.55862356875L168.87704708203125,49.71383326875C168.87704708203125,49.51018428875,168.81656408203125,49.35445811875,168.68387908203124,49.22269197875C168.55022608203126,49.09091651475,168.38046008203125,49.01904296875,168.17460708203126,49.01904296875L155.84485757203126,49.01904296875C155.63900536203124,49.01904296875,155.48192912203126,49.09091651475,155.34826958203124,49.22269197875C155.22729343503124,49.35445811875,155.16680908203125,49.51018428875,155.16680908203125,49.71383326875L155.16680908203125,67.73052596875C155.16680908203125,67.91023396874999,155.22729343503124,68.06594296875,155.36095299203126,68.19774196875C155.49363747203125,68.32945296875,155.65168133203125,68.40135596875,155.84485757203126,68.40135596875L168.40485908203124,68.40135596875C168.61071108203126,68.40135596875,168.78046308203125,68.34144996875,168.90144508203124,68.22164896875C169.03509808203125,68.10194196875,169.10729908203126,67.94613296874999,169.10729908203126,67.74252496875L169.10729908203126,65.86174396875C169.08290108203124,65.64613296875,169.01071308203126,65.47842596875,168.88973008203124,65.35862396875Z" fill="#444444" fill-opacity="1" style="mix-blend-mode:passthrough"/></g><g><path d="M188.15906982617187,67.501764375L184.10151182617187,60.445957375C185.27710882617188,60.038737375,186.18540082617187,59.379810375,186.83907182617187,58.457468975C187.49272982617188,57.547030475,187.82053282617187,56.420980475,187.82053282617187,55.067322275C187.82053282617187,53.126737075,187.16589482617186,51.641273775,185.87028082617186,50.587127675C184.57468282617188,49.532941695,182.78149982617188,49.005859375,180.49272532617186,49.005859375L173.24980282617187,49.005859375C173.04395055617186,49.005859375,172.88686689617188,49.077732004,172.7532147761719,49.209508405C172.63223117917187,49.341273605,172.57174682617188,49.497010085,172.57174682617188,49.700649735L172.57174682617188,67.717371375C172.57174682617188,67.897077375,172.64394695317188,68.052784375,172.77759908617188,68.18459337499999C172.91126608617188,68.316297375,173.0683348761719,68.38820237499999,173.24980282617187,68.38820237499999L175.82931232617187,68.38820237499999C176.03516432617187,68.38820237499999,176.19321612617188,68.316297375,176.32590032617188,68.18459337499999C176.45955272617186,68.052784375,176.53175262617188,67.897077375,176.53175262617188,67.717371375L176.53175262617188,61.080884375L180.35905842617188,61.080884375L183.94442882617187,67.633466375C184.07809582617188,67.849079375,184.22346282617187,68.040786375,184.39223182617187,68.172592375C184.56199982617187,68.304300375,184.7922368261719,68.38820237499999,185.0946728261719,68.38820237499999L187.67516582617188,68.38820237499999C187.82053282617187,68.38820237499999,187.95321782617188,68.328298375,188.08686882617187,68.220493375C188.20785482617188,68.112688375,188.2683368261719,67.968883375,188.2683368261719,67.801178375C188.24393982617187,67.717371375,188.21955382617188,67.609567375,188.15906982617187,67.501764375ZM182.92686882617187,57.187614475000004C182.36979582617187,57.678834875,181.52198792617187,57.918347374999996,180.40784312617188,57.918347374999996L176.52003712617187,57.918347374999996L176.52003712617187,52.120493675L180.40784312617188,52.120493675C181.52198792617187,52.120493675,182.35809512617186,52.372005675,182.92686882617187,52.875127275C183.48394082617187,53.378249675,183.76297582617187,54.108980675,183.76297582617187,55.043419875C183.7746758261719,55.989760875,183.49662382617188,56.708492774999996,182.92686882617187,57.187614475000004Z" fill="#444444" fill-opacity="1" style="mix-blend-mode:passthrough"/></g><g><path d="M207.01656994140626,67.501764375L202.95901394140625,60.445957375C204.13364294140626,60.038737375,205.04291594140625,59.379810375,205.69657494140625,58.457468975C206.35022994140624,57.547030475,206.66535294140624,56.420980475,206.66535294140624,55.067322275C206.66535294140624,53.126737075,206.02339494140625,51.641273775,204.72779794140624,50.587127675C203.43120294140624,49.532941695,201.63901594140626,49.005859375,199.33754444140624,49.005859375L192.09560346140626,49.005859375C191.88973626140626,49.005859375,191.73169991140625,49.077732004,191.59901541140624,49.209508405C191.47706418840625,49.341273605,191.41656494140625,49.497010085,191.41656494140625,49.700649735L191.41656494140625,67.717371375C191.41656494140625,67.897077375,191.48974759140626,68.052784375,191.62243210140625,68.18459337499999C191.74438330140626,68.316297375,191.91315299140626,68.38820237499999,192.09560346140626,68.38820237499999L194.67511344140624,68.38820237499999C194.88096474140625,68.38820237499999,195.03803374140625,68.316297375,195.17170124140625,68.18459337499999C195.30437084140624,68.052784375,195.37755374140625,67.897077375,195.37755374140625,67.717371375L195.37755374140625,52.120493675L199.26535844140625,52.120493675C200.37950424140624,52.120493675,201.21559624140625,52.372005675,201.78438494140624,52.875127275C202.34145694140625,53.378249675,202.62047594140626,54.108980675,202.62047594140626,55.043419875C202.62047594140626,55.989760875,202.34145694140625,56.696493175,201.78438494140624,57.187614475000004C201.22729684140626,57.678834875,200.37950424140624,57.918347374999996,199.26535844140625,57.918347374999996L198.01754804140626,57.918347374999996C197.93266394140625,57.918347374999996,197.86047844140626,57.990250575,197.86047844140626,58.074150075L197.86047844140626,60.913175375C197.86047844140626,60.997079375,197.93266394140625,61.068884374999996,198.01754804140626,61.068884374999996L199.21657564140625,61.068884374999996L202.80194494140625,67.62156437499999C202.93461294140624,67.837177375,203.07998394140625,68.02878737500001,203.24974794140624,68.160589375C203.41950094140626,68.292398375,203.64973794140624,68.376197375,203.95218994140626,68.376197375L206.53169994140626,68.376197375C206.67706594140625,68.376197375,206.81071894140626,68.316297375,206.94437194140625,68.208494375C207.06535494140624,68.100689375,207.12583894140624,67.956981375,207.12583894140624,67.789272375C207.10145594140624,67.717371375,207.07705694140625,67.609567375,207.01656994140626,67.501764375Z" fill="#444444" fill-opacity="1" style="mix-blend-mode:passthrough"/></g><g><path d="M227.08484082617187,67.549667375L220.36288982617188,49.700649735C220.18142282617188,49.245440025,219.8419038261719,49.005859375,219.35801382617188,49.005859375L216.28191662617186,49.005859375C215.79702902617188,49.005859375,215.45752382617187,49.245440025,215.27605722617187,49.700649735L208.55410617917187,67.549667375L208.49362182617188,67.801178375C208.49362182617188,67.968883375,208.55410617917187,68.112688375,208.66337399617188,68.220493375C208.77264177617187,68.328298375,208.91800972617187,68.38820237499999,209.08776187617187,68.38820237499999L211.56971932617188,68.38820237499999C211.95800712617188,68.38820237499999,212.23605942617186,68.208494375,212.38142772617186,67.861078375L213.66532422617186,64.518931375L221.95020782617186,64.518931375L223.23410282617186,67.861078375C223.3784898261719,68.208494375,223.65752282617188,68.38820237499999,224.04482982617188,68.38820237499999L226.52776882617187,68.38820237499999C226.67312282617186,68.38820237499999,226.8184888261719,68.328298375,226.93947382617188,68.220493375C227.06044182617188,68.112688375,227.12190782617188,67.968883375,227.12190782617188,67.801178375L227.08484082617187,67.549667375ZM214.65850022617187,61.296493375L217.81946662617187,52.779322875L220.98044782617188,61.296493375L214.65850022617187,61.296493375Z" fill="#444444" fill-opacity="1" style="mix-blend-mode:passthrough"/></g><g><path d="M69.402344,77.6045110625L55.87981,41.6657409625C55.516785,40.7344482225,54.836201,40.2744140625,53.86059,40.2744140625L47.666539,40.2744140625C46.690929,40.2744140625,46.010247,40.7344482225,45.624589,41.6657409625L32.11344391,77.6045110625L32,78.0982700625C32,78.4348490625,32.11344391,78.7153430625,32.34033078,78.9285130625C32.56721771,79.1529010625,32.83948112,79.2650950625,33.1798149,79.2650950625L38.3755231,79.2650950625C38.488966500000004,79.2650950625,38.6024108,79.2426600625,38.7158551,79.2314340625C39.0788689,79.1753390625,39.4305472,79.0182610625,39.7595334,78.83875606250001L50.332491000000005,72.88080206250001C50.582048,72.7460750625,50.87698,72.7460750625,51.126539,72.88080206250001L61.756201000000004,78.8611910625C62.06254,79.0294840625,62.380196,79.1753390625,62.731809999999996,79.2426600625C62.936007000000004,79.2763140625,63.128885,79.2987520625,63.321766,79.2987520625C63.446540999999996,79.2987520625,63.559999000000005,79.2987520625,63.684784,79.2763140625L68.347321,79.2763140625C68.653564,79.2763140625,68.914444,79.16412006249999,69.164097,78.9397280625C69.402344,78.7265550625,69.52712600000001,78.44606806249999,69.52712600000001,78.1094820625L69.402344,77.6045110625ZM50.343807,65.6997280625L43.117464,69.7839240625C42.935904,69.8849030625,42.731709,69.7053850625,42.799808,69.5258790625L50.548002,48.6447954625C50.616098,48.4540529625,50.888292,48.4540529625,50.956394,48.6447954625L58.681855999999996,69.5258790625C58.749956,69.7166100625,58.545761,69.8849030625,58.364295999999996,69.7839240625L51.126539,65.6997280625C50.888292,65.5650940625,50.582048,65.5650940625,50.343807,65.6997280625Z" fill="#FFFFFF" fill-opacity="1" style="mix-blend-mode:passthrough"/></g><g><path d="M69.402344,77.6045110625L55.87981,41.6657409625C55.516785,40.7344482225,54.836201,40.2744140625,53.86059,40.2744140625L47.666539,40.2744140625C46.690929,40.2744140625,46.010247,40.7344482225,45.624589,41.6657409625L32.11344391,77.6045110625L32,78.0982700625C32,78.4348490625,32.11344391,78.7153430625,32.34033078,78.9285130625C32.56721771,79.1529010625,32.83948112,79.2650950625,33.1798149,79.2650950625L38.3755231,79.2650950625C38.488966500000004,79.2650950625,38.6024108,79.2426600625,38.7158551,79.2314340625C39.0788689,79.1753390625,39.4305472,79.0182610625,39.7595334,78.83875606250001L50.332491000000005,72.88080206250001C50.582048,72.7460750625,50.87698,72.7460750625,51.126539,72.88080206250001L61.756201000000004,78.8611910625C62.06254,79.0294840625,62.380196,79.1753390625,62.731809999999996,79.2426600625C62.936007000000004,79.2763140625,63.128885,79.2987520625,63.321766,79.2987520625C63.446540999999996,79.2987520625,63.559999000000005,79.2987520625,63.684784,79.2763140625L68.347321,79.2763140625C68.653564,79.2763140625,68.914444,79.16412006249999,69.164097,78.9397280625C69.402344,78.7265550625,69.52712600000001,78.44606806249999,69.52712600000001,78.1094820625L69.402344,77.6045110625ZM50.343807,65.6997280625L43.117464,69.7839240625C42.935904,69.8849030625,42.731709,69.7053850625,42.799808,69.5258790625L50.548002,48.6447954625C50.616098,48.4540529625,50.888292,48.4540529625,50.956394,48.6447954625L58.681855999999996,69.5258790625C58.749956,69.7166100625,58.545761,69.8849030625,58.364295999999996,69.7839240625L51.126539,65.6997280625C50.888292,65.5650940625,50.582048,65.5650940625,50.343807,65.6997280625Z" fill="url(#master_svg2_284_2812)" fill-opacity="1" style="mix-blend-mode:passthrough"/></g></g></g></svg>