<svg xmlns="http://www.w3.org/2000/svg" xmlns:xlink="http://www.w3.org/1999/xlink" fill="none" version="1.1" width="40" height="40" viewBox="0 0 40 40"><defs><linearGradient x1="0.5" y1="0" x2="0.5" y2="1" id="master_svg0_106_0810"><stop offset="0%" stop-color="#4B5F75" stop-opacity="1"/><stop offset="100%" stop-color="#222E3D" stop-opacity="1"/></linearGradient><clipPath id="master_svg1_239_2249"><rect x="0" y="0" width="40" height="40" rx="20"/></clipPath><clipPath id="master_svg2_239_2350"><rect x="8" y="8" width="24" height="24" rx="0"/></clipPath></defs><g clip-path="url(#master_svg1_239_2249)"><rect x="0" y="0" width="40" height="40" rx="20" fill="url(#master_svg0_106_0810)" fill-opacity="1"/><g clip-path="url(#master_svg2_239_2350)"><g><path d="M22.055471,12.884081824999999Q21.25,13.689487725,21.25,14.828622825L21.25,17.689542725L19.4696693,19.469874425L19.4697752,19.469980225Q19.3643074,19.575449024999998,19.307229,19.713249225Q19.2501497,19.851049425,19.2501497,20.000204125Q19.250148799999998,20.074057625000002,19.2645578,20.146492025Q19.278965,20.218927425,19.3072281,20.287158925Q19.3354912,20.355390525,19.376522100000003,20.416797625Q19.4175529,20.478204724999998,19.4697752,20.530427924999998Q19.521997499999998,20.582650225000002,19.5834045,20.623681025Q19.6448116,20.664711025000003,19.7130442,20.692974125Q19.7812767,20.721237625,19.853711099999998,20.735645625Q19.926145599999998,20.750053625,20,20.750054625Q20.1491547,20.750053625,20.286954899999998,20.692975025000003Q20.4247561,20.635895724999997,20.5302248,20.530427924999998L20.5303307,20.530533825L22.31066,18.750204125L25.171599999999998,18.750204125Q26.310605000000002,18.750204125,27.11611,17.944763625L29.744329,15.316553625000001Q30.138597,14.922260325,30.010447,14.379630825Q29.882294,13.836986525,29.35326,13.660733425L27.092926,12.907268325L26.33941,10.646767497Q26.163013,10.117843095,25.620516000000002,9.989756885Q25.077892,9.861640695,24.68365,10.255912845L22.055471,12.884081824999999ZM22.75,17.250203625L25.171599999999998,17.250203625Q25.689320000000002,17.250203625,26.055491,16.884061325L28.111588,14.827974325L26.262822999999997,14.211702825Q26.179980999999998,14.184088225,26.105699,14.138179025Q26.031416,14.092269625,25.969667,14.030521825000001Q25.907922,13.968774825,25.862012999999997,13.894492625Q25.816105,13.820210424999999,25.788489,13.737367425L25.172235999999998,11.888645325L23.116129,13.944744125Q22.75,14.310843925,22.75,14.828622825L22.75,17.250203625ZM14.1663699,14.166564025Q16.5827389,11.750192625,20,11.750192625L20,11.750042725Q20.0738535,11.750042725,20.1462879,11.735634425Q20.2187233,11.721226225,20.286954899999998,11.692963655Q20.355186500000002,11.664700985,20.416594500000002,11.623670105Q20.4780006,11.582639095,20.5302238,11.530416665Q20.5824451,11.478194115,20.623476,11.416786905Q20.6645069,11.355379705,20.69277,11.287147765Q20.7210331,11.218915765,20.7354412,11.146481095Q20.7498493,11.074046435,20.7498503,11.000192645Q20.7498493,10.926338855,20.7354412,10.853904155Q20.7210331,10.781469457,20.69277,10.71323747188Q20.6645069,10.645005472,20.623476,10.583598305Q20.5824451,10.522191135,20.5302238,10.469968615Q20.4780006,10.417746125,20.416594500000002,10.376715155Q20.355186500000002,10.335684185,20.286954899999998,10.307421565Q20.2187233,10.279158945,20.1462879,10.264750775Q20.0738535,10.250342634999999,20,10.250342605L20,10.250192645Q15.9614182,10.250192645,13.1057096,13.105904125Q10.25,15.961616525,10.25,20.000204125Q10.25,24.038808625,13.1057107,26.894510625Q15.9614124,29.750202625,20,29.750202625Q24.038611,29.750202625,26.894305,26.894510625Q29.75,24.038817625,29.75,20.000206025L29.749849,20.000206025Q29.749847,19.926351525,29.735439,19.853916124999998Q29.721031,19.781480825,29.692768,19.713249225Q29.664505,19.645015725,29.623474,19.583608625Q29.582443,19.522201525,29.530222,19.469979325Q29.477999,19.417757025,29.416592,19.376726124999998Q29.355185,19.335695225000002,29.286953,19.307432125Q29.218721,19.279170025,29.146286,19.264761925000002Q29.073853,19.250353824999998,29,19.250353824999998Q28.926147,19.250353824999998,28.85371,19.264761925000002Q28.781277,19.279170025,28.713043,19.307432125Q28.644812,19.335695225000002,28.583405,19.376726124999998Q28.521999,19.417757025,28.469776,19.469979325Q28.417553,19.522201525,28.376522,19.583608625Q28.335491,19.645015725,28.307228,19.713247324999998Q28.278965,19.781479824999998,28.264557,19.853914225Q28.250149,19.926349625,28.250151,20.000204125L28.25,20.000206025Q28.25,23.417495625,25.833646,25.833848625Q23.417292,28.250202625,20,28.250202625Q16.5827322,28.250202625,14.1663692,25.833847625Q11.75,23.417487625,11.75,20.000204125Q11.75,16.582936325,14.1663699,14.166564025ZM18.7246919,15.944107525Q18.7814379,15.926285225,18.8346639,15.899739725Q18.8878899,15.873194224999999,18.936265,15.838589625000001Q18.9846406,15.803984625,19.0269556,15.762186525Q19.0692711,15.720388425,19.1044674,15.672441525Q19.1396637,15.624495525,19.1668625,15.571599925000001Q19.1940594,15.518704425,19.2125788,15.462182525Q19.231098199999998,15.405660625,19.2404747,15.346926225Q19.249851200000002,15.288191825,19.2498503,15.228713025000001Q19.2498493,15.154859524999999,19.2354412,15.082424125Q19.2210331,15.009989725,19.19277,14.941757225Q19.1645069,14.873525125,19.123476,14.812118025Q19.0824451,14.750710925,19.0302238,14.698488725Q18.9780006,14.646266025,18.9165936,14.605235125Q18.855186500000002,14.564204225000001,18.7869544,14.535941625Q18.7187223,14.507679025,18.6462879,14.493271125Q18.5738535,14.478863024999999,18.5,14.478863024999999Q18.3850121,14.478863024999999,18.2753081,14.513319025L18.2752633,14.513175925Q16.503427000000002,15.069676925,15.3880739,16.565259025Q14.25,18.091307625,14.25,19.999803525Q14.25,22.381516625,15.9341364,24.065658624999998Q17.6182771,25.749804625,20,25.749804625Q21.908579,25.749804625,23.434652,24.611680624999998Q24.930275,23.496267625,25.486745,21.724315625L25.486601999999998,21.724270625000003Q25.521050000000002,21.614578625,25.521050000000002,21.499603625Q25.521048999999998,21.425748625,25.506641000000002,21.353314625Q25.492233,21.280879625,25.46397,21.212647625000002Q25.435707,21.144414625,25.394676,21.083007625Q25.353645999999998,21.021600624999998,25.301424,20.969378624999997Q25.249201,20.917155625,25.187794,20.876124625Q25.126387,20.835093625,25.058155,20.806831625Q24.989922999999997,20.778569625,24.917489,20.764160625000002Q24.845055000000002,20.749752625,24.7712,20.749752625Q24.711721,20.749753625,24.652987,20.759131625000002Q24.594251,20.768508625000003,24.537726,20.787027625Q24.481205,20.805548625,24.428308,20.832748625Q24.375410000000002,20.859947625,24.327462,20.895144625Q24.279516,20.930343625,24.237717,20.972659625Q24.195919,21.014978624999998,24.161314,21.063354625000002Q24.126711,21.111732625000002,24.100165,21.164960625Q24.073621,21.218189625,24.055799,21.274935624999998L24.055655,21.274890624999998Q23.121403,24.249804625,20,24.249804625Q18.239600199999998,24.249804625,16.9947987,23.004999625Q15.75,21.760196625,15.75,19.999803525Q15.75,16.878559625,18.7247367,15.944250125L18.7246919,15.944107525Z" fill-rule="evenodd" fill="#FFFFFF" fill-opacity="1"/></g></g></g></svg>