<svg xmlns="http://www.w3.org/2000/svg" xmlns:xlink="http://www.w3.org/1999/xlink" fill="none" version="1.1" width="260" height="120" viewBox="0 0 260 120"><defs><clipPath id="master_svg0_284_4295"><rect x="0" y="0" width="260" height="120" rx="0"/></clipPath><clipPath id="master_svg1_304_2436"><rect x="102" y="32" width="56" height="56" rx="0"/></clipPath></defs><g clip-path="url(#master_svg0_284_4295)"><g clip-path="url(#master_svg1_304_2436)"><g><path d="M132.038399,72.364799C119.404799,72.364799,111.7439995,63.6064,111.4527998,49.0464L117.8592,49.0464C118.060801,59.731199000000004,122.9216,64.2784,126.662399,65.196796L126.662399,49.0464L132.799999,49.0464L132.799999,58.2752C136.406399,57.872,140.169598,53.683199,141.424,49.0464L147.44959599999999,49.0464C146.486397,54.736000000000004,142.387199,58.947201,139.497601,60.671999C142.387199,62.060799,147.068802,65.734398,148.860798,72.364799L142.2304,72.364799C140.841599,67.9296,137.391998,64.502399,132.799999,64.031998L132.799999,72.364799L132.038399,72.364799ZM128.857599,88L131.187199,88C143.843201,88,150.18239599999998,88,154.102398,84.079998C158,80.137596,158,73.798401,158,61.187199L158,58.812799C158,46.179199,158,39.8624001,154.102398,35.9199998C150.18239599999998,32,143.843201,32,131.187199,32L128.857599,32C116.201599,32,109.8624001,32,105.9199998,35.9199998C101.977602918,39.8399997,102.0000028279533,46.201599,102.0000028279533,58.812799L102.0000028279533,61.187199C102.0000028279533,73.820801,102.0000029907264,80.137596,105.9199998,84.079998C109.83999969999999,88.022396,116.201599,88,128.857599,88Z" fill="#2777FF" fill-opacity="1" style="mix-blend-mode:passthrough"/></g></g></g></svg>