<svg xmlns="http://www.w3.org/2000/svg" xmlns:xlink="http://www.w3.org/1999/xlink" fill="none" version="1.1" width="8" height="14" viewBox="0 0 8 14"><g><path d="M7.7071066,1.70710689Q7.8477592,1.56645459,7.9238796,1.38268352Q8,1.1989124,8,1Q7.9999995,0.9015086,7.9807844,0.80490969Q7.9615698,0.7083107799999999,7.9238787,0.6173166Q7.8861876,0.5263224200000001,7.8314691,0.44442987Q7.7767506,0.36253726,7.7071066,0.29289329Q7.6374626,0.22324938000000005,7.5555696,0.16853052000000002Q7.4736767,0.11381160999999995,7.3826828,0.07612056Q7.2916884,0.038429500000000005,7.1950898,0.019214810000000027Q7.0984907,5.999999996841865e-8,7,0Q6.8010874,5.999999996841865e-8,6.6173162,0.07612050000000004Q6.4335451,0.15224093000000005,6.2928934,0.29289310999999996L6.2925181,0.29326832L0.29289323,6.2928934Q0.15224099000000002,6.4335451,0.07612050000000004,6.6173162Q1.200000000478596e-7,6.8010874,5.999999996841865e-8,6.9999995Q1.200000000478596e-7,7.1989117,0.07612056,7.3826828Q0.15224099000000002,7.5664544,0.29289323,7.7071066L6.2919235,13.706136L6.2928934,13.707106Q6.4335451,13.847757,6.6173162,13.923878Q6.8010874,14,7,14Q7.0984907,14,7.1950893,13.980783Q7.2916884,13.961569,7.3826828,13.923878Q7.4736767,13.886187,7.5555696,13.831468Q7.6374621,13.77675,7.7071061,13.707106Q7.7767501,13.637462,7.8314686,13.555569Q7.8861876,13.473677,7.9238787,13.382683Q7.9615698,13.291689,7.9807849,13.19509Q7.9999995,13.098492,8,13Q8,12.801088,7.9238796,12.617317Q7.8477592,12.433546,7.7071066,12.292893L2.4142133,7L7.7067318,1.70748168L7.7071066,1.70710677L7.7071066,1.70710689Z" fill-rule="evenodd" fill="#0077FD" fill-opacity="1"/></g></svg>