<svg xmlns="http://www.w3.org/2000/svg" xmlns:xlink="http://www.w3.org/1999/xlink" fill="none" version="1.1" width="44" height="44" viewBox="0 0 44 44"><defs><linearGradient x1="0.5" y1="0" x2="0.5" y2="1" id="master_svg0_106_0810"><stop offset="0%" stop-color="#4B5F75" stop-opacity="1"/><stop offset="100%" stop-color="#222E3D" stop-opacity="1"/></linearGradient><clipPath id="master_svg1_161_1676"><rect x="0" y="0" width="44" height="44" rx="22"/></clipPath><clipPath id="master_svg2_161_1677"><rect x="10" y="10" width="24" height="24" rx="0"/></clipPath></defs><g clip-path="url(#master_svg1_161_1676)"><rect x="0" y="0" width="44" height="44" rx="22" fill="url(#master_svg0_106_0810)" fill-opacity="1"/><g clip-path="url(#master_svg2_161_1677)"><g><path d="M30.750019,26.800010999999998L30.750019,23.0000095L30.749868,23.0000095Q30.749866,22.926155100000003,30.735458,22.8537207Q30.72105,22.7812862,30.692787,22.7130537Q30.664524,22.644821200000003,30.623493,22.5834141Q30.582462,22.522007000000002,30.530241,22.469784699999998Q30.47802,22.417562500000003,30.416611,22.376530600000002Q30.355206,22.3354998,30.286972,22.3072376Q30.21874,22.2789745,30.146307,22.2645664Q30.073872,22.2501593,30.000019,22.2501593Q29.926164999999997,22.2501593,29.853729,22.2645674Q29.781294000000003,22.2789745,29.713062,22.3072376Q29.644831,22.3354998,29.583424,22.3765316Q29.522016999999998,22.417562500000003,29.469794,22.469784699999998Q29.417571000000002,22.522007000000002,29.376539,22.5834141Q29.335508,22.644821200000003,29.307246,22.7130527Q29.278984,22.7812853,29.264575999999998,22.8537207Q29.250168000000002,22.926155100000003,29.250169,23.0000095L29.250019,23.0000095L29.250019,26.800010999999998Q29.250019,28.300133000000002,29.11378,28.567488Q28.929409,28.929399,28.567574999999998,29.113729Q28.300141,29.25001,26.800019,29.25001L17.2000003,29.25001Q15.6999104,29.25001,15.4325317,29.113764Q15.070651699999999,28.929425000000002,14.8862412,28.56751Q14.75,28.300139,14.75,26.800010999999998L14.75,17.1999998Q14.75,15.6999025,14.88624203,15.4325187Q15.0706258,15.0706263,15.4324994,14.88625175Q15.6999029,14.75,17.2000003,14.75L21.00002,14.75L21.00002,14.74985003Q21.0738735,14.74985003,21.1463079,14.7354418Q21.2187424,14.72103369,21.2869744,14.69277108Q21.3552065,14.66450846,21.416613599999998,14.62347746Q21.4780211,14.58244652,21.530243900000002,14.53022403Q21.5824661,14.47800151,21.623497,14.41659433Q21.6645279,14.35518718,21.692791,14.28695518Q21.7210536,14.21872318,21.735461700000002,14.14628848Q21.7498703,14.073853783,21.7498703,14Q21.7498703,13.926146217,21.7354622,13.85371152Q21.7210536,13.78127682,21.692791,13.71304482Q21.6645279,13.64481282,21.623497,13.58340567Q21.5824661,13.52199849,21.5302434,13.46977597Q21.478020700000002,13.41755348,21.416613599999998,13.37652254Q21.3552065,13.33549154,21.2869744,13.30722892Q21.2187424,13.27896631,21.1463079,13.2645582Q21.0738735,13.25014997,21.00002,13.25014997L21.00002,13.25L17.2000003,13.25Q15.339777699999999,13.25,14.75154072,13.5497281Q13.955373585,13.955375195,13.54973876,14.75152034Q13.25,15.339777,13.25,17.1999998L13.25,26.800010999999998Q13.25,28.660279,13.5497396,29.248511Q13.955456018,30.04475,14.75150836,30.450254Q15.3397698,30.75001,17.2000003,30.75001L26.800019,30.75001Q28.660297999999997,30.75001,29.248466,30.450289Q30.044678,30.04467,30.45026,29.248533000000002Q30.750019,28.660288,30.750019,26.800010999999998Z" fill-rule="evenodd" fill="#FFFFFF" fill-opacity="1"/></g><g><path d="M19,25.751536923706055L21.58582,25.751536923706055Q22.3109541,25.751536923706055,22.8232484,25.238968923706054L30.866168000000002,17.196101223706055Q31.67157,16.390646723706055,31.67157,15.251572323706055Q31.67157,14.112499023706054,30.866103000000003,13.306980043706055L30.694567,13.135474223706055Q29.889144,12.329999983706054,28.75002,12.329999983706054Q27.610896099999998,12.329999923706055,26.8054929,13.135454676706054L18.76246175,21.178405723706057Q18.25,21.691058123706057,18.25,22.415837323706057L18.25,25.001536923706055Q18.25,25.075404923706053,18.26441109,25.147853923706055Q18.27882212,25.220302923706054,18.3070904,25.288548923706053Q18.33535868,25.356793923706057,18.37639785,25.418212923706054Q18.41743702,25.479632923706056,18.46966994,25.531865923706057Q18.52190292,25.584098923706055,18.58332238,25.625137923706056Q18.64474183,25.666177923706055,18.71298748,25.694446923706053Q18.78123312,25.722714923706057,18.85368228,25.737124923706055Q18.926131457,25.751536923706055,19,25.751536923706055ZM21.7625916,24.178305923706056Q21.6893988,24.251536923706055,21.5858195,24.251536923706055L19.75,24.251536923706055L19.75,22.415837323706057Q19.75,22.312213923706054,19.82331926,22.238867723706054L27.866146999999998,14.196120223706055Q28.2322445,13.829999923706055,28.75002,13.829999923706055Q29.267796,13.829999923706055,29.633873,14.196100723706055L29.805537,14.367734423706054Q30.171571,14.733791023706054,30.171571,15.251572323706055Q30.171571,15.769353423706054,29.805472,16.135474723706054L21.7625916,24.178305923706056Z" fill-rule="evenodd" fill="#FFFFFF" fill-opacity="1"/></g></g></g></svg>