<svg xmlns="http://www.w3.org/2000/svg" xmlns:xlink="http://www.w3.org/1999/xlink" fill="none" version="1.1" width="48" height="48" viewBox="0 0 48 48"><defs><linearGradient x1="0.5" y1="0" x2="0.5" y2="1" id="master_svg0_106_0810"><stop offset="0%" stop-color="#4B5F75" stop-opacity="1"/><stop offset="100%" stop-color="#222E3D" stop-opacity="1"/></linearGradient><clipPath id="master_svg1_177_4493"><rect x="0" y="0" width="48" height="48" rx="24"/></clipPath><clipPath id="master_svg2_177_4494"><rect x="12" y="12" width="24" height="24" rx="0"/></clipPath></defs><g clip-path="url(#master_svg1_177_4493)"><rect x="0" y="0" width="48" height="48" rx="24" fill="url(#master_svg0_106_0810)" fill-opacity="1"/><g clip-path="url(#master_svg2_177_4494)"><g><path d="M17.244626,29.94694471Q17.380708900000002,29.80697566,17.454144499999998,29.62609673Q17.527579799999998,29.44521774,17.52758,29.25Q17.527579799999998,29.151528291,17.508369000000002,29.0549487Q17.4891582,28.95836911,17.4514744,28.86739314Q17.4137909,28.77641714,17.3590829,28.69454092Q17.3043752,28.6126647,17.2347453,28.54303467Q17.1651154,28.47340465,17.0832388,28.41869676Q17.0013628,28.36398882,16.9103866,28.32630533Q16.8194108,28.28862178,16.7228312,28.26941091Q16.6262517,28.25020003,16.5277801,28.25019997Q16.3252478,28.25019997,16.1386819,28.32902074Q15.952116499999999,28.40784156,15.8109341,28.55305529L15.8107908,28.55291587L13.03301066,31.4100153L13.03315407,31.4101548Q12.89707088,31.5501237,12.82363546,31.7310028Q12.75020003,31.9118817,12.75019997,32.1070995Q12.75020003,32.2055712,12.76941091,32.3021507Q12.78862178,32.39873,12.82630527,32.489706Q12.86398876,32.5806818,12.9186967,32.6625581Q12.973404649999999,32.7444344,13.04303467,32.8140645Q13.1126647,32.8836944,13.19454092,32.9384024Q13.27641714,32.9931104,13.36739314,33.0307941Q13.45836911,33.0684776,13.5549487,33.0876884Q13.651528291,33.1068993,13.75,33.1068995Q13.95253256,33.1068995,14.13909814,33.0280788Q14.32566369,32.9492581,14.46684593,32.8040442L14.46698934,32.8041837L17.2447693,29.94708413L17.244626,29.94694471ZM19.4668536,32.2326367Q19.6029329,32.0926681,19.676366299999998,31.9117913Q19.7497997,31.7309146,19.7498002,31.5356998Q19.7497997,31.437228,19.7305889,31.3406484Q19.7113781,31.2440686,19.6736941,31.1530927Q19.6360111,31.0621167,19.5813026,30.9802406Q19.5265951,30.8983643,19.4569654,30.828734400000002Q19.387334799999998,30.7591043,19.3054585,30.7043965Q19.2235823,30.6496885,19.1326065,30.612005Q19.0416307,30.5743215,18.9450512,30.5551107Q18.8484716,30.5358999,18.75,30.5358999Q18.5474644,30.5358999,18.3608966,30.6147227Q18.174328799999998,30.6935458,18.0331464,30.8387631L18.0330029,30.8386238L16.366333,32.5529239L16.3664765,32.5530634Q16.2303967,32.6930318,16.1569636,32.8739085Q16.0835302,33.0547853,16.0835302,33.25Q16.0835299,33.348471599999996,16.102741,33.4450512Q16.1219516,33.5416307,16.1596351,33.6326065Q16.1973186,33.723582300000004,16.2520266,33.8054585Q16.3067346,33.8873348,16.3763647,33.956965Q16.4459949,34.0265946,16.5278709,34.0813026Q16.6097469,34.1360102,16.7007229,34.1736941Q16.7916989,34.2113781,16.8882787,34.2305889Q16.9848583,34.2497997,17.0833302,34.2498002Q17.2858658,34.2498002,17.4724336,34.1709771Q17.6590018,34.0921545,17.8001842,33.9469366L17.8003273,33.9470758L19.4669971,32.2327759L19.4668536,32.2326367Z" fill-rule="evenodd" fill="#FFFFFF" fill-opacity="1"/></g><g><path d="M29.4445441,18.55545576Q28.6390884,17.75,27.4999999,17.75Q26.36091113,17.75000012,25.55545555,18.55545591Q24.75,19.36091161,24.75000024,20.4999998Q24.75000012,21.6390886,25.5554556,22.4445441Q26.36091119,23.2499995,27.4999999,23.2499995Q28.6390879,23.2499995,29.4445436,22.4445443Q30.2499995,21.6390889,30.2499995,20.4999999Q30.2499995,19.36091131,29.4445441,18.55545576ZM26.9696692,19.9696692Q27.1893383,19.7500001,27.4999999,19.7500001Q27.8106611,19.75,28.0303304,19.9696693Q28.25,20.1893389,28.25,20.4999999Q28.25,20.8106611,28.0303304,21.0303304Q27.8106611,21.25,27.4999999,21.25Q27.1893386,21.25,26.9696692,21.0303304Q26.7500001,20.8106613,26.7500002,20.5000001Q26.75,20.1893386,26.9696692,19.9696692Z" fill-rule="evenodd" fill="#FFFFFF" fill-opacity="1"/></g><g><path d="M20.0235929,27.976406662139894Q21.5818529,29.53466666213989,22.772525299999998,33.069238662139895Q22.8345327,33.25331166213989,22.9609394,33.40078766213989Q23.0250359,33.475567662139895,23.102489900000002,33.53640566213989Q23.179944,33.59724466213989,23.267779400000002,33.64180466213989Q23.3556147,33.6863636621399,23.4504557,33.71293266213989Q23.5452957,33.739498662139894,23.643497500000002,33.74705366213989Q23.7416992,33.754608662139894,23.839486100000002,33.74285966213989Q23.9372749,33.73110966213989,24.0308914,33.70051066213989Q24.124508900000002,33.66991066213989,24.2103577,33.62163366213989Q24.2962055,33.573356662139894,24.3709869,33.50926266213989L27.160318,31.118433662139893Q28.207900000000002,30.220440662139893,28.207900000000002,28.840700662139895L28.207900000000002,27.374244662139894Q34.824312,23.701686362139892,34.184259,14.741915185939893Q34.177883,14.652643964139893,34.155754,14.565923932139892Q34.133624999999995,14.479203912139893,34.096451,14.397791502139892Q34.059273000000005,14.316379072139892,34.008232,14.242862042139892Q33.957188,14.169345022139893,33.893904,14.106060092139893Q33.830619999999996,14.042775152139892,33.757103,13.991733912139892Q33.683586,13.940692602139892,33.602173,13.903517362139892Q33.520759999999996,13.866342182139892,33.434039999999996,13.844214682139892Q33.347321,13.822087112139892,33.258049,13.815710602139893Q24.2982206,13.175726262139893,20.6257868,19.792119962139893L19.1593399,19.792119962139893Q17.779526699999998,19.792119962139893,16.8815769,20.839734562139892L14.49074697,23.62900586213989Q14.36434186,23.776476362139892,14.30233198,23.960544062139892Q14.2388277,24.149046462139893,14.252294299999999,24.34750226213989Q14.26576084,24.545958062139892,14.35414803,24.72415306213989Q14.44252253,24.902322662139895,14.59234536,25.033119662139892Q14.74216819,25.163915662139893,14.93063667,25.227432662139893L14.93074301,25.227469662139892Q18.466087299999998,26.418954662139893,20.0235929,27.976406662139894ZM24.1626177,31.053718662139893L25.858682,29.599967662139893Q26.207900000000002,29.30061566213989,26.207900000000002,28.840700662139895L26.207900000000002,26.771099662139893Q26.207900000000002,26.63181666213989,26.245961,26.49783566213989Q26.284021,26.363853662139892,26.357246,26.24537366213989Q26.430471,26.126890662139893,26.533285,26.032928662139895Q26.636099,25.938967662139895,26.760677,25.876676662139893Q29.755657,24.379148962139894,31.008904,22.16753726213989Q32.372387,19.761391662139893,32.236092,15.763886062139893Q28.238588,15.627620102139893,25.832468,16.991088162139892Q23.6208448,18.244341162139893,22.1233702,21.239328862139892Q22.0610814,21.363909762139894,21.9671192,21.466726762139892Q21.8731565,21.569543362139893,21.754674,21.642769362139894Q21.6361918,21.715996262139893,21.5022087,21.754058362139894Q21.3682256,21.792119962139893,21.2289405,21.792119962139893L19.1593399,21.792119962139893Q18.699400699999998,21.792119962139893,18.4000833,22.141325462139893L16.9461966,23.837507762139893Q19.8920174,25.016456662139895,21.437806600000002,26.562194662139895Q22.9841542,28.108541662139892,24.1626177,31.053718662139893Z" fill-rule="evenodd" fill="#FFFFFF" fill-opacity="1"/></g></g></g></svg>