<svg xmlns="http://www.w3.org/2000/svg" xmlns:xlink="http://www.w3.org/1999/xlink" fill="none" version="1.1" width="48" height="48" viewBox="0 0 48 48"><defs><linearGradient x1="0.5" y1="0" x2="0.5" y2="1" id="master_svg0_106_0810"><stop offset="0%" stop-color="#4B5F75" stop-opacity="1"/><stop offset="100%" stop-color="#222E3D" stop-opacity="1"/></linearGradient><clipPath id="master_svg1_177_4463"><rect x="0" y="0" width="48" height="48" rx="24"/></clipPath><clipPath id="master_svg2_177_4464"><rect x="12" y="12" width="24" height="24" rx="0"/></clipPath></defs><g clip-path="url(#master_svg1_177_4463)"><rect x="0" y="0" width="48" height="48" rx="24" fill="url(#master_svg0_106_0810)" fill-opacity="1"/><g clip-path="url(#master_svg2_177_4464)"><g><path d="M23.00500109265137,15.99479382Q21.760205292651367,14.75,19.999800692651366,14.75Q18.23938939265137,14.75000006,16.994594592651367,15.9947947Q15.749800492651367,17.2395891,15.749800492651367,19.0000014Q15.749800492651367,20.7604122,16.994595092651366,22.0052066Q18.239388992651367,23.25,19.99979879265137,23.25Q21.760203392651366,23.25,23.005000092651365,22.0052066Q24.24980009265137,20.760409799999998,24.24980009265137,19Q24.24980009265137,17.23959,23.00500109265137,15.99479382ZM31.651461092651367,16.8483526Q30.553114092651366,15.75,28.99980009265137,15.75Q27.446488092651368,15.75,26.348142092651365,16.8483524Q25.24980009265137,17.9466996,25.24980009265137,19.5Q25.24980009265137,21.0533004,26.348142092651365,22.1516476Q27.446488092651368,23.25,28.99980009265137,23.25Q30.553114092651366,23.25,31.651461092651367,22.1516476Q32.74980009265137,21.0533013,32.74980009265137,19.5Q32.74980009265137,17.9466987,31.651461092651367,16.8483526ZM17.749800492651367,19.0000014Q17.749800492651367,16.7500004,19.999800692651366,16.7500004Q21.124799692651365,16.7500002,21.687299692651365,17.3124998Q22.249799692651365,17.8749995,22.249799692651365,19Q22.249799692651365,21.25,19.99979879265137,21.25Q17.749800492651367,21.25,17.749800492651367,19.0000014ZM27.762360092651367,18.2625625Q28.27491809265137,17.7500005,28.99980009265137,17.7500005Q29.87480009265137,17.7500002,30.312300092651366,18.1875Q30.749800092651366,18.625,30.749800092651366,19.5Q30.749800092651366,21.25,28.99980009265137,21.25Q27.24980009265137,21.25,27.24980009265137,19.5Q27.24980009265137,18.7751243,27.762360092651367,18.2625625ZM13.701360222651367,32.2733Q14.564813972651367,33.25,15.901370092651367,33.25L24.098200092651368,33.25Q25.434755092651365,33.25,26.298222092651365,32.273309999999995Q27.222222092651368,31.228149000000002,26.889093092651365,29.885275999999998Q25.367443092651367,23.75,19.999799692651365,23.75Q14.632158752651367,23.75,13.110461952651367,29.885291000000002Q12.777424092651367,31.228186,13.701360222651367,32.2733ZM28.999902092651368,23.75Q28.220259092651368,23.75,27.503198092651367,23.925165200000002L27.50324509265137,23.925358799999998Q27.422251092651365,23.9451447,27.345652092651367,23.978071200000002Q27.269052092651368,24.0109997,27.198965092651367,24.056159Q27.12887809265137,24.101320299999998,27.067240092651367,24.157465000000002Q27.005601092651368,24.2136097,26.95411309265137,24.2791882Q26.902626092651367,24.3447676,26.862711092651367,24.4179688Q26.822797092651367,24.4911709,26.79555809265137,24.569972999999997Q26.768320092651365,24.6487751,26.754510092651365,24.730999Q26.740701092651367,24.8132238,26.740701092651367,24.8965998Q26.740700092651366,24.9950714,26.759910092651367,25.09165Q26.779121092651366,25.1882296,26.816805092651368,25.2792053Q26.854488092651366,25.370182,26.909197092651368,25.4520578Q26.96390409265137,25.533933599999997,27.03353509265137,25.603564300000002Q27.103165092651366,25.6731949,27.185040092651366,25.727902399999998Q27.266916092651368,25.78261,27.357893092651366,25.820293Q27.448868092651367,25.857976999999998,27.54544809265137,25.877188Q27.642028092651366,25.896399000000002,27.740500092651367,25.896399000000002Q27.86084709265137,25.896399000000002,27.97775609265137,25.867841L27.97780409265137,25.868036Q28.460999092651367,25.75,28.999902092651368,25.75Q32.130976092651366,25.75,33.17185209265136,29.404432Q33.257643092651364,29.705589,33.042807092651366,29.951067000000002Q32.78118309265137,30.25,32.345899092651365,30.25L29.749902092651368,30.25L29.749902092651368,30.2502Q29.65142909265137,30.2502,29.554850092651368,30.26941Q29.458269092651367,30.288622,29.367293092651366,30.326303Q29.276316092651367,30.363987,29.19444009265137,30.418695Q29.11256409265137,30.473402999999998,29.042934092651365,30.543034Q28.973304092651368,30.612662999999998,28.918596092651367,30.694539Q28.863888092651365,30.776415,28.826204092651366,30.867392000000002Q28.788521092651365,30.958368,28.769311092651368,31.054949Q28.750100092651365,31.151527,28.750101092651366,31.25Q28.750100092651365,31.348471,28.769311092651368,31.445050000000002Q28.78852209265137,31.541629999999998,28.826205092651367,31.632606Q28.863888092651365,31.723581,28.918596092651367,31.805458Q28.973305092651366,31.887335,29.04293509265137,31.956964Q29.11256409265137,32.026594,29.194441092651367,32.081303Q29.276316092651367,32.136009,29.36729209265137,32.173693Q29.458269092651367,32.211376,29.554849092651367,32.230587Q29.651428092651365,32.249798,29.749901092651367,32.2498L29.749902092651368,32.25L32.345899092651365,32.25Q33.68859309265137,32.25,34.54782109265137,31.268233000000002Q35.47920009265137,30.204023,35.095350092651366,28.856569999999998Q33.64086509265137,23.75,28.999902092651368,23.75ZM24.098200092651368,31.25L15.901370092651367,31.25Q15.466202292651367,31.25,15.199772092651367,30.948627000000002Q14.971404432651367,30.690308,15.051656992651367,30.366709Q16.19670919265137,25.75,19.999799692651365,25.75Q23.80288119265137,25.75,24.947906092651365,30.366723999999998Q25.028181092651366,30.690319000000002,24.79982709265137,30.948618Q24.533382092651365,31.25,24.098200092651368,31.25Z" fill-rule="evenodd" fill="#FFFFFF" fill-opacity="1"/></g></g></g></svg>