<svg xmlns="http://www.w3.org/2000/svg" xmlns:xlink="http://www.w3.org/1999/xlink" fill="none" version="1.1" width="48" height="48" viewBox="0 0 48 48"><defs><linearGradient x1="0.5" y1="0" x2="0.5" y2="1" id="master_svg0_106_0810"><stop offset="0%" stop-color="#4B5F75" stop-opacity="1"/><stop offset="100%" stop-color="#222E3D" stop-opacity="1"/></linearGradient><clipPath id="master_svg1_177_4458"><rect x="0" y="0" width="48" height="48" rx="24"/></clipPath><clipPath id="master_svg2_177_4459"><rect x="12" y="12" width="24" height="24" rx="0"/></clipPath></defs><g clip-path="url(#master_svg1_177_4458)"><rect x="0" y="0" width="48" height="48" rx="24" fill="url(#master_svg0_106_0810)" fill-opacity="1"/><g clip-path="url(#master_svg2_177_4459)"><g><path d="M26.430412,27.165703L24.638906499999997,28.957207Q24.4982538,29.097858000000002,24.314483600000003,29.173977999999998Q24.1307125,29.250098,23.9317999,29.250099L22.25,29.250099L22.25,30.9319Q22.25,31.130812,22.1738811,31.314583Q22.0977612,31.498352,21.9571104,31.639004L20.9317417,32.664383Q20.3458991,33.250099,19.5176001,33.250099L16.75,33.250099Q14.75,33.250099,14.75,31.250099L14.75,28.482501Q14.75,27.654197,15.33578569,27.068192L20.8343105,21.5697026Q20.750001,21.0414419,20.750001,20.5Q20.75,17.7040625,22.727045099999998,15.72702658Q24.7040815,13.75,27.5,13.75Q30.295920000000002,13.75000024,32.272957000000005,15.7270264Q34.25,17.7040613,34.25,20.5000029Q34.25,23.2959156,32.272957000000005,25.272958Q30.295914,27.25,27.5,27.25Q26.958714999999998,27.25,26.430412,27.165703ZM27.5,25.25Q26.910645000000002,25.25,26.344877,25.108843Q26.219275,25.077505000000002,26.089831,25.079183999999998Q25.960388000000002,25.080864,25.835639999999998,25.115448Q25.710891699999998,25.150033,25.599061,25.215244Q25.4872322,25.280455,25.3956938,25.371992L23.5175853,27.250099L21.25,27.250099Q21.1515083,27.250099,21.0549097,27.269314Q20.9583101,27.288528,20.8673162,27.326219000000002Q20.7763219,27.36391,20.6944294,27.418629Q20.6125364,27.473348,20.5428929,27.542991999999998Q20.473249,27.612634999999997,20.4185305,27.694528Q20.3638115,27.776421,20.3261204,27.867414Q20.2884293,27.958408,20.269214599999998,28.055008Q20.25,28.151608,20.25,28.250099L20.25,30.517689L19.5176792,31.250017L19.5176001,31.250099L16.75,31.250099L16.75,28.482501L16.74999446,28.482409L22.6280546,22.6043892Q22.7196054,22.5128393,22.7848215,22.4009924Q22.8500381,22.2891455,22.884619700000002,22.1643777Q22.9192009,22.039609900000002,22.9208674,21.9101486Q22.922533,21.7806878,22.8911743,21.6550713Q22.75,21.0895629,22.750001,20.5Q22.75,18.5324917,24.1412554,17.1412435Q25.532505,15.75,27.5,15.75Q29.467497,15.7500002,30.858746,17.1412435Q32.25,18.5324912,32.25,20.5000029Q32.25,22.467488799999998,30.858745,23.858743699999998Q29.467487,25.25,27.5,25.25Z" fill-rule="evenodd" fill="#FFFFFF" fill-opacity="1"/></g><g><path d="M29.4445441,18.55545576Q28.6390884,17.75,27.4999999,17.75Q26.36091113,17.75000012,25.55545555,18.55545591Q24.75,19.36091161,24.75000024,20.4999998Q24.75000012,21.6390886,25.5554556,22.4445441Q26.36091119,23.2499995,27.4999999,23.2499995Q28.6390879,23.2499995,29.4445436,22.4445443Q30.2499995,21.6390889,30.2499995,20.4999999Q30.2499995,19.36091131,29.4445441,18.55545576ZM26.9696692,19.9696692Q27.1893383,19.7500001,27.4999999,19.7500001Q27.8106611,19.75,28.0303304,19.9696693Q28.25,20.1893389,28.25,20.4999999Q28.25,20.8106611,28.0303304,21.0303304Q27.8106611,21.25,27.4999999,21.25Q27.1893386,21.25,26.9696692,21.0303304Q26.7500001,20.8106613,26.7500002,20.5000001Q26.75,20.1893386,26.9696692,19.9696692Z" fill-rule="evenodd" fill="#FFFFFF" fill-opacity="1"/></g></g></g></svg>