<svg xmlns="http://www.w3.org/2000/svg" xmlns:xlink="http://www.w3.org/1999/xlink" fill="none" version="1.1" width="48" height="48" viewBox="0 0 48 48"><defs><linearGradient x1="0.5" y1="0" x2="0.5" y2="1" id="master_svg0_106_0810"><stop offset="0%" stop-color="#4B5F75" stop-opacity="1"/><stop offset="100%" stop-color="#222E3D" stop-opacity="1"/></linearGradient><clipPath id="master_svg1_177_4474"><rect x="0" y="0" width="48" height="48" rx="24"/></clipPath><clipPath id="master_svg2_177_4475"><rect x="12" y="12" width="24" height="24" rx="0"/></clipPath></defs><g clip-path="url(#master_svg1_177_4474)"><rect x="0" y="0" width="48" height="48" rx="24" fill="url(#master_svg0_106_0810)" fill-opacity="1"/><g clip-path="url(#master_svg2_177_4475)"><g><path d="M31.088488,24.0039177Q24.735838899999997,23.4395819,23.9936209,16.88744126Q23.9841499,16.80383018,23.9608402,16.72297755Q23.937529599999998,16.64212492,23.9010353,16.56630456Q23.864542,16.49048418,23.8158913,16.42182833Q23.7672405,16.35317254,23.707799899999998,16.29361206Q23.6483612,16.23405159,23.5798035,16.18526149Q23.5112476,16.13647127,23.4355011,16.09982371Q23.359754600000002,16.06317604,23.2789497,16.03970146Q23.198144900000003,16.01622689,23.1145535,16.00658572Q22.9169512,15.9837948,22.7256689,16.03835785Q22.5343866,16.09292096,22.3785448,16.21653128Q22.222703,16.34014171,22.1260276,16.51398084Q22.0293527,16.68781996,22.0065622,16.88542236Q21.2701602,23.2701945,14.88542411,24.0065804Q14.80183226,24.016222,14.72102696,24.0396967Q14.64022166,24.0631714,14.56447539,24.0998192Q14.48872912,24.1364665,14.4201721,24.1852565Q14.35161507,24.234046499999998,14.29217541,24.2936068Q14.23273563,24.353167499999998,14.18408483,24.421823500000002Q14.13543397,24.4904799,14.09894025,24.5663004Q14.06244653,24.6421208,14.03913629,24.7229733Q14.01582599,24.8038263,14.00635481,24.887437300000002Q13.9952688,24.9853029,14.00348866,25.083450300000003Q14.01170832,25.181598700000002,14.03891778,25.2762566Q14.06612718,25.370914499999998,14.1112808,25.4584465Q14.1564343,25.5459776,14.2177968,25.6230183Q14.27915931,25.700058,14.35437256,25.7636471Q14.42958581,25.8272362,14.51575947,25.8749294Q14.60193309,25.922622699999998,14.69575548,25.952589Q14.78957786,25.982554399999998,14.88744348,25.993640900000003Q21.4395595,26.7358494,22.0038986,33.088488Q22.0116377,33.175606,22.034383300000002,33.260059Q22.057128900000002,33.344513,22.0941896,33.423737Q22.1312509,33.502958,22.1815023,33.574545Q22.2317533,33.64613,22.293668699999998,33.707907Q22.3555846,33.769682,22.427283799999998,33.819771Q22.4989834,33.86986,22.578288999999998,33.90674Q22.6575956,33.943623,22.7420998,33.966179Q22.8266048,33.988731,22.9137416,33.996275Q23.0118656,34.004768,23.1097622,33.993956Q23.2076578,33.983143,23.301563299999998,33.953438Q23.3954678,33.923733,23.481774299999998,33.876282Q23.568080899999998,33.828827000000004,23.6434717,33.76545Q23.7188616,33.70207,23.7804394,33.6252Q23.8420162,33.548332,23.887414,33.460926Q23.932811700000002,33.373522,23.9602852,33.27894Q23.9877586,33.184360999999996,23.9962521,33.086235Q24.5610485,26.5610666,31.086235,25.996270199999998Q31.17337,25.9887276,31.257874,25.9661732Q31.342379,25.9436188,31.421684,25.9067364Q31.500992,25.8698549,31.572691,25.819766Q31.64439,25.7696762,31.706306,25.707901Q31.768221,25.6461258,31.818472,25.5745392Q31.868723,25.5029535,31.905785,25.423730900000002Q31.942846,25.3445082,31.965591,25.2600546Q31.988338,25.175601999999998,31.996078,25.088481899999998Q32.004795,24.9903765,31.994202,24.8924565Q31.983612,24.7945356,31.954119,24.7005634Q31.924627,24.606590699999998,31.877369,24.5201778Q31.830111,24.4337645,31.766903,24.3582315Q31.703693,24.2826977,31.626965,24.2209473Q31.550236,24.1591964,31.462933,24.113601199999998Q31.375629,24.0680065,31.281111,24.0403194Q31.186592,24.0126324,31.088488,24.0039177ZM22.983596300000002,20.9012129Q21.6868186,23.6868329,18.9012117,24.9836135Q21.6992283,26.238353699999998,22.9806461,28.925863Q24.2189732,26.2189884,26.925854,24.9806609Q24.2383394,23.6992416,22.983596300000002,20.9012129Z" fill-rule="evenodd" fill="#FFFFFF" fill-opacity="1"/></g><g><path d="M30.7898006,14.2588402C30.7730999,14.11151016,30.6485996,14.0001502037,30.5002995,14.00000011920929C30.3519993,13.99984014034,30.2271996,14.11096013,30.2103004,14.25825012C30.0998001,15.216020199999999,29.8134003,15.8895003,29.3514996,16.35146C28.889499700000002,16.8134298,28.2159996,17.0997901,27.25819969,17.2102499C27.11100006,17.2272401,26.99979972839,17.3520303,27,17.5002999C27.00020027161,17.6485701,27.11149979,17.7731299,27.25880051,17.789810199999998C28.2007999,17.8965101,28.8885994,18.1827502,29.3614998,18.64713C29.8327007,19.1097698,30.125,19.7831001,30.2094994,20.7341399C30.2229004,20.8847604,30.3491001,21.0001702,30.5002995,21.0000005C30.6515007,20.9998298,30.7775002,20.88413,30.7905998,20.733490500000002C30.8716011,19.798090000000002,31.1636009,19.110590000000002,31.6371002,18.6371002C32.1105995,18.16361,32.7980995,17.8715501,33.7334995,17.7905803C33.884100000000004,17.7775402,33.9997997,17.6515403,34,17.500329999999998C34.0002003,17.3491201,33.8848,17.2228599,33.7341003,17.2094798C32.7831001,17.125,32.1098003,16.8326602,31.6471004,16.3615103C31.1827011,15.8885702,30.8964996,15.2007803,30.7898006,14.2588402Z" fill="#FFFFFF" fill-opacity="1"/></g></g></g></svg>