<svg xmlns="http://www.w3.org/2000/svg" xmlns:xlink="http://www.w3.org/1999/xlink" fill="none" version="1.1" width="260" height="120" viewBox="0 0 260 120"><defs><clipPath id="master_svg0_284_4264"><rect x="0" y="0" width="260" height="120" rx="0"/></clipPath><clipPath id="master_svg1_284_4265"><rect x="34" y="38" width="192.64865112304688" height="44" rx="0"/></clipPath></defs><g clip-path="url(#master_svg0_284_4264)"><g clip-path="url(#master_svg1_284_4265)"><g><path d="M74.36605305859375,54.5L68.82562255859375,55.4670487L70.35801055859375,59.214303L74.36605305859375,54.5Z" fill="#22A474" fill-opacity="1" style="mix-blend-mode:passthrough"/></g><g><path d="M58.84057281875,54.296172999999996L62.51516771875,56.042259L56.11423681875,60.931135L58.84057281875,54.296172999999996ZM56.46992401875,61.280279L59.55182741875,58.952321999999995L64.29312371875,64.190344L56.46992401875,61.280279ZM74.72409671875,39.3968215L58.48500541875,54.063448L58.84057281875,46.2645073L74.72409671875,39.3968215ZM74.36852871875,39.0476139L71.64219271875,38L69.74567371875,41.1428363L74.36852871875,39.0476139ZM63.70043271875,49.989404L76.73917971875,44.6348901L62.87073371875,55.809416L59.19614031875,54.063448L63.70043271875,49.989404ZM63.93755771875,65.470743L55.99579361875,67.91524100000001L59.78883121875,80.37009L63.93755771875,65.470743ZM59.19614031875,80.37009L52.20263671875,81.999763L57.53674651875,74.782928L59.19614031875,80.37009Z" fill="#22A474" fill-opacity="1" style="mix-blend-mode:passthrough"/></g><g><path d="M71.60947602734375,72.015293375L67.62271882734375,75.996696375L70.67144302734376,77.167692375L71.60947602734375,72.015293375ZM72.07849202734374,72.015293375L71.14046002734375,77.167692375L75.94811502734375,77.167692375L72.07849202734374,72.015293375ZM67.15358452734375,52.927734375L60.11810302734375,58.431540975L64.57399462734375,63.466922374999996L71.25771302734375,62.412946675L67.15358452734375,52.927734375ZM65.04301022734376,64.286632375L61.29064352734375,77.284828375L67.15358452734375,75.528274375L71.25771302734375,71.781023375L65.04301022734376,64.286632375Z" fill="#22A474" fill-opacity="1" style="mix-blend-mode:passthrough"/></g><g><path d="M47.62549,72.44062675L34,75.02057175L54.860279,78.06965275L57.151373,75.25519775000001L47.62549,72.44062675ZM64.868496,64.70078805L58.718841999999995,62.35546875L56.548452,67.28073405L64.868496,64.70078805ZM55.824949000000004,67.86712265L48.469577,71.97160915L58.116040999999996,74.78606375L55.824949000000004,67.86712265Z" fill="#22A474" fill-opacity="1" style="mix-blend-mode:passthrough"/></g><g><path d="M65.65966796875,63.88702645L75.15772436875,62.35546875L71.38145256875,65.96572805L71.72465416874999,70.99825855L65.65966796875,63.88702645Z" fill="#0C0A17" fill-opacity="1" style="mix-blend-mode:passthrough"/></g><g><path d="M88.32421875,61.5554875C88.32421875,55.2219844,92.60434965,50.471887,99.17735675,50.471887C103.61029475,50.471887,106.97320375,52.6309795,107.12613075,57.093293700000004L103.45748375,57.093293700000004C102.99893375,54.6461797,101.77597175,53.2067842,99.02454374999999,53.2067842C94.59160475,53.2067842,92.14579705,56.9492817,92.14579705,61.4115965C92.14579705,64.8661895,93.82719465,67.0254005,97.49584195,67.0254005C98.74532375,67.0407405,99.96174575,66.6473575,100.93747475,65.9123215C101.91320275,65.1772825,102.58770975,64.1461365,102.84600375,62.9948835L106.51465075,62.9948835C106.13577475,64.9595425,105.01282075,66.7279875,103.35426275,67.9722345C101.69570075,69.2163635,99.61414375,69.8516275,97.49584195,69.7603015C91.84005735,69.7603015,88.32421875,66.7374975,88.32421875,61.5554875ZM111.86480875000001,49.3203125L115.22772175,49.3203125L111.86480875000001,69.4723935L108.50190574999999,69.4723935L111.86480875000001,49.3203125ZM118.43782275,55.7977901L121.80072375,55.7977901L119.50784875,69.6162895L116.14482675,69.6162895L118.43782275,55.7977901ZM118.74355475,51.623379C118.75140575,51.12939,118.96331775,50.657758,119.33423275,50.30849284C119.70525375,49.95910859,120.20614575,49.75957522,120.73069774999999,49.75214228C120.99398074999999,49.74413899,121.25619474999999,49.7870692,121.50105275,49.87828022C121.74602475,49.969454999999996,121.96851774999999,50.10704386,122.15474275,50.28244936C122.34097274999999,50.4578549,122.48712574999999,50.6672708,122.58392675,50.8979739C122.68084675,51.1285577,122.72639475,51.3755519,122.71782675,51.623379C122.70997975,52.1173685,122.49806575,52.5890007,122.12715575,52.9383848C121.75613375,53.2876484,121.25524175000001,53.487196,120.73069774999999,53.4946876C120.46740675000001,53.5026546,120.20519075,53.4597249,119.96033475,53.3685145C119.71536275,53.2773039,119.49286875,53.1398325,119.30664275000001,52.9644284C119.12041275,52.7890229,118.97426075,52.5794866,118.87746075,52.3489041C118.78054775,52.118201,118.73500075,51.8713248,118.74355475,51.623379ZM123.63505175,63.4267955C123.63505175,58.3887959,127.15088675,55.3658767,131.43089675,55.3658767C134.94673875,55.3658767,137.54535275,56.9492817,137.69816175,60.547886500000004L134.48818175,60.547886500000004C134.33525875,58.5326872,133.11241175,57.9568825,131.27809175,57.9568825C128.67946975,57.9568825,126.99795875000001,60.116091499999996,126.99795875000001,63.4267955C126.99795875000001,65.87379250000001,128.22092075,67.3131845,130.81953475,67.3131845C131.69858575,67.3369695,132.55646475,67.0573885,133.23204375,66.52725050000001C133.90762375,65.9971085,134.35440475000001,65.2527945,134.48818175,64.4343945L137.54535275,64.4343945C137.36412074999998,65.9652385,136.56474275,67.3718105,135.31277075,68.3631215C134.06090575000002,69.3545475,132.45217474999998,69.8547195,130.81953475,69.7603015C126.38659675,69.7603015,123.63505175,67.3131845,123.63505175,63.4267955ZM142.74257675,49.3203125L146.10549175,49.3203125L144.11836275000002,61.5554875L150.23280675,55.653779L154.05474875,55.653779L147.17552175,61.9872825L152.06713475,69.4723935L148.24555974999998,69.4723935L143.81261875,62.4191965L142.58977475,69.4723935L139.22685975000002,69.4723935L142.74257675,49.3203125Z" fill="#22A474" fill-opacity="1" style="mix-blend-mode:passthrough"/></g><g><path d="M166.51485825390625,64.838014375L158.87551165390624,64.838014375L156.58394125390626,69.479303375L153.06988525390625,69.479303375L162.84858795390625,50.478675575L167.73734525390626,50.478675575L171.25140025390624,69.479303375L167.43172625390625,69.479303375L166.51485825390625,64.838014375ZM160.09799715390625,62.227151375L166.05701725390625,62.227151375L164.52891425390624,53.379583375L160.09799715390625,62.227151375ZM173.23734425390626,63.677603375000004C173.23734425390626,58.891236275,176.14015725390624,55.410123375,180.72448725390626,55.410123375C181.69962125390626,55.338772775,182.67356525390625,55.550091775,183.52026725390624,56.016253975C184.36578025390625,56.482534375,185.04242525390626,57.181540975,185.45983125390626,58.020986575L186.98794125390626,49.318359375L190.34977325390625,49.318359375L187.59917825390625,65.273137375C187.29237025390626,66.654977375,187.19010125390625,68.07059137499999,187.29357125390624,69.479303375L183.93291425390626,69.479303375L183.93291425390626,67.158598375C183.42869725390625,67.961063375,182.71161625390624,68.624275375,181.85421225390624,69.08223137499999C180.99680525390625,69.540308375,180.02761425390625,69.777193375,179.04297025390625,69.769464375C175.68231725390626,69.769464375,173.23734425390626,67.593843375,173.23734425390626,63.677603375000004ZM184.84977725390624,61.501982375C184.90209925390624,61.038199375,184.84859125390625,60.569301375,184.69518425390623,60.126329375C184.54178025390624,59.683474375,184.28966725390626,59.276773475,183.95669725390624,58.933572775C183.62491225390625,58.590373075,183.21820625390626,58.318522475,182.76631725390627,58.136102675000004C182.31442825390624,57.953680075,181.82685825390624,57.864967375,181.33572925390627,57.875906975C178.58513025390624,57.875906975,176.90480425390626,60.196608375,176.90480425390626,63.532524375C176.90480425390626,65.853225375,178.12610225390625,67.303678375,180.26545525390625,67.303678375C182.71042825390626,67.303678375,184.84977725390624,65.273137375,184.84977725390624,61.501982375Z" fill="#0C0A17" fill-opacity="1" style="mix-blend-mode:passthrough"/></g><g><path d="M193.57856055234376,55.8005252L196.87619445234375,55.8005252L194.62862755234374,69.6250875L191.33099365234375,69.6250875L193.57856055234376,55.8005252ZM193.87823485234375,51.6244493C193.88656355234374,51.1302226,194.09467555234374,50.6583523,194.45736935234376,50.30884898C194.82126115234374,49.95934677,195.31240745234376,49.75976461,195.82732485234374,49.75233284C196.08537335234374,49.74432951,196.34224225234374,49.78727105,196.58245325234375,49.87851727C196.82268285234375,49.96981108,197.04030325234376,50.10740113,197.22342825234375,50.28280658C197.40537405234375,50.45833,197.54926825234375,50.6678661,197.64440635234374,50.8986872C197.73954295234375,51.12939,197.78354595234376,51.3763845,197.77521805234375,51.6244493C197.77521805234375,52.1209364,197.57068015234375,52.5970869,197.20441155234374,52.9481359C196.83932255234376,53.2993042,196.34343955234374,53.4964705,195.82732485234374,53.4964705C195.31003065234376,53.4964705,194.81532745234375,53.2993042,194.44905875234375,52.9481359C194.08396955234375,52.5970869,193.87823485234375,52.1209364,193.87823485234375,51.6244493ZM202.12170265234374,49.3203125L205.41931865234375,49.3203125L202.12170265234374,69.4810755L198.82408665234374,69.4810755L202.12170265234374,49.3203125ZM209.46612965234374,49.3203125L212.76376165234376,49.3203125L209.46612965234374,69.4810755L206.16851465234376,69.4810755L209.46612965234374,49.3203125ZM213.21326465234375,65.8809265C213.21326465234375,62.4247845,216.35987265234374,61.2728165,220.40668265234376,61.2728165L222.95510265234375,61.2728165L223.10494965234375,60.5527625C223.40462465234376,58.8247519,222.80527465234374,57.8166761,220.85618965234374,57.8166761C220.52203365234374,57.7785025,220.18311165234374,57.8040714,219.85845165234375,57.8920717C219.53380965234373,57.9800701,219.23055865234375,58.128602,218.96655865234374,58.329217C218.70256065234375,58.5298338,218.48138465234376,58.778612100000004,218.31727365234374,59.0614004C218.15316565234374,59.3440715,218.04851865234374,59.6551615,218.00926965234376,59.9767205L214.86148465234376,59.9767205C215.14927265234374,58.6051092,215.94722365234375,57.3809576,217.10549365234374,56.5329466C218.26376165234376,55.6849365,219.70387065234374,55.2709799,221.15586065234376,55.3686118C224.90299565234375,55.3686118,227.15175965234374,56.9526119,226.55240965234375,60.8407845L225.80321865234376,65.3050025C225.49759265234374,66.67637450000001,225.39651865234376,68.0824715,225.50234265234374,69.4810755L222.35575465234376,69.4810755C222.20592865234374,68.8167975,222.20592865234374,68.1293255,222.35575465234376,67.4650445C221.91338365234375,68.1892605,221.27716465234374,68.7855185,220.51132965234376,69.1910325C219.74667565234375,69.5965465,218.88212965234374,69.7962095,218.00926965234376,69.7690965C215.01132965234376,69.7690965,213.21326465234375,68.3291095,213.21326465234375,65.8809265ZM222.50560365234375,64.5849455L222.65542965234374,63.2888495L220.55651065234375,63.2888495C217.85942465234376,63.2888495,216.50970065234375,63.8648935,216.50970065234375,65.59302149999999C216.51207765234375,65.8635635,216.57391965234376,66.1306555,216.69164665234376,66.37657949999999C216.80937565234376,66.6223835,216.98061565234374,66.8411945,217.19230265234376,67.0183845C217.40516865234375,67.1955735,217.65488865234374,67.3270965,217.92601765234375,67.4041575C218.19597265234376,67.4812185,218.47900565234374,67.5019075,218.75846465234375,67.4650445C219.64798165234376,67.5357995,220.53154365234374,67.2767965,221.22840465234376,66.7411845C221.92526965234376,66.2056925,222.38192165234375,65.4340285,222.50560365234375,64.5849455Z" fill="#22A474" fill-opacity="1" style="mix-blend-mode:passthrough"/></g></g></g></svg>