<svg xmlns="http://www.w3.org/2000/svg" xmlns:xlink="http://www.w3.org/1999/xlink" fill="none" version="1.1" width="94" height="36" viewBox="0 0 94 36"><g><g><g transform="matrix(0.7071067094802856,-0.7071067094802856,0.7071067094802856,0.7071067094802856,-4.1091336094541475,3.6792820115806535)"><rect x="2.38671875" y="6.7998046875" width="6.239999294281006" height="37.91999435424805" rx="3.119999647140503" fill="#71B5FF" fill-opacity="1"/></g><g transform="matrix(0.7071067690849304,0.7071067690849304,-0.7071067690849304,0.7071067690849304,10.240204532456119,-19.94860199809773)"><rect x="29.2001953125" y="2.38671875" width="6.239999294281006" height="37.91999816894531" rx="3.119999647140503" fill="#BEDDFF" fill-opacity="1"/></g><g><path d="M9.8399963,22.08C12.093322,22.08,13.919998,23.906677,13.919998,26.159998L13.919998,31.92C13.919998,34.173321,15.746678,36.000004,18.000004,36.000004C20.253323,36.000004,22.080002,34.173321,22.080002,31.92L22.080002,26.159998C22.080002,23.906677,23.906679,22.08,26.16,22.08L31.919998,22.08C34.173325,22.08,36.000008,20.253321,36.000008,18.000002C36.000008,15.746677,34.173325,13.919998,31.919998,13.919998L26.16,13.919998C23.906679,13.919998,22.080002,12.093322,22.080002,9.8399973L22.080002,4.0800004C22.080002,1.8266782,20.253323,0,18.000004,0C15.746678,0,13.919998,1.8266782,13.919998,4.0800004L13.919998,9.8399973C13.919998,12.093322,12.093322,13.919998,9.8399963,13.919998L4.0800009,13.919998C1.826678,13.919998,0,15.746677,0,18.000002C0,20.253321,1.826678,22.08,4.0800009,22.08L9.8399963,22.08Z" fill-rule="evenodd" fill="#FFFFFF" fill-opacity="1"/></g><g><path d="M12.7025609875,17.40335935L12.7026415175,17.40324008Q13.8571476875,18.18257791,15.1821331875,18.59442472Q16.5512852875,19.02,17.9998049875,19.02Q19.4483232875,19.02,20.8174743875,18.59442478Q22.1424598875,18.18257789,23.296968687499998,17.40323967L23.297048687500002,17.4033587Q23.479578687500002,17.28014398,23.6998046875,17.28014398Q23.7707046875,17.28014398,23.8402406875,17.29397583Q23.9097786875,17.30780768,23.9752806875,17.33493984Q24.0407826875,17.36207193,24.0997336875,17.40146166Q24.1586846875,17.44085133,24.2088186875,17.49098492Q24.2589516875,17.54111856,24.2983416875,17.60006943Q24.3377316875,17.65902036,24.364863687499998,17.72452307Q24.3919966875,17.79002577,24.405828687499998,17.85956307Q24.4196606875,17.929100372,24.4196606875,18Q24.4196606875,18.088353992,24.3982926875,18.17408544Q24.3769266875,18.25981688,24.3354606875,18.33783638Q24.2939946875,18.41585588,24.2348926875,18.48153183Q24.175790687499997,18.54720777,24.102559687499998,18.5966413L24.1026396875,18.59676033Q22.7723766875,19.4947395,21.2448997875,19.9695275Q19.6669625875,20.46,17.9998049875,20.46Q16.3326463875,20.46,14.7547082875,19.9695275Q13.2272284075,19.4947389,11.8969678575,18.59675992L11.8970483875,18.59664065Q11.8238177875,18.547207,11.7647155475,18.48153114Q11.7056132575,18.41585523,11.6641478575,18.33783588Q11.6226825675,18.25981647,11.6013156175,18.17408516Q11.5799487275,18.088353842,11.5799486675,18Q11.5799486675,17.929100372,11.5937805175,17.85956307Q11.6076123675,17.79002577,11.6347445275,17.72452307Q11.6618766175,17.65902036,11.7012663475,17.60006946Q11.7406560175,17.54111856,11.7907896075,17.49098492Q11.8409232475,17.44085133,11.8998741175,17.4014616Q11.9588250475,17.36207193,12.0243277575,17.33493984Q12.0898304575,17.30780768,12.1593677575,17.29397583Q12.2289050595,17.28014398,12.2998046875,17.28014398Q12.5200304975,17.28014398,12.7025609875,17.40335935Z" fill-rule="evenodd" fill="#0077FD" fill-opacity="1"/></g></g><g><g><path d="M48.98148635,16.923706312500002Q47.34084635,16.923706312500002,46.15356585,16.2341863125Q44.96628615,15.5444260125,44.32884616,14.2880258125Q43.69140625,13.0313854125,43.69140625,11.3357854125Q43.69140625,10.064025412500001,44.05236626,9.0440261125Q44.4133262,8.0240252125,45.10140605,7.2944260125Q45.78948615,6.5648257125,46.76796605,6.1793859925Q47.74644565,5.7939453125,48.96900605,5.7939453125Q50.21628575,5.7939453125,51.23604585,6.2055453325Q52.25604535,6.6171453625,52.930445649999996,7.4559460125Q53.60484605,8.2945058125,53.798286250000004,9.5693860125L51.30684615,9.5693860125Q51.20244595,9.0685055125,50.90748595,8.7567456125Q50.61252595,8.4449856125,50.16708565,8.291385612500001Q49.72164585,8.1377859125,49.15044595,8.1377859125Q48.34548565,8.1377859125,47.79252625,8.4142661125Q47.23956605,8.6907461125,46.90164615,9.1592255125Q46.56372615,9.6277058125,46.41324615,10.2099457125Q46.26276615,10.791945912500001,46.26276615,11.4032254125Q46.26276615,12.2204256125,46.54212615,12.9517054125Q46.82172605,13.6827459125,47.44212605,14.1313057125Q48.06276605,14.5798654125,49.10124585,14.5798654125Q49.70340585,14.5798654125,50.20716575,14.4063454125Q50.71092605,14.2325859125,51.03660535,13.8747454125Q51.36228605,13.5169062125,51.42372605,12.9730658125L48.65892605,12.9730658125L48.65892605,10.8627457125L54.01332525,10.8627457125L54.01332525,11.363386112499999Q54.01332525,13.1081858125,53.46036625,14.3523464125Q52.90740585,15.5965052125,51.79380605,16.2601063125Q50.68020585,16.923706312500002,48.98148635,16.923706312500002ZM57.84708725,16.9174663125Q57.28188625,16.9174663125,56.77332625,16.7655463125Q56.26500625,16.613386312499998,55.87020625,16.3078663125Q55.47564625,16.0021053125,55.24356525,15.5429859125Q55.01172625,15.0836258125,55.01172625,14.4598656125Q55.01172625,13.5843458125,55.37580725,13.0714655125Q55.73988625,12.5583458125,56.36028625,12.306585312500001Q56.980926249999996,12.0545859125,57.77652525,11.9746656125Q58.57212525,11.8947458125,59.432286250000004,11.8947458125L60.20340725,11.8947458125Q60.20340725,11.5232258125,60.05436725,11.2376261125Q59.90532725,10.951786012500001,59.61660725,10.7845058125Q59.32788625,10.616985812500001,58.89156525,10.616985812500001Q58.59684625,10.616985812500001,58.32636625,10.696906112499999Q58.05612525,10.7765856125,57.874686249999996,10.9210658125Q57.69348625,11.065305712499999,57.64452625,11.2803459125L55.20228625,11.2803459125Q55.29732725,10.567785712500001,55.64292625,10.0532255125Q55.98852625,9.5386658125,56.50932625,9.2115457125Q57.03012525,8.884186012499999,57.66900625,8.724585812499999Q58.307886249999996,8.5647457125,58.98996625,8.5647457125Q60.765486249999995,8.5647457125,61.64412725,9.5631456125Q62.52276825,10.5615454125,62.52276825,12.4477057125L62.52276825,16.8008263125L60.301807249999996,16.8008263125L60.286447249999995,15.7472257125Q59.899328249999996,16.3184263125,59.40468725,16.5641863125Q58.91004625,16.8099453125,58.484525250000004,16.8637063125Q58.05924625,16.9174663125,57.84708725,16.9174663125ZM58.46148625,15.0281858125Q58.92228525,15.0281858125,59.32308725,14.8239460125Q59.724127249999995,14.6197052125,59.97588725,14.2880258125Q60.22788625,13.9561062125,60.22788625,13.5814657125L60.22788625,13.452345812499999L58.725725249999996,13.452345812499999Q58.47684625,13.452345812499999,58.24332625,13.4861855125Q58.01004625,13.5200252125,57.82572625,13.603065512499999Q57.64140625,13.685865912499999,57.532205250000004,13.8363457125Q57.42324625,13.9868259125,57.42324625,14.2325859125Q57.42324625,14.4968262125,57.562926250000004,14.6720257125Q57.70284625,14.8469858125,57.940926250000004,14.9377060125Q58.17900625,15.0281858125,58.46148625,15.0281858125ZM67.86492525,16.8008263125Q66.82044625,16.8008263125,66.09996625,16.5613063125Q65.37972625,16.3215453125,65.00340625,15.7318659125Q64.62708625,15.1419458125,64.62708625,14.0667467125L64.62708625,10.8781056125L63.46596725,10.8781056125L63.46596725,8.7061059125L64.62708625,8.7061059125L64.62708625,6.6140252324999995L67.06308725,6.6140252324999995L67.06308725,8.7061059125L68.68836825,8.7061059125L68.68836825,10.8781056125L67.06308725,10.8781056125L67.06308725,13.7072263125Q67.06308725,14.1065855125,67.20276625,14.3631458125Q67.34268725,14.6197052125,67.90788625,14.6197052125L68.60532524999999,14.6197052125L68.60532524999999,16.8008263125L67.86492525,16.8008263125ZM69.68052625,16.8008263125L69.68052625,5.9290652425L72.11652525,5.9290652425L72.11652525,9.5446658125Q72.48228625,9.1393056125,72.92292625,8.925946012499999Q73.36380625,8.7123451125,73.80300725000001,8.6324260125Q74.24244725,8.5525060125,74.57124325,8.5525060125Q75.69252424999999,8.5525060125,76.33596425,9.0687454125Q76.97964525,9.5847456125,77.24988125,10.4465856125Q77.52036625,11.3081856125,77.52036625,12.3341861125L77.52036625,16.8008263125L75.08412525,16.8008263125L75.08412525,12.5984259125Q75.08412525,12.2941055125,75.02100525,11.9732256125Q74.95812425,11.6521058125,74.80140324999999,11.3818660125Q74.64492625,11.1113858125,74.36676425,10.9424257125Q74.08884625,10.7734661125,73.64340625,10.7734661125Q73.22868725000001,10.7734661125,72.93228725,10.9364257125Q72.63588725,11.0991454125,72.45756525,11.3804259125Q72.27948725,11.661465612499999,72.19788525,12.0039458125Q72.11652525,12.3464255125,72.11652525,12.702825512499999L72.11652525,16.8008263125L69.68052625,16.8008263125ZM82.79484225,16.9174663125Q81.54156125,16.9174663125,80.62908125,16.4122653125Q79.71684225,15.9068263125,79.22220225000001,14.9823456125Q78.72756225,14.0576258125,78.72756225,12.7981057125Q78.72756225,11.535465712499999,79.23276525,10.5817056125Q79.73820525,9.6277058125,80.65668525000001,9.0901055125Q81.57540525,8.5525060125,82.81644025,8.5525060125Q83.71956225,8.5525060125,84.42156225,8.8460259125Q85.12356224999999,9.1393056125,85.61796225,9.6769059125Q86.11260225000001,10.2145057125,86.36748125,10.947225612499999Q86.62260425,11.679705612500001,86.61636325,12.5614657125Q86.61348325,12.7981057125,86.59332325,13.0162659125Q86.57340225,13.2341857125,86.52132424999999,13.4708261125L81.14220424999999,13.4708261125Q81.17892025,13.8454656125,81.36636325,14.1680260125Q81.55380224999999,14.4905863125,81.89484425,14.6797056125Q82.23588525,14.8685856125,82.75188425,14.8685856125Q83.12676225,14.8685856125,83.42316025,14.7809858125Q83.71956225,14.6933861125,83.92068524999999,14.5337858125Q84.12204324999999,14.3739462125,84.18660324999999,14.1805057125L86.57964325,14.1805057125Q86.37060124999999,15.1357059125,85.80852525,15.7455463125Q85.24644125,16.355385312499997,84.45996525000001,16.6364263125Q83.67348125000001,16.9174663125,82.79484225,16.9174663125ZM81.18516125,11.8304257125L84.30948225,11.8304257125Q84.30636225,11.5078659125,84.14340225000001,11.200665512499999Q83.98068624999999,10.8934660125,83.64108325000001,10.7000255125Q83.30172325000001,10.5063457125,82.77036325,10.5063457125Q82.23876225000001,10.5063457125,81.89004125,10.7060261125Q81.54156125,10.9057054125,81.36948425,11.2129059125Q81.19740325000001,11.520105812499999,81.18516125,11.8304257125ZM87.86676425,16.8008263125L87.86676425,8.7061059125L90.02340325,8.7061059125L90.18300225,9.5725055125Q90.49020425,9.1208260125,90.86652325,8.9026658125Q91.24284324999999,8.6845059125,91.63764225,8.6185055125Q92.03244425,8.5525060125,92.39484025,8.5525060125Q92.62524425000001,8.5525060125,92.81724525,8.5587454125Q93.00924325,8.5647457125,93.08004425,8.5769853125L93.08004425,10.9241857125L92.56692525,10.9241857125Q91.92180225,10.9241857125,91.40412524999999,11.122425512500001Q90.88644024999999,11.3204260125,90.59460425,11.782905612499999Q90.30276525,12.245145812499999,90.30276525,13.0621052125L90.30276525,16.8008263125L87.86676425,16.8008263125ZM48.45300575,30.3637063125Q47.28876595,30.3637063125,46.28868605,29.9873843125Q45.28884615,29.6110673125,44.63748622,28.8046663125Q43.98636624,27.9982663125,43.82964623,26.7356263125L46.34556605,26.7356263125Q46.47468615,27.2180253125,46.80492615,27.5098643125Q47.13516615,27.8017063125,47.61132595,27.9291443125Q48.08748625,28.0565853125,48.61884595,28.0565853125Q48.99060585,28.0565853125,49.35756585,27.9721033125Q49.72476625,27.8876263125,49.97196575,27.6725843125Q50.21940565,27.4575443125,50.21940565,27.0735473125Q50.21940565,26.7910673125,50.07948585,26.6129853125Q49.93980595,26.4346653125,49.68636565,26.3163433125Q49.43292575,26.1980243125,49.06428625,26.1121043125Q48.84012605,26.0506653125,48.59436605,26.0014653125Q48.34860615,25.9522643125,48.11340615,25.8939453125Q47.87844615,25.8356263125,47.64804605,25.7588233125Q46.96308585,25.5929853125,46.33164625,25.3702663125Q45.70044615,25.1475453125,45.21972605,24.7928253125Q44.73900615,24.4378643125,44.45772618,23.8695453125Q44.17668623,23.3012253125,44.17668623,22.4595453125Q44.17668623,21.6329853125,44.46540624,21.0586653125Q44.75436615,20.4841063125,45.23340615,20.1248253125Q45.71268605,19.7653053125,46.29012605,19.5749853125Q46.86780615,19.3844263125,47.44692615,19.3093063125Q48.02604625,19.233945312499998,48.50820635,19.233945312499998Q49.60500625,19.233945312499998,50.45748615,19.6287453125Q51.30996565,20.0233053125,51.843005149999996,20.8006663125Q52.37604615,21.577786312500002,52.47108555,22.7144243125L50.05956605,22.7144243125Q50.00748585,22.3150633125,49.75236605,22.0508253125Q49.49748615,21.7865853125,49.10412595,21.6514643125Q48.71100615,21.5163443125,48.21348615,21.5163443125Q47.90628575,21.5163443125,47.62212585,21.568664312499997Q47.33796595,21.6207463125,47.12436625,21.7330633125Q46.91076615,21.8451463125,46.78164605,22.0217843125Q46.65276625,22.1984253125,46.65276625,22.4470653125Q46.65276625,22.7235433125,46.83540605,22.9203453125Q47.01828595,23.1169053125,47.37012625,23.2568223125Q47.72196625,23.3965033125,48.22572615,23.5347443125Q48.58212565,23.6451453125,48.95844605,23.7173843125Q49.33476595,23.7896233125,49.68804595,23.8940253125Q50.320685850000004,24.0476263125,50.87052635,24.2535473125Q51.42060615,24.4592263125,51.83676625,24.7789063125Q52.25316525,25.0983443125,52.49124525,25.6129033125Q52.72932525,26.1274663125,52.72932525,26.9014643125Q52.72932525,27.8537843125,52.37292575,28.5128253125Q52.01652525,29.1718653125,51.40524625,29.5803453125Q50.79396625,29.9888253125,50.02740625,30.1762653125Q49.26084615,30.3637063125,48.45300575,30.3637063125ZM57.94236525,30.2408233125Q56.89788625,30.2408233125,56.177406250000004,30.0013043125Q55.45716625,29.7615453125,55.08084725,29.1718653125Q54.70452625,28.5819433125,54.70452625,27.5067443125L54.70452625,24.3181053125L53.54340645,24.3181053125L53.54340645,22.1461053125L54.70452625,22.1461053125L54.70452625,20.054024312499998L57.14052725,20.054024312499998L57.14052725,22.1461053125L58.76580525,22.1461053125L58.76580525,24.3181053125L57.14052725,24.3181053125L57.14052725,27.1472243125Q57.14052725,27.5465853125,57.28020625,27.8031443125Q57.42012725,28.0597053125,57.98532625,28.0597053125L58.68276725,28.0597053125L58.68276725,30.2408233125L57.94236525,30.2408233125ZM62.316847249999995,30.3574653125Q61.75164625,30.3574653125,61.24308825,30.2055433125Q60.73476625,30.0533863125,60.33996725,29.7478633125Q59.945406250000005,29.4421043125,59.71332725,28.9829843125Q59.48148625,28.5236243125,59.48148625,27.8998663125Q59.48148625,27.0243473125,59.845566250000005,26.5114653125Q60.20964825,25.9983443125,60.83004725,25.7465863125Q61.45068725,25.4945853125,62.24628825,25.4146673125Q63.04188525,25.3347433125,63.90204625,25.3347433125L64.67316625000001,25.3347433125Q64.67316625000001,24.9632223125,64.52412625,24.6776253125Q64.37508625,24.3917843125,64.08636625,24.2245063125Q63.79764725,24.0569873125,63.361326250000005,24.0569873125Q63.06660625,24.0569873125,62.79612525,24.1369053125Q62.52588825,24.2165853125,62.344446250000004,24.3610673125Q62.163248249999995,24.5053063125,62.11428625,24.7203443125L59.67204625,24.7203443125Q59.76708825,24.0077853125,60.112686249999996,23.4932233125Q60.45828625,22.9786643125,60.97908625,22.6515463125Q61.49988725,22.3241863125,62.13876525,22.1645853125Q62.77764725,22.0047433125,63.45972825,22.0047433125Q65.23524625,22.0047433125,66.11388625000001,23.0031453125Q66.99252525,24.0015473125,66.99252525,25.8877053125L66.99252525,30.2408233125L64.77156625,30.2408233125L64.75620625,29.1872253125Q64.36908525,29.7584263125,63.87444725,30.0041863125Q63.37980625,30.2499463125,62.954286249999996,30.3037073125Q62.52900525,30.3574653125,62.316847249999995,30.3574653125ZM62.93124625,28.4681833125Q63.39204625,28.4681833125,63.79284525,28.2639443125Q64.19388725,28.0597053125,64.44564625,27.7280233125Q64.69764725,27.3961053125,64.69764725,27.0214653125L64.69764725,26.8923453125L63.19548625,26.8923453125Q62.94660725,26.8923453125,62.71308725,26.9261833125Q62.47980725,26.9600253125,62.295486249999996,27.0430683125Q62.11116625,27.1258643125,62.001966249999995,27.2763483125Q61.89300725,27.4268263125,61.89300725,27.6725843125Q61.89300725,27.9368263125,62.03268625,28.1120263125Q62.17260725,28.2869873125,62.41068625,28.3777043125Q62.64876525,28.4681833125,62.93124625,28.4681833125ZM68.54388625,30.2408233125L68.54388625,22.1461053125L70.70052725,22.1461053125L70.86012625000001,23.0125063125Q71.16732625,22.5608253125,71.54364625,22.3426643125Q71.91996525,22.1245063125,72.31476825,22.0585043125Q72.70956625,21.9925063125,73.07196625,21.9925063125Q73.30236625,21.9925063125,73.49436525,21.9987473125Q73.68636725,22.0047433125,73.75716625,22.0169833125L73.75716625,24.3641873125L73.24404525,24.3641873125Q72.59892625,24.3641873125,72.08124525,24.5624233125Q71.56356625000001,24.7604273125,71.27172425,25.2229043125Q70.97988725,25.6851463125,70.97988725,26.5021033125L70.97988725,30.2408233125L68.54388625,30.2408233125Z" fill="#FFFFFF" fill-opacity="1"/></g></g></g></svg>