<svg xmlns="http://www.w3.org/2000/svg" xmlns:xlink="http://www.w3.org/1999/xlink" fill="none" version="1.1" width="44" height="44" viewBox="0 0 44 44"><defs><linearGradient x1="0.5" y1="0" x2="0.5" y2="1" id="master_svg0_106_0810"><stop offset="0%" stop-color="#4B5F75" stop-opacity="1"/><stop offset="100%" stop-color="#222E3D" stop-opacity="1"/></linearGradient><clipPath id="master_svg1_161_1688"><rect x="0" y="0" width="44" height="44" rx="22"/></clipPath><clipPath id="master_svg2_161_1689"><rect x="10" y="10" width="24" height="24" rx="0"/></clipPath></defs><g clip-path="url(#master_svg1_161_1688)"><rect x="0" y="0" width="44" height="44" rx="22" fill="url(#master_svg0_106_0810)" fill-opacity="1"/><g clip-path="url(#master_svg2_161_1689)"><g><path d="M13.25,16L13.25,28Q13.25,29.139108,14.055459023,29.944558Q14.86090952,30.75,16,30.75L28,30.75Q29.139111,30.75,29.944555,29.944555Q30.75,29.139111,30.75,28L30.75,16Q30.75,14.86090946,29.944558,14.055459082Q29.139108,13.25,28,13.25L16,13.25Q14.86091256,13.25,14.055456281,14.055456221Q13.24999994,14.86091256,13.25,16ZM16,29.25Q14.75,29.25,14.75,28L14.75,16Q14.75,14.75,16,14.75L28,14.75Q29.25,14.75,29.25,16L29.25,28Q29.25,29.25,28,29.25L16,29.25ZM16.969775900000002,18.5302243Q16.8643076,18.4247561,16.807228600000002,18.286954899999998Q16.7501497,18.149154199999998,16.75015,18Q16.7501497,17.926146,16.7645581,17.8537116Q16.778966,17.7812767,16.807228600000002,17.7130446Q16.8354912,17.6448126,16.8765221,17.5834053Q16.9175529,17.5219979,16.9697757,17.4697757Q17.0219979,17.4175529,17.083405,17.3765221Q17.144812299999998,17.3354912,17.2130444,17.307228600000002Q17.2812765,17.278966,17.3537114,17.2645581Q17.426146,17.25015,17.5,17.25015Q17.649154199999998,17.25015,17.7869549,17.307228600000002Q17.9247561,17.3643074,18.0302243,17.469775900000002L18.0303302,17.4696698L19.7803302,19.2196698Q19.8325629,19.2719026,19.8736019,19.333321599999998Q19.9146414,19.3947411,19.9429092,19.4629869Q19.9711771,19.531232799999998,19.9855886,19.603682Q19.999999,19.6761312,19.9999995,19.75Q19.999999,19.8238683,19.9855886,19.896317500000002Q19.9711771,19.9687662,19.9429092,20.0370121Q19.9146414,20.105258,19.8736019,20.1666775Q19.8325629,20.228096999999998,19.7803302,20.2803302L18.0303302,22.0303297L18.0302243,22.0302238Q17.9247561,22.1356916,17.7869554,22.192771Q17.6491547,22.2498503,17.5,22.2498503Q17.426146,22.2498493,17.3537114,22.2354412Q17.2812767,22.2210331,17.2130446,22.19277Q17.1448126,22.1645069,17.0834055,22.123476Q17.0219984,22.0824451,16.969775900000002,22.0302238Q16.9175532,21.9780006,16.8765223,21.9165936Q16.8354912,21.855186500000002,16.807228600000002,21.7869544Q16.778966,21.7187223,16.7645581,21.6462879Q16.7501497,21.5738535,16.75015,21.5Q16.7501497,21.3508453,16.8072288,21.2130446Q16.8643076,21.0752435,16.969775900000002,20.9697757L16.9696698,20.9696698L18.1893396,19.75L16.9696698,18.5303302L16.969775900000002,18.5302243ZM22,22.25L24,22.25L24,22.2498503Q24.073853,22.2498493,24.146288,22.2354412Q24.218722,22.2210331,24.286955,22.19277Q24.355186,22.1645069,24.416594,22.123476Q24.478001,22.0824451,24.530224,22.0302238Q24.582445,21.9780006,24.623476,21.9165936Q24.664507,21.855186500000002,24.69277,21.7869544Q24.721033,21.7187223,24.735441,21.6462879Q24.749848999999998,21.5738535,24.749850000000002,21.5Q24.749848999999998,21.426145599999998,24.735441,21.3537107Q24.721033,21.281275700000002,24.69277,21.2130432Q24.664507,21.1448116,24.623476,21.0834045Q24.582445,21.0219975,24.530224,20.9697752Q24.478001,20.9175529,24.416594,20.8765216Q24.355186,20.8354907,24.286955,20.8072281Q24.218722,20.778966,24.146288,20.7645578Q24.073853,20.7501497,24,20.7501497L24,20.75L22,20.75L22,20.7501497Q21.926145599999998,20.7501497,21.853711099999998,20.7645578Q21.781275700000002,20.778966,21.7130442,20.8072281Q21.6448116,20.8354907,21.5834045,20.8765216Q21.5219975,20.9175529,21.4697752,20.9697752Q21.4175525,21.0219975,21.3765216,21.083405Q21.3354907,21.1448116,21.3072281,21.2130437Q21.278966,21.281275700000002,21.2645578,21.3537107Q21.2501497,21.426145599999998,21.2501497,21.5Q21.2501497,21.5738535,21.2645578,21.6462879Q21.278966,21.7187223,21.3072281,21.7869544Q21.3354907,21.855186500000002,21.3765216,21.9165936Q21.4175525,21.9780006,21.4697752,22.0302238Q21.5219975,22.0824451,21.5834045,22.123476Q21.6448116,22.1645069,21.7130442,22.19277Q21.781275700000002,22.2210331,21.8537107,22.2354412Q21.926145599999998,22.2498493,22,22.2498503L22,22.25Z" fill-rule="evenodd" fill="#FFFFFF" fill-opacity="1"/></g></g></g></svg>