<svg xmlns="http://www.w3.org/2000/svg" xmlns:xlink="http://www.w3.org/1999/xlink" fill="none" version="1.1" width="24" height="24" viewBox="0 0 24 24"><defs><clipPath id="master_svg0_169_3575"><rect x="0" y="0" width="24" height="24" rx="0"/></clipPath></defs><g clip-path="url(#master_svg0_169_3575)"><g transform="matrix(0,-1,1,0,-9.0009765625,21.0009765625)"><path d="M12.7069654,15.7079420725Q12.8475895,15.5673179625,12.923694600000001,15.3835835725Q12.9998002,15.1998492225,12.9998002,15.0009765625Q12.9997997,14.9025048535,12.9805889,14.8059252625Q12.961378100000001,14.7093456725,12.923694099999999,14.6183697025Q12.886010599999999,14.5273937025,12.8313026,14.4455174825Q12.7765951,14.3636412625,12.7069654,14.2940112325Q12.6373348,14.224381212499999,12.5554585,14.1696733225Q12.4735823,14.1149653825,12.3826065,14.0772818925Q12.291630699999999,14.0395983425,12.1950507,14.0203874725Q12.0984716,14.0011765925,12,14.0011765325Q11.8011274,14.0011765925,11.617393,14.0772818325Q11.433658600000001,14.1533870125,11.2930346,14.2940110525L11.2928934,14.2938697925L5.29289323,20.2938699625Q5.15224099,20.4345216625,5.0761205,20.6182927625Q5.00000012,20.8020639625,5.00000006,21.0009760625Q5.00000012,21.1998882625,5.07612056,21.3836593625Q5.15224099,21.567430962499998,5.29289323,21.7080831625L11.2928934,27.7080825625L11.2930341,27.7079405625Q11.433658099999999,27.8485655625,11.617392500000001,27.924671562500002Q11.8011274,28.0007765625,12,28.0007765625Q12.0984716,28.0007765625,12.1950507,27.981565562500002Q12.291630699999999,27.9623545625,12.3826065,27.924670562499998Q12.4735823,27.8869875625,12.5554585,27.8322795625Q12.6373348,27.7775705625,12.706965,27.7079405625Q12.7765946,27.6383105625,12.8313026,27.5564345625Q12.886010200000001,27.4745575625,12.923694099999999,27.3835825625Q12.961378100000001,27.292606562499998,12.9805889,27.196026562500002Q12.9997997,27.0994475625,12.9998002,27.0009765625Q12.9998002,26.8021035625,12.9236951,26.6183695625Q12.8475895,26.4346355625,12.7069654,26.2940115625L12.7071066,26.2938695625L7.4142133,21.0009765625L12.7071066,15.7080833325L12.7069654,15.7079420725Z" fill-rule="evenodd" fill="#4B5F75" fill-opacity="1"/></g></g></svg>