<svg width="135" height="103" viewBox="0 0 135 103" fill="none" xmlns="http://www.w3.org/2000/svg">
<g id="Publishers">
<g id="Group" filter="url(#filter0_d_1255_24741)">
<path id="Vector" d="M118.736 13H16.465C14.5513 13 13 14.5513 13 16.465V75.9475C13 77.8612 14.5513 79.4125 16.465 79.4125H118.736C120.649 79.4125 122.201 77.8612 122.201 75.9475V16.465C122.201 14.5513 120.649 13 118.736 13Z" fill="white"/>
</g>
<g id="Group_2">
<path id="Vector_2" fill-rule="evenodd" clip-rule="evenodd" d="M19.9336 36.1438V34.1313H20.8786V36.1438H19.9336ZM19.9336 40.1688V38.1562H20.8786V40.1688H19.9336ZM19.9336 44.1938V42.1814H20.8786V44.1938H19.9336ZM19.9336 48.2189V46.2063H20.8786V48.2189H19.9336ZM19.9336 52.2439V50.2312H20.8786V52.2439H19.9336ZM24.7437 55.2626H22.8196V54.3175H24.7437V55.2626ZM28.5917 55.2626H26.6677V54.3175H28.5917V55.2626ZM32.4397 55.2626H30.5157V54.3175H32.4397V55.2626ZM36.2877 55.2626H34.3637V54.3175H36.2877V55.2626ZM40.1358 55.2626H38.2117V54.3175H40.1358V55.2626ZM43.9838 55.2626H42.0598V54.3175H43.9838V55.2626ZM47.8318 55.2626H45.9078V54.3175H47.8318V55.2626ZM51.6798 55.2626H49.7558V54.3175H51.6798V55.2626ZM55.5278 55.2626H53.6038V54.3175H55.5278V55.2626ZM59.3759 55.2626H57.4519V54.3175H59.3759V55.2626ZM63.2239 55.2626H61.2999V54.3175H63.2239V55.2626ZM67.0719 55.2626H65.1479V54.3175H67.0719V55.2626ZM70.92 55.2626H68.996V54.3175H70.92V55.2626ZM74.768 55.2626H72.844V54.3175H74.768V55.2626ZM78.616 55.2626H76.692V54.3175H78.616V55.2626ZM82.4641 55.2626H80.54V54.3175H82.4641V55.2626ZM86.3121 55.2626H84.3881V54.3175H86.3121V55.2626ZM90.1601 55.2626H88.2361V54.3175H90.1601V55.2626ZM94.0081 55.2626H92.0841V54.3175H94.0081V55.2626ZM97.8562 55.2626H95.9322V54.3175H97.8562V55.2626ZM101.704 55.2626H99.7802V54.3175H101.704V55.2626ZM105.552 55.2626H103.628V54.3175H105.552V55.2626ZM109.4 55.2626H107.476V54.3175H109.4V55.2626ZM113.248 55.2626H111.324V54.3175H113.248V55.2626ZM116.134 50.2312V52.2438H115.189V50.2312H116.134ZM116.134 46.2063V48.2188H115.189V46.2063H116.134ZM116.134 42.1813V44.1937H115.189V42.1813H116.134ZM116.134 38.1562V40.1688H115.189V38.1562H116.134ZM116.134 34.1313V36.1438H115.189V34.1313H116.134ZM111.324 31.1125H113.248V32.0575H111.324V31.1125ZM107.476 31.1125H109.4V32.0575H107.476V31.1125ZM103.628 31.1125H105.552V32.0575H103.628V31.1125ZM99.7802 31.1125H101.704V32.0575H99.7802V31.1125ZM95.9321 31.1125H97.8562V32.0575H95.9321V31.1125ZM92.0841 31.1125H94.0081V32.0575H92.0841V31.1125ZM88.2361 31.1125H90.1601V32.0575H88.2361V31.1125ZM84.3881 31.1125H86.3121V32.0575H84.3881V31.1125ZM80.54 31.1125H82.4641V32.0575H80.54V31.1125ZM76.692 31.1125H78.616V32.0575H76.692V31.1125ZM72.844 31.1125H74.768V32.0575H72.844V31.1125ZM68.996 31.1125H70.92V32.0575H68.996V31.1125ZM65.1479 31.1125H67.0719V32.0575H65.1479V31.1125ZM61.2999 31.1125H63.2239V32.0575H61.2999V31.1125ZM57.4519 31.1125H59.3759V32.0575H57.4519V31.1125ZM53.6038 31.1125H55.5279V32.0575H53.6038V31.1125ZM49.7558 31.1125H51.6798V32.0575H49.7558V31.1125ZM45.9078 31.1125H47.8318V32.0575H45.9078V31.1125ZM42.0598 31.1125H43.9838V32.0575H42.0598V31.1125ZM38.2117 31.1125H40.1357V32.0575H38.2117V31.1125ZM34.3637 31.1125H36.2877V32.0575H34.3637V31.1125ZM30.5157 31.1125H32.4397V32.0575H30.5157V31.1125ZM26.6677 31.1125H28.5917V32.0575H26.6677V31.1125ZM22.8196 31.1125H24.7437V32.0575H22.8196V31.1125ZM20.8956 31.1125V32.0575H20.8786V32.1188H19.9336V31.1125H20.8956ZM115.172 31.1125H116.134V32.1188H115.189V32.0575H115.172V31.1125ZM116.134 54.2562V55.2626H115.172V54.3175H115.189V54.2562H116.134ZM20.8956 55.2626H19.9336V54.2562H20.8786V54.3175H20.8956V55.2626Z" fill="#0077FD"/>
</g>
<g id="Group_3">
<path id="Vector_3" d="M13 16.465C13 14.5513 14.5513 13 16.465 13H118.736C120.649 13 122.201 14.5513 122.201 16.465V27.6625H13V16.465Z" fill="url(#paint0_linear_1255_24741)"/>
</g>
<g id="Group_4">
<path id="Vector_4" d="M80.6011 58.7124H20.7998C20.3214 58.7124 19.9336 59.1002 19.9336 59.5786V63.0211C19.9336 63.4995 20.3214 63.8875 20.7998 63.8875H80.6011C81.0795 63.8875 81.4673 63.4995 81.4673 63.0211V59.5786C81.4673 59.1002 81.0795 58.7124 80.6011 58.7124Z" fill="#E7E7E7"/>
</g>
<g id="Group_5">
<path id="Vector_5" d="M58.0676 66.4751H20.7998C20.3214 66.4751 19.9336 66.8629 19.9336 67.3413V70.7838C19.9336 71.2622 20.3214 71.6501 20.7998 71.6501H58.0676C58.546 71.6501 58.9339 71.2622 58.9339 70.7838V67.3413C58.9339 66.8629 58.546 66.4751 58.0676 66.4751Z" fill="#F3F3F3"/>
</g>
<g id="logo">
<path id="Vector_6" d="M61.979 48.7835C61.4393 48.2465 61.4393 47.3769 61.979 46.8398L72.1377 36.7307C72.6774 36.1936 73.5514 36.1936 74.0911 36.7307C74.6307 37.2677 74.6307 38.1375 74.0911 38.6745L63.9323 48.7835C63.3927 49.3196 62.5187 49.3196 61.979 48.7835Z" fill="#39A6FF"/>
<path id="Vector_7" d="M74.0911 48.7835C73.5514 49.3206 72.6774 49.3206 72.1377 48.7835L61.979 38.6745C61.4393 38.1375 61.4393 37.2677 61.979 36.7307C62.5187 36.1936 63.3927 36.1936 63.9323 36.7307L74.0911 46.8398C74.6307 47.3759 74.6307 48.2465 74.0911 48.7835Z" fill="#AED7FF"/>
<path id="Vector_8" d="M73.6587 41.0784H71.0258C70.3056 41.0784 69.7223 40.4979 69.7223 39.7812V37.1612C69.7223 36.2678 69.0447 35.4869 68.1479 35.4287C67.1657 35.3655 66.3492 36.1394 66.3492 37.103V39.7802C66.3492 40.4969 65.7659 41.0775 65.0456 41.0775H62.4117C61.5139 41.0775 60.7292 41.7518 60.6706 42.6442C60.6071 43.6216 61.3849 44.434 62.3532 44.434H65.0437C65.7639 44.434 66.3473 45.0145 66.3473 45.7312V48.3513C66.3473 49.2448 67.0248 50.0256 67.9217 50.0839C68.9038 50.1471 69.7202 49.3731 69.7202 48.4096V45.7322C69.7202 45.0155 70.3036 44.435 71.0238 44.435H73.7143C74.6825 44.435 75.4603 43.6226 75.3968 42.6452C75.3413 41.7528 74.5565 41.0784 73.6587 41.0784Z" fill="#0077FD"/>
<path id="Vector_9" d="M68.0363 43.3451C67.1682 43.3451 66.3339 43.12 65.6871 42.7103C65.5492 42.6234 65.5085 42.4408 65.5958 42.3045C65.6831 42.1673 65.8666 42.1268 66.0035 42.2137C66.5571 42.5632 67.2783 42.7567 68.0353 42.7567C68.7922 42.7567 69.5144 42.5642 70.067 42.2137C70.2049 42.1268 70.3874 42.1673 70.4747 42.3045C70.562 42.4418 70.5214 42.6234 70.3835 42.7103C69.7386 43.12 68.9043 43.3451 68.0363 43.3451Z" fill="white"/>
</g>
<g id="Group_6">
<g id="Group_7" filter="url(#filter1_d_1255_24741)">
<path id="Vector_10" fill-rule="evenodd" clip-rule="evenodd" d="M92 75.5C92 67.525 98.525 61 106.5 61C114.475 61 121 67.525 121 75.5C121 83.475 114.475 90 106.5 90C98.525 90 92 83.475 92 75.5Z" fill="#FF6700"/>
</g>
<path id="Vector_11" d="M101 79.9436H104.676V82.7501H107.739V79.9436H111.262V77.9167H107.739V77.2931L108.199 76.5135H111.416V74.3307H109.271L111.875 68.2501H108.658L106.514 74.6426L104.37 68.2501H101L103.604 74.3307H101L101.153 76.5135H104.37L104.676 77.2931V77.9167H101V79.9436Z" fill="white"/>
</g>
</g>
<defs>
<filter id="filter0_d_1255_24741" x="0.2" y="0.2" width="134.801" height="92.0125" filterUnits="userSpaceOnUse" color-interpolation-filters="sRGB">
<feFlood flood-opacity="0" result="BackgroundImageFix"/>
<feColorMatrix in="SourceAlpha" type="matrix" values="0 0 0 0 0 0 0 0 0 0 0 0 0 0 0 0 0 0 127 0" result="hardAlpha"/>
<feOffset/>
<feGaussianBlur stdDeviation="6.4"/>
<feColorMatrix type="matrix" values="0 0 0 0 0 0 0 0 0 0 0 0 0 0 0 0 0 0 0.08 0"/>
<feBlend mode="normal" in2="BackgroundImageFix" result="effect1_dropShadow_1255_24741"/>
<feBlend mode="normal" in="SourceGraphic" in2="effect1_dropShadow_1255_24741" result="shape"/>
</filter>
<filter id="filter1_d_1255_24741" x="83.4753" y="61" width="41.1781" height="41.1781" filterUnits="userSpaceOnUse" color-interpolation-filters="sRGB">
<feFlood flood-opacity="0" result="BackgroundImageFix"/>
<feColorMatrix in="SourceAlpha" type="matrix" values="0 0 0 0 0 0 0 0 0 0 0 0 0 0 0 0 0 0 127 0" result="hardAlpha"/>
<feOffset dx="-2.43562" dy="6.08905"/>
<feGaussianBlur stdDeviation="3.04453"/>
<feColorMatrix type="matrix" values="0 0 0 0 1 0 0 0 0 0.282353 0 0 0 0 0 0 0 0 0.45 0"/>
<feBlend mode="normal" in2="BackgroundImageFix" result="effect1_dropShadow_1255_24741"/>
<feBlend mode="normal" in="SourceGraphic" in2="effect1_dropShadow_1255_24741" result="shape"/>
</filter>
<linearGradient id="paint0_linear_1255_24741" x1="122.201" y1="20.3312" x2="13" y2="20.3312" gradientUnits="userSpaceOnUse">
<stop stop-color="#EAEAEA" stop-opacity="0.14"/>
<stop offset="1" stop-color="#DCDCDC"/>
</linearGradient>
</defs>
</svg>
