<svg xmlns="http://www.w3.org/2000/svg" xmlns:xlink="http://www.w3.org/1999/xlink" fill="none" version="1.1" width="260" height="120" viewBox="0 0 260 120"><defs><clipPath id="master_svg0_284_4336"><rect x="0" y="0" width="260" height="120" rx="0"/></clipPath><clipPath id="master_svg1_284_4337"><rect x="33" y="40" width="194.16673278808594" height="40.000003814697266" rx="0"/></clipPath><mask id="master_svg2_284_4349" style="mask-type:alpha" maskUnits="objectBoundingBox"><g><g><path d="M47.000070438990114,40.6669921875L58.166738438990116,60.0003261875L46.75006343899012,79.66700718749999L33.083398438990116,79.66700718749999L44.500067438990115,60.0003261875L33.083398438990116,40.6669921875L47.000070438990114,40.6669921875Z" fill="#FFFFFF" fill-opacity="1" style="mix-blend-mode:passthrough"/></g></g></mask><mask id="master_svg3_284_4340" style="mask-type:alpha" maskUnits="objectBoundingBox"><g><g><path d="M66.16671652929688,40.6669921875L77.33339452929687,60.0003301875L65.91671852929687,79.7503391875L52.166717529296875,79.7503391875L63.58338952929687,60.1670001875L52.166717529296875,40.6669921875L66.16671652929688,40.6669921875Z" fill="#FFFFFF" fill-opacity="1" style="mix-blend-mode:passthrough"/></g></g></mask></defs><g clip-path="url(#master_svg0_284_4336)"><g clip-path="url(#master_svg1_284_4337)"><g><path d="M87.58334350585938,40.6656901275L99.66668450585938,40.6656901275L101.91668350585937,45.332356437499996L92.75001050585938,45.332356437499996L92.75001050585938,49.9990282375L102.08334450585937,49.9990282375L102.08334450585937,54.6656944375L92.75001050585938,54.6656944375L92.75001050585938,60.8323574375L103.00001650585938,60.8323574375L103.00001650585938,65.49903143750001L87.58334350585938,65.49903143750001L87.58334350585938,40.6656901275ZM109.83335450585938,40.6656901275L117.33335850585938,55.2490244375L124.41669450585937,40.6656901275L129.75003850585938,40.6656901275L117.16668850585938,65.9156954375L103.91668750585937,40.6656901275L109.83335450585938,40.6656901275ZM140.00003850585938,40.2490234375L153.0833585058594,65.49903143750001L147.50003850585938,65.49903143750001L145.83337450585938,62.1656954375L133.83336650585937,62.1656954375L132.25004150585937,65.49903143750001L126.91669450585937,65.49903143750001L140.00003850585938,40.2490234375ZM143.58337050585936,57.4990314375L139.75002650585938,49.7490244375L136.00002650585938,57.4990314375L143.58337050585936,57.4990314375ZM156.4167095058594,40.6656901275L166.41671750585937,40.6656901275C168.16671750585937,40.6656901275,169.83336650585937,40.9990233775,171.41671750585937,41.5823575375C173.00005350585937,42.2490253375,174.4167325058594,43.0823586375,175.58338950585937,44.1656918375C176.75006150585938,45.2490239375,177.66671750585937,46.5823602375,178.3333815058594,48.0823602375C179.00006850585936,49.6656961375,179.33338950585937,51.2490284375,179.33338950585937,52.999027437500004C179.33338950585937,54.7490354375,179.00006850585936,56.4156894375,178.3333815058594,57.9157004375C177.66671750585937,59.4157004375,176.75006850585936,60.7490314375,175.58338950585937,61.8323674375C174.4167325058594,62.9157004375,173.08338950585937,63.7490334375,171.41671750585937,64.4156934375C169.83336650585937,65.0823614375,168.16671750585937,65.3323674375,166.41671750585937,65.3323674375L156.4167095058594,65.3323674375L156.4167095058594,40.6656901275ZM166.50005350585937,60.8323574375C168.66671750585937,60.8323574375,170.50006150585938,60.0823654375,172.00005350585937,58.5823594375C173.50004550585936,57.0823574375,174.25006850585936,55.2490244375,174.25006850585936,52.9990224375C174.25006850585936,50.7490244375,173.50004550585936,48.9156923375,172.00005350585937,47.4990277375C170.50006150585938,45.9990253375,168.66671750585937,45.3323598375,166.50005350585937,45.3323598375L161.5834045058594,45.3323598375L161.5834045058594,60.8323574375L166.50005350585937,60.8323574375ZM192.50006350585937,40.2490234375L205.5834035058594,65.49903143750001L200.00006350585937,65.49903143750001L198.41672350585938,62.1656954375L186.41675550585938,62.1656954375L184.83339650585935,65.49903143750001L179.50007650585937,65.49903143750001L192.50006350585937,40.2490234375ZM196.16673350585938,57.4990314375L192.33337350585936,49.7490244375L188.58337350585936,57.4990314375L196.16673350585938,57.4990314375ZM206.50008350585938,40.6656901275L214.00008350585938,55.2490244375L221.08337350585938,40.6656901275L226.41671350585938,40.6656901275L213.83342350585937,65.9156954375L200.58339350585936,40.6656901275L206.50008350585938,40.6656901275Z" fill="#26C0A9" fill-opacity="1" style="mix-blend-mode:passthrough"/></g><g><path d="M90.99999189414062,73.5830003125L90.99999189414062,72.4996644225L86.41665649414062,72.4996644225L86.41665649414062,73.5830003125L88.08332409414062,73.5830003125L88.08332409414062,79.91633511250001L89.24999239414062,79.91633511250001L89.24999239414062,73.5830003125L90.99999189414062,73.5830003125ZM92.58332779414063,79.91633511250001L93.66666369414062,79.91633511250001L93.66666369414062,77.6663365125C93.66666369414062,77.0830049125,93.74999669414062,76.7496700125,93.91666789414063,76.4996686125C94.08333249414062,76.2496648125,94.33333349414062,76.0830006125,94.74999999414062,76.0830006125C95.00000379414062,76.0830006125,95.24999909414062,76.1663327125,95.33333299414062,76.3330045125C95.49999709414062,76.4996686125,95.49999709414062,76.7496700125,95.58333299414062,76.9996729125L95.58333299414062,79.9163399125L96.66666949414062,79.9163399125L96.66666949414062,77.0830049125C96.66666949414062,76.7496700125,96.66666949414062,76.1663403125,96.33333489414062,75.7496722125L96.25000569414063,75.6663401125C96.08334069414063,75.4163377125,95.66667179414063,75.1663413125,94.91667079414063,75.1663413125C94.66666889414063,75.1663413125,94.16666939414063,75.2496731125,93.66667029414063,75.6663401125L93.66667029414063,71.8330078125L92.58333449414063,71.8330078125L92.58332779414063,79.91633511250001ZM102.16666549414063,78.4163298125C102.08333649414062,78.5829935125,101.91666449414062,78.7496648125,101.75000149414062,78.9163289125C101.49999549414062,79.0829930125,101.33333249414062,79.1663318125,100.99999749414063,79.1663318125C100.74999649414062,79.1663318125,100.41666749414063,79.0830011125,100.16666549414063,78.8329992125C99.91665949414062,78.5829935125,99.74999749414063,78.2496662125,99.74999749414063,77.9163318125L103.08333049414063,77.9163318125L103.08333049414063,77.7496686125C103.08333049414063,77.2496691125,103.00000149414063,76.4163365125,102.41666449414063,75.7496660125C102.16665749414062,75.4996645125,101.66666049414063,75.1663363125,100.91665749414062,75.1663363125C100.24998949414062,75.1663363125,99.74999249414063,75.4163377125,99.33332249414062,75.8330042125C98.83332549414062,76.3330045125,98.58332249414062,76.9996729125,98.58332249414062,77.7496738125C98.58332249414062,78.4163446125,98.83332549414062,79.0830083125,99.24999249414063,79.4996724125C99.66665749414062,79.9163399125,100.16665849414062,80.0830030125,100.83332849414063,80.0830030125C101.33332549414062,80.0830030125,101.83332449414063,79.9996729125,102.24999249414063,79.7496710125C102.58332649414062,79.5830068125,102.83332249414062,79.2496724125,102.99999449414062,78.9163370125L102.16666549414063,78.4163298125ZM99.91666649414063,76.9996662125C99.99999949414062,76.7496648125,100.08333149414062,76.5830006125,100.25000049414062,76.4163365125C100.41666749414063,76.2496724125,100.66666849414062,76.0830006125,101.00000349414063,76.0830006125C101.33333949414063,76.0830006125,101.58333549414063,76.2496648125,101.75000849414063,76.3330045125C101.91666849414062,76.4996686125,102.00000949414063,76.7496700125,102.08334149414063,76.9996729125L99.91666649414063,76.9996662125ZM113.33334349414062,72.5829964325L109.25000549414062,72.5829964325L109.25000549414062,79.9996643125L113.33334349414062,79.9996643125L113.33334349414062,78.9163289125L110.41666949414062,78.9163289125L110.41666949414062,76.5829930125L113.25001149414062,76.5829930125L113.25001149414062,75.4996569125L110.41666949414062,75.4996569125L110.41666949414062,73.5829877125L113.33334349414062,73.5829877125L113.33334349414062,72.5829964325ZM115.08333949414063,75.2496607125L117.50000749414062,80.2496633125L119.91667949414062,75.2496607125L118.66668349414063,75.2496607125L117.50000749414062,77.9163270125L116.33333949414063,75.2496607125L115.08333949414063,75.2496607125ZM124.00001149414062,75.2496607125C122.58334349414062,75.2496607125,121.50001149414062,76.2496586125,121.50001149414062,77.7496624125C121.50001149414062,79.1663275125,122.58334349414062,80.2496633125,124.00001149414062,80.2496633125C125.41667949414062,80.2496633125,126.50001549414063,79.1663275125,126.50001549414063,77.7496624125C126.50001549414063,76.1663265125,125.33334749414063,75.2496607125,124.00001149414062,75.2496607125ZM124.00001149414062,79.0829930125C123.16666749414063,79.0829930125,122.58334349414062,78.4996648125,122.58334349414062,77.5829916125C122.58334349414062,76.4996548125,123.25001549414063,76.0829892125,124.00001149414062,76.0829892125C124.66668749414063,76.0829892125,125.41667949414062,76.4996548125,125.41667949414062,77.5829916125C125.33334749414063,78.5829873125,124.83333949414063,79.0829930125,124.00001149414062,79.0829930125ZM128.66667149414062,71.9163271855L128.66667149414062,79.9996643125L129.75001949414062,79.9996643125L129.75001949414062,71.9163335265L128.66667149414062,71.9163271855ZM131.6666834941406,75.2496607125L134.08334749414064,80.2496633125L136.50002649414063,75.2496607125L135.25002249414064,75.2496607125L134.08334749414064,77.9163270125L132.91667949414062,75.2496607125L131.6666834941406,75.2496607125ZM138.33334749414064,75.2496607125L138.33334749414064,79.91632841250001L139.41667949414062,79.91632841250001L139.41667949414062,75.2496607125L138.33334749414064,75.2496607125ZM138.16667549414063,73.4163303125C138.16667549414063,73.8329965125,138.50002249414064,74.0829992125,138.83335449414062,74.0829992125C139.25001549414063,74.0829992125,139.50001949414062,73.7496644125,139.50001949414062,73.4163303125C139.50001949414062,72.9996635125,139.16667949414062,72.7496605525,138.83335449414062,72.7496605525C138.50002249414064,72.7496605525,138.16667549414063,72.9996635125,138.16667549414063,73.4163303125ZM141.91667949414062,79.91633511250001L143.00001549414063,79.91633511250001L143.00001549414063,77.7496686125C143.00001549414063,76.3330045125,143.41669449414064,76.1663327125,143.9167064941406,76.1663327125L144.08336649414062,76.1663327125C144.41667949414062,76.1663327125,144.83335449414062,76.3329968125,144.83335449414062,77.4163327125L144.83335449414062,79.9996643125L145.91669449414064,79.9996643125L145.91669449414064,77.1663303125C145.91669449414064,76.4163289125,145.83335449414062,76.0829944125,145.66667949414062,75.8329980125L145.58333949414063,75.7496660125C145.41668749414063,75.4996645125,145.00002249414064,75.2496683125,144.25000049414064,75.2496683125L144.08335149414063,75.2496683125C143.83333949414063,75.2496683125,143.33335449414062,75.3330004125,143.00000049414064,75.8329980125L143.00000049414064,75.2496683125L141.91666449414063,75.2496683125L141.91667949414062,79.91633511250001ZM151.83334349414062,75.7496660125C151.41668749414063,75.2496683125,150.91668749414063,75.0829966125,150.41669449414064,75.0829966125C149.8333584941406,75.0829966125,149.33333949414063,75.2496607125,148.8333584941406,75.7496660125C148.50002649414063,76.0830006125,148.16667949414062,76.6663327125,148.16667949414062,77.5829978125C148.16667949414062,78.3330006125,148.41669449414064,78.9996633125,148.8333584941406,79.4163294125C149.25002249414064,79.91632841250001,149.75003049414062,80.0829992125,150.41669449414064,80.0829992125L150.58334349414062,80.0829992125C150.91668749414063,80.0829992125,151.41668749414063,79.91633511250001,151.83334349414062,79.4163294125L151.83334349414062,79.9996576125C151.83334349414062,80.3329935125,151.83334349414062,80.8329935125,151.50003049414062,81.1663294125C151.3333584941406,81.3329935125,151.0833584941406,81.4996643125,150.66667949414062,81.4996643125C150.25003049414062,81.4996643125,149.91669049414062,81.3330002125,149.8333584941406,81.1663294125C149.66669449414064,80.9996652125,149.50002249414064,80.6663294125,149.50002249414064,80.41632841250001L148.41669449414064,80.41632841250001C148.50002649414063,80.9996576125,148.75001549414063,81.4996643125,149.08337049414064,81.8329925125C149.50002249414064,82.2496578125,150.0833584941406,82.4163218125,150.58335149414063,82.4163218125C151.3333584941406,82.4163218125,151.83335149414063,82.1663208125,152.16669449414064,81.9163228125C152.83337449414063,81.3329935125,152.91669449414064,80.5829925125,152.91669449414064,79.4996557125L152.91669449414064,75.2496540125L151.83334349414062,75.2496540125L151.83334349414062,75.7496660125ZM150.58334349414062,76.1663327125C150.91668749414063,76.1663327125,151.16667949414062,76.2496648125,151.50003049414062,76.4996686125C151.75003049414062,76.7496700125,151.91667949414062,77.1663370125,151.91667949414062,77.6663365125C151.91667949414062,77.9996724125,151.83334349414062,78.4163365125,151.50003049414062,78.7496729125C151.25001549414063,78.9996729125,150.91669449414064,79.16633751250001,150.58334349414062,79.16633751250001C150.25003049414062,79.16633751250001,149.91667949414062,78.9996729125,149.75001949414062,78.8330035125C149.5000114941406,78.5830006125,149.25002249414064,78.0830021125,149.25002249414064,77.6663365125C149.25002249414064,77.1663370125,149.41666749414063,76.7496700125,149.75001949414062,76.4996686125C150.00001549414063,76.3330045125,150.25003049414062,76.1663327125,150.58334349414062,76.1663327125ZM164.4167094941406,79.91633511250001L165.6667094941406,79.91633511250001L162.16670249414062,72.0829976625L158.50002249414064,79.91633511250001L159.75003049414062,79.91633511250001L160.5833814941406,78.1663360125L163.75003049414062,78.1663360125L164.4167094941406,79.91633511250001ZM160.91670249414062,77.1663303125L162.0833584941406,74.66633081250001L163.16670249414062,77.1663303125L160.91670249414062,77.1663303125ZM170.91669449414064,75.9163303125C170.50004549414064,75.3330004125,169.83335149414063,75.2496607125,169.50004549414064,75.2496607125C168.25003849414063,75.2496607125,167.25003049414062,76.1663265125,167.25003049414062,77.6663289125C167.25003049414062,78.9163289125,168.0833814941406,80.16632841250001,169.50004549414064,80.16632841250001C169.83335149414063,80.16632841250001,170.41672549414062,80.0829992125,170.91669449414064,79.4996600125L170.91669449414064,79.9996576125L172.00005349414062,79.9996576125L172.00005349414062,71.9163271855L170.91669449414064,71.9163271855L170.91669449414064,75.9163303125ZM169.66670249414062,76.1663327125C170.33337449414063,76.1663327125,171.00003049414062,76.6663327125,171.00003049414062,77.6663365125C171.00003049414062,78.6663384125,170.33337449414063,79.16633751250001,169.66670249414062,79.16633751250001C168.9167094941406,79.16633751250001,168.3333584941406,78.4996705125,168.3333584941406,77.6663365125C168.3333584941406,76.8330021125,168.83336649414062,76.1663327125,169.66670249414062,76.1663327125ZM179.50004549414064,79.91633511250001L179.50004549414064,74.7496683125L184.83337449414063,80.4163370125L184.83337449414063,72.5830029825L183.6667094941406,72.5830029825L183.6667094941406,77.7496686125L178.33338949414062,72.0829976625L178.33338949414062,79.9996643125L179.50004549414064,79.91633511250001ZM190.83338649414063,78.4996705125C190.75004649414063,78.6663351125,190.58339649414063,78.8330035125,190.41673649414062,78.9996676125C190.16672649414062,79.1663318125,190.0000564941406,79.2496724125,189.66673649414062,79.2496724125C189.4167064941406,79.2496724125,189.08341649414064,79.16633751250001,188.83338649414063,78.9163370125C188.58339649414063,78.6663351125,188.41673649414062,78.3330059125,188.41673649414062,77.9996724125L191.75004649414063,77.9996724125L191.75004649414063,77.8330073125C191.75004649414063,77.3330083125,191.66673649414062,76.4996738125,191.0834064941406,75.8330042125C190.83338649414063,75.5830018125,190.33341649414064,75.2496731125,189.58338649414063,75.2496731125C188.91672649414062,75.2496731125,188.41673649414062,75.4996760125,188.00004649414063,75.9163437125C187.5000564941406,76.4163418125,187.25004649414063,77.0830121125,187.25004649414063,77.8330135125C187.25004649414063,78.4996805125,187.50008649414065,79.16634421250001,187.91673649414062,79.5830111125C188.33339649414063,79.9996796125,188.8334064941406,80.1663446125,189.5000564941406,80.1663446125C190.00007649414061,80.1663446125,190.50004649414063,80.0830088125,190.91673649414062,79.8330088125C191.2500564941406,79.6663446125,191.50006649414064,79.3330083125,191.66673649414062,78.9996729125C191.66673649414062,78.91634421250001,190.83338649414063,78.4163446125,190.83338649414063,78.4996705125ZM188.50003649414063,76.9996662125C188.58339649414063,76.7496648125,188.6667064941406,76.5830006125,188.83338649414063,76.4163365125C189.00003649414063,76.2496724125,189.25003649414063,76.0830006125,189.58335649414062,76.0830006125C189.91669649414064,76.0830006125,190.16671649414064,76.2496648125,190.33338649414063,76.3330045125C190.50004649414063,76.4996686125,190.58337649414062,76.7496700125,190.6666864941406,76.9996729125L188.50003649414063,76.9996662125ZM196.00003649414063,76.3329968125L196.00003649414063,75.3330004125L195.16672649414062,75.3330004125L195.16672649414062,73.6663324125L194.0834064941406,73.6663324125L194.0834064941406,75.3330004125L193.66672649414062,75.3330004125L193.66672649414062,76.3329968125L194.0834064941406,76.3329968125L194.0834064941406,79.9996643125L195.16672649414062,79.9996643125L195.16672649414062,76.3329968125L196.00003649414063,76.3329968125ZM197.41672649414062,75.2496607125L199.83339649414063,80.2496633125L201.16672649414062,77.2496624125L202.50007649414061,80.2496633125L204.91672649414062,75.2496607125L203.66672649414062,75.2496607125L202.41672649414062,77.9163270125L201.08338649414063,74.8329944125L199.75003649414063,77.9163270125L198.50003649414063,75.2496607125L197.41672649414062,75.2496607125ZM208.91672649414062,75.2496607125C207.50007649414061,75.2496607125,206.41672649414062,76.2496586125,206.41672649414062,77.7496624125C206.41672649414062,79.1663275125,207.50007649414061,80.2496633125,208.91672649414062,80.2496633125C210.33341649414064,80.2496633125,211.41673649414062,79.1663275125,211.41673649414062,77.7496624125C211.41673649414062,76.1663265125,210.33341649414064,75.2496607125,208.91672649414062,75.2496607125ZM208.91672649414062,79.0829930125C208.08338649414063,79.0829930125,207.50007649414061,78.4996648125,207.50007649414061,77.5829916125C207.50007649414061,76.4996548125,208.16674649414063,76.0829892125,208.91672649414062,76.0829892125C209.58338649414063,76.0829892125,210.33341649414064,76.4996548125,210.33341649414064,77.5829916125C210.25006649414064,78.5829873125,209.75003649414063,79.0829930125,208.91672649414062,79.0829930125ZM213.58338649414063,79.91632841250001L214.66673649414062,79.91632841250001L214.66673649414062,77.4996648125C214.66673649414062,77.1663303125,214.66673649414062,76.7496648125,215.00007649414061,76.4163289125C215.16673649414062,76.2496648125,215.41676649414063,76.1663265125,215.58338649414063,76.1663265125L215.66674649414063,76.1663265125C215.75005649414064,76.1663265125,216.00002649414063,76.1663265125,216.25007649414061,76.3329906125L216.66676649414063,75.3329928125C216.33340649414063,75.1663287125,216.08338649414063,75.0829899125,215.83340649414063,75.0829899125C215.58338649414063,75.0829899125,215.41676649414063,75.0829899125,215.16673649414062,75.2496540125C215.00007649414061,75.3329866125,214.83338649414063,75.4996569125,214.75002649414063,75.6663210125L214.75002649414063,75.2496540125L213.66672649414062,75.2496540125L213.58338649414063,79.91632841250001ZM218.41673649414062,71.9163271855L219.50007649414061,71.9163271855L219.50007649414061,76.9163289125L221.00005649414064,75.3329928125L222.41673649414062,75.3329928125L220.41674649414063,77.2496624125L222.58340649414063,79.9996643125L221.16676649414063,79.9996643125L219.66673649414062,77.9996648125L219.50009649414062,78.1663294125L219.50009649414062,79.9996643125L218.41673649414062,79.9996643125L218.41673649414062,71.9163271855Z" fill="#787878" fill-opacity="1" style="mix-blend-mode:passthrough"/></g><g mask="url(#master_svg2_284_4349)"><g><g><path d="M47.000075445780276,40.6669921875L58.16674344578028,60.0003261875L46.75006844578028,79.66700718749999L33.08340344578028,79.66700718749999L44.500072445780276,60.0003261875L33.08340344578028,40.6669921875L47.000075445780276,40.6669921875Z" fill="#26C0A9" fill-opacity="1" style="mix-blend-mode:passthrough"/></g><g><path d="M43.166695336405276,57.7490234375L52.50002933640528,73.1656964375C51.916695336405276,81.1656954375,51.50002933640528,85.1656954375,51.16670133640528,85.1656954375C50.833369336405276,85.1656954375,44.58336333640528,84.41568943749999,32.33335813640528,82.9157024375C30.750024356405277,78.3323654375,30.166691046405276,76.0823654375,30.416691102405277,76.0823654375C30.666691106405278,76.1656994375,34.916692136405274,70.0823694375,43.166695336405276,57.7490234375Z" fill="#1CA470" fill-opacity="1" style="mix-blend-mode:passthrough"/></g></g></g><g mask="url(#master_svg3_284_4340)"><g><g><path d="M66.16672988073731,40.6669921875L77.3334078807373,60.0003301875L65.9167318807373,79.7503391875L52.166730880737305,79.7503391875L63.5834028807373,60.1670001875L52.166730880737305,40.6669921875L66.16672988073731,40.6669921875Z" fill="#26C0A9" fill-opacity="1" style="mix-blend-mode:passthrough"/></g><g><path d="M62.33334689440918,57.99755859375L71.66668689440918,73.49756259375C71.08335489440918,81.49755859375,70.66668489440917,85.49756059375,70.33335289440919,85.49756059375C70.00001689440919,85.49756059375,63.750014894409176,84.74755259375,51.41667659440918,83.24756859375C49.91667673440918,78.66423259375,49.25000877440918,76.41423259375,49.58334194840918,76.41423259375C49.83334147440918,76.49756859375,54.08334349440918,70.33090059375,62.33334689440918,57.99755859375Z" fill="#1CA470" fill-opacity="1" style="mix-blend-mode:passthrough"/></g></g></g></g></g></svg>