<svg xmlns="http://www.w3.org/2000/svg" xmlns:xlink="http://www.w3.org/1999/xlink" fill="none" version="1.1" width="260" height="120" viewBox="0 0 260 120"><defs><clipPath id="master_svg0_284_4298"><rect x="0" y="0" width="260" height="120" rx="0"/></clipPath><clipPath id="master_svg1_284_4299"><rect x="43" y="36" width="173.33331298828125" height="48" rx="0"/></clipPath></defs><g clip-path="url(#master_svg0_284_4298)"><g clip-path="url(#master_svg1_284_4299)"><g><g><path d="M146.46668436679687,48.70654296875L141.78668216679688,48.70654296875L136.62667846679688,64.39987996875L139.90667676679686,64.39987996875L141.09334186679686,60.55988496875L147.0933414667969,60.55988496875L148.30667846679688,64.39987996875L151.65334946679687,64.39987996875L146.49334526679687,48.7065480550132L146.46668436679687,48.70654296875ZM141.93334956679686,57.75987716875L144.04001806679688,50.90654496875L146.20002176679688,57.75987716875L141.93334956679686,57.75987716875Z" fill="#000000" fill-opacity="1" style="mix-blend-mode:passthrough"/></g><g><path d="M108.97339773632812,64.4007305L108.97339773632812,56.0273991L101.94673113632813,56.0273991L101.94673113632813,58.6007325L105.89339673632813,58.6007325C105.84006173632812,59.1340685,105.68006373632812,59.6140695,105.44006373632813,60.0273995C105.12005873632813,60.5873945,104.68006133632812,61.0273975,104.09339713632812,61.3473955C103.53340053632813,61.6540675,102.86673353632813,61.8007245,102.09339853632812,61.8007245C100.86673453632812,61.8007245,99.88006593632812,61.3473955,99.16006423632813,60.4407275C98.42673203632812,59.5340625,98.06673123632812,58.2540636,98.06673123632812,56.6140585C98.06673123632812,54.9740539,98.44006303632813,53.6273956,99.20006273632812,52.7207284C99.96006253632812,51.8140609,100.94673113632813,51.3607273,102.18673133632812,51.3607273C103.16006373632813,51.3607273,103.94673063632813,51.6273954,104.54673193632813,52.1607308C105.17339873632812,52.6807299,105.56006173632812,53.387394900000004,105.70672873632813,54.280725000000004L108.82673073632813,53.4407287C108.61339573632813,52.4273934,108.20006173632812,51.547398799999996,107.57339773632813,50.8007302C106.96006773632813,50.0407307,106.20006573632813,49.4540658,105.28006373632813,49.05406189C104.37339683632813,48.62739561,103.34672923632813,48.4140625,102.21339893632812,48.4140625C100.77339653632812,48.4140625,99.49339773632812,48.74739584,98.37339763632812,49.41406232C97.26672863632812,50.080729,96.40006493632812,51.0273941,95.77339672632813,52.2540634C95.17339578632813,53.4807281,94.86672973632812,54.9340663,94.86672973632812,56.627394699999996C94.86672973632812,58.3207235,95.14672848632813,59.694064499999996,95.70673107632813,60.9073935C96.28006483632812,62.1073945,97.06673173632812,63.040724499999996,98.06673123632812,63.7073915C99.06673143632813,64.3740555,100.20006323632812,64.7073915,101.48006633632812,64.7073915C102.62673373632812,64.7073915,103.62673373632812,64.4407295,104.46673483632813,63.9073935C105.17339873632812,63.4540655,105.74673373632812,62.8407225,106.18673573632813,62.0540605L106.42673673632812,64.4007305L108.97339773632812,64.4007305Z" fill="#000000" fill-opacity="1" style="mix-blend-mode:passthrough"/></g><g><path d="M118.02677346210938,48.70654296875L115.09343906210937,48.70654296875L109.93344116210938,64.39987996875L113.21343946210938,64.39987996875L114.40010456210938,60.55988496875L120.40010416210937,60.55988496875L121.61343716210938,64.39987996875L124.96010616210937,64.39987996875L119.80010796210938,48.7065480550132L118.05344106210937,48.7065480550132L118.02677346210938,48.70654296875ZM115.24010656210937,57.75987716875L117.34677506210937,50.90654496875L119.50677296210938,57.75987716875L115.24010656210937,57.75987716875Z" fill="#000000" fill-opacity="1" style="mix-blend-mode:passthrough"/></g><g><path d="M129.26665183554687,48.70654296875L126.10665893554688,48.70654296875L126.10665893554688,64.39987996875L127.50665263554687,64.39987996875L129.26665183554687,64.39987996875L136.26664993554687,64.39987996875L136.26664993554687,61.46653996875L129.26665183554687,61.46653996875L129.26665183554687,48.70654296875Z" fill="#000000" fill-opacity="1" style="mix-blend-mode:passthrough"/></g><g><path d="M212.45330668945311,48.70654296875L212.45330668945311,61.39988096875L207.17331838945313,48.70654296875L205.19998168945312,48.70654296875L203.94664478945313,48.70654296875L202.19998168945312,48.70654296875L202.19998168945312,64.39987996875L205.19998168945312,64.39987996875L205.19998168945312,51.71987886875L210.47997948945311,64.39987996875L212.45330668945311,64.39987996875L213.70664368945313,64.39987996875L215.45330668945311,64.39987996875L215.45330668945311,48.70654296875L212.45330668945311,48.70654296875Z" fill="#000000" fill-opacity="1" style="mix-blend-mode:passthrough"/></g><g><path d="M197.59980029882811,49.22739661C196.6931352988281,48.68073016,195.59980229882814,48.4140625,194.34646509882813,48.4140625C193.0931281988281,48.4140625,191.89313749882814,48.68073016,190.82646559882812,49.21406031C189.75979569882813,49.7473959,188.83980299882813,50.4673917,188.05313089882813,51.400725800000004C187.27979509882812,52.3073926,186.66646309882813,53.374064,186.22646075882813,54.5873919C185.79979447882812,55.8007293,185.58645629882812,57.0940542,185.58645629882812,58.480720500000004C185.58645629882812,59.6807255,185.82645669882814,60.7473835,186.29312127882812,61.6940605C186.77312209882814,62.6407255,187.47978689882814,63.3740625,188.38645359882813,63.9207235C189.29312089882814,64.4540595,190.38645409882812,64.7207205,191.63979049882812,64.7207205C192.89312699882814,64.7207205,194.10645389882814,64.4540595,195.15978809882813,63.9207235C196.22645829882813,63.3873885,197.13312729882813,62.667387500000004,197.90645129882813,61.7607215C198.69311429882814,60.8407165,199.30645629882812,59.7607195,199.73312229882814,58.5473835C200.17312429882813,57.3340454,200.38645329882812,56.0273838,200.38645329882812,54.6407156C200.38645329882812,53.4407144,200.14645329882813,52.3873796,199.65311629882814,51.4540505C199.18645029882813,50.5073848,198.49311229882812,49.7740526,197.58644529882812,49.24071753L197.59980029882811,49.22739661ZM196.74646929882812,57.5340652C196.5064682988281,58.3474016,196.15979929882812,59.0807395,195.70647129882812,59.7207335C195.25314329882812,60.3474005,194.7198075988281,60.8407265,194.1198014988281,61.200734499999996C193.51980499882814,61.5607295,192.83980179882812,61.7474055,192.11980149882814,61.7474055C190.99980689882813,61.7474055,190.17313619882813,61.4407335,189.66647289882812,60.814074500000004C189.14647389882813,60.1740715,188.89313749882814,59.3340745,188.89313749882814,58.2674026C188.89313749882814,57.3207388,189.01313209882812,56.4407339,189.25313279882812,55.6007376C189.50646949882812,54.7607412,189.86646459882812,54.0407405,190.31980369882814,53.4140725C190.77313179882813,52.7740679,191.3064674988281,52.2807407,191.90647359882811,51.9074044C192.50646929882814,51.5474033,193.18647189882813,51.3607376,193.9064740988281,51.3607376C195.02646829882812,51.3607376,195.85313929882813,51.6807399,196.35980129882813,52.3207395C196.8798012988281,52.960743,197.13313729882813,53.800739300000004,197.13313729882813,54.8674111C197.13313729882813,55.8140755,196.9998042988281,56.694080400000004,196.74646929882812,57.5340652Z" fill="#000000" fill-opacity="1" style="mix-blend-mode:passthrough"/></g><g><rect x="180.62673950195312" y="48.70654296875" width="3.1599996089935303" height="15.69333267211914" rx="0" fill="#000000" fill-opacity="1" style="mix-blend-mode:passthrough"/></g><g><path d="M177.03985573632812,56.467391C176.5198547363281,56.0940595,175.94652273632812,55.7873878,175.30651763632812,55.5607238C174.67984963632813,55.3207235,174.05318113632813,55.1207213,173.4131865363281,54.9740539C172.77318283632812,54.800724,172.18652243632812,54.6273851,171.66652293632814,54.4540553C171.14652393632812,54.2673893,170.73319483632812,54.0540519,170.4131870363281,53.8140512C170.09319023632813,53.5607138,169.93318653632812,53.2140551,169.93318653632812,52.7873878C169.93318653632812,52.3607221,170.11985253632812,52.0007219,170.47985793632813,51.694056C170.85318903632813,51.374054,171.47985843632813,51.2140553,172.34652663632812,51.2140553C173.14652443632812,51.2140553,173.8265266363281,51.4007211,174.39986133632812,51.7873888C174.95985893632812,52.1473842,175.37319853632812,52.7473903,175.65319823632814,53.5607247L178.61319873632812,52.5340629C178.18653073632814,51.2007289,177.45319373632813,50.1873982,176.41319573632813,49.4807279C175.38653473632812,48.77406305,174.11986163632812,48.4140625,172.6398615363281,48.4140625C171.41319653632812,48.4140625,170.35986283632812,48.61406453,169.47985813632812,49.02739459C168.59985323632813,49.4273936,167.93318673632814,49.9607286,167.4798582363281,50.6407266C167.02652990632814,51.3207245,166.79985552632812,52.1073959,166.79985552632812,52.987391C166.79985552632812,53.8007255,166.94652289632813,54.4940538,167.25318389632812,55.0407252C167.57318093632813,55.5740604,167.99984733632812,56.0140629,168.53318213632812,56.3607225C169.06651803632812,56.6940546,169.63985153632814,56.9607182,170.26652003632813,57.174057C170.89318843632813,57.387393,171.50652023632813,57.5873861,172.13318773632813,57.7607269C172.75985673632812,57.9340544,173.33319043632812,58.1073961,173.86652563632813,58.307397800000004C174.39986133632812,58.4940645,174.82652763632814,58.7340645,175.14652253632812,59.0407355C175.46652223632813,59.347404499999996,175.6265249363281,59.7340645,175.6265249363281,60.2007385C175.6265249363281,60.7074025,175.39986133632812,61.1074055,174.94652173632812,61.4274035C174.49319363632813,61.7340735,173.8131914363281,61.880731499999996,172.91985983632813,61.880731499999996C172.0265288363281,61.880731499999996,171.33319093632812,61.6807285,170.73319483632812,61.2673975C170.14652443632812,60.8407325,169.69319633632813,60.1740665,169.38652513632812,59.2673985L166.31985473632812,60.2940595C166.78651931632814,61.7473895,167.55985513632814,62.854057499999996,168.63985133632812,63.5873945C169.73318453632814,64.3340595,171.09318013632813,64.7073915,172.73318383632812,64.7073915C174.01318313632814,64.7073915,175.09317973632812,64.5073895,175.98651883632812,64.1207205C176.8931887363281,63.7073915,177.59985273632813,63.1607185,178.07985373632812,62.4540545C178.58651673632812,61.7607255,178.82651673632813,60.9473915,178.82651673632813,60.040724499999996C178.82651673632813,59.1340585,178.6665137363281,58.4540555,178.34651473632812,57.8807211C178.0265197363281,57.307387399999996,177.59985273632813,56.8407221,177.0665157363281,56.467391L177.03985573632812,56.467391Z" fill="#000000" fill-opacity="1" style="mix-blend-mode:passthrough"/></g><g><path d="M165.58671864648437,48.70654296875L161.88005544648436,48.70654296875L155.94671604648437,55.70654196875L155.94671604648437,48.70654296875L152.78671264648438,48.70654296875L152.78671264648438,64.39987996875L155.94671604648437,64.39987996875L155.94671604648437,59.83987296875L157.7333869464844,57.78653716875L162.20005034648437,64.39987996875L166.00004964648437,64.39987996875L159.77338554648438,55.42654366875L165.58671864648437,48.70654296875Z" fill="#000000" fill-opacity="1" style="mix-blend-mode:passthrough"/></g><g><path d="M197.28011038632812,71.64083856375C196.98677538632813,71.45417275275,196.64010598632814,71.36083984375,196.25344808632812,71.36083984375C195.86679068632813,71.36083984375,195.52011098632812,71.45417275275,195.21345007632812,71.64083856375C194.92011517632812,71.82750436375,194.68011471632812,72.08084088375,194.50678506632812,72.40083804375C194.34678140232813,72.73417134375,194.25344848632812,73.10750284375,194.25344848632812,73.56084154375C194.25344848632812,74.01417974375,194.33344522832812,74.40083794375,194.50678506632812,74.72084494375C194.66678869632813,75.05417844375,194.90678912632814,75.30751494375,195.20011377632812,75.48084454375C195.49344888632814,75.65417434375,195.8401181863281,75.74750664375,196.24011218632813,75.74750664375C196.64010598632814,75.74750664375,196.97344948632812,75.65417434375,197.28011038632812,75.48084454375C197.57344528632814,75.29417824375,197.81344578632812,75.04084184375,197.98677538632813,74.72084494375C198.16010518632814,74.38751144375,198.2401120863281,74.00084404374999,198.2401120863281,73.56084154375C198.2401120863281,73.12083904375,198.16011528632814,72.73417134375,197.98677538632813,72.40083804375C197.82677168632813,72.06750470375,197.58677148632813,71.81416818375,197.29344678632813,71.64083856375L197.28011038632812,71.64083856375ZM197.37344338632812,74.45416184375C197.25344848632812,74.69416234375,197.09344438632812,74.88082814375,196.89344258632812,75.00083324375C196.69344068632813,75.12082884375,196.48011258632812,75.17416284375,196.24011218632813,75.17416284375C196.00011158632813,75.17416284375,195.77344758632813,75.12082884375,195.5867818863281,75.00083324375C195.40011588632814,74.88083814375,195.24011224632812,74.69416234375,195.12011706632813,74.45416184375C195.01344805632812,74.21416184375,194.94678735632812,73.92082694375,194.94678735632812,73.56083134375C194.94678735632812,73.20083584375,195.00012200632813,72.90750084375,195.12011706632813,72.66750034375C195.24011224632812,72.42750004375,195.40011588632814,72.24083435375,195.60011768632813,72.13416534375C195.80011978632814,72.01417011375,196.01344788632812,71.94749945375,196.25344808632812,71.94749945375C196.49344868632812,71.94749945375,196.70677688632813,72.01417011375,196.90677828632812,72.13416534375C197.10678098632812,72.25416034375,197.26677398632813,72.42750004375,197.37344338632812,72.66750034375C197.49343828632811,72.90750084375,197.54677298632814,73.20083584375,197.54677298632814,73.56083134375C197.54677298632814,73.92082694375,197.49343828632811,74.21416184375,197.37344338632812,74.45416184375Z" fill="#000000" fill-opacity="1" style="mix-blend-mode:passthrough"/></g><g><path d="M190.27983574882813,74.79964159375L189.29317184882814,71.46630859375L188.53317264882813,71.46630859375L187.55983474882814,74.81297759375L186.6531676088281,71.46630859375L185.97317504882812,71.46630859375L187.1998392488281,75.66631029375L187.89316794882814,75.66631029375L188.91983984882813,72.17297357375L189.9465024488281,75.66631029375L190.63984154882812,75.66631029375L191.8665046488281,71.46630859375L191.18650244882812,71.46630859375L190.27983574882813,74.79964159375Z" fill="#000000" fill-opacity="1" style="mix-blend-mode:passthrough"/></g><g><path d="M116.16003406132812,75.01297999375L114.88003534132812,71.46630859375L114.17337036132812,71.46630859375L115.76003516132812,75.66631029375L116.54670186132813,75.66631029375L118.13336656132813,71.46630859375L117.44003796132813,71.46630859375L116.16003406132812,75.01297999375Z" fill="#000000" fill-opacity="1" style="mix-blend-mode:passthrough"/></g><g><path d="M123.41314701757813,71.64083859375C123.13314791757813,71.45417275975,122.79981471757813,71.36083984375,122.38648461757812,71.36083984375C121.99981661757812,71.36083984375,121.66648331757813,71.45417275975,121.37315356757813,71.64083859375C121.07981860757812,71.82750442375,120.85315441757812,72.08084094375,120.69315591757812,72.41417444375C120.53315734157812,72.74750754375,120.45315551757812,73.12083924375,120.45315551757812,73.56084184375C120.45315551757812,74.00084424375,120.53315734157812,74.38751174375,120.69315591757812,74.72084524375C120.85315441757812,75.05417874375,121.09315490757812,75.30751514375,121.37315356757813,75.48084454375C121.66648331757813,75.66751054375,121.99981661757812,75.76084374375,122.37314841757812,75.76084374375C122.69314551757813,75.76084374375,122.95981791757812,75.70750904375,123.19981881757812,75.60083964374999C123.43981881757813,75.49417064375,123.63982131757813,75.34750344375,123.79981421757813,75.16083764375C123.95981831757813,74.97417164375,124.07981321757812,74.74750714375,124.13314771757813,74.52083274375L123.46648101757812,74.52083274375C123.38648461757812,74.73417134375,123.25314281757812,74.90750094375,123.07981351757813,75.01417014375C122.90648391757813,75.13416504375,122.66648291757812,75.18749974375,122.37314841757812,75.18749974375C122.14648411757813,75.18749974375,121.93314611757812,75.13416504375,121.74648021757812,75.01417014375C121.55981431757813,74.89417454375,121.39981579757813,74.72083524375,121.29314672757812,74.48083474375C121.18647753757813,74.26749614375,121.13314807757813,74.01416964375,121.11981194757813,73.72083474375L124.23980691757812,73.72083474375C124.23980691757812,73.64083834375,124.23980691757812,73.58750394375,124.23980691757812,73.53416924375L124.23980691757812,73.37416574375C124.23980691757812,73.01417004375,124.17313621757812,72.68083694375,124.02646871757813,72.38750184375C123.89313741757813,72.08083087375,123.67979881757813,71.84083044375,123.41313671757813,71.65416461375L123.41314701757813,71.64083859375ZM121.11981707757812,73.20083594375C121.13314807757813,72.96083544375,121.19981884757813,72.76083354375,121.29315179757812,72.60084024375C121.41315197757812,72.38750184375,121.55981921757812,72.22750842375,121.74648021757812,72.12083941375C121.93314611757812,72.01417017375,122.14648411757813,71.94750976375,122.37314841757812,71.94750976375C122.71981811757813,71.94750976375,122.99981641757813,72.05417871375,123.22648121757813,72.28084296375C123.45314521757813,72.49418124375,123.57315041757812,72.80084204375,123.58647631757813,73.20084604375L121.11981707757812,73.20083594375Z" fill="#000000" fill-opacity="1" style="mix-blend-mode:passthrough"/></g><g><path d="M202.17326856367188,71.759724855C202.02660107367188,71.893056155,201.89326983367187,72.053059815,201.79993695367187,72.239725705L201.74660235367188,71.466389969L201.13327026367188,71.466389969L201.13327026367188,75.666391875L201.81327307367187,75.666391875L201.81327307367187,73.386393075C201.81327307367187,73.133056475,201.85327136367187,72.919728475,201.91994214367188,72.759724575C201.98661291367188,72.586395275,202.07994580367188,72.453053675,202.19994096367188,72.359720705C202.3199360636719,72.266387875,202.45327756367186,72.199717165,202.61327096367188,72.146382515C202.7599384636719,72.093047975,202.91994186367188,72.079711855,203.07993526367187,72.079711855L203.46660356367187,72.079711855L203.46660356367187,71.373046875C203.18660476367188,71.373046875,202.94660426367187,71.413045246,202.73326586367187,71.479715965C202.51992796367188,71.546386685,202.33326206367187,71.639719635,202.17326856367188,71.773050935L202.17326856367188,71.759724855Z" fill="#000000" fill-opacity="1" style="mix-blend-mode:passthrough"/></g><g><path d="M110.79996732382813,72.134205575C110.66663602382812,71.894205575,110.47996472382812,71.707539575,110.23996922382813,71.574208475C109.99997402382813,71.440877175,109.70663452382813,71.374206375,109.37330102382812,71.374206375C108.98663302382812,71.374206375,108.65329972382813,71.467539175,108.35996997382813,71.667541375C108.06663501382812,71.854207075,107.83997082382812,72.107543675,107.67997232382812,72.440877175C107.51997374782812,72.774210475,107.43997192382812,73.147541975,107.43997192382812,73.560871875C107.43997192382812,73.974202175,107.51997374782812,74.360869875,107.67997232382812,74.694203375C107.83997082382812,75.027536375,108.06664008382812,75.294198475,108.35996997382813,75.480865475C108.65330492382813,75.667530075,108.98663802382812,75.760863775,109.35996992382813,75.760863775C109.59997032382813,75.760863775,109.82663462382813,75.720865275,109.99996952382813,75.654194875C110.18663522382812,75.574197775,110.34663392382812,75.480865475,110.47997022382812,75.360860375C110.61330152382813,75.240864775,110.71997022382813,75.120859575,110.79997232382813,74.987528275L110.85330672382813,75.667530075L111.46663852382812,75.667530075L111.46663852382812,69.880859375L110.78664092382813,69.880859375L110.78664092382813,72.134195375L110.79996732382813,72.134205575ZM110.61330152382813,74.414204575C110.50663232382813,74.654204375,110.34663392382812,74.84087087500001,110.15996812382812,74.974201175C109.95996542382812,75.107533475,109.73330162382813,75.160868175,109.46663402382812,75.160868175C109.19996632382812,75.160868175,108.98663302382812,75.094197275,108.78663612382813,74.974201175C108.58663432382812,74.84087087500001,108.42663568382812,74.654204375,108.31997162382812,74.414204575C108.21330249382812,74.174204375,108.14663690382812,73.894205075,108.14663690382812,73.560871875C108.14663690382812,73.227538775,108.19997149382813,72.947539775,108.31997162382812,72.707539775C108.42664075382812,72.467538875,108.58663932382812,72.280873075,108.78663612382813,72.147542275C108.98663802382812,72.014210975,109.21330252382812,71.947540075,109.46663402382812,71.947540075C109.71996542382813,71.947540075,109.97330212382812,72.014210975,110.15996812382812,72.147542275C110.35996982382812,72.280873075,110.50663232382813,72.467538875,110.61330152382813,72.707539775C110.71997022382813,72.947539775,110.77329972382813,73.227538775,110.77329972382813,73.560871875C110.77329972382813,73.894205075,110.71996542382813,74.174204375,110.61330152382813,74.414204575Z" fill="#000000" fill-opacity="1" style="mix-blend-mode:passthrough"/></g><g><path d="M209.37337186132814,71.467519075L208.53336526132813,71.467519075L206.85337317132812,73.280853075L206.85337317132812,69.880859375L206.17337036132812,69.880859375L206.17337036132812,75.667520975L206.85337317132812,75.667520975L206.85337317132812,73.534189675L208.65338086132812,75.667520975L209.52003936132812,75.667520975L207.5333655613281,73.400858175L209.37337186132814,71.467519075Z" fill="#000000" fill-opacity="1" style="mix-blend-mode:passthrough"/></g><g><path d="M102.30659461757813,70.03955078125L100.22659301757812,75.66621928125L100.93325799757812,75.66621928125L101.45325721757813,74.21289018125L103.83992481757812,74.21289018125L104.35992381757812,75.66621928125L105.07992501757812,75.66621928125L103.01325941757813,70.03955078125L102.29325841757813,70.03955078125L102.30659461757813,70.03955078125ZM101.66659521757812,73.66621878125L102.66659501757812,70.87955713125L103.66659521757812,73.66621878125L101.66659521757812,73.66621878125Z" fill="#000000" fill-opacity="1" style="mix-blend-mode:passthrough"/></g><g><path d="M128.13335157148438,71.759724855C127.98668408148437,71.893056155,127.85335284148438,72.053059815,127.76001996148437,72.239725705L127.70668536148438,71.466389969L127.09335327148438,71.466389969L127.09335327148438,75.666391875L127.77335608148438,75.666391875L127.77335608148438,73.386393075C127.77335608148438,73.133056475,127.81335437148438,72.919728475,127.88002515148438,72.759724575C127.94669592148438,72.586395275,128.04002881148438,72.453053675,128.16002397148438,72.359720705C128.2800190714844,72.266387875,128.41336057148436,72.199717165,128.57335397148438,72.146382515C128.7200214714844,72.093047975,128.88002487148438,72.079711855,129.04001827148437,72.079711855L129.42668657148437,72.079711855L129.42668657148437,71.373046875C129.14668777148438,71.373046875,128.90668727148437,71.413045246,128.69334887148437,71.479715965C128.48001097148438,71.546386685,128.29334507148437,71.639719635,128.13335157148438,71.773050935L128.13335157148438,71.759724855Z" fill="#000000" fill-opacity="1" style="mix-blend-mode:passthrough"/></g><g><path d="M133.28006993632812,70.42592366425L132.69340002632813,70.42592366425L132.60006713632814,71.46592195625L131.86672973632812,71.46592195625L131.86672973632812,72.03925575625L132.60006713632814,72.03925575625L132.60006713632814,74.43925955625C132.60006713632814,74.74593065625,132.64006537632812,74.98593135625,132.73339831632813,75.17259595625C132.82673132632812,75.34592585625,132.96006263632813,75.47926805624999,133.1467285363281,75.54592795625C133.32005783632812,75.62592505625,133.53339623632812,75.65259785625,133.77339663632813,75.65259785625L134.44006323632811,75.65259785625L134.44006323632811,75.07926415625L133.96006223632813,75.07926415625C133.70672583632813,75.07926415625,133.52005993632812,75.03926565625,133.4267271363281,74.94593195625C133.32005783632812,74.85259965624999,133.28005973632813,74.67927025624999,133.28005973632813,74.42593335625L133.28005973632813,72.02592965625L134.46672563632814,72.02592965625L134.46672563632814,71.45259595625L133.28005973632813,71.45259595625L133.28005973632813,70.41259765625L133.28006993632812,70.42592366425Z" fill="#000000" fill-opacity="1" style="mix-blend-mode:passthrough"/></g><g><path d="M147.5999348436719,69.73291015625C147.46660360367187,69.73291015625,147.3465982936719,69.77290852725,147.26660156367188,69.86624145625C147.1866048086719,69.94623818625,147.13327026367188,70.05290728625,147.13327026367188,70.18623852625C147.13327026367188,70.31956976625,147.17326863467187,70.42623901625,147.26660156367188,70.51957189625C147.35993445367188,70.59956860625,147.46660360367187,70.65290319625,147.5999348436719,70.65290319625C147.73326617367186,70.65290319625,147.83993524367187,70.61290472625,147.93326807367188,70.51957189625C148.02660107367188,70.42623901625,148.06659942367187,70.31956976625,148.06659942367187,70.18623852625C148.06659942367187,70.05290728625,148.02660107367188,69.94623818625,147.93326807367188,69.86624145625C147.83993524367187,69.78624470125,147.73326617367186,69.73291015625,147.5999348436719,69.73291015625Z" fill="#000000" fill-opacity="1" style="mix-blend-mode:passthrough"/></g><g><path d="M177.61335233007813,71.64083859375C177.3333535300781,71.45417275975,177.00002023007812,71.36083984375,176.58668993007814,71.36083984375C176.20002213007814,71.36083984375,175.8666889300781,71.45417275975,175.57335395007811,71.64083859375C175.28001899007813,71.82750442375,175.0533548900781,72.08084094375,174.89335123007814,72.41417444375C174.73334757207812,72.74750754375,174.65335083007812,73.12083924375,174.65335083007812,73.56084184375C174.65335083007812,74.00084424375,174.73334757207812,74.38751174375,174.89335123007814,74.72084524375C175.0533548900781,75.05417874375,175.29335529007813,75.30751514375,175.57335395007811,75.48084454375C175.8666889300781,75.66751054375,176.20002213007814,75.76084374375,176.57335403007812,75.76084374375C176.89335103007812,75.76084374375,177.16002343007813,75.70750904375,177.40002443007813,75.60083964374999C177.64002423007813,75.49417064375,177.8400266300781,75.34750344375,178.00001983007812,75.16083764375C178.16002373007814,74.97417164375,178.28001883007812,74.74750714375,178.33335303007811,74.52083274375L177.6666867300781,74.52083274375C177.58669023007812,74.73417134375,177.45334813007813,74.90750094375,177.28001883007812,75.01417014375C177.10668943007812,75.13416504375,176.86668853007814,75.18749974375,176.57335403007812,75.18749974375C176.34668963007812,75.18749974375,176.13335153007813,75.13416504375,175.94668553007813,75.01417014375C175.76001963007812,74.89417454375,175.60001612007812,74.72083524375,175.49335718007814,74.48083474375C175.38668823007814,74.26749614375,175.33335364007812,74.01416964375,175.32002753007814,73.72083474375L178.4400222300781,73.72083474375C178.4400222300781,73.64083834375,178.4400222300781,73.58750394375,178.4400222300781,73.53416924375L178.4400222300781,73.37416574375C178.4400222300781,73.01417004375,178.37335153007814,72.68083694375,178.22668413007813,72.38750184375C178.09335303007813,72.08083087375,177.88001493007812,71.84083044375,177.61335233007813,71.65416461375L177.61335233007813,71.64083859375ZM175.32001752007812,73.20083594375C175.33335364007812,72.96083544375,175.40001416007811,72.76083354375,175.49334711007813,72.60084024375C175.6133421700781,72.38750184375,175.76000963007812,72.22750842375,175.94667553007812,72.12083941375C176.13334143007813,72.01417017375,176.34667943007813,71.94750976375,176.57334373007814,71.94750976375C176.92001343007811,71.94750976375,177.20001173007813,72.05417871375,177.4266765300781,72.28084296375C177.6533405300781,72.49418124375,177.77334573007812,72.80084204375,177.78667163007813,73.20084604375L175.32001752007812,73.20083594375Z" fill="#000000" fill-opacity="1" style="mix-blend-mode:passthrough"/></g><g><path d="M153.86664840898436,71.559712705C153.63998360898438,71.439717606,153.35998530898436,71.373046875,153.03997790898438,71.373046875C152.71997060898437,71.373046875,152.46664420898438,71.439717606,152.22664380898436,71.586385055C151.99997949898437,71.719716315,151.81331377898437,71.906382205,151.69330846898438,72.146382515L151.66664629898438,71.466379791L151.05331420898438,71.466379791L151.05331420898438,75.666381375L151.73331701898437,75.666381375L151.73331701898437,73.266377475C151.73331701898437,72.986378875,151.78665160898439,72.746378575,151.87998449898438,72.546376475C151.98665356898437,72.346374455,152.13332100898438,72.199706915,152.30665050898438,72.093047975C152.47998050898437,71.986378965,152.6799824089844,71.946380555,152.87998440898437,71.946380555C153.19998140898437,71.946380555,153.43998190898438,72.039713565,153.62664770898436,72.239715455C153.81331320898437,72.426381475,153.90664670898437,72.719716075,153.90664670898437,73.106384075L153.90664670898437,75.666381375L154.5866489089844,75.666381375L154.5866489089844,73.026377075C154.5866489089844,72.653045675,154.51997850898437,72.346374455,154.39998320898437,72.106373965C154.26665230898436,71.866373595,154.09331250898438,71.679707765,153.86664840898436,71.559712705Z" fill="#000000" fill-opacity="1" style="mix-blend-mode:passthrough"/></g><g><path d="M171.0533549519531,71.559712705C170.82669015195313,71.439717606,170.5466918519531,71.373046875,170.22668445195313,71.373046875C169.90667715195312,71.373046875,169.65335075195313,71.439717606,169.4133503519531,71.586385055C169.18668604195312,71.719716315,169.00002032195312,71.906382205,168.88001501195313,72.146382515L168.85335284195313,71.466379791L168.24002075195312,71.466379791L168.24002075195312,75.666381375L168.92002356195312,75.666381375L168.92002356195312,73.266377475C168.92002356195312,72.986378875,168.97335815195314,72.746378575,169.06669104195313,72.546376475C169.17336011195312,72.346374455,169.32002755195313,72.199706915,169.49335705195313,72.093047975C169.66668705195312,71.986378965,169.86668895195314,71.946380555,170.06669095195312,71.946380555C170.38668795195312,71.946380555,170.62668845195313,72.039713565,170.81335425195311,72.239715455C171.00001975195312,72.426381475,171.09335325195312,72.719716075,171.09335325195312,73.106384075L171.09335325195312,75.666381375L171.77335545195314,75.666381375L171.77335545195314,73.026377075C171.77335545195314,72.653045675,171.70668505195312,72.346374455,171.58668975195312,72.106373965C171.4533588519531,71.866373595,171.28001905195313,71.679707765,171.0533549519531,71.559712705Z" fill="#000000" fill-opacity="1" style="mix-blend-mode:passthrough"/></g><g><rect x="147.26663208007812" y="71.46630859375" width="0.6799999475479126" height="4.199999809265137" rx="0" fill="#000000" fill-opacity="1" style="mix-blend-mode:passthrough"/></g><g><path d="M143.57331275507812,73.40084814375C143.34664895507814,73.32085154375,143.09331225507813,73.25418064375,142.78665145507813,73.21418234375C142.54665115507814,73.18752004375,142.34664915507813,73.13418554375,142.19998165507812,73.06751494375C142.05331425507813,73.00084404374999,141.94664490507813,72.92084754375,141.87998449507813,72.82751464375C141.8266499050781,72.73418174375,141.78665149507813,72.62751254375,141.78665149507813,72.49418124375C141.78665149507813,72.33417755375,141.85332226507813,72.18751013375,141.9866534550781,72.09417724375C142.11998465507813,71.98750800375,142.33332315507812,71.94750976375,142.59998555507812,71.94750976375C142.86664805507812,71.94750976375,143.06665035507814,72.00084430375,143.21331765507813,72.12083941375C143.37332155507812,72.22750842375,143.45331815507814,72.38750184375,143.49331645507812,72.58750404375L144.15998265507812,72.58750404375C144.10664865507812,72.20083612375,143.9599811550781,71.89417517375,143.67998195507812,71.68083697375C143.41331985507813,71.46749877375,143.05331375507814,71.36083984375,142.59998555507812,71.36083984375C142.29331455507813,71.36083984375,142.02665185507811,71.41417438875,141.79998773507813,71.50750732375C141.57332354507813,71.61417642375,141.3999837050781,71.74750766375,141.27998858507812,71.92083734375C141.15999348507813,72.09416693375,141.10665893507812,72.30750513375,141.10665893507812,72.53416944375C141.10665893507812,72.72083504375,141.13332109507812,72.89416494375,141.19999185507814,73.04083244375C141.26666253507813,73.17416374375,141.3599955150781,73.29416894375,141.49332678507812,73.40082784375C141.62665814507812,73.49416064375,141.77332556507812,73.57415744375,141.94665521507812,73.62749214375C142.1333210550781,73.68082614375,142.33332315507812,73.72082474375,142.55998705507812,73.76082344375C142.77332545507812,73.78748514375,142.95999105507812,73.84082034375,143.10665865507812,73.89415434375C143.25332615507813,73.94748924375,143.37332155507812,74.01414964375,143.43999215507813,74.10749294375C143.51998905507813,74.20082564375,143.55998735507814,74.33415674375,143.55998735507814,74.50749704374999C143.55998735507814,74.64082814375,143.53332495507811,74.74749704375,143.46665385507814,74.85416604375C143.39998365507813,74.96083524375,143.30665065507813,75.04083204375,143.17331885507812,75.09416674375C143.0399880550781,75.14750094375,142.89332055507813,75.17416334375,142.70665455507813,75.17416334375C142.47999055507813,75.17416334375,142.27998855507812,75.13416504375,142.1333210550781,75.06749414375C141.9866534550781,74.98749754375,141.87998449507813,74.89416454375,141.79998773507813,74.77415914375C141.71999102507812,74.65416434375,141.66665643507812,74.52082254375,141.65332031507813,74.37415504375L140.95999145507812,74.37415504375C140.98665364107814,74.65415434375,141.06666054507812,74.88081814375,141.18665564507813,75.09415654375C141.31998696507813,75.29415874375,141.5066528350781,75.45415254375,141.75998926507813,75.57415774374999C142.01332605507812,75.68082664375,142.3199866550781,75.74748614375,142.70665455507813,75.74748614375C143.01332595507813,75.74748614375,143.29332475507812,75.69415234375,143.51998905507813,75.60082004375C143.75998875507813,75.49415064375,143.9333188550781,75.34748294375,144.0666603550781,75.16081714375C144.20000145507814,74.97415134375,144.25332615507813,74.73415064375,144.25332615507813,74.46748854375C144.25332615507813,74.17415354375,144.19999125507812,73.94748924375,144.07999655507814,73.77415964375C143.96000145507813,73.60082984375,143.78666165507812,73.48082474375,143.57331275507812,73.40084814375Z" fill="#000000" fill-opacity="1" style="mix-blend-mode:passthrough"/></g><g><rect x="137.37338256835938" y="71.46630859375" width="0.6799999475479126" height="4.199999809265137" rx="0" fill="#000000" fill-opacity="1" style="mix-blend-mode:passthrough"/></g><g><path d="M159.26666233320313,71.373046875C158.93332923320312,71.373046875,158.6399942332031,71.439717606,158.39999373320313,71.573048905C158.15999341320313,71.706380215,157.98666370320313,71.893046025,157.85332232320312,72.106384275C157.73332721320313,72.319722415,157.66665649320313,72.573048575,157.66665649320313,72.866383575C157.66665649320313,73.159718475,157.73332721320313,73.399718975,157.85332232320312,73.626382875C157.93331903320313,73.759714575,158.0266518632031,73.879719475,158.14665717320312,73.986378475L157.41331990420312,74.693043675L157.41331990420312,74.879709675C157.49331664320312,74.946380175,157.57332356320313,75.013040575,157.66665649320313,75.079711475C157.74665320320312,75.133046175,157.83998611320314,75.186380575,157.94665521320312,75.226378875C157.85332232320312,75.293049775,157.7733255932031,75.346374275,157.70665487320312,75.413044475C157.58665971320312,75.546376675,157.49331664320312,75.679707575,157.4399922642031,75.826374975C157.38665771420312,75.973042475,157.37332153320312,76.106373775,157.37332153320312,76.239704175C157.37332153320312,76.519703875,157.45331827520312,76.759703675,157.59998572320313,76.959706775C157.75998935320314,77.146371375,157.97331744320311,77.293038875,158.25331610320313,77.386372575C158.5466511332031,77.479705375,158.87998423320312,77.533040075,159.25331613320313,77.533040075C159.67998243320312,77.533040075,160.02665133320312,77.466369175,160.29331443320314,77.333038375C160.55997703320313,77.199706075,160.75997873320313,77.039703375,160.8799843332031,76.839700675C161.01331523320312,76.639698075,161.06665013320313,76.413033975,161.06665013320313,76.186370375C161.06665013320313,75.933033975,161.01331523320312,75.719705575,160.91998263320312,75.546366175C160.81331353320311,75.373035875,160.6533198332031,75.226368675,160.42664523320312,75.133036175C160.19998143320313,75.026366975,159.89331053320313,74.973031975,159.51997873320312,74.946370075C159.23997983320314,74.919707975,159.01331563320312,74.906371575,158.83997573320312,74.879699475C158.67997213320314,74.853037075,158.54664073320313,74.826364475,158.45330803320311,74.799702675C158.35997498320313,74.773040575,158.29330438320312,74.733031975,158.2399697332031,74.693033675C158.2399697332031,74.693033675,158.22663366320313,74.679697075,158.21330756320313,74.666371375L158.66663613320313,74.293039775C158.83996553320313,74.346374275,159.03996753320314,74.373036575,159.25330593320314,74.373036575C159.59997563320312,74.373036575,159.89331053320313,74.306365775,160.13331033320313,74.186370875C160.3733112332031,74.053039275,160.54664083320313,73.866373575,160.66664603320314,73.653034975C160.78664083320314,73.426370875,160.85331173320313,73.173034475,160.85331173320313,72.893035775C160.85331173320313,72.613037075,160.78664083320314,72.359700325,160.66664603320314,72.133036135C160.65330983320314,72.093037905,160.62664773320313,72.066365425,160.59997533320313,72.026367185L161.39997343320312,71.986368655L161.39997343320312,71.479705805L159.87997393320313,71.479705805C159.69330783320314,71.413035072,159.47997023320312,71.386372883,159.23996963320312,71.386372883L159.26666233320313,71.373046875ZM159.38666773320313,75.466379175C159.79999783320312,75.493041475,160.07999683320313,75.559711975,160.21333763320314,75.679717575C160.36000513320312,75.81304887499999,160.42667623320312,75.986389175,160.42667623320312,76.199716075C160.42667623320312,76.359720675,160.37334153320313,76.493051075,160.2800088332031,76.613047075C160.18667553320313,76.733041775,160.05334473320312,76.81304887499999,159.88000463320313,76.879709275C159.7066745332031,76.946379675,159.50667313320312,76.973041575,159.26667263320311,76.973041575C159.02667223320313,76.973041575,158.8133442332031,76.946379675,158.62666823320313,76.879709275C158.44000233320313,76.826374075,158.29333490320312,76.733041775,158.18666571320313,76.613047075C158.07999670320314,76.493051075,158.03999823320314,76.346383575,158.03999823320314,76.173044675C158.03999823320314,76.039713375,158.07999670320314,75.879709675,158.17332965320313,75.733042275C158.25332635320314,75.599710975,158.39999373320313,75.493041475,158.61333183320312,75.386372575C158.8266703332031,75.426371075,159.07999663320314,75.453042975,159.38666773320313,75.466379175ZM159.97333763320313,73.559712675C159.81333353320312,73.719716275,159.57333373320313,73.786376975,159.2800088332031,73.786376975C158.98668383320313,73.786376975,158.7600096332031,73.706380175,158.58668003320312,73.559712675C158.41335023320312,73.399708975,158.33334344320312,73.173044575,158.33334344320312,72.866383575C158.33334344320312,72.559722675,158.4266764332031,72.319712165,158.6000058332031,72.173054995C158.7733357332031,72.026397585,159.01333603320313,71.946390745,159.29333483320312,71.946390745C159.6000058332031,71.946390745,159.82667013320312,72.026387515,159.9866635332031,72.173054995C160.14666703320313,72.333058535,160.24000023320312,72.559722675,160.24000023320312,72.866383575C160.24000023320312,73.173044575,160.16000363320313,73.413055175,159.9866635332031,73.559712675L159.97333763320313,73.559712675Z" fill="#000000" fill-opacity="1" style="mix-blend-mode:passthrough"/></g><g><path d="M182.30668126445312,70.42592366425L181.72001135445313,70.42592366425L181.62667846445314,71.46592195625L180.89334106445312,71.46592195625L180.89334106445312,72.03925575625L181.62667846445314,72.03925575625L181.62667846445314,74.43925955625C181.62667846445314,74.74593065625,181.66667670445312,74.98593135625,181.76000964445313,75.17259595625C181.85334265445312,75.34592585625,181.98667396445313,75.47926805624999,182.1733398644531,75.54592795625C182.34666916445312,75.62592505625,182.56000756445312,75.65259785625,182.80000796445313,75.65259785625L183.46667456445311,75.65259785625L183.46667456445311,75.07926415625L182.98667356445313,75.07926415625C182.73333716445313,75.07926415625,182.54667126445312,75.03926565625,182.4533384644531,74.94593195625C182.34666916445312,74.85259965624999,182.30667106445313,74.67927025624999,182.30667106445313,74.42593335625L182.30667106445313,72.02592965625L183.49333696445314,72.02592965625L183.49333696445314,71.45259595625L182.30667106445313,71.45259595625L182.30667106445313,70.41259765625L182.30668126445312,70.42592366425Z" fill="#000000" fill-opacity="1" style="mix-blend-mode:passthrough"/></g><g><path d="M137.72011306632814,69.73291015625C137.58678182632812,69.73291015625,137.46677651632814,69.77290852725,137.38677978632813,69.86624145625C137.30678303132814,69.94623818625,137.25344848632812,70.05290728625,137.25344848632812,70.18623852625C137.25344848632812,70.31956976625,137.29344685732812,70.42623901625,137.38677978632813,70.51957189625C137.48011267632813,70.59956860625,137.58678182632812,70.65290319625,137.72011306632814,70.65290319625C137.85344439632811,70.65290319625,137.96011346632812,70.61290472625,138.05344629632813,70.51957189625C138.14677929632813,70.42623901625,138.18677764632812,70.31956976625,138.18677764632812,70.18623852625C138.18677764632812,70.05290728625,138.14677929632813,69.94623818625,138.05344629632813,69.86624145625C137.96011346632812,69.78624470125,137.85344439632811,69.73291015625,137.72011306632814,69.73291015625Z" fill="#000000" fill-opacity="1" style="mix-blend-mode:passthrough"/></g></g><g><path d="M70.80002803125001,68.4275054375C78.64002603125,65.2408374375,81.97335403125,56.080833437500004,78.73336003125,48.3608374375C78.48002603124999,47.760836437500004,77.93336103125,47.1208374375,78.40002403125,46.4808378375C78.46669003125001,46.3875045375,78.81336203125,46.0541734375,78.90668903125001,46.0141754375C79.29335803125,45.8408384375,79.42669303125,46.2141771375,79.65335803125001,46.2541751375C79.80002603125,46.2808408375,79.96002603125001,46.2541751375,80.08002103125,46.1741733375C80.98669403125001,45.3608389375,82.06669203125,44.5341739375,82.17335903125,43.360839337499996C82.24002503125,42.6541743375,82.09335703125001,41.9741706375,81.61335403125,41.4541716375C80.36002703125,40.1208388375,79.04002803125,38.7475075375,77.56002403125001,37.3608398475C76.98669003124999,36.8675079375,76.36002303125,36.6541748125,75.58669503125,36.7341715485C74.38669203124999,36.8675028375,73.66669303124999,37.8275041375,72.94669303124999,38.7475025375C72.48002403125,39.2941689375,73.29335803125,39.507502037500004,73.06669203125,40.0675046375C72.98669403125,40.2541704375,72.49335903125001,40.7208399375,72.30669403125,40.800836537500004C71.68002703125,41.0675044375,70.80002803125001,40.5075016375,70.17336103125,40.2808377375C60.34669303125,36.8141733705,50.68002843125,44.6141710375,50.84002833125,54.7341744375C51.00002813125,64.9208414375,61.08002903125,72.3875004375,70.80002803125001,68.4275054375ZM65.22669403124999,47.8541704375C70.40002603125001,47.6808354375,73.46669603125,53.5341744375,70.90669203125,57.8941684375C68.50669703125,61.987503437499996,62.746696031249996,62.1741654375,60.10669503125,58.2141664375C57.306694031250004,53.9874994375,60.05336003125,48.0275004375,65.21336203125,47.8541664375L65.22669403124999,47.8541704375ZM84.37336003125,75.6408424375C73.70669403125,85.7875064375,57.29336203125,85.8541684375,46.57336093125,75.7475054375C45.74669443125,74.9741784375,44.34669423125,73.6675144375,44.02669461125,72.5875054375C43.29336107125,70.1341784375,45.26669403125,67.8408434375,47.70669433125,67.69417543750001C48.81336073125,67.6275064375,49.98669433125,67.9741724375,50.906693931250004,68.5741804375C51.57336093125,69.01418343750001,52.13335993125,69.6675114375,52.74669453125,70.1875074375C59.88002603125,76.2808454375,70.14669203125,76.4808424375,77.49336203125,70.65417843750001C79.12002203125,69.3741764375,79.98669003124999,67.9741724375,82.25335303125,67.7075114375C84.09335303124999,67.4941714375,85.93335303125,68.3875144375,86.65335103125,70.1475144375C87.64003003125,72.5875164375,85.97336203124999,74.10751743750001,84.36002303125,75.6408504375L84.37336003125,75.6408424375Z" fill="#000000" fill-opacity="1" style="mix-blend-mode:passthrough"/></g></g></g></svg>