<svg xmlns="http://www.w3.org/2000/svg" xmlns:xlink="http://www.w3.org/1999/xlink" fill="none" version="1.1" width="24" height="24" viewBox="0 0 24 24"><defs><clipPath id="master_svg0_169_2103"><rect x="0" y="0" width="24" height="24" rx="0"/></clipPath></defs><g clip-path="url(#master_svg0_169_2103)"><g><path d="M15.7069654,6.70696551Q15.8475895,6.5663414,15.923694600000001,6.38260701Q15.9998002,6.19887266,15.9998002,6Q15.9997997,5.901528291,15.9805889,5.8049487Q15.961378100000001,5.70836911,15.923694099999999,5.61739314Q15.886010599999999,5.52641714,15.8313026,5.44454092Q15.7765951,5.3626647,15.7069654,5.29303467Q15.6373348,5.22340465,15.5554585,5.16869676Q15.4735823,5.11398882,15.3826065,5.07630533Q15.291630699999999,5.03862178,15.1950507,5.0194109099999995Q15.0984716,5.00020003,15,5.00019997Q14.8011274,5.00020003,14.617393,5.07630527Q14.433658600000001,5.15241045,14.2930346,5.29303449L14.2928934,5.29289323L8.29289323,11.2928934Q8.15224099,11.4335451,8.0761205,11.617316200000001Q8.00000012,11.8010874,8.00000006,11.999999500000001Q8.00000012,12.1989117,8.07612056,12.382682800000001Q8.15224099,12.5664544,8.29289323,12.7071066L14.2928934,18.707106L14.2930341,18.706964Q14.433658099999999,18.847589,14.617392500000001,18.923695000000002Q14.8011274,18.9998,15,18.9998Q15.0984716,18.9998,15.1950507,18.980589000000002Q15.291630699999999,18.961378,15.3826065,18.923693999999998Q15.4735823,18.886011,15.5554585,18.831303Q15.6373348,18.776594,15.706965,18.706964Q15.7765946,18.637334,15.8313026,18.555458Q15.886010200000001,18.473581,15.923694099999999,18.382606Q15.961378100000001,18.291629999999998,15.9805889,18.195050000000002Q15.9997997,18.098471,15.9998002,18Q15.9998002,17.801127,15.9236951,17.617393Q15.8475895,17.433659,15.7069654,17.293035L15.7071066,17.292893L10.4142133,12L15.7071066,6.70710677L15.7069654,6.70696551Z" fill-rule="evenodd" fill="#4B5F75" fill-opacity="1"/></g></g></svg>