<?xml version="1.0" encoding="utf-8"?>
<!-- Generator: Adobe Illustrator 27.0.0, SVG Export Plug-In . SVG Version: 6.00 Build 0)  -->
<svg version="1.1" id="图层_2" xmlns="http://www.w3.org/2000/svg" xmlns:xlink="http://www.w3.org/1999/xlink" x="0px" y="0px"
	 viewBox="0 0 500 290" style="enable-background:new 0 0 500 290;" xml:space="preserve">
<style type="text/css">
	.st0{fill:#39A6FF;}
	.st1{fill:#AED7FF;}
	.st2{fill:#0077FD;}
	.st3{fill:#FFFFFF;}
	.st4{fill:#CDE4F6;}
	.st5{fill:#64B0FF;}
	.st6{fill:#FFFFF7;}
	.st7{fill:#0673FF;}
	.st8{fill:#030303;}
</style>
<g>
	<g>
		<path class="st0" d="M66.87,206.05L66.87,206.05c-5.44-5.44-5.44-14.25,0-19.69l102.4-102.4c5.44-5.44,14.25-5.44,19.69,0l0,0
			c5.44,5.44,5.44,14.25,0,19.69l-102.4,102.4C81.12,211.48,72.31,211.48,66.87,206.05z"/>
		<path class="st1" d="M188.96,206.05L188.96,206.05c-5.44,5.44-14.25,5.44-19.69,0l-102.4-102.4c-5.44-5.44-5.44-14.25,0-19.69l0,0
			c5.44-5.44,14.25-5.44,19.69,0l102.4,102.4C194.4,191.79,194.4,200.61,188.96,206.05z"/>
		<path class="st2" d="M184.6,128h-26.54c-7.26,0-13.14-5.88-13.14-13.14V88.32c0-9.05-6.83-16.96-15.87-17.55
			c-9.9-0.64-18.13,7.2-18.13,16.96v27.12c0,7.26-5.88,13.14-13.14,13.14H71.23c-9.05,0-16.96,6.83-17.55,15.87
			c-0.64,9.9,7.2,18.13,16.96,18.13h27.12c7.26,0,13.14,5.88,13.14,13.14v26.54c0,9.05,6.83,16.96,15.87,17.55
			c9.9,0.64,18.13-7.2,18.13-16.96v-27.12c0-7.26,5.88-13.14,13.14-13.14h27.12c9.76,0,17.6-8.23,16.96-18.13
			C201.56,134.83,193.65,128,184.6,128z"/>
		<g>
			<path class="st3" d="M127.92,150.96c-8.75,0-17.16-2.28-23.68-6.43c-1.39-0.88-1.8-2.73-0.92-4.11c0.88-1.39,2.73-1.8,4.11-0.92
				c5.58,3.54,12.85,5.5,20.48,5.5s14.91-1.95,20.48-5.5c1.39-0.88,3.23-0.47,4.11,0.92c0.88,1.39,0.47,3.23-0.92,4.11
				C145.08,148.68,136.67,150.96,127.92,150.96z"/>
		</g>
	</g>
	<g>
		<path class="st8" d="M286.28,138.16c-4.18,1.69-8.07,2.66-11.66,2.92c-3.6,0.26-6.84-0.08-9.73-1.02
			c-2.89-0.94-5.36-2.38-7.41-4.31c-2.05-1.93-3.62-4.22-4.7-6.87c-1.09-2.65-1.63-5.55-1.63-8.68c0-3.09,0.5-5.96,1.51-8.59
			c1-2.63,2.48-4.91,4.43-6.84c1.95-1.93,4.31-3.44,7.08-4.52c2.77-1.08,5.93-1.62,9.46-1.6c3.54,0.02,7.41,0.67,11.63,1.96
			c0,1.69,0,3.39,0,5.09c0,1.71,0,3.41,0,5.09c-3.34-1.33-6.42-2.09-9.25-2.29c-2.83-0.2-5.3,0.1-7.41,0.9
			c-2.11,0.8-3.76,2.08-4.94,3.83c-1.19,1.75-1.78,3.93-1.78,6.54c0,2.29,0.43,4.32,1.3,6.09c0.86,1.77,2.08,3.15,3.65,4.16
			c1.57,1.01,3.35,1.51,5.36,1.51c0.68,0,1.37-0.03,2.05-0.09c0.68-0.06,1.35-0.17,1.99-0.33c0-1.04,0-2.11,0-3.19s0-2.15,0-3.19
			c-1.13,0-2.25,0-3.37,0c-1.13,0-2.25,0-3.38,0c0-1.49,0-2.98,0-4.49c0-1.51,0-3,0-4.49c2.77,0,5.57,0,8.41,0c2.83,0,5.64,0,8.41,0
			c0,3.7,0,7.43,0,11.21C286.28,130.73,286.28,134.47,286.28,138.16z"/>
		<path class="st8" d="M314.6,140.33c0-0.32,0-0.63,0-0.93s0-0.59,0-0.87c-1.01,0.84-2.14,1.5-3.41,1.96
			c-1.27,0.46-2.62,0.69-4.07,0.69c-2.05,0-3.98-0.39-5.79-1.18c-1.81-0.78-3.41-1.91-4.79-3.38c-1.39-1.47-2.47-3.2-3.25-5.21
			c-0.78-2.01-1.18-4.24-1.18-6.69c0-2.49,0.39-4.74,1.18-6.75c0.78-2.01,1.87-3.73,3.25-5.15c1.39-1.43,2.98-2.53,4.79-3.31
			c1.81-0.78,3.72-1.18,5.73-1.18c1.45,0,2.81,0.23,4.1,0.69c1.29,0.46,2.43,1.1,3.44,1.9c0-0.32,0-0.62,0-0.9c0-0.28,0-0.56,0-0.84
			c1.65,0,3.31,0,5,0s3.33,0,4.94,0c0,5.14,0,10.34,0,15.58c0,5.24,0,10.44,0,15.58c-1.61,0-3.25,0-4.94,0
			S316.25,140.33,314.6,140.33z M308.46,132.38c1.93,0,3.47-0.7,4.64-2.11c1.16-1.41,1.75-3.25,1.75-5.55
			c0-2.29-0.58-4.13-1.75-5.51c-1.17-1.39-2.71-2.08-4.64-2.08c-1.97,0-3.53,0.68-4.67,2.05c-1.14,1.37-1.72,3.21-1.72,5.54
			c0,2.33,0.57,4.19,1.72,5.57C304.93,131.68,306.49,132.38,308.46,132.38z"/>
		<path class="st8" d="M334.91,140.33c0-3.7,0-7.41,0-11.15c0-3.74,0-7.43,0-11.09c-0.8,0-1.62,0-2.44,0c-0.82,0-1.64,0-2.44,0
			c0-1.49,0-2.97,0-4.46c0-1.49,0-2.97,0-4.46c0.8,0,1.62,0,2.44,0c0.82,0,1.64,0,2.44,0c0-1.41,0-2.8,0-4.19s0-2.76,0-4.13
			c1.65,0,3.31,0,5,0s3.33,0,4.94,0c0,1.37,0,2.74,0,4.13s0,2.78,0,4.19c0.92,0,1.87,0,2.83,0c0.96,0,1.91,0,2.83,0
			c0,1.49,0,2.97,0,4.46c0,1.49,0,2.97,0,4.46c-0.92,0-1.87,0-2.83,0c-0.96,0-1.91,0-2.83,0c0,3.66,0,7.35,0,11.09
			c0,3.74,0,7.45,0,11.15c-1.61,0-3.25,0-4.94,0S336.56,140.33,334.91,140.33z"/>
		<path class="st8" d="M356.13,140.33c0-7.27,0-14.6,0-22c0-7.39,0-14.73,0-22c1.65,0,3.31,0,5,0c1.69,0,3.33,0,4.94,0
			c0,2.37,0,4.77,0,7.2c0,2.43,0,4.83,0,7.2c1.08-0.76,2.3-1.36,3.65-1.78c1.35-0.42,2.8-0.63,4.37-0.63c2.29,0,4.31,0.52,6.06,1.57
			c1.75,1.05,3.11,2.54,4.1,4.49c0.98,1.95,1.48,4.29,1.48,7.02c0,3.13,0,6.29,0,9.46c0,3.17,0,6.33,0,9.46c-1.61,0-3.25,0-4.94,0
			s-3.36,0-5,0c0-2.89,0-5.83,0-8.8c0-2.97,0-5.91,0-8.8c0-1.61-0.37-2.9-1.12-3.89c-0.74-0.98-1.92-1.48-3.53-1.48
			c-1.61,0-2.85,0.46-3.74,1.39c-0.88,0.93-1.33,2.25-1.33,3.98c0,2.89,0,5.83,0,8.8c0,2.97,0,5.91,0,8.8c-1.61,0-3.25,0-4.94,0
			C359.44,140.33,357.77,140.33,356.13,140.33z"/>
		<path class="st8" d="M419.23,138.88c-2.77,1.17-5.52,1.89-8.26,2.17c-2.73,0.28-5.31,0.13-7.74-0.45
			c-2.43-0.58-4.59-1.58-6.48-2.98c-1.89-1.41-3.37-3.19-4.43-5.36c-1.07-2.17-1.6-4.68-1.6-7.53c0-2.37,0.39-4.55,1.18-6.54
			c0.78-1.99,1.9-3.74,3.34-5.24c1.45-1.51,3.15-2.67,5.12-3.5c1.97-0.82,4.12-1.24,6.45-1.24c2.09,0,3.98,0.34,5.67,1.02
			c1.69,0.68,3.15,1.64,4.4,2.86c1.24,1.23,2.25,2.68,3.01,4.37c0.76,1.69,1.24,3.54,1.45,5.55c0.2,2.01,0.08,4.14-0.36,6.39
			c-3.29,0-6.61,0-9.94,0c-3.34,0-6.65,0-9.94,0c0.76,1.53,2.04,2.61,3.83,3.25c1.79,0.64,3.92,0.84,6.39,0.6
			c2.47-0.24,5.11-0.88,7.92-1.93c0,1.41,0,2.83,0,4.28C419.23,136.05,419.23,137.48,419.23,138.88z M406.57,117.13
			c-1.17,0-2.24,0.32-3.22,0.96c-0.98,0.64-1.74,1.63-2.26,2.95c1.81,0,3.62,0,5.45,0c1.83,0,3.65,0,5.45,0
			c-0.48-1.37-1.2-2.36-2.14-2.98C408.91,117.44,407.82,117.13,406.57,117.13z"/>
		<path class="st8" d="M427.06,140.33c0-5.14,0-10.34,0-15.58c0-5.24,0-10.44,0-15.58c1.65,0,3.32,0,5,0s3.33,0,4.94,0
			c0,0.28,0,0.56,0,0.84c0,0.28,0,0.56,0,0.84c1.24-0.88,2.65-1.55,4.22-1.99c1.57-0.44,3.27-0.56,5.12-0.36c0,1.61,0,3.23,0,4.88
			c0,1.65,0,3.28,0,4.88c-3.17-0.44-5.52-0.17-7.05,0.81c-1.53,0.98-2.29,2.58-2.29,4.79c0,2.69,0,5.42,0,8.2s0,5.53,0,8.26
			c-1.61,0-3.25,0-4.94,0S428.71,140.33,427.06,140.33z"/>
		<path class="st8" d="M280.13,179.41c0,3.05-0.79,5.53-2.38,7.44c-1.59,1.91-3.72,3.28-6.39,4.13c-2.67,0.84-5.66,1.21-8.95,1.11
			c-3.29-0.1-6.65-0.61-10.06-1.54c0-1.73,0-3.46,0-5.18c0-1.73,0-3.46,0-5.18c3.13,1.13,5.99,1.83,8.56,2.11
			c2.57,0.28,4.62,0.17,6.15-0.33c1.53-0.5,2.29-1.36,2.29-2.56c0-0.84-0.42-1.54-1.27-2.08c-0.84-0.54-1.94-1.03-3.28-1.48
			c-1.35-0.44-2.76-0.95-4.25-1.54c-1.49-0.58-2.9-1.33-4.25-2.23c-1.35-0.9-2.44-2.09-3.28-3.56c-0.84-1.47-1.27-3.3-1.27-5.51
			c0-2.73,0.72-5.04,2.17-6.93c1.45-1.89,3.4-3.31,5.88-4.28c2.47-0.96,5.28-1.45,8.44-1.45c3.15,0,6.42,0.48,9.79,1.45
			c0,1.73,0,3.46,0,5.18c0,1.73,0,3.46,0,5.18c-2.81-1.21-5.39-1.94-7.74-2.2c-2.35-0.26-4.23-0.14-5.63,0.36
			c-1.41,0.5-2.11,1.32-2.11,2.44c0,0.8,0.42,1.47,1.27,1.99c0.84,0.52,1.94,0.99,3.28,1.42c1.35,0.42,2.76,0.93,4.25,1.51
			c1.49,0.58,2.9,1.35,4.25,2.29c1.35,0.94,2.44,2.17,3.28,3.68C279.71,175.16,280.13,177.08,280.13,179.41z"/>
		<path class="st8" d="M288.15,191.77c0-3.7,0-7.41,0-11.15c0-3.74,0-7.43,0-11.09c-0.8,0-1.62,0-2.44,0c-0.82,0-1.64,0-2.44,0
			c0-1.49,0-2.97,0-4.46s0-2.97,0-4.46c0.8,0,1.62,0,2.44,0c0.82,0,1.64,0,2.44,0c0-1.41,0-2.8,0-4.19c0-1.39,0-2.76,0-4.13
			c1.65,0,3.31,0,5,0s3.33,0,4.94,0c0,1.37,0,2.74,0,4.13c0,1.39,0,2.78,0,4.19c0.92,0,1.87,0,2.83,0c0.96,0,1.91,0,2.83,0
			c0,1.49,0,2.97,0,4.46s0,2.97,0,4.46c-0.92,0-1.87,0-2.83,0c-0.96,0-1.91,0-2.83,0c0,3.66,0,7.35,0,11.09c0,3.74,0,7.45,0,11.15
			c-1.61,0-3.25,0-4.94,0S289.79,191.77,288.15,191.77z"/>
		<path class="st8" d="M329.55,191.77c0-0.32,0-0.63,0-0.93c0-0.3,0-0.59,0-0.87c-1.01,0.84-2.14,1.5-3.41,1.96
			c-1.27,0.46-2.62,0.69-4.07,0.69c-2.05,0-3.98-0.39-5.79-1.18c-1.81-0.78-3.41-1.91-4.79-3.37c-1.39-1.47-2.47-3.2-3.25-5.21
			c-0.78-2.01-1.18-4.24-1.18-6.69c0-2.49,0.39-4.74,1.18-6.75c0.78-2.01,1.87-3.73,3.25-5.15c1.39-1.43,2.98-2.53,4.79-3.31
			c1.81-0.78,3.72-1.18,5.73-1.18c1.45,0,2.81,0.23,4.1,0.69c1.29,0.46,2.43,1.1,3.44,1.9c0-0.32,0-0.62,0-0.9c0-0.28,0-0.56,0-0.84
			c1.65,0,3.31,0,5,0s3.33,0,4.94,0c0,5.14,0,10.34,0,15.58c0,5.24,0,10.44,0,15.58c-1.61,0-3.25,0-4.94,0
			S331.2,191.77,329.55,191.77z M323.4,183.81c1.93,0,3.47-0.7,4.64-2.11c1.16-1.41,1.75-3.25,1.75-5.55s-0.58-4.13-1.75-5.51
			c-1.17-1.39-2.71-2.08-4.64-2.08c-1.97,0-3.53,0.68-4.67,2.05c-1.14,1.37-1.72,3.21-1.72,5.54c0,2.33,0.57,4.19,1.72,5.57
			C319.88,183.12,321.43,183.81,323.4,183.81z"/>
		<path class="st8" d="M346.61,191.77c0-5.14,0-10.34,0-15.58c0-5.24,0-10.44,0-15.58c1.65,0,3.32,0,5,0s3.33,0,4.94,0
			c0,0.28,0,0.56,0,0.84c0,0.28,0,0.56,0,0.84c1.24-0.88,2.65-1.55,4.22-1.99c1.57-0.44,3.27-0.56,5.12-0.36c0,1.61,0,3.23,0,4.88
			c0,1.65,0,3.28,0,4.88c-3.17-0.44-5.52-0.17-7.05,0.81c-1.53,0.98-2.29,2.58-2.29,4.79c0,2.69,0,5.42,0,8.2c0,2.77,0,5.53,0,8.26
			c-1.61,0-3.25,0-4.94,0S348.25,191.77,346.61,191.77z"/>
	</g>
</g>
</svg>
