<svg xmlns="http://www.w3.org/2000/svg" xmlns:xlink="http://www.w3.org/1999/xlink" fill="none" version="1.1" width="120" height="44.000038146972656" viewBox="0 0 120 44.000038146972656"><g><g><path d="M4.007870174441528,40.087297952163695C2.3593599844415283,38.4756989521637,2.3593599844415283,35.8656979521637,4.007870174441528,34.2541009521637L35.03869947444153,3.9181098521636963C36.687197474441525,2.3065099721636964,39.35689847444153,2.3065099721636964,41.00540047444153,3.9181098521636963C42.65389947444153,5.5297098521636965,42.65389947444153,8.139670652163696,41.00540047444153,9.751270552163696L9.974630574441528,40.087297952163695C8.326120574441529,41.6958979521637,5.656380174441528,41.6958979521637,4.007870174441528,40.087297952163695Z" fill="#39A6FF" fill-opacity="1" style="mix-blend-mode:passthrough"/></g><g><path d="M41.00540047444153,40.087297952163695C39.35689847444153,41.69889695216369,36.687197474441525,41.69889695216369,35.03869947444153,40.087297952163695L4.007870174441528,9.751270552163696C2.3593599844415283,8.139670652163696,2.3593599844415283,5.5297098521636965,4.007870174441528,3.9181098521636963C5.656380174441528,2.3065099721636964,8.326120574441529,2.3065099721636964,9.974630574441528,3.9181098521636963L41.00540047444153,34.2541009521637C42.65389947444153,35.862699952163695,42.65389947444153,38.4756989521637,41.00540047444153,40.087297952163695Z" fill="#AED7FF" fill-opacity="1" style="mix-blend-mode:passthrough"/></g><g><path d="M39.684399,16.9652L31.641899,16.9652C29.441799,16.9652,27.66,15.2233,27.66,13.0725L27.66,5.2100301C27.66,2.52896,25.5903,0.185625,22.8508,0.0108389C19.8508,-0.17876101,17.3568,2.1438401,17.3568,5.0352402L17.3568,13.0695C17.3568,15.2203,15.575,16.962299,13.3749,16.962299L5.32935,16.962299C2.58688,16.962299,0.189878,18.985701,0.0110871,21.663799C-0.182855,24.5966,2.19294,27.0348,5.1505599,27.0348L13.3689,27.0348C15.5689,27.0348,17.3507,28.776699,17.3507,30.9275L17.3507,38.790001C17.3507,41.471001,19.4205,43.8144,22.159901,43.989201C25.16,44.178799,27.6539,41.856201,27.6539,38.964802L27.6539,30.9305C27.6539,28.779699,29.435801,27.037701,31.635799,27.037701L39.854099,27.037701C42.811699,27.037701,45.1875,24.5996,44.993599,21.6667C44.823898,18.9886,42.426899,16.9652,39.684399,16.9652Z" fill="#0077FD" fill-opacity="1" style="mix-blend-mode:passthrough"/></g><g><path d="M22.5081997154541,23.76720050041504C19.856599815454103,23.76720050041504,17.3080997154541,23.09169960041504,15.332300185454102,21.86230090041504C14.911100387554102,21.60160060041504,14.786800385454102,21.053499220415038,15.0535001754541,20.64469910041504C15.320199965454101,20.23290061951504,15.880800245454102,20.11140060041504,16.298999815454103,20.37210083041504C17.9899006154541,21.42090030041504,20.193000815454102,22.00149920041504,22.5051002154541,22.00149920041504C24.817300815454104,22.00149920041504,27.023399215454102,21.42379950041504,28.711300215454102,20.37210083041504C29.132499215454104,20.11140060041504,29.690100215454102,20.23290061951504,29.956800215454102,20.64469910041504C30.223400215454102,21.056499480415038,30.0991992154541,21.60160060041504,29.6779992154541,21.86230090041504C27.7082992154541,23.09169960041504,25.1597002154541,23.76720050041504,22.5081997154541,23.76720050041504Z" fill="#FFFFFF" fill-opacity="1"/></g><g><path d="M70.49620019628907,19.97520024694824C69.22949979628906,20.475900246948243,68.05069729628906,20.763201246948242,66.96279909628906,20.840200246948243C65.87190249628907,20.917299246948243,64.89009859628906,20.81649924694824,64.01429749628906,20.538099246948242C63.138500196289066,20.25959924694824,62.38999939628906,19.83300024694824,61.76879879628906,19.261200246948242C61.14759829628906,18.68950124694824,60.67179870628906,18.011100746948244,60.34450149628906,17.22599984694824C60.01419830628906,16.440999946948242,59.85060119628906,15.581800446948243,59.85060119628906,14.654600146948242C59.85060119628906,13.739199646948242,60.00210189628906,12.888899846948242,60.30820083628906,12.109800346948242C60.611198426289064,11.330699946948242,61.05969999628906,10.655200046948242,61.650600396289065,10.083399746948242C62.24150089628906,9.511670146948243,62.95669939628906,9.064339636948242,63.796100596289065,8.744389536948242C64.63549809628907,8.424440386948243,65.59310149628907,8.264470100448243,66.66280369628906,8.270389556888242C67.73560329628906,8.276320457448243,68.90830229628907,8.468879696948242,70.18710319628906,8.851039886948243C70.18710319628906,9.351699846948243,70.18710319628906,9.855330446948242,70.18710319628906,10.359000246948241C70.18710319628906,10.865500446948243,70.18710319628906,11.369199746948242,70.18710319628906,11.866900446948243C69.17500309628906,11.472900346948242,68.24159999628907,11.247699746948243,67.38400269628906,11.188500446948243C66.52649689628906,11.129199946948242,65.77790069628907,11.218099546948242,65.13849639628906,11.455100046948242C64.49909969628906,11.692099546948242,63.999099696289065,12.071299546948243,63.64149859628906,12.589699746948241C63.28089909628906,13.108200046948241,63.10210039628906,13.753999746948242,63.10210039628906,14.527199746948241C63.10210039628906,15.205599746948241,63.232398996289064,15.807000146948242,63.49610139628906,16.331399946948242C63.75669859628906,16.855699546948244,64.12640379628907,17.26449964694824,64.60220339628906,17.56380084694824C65.07790379628906,17.863000846948243,65.61730189628906,18.011100746948244,66.22640229628907,18.011100746948244C66.43250279628906,18.011100746948244,66.64160159628906,18.002199146948243,66.84760279628907,17.98439974694824C67.05370329628906,17.966699646948243,67.25669859628906,17.934099246948243,67.45069889628907,17.886699646948244C67.45069889628907,17.578599946948245,67.45069889628907,17.261600446948243,67.45069889628907,16.94160084694824C67.45069889628907,16.621700246948244,67.45069889628907,16.304700846948244,67.45069889628907,15.996600146948243C67.10820009628907,15.996600146948243,66.76879879628906,15.996600146948243,66.42939759628906,15.996600146948243C66.08699799628906,15.996600146948243,65.74759669628907,15.996600146948243,65.40519709628906,15.996600146948243C65.40519709628906,15.555199646948243,65.40519709628906,15.113800046948242,65.40519709628906,14.666399946948243C65.40519709628906,14.219100046948242,65.40519709628906,13.777700446948241,65.40519709628906,13.336299846948243C66.24459839628906,13.336299846948243,67.09310149628907,13.336299846948243,67.95369719628906,13.336299846948243C68.81130219628906,13.336299846948243,69.66280369628906,13.336299846948243,70.50229619628907,13.336299846948243C70.50229619628907,14.432399746948242,70.50229619628907,15.537400246948241,70.50229619628907,16.65719984694824C70.49620019628907,17.77409934694824,70.49620019628907,18.882000246948245,70.49620019628907,19.97520024694824Z" fill="#030303" fill-opacity="1" style="mix-blend-mode:passthrough"/></g><g><path d="M79.07800294189452,20.617799716674803C79.07800294189452,20.522899616674806,79.07800294189452,20.431100816674807,79.07800294189452,20.342199316674805C79.07800294189452,20.253400816674805,79.07800294189452,20.167499516674805,79.07800294189452,20.084499316674805C78.77189634189453,20.333400716674802,78.42949674189452,20.528900116674805,78.04460144189453,20.665199316674805C77.65979764189453,20.801399216674803,77.25060274189453,20.869600316674806,76.81120304189453,20.869600316674806C76.19000244189453,20.869600316674806,75.60520174189453,20.753999716674805,75.05670164189453,20.520000416674804C74.50820164189453,20.288900416674807,74.02330014189454,19.954200716674805,73.60510254189452,19.518699616674805C73.18389892189452,19.083200416674806,72.85659790189453,18.570699716674806,72.62030029189454,17.975200616674805C72.38390350189454,17.379699716674804,72.26270294189453,16.719100916674805,72.26270294189453,15.993300416674805C72.26270294189453,15.255600016674805,72.38089752189452,14.589099916674805,72.62030029189454,13.993599916674805C72.85659790189453,13.398099916674806,73.18689728189453,12.888600316674804,73.60510254189452,12.467900316674804C74.02639774189453,12.044300076674805,74.50820164189453,11.718399996674805,75.05670164189453,11.487299916674806C75.60520174189453,11.256299976674805,76.18399814189453,11.137800216674805,76.79309844189453,11.137800216674805C77.23249814189452,11.137800216674805,77.64459994189453,11.205900192674804,78.03549954189454,11.342200276674804C78.42639924189453,11.478400226674804,78.77189634189453,11.668000216674805,79.07800294189452,11.904999736674805C79.07800294189452,11.810199736674805,79.07800294189452,11.721400256674805,79.07800294189452,11.638400076674804C79.07800294189452,11.555500026674805,79.07800294189452,11.472499846674804,79.07800294189452,11.389599796674805C79.57800294189452,11.389599796674805,80.08100124189453,11.389599796674805,80.59310154189453,11.389599796674805C81.10530094189453,11.389599796674805,81.60220334189454,11.389599796674805,82.09010314189453,11.389599796674805C82.09010314189453,12.912300116674805,82.09010314189453,14.452799816674805,82.09010314189453,16.005100216674805C82.09010314189453,17.557500816674803,82.09010314189453,19.097999616674805,82.09010314189453,20.620700816674805C81.60220334189454,20.620700816674805,81.10530094189453,20.620700816674805,80.59310154189453,20.620700816674805C80.08100124189453,20.620700816674805,79.57800294189452,20.617799716674803,79.07800294189452,20.617799716674803ZM77.21730044189454,18.262599916674805C77.80220034189453,18.262599916674805,78.26879884189454,18.055200616674803,78.62339784189453,17.637500716674804C78.97489934189453,17.219800916674807,79.15370174189454,16.674699816674803,79.15370174189454,15.993300416674805C79.15370174189454,15.314900416674805,78.97799684189454,14.769800216674804,78.62339784189453,14.361000016674804C78.26879884189454,13.949199716674805,77.80220034189453,13.744700416674805,77.21730044189454,13.744700416674805C76.62030034189453,13.744700416674805,76.14759824189453,13.946200416674804,75.80210114189452,14.352100416674805C75.45670314189454,14.757900216674805,75.28089904189453,15.303000416674806,75.28089904189453,15.993300416674805C75.28089904189453,16.683599516674803,75.45359804189454,17.234600116674805,75.80210114189452,17.643400216674806C76.14759824189453,18.055200616674803,76.62030034189453,18.262599916674805,77.21730044189454,18.262599916674805Z" fill="#030303" fill-opacity="1" style="mix-blend-mode:passthrough"/></g><g><path d="M85.23269652060547,20.618099658203125C85.23269652060547,19.521999658203125,85.23269652060547,18.422899258203124,85.23269652060547,17.314899458203126C85.23269652060547,16.206899658203124,85.23269652060547,15.113800058203125,85.23269652060547,14.029499958203125C84.99030302060547,14.029499958203125,84.74179840060548,14.029499958203125,84.49330139060547,14.029499958203125C84.24479675060547,14.029499958203125,83.99629974060547,14.029499958203125,83.75389862060547,14.029499958203125C83.75389862060547,13.588100458203126,83.75389862060547,13.149600058203125,83.75389862060547,12.708200458203125C83.75389862060547,12.266799958203125,83.75389862060547,11.828399658203125,83.75389862060547,11.386899958203125C83.99629974060547,11.386899958203125,84.24479675060547,11.386899958203125,84.49330139060547,11.386899958203125C84.74179840060548,11.386899958203125,84.99030302060547,11.386899958203125,85.23269652060547,11.386899958203125C85.23269652060547,10.969200158203126,85.23269652060547,10.557499858203125,85.23269652060547,10.145700458203125C85.23269652060547,9.733869548203124,85.23269652060547,9.328009608203125,85.23269652060547,8.922149658203125C85.73269652060547,8.922149658203125,86.23580172060547,8.922149658203125,86.74790192060547,8.922149658203125C87.26000212060546,8.922149658203125,87.75700382060546,8.922149658203125,88.24490352060548,8.922149658203125C88.24490352060548,9.328009608203125,88.24490352060548,9.733869548203124,88.24490352060548,10.145700458203125C88.24490352060548,10.557499858203125,88.24490352060548,10.969200158203126,88.24490352060548,11.386899958203125C88.52369692060547,11.386899958203125,88.81159972060547,11.386899958203125,89.10250092060546,11.386899958203125C89.39340212060547,11.386899958203125,89.68129732060547,11.386899958203125,89.96009822060547,11.386899958203125C89.96009822060547,11.828399658203125,89.96009822060547,12.266799958203125,89.96009822060547,12.708200458203125C89.96009822060547,13.149600058203125,89.96009822060547,13.588100458203126,89.96009822060547,14.029499958203125C89.68129732060547,14.029499958203125,89.39340212060547,14.029499958203125,89.10250092060546,14.029499958203125C88.81159972060547,14.029499958203125,88.52369692060547,14.029499958203125,88.24490352060548,14.029499958203125C88.24490352060548,15.113800058203125,88.24490352060548,16.206899658203124,88.24490352060548,17.314899458203126C88.24490352060548,18.422899258203124,88.24490352060548,19.521999658203125,88.24490352060548,20.618099658203125C87.75700382060546,20.618099658203125,87.26000212060546,20.618099658203125,86.74790192060547,20.618099658203125C86.23580172060547,20.618099658203125,85.73269652060547,20.618099658203125,85.23269652060547,20.618099658203125Z" fill="#030303" fill-opacity="1" style="mix-blend-mode:passthrough"/></g><g><path d="M91.66310119628906,20.617798897918703C91.66310119628906,18.4640998979187,91.66310119628906,16.2924990979187,91.66310119628906,14.100299797918701C91.66310119628906,11.9110002979187,91.66310119628906,9.736530297918701,91.66310119628906,7.582789897918701C92.16310119628906,7.582789897918701,92.66609959628906,7.582789897918701,93.17829899628906,7.582789897918701C93.69039919628906,7.582789897918701,94.18740079628907,7.582789897918701,94.67530059628906,7.582789897918701C94.67530059628906,8.284910197918702,94.67530059628906,8.9959001979187,94.67530059628906,9.715789797918701C94.67530059628906,10.435700397918701,94.67530059628906,11.146699897918701,94.67530059628906,11.8487996979187C95.00250239628906,11.623599997918701,95.37219999628907,11.445899997918701,95.78130339628906,11.321499797918701C96.19039919628906,11.196999597918701,96.62979889628906,11.134799997918702,97.10559849628906,11.134799997918702C97.79959869628907,11.134799997918702,98.41169739628906,11.2889003979187,98.94200129628906,11.5999001979187C99.47229769628906,11.9110002979187,99.88439939628907,12.3523997979187,100.18399809628906,12.9301003979187C100.48100279628906,13.5078000979187,100.63300319628907,14.201000197918702,100.63300319628907,15.009799997918702C100.63300319628907,15.936999797918702,100.63300319628907,16.8731989979187,100.63300319628907,17.8122988979187C100.63300319628907,18.751399897918702,100.63300319628907,19.6875988979187,100.63300319628907,20.614798897918703C100.14499659628906,20.614798897918703,99.64810179628907,20.614798897918703,99.13590239628907,20.614798897918703C98.62380219628906,20.614798897918703,98.11769869628907,20.614798897918703,97.62079619628906,20.614798897918703C97.62079619628906,19.758698897918702,97.62079619628906,18.887698897918703,97.62079619628906,18.0077988979187C97.62079619628906,17.1279997979187,97.62079619628906,16.2569994979187,97.62079619628906,15.400799797918701C97.62079619628906,14.923899697918701,97.50859829628907,14.541700397918701,97.28140259628907,14.248399697918702C97.05709839628906,13.958100297918701,96.69950099628906,13.810000397918701,96.21160129628906,13.810000397918701C95.72380069628906,13.810000397918701,95.34799959628906,13.946200397918702,95.07830049628906,14.2217998979187C94.81159969628906,14.497300197918701,94.67530059628906,14.888299897918701,94.67530059628906,15.400799797918701C94.67530059628906,16.2569994979187,94.67530059628906,17.1279997979187,94.67530059628906,18.0077988979187C94.67530059628906,18.887698897918703,94.67530059628906,19.758698897918702,94.67530059628906,20.614798897918703C94.18740079628907,20.614798897918703,93.69039919628906,20.614798897918703,93.17829899628906,20.614798897918703C92.66609959628906,20.617798897918703,92.16010284628906,20.617798897918703,91.66310119628906,20.617798897918703Z" fill="#030303" fill-opacity="1" style="mix-blend-mode:passthrough"/></g><g><path d="M110.785484275,20.188299226049807C109.946479775,20.534999826049805,109.112480175,20.748300526049803,108.282478375,20.831199626049806C107.455482475,20.914199826049803,106.673477175,20.869699526049807,105.936477675,20.697900726049802C105.200477575,20.526100126049805,104.546478275,20.229799226049806,103.973480175,19.815099726049805C103.400482175,19.397399926049804,102.952484135,18.870000826049804,102.630477905,18.227199526049805C102.306480405,17.584299126049807,102.146484375,16.840700126049803,102.146484375,15.996399926049804C102.146484375,15.294300126049805,102.264480595,14.648500426049804,102.503479005,14.058899926049804C102.739479065,13.469400426049805,103.079483035,12.951000226049805,103.515480075,12.506600426049804C103.955482475,12.059200286049805,104.470481875,11.715600016049805,105.067481975,11.469699856049804C105.664482075,11.226799966049805,106.315483075,11.102399826049805,107.021484375,11.102399826049805C107.65547947499999,11.102399826049805,108.227478075,11.203100206049804,108.740478475,11.404500006049805C109.252479575,11.605999946049804,109.694480875,11.890399936049805,110.073478675,12.251799626049804C110.449478175,12.616200426049804,110.755477875,13.045800226049804,110.985481275,13.546400026049804C111.215476975,14.047100026049804,111.361480675,14.595100426049804,111.424484275,15.190600426049805C111.485481275,15.786100426049805,111.449478175,16.417100926049805,111.315483075,17.083599126049805C110.318481475,17.083599126049805,109.312477075,17.083599126049805,108.303482075,17.083599126049805C107.291480975,17.083599126049805,106.288482675,17.083599126049805,105.291480975,17.083599126049805C105.521484375,17.536899526049805,105.909477275,17.856899226049805,106.452484175,18.046499226049804C106.994483975,18.236099226049806,107.640480075,18.295299526049803,108.388481175,18.224199326049806C109.137481675,18.153099026049805,109.937477075,17.963499026049803,110.788482675,17.652500126049805C110.788482675,18.070199926049803,110.788482675,18.490800826049806,110.788482675,18.920400626049805C110.785484275,19.350000426049803,110.785484275,19.773599626049805,110.785484275,20.188299226049807ZM106.949478175,13.744899726049805C106.594482375,13.744899726049805,106.270477275,13.839699726049805,105.973480175,14.029299726049805C105.676483175,14.218899726049806,105.446479775,14.512200326049804,105.288482675,14.903200126049805C105.836479175,14.903200126049805,106.385482775,14.903200126049805,106.940483075,14.903200126049805C107.494483975,14.903200126049805,108.046478275,14.903200126049805,108.591484075,14.903200126049805C108.446479775,14.497400326049805,108.227478075,14.204099626049805,107.943481475,14.020400026049805C107.658477775,13.836700426049806,107.327484175,13.744899726049805,106.949478175,13.744899726049805Z" fill="#030303" fill-opacity="1" style="mix-blend-mode:passthrough"/></g><g><path d="M113.1572265625,20.617599480041505C113.1572265625,19.094900180041503,113.1572265625,17.554399480041504,113.1572265625,16.002000780041506C113.1572265625,14.449700380041504,113.1572265625,12.909199680041503,113.1572265625,11.386400220041503C113.6572265625,11.386400220041503,114.1632308625,11.386400220041503,114.6722259625,11.386400220041503C115.1812286625,11.386400220041503,115.6822280625,11.386400220041503,116.1692275625,11.386400220041503C116.1692275625,11.469400410041503,116.1692275625,11.552300450041503,116.1692275625,11.635299680041504C116.1692275625,11.718199730041505,116.1692275625,11.801199910041504,116.1692275625,11.884099960041503C116.5452270625,11.623399730041504,116.9722289625,11.425000190041503,117.4482269625,11.294599530041504C117.9242324625,11.164299964941504,118.4392318625,11.128700256041505,119.0002288625,11.187999725041504C119.0002288625,11.664899830041504,119.0002288625,12.144800190041504,119.0002288625,12.633700380041503C119.0002288625,13.122500380041505,119.0002288625,13.605400080041504,119.0002288625,14.079400080041504C118.0392303625,13.949000380041504,117.3272323625,14.029000280041505,116.8632278625,14.319299680041503C116.4002303625,14.609600080041504,116.1692275625,15.083600080041503,116.1692275625,15.738400480041504C116.1692275625,16.535299280041503,116.1692275625,17.343999880041505,116.1692275625,18.167600680041502C116.1692275625,18.991199480041505,116.1692275625,19.805900580041502,116.1692275625,20.614599180041502C115.6822280625,20.614599180041502,115.1852264625,20.614599180041502,114.6722259625,20.614599180041502C114.1602325625,20.614599180041502,113.6572265625,20.617599480041505,113.1572265625,20.617599480041505Z" fill="#030303" fill-opacity="1" style="mix-blend-mode:passthrough"/></g><g><path d="M68.63240055961914,32.19530101411133C68.63240055961914,33.098800614111326,68.39299775961913,33.833499714111326,67.91110225961914,34.39929971411133C67.42929835961914,34.96509971411133,66.78379825961915,35.37099871411133,65.97470095961914,35.622798714111326C65.16560365961914,35.87170071411133,64.25959775961914,35.98130071411133,63.26259995961914,35.95169871411133C62.26559825961914,35.92200071411133,61.24739835961914,35.77090071411133,60.21409987961914,35.49539971411133C60.21409987961914,34.98289871411133,60.21409987961914,34.470401714111325,60.21409987961914,33.96089971411133C60.21409987961914,33.448398614111326,60.21409987961914,32.93590161411133,60.21409987961914,32.42630001411133C61.16260145961914,32.76110081411133,62.02920145961914,32.96849821411133,62.80799865961914,33.05139921411133C63.58679965961914,33.13439941411133,64.20809935961914,33.10179901411133,64.67169955961914,32.95370101411133C65.13529965961914,32.80550001411133,65.36560055961914,32.55080031411133,65.36560055961914,32.19530101411133C65.36560055961914,31.94639971411133,65.23840335961914,31.73900031411133,64.98079685961915,31.57909961411133C64.72619625961914,31.419099814111327,64.39289855961914,31.27389911411133,63.98680115961914,31.140600214111327C63.57770155961914,31.010299714111326,63.15050125961914,30.859199514111328,62.69889835961914,30.684400514111328C62.24739835961914,30.512599914111327,61.820098859619144,30.29039951411133,61.41099925961914,30.02379991411133C61.00189971961914,29.757099114111327,60.67160033961914,29.40460011411133,60.41709899961914,28.96910091411133C60.16249846961914,28.533599814111327,60.03219985961914,27.991500814111326,60.03219985961914,27.336799614111328C60.03219985961914,26.527999914111327,60.25040053961914,25.84370041411133,60.68980025961914,25.28380011411133C61.12919995961914,24.72380061411133,61.72010035961914,24.303199764111326,62.47159955961914,24.015800474111327C63.22010035961914,23.73139953411133,64.07170105961914,23.586200714111328,65.02929685961914,23.586200714111328C65.98380275961914,23.586200714111328,66.97480015961914,23.72839927411133,67.99600215961914,24.015800474111327C67.99600215961914,24.528299334111328,67.99600215961914,25.040800114111327,67.99600215961914,25.55039981411133C67.99600215961914,26.062900514111327,67.99600215961914,26.575399414111327,67.99600215961914,27.084999114111326C67.14450075961913,26.726499514111328,66.36260225961914,26.51020051411133,65.65049745961915,26.433200814111327C64.93840025961914,26.35619931411133,64.36869815961914,26.391700714111327,63.94440075961914,26.53989981411133C63.51710125961914,26.687999714111328,63.30500025961914,26.93090061411133,63.30500025961914,27.262699114111328C63.30500025961914,27.49970051411133,63.432300559619144,27.698200214111328,63.68989945961914,27.852199514111327C63.94440075961914,28.00630001411133,64.27780155961914,28.14550021411133,64.68379975961913,28.272899614111328C65.09290315961914,28.397300714111328,65.52020265961914,28.548400914111326,65.97170255961915,28.72030071411133C66.42320255961914,28.89209941411133,66.85050205961915,29.120199214111327,67.25959775961914,29.398700714111328C67.66870115961915,29.67709921411133,67.99900055961913,30.04150011411133,68.25360105961914,30.488899214111328C68.50509645961914,30.936199214111326,68.63240055961914,31.504999114111328,68.63240055961914,32.19530101411133Z" fill="#030303" fill-opacity="1" style="mix-blend-mode:passthrough"/></g><g><path d="M71.06279753378907,35.8568991159668C71.06279753378907,34.7607001159668,71.06279753378907,33.6617012159668,71.06279753378907,32.5536995159668C71.06279753378907,31.445699715966796,71.06279753378907,30.352600115966798,71.06279753378907,29.268299115966798C70.82039643378906,29.268299115966798,70.57189941378907,29.268299115966798,70.32340240378906,29.268299115966798C70.07489776378907,29.268299115966798,69.82640075378906,29.268299115966798,69.58399963378906,29.268299115966798C69.58399963378906,28.8269005159668,69.58399963378906,28.3883991159668,69.58399963378906,27.947000515966796C69.58399963378906,27.5056000159668,69.58399963378906,27.067199715966797,69.58399963378906,26.625799215966797C69.82640075378906,26.625799215966797,70.07489776378907,26.625799215966797,70.32340240378906,26.625799215966797C70.57189941378907,26.625799215966797,70.82039643378906,26.625799215966797,71.06279753378907,26.625799215966797C71.06279753378907,26.2080002159668,71.06279753378907,25.796300915966796,71.06279753378907,25.384500515966796C71.06279753378907,24.9727001159668,71.06279753378907,24.566799165966795,71.06279753378907,24.160900115966797C71.56279753378907,24.160900115966797,72.06590273378906,24.160900115966797,72.57800293378907,24.160900115966797C73.09010313378906,24.160900115966797,73.58709713378906,24.160900115966797,74.07499693378907,24.160900115966797C74.07499693378907,24.566799165966795,74.07499693378907,24.9727001159668,74.07499693378907,25.384500515966796C74.07499693378907,25.796300915966796,74.07499693378907,26.2080002159668,74.07499693378907,26.625799215966797C74.35379793378907,26.625799215966797,74.64160153378906,26.625799215966797,74.93260193378906,26.625799215966797C75.22350313378907,26.625799215966797,75.51139833378906,26.625799215966797,75.79010013378907,26.625799215966797C75.79010013378907,27.067199715966797,75.79010013378907,27.5056000159668,75.79010013378907,27.947000515966796C75.79010013378907,28.3883991159668,75.79010013378907,28.8269005159668,75.79010013378907,29.268299115966798C75.51129913378907,29.268299115966798,75.22350313378907,29.268299115966798,74.93260193378906,29.268299115966798C74.64160153378906,29.268299115966798,74.35379793378907,29.268299115966798,74.07499693378907,29.268299115966798C74.07499693378907,30.352600115966798,74.07499693378907,31.445699715966796,74.07499693378907,32.5536995159668C74.07499693378907,33.6617012159668,74.07499693378907,34.7607001159668,74.07499693378907,35.8568991159668C73.58709713378906,35.8568991159668,73.09010313378906,35.8568991159668,72.57800293378907,35.8568991159668C72.06590273378906,35.8568991159668,71.55979923378906,35.8568991159668,71.06279753378907,35.8568991159668Z" fill="#030303" fill-opacity="1" style="mix-blend-mode:passthrough"/></g><g><path d="M83.60820006757812,35.857101450244144C83.60820006757812,35.76229855024414,83.60820006757812,35.67050175024414,83.60820006757812,35.58160015024414C83.60820006757812,35.49269865024414,83.60820006757812,35.40679935024414,83.60820006757812,35.32389835024414C83.30220026757813,35.57270055024414,82.95970156757812,35.76819995024414,82.57489776757812,35.90449905024414C82.19000246757813,36.04079815024414,81.78089906757812,36.108898150244144,81.34149936757812,36.108898150244144C80.72029876757813,36.108898150244144,80.13539886757812,35.99340055024414,79.58689876757812,35.75939945024414C79.03849796757812,35.52830125024414,78.55359646757813,35.19350055024414,78.13539886757812,34.76100155024414C77.71420287757813,34.32550045024414,77.38690185757812,33.81299975024414,77.15049743757812,33.21749875024414C76.91419982757813,32.62210085024414,76.79299926757812,31.96139905024414,76.79299926757812,31.23559955024414C76.79299926757812,30.49799915024414,76.91120147757813,29.83139995024414,77.15049743757812,29.23590085024414C77.38690185757812,28.64049915024414,77.71720123757812,28.13089945024414,78.13539886757812,27.71030045024414C78.55660246757813,27.28660011024414,79.03849796757812,26.96069908024414,79.58689876757812,26.72970009024414C80.13539886757812,26.49860001024414,80.71420286757812,26.38010025024414,81.32330326757813,26.38010025024414C81.76270296757812,26.38010025024414,82.17489626757812,26.44820022624414,82.56580356757813,26.58449936024414C82.95670316757813,26.72080040024414,83.30220026757813,26.910400390244142,83.60820006757812,27.14739990024414C83.60820006757812,27.05260086024414,83.60820006757812,26.96369934024414,83.60820006757812,26.88080025024414C83.60820006757812,26.79780006024414,83.60820006757812,26.71489906024414,83.60820006757812,26.631900790244142C84.10820006757812,26.631900790244142,84.61129756757812,26.631900790244142,85.12339786757812,26.631900790244142C85.63549806757813,26.631900790244142,86.13249966757813,26.631900790244142,86.62039946757812,26.631900790244142C86.62039946757812,28.15460015024414,86.62039946757812,29.69510075024414,86.62039946757812,31.247499450244142C86.62039946757812,32.79980085024414,86.62039946757812,34.34030155024414,86.62039946757812,35.86309815024414C86.13249966757813,35.86309815024414,85.63549806757813,35.86309815024414,85.12339786757812,35.86309815024414C84.61129756757812,35.86309815024414,84.10829926757812,35.857101450244144,83.60820006757812,35.857101450244144ZM81.74459836757812,33.49900055024414C82.32939906757812,33.49900055024414,82.79609676757812,33.29159925024414,83.15070346757813,32.87390135024414C83.50219726757813,32.456199650244145,83.68099976757813,31.91110035024414,83.68099976757813,31.22970005024414C83.68099976757813,30.54829975024414,83.50520326757812,30.00620075024414,83.15070346757813,29.59740065024414C82.79609676757812,29.18560025024414,82.32939906757812,28.981199250244142,81.74459836757812,28.981199250244142C81.14759826757813,28.981199250244142,80.67489626757812,29.18260005024414,80.32939906757812,29.588499050244142C79.98390196757812,29.99430085024414,79.80819706757812,30.53940015024414,79.80819706757812,31.22970005024414C79.80819706757812,31.92000005024414,79.98090366757812,32.47100065024414,80.32939906757812,32.87979885024414C80.67790226757812,33.294601450244144,81.14759826757813,33.49900055024414,81.74459836757812,33.49900055024414Z" fill="#030303" fill-opacity="1" style="mix-blend-mode:passthrough"/></g><g><path d="M88.7782974243164,35.85689930212402C88.7782974243164,34.33420180212402,88.7782974243164,32.793701202124026,88.7782974243164,31.241300602124024C88.7782974243164,29.688999202124023,88.7782974243164,28.148500402124025,88.7782974243164,26.625699992124023C89.2782974243164,26.625699992124023,89.7844009243164,26.625699992124023,90.2935028243164,26.625699992124023C90.80259702431641,26.625699992124023,91.30259702431641,26.625699992124023,91.7904968243164,26.625699992124023C91.7904968243164,26.708700182124023,91.7904968243164,26.791599272124024,91.7904968243164,26.874599452124023C91.7904968243164,26.957500462124024,91.7904968243164,27.040500642124023,91.7904968243164,27.123399732124025C92.16629792431641,26.862699512124024,92.5934982243164,26.664199832124023,93.06929782431641,26.533899312124024C93.5450973243164,26.403499603224024,94.0602035243164,26.368000030124023,94.62079622431641,26.427200317124022C94.62079622431641,26.904199602124024,94.62079622431641,27.384099962124022,94.62079622431641,27.872999202124024C94.62079622431641,28.361799202124022,94.62079622431641,28.844600702124023,94.62079622431641,29.318700802124024C93.6602020243164,29.188299202124025,92.9480972243164,29.268299102124022,92.48439792431641,29.558599502124025C92.02079772431641,29.848899802124023,91.7904968243164,30.322900802124025,91.7904968243164,30.977600102124022C91.7904968243164,31.77459910212402,91.7904968243164,32.58330150212402,91.7904968243164,33.40689850212402C91.7904968243164,34.22750090212402,91.7904968243164,35.04520030212402,91.7904968243164,35.853900902124025C91.30259702431641,35.853900902124025,90.80560302431641,35.853900902124025,90.2935028243164,35.853900902124025C89.7814026243164,35.853900902124025,89.27529907431641,35.85689930212402,88.7782974243164,35.85689930212402Z" fill="#030303" fill-opacity="1" style="mix-blend-mode:passthrough"/></g></g></svg>