<?xml version="1.0" encoding="utf-8"?>
<!-- Generator: Adobe Illustrator 27.0.0, SVG Export Plug-In . SVG Version: 6.00 Build 0)  -->
<svg version="1.1" id="图层_2" xmlns="http://www.w3.org/2000/svg" xmlns:xlink="http://www.w3.org/1999/xlink" x="0px" y="0px"
	 viewBox="0 0 32 32" style="enable-background:new 0 0 32 32;" xml:space="preserve">
<style type="text/css">
	.st0{fill:#39A6FF;}
	.st1{fill:#AED7FF;}
	.st2{fill:#0077FD;}
	.st3{fill:#FFFFFF;}
	.st4{fill:#CDE4F6;}
	.st5{fill:#64B0FF;}
	.st6{fill:#FFFFF7;}
	.st7{fill:#0673FF;}
	.st8{fill:#030303;}
</style>
<g>
	<path class="st0" d="M4.68,27.16L4.68,27.16c-1.01-1.01-1.01-2.64,0-3.65L23.67,4.53c1.01-1.01,2.64-1.01,3.65,0l0,0
		c1.01,1.01,1.01,2.64,0,3.65L8.33,27.16C7.32,28.17,5.69,28.17,4.68,27.16z"/>
	<path class="st1" d="M27.32,27.16L27.32,27.16c-1.01,1.01-2.64,1.01-3.65,0L4.68,8.18c-1.01-1.01-1.01-2.64,0-3.65l0,0
		c1.01-1.01,2.64-1.01,3.65,0l18.99,18.99C28.33,24.52,28.33,26.16,27.32,27.16z"/>
	<path class="st2" d="M26.51,12.69h-4.92c-1.35,0-2.44-1.09-2.44-2.44V5.34c0-1.68-1.27-3.14-2.94-3.25
		c-1.84-0.12-3.36,1.33-3.36,3.15v5.03c0,1.35-1.09,2.44-2.44,2.44H5.49c-1.68,0-3.14,1.27-3.25,2.94C2.12,17.47,3.57,19,5.38,19
		h5.03c1.35,0,2.44,1.09,2.44,2.44v4.92c0,1.68,1.27,3.14,2.94,3.25c1.84,0.12,3.36-1.33,3.36-3.15v-5.03
		c0-1.35,1.09-2.44,2.44-2.44h5.03c1.81,0,3.26-1.53,3.15-3.36C29.65,13.96,28.19,12.69,26.51,12.69z"/>
	<g>
		<path class="st3" d="M16,16.95c-1.62,0-3.18-0.42-4.39-1.19c-0.26-0.16-0.33-0.51-0.17-0.76c0.16-0.26,0.51-0.33,0.76-0.17
			c1.03,0.66,2.38,1.02,3.8,1.02s2.76-0.36,3.8-1.02c0.26-0.16,0.6-0.09,0.76,0.17c0.16,0.26,0.09,0.6-0.17,0.76
			C19.18,16.53,17.62,16.95,16,16.95z"/>
	</g>
</g>
</svg>
