<svg xmlns="http://www.w3.org/2000/svg" xmlns:xlink="http://www.w3.org/1999/xlink" fill="none" version="1.1" width="24" height="24" viewBox="0 0 24 24"><defs><clipPath id="master_svg0_169_3256"><rect x="0" y="0" width="24" height="24" rx="0"/></clipPath></defs><g clip-path="url(#master_svg0_169_3256)"><g><path d="M4.29303461,5.70696539Q4.15241045,5.56634122,4.07630527,5.38260692Q4.00019997,5.19887258,4.00019997,5Q4.00020003,4.901528291,4.0194109099999995,4.8049487Q4.03862178,4.70836911,4.07630527,4.61739314Q4.11398876,4.52641714,4.1686967,4.44454092Q4.22340465,4.3626647,4.29303467,4.29303467Q4.3626647,4.22340465,4.44454092,4.16869676Q4.52641714,4.11398882,4.61739314,4.07630533Q4.70836911,4.03862178,4.8049487,4.0194109099999995Q4.901528291,4.00020003,5,4.00019997Q5.19887258,4.00019997,5.38260692,4.07630527Q5.56634122,4.15241045,5.70696539,4.29303461L5.70710671,4.29289329L11.999999500000001,10.585785900000001L18.292892000000002,4.29289329L18.293035,4.29303515Q18.433658,4.15241081,18.617392000000002,4.07630539Q18.801126,4.00020003,19,4.00019997Q19.098471,4.00020003,19.195051,4.0194109099999995Q19.291629999999998,4.03862178,19.382606,4.07630527Q19.473581,4.11398876,19.555458,4.1686967Q19.637335,4.22340465,19.706964,4.29303467Q19.776594,4.3626647,19.831301,4.44454092Q19.886009,4.52641714,19.923693,4.61739314Q19.961376,4.70836911,19.980587999999997,4.8049487Q19.999799,4.901528291,19.9998,5Q19.999799,5.19887257,19.923695000000002,5.38260686Q19.847589,5.56634116,19.706965,5.70696533L19.707107,5.70710671L13.4142132,11.999999500000001L19.707107,18.292892000000002L19.706964,18.293035Q19.847588000000002,18.433658,19.923693999999998,18.617392000000002Q19.9998,18.801126,19.9998,19Q19.999799,19.098471,19.980587,19.195051Q19.961376,19.291629999999998,19.923693,19.382606Q19.886009,19.473581,19.831302,19.555458Q19.776594,19.637335,19.706964,19.706964Q19.637334,19.776594,19.555458,19.831301Q19.473581,19.886009,19.382604999999998,19.923693Q19.291629999999998,19.961376,19.195050000000002,19.980587999999997Q19.098471,19.999799,19,19.9998Q18.801126,19.9998,18.617393,19.923695000000002Q18.433658,19.847588000000002,18.293035,19.706964L18.292892000000002,19.707107L11.999999500000001,13.4142132L5.70710671,19.707107L5.70696533,19.706965Q5.56634116,19.847589,5.38260686,19.923695000000002Q5.19887257,19.999799,5,19.9998Q4.901528291,19.999799,4.8049487,19.980587Q4.70836911,19.961376,4.61739314,19.923693Q4.52641714,19.886009,4.44454092,19.831302Q4.3626647,19.776594,4.29303467,19.706964Q4.22340465,19.637334,4.16869676,19.555458Q4.11398882,19.473581,4.07630533,19.382604999999998Q4.03862178,19.291629999999998,4.0194109099999995,19.195050000000002Q4.00020003,19.098471,4.00019997,19Q4.00020003,18.801126,4.07630539,18.617393Q4.15241081,18.433658,4.29303515,18.293035L4.29289329,18.292892000000002L10.585785900000001,11.999999500000001L4.29289329,5.70710671L4.29303461,5.70696539Z" fill-rule="evenodd" fill="#222E3D" fill-opacity="1"/></g></g></svg>