<svg xmlns="http://www.w3.org/2000/svg" xmlns:xlink="http://www.w3.org/1999/xlink" fill="none" version="1.1" width="24" height="24" viewBox="0 0 24 24"><defs><clipPath id="master_svg0_169_3675"><rect x="0" y="0" width="24" height="24" rx="0"/></clipPath></defs><g clip-path="url(#master_svg0_169_3675)"><g><path d="M2.75,6.75L21.25,6.75L21.25,6.74980003Q21.348473,6.74979997,21.445049,6.7305890900000005Q21.54163,6.71137822,21.632605,6.67369473Q21.723579,6.63601124,21.805456,6.5813033Q21.887333,6.52659535,21.956964,6.45696533Q22.026594,6.3873353,22.081303,6.30545908Q22.136009,6.22358286,22.173693,6.13260686Q22.211376,6.04163089,22.230587,5.9450513Q22.249798,5.848471709,22.2498,5.75Q22.249798,5.651528291,22.230587,5.5549487Q22.211374,5.45836911,22.173691,5.36739314Q22.136007,5.27641714,22.081299,5.19454092Q22.026592,5.1126647,21.956963,5.04303467Q21.887333,4.97340465,21.805456,4.91869676Q21.723579,4.86398882,21.632605,4.82630533Q21.54163,4.78862178,21.445051,4.7694109099999995Q21.348473,4.75020003,21.25,4.75019997L21.25,4.75L2.75,4.75L2.75,4.75019997Q2.651528291,4.75020003,2.5549487,4.7694109099999995Q2.45836911,4.78862178,2.36739314,4.82630527Q2.27641714,4.86398876,2.19454092,4.9186967Q2.1126647,4.97340465,2.04303467,5.04303467Q1.97340465,5.1126647,1.91869676,5.19454092Q1.8639888199999999,5.27641714,1.8263053299999998,5.36739314Q1.7886217800000002,5.45836911,1.76941091,5.5549487Q1.75020003,5.651528291,1.7501999700000002,5.75Q1.75020003,5.848471709,1.76941091,5.9450513Q1.7886217800000002,6.04163089,1.82630527,6.13260686Q1.86398876,6.22358286,1.9186967,6.30545908Q1.97340465,6.3873353,2.04303467,6.45696533Q2.1126647,6.52659535,2.19454092,6.58130324Q2.27641714,6.63601118,2.36739314,6.67369467Q2.45836911,6.71137822,2.5549487,6.7305890900000005Q2.651528291,6.74979997,2.75,6.74980003L2.75,6.75ZM2.75,13L21.25,13L21.25,12.9998002Q21.348473,12.9997997,21.445049,12.9805889Q21.54163,12.961378100000001,21.632605,12.923694099999999Q21.723579,12.886010599999999,21.805456,12.8313031Q21.887333,12.7765951,21.956964,12.7069654Q22.026594,12.6373348,22.081303,12.5554585Q22.136009,12.4735823,22.173693,12.382606Q22.211376,12.291629799999999,22.230587,12.1950507Q22.249798,12.098471199999999,22.2498,12Q22.249798,11.9015279,22.230587,11.8049479Q22.211374,11.7083683,22.173691,11.6173921Q22.136007,11.526415799999999,22.081299,11.44454Q22.026592,11.362664200000001,21.956963,11.2930341Q21.887333,11.223403900000001,21.805456,11.1686954Q21.723579,11.1139879,21.632605,11.0763044Q21.54163,11.0386214,21.445051,11.0194106Q21.348473,11.0001998,21.25,11.0001998L21.25,11L2.75,11L2.75,11.0001998Q2.651528291,11.0001998,2.5549487,11.0194106Q2.45836911,11.0386214,2.36739314,11.0763044Q2.27641714,11.1139879,2.19454092,11.1686964Q2.1126647,11.223403900000001,2.04303467,11.2930341Q1.97340465,11.362664200000001,1.91869676,11.44454Q1.8639888199999999,11.526416300000001,1.8263053299999998,11.617392500000001Q1.7886217800000002,11.7083683,1.76941091,11.8049483Q1.75020003,11.9015279,1.7501999700000002,12Q1.75020003,12.098471199999999,1.76941091,12.1950502Q1.7886217800000002,12.291629799999999,1.82630527,12.382606Q1.86398876,12.4735823,1.9186967,12.5554585Q1.97340465,12.6373348,2.04303467,12.7069654Q2.1126647,12.7765951,2.19454092,12.8313026Q2.27641714,12.886010599999999,2.36739314,12.923694099999999Q2.45836911,12.961378100000001,2.5549487,12.9805889Q2.651528291,12.9997997,2.75,12.9998002L2.75,13ZM2.75,19.250000999999997L21.25,19.250000999999997L21.25,19.2498Q21.348473,19.2498,21.445049,19.230587999999997Q21.54163,19.211376,21.632605,19.173693999999998Q21.723579,19.136009,21.805456,19.081302Q21.887333,19.026594,21.956964,18.956964Q22.026594,18.887334,22.081303,18.805458Q22.136009,18.723581,22.173693,18.632606Q22.211376,18.541629999999998,22.230587,18.445050000000002Q22.249798,18.348471,22.2498,18.25Q22.249798,18.151527,22.230587,18.054948Q22.211374,17.958368,22.173691,17.867392000000002Q22.136007,17.776415,22.081299,17.694539Q22.026592,17.612662999999998,21.956963,17.543034Q21.887333,17.473404000000002,21.805456,17.418695Q21.723579,17.363987,21.632605,17.326303Q21.54163,17.288621,21.445051,17.269410999999998Q21.348473,17.2502,21.25,17.2502L21.25,17.25L2.75,17.25L2.75,17.2502Q2.651528291,17.2502,2.5549487,17.26941Q2.45836911,17.288621,2.36739314,17.326303Q2.27641714,17.363987,2.19454092,17.418695Q2.1126647,17.473404000000002,2.04303467,17.543035Q1.97340465,17.612664000000002,1.91869676,17.69454Q1.8639888199999999,17.776415999999998,1.8263053299999998,17.867392000000002Q1.7886217800000002,17.958368,1.76941091,18.054948Q1.75020003,18.151527,1.7501999700000002,18.25Q1.75020003,18.348471,1.76941091,18.445051Q1.7886217800000002,18.541629999999998,1.82630527,18.632606Q1.86398876,18.723581,1.9186967,18.805457Q1.97340465,18.887334,2.04303467,18.956964Q2.1126647,19.026594,2.19454092,19.081302Q2.27641714,19.136009,2.36739314,19.173693Q2.45836911,19.211376,2.5549487,19.230587999999997Q2.651528291,19.2498,2.75,19.2498L2.75,19.250000999999997Z" fill-rule="evenodd" fill="#222E3D" fill-opacity="1"/></g></g></svg>