<svg xmlns="http://www.w3.org/2000/svg" xmlns:xlink="http://www.w3.org/1999/xlink" fill="none" version="1.1" width="260" height="120" viewBox="0 0 260 120"><defs><clipPath id="master_svg0_284_4254"><rect x="0" y="0" width="260" height="120" rx="0"/></clipPath><clipPath id="master_svg1_284_4255"><rect x="30" y="42" width="200.70001220703125" height="36" rx="0"/></clipPath></defs><g clip-path="url(#master_svg0_284_4254)"><g clip-path="url(#master_svg1_284_4255)"><g><g><path d="M99.172208425,42.97972015006981C99.347618845,43.31514111006981,101.934755125,48.04243620006981,104.921223625,53.48499880006981L110.351284625,63.38040880006981L110.351284625,70.4862708000698L110.351284625,77.59176980006981L117.184722625,77.59176980006981L124.017600625,77.59176980006981L124.017600625,71.08449280006981L124.017600625,64.5771388000698L129.88740562499999,53.91735780006981C133.115707625,48.05463130006981,135.83551062499998,43.05585125006981,135.93090462499998,42.80903330006981C136.090206625,42.39775310406981,135.560108625,42.36632421096981,129.590408625,42.432973713069806L123.075309625,42.50558484006981L120.594909625,48.05977830006981C118.625167625,52.471145800069806,117.999305625,53.63079780006981,117.552009625,53.69550580006981C117.062499625,53.766157800069806,116.658126625,53.033645800069806,114.451148625,48.07359470006981L111.912429625,42.37011680006981L105.383377525,42.37011680006981L98.853515625,42.37011680006981L99.172208425,42.97972015006981Z" fill-rule="evenodd" fill="#FF27A9" fill-opacity="1" style="mix-blend-mode:passthrough"/></g><g><path d="M43.12042236328125,55.37360655006981L43.12042236328125,66.48203955006981L43.12042236328125,77.5903775500698L49.94935126328125,77.5903775500698L56.77828036328125,77.5903775500698L56.85046136328125,69.1260505500698L56.92264136328125,60.66155755006981L63.04471636328125,68.6520265500698C66.41188436328125,73.04653655006982,69.31879436328126,76.8068425500698,69.50463836328125,77.00817455006981C69.78039536328126,77.3067855500698,71.03086136328125,75.81684455006982,76.29639436328125,68.91527355006981L82.75029736328125,60.456716550069814L82.75029736328125,69.02345655006981L82.75029736328125,77.5903775500698L89.58308836328125,77.5903775500698L96.41580236328124,77.5903775500698L96.41580236328124,59.97962355006981L96.41580236328124,42.368731670069806L89.65140936328126,42.37198339006981L82.88691336328125,42.37496325006981L76.37505336328125,51.17744695006981C72.79368936328125,56.01845755006981,69.77383036328125,59.97962355006981,69.66402836328125,59.97962355006981C69.55440936328125,59.97962355006981,66.58135236328125,55.99199355006981,63.05695136328125,51.11840685006981L56.64921936328125,42.25683555006981L56.57605136328125,48.81538635006981L56.502794363281254,55.37360655006981L49.94836136328125,55.37360655006981L43.39375189328125,55.37360655006981L43.12042236328125,55.37360655006981Z" fill="#FF27A9" fill-opacity="1" style="mix-blend-mode:passthrough"/></g><g><path d="M178.95361328125,60.116977175069806L178.95361328125,77.59237217506981L184.96651318125,77.59237217506981L190.97941328125,77.59237217506981L190.97941328125,60.116977175069806L190.97941328125,42.64160117506981L184.96651318125,42.64160117506981L178.95361328125,42.64160117506981L178.95361328125,60.116977175069806Z" fill="#5E37EB" fill-opacity="1" style="mix-blend-mode:passthrough"/></g><g><path d="M140.14474487304688,59.95883505006981L140.14474487304688,77.59056005006981L151.83934087304686,77.59056005006981C164.47264887304686,77.59056005006981,165.18723687304688,77.52440605006981,168.03573787304688,76.09341405006981C173.18284187304687,73.50788805006981,174.73084287304687,67.09961805006981,171.38824887304688,62.21495605006981C170.8527508730469,61.43249305006981,170.33885387304687,60.78881805006981,170.24344487304688,60.78386805006981C170.14984887304686,60.77919005006981,169.71785187304687,60.46634605006981,169.28494987304688,60.08888605006981L168.49654187304688,59.40209505006981L169.33354987304688,58.53944505006981C171.54305287304686,56.26244705006981,172.42145187304686,52.320087950069805,171.45484187304686,49.02306185006981C170.65744387304687,46.30421745006981,168.03123887304687,44.06953515006981,164.33224287304688,42.96195045006981C163.23785187304688,42.63411909006981,160.69624487304688,42.53035007006981,151.5558418730469,42.43985777006981L140.14474487304688,42.32714805006981L140.14474487304688,59.95883505006981ZM152.99044687304686,55.373788050069805L152.99044687304686,54.01919605006981L152.99044687304686,52.66442705006981L155.66884487304688,52.66442705006981C158.50923887304688,52.66442705006981,159.00335087304688,52.85081705006981,159.00335087304688,53.92235605006981C159.00335087304688,54.98579505006981,158.03674687304687,55.373788050069805,155.38894487304688,55.373788050069805L152.99044687304686,55.373788050069805ZM152.99044687304686,67.29500705006981L152.99044687304686,65.9403240500698L152.99044687304686,64.5856430500698L156.18003987304687,64.5856430500698C159.54964687304687,64.5856430500698,160.36953887304688,64.85519905006981,160.36953887304688,65.96309605006981C160.36953887304688,67.07234505006981,159.68103987304687,67.29500705006981,156.2502418730469,67.29500705006981L152.99044687304686,67.29500705006981Z" fill-rule="evenodd" fill="#5E37EB" fill-opacity="1" style="mix-blend-mode:passthrough"/></g><g><path d="M30,48.87258780006981L30,55.37499980006981L36.5594263,55.37499980006981L43.118853,55.37499980006981L43.392179999999996,55.37499980006981L43.392179999999996,48.87258780006981L43.392179999999996,42.37011680006981L36.6960816,42.37011680006981L30,42.37011680006981L30,48.87258780006981Z" fill="#5E37EB" fill-opacity="1" style="mix-blend-mode:passthrough"/></g><g><path d="M197.26678466796875,59.956414831319805L197.26678466796875,77.5929978313198L206.62768556796874,77.5884048313198C217.29447966796874,77.5830078313198,218.49058566796876,77.4366638313198,222.03028066796875,75.7073098313198C226.02628866796874,73.75494583131982,229.38417766796874,69.3294618313198,230.36427666796874,64.7235328313198C230.86468866796875,62.37120383131981,230.79627966796875,57.26325383131981,230.23377966796875,54.969872831319805C229.05209166796874,50.15555533131981,225.99118566796875,46.28551993131981,221.79267866796874,44.29820203131981C220.55428466796874,43.71189713131981,218.92617766796874,43.08549699131981,218.17467466796876,42.90640613131981C217.30437866796876,42.69886425131981,213.25888166796875,42.53305091131981,207.03717426796874,42.45014471131981L197.26678466796875,42.31982383131981L197.26678466796875,59.956414831319805ZM209.01898366796874,68.1102328313198L209.01898366796874,59.94444383131981L209.01898366796874,51.77901043131981L211.41028166796875,51.91608203131981C216.45478066796875,52.20570143131981,218.84518466796874,54.556141831319806,219.08097866796874,59.46249183131981C219.21958166796875,62.32817983131981,218.73988166796875,63.99471483131981,217.29178666796875,65.6704248313198C215.80677766796876,67.39068583131981,214.04458766796876,68.10429183131981,211.27347566796874,68.1075378313198L209.01898366796874,68.1102328313198Z" fill-rule="evenodd" fill="#5E37EB" fill-opacity="1" style="mix-blend-mode:passthrough"/></g></g></g></g></svg>