<svg xmlns="http://www.w3.org/2000/svg" xmlns:xlink="http://www.w3.org/1999/xlink" fill="none" version="1.1" width="260" height="120" viewBox="0 0 260 120"><defs><clipPath id="master_svg0_284_4254"><rect x="0" y="0" width="260" height="120" rx="0"/></clipPath><clipPath id="master_svg1_304_2441"><rect x="49" y="40" width="161.25" height="40" rx="0"/></clipPath></defs><g clip-path="url(#master_svg0_284_4254)"><g clip-path="url(#master_svg1_304_2441)"><g><path d="M142.3098829296875,78.775002C136.1498799296875,78.775002,131.8598819296875,73.715,131.8598819296875,64.584999C131.8598819296875,55.344999,136.2598759296875,50.009999,142.58488492968752,50.009999C145.4448849296875,50.009999,147.8648829296875,51.329999,149.5148849296875,53.804999L149.5148849296875,40L156.0598829296875,40L156.0598829296875,78.224998L150.0098879296875,78.224998L149.6798859296875,74.649998C147.91989092968748,77.345001,145.3898849296875,78.774998,142.3098829296875,78.775002ZM182.5149979296875,76.35499999999999C180.5900079296875,77.674999,177.5100099296875,78.775002,173.32987992968748,78.775002C164.9698789296875,78.775002,160.2398829296875,74.100002,160.2398829296875,64.475002C160.2398829296875,56.115002000000004,164.0348969296875,50.010003,172.0098799296875,50.010003C178.55500792968752,50.010003,182.7900079296875,53.640003,182.7900079296875,63.265003L182.7900079296875,66.730003L167.00488292968748,66.730003C167.27988392968751,71.350002,169.0948789296875,73.60500300000001,173.87988292968748,73.60500300000001C177.0699999296875,73.60500300000001,180.4799979296875,72.395004,182.5149979296875,71.020002L182.5149979296875,76.35499999999999ZM100.1798779296875,59.360001L100.1798779296875,71.459999C100.1798779296875,73.715,100.2898809296875,75.969997,100.5098799296875,78.224998L94.1298789296875,78.224998C93.9098809296875,77.674999,93.6898779296875,76.740002,93.6348789296875,76.025002L93.3598779296875,76.025002C92.0948759296875,77.345001,90.4448769296875,78.610001,86.5948772296875,78.610001C81.5348763296875,78.610001,78.1248779296875,75.529999,78.1248779296875,70.195C78.1248779296875,64.41999799999999,82.5798769296875,61.175001,92.5898759296875,61.175001L93.6348739296875,61.175001L93.6348739296875,59.415001000000004C93.6348739296875,56.445,92.2048729296875,55.345000999999996,89.0698739296875,55.345000999999996C85.3848738296875,55.345000999999996,82.1948738296875,57.325001,80.1048727296875,59.030001L80.1048727296875,53.365002000000004C82.0848722296875,51.935001,85.5498714296875,50.120002,89.8398749296875,50.120002C96.7698749296875,50.120002,100.1798739296875,52.650002,100.1798779296875,59.360001ZM112.05987592968751,58.370001L112.05987592968751,78.224998L105.5148769296875,78.224998L105.5148769296875,50.559999L111.89487492968749,50.559999L112.05987592968751,52.869999L112.3898769296875,52.869999C113.70987692968751,51.549999,116.01987492968749,50.12,119.9248769296875,50.12C125.2598799296875,50.12,127.45987692968751,52.539999,127.45987692968751,58.039999L127.45987692968751,78.224998L120.9148749296875,78.224998L120.9148749296875,58.700001C120.9148749296875,56.610001,119.8698769296875,55.620001,117.5598789296875,55.620001C115.1948819296875,55.620001,113.26987792968751,56.885000000000005,112.05987592968751,58.370001ZM202.6450079296875,78.224998L196.7599979296875,68.875L191.2049979296875,78.224998L184.5500079296875,78.224998L193.2400079296875,63.815000999999995L184.8800079296875,50.559999L192.2500179296875,50.559999L197.53001792968752,58.92L202.2600079296875,50.559999L208.8049879296875,50.559999L200.9949979296875,63.980000000000004L210.0149979296875,78.224998L202.6450079296875,78.224998ZM144.2348709296875,55.18C140.4948769296875,55.18,138.6248739296875,58.040001000000004,138.6248739296875,64.584999C138.6248739296875,70.854998,140.3848729296875,73.60499999999999,143.9598689296875,73.60499999999999C147.6448669296875,73.60499999999999,149.5148699296875,70.799999,149.5148699296875,64.364998C149.5148699296875,57.984999,147.7548749296875,55.179998,144.2348709296875,55.18ZM171.8998869296875,55.18C168.7648699296875,55.18,167.16989092968748,57.490002000000004,167.00488292968748,61.890001L176.13499492968748,61.890001L176.13499492968748,61.34C176.13499492968748,57.875,175.1450039296875,55.180001000000004,171.8998869296875,55.18ZM93.6348789296875,71.625L93.6348789296875,65.52L92.6998779296875,65.52C87.0898790296875,65.52,84.8348779296875,66.619999,84.8348779296875,69.809999C84.8348779296875,72.22999999999999,86.2098789296875,73.825001,88.9598769296875,73.825001C91.2698769296875,73.825001,92.8098749296875,72.83499900000001,93.6348789296875,71.625Z" fill="#F8604A" fill-opacity="1" style="mix-blend-mode:passthrough"/></g><g><path d="M68.445061,78.224998L61.790062,78.224998L61.790062,67.280003L49.25,40L56.1799984,40L65.970062,61.34C67.84006099999999,65.41000199999999,68.445061,66.84,68.445061,71.735001L68.445061,78.224998ZM72.79006,58.480000000000004L66.025061,58.480000000000004L74.165062,40L80.930061,40L72.79006,58.480000000000004Z" fill="#F8604A" fill-opacity="1" style="mix-blend-mode:passthrough"/></g></g></g></svg>