<svg xmlns="http://www.w3.org/2000/svg" xmlns:xlink="http://www.w3.org/1999/xlink" fill="none" version="1.1" width="1920" height="696" viewBox="0 0 1920 696"><defs><clipPath id="master_svg0_138_10136"><rect x="0" y="0" width="1920" height="696" rx="0"/></clipPath><linearGradient x1="0.5" y1="0" x2="0.5" y2="1" id="master_svg1_169_4181"><stop offset="0%" stop-color="#BEDDFF" stop-opacity="1"/><stop offset="100%" stop-color="#FFFFFF" stop-opacity="0"/></linearGradient><clipPath id="master_svg2_169_3943"><rect x="0" y="0" width="1920" height="696" rx="0"/></clipPath><clipPath id="master_svg3_138_2056"><rect x="742" y="376" width="36" height="36" rx="0"/></clipPath><clipPath id="master_svg4_138_12015"><rect x="1062" y="206" width="36" height="36" rx="0"/></clipPath><clipPath id="master_svg5_138_12017"><rect x="476" y="302" width="36" height="36" rx="0"/></clipPath><clipPath id="master_svg6_138_12019"><rect x="1302" y="496" width="36" height="36" rx="0"/></clipPath><clipPath id="master_svg7_138_12005"><rect x="1484" y="142" width="36" height="36" rx="0"/></clipPath><clipPath id="master_svg8_138_12022"><rect x="1862" y="542" width="36" height="36" rx="0"/></clipPath><clipPath id="master_svg9_138_12024"><rect x="1691" y="302" width="36" height="36" rx="0"/></clipPath><clipPath id="master_svga_138_12009"><rect x="822" y="134" width="36" height="36" rx="0"/></clipPath><clipPath id="master_svgb_138_12011"><rect x="164" y="222" width="36" height="36" rx="0"/></clipPath></defs><g clip-path="url(#master_svg0_138_10136)"><rect x="0" y="0" width="1920" height="696" rx="0" fill="#FFFFFF" fill-opacity="1"/><g clip-path="url(#master_svg2_169_3943)"><rect x="0" y="0" width="1920" height="696" rx="0" fill="url(#master_svg1_169_4181)" fill-opacity="1"/></g><g><path d="M-19.193705,201.43481Q-39.5,102.20042,-39.5,0.00018310547L-40.5,0.00018310547Q-40.5,102.3017,-20.173403,201.6353Q-0.3633269999999982,298.4447,38.124458000000004,389.44006Q75.9135,478.78339,130.36998,559.38965Q184.30881,639.22961,252.53967,707.46045Q320.77026,775.6911,400.61057,829.63013Q481.21716000000004,884.08685,570.56006,921.87573Q661.55518,960.36346,758.36487,980.17358Q857.69824,1000.5002,959.99994,1000.5002Q1062.3013,1000.5002,1161.6351,980.17352Q1258.4452,960.36328,1349.4399,921.87573Q1438.7826,884.08691,1519.3894,829.63013Q1599.2294,775.69128,1667.4602,707.46045Q1735.6912,639.22943,1789.6299,559.38953Q1844.0858,478.78424,1881.8752,389.43994Q1920.3633,298.44385,1940.1732,201.63507Q1960.4998,102.3019,1960.4998,-0.000081380211L1959.4998,-0.000081380211Q1959.4998,102.20006,1939.1934,201.4346Q1919.4032,298.14691,1880.9543,389.05038Q1843.2031,478.30402,1788.8011,558.82971Q1734.9154,638.59113,1666.7532,706.75342Q1598.5907,774.91589,1518.8295,828.80151Q1438.3037,883.20374,1349.0503,920.95471Q1258.1467,959.40375,1161.4346,979.19385Q1062.2002,999.50018,959.99994,999.50018Q857.79932,999.50018,758.56537,979.19397Q661.85364,959.40381,570.94958,920.95471Q481.69604000000004,883.20361,401.17038,828.80151Q321.40939,774.91602,253.24677000000003,706.75342Q185.08385,638.59052,131.19859,558.82983Q76.79659,478.3042,39.045456,389.05051Q0.5964320000000001,298.14682,-19.193705,201.43481ZM163.35605,163.88177Q146.83542,83.147476,146.83542,0.00018310547L145.83542,0.00018310547Q145.83542,83.248734,162.37634,164.08226Q178.49698,242.86182,209.81671,316.91Q240.56781,389.61371,284.88226,455.20773Q328.7756,520.17847,384.29871,575.70154Q439.82175,631.22455,504.79247999999995,675.11792Q570.38678,719.43256,643.09027,750.18353Q717.13812,781.50311,795.91797,797.62378Q876.75165,814.16473,960,814.16473Q1043.2485,814.16479,1124.082,797.6239Q1202.8616,781.5033,1276.9098,750.18353Q1349.6141,719.43225,1415.2078,675.11804Q1480.178,631.22504,1535.7014,575.70154Q1591.2246,520.17822,1635.1179,455.20773Q1679.432,389.61407,1710.1833,316.90997Q1741.5032,242.86145,1757.6238,164.08218Q1774.1646,83.248978,1774.1646,0.000081380211L1773.1646,0.000081380211Q1773.1646,83.147125,1756.6439,163.8817Q1740.5432,242.5645,1709.2625,316.52039Q1678.5496,389.13388,1634.2891,454.64792Q1590.4491,519.53967,1534.9944,574.99445Q1479.5389,630.44983,1414.6478,674.28943Q1349.1348,718.54907,1276.5203,749.26245Q1202.5635,780.54358,1123.8816,796.64423Q1043.1475,813.16479,960,813.16473Q876.85272,813.16473,796.11853,796.64417Q717.43628,780.54346,643.47974,749.26245Q570.86584,718.54932,505.35229000000004,674.28931Q440.46106,630.44971,385.00583,574.99445Q329.55051,519.53912,285.71088,454.64792Q241.45096,389.13464,210.73773,316.52045Q179.45671,242.56381,163.35605,163.88177ZM345.90582,126.32864Q333.17084,64.094315,333.17084,0.00018310547L332.17084,0.00018310547Q332.17084,64.195763,344.92609,126.52911Q357.35724,187.27869,381.50897,244.37979Q405.22217,300.44409,439.39447,351.02576Q473.24194,401.12665,516.05774,443.94244Q558.87347,486.75818,608.97437,520.60571Q659.55609,554.77808,715.62036,578.49127Q772.72162,602.64307,833.47095,615.07422Q895.80432,627.82947,959.99994,627.82947Q1024.1956,627.82947,1086.5289,615.07422Q1147.2783,602.64313,1204.3795,578.49133Q1260.4438,554.77808,1311.0255,520.60577Q1361.1267,486.75812,1403.9423,443.94247Q1446.7583,401.12634,1480.6057,351.02576Q1514.7777,300.44449,1538.4911,244.37976Q1562.6429,187.2782,1575.0741,126.52908Q1587.8293,64.195961,1587.8293,0.000081380211L1586.8293,0.000081380211Q1586.8293,64.094109,1574.0942,126.3286Q1561.683,186.98126,1537.5702,243.9902Q1513.895,299.96429,1479.7769,350.46594Q1445.9828,400.48776,1403.2352,443.23535Q1360.4873,485.98322,1310.4658,519.77716Q1259.9646,553.89502,1203.99,577.57031Q1146.9807,601.68323,1086.3284,614.09448Q1024.0941,626.82947,959.99994,626.82947Q895.90576,626.82947,833.67151,614.09448Q773.01917,601.68323,716.00989,577.57031Q660.0354,553.89508,609.53418,519.7771Q559.51282,485.98328,516.76483,443.23532Q474.01685,400.4873,440.22308,350.46594Q406.10522,299.9649,382.42993,243.99022Q358.31708,186.98102,345.90582,126.32864ZM41.656204,188.91721Q22.611797000000003,95.84951,22.611797000000003,0.00018310547L21.611797000000003,0.00018310547Q21.611797000000003,95.950745,40.676506,189.11768Q59.256775000000005,279.91721,95.35519,365.26349Q130.7982,449.06015,181.87407,524.66241Q232.46463,599.54633,296.45932,663.54102Q360.45416,727.53583,435.33786,778.12622Q510.94030999999995,829.20227,594.73669,864.64514Q680.0827,900.74341,770.88251,919.32373Q864.04974,938.38855,959.99994,938.38855Q1055.9506,938.38837,1149.1174,919.32367Q1239.917,900.74341,1325.2632,864.64502Q1409.0599,829.20203,1484.6621,778.12616Q1559.5461,727.53558,1623.5408,663.54089Q1687.5356,599.5459,1738.126,524.66235Q1789.2015,449.06061,1824.6448,365.26343Q1860.7432,279.91699,1879.3235,189.11766Q1898.3881,95.951157,1898.3881,0.00016276042L1897.3881,0.00016276042Q1897.3881,95.849304,1878.3436,188.91718Q1859.7831,279.62006,1823.7239,364.87387Q1788.3188,448.58041,1737.2972,524.10254Q1686.7601,598.90735,1622.8337,662.8338Q1558.9071,726.76038,1484.1023,777.29755Q1408.5808,828.31885,1324.8737,863.724Q1239.6187,899.78381,1148.917,918.34399Q1055.8495,937.38837,959.99994,937.38855Q864.15088,937.38855,771.08301,918.34412Q680.38104,899.78381,595.12628,863.72406Q511.41918999999996,828.31897,435.89767,777.29761Q361.09348,726.76093,297.16644,662.83386Q233.23950000000002,598.90698,182.70268,524.1026Q131.68132,448.58102,96.27619999999999,364.8739Q60.21652,279.61926,41.656204,188.91721ZM102.5061,176.39948Q84.72359,89.49852,84.72359,0.00018310547L83.72359,0.00018310547Q83.72359,89.599762,101.52641,176.59996Q118.87689,261.38962,152.58592,341.08673Q185.68289,419.33676,233.37813999999997,489.93503Q280.62006,559.8623,340.379,619.62122Q400.13794,679.38019,470.06516,726.62207Q540.66345,774.31732,618.91345,807.41431Q698.61047,841.12329,783.40027,858.47382Q870.40082,876.27673,960,876.27673Q1049.5996,876.27661,1136.5999,858.47382Q1221.3894,841.12341,1301.0865,807.41431Q1379.3367,774.31732,1449.9349,726.62207Q1519.8622,679.38013,1579.6211,619.62122Q1639.3806,559.86182,1686.6221,489.93506Q1734.3168,419.33771,1767.4141,341.08676Q1801.1233,261.38937,1818.4736,176.59991Q1836.2764,89.60009,1836.2764,0.00016276042L1835.2764,0.00016276042Q1835.2764,89.49823,1817.4939,176.39944Q1800.1631,261.09244,1766.4932,340.6972Q1733.4341,418.85748,1685.7933,489.37524Q1638.605,559.22321,1578.9141,618.91412Q1519.2234,678.60492,1449.375,725.79346Q1378.8574,773.4342,1300.697,806.49329Q1221.0912,840.1637,1136.3993,857.49414Q1049.4985,875.27661,960,875.27673Q870.50189,875.27673,783.60077,857.49414Q698.90881,840.1637,619.30304,806.49329Q541.14233,773.43408,470.62497,725.79346Q400.77728,678.60529,341.08612,618.91412Q281.39496,559.22302,234.20675999999997,489.37521Q186.56604,418.85767,153.50694,340.69717Q119.83662000000001,261.09161,102.5061,176.39948ZM285.05588,138.84641Q271.05902,70.445496,271.05902,0.00018310547L270.05902,0.00018310547Q270.05902,70.546753,284.07617,139.04689Q297.73718,205.80656,324.2782,268.55664Q350.33746,330.1676,387.89038,385.7533Q425.08636,440.81061,472.13806,487.86237Q519.1897,534.914,574.24707,572.11005Q629.83289,609.66309,691.44373,635.72229Q754.19385,662.26343,820.95331,675.92438Q889.45288,689.94141,959.99994,689.94141Q1030.5466,689.94141,1099.0466,675.92432Q1165.8062,662.26331,1228.5564,635.72223Q1290.1675,609.6629,1345.7532,572.10999Q1400.8101,534.91425,1447.8621,487.8623Q1494.9138,440.81055,1532.1097,385.75323Q1569.6626,330.16754,1595.7219,268.55661Q1622.2631,205.806,1635.9241,139.04686Q1649.9412,70.547012,1649.9412,0.00016276042L1648.9412,0.00016276042Q1648.9412,70.44516,1634.9442,138.84637Q1621.3031,205.50906,1594.801,268.16705Q1568.7802,329.68735,1531.281,385.19342Q1494.1382,440.17197,1447.155,487.15521Q1400.1713,534.13904,1345.1932,571.28137Q1289.688,608.78003,1228.1669,634.80127Q1165.5087,661.30347,1098.8462,674.94458Q1030.4452,688.94141,959.99994,688.94141Q889.55438,688.94141,821.15381,674.94464Q754.49139,661.30353,691.83319,634.80133Q630.31219,608.78015,574.80688,571.28143Q519.82904,534.1391,472.84520999999995,487.15524Q425.86127,440.17126,388.71899,385.19348Q351.22052,329.68839,325.19919,268.16705Q298.69696,205.50871,285.05588,138.84641ZM725.81445,98.929962Q705.84167,51.7089,705.84167,0.00018310547L704.84167,0.00018310547Q704.84167,51.911804,724.89343,99.319511Q744.26093,145.10951,779.57587,180.42444Q814.89062,215.7392,860.68066,235.10678Q908.0885,255.1586,959.99994,255.1586Q1011.9114999999999,255.15857,1059.3193,235.10678Q1105.1094,215.7392,1140.4242,180.42442Q1175.739,145.10968,1195.1066,99.319504Q1215.1584,51.911629,1215.1584,0.00016276042L1214.1584,0.00016276042Q1214.1584,51.70871,1194.1855,98.929955Q1174.8938,144.5407,1139.7172,179.71732Q1104.5403,214.89415,1058.9298,234.18576Q1011.7086999999999,254.15857,959.99994,254.1586Q908.29126,254.1586,861.07019,234.18576Q815.45972,214.89415,780.2829,179.71733Q745.10614,144.54053,725.81445,98.929962ZM224.20593000000002,151.36407Q208.94719,76.796501,208.94719,0.00018310547L207.94719,0.00018310547Q207.94719,76.897758,223.22623,151.56454Q238.11703,224.33409,267.04742,292.73328Q295.45258,359.89059,336.38629,420.48044Q376.93091,480.49438,428.21832,531.7818Q479.50568,583.06915,539.51978,623.61389Q600.10962,664.54761,667.26697,692.95276Q735.66589,721.883,808.43555,736.77386Q883.10248,752.05292,959.99994,752.05292Q1036.8975,752.05298,1111.5643,736.77393Q1184.3342,721.88306,1252.733,692.95282Q1319.8901,664.54773,1380.4802,623.61395Q1440.4941,583.06927,1491.7816,531.78186Q1543.0693,480.49414,1583.6138,420.48044Q1624.5468,359.89178,1652.9524,292.73328Q1681.8832,224.33295,1696.7738,151.56461Q1712.0527,76.898094,1712.0527,0.00024414062L1711.0527,0.00024414062Q1711.0527,76.796242,1695.7939,151.36412Q1680.9232,224.03601,1652.0315,292.34372Q1623.6641,359.41162,1582.785,419.92062Q1542.2938,479.85556,1491.0746,531.07477Q1439.8553,582.29407,1379.9203,622.78534Q1319.4109,663.66467,1252.3435,692.03174Q1184.0359,720.92346,1111.3638,735.79431Q1036.7964,751.05298,959.99994,751.05292Q883.20355,751.05292,808.63611,735.79419Q735.96405,720.92334,667.65643,692.03168Q600.58868,663.66443,540.07959,622.78528Q480.14502000000005,582.29431,428.92542,531.07471Q377.70578,479.85504,337.2149,419.92062Q296.33575,359.4115,267.96844,292.34369Q239.07675,224.03606,224.20593000000002,151.36407ZM406.75568,113.811Q395.28259,57.743523,395.28259,0.00018310547L394.28259,0.00018310547Q394.28259,57.844978,405.77594,114.01147Q416.97723,168.75082,438.73972,220.20316Q460.10703,270.72113,490.89856,316.29858Q521.39752,361.44299,559.97736,400.02283Q598.55713,438.6026,643.70166,469.10165Q689.27905,499.89316,739.79712,521.2605Q791.24963,543.02301,845.98871,554.22424Q902.1554,565.71765,959.99994,565.71765Q1017.8447000000001,565.71753,1074.0112,554.22424Q1128.7505,543.02295,1180.2029,521.2605Q1230.7208,499.89316,1276.2983,469.10165Q1321.4425,438.60287,1360.0225,400.02283Q1398.6028,361.4426,1429.1014,316.29858Q1459.8931,270.72095,1481.2603,220.20317Q1503.0227,168.75114,1514.224,114.01154Q1525.7173,57.845013,1525.7173,0.00024414062L1524.7173,0.00024414062Q1524.7173,57.743164,1513.2441,113.81106Q1502.0625,168.45421,1480.3394,219.8136Q1459.0105,270.24078,1428.2727,315.73877Q1397.8271,360.80402,1359.3154,399.31573Q1320.8032,437.82797,1275.7385,468.27304Q1230.2417,499.0101,1179.8134,520.33948Q1128.453,542.06311,1073.8108,553.24451Q1017.7431999999999,564.71753,959.99994,564.71765Q902.25684,564.71765,846.18921,553.24451Q791.54706,542.06311,740.18665,520.33948Q689.75824,499.0101,644.26141,468.27304Q599.19666,437.82788,560.68445,399.31573Q522.17242,360.80368,491.72717,315.73877Q460.99008,270.24191,439.66071,219.81358Q417.93707,168.45316,406.75568,113.811ZM496.89142000000004,195.63684Q457.39438,102.25539,457.39438,0.00018310547L456.39438,0.00018310547Q456.39438,102.45812,495.97046,196.02641Q514.99182,240.99791,542.40259,281.57129Q569.55286,321.75897,603.89709,356.10315Q638.24109,390.4472,678.42896,417.5976Q719.00256,445.00854,763.97388,464.02985Q857.54218,503.6059,959.99994,503.6059Q1062.4578,503.60583,1156.0261,464.02979Q1200.9976,445.00851,1241.571,417.59763Q1281.7588,390.44727,1316.1029,356.10321Q1350.4475,321.75861,1377.5975,281.57129Q1405.0078,240.9987,1424.0295,196.02646Q1463.6057,102.45788,1463.6057,0.00028483075L1462.6057,0.00028483075Q1462.6057,102.25533,1423.1086,195.63689Q1404.1252,240.51852,1376.7688,281.01147Q1349.6719,321.12,1315.3959,355.39609Q1281.1196,389.67242,1241.0112,416.76901Q1200.5183,444.12546,1155.6367,463.10883Q1062.2551,502.60583,959.99994,502.6059Q857.74481,502.6059,764.3634,463.10886Q719.48169,444.12549,678.98871,416.76898Q638.88062,389.67245,604.60419,355.39606Q570.32776,321.11963,543.2312,281.01147Q515.87482,240.51868,496.89142000000004,195.63684ZM554.12219,171.46008Q519.50623,89.618736,519.50623,0.00018310547L518.50623,0.00018310547Q518.50623,89.821472,553.20123,171.84966Q586.71246,251.07915,647.81677,312.18341Q708.92102,373.28769,788.15057,406.79895Q870.17865,441.4939,959.99994,441.4939Q1049.8213,441.4939,1131.8494,406.79892Q1211.0789,373.28769,1272.1831,312.18341Q1333.2875,251.07907,1366.7987,171.84964Q1401.4937,89.821472,1401.4937,0.00020345053L1400.4937,0.00020345053Q1400.4937,89.618919,1365.8778,171.46007Q1332.4426,250.50983,1271.4761,311.47629Q1210.5096,372.44272,1131.46,405.87793Q1049.6185,440.4939,959.99994,440.4939Q870.38129,440.4939,788.54004,405.87799Q709.49017,372.44272,648.5238,311.47632Q587.5575,250.51004,554.12219,171.46008ZM611.35297,147.28348Q581.61804,76.982193,581.61804,0.00018310547L580.61804,0.00018310547Q580.61804,77.184929,610.43201,147.67303Q639.2287,215.75615,691.73645,268.26392Q744.24414,320.7717,812.32727,349.56842Q882.81531,379.38232,959.99994,379.38232Q1037.1847,379.38232,1107.6729,349.56842Q1175.7559,320.7717,1228.2637,268.26392Q1280.7716,215.75603,1309.5684,147.67303Q1339.3822,77.185104,1339.3822,0.00020345053L1338.3822,0.00020345053Q1338.3822,76.982193,1308.6472,147.28348Q1279.9265,215.18706,1227.5566,267.55682Q1175.1868,319.92673,1107.2833,348.64743Q1036.9821,378.38232,959.99994,378.38232Q883.01794,378.38232,812.71674,348.64743Q744.81335,319.9267,692.44348,267.55682Q640.07373,215.18704,611.35297,147.28348ZM1252.3374,123.4962Q1277.2703,64.548309,1277.2703,0.00018310547L1276.2703,0.00018310547Q1276.2703,64.345413,1251.4163,123.10665Q1227.41,179.86375,1183.6368,223.63696Q1139.8635,267.41031,1083.1066,291.41647Q1024.3453,316.27039,960,316.27039Q895.65466,316.27039,836.89349,291.4165Q780.1366,267.41034,736.36322,223.63699Q692.59003,179.86375,668.58374,123.10668Q643.72986,64.345436,643.72986,0.00020345053L642.72986,0.00020345053Q642.72986,64.548355,667.66272,123.49623Q691.74481,180.43272,735.65619,224.3441Q779.5675,268.2554,836.50403,292.33752Q895.45184,317.27039,960,317.27039Q1024.5481,317.27039,1083.4961,292.33749Q1140.4326,268.25537,1184.3439,224.34409Q1228.2552,180.43272,1252.3374,123.4962ZM783.04517,74.753212Q767.95337,39.072174,767.95337,0.00018310547L766.95337,0.00018310547Q766.95337,39.275101,782.12415,75.142769Q796.7771,109.78638,823.49548,136.50473Q850.21375,163.22299,884.85736,177.87602Q920.72504,193.04675,959.99994,193.04675Q999.2748999999999,193.04675,1035.1426,177.87601Q1069.7864,163.22293,1096.5045,136.50473Q1123.2228,109.78643,1137.8759,75.142761Q1153.0466,39.275116,1153.0466,0.00018310547L1152.0466,0.00018310547Q1152.0466,39.072193,1136.9548,74.753204Q1122.3777,109.21747,1095.7975,135.79761Q1069.2173,162.37787,1034.7531,176.95499Q999.0719999999999,192.04675,959.99994,192.04675Q920.92773,192.04675,885.24683,176.955Q850.78284,162.37794,824.20251,135.79761Q797.62231,109.21741,783.04517,74.753212ZM840.276,50.576538Q830.06519,26.435532,830.06519,0.00018310547L829.06519,0.00018310547Q829.06519,26.638449,839.35492,50.966087Q849.2934,74.463379,867.41516,92.585114Q885.5368,110.70679,909.03412,120.64534Q933.36176,130.93506,959.99994,130.93506Q986.6382000000001,130.93506,1010.9658,120.64534Q1034.4631,110.70683,1052.5848,92.585114Q1070.7067,74.463295,1080.6451,50.966095Q1090.9348,26.638493,1090.9348,0.00018310547L1089.9348,0.00018310547Q1089.9348,26.435566,1079.7241,50.576538Q1069.8615,73.894333,1051.8778,91.878006Q1033.894,109.86181,1010.5763999999999,119.72433Q986.4355,129.93506,959.99994,129.93506Q933.56445,129.93506,909.42358,119.72433Q886.1059,109.86178,868.12219,91.878006Q850.13861,73.894402,840.276,50.576538Z" fill-rule="evenodd" fill="#FFFFFF" fill-opacity="0.4000000059604645"/></g><g clip-path="url(#master_svg3_138_2056)"><g><path d="M761.5,380.4285715C761.5,379.63960004,760.828451,379,760,379C759.171549,379,758.5,379.63960004,758.5,380.4285715C758.5,384.9833994,757.4965,387.9365997,755.6767,389.766014C753.8742399,391.577999,750.9849253,392.571428,746.5,392.571428C745.67158008,392.571428,745,393.211,745,394C745,394.789,745.67158008,395.428572,746.5,395.428572C750.9849253,395.428572,753.8742399,396.422001,755.6767,398.234001C757.4965,400.063429,758.5,403.016571,758.5,407.571428C758.5,408.360428,759.171549,409,760,409C760.828451,409,761.5,408.360428,761.5,407.571428C761.5,403.016571,762.5035,400.063429,764.323299,398.234001C766.125698,396.422001,769.014999,395.428572,773.5,395.428572C774.328449,395.428572,775,394.789,775,394C775,393.211,774.328449,392.571428,773.5,392.571428C769.014999,392.571428,766.125698,391.577999,764.323299,389.766014C762.5035,387.9365997,761.5,384.9833994,761.5,380.4285715Z" fill="#FFFFFF" fill-opacity="1"/></g></g><g clip-path="url(#master_svg4_138_12015)"><g><path d="M1081.5,210.4285715C1081.5,209.63960004,1080.828451,209,1080,209C1079.171549,209,1078.5,209.63960004,1078.5,210.4285715C1078.5,214.9833994,1077.4965,217.9365997,1075.6767,219.766014C1073.8742399,221.577999,1070.9849253,222.571428,1066.5,222.571428C1065.67158008,222.571428,1065,223.211,1065,224C1065,224.789,1065.67158008,225.428572,1066.5,225.428572C1070.9849253,225.428572,1073.8742399,226.422001,1075.6767,228.234001C1077.4965,230.06342899999999,1078.5,233.016571,1078.5,237.571428C1078.5,238.360428,1079.171549,239,1080,239C1080.828451,239,1081.5,238.360428,1081.5,237.571428C1081.5,233.016571,1082.5035,230.06342899999999,1084.323299,228.234001C1086.125698,226.422001,1089.014999,225.428572,1093.5,225.428572C1094.328449,225.428572,1095,224.789,1095,224C1095,223.211,1094.328449,222.571428,1093.5,222.571428C1089.014999,222.571428,1086.125698,221.577999,1084.323299,219.766014C1082.5035,217.9365997,1081.5,214.9833994,1081.5,210.4285715Z" fill="#FFFFFF" fill-opacity="1"/></g></g><g clip-path="url(#master_svg5_138_12017)"><g><path d="M495.5,306.4285715C495.5,305.63960004,494.828451,305,494,305C493.171549,305,492.5,305.63960004,492.5,306.4285715C492.5,310.9833994,491.4965,313.9365997,489.6767,315.766014C487.8742399,317.577999,484.9849253,318.571428,480.5,318.571428C479.67158008,318.571428,479,319.211,479,320C479,320.789,479.67158008,321.428572,480.5,321.428572C484.9849253,321.428572,487.8742399,322.422001,489.6767,324.234001C491.4965,326.063429,492.5,329.016571,492.5,333.571428C492.5,334.360428,493.171549,335,494,335C494.828451,335,495.5,334.360428,495.5,333.571428C495.5,329.016571,496.5035,326.063429,498.323299,324.234001C500.125698,322.422001,503.014999,321.428572,507.5,321.428572C508.328449,321.428572,509,320.789,509,320C509,319.211,508.328449,318.571428,507.5,318.571428C503.014999,318.571428,500.125698,317.577999,498.323299,315.766014C496.5035,313.9365997,495.5,310.9833994,495.5,306.4285715Z" fill="#FFFFFF" fill-opacity="1"/></g></g><g clip-path="url(#master_svg6_138_12019)"><g><path d="M1321.5,500.4285715C1321.5,499.63960004,1320.828451,499,1320,499C1319.171549,499,1318.5,499.63960004,1318.5,500.4285715C1318.5,504.9833994,1317.4965,507.9365997,1315.6767,509.766014C1313.8742399,511.577999,1310.9849253,512.571428,1306.5,512.571428C1305.67158008,512.571428,1305,513.211,1305,514C1305,514.789,1305.67158008,515.428572,1306.5,515.428572C1310.9849253,515.428572,1313.8742399,516.422001,1315.6767,518.234001C1317.4965,520.063429,1318.5,523.016571,1318.5,527.571428C1318.5,528.360428,1319.171549,529,1320,529C1320.828451,529,1321.5,528.360428,1321.5,527.571428C1321.5,523.016571,1322.5035,520.063429,1324.323299,518.234001C1326.125698,516.422001,1329.014999,515.428572,1333.5,515.428572C1334.328449,515.428572,1335,514.789,1335,514C1335,513.211,1334.328449,512.571428,1333.5,512.571428C1329.014999,512.571428,1326.125698,511.577999,1324.323299,509.766014C1322.5035,507.9365997,1321.5,504.9833994,1321.5,500.4285715Z" fill="#FFFFFF" fill-opacity="1"/></g></g><g clip-path="url(#master_svg7_138_12005)"><g><path d="M1503.5,146.4285715C1503.5,145.63960004,1502.828451,145,1502,145C1501.171549,145,1500.5,145.63960004,1500.5,146.4285715C1500.5,150.9833994,1499.4965,153.9365997,1497.6767,155.766014C1495.8742399,157.577999,1492.9849253,158.571428,1488.5,158.571428C1487.67158008,158.571428,1487,159.211,1487,160C1487,160.789,1487.67158008,161.428572,1488.5,161.428572C1492.9849253,161.428572,1495.8742399,162.422001,1497.6767,164.234001C1499.4965,166.06342899999999,1500.5,169.016571,1500.5,173.571428C1500.5,174.360428,1501.171549,175,1502,175C1502.828451,175,1503.5,174.360428,1503.5,173.571428C1503.5,169.016571,1504.5035,166.06342899999999,1506.323299,164.234001C1508.125698,162.422001,1511.014999,161.428572,1515.5,161.428572C1516.328449,161.428572,1517,160.789,1517,160C1517,159.211,1516.328449,158.571428,1515.5,158.571428C1511.014999,158.571428,1508.125698,157.577999,1506.323299,155.766014C1504.5035,153.9365997,1503.5,150.9833994,1503.5,146.4285715Z" fill="#FFFFFF" fill-opacity="1"/></g></g><g clip-path="url(#master_svg8_138_12022)"><g><path d="M1881.5,546.4285715C1881.5,545.63960004,1880.828451,545,1880,545C1879.171549,545,1878.5,545.63960004,1878.5,546.4285715C1878.5,550.9833994,1877.4965,553.9365997,1875.6767,555.766014C1873.8742399,557.577999,1870.9849253,558.571428,1866.5,558.571428C1865.67158008,558.571428,1865,559.211,1865,560C1865,560.789,1865.67158008,561.428572,1866.5,561.428572C1870.9849253,561.428572,1873.8742399,562.422001,1875.6767,564.234001C1877.4965,566.063429,1878.5,569.016571,1878.5,573.571428C1878.5,574.360428,1879.171549,575,1880,575C1880.828451,575,1881.5,574.360428,1881.5,573.571428C1881.5,569.016571,1882.5035,566.063429,1884.323299,564.234001C1886.125698,562.422001,1889.014999,561.428572,1893.5,561.428572C1894.328449,561.428572,1895,560.789,1895,560C1895,559.211,1894.328449,558.571428,1893.5,558.571428C1889.014999,558.571428,1886.125698,557.577999,1884.323299,555.766014C1882.5035,553.9365997,1881.5,550.9833994,1881.5,546.4285715Z" fill="#FFFFFF" fill-opacity="1"/></g></g><g clip-path="url(#master_svg9_138_12024)"><g><path d="M1710.5,306.4285715C1710.5,305.63960004,1709.828451,305,1709,305C1708.171549,305,1707.5,305.63960004,1707.5,306.4285715C1707.5,310.9833994,1706.4965,313.9365997,1704.6767,315.766014C1702.8742399,317.577999,1699.9849253,318.571428,1695.5,318.571428C1694.67158008,318.571428,1694,319.211,1694,320C1694,320.789,1694.67158008,321.428572,1695.5,321.428572C1699.9849253,321.428572,1702.8742399,322.422001,1704.6767,324.234001C1706.4965,326.063429,1707.5,329.016571,1707.5,333.571428C1707.5,334.360428,1708.171549,335,1709,335C1709.828451,335,1710.5,334.360428,1710.5,333.571428C1710.5,329.016571,1711.5035,326.063429,1713.323299,324.234001C1715.125698,322.422001,1718.014999,321.428572,1722.5,321.428572C1723.328449,321.428572,1724,320.789,1724,320C1724,319.211,1723.328449,318.571428,1722.5,318.571428C1718.014999,318.571428,1715.125698,317.577999,1713.323299,315.766014C1711.5035,313.9365997,1710.5,310.9833994,1710.5,306.4285715Z" fill="#FFFFFF" fill-opacity="1"/></g></g><g clip-path="url(#master_svga_138_12009)"><g><path d="M841.5,138.4285715C841.5,137.63960004,840.828451,137,840,137C839.171549,137,838.5,137.63960004,838.5,138.4285715C838.5,142.9833994,837.4965,145.9365997,835.6767,147.766014C833.8742399,149.577999,830.9849253,150.571428,826.5,150.571428C825.67158008,150.571428,825,151.211,825,152C825,152.789,825.67158008,153.428572,826.5,153.428572C830.9849253,153.428572,833.8742399,154.422001,835.6767,156.234001C837.4965,158.06342899999999,838.5,161.016571,838.5,165.571428C838.5,166.360428,839.171549,167,840,167C840.828451,167,841.5,166.360428,841.5,165.571428C841.5,161.016571,842.5035,158.06342899999999,844.323299,156.234001C846.125698,154.422001,849.014999,153.428572,853.5,153.428572C854.328449,153.428572,855,152.789,855,152C855,151.211,854.328449,150.571428,853.5,150.571428C849.014999,150.571428,846.125698,149.577999,844.323299,147.766014C842.5035,145.9365997,841.5,142.9833994,841.5,138.4285715Z" fill="#FFFFFF" fill-opacity="1"/></g></g><g clip-path="url(#master_svgb_138_12011)"><g><path d="M183.5,226.4285715C183.5,225.63960004,182.828451,225,182,225C181.171549,225,180.5,225.63960004,180.5,226.4285715C180.5,230.9833994,179.4965,233.9365997,177.6767,235.766014C175.8742399,237.577999,172.9849253,238.571428,168.5,238.571428C167.67158008,238.571428,167,239.211,167,240C167,240.789,167.67158008,241.428572,168.5,241.428572C172.9849253,241.428572,175.8742399,242.422001,177.6767,244.234001C179.4965,246.06342899999999,180.5,249.016571,180.5,253.571428C180.5,254.360428,181.171549,255,182,255C182.828451,255,183.5,254.360428,183.5,253.571428C183.5,249.016571,184.5035,246.06342899999999,186.323299,244.234001C188.125698,242.422001,191.014999,241.428572,195.5,241.428572C196.328449,241.428572,197,240.789,197,240C197,239.211,196.328449,238.571428,195.5,238.571428C191.014999,238.571428,188.125698,237.577999,186.323299,235.766014C184.5035,233.9365997,183.5,230.9833994,183.5,226.4285715Z" fill="#FFFFFF" fill-opacity="1"/></g></g></g></svg>