<svg xmlns="http://www.w3.org/2000/svg" xmlns:xlink="http://www.w3.org/1999/xlink" fill="none" version="1.1" width="44" height="44" viewBox="0 0 44 44"><defs><linearGradient x1="0.5" y1="0" x2="0.5" y2="1" id="master_svg0_106_0810"><stop offset="0%" stop-color="#4B5F75" stop-opacity="1"/><stop offset="100%" stop-color="#222E3D" stop-opacity="1"/></linearGradient><clipPath id="master_svg1_161_1663"><rect x="0" y="0" width="44" height="44" rx="22"/></clipPath><clipPath id="master_svg2_161_1664"><rect x="10" y="10" width="24" height="24" rx="0"/></clipPath></defs><g clip-path="url(#master_svg1_161_1663)"><rect x="0" y="0" width="44" height="44" rx="22" fill="url(#master_svg0_106_0810)" fill-opacity="1"/><g clip-path="url(#master_svg2_161_1664)"><g><path d="M31.750002,26.99999L31.750002,17Q31.750002,15.86090982,30.944557,15.055458713Q30.139107,14.24999994,29,14.25L14.9999999,14.25Q13.86091232,14.25,13.055456053,15.05545621Q12.25000006,15.86091226,12.25,17L12.25,26.99999Q12.25,28.139097,13.055458922,28.944547999999998Q13.86090928,29.74999,14.9999999,29.74999L29,29.74999Q30.139111,29.74999,30.944555,28.944546000000003Q31.750002,28.139103,31.750002,26.99999ZM29.883894,16.1161139Q30.250002,16.4822253,30.250002,17L30.250002,26.99999Q30.250002,27.517779,29.883896,27.883885Q29.51779,28.24999,29,28.24999L14.9999999,28.24999Q14.4822253,28.24999,14.1161134,27.883882Q13.75,27.517772,13.75,26.99999L13.75,17Q13.75000006,16.4822327,14.1161164,16.1161164Q14.4822327,15.75,14.9999999,15.75L29,15.75Q29.517782,15.75,29.883894,16.1161139Z" fill-rule="evenodd" fill="#FFFFFF" fill-opacity="1"/></g><g><path d="M24,19.25L27.500000999999997,19.25L27.500000999999997,19.24985003Q27.573854,19.24985003,27.64629,19.2354418Q27.718723,19.22103369,27.786955,19.19277108Q27.855186,19.16450846,27.916595,19.12347746Q27.978003,19.08244652,28.030226,19.03022403Q28.082448,18.97800151,28.123479,18.91659433Q28.164509000000002,18.85518718,28.192771999999998,18.78695518Q28.221035,18.71872318,28.235443,18.64628848Q28.249851,18.573853783,28.249851,18.5Q28.249851,18.426146217,28.235443,18.35371152Q28.221035,18.28127682,28.192771999999998,18.21304482Q28.164509000000002,18.14481282,28.123478,18.08340567Q28.082447000000002,18.02199849,28.030225,17.96977597Q27.978002,17.91755348,27.916594,17.87652254Q27.855186,17.83549154,27.786955,17.80722892Q27.718723,17.77896631,27.646288,17.7645582Q27.573854,17.75014997,27.500000999999997,17.75014997L27.500000999999997,17.75L24,17.75L24,17.75014997Q23.926145599999998,17.75014997,23.8537107,17.7645582Q23.781275700000002,17.77896631,23.7130432,17.80722892Q23.6448116,17.83549154,23.5834045,17.87652254Q23.5219975,17.91755348,23.4697752,17.96977597Q23.4175525,18.02199849,23.3765216,18.08340567Q23.3354902,18.14481282,23.3072281,18.21304482Q23.278965,18.28127682,23.2645574,18.35371152Q23.2501493,18.426146217,23.2501497,18.5Q23.2501493,18.573853783,23.2645574,18.64628848Q23.278965,18.71872318,23.3072281,18.78695518Q23.3354902,18.85518718,23.3765216,18.91659433Q23.4175525,18.97800151,23.4697752,19.03022403Q23.5219975,19.08244652,23.583405,19.12347746Q23.6448116,19.16450846,23.7130437,19.19277108Q23.781275700000002,19.22103369,23.8537107,19.2354418Q23.926145599999998,19.24985003,24,19.24985003L24,19.25ZM24,22.7499905L27.500000999999997,22.7499905L27.500000999999997,22.7498407Q27.573854,22.7498407,27.64629,22.7354321Q27.718723,22.7210236,27.786955,22.692761400000002Q27.855186,22.664498299999998,27.916595,22.6234674Q27.978003,22.5824366,28.030226,22.5302143Q28.082448,22.477991799999998,28.123479,22.4165845Q28.164509000000002,22.3551774,28.192771999999998,22.2869453Q28.221035,22.2187133,28.235443,22.1462786Q28.249851,22.073844,28.249851,21.9999905Q28.249851,21.9261365,28.235443,21.8537016Q28.221035,21.7812669,28.192771999999998,21.7130349Q28.164509000000002,21.6448028,28.123478,21.5833957Q28.082447000000002,21.5219884,28.030225,21.4697661Q27.978002,21.4175434,27.916594,21.3765125Q27.855186,21.3354816,27.786955,21.307219Q27.718723,21.2789564,27.646288,21.2645485Q27.573854,21.2501404,27.500000999999997,21.2501404L27.500000999999997,21.2499905L24,21.2499905L24,21.2501404Q23.926145599999998,21.2501404,23.8537107,21.2645485Q23.781275700000002,21.2789564,23.7130432,21.307219Q23.6448116,21.3354816,23.5834045,21.3765125Q23.5219975,21.4175434,23.4697752,21.4697661Q23.4175525,21.5219884,23.3765216,21.5833955Q23.3354902,21.6448026,23.3072281,21.7130346Q23.278965,21.7812667,23.2645574,21.8537016Q23.2501493,21.9261365,23.2501497,21.9999905Q23.2501493,22.073844,23.2645574,22.1462789Q23.278965,22.2187133,23.3072281,22.2869453Q23.3354902,22.3551774,23.3765216,22.4165845Q23.4175525,22.477991799999998,23.4697752,22.5302143Q23.5219975,22.5824366,23.583405,22.6234674Q23.6448116,22.664498299999998,23.7130437,22.6927609Q23.781275700000002,22.7210236,23.8537107,22.7354321Q23.926145599999998,22.7498407,24,22.7498407L24,22.7499905ZM16.5,26.24999L27.500000999999997,26.24999L27.500000999999997,26.2498407Q27.573854,26.2498403,27.64629,26.2354321Q27.718723,26.2210236,27.786955,26.192761400000002Q27.855186,26.1644988,27.916595,26.1234679Q27.978003,26.0824366,28.030226,26.0302143Q28.082448,25.9779916,28.123479,25.916584Q28.164509000000002,25.8551769,28.192771999999998,25.7869449Q28.221035,25.7187128,28.235443,25.6462784Q28.249851,25.573844,28.249851,25.4999905Q28.249851,25.426136,28.235443,25.353701100000002Q28.221035,25.2812662,28.192771999999998,25.2130342Q28.164509000000002,25.1448021,28.123478,25.0833955Q28.082447000000002,25.0219879,28.030225,24.9697657Q27.978002,24.9175434,27.916594,24.8765121Q27.855186,24.8354812,27.786955,24.8072186Q27.718723,24.7789564,27.646288,24.7645483Q27.573854,24.7501402,27.500000999999997,24.7501402L27.500000999999997,24.74999L16.5,24.74999L16.5,24.7501402Q16.426146217,24.7501402,16.35371152,24.7645483Q16.28127682,24.7789564,16.21304482,24.8072186Q16.14481282,24.8354816,16.08340567,24.8765125Q16.02199849,24.9175434,15.96977597,24.9697661Q15.91755348,25.021988399999998,15.87652254,25.0833955Q15.83549154,25.1448026,15.80722892,25.2130346Q15.77896631,25.2812667,15.7645582,25.3537016Q15.75014997,25.426136,15.75014997,25.4999905Q15.75014997,25.573844,15.7645582,25.6462784Q15.77896631,25.7187128,15.80722892,25.7869449Q15.83549154,25.8551769,15.87652254,25.9165845Q15.91755348,25.9779916,15.96977597,26.0302143Q16.02199849,26.0824366,16.08340567,26.1234679Q16.14481282,26.164498299999998,16.21304482,26.1927609Q16.28127682,26.2210236,16.35371152,26.2354317Q16.426146217,26.2498403,16.5,26.2498407L16.5,26.24999Z" fill-rule="evenodd" fill="#FFFFFF" fill-opacity="1"/></g><g><path d="M15.75,18.5L15.75,21.9999905L15.75014997,21.9999905Q15.75014997,22.073844,15.7645582,22.1462789Q15.77896631,22.2187133,15.80722892,22.2869453Q15.83549154,22.3551774,15.87652254,22.4165845Q15.91755348,22.477991799999998,15.96977597,22.5302143Q16.02199849,22.5824366,16.08340567,22.6234674Q16.14481282,22.664498299999998,16.21304482,22.6927609Q16.28127682,22.7210236,16.35371152,22.7354321Q16.426146217,22.7498407,16.5,22.7498407Q16.573853783,22.7498407,16.64628848,22.7354321Q16.71872318,22.7210236,16.78695518,22.692761400000002Q16.85518718,22.664498299999998,16.91659433,22.6234674Q16.97800151,22.5824366,17.03022403,22.5302143Q17.08244652,22.477991799999998,17.12347746,22.4165845Q17.16450846,22.3551774,17.19277108,22.2869453Q17.22103369,22.2187133,17.2354418,22.1462786Q17.24985003,22.073844,17.24985003,21.9999905L17.25,21.9999905L17.25,20.1528231L20.0061226,22.564423599999998Q20.0617142,22.6130662,20.1257272,22.6499286Q20.1897407,22.6867909,20.2597156,22.7104568Q20.329690499999998,22.7341223,20.4029379,22.7436824Q20.4761853,22.7532425,20.5498905,22.748328700000002Q20.6235952,22.7434149,20.6949253,22.724216Q20.7662554,22.705018,20.832469,22.6722727Q20.8986831,22.6395273,20.9572368,22.5944939Q21.01579,22.5494595,21.0644331,22.4938681Q21.154154300000002,22.3913288,21.2020769,22.2637846Q21.25,22.1362405,21.25,21.9999905L21.25,18.5L21.2498503,18.5Q21.2498503,18.426146217,21.2354417,18.35371152Q21.2210336,18.28127682,21.192771,18.21304482Q21.1645079,18.14481282,21.123477,18.08340567Q21.0824461,18.02199849,21.0302238,17.96977597Q20.9780016,17.91755348,20.916594,17.87652254Q20.8551869,17.83549154,20.786954899999998,17.80722892Q20.7187233,17.77896631,20.6462884,17.7645582Q20.5738535,17.75014997,20.5,17.75014997Q20.426146,17.75014997,20.3537116,17.7645582Q20.2812767,17.77896631,20.2130446,17.80722892Q20.1448126,17.83549154,20.0834053,17.87652254Q20.0219979,17.91755348,19.9697757,17.96977597Q19.9175529,18.02199849,19.8765221,18.08340567Q19.8354912,18.14481282,19.807228600000002,18.21304482Q19.778966,18.28127682,19.7645578,18.35371152Q19.7501497,18.426146217,19.75015,18.5L19.75,18.5L19.75,20.3471673L16.99387768,17.93556678Q16.89133877,17.84584558,16.76379451,17.79792285Q16.63625024,17.75000006,16.5,17.75Q16.426131457,17.75,16.35368228,17.76441109Q16.28123312,17.77882212,16.21298748,17.8070904Q16.14474183,17.83535868,16.08332238,17.87639785Q16.02190292,17.91743702,15.96966994,17.96966994Q15.91743702,18.02190292,15.87639785,18.08332238Q15.83535868,18.14474183,15.8070904,18.21298748Q15.77882212,18.28123312,15.76441109,18.35368228Q15.75,18.426131457,15.75,18.5Z" fill-rule="evenodd" fill="#FFFFFF" fill-opacity="1"/></g></g></g></svg>