<svg xmlns="http://www.w3.org/2000/svg" xmlns:xlink="http://www.w3.org/1999/xlink" fill="none" version="1.1" width="48" height="48" viewBox="0 0 48 48"><defs><linearGradient x1="0.5" y1="0" x2="0.5" y2="1" id="master_svg0_106_0810"><stop offset="0%" stop-color="#4B5F75" stop-opacity="1"/><stop offset="100%" stop-color="#222E3D" stop-opacity="1"/></linearGradient><clipPath id="master_svg1_148_5824"><rect x="0" y="0" width="48" height="48" rx="24"/></clipPath><clipPath id="master_svg2_148_6093"><rect x="12" y="12" width="24" height="24" rx="0"/></clipPath></defs><g clip-path="url(#master_svg1_148_5824)"><rect x="0" y="0" width="48" height="48" rx="24" fill="url(#master_svg0_106_0810)" fill-opacity="1"/><g clip-path="url(#master_svg2_148_6093)"><g><path d="M22.329750389256287,16.17158017Q21.158188689256285,15,19.501329789256285,15Q17.844478989256288,14.9999999,16.672904089256285,16.17157459Q15.501329789256287,17.3431489,15.501328789256286,19.0000017Q15.501329589256287,20.6568518,16.672904089256285,21.8284259Q17.844478989256288,23,19.501329789256285,23Q21.158188689256285,23,22.329750389256287,21.8284202Q23.501300189256284,20.6568518,23.501300189256284,19Q23.501300189256284,17.3431489,22.329750389256287,16.17158017ZM31.329749589256288,16.17157865Q30.158183589256286,15,28.501302589256287,15Q26.844481589256286,14.9999999,25.672898589256285,16.17157046Q24.50130058925629,17.3431547,24.50130058925629,19.0000014Q24.50130058925629,20.6568465,25.672898589256285,21.8284302Q26.844481589256286,23,28.501302589256287,23Q30.158183589256286,23,31.329749589256288,21.8284216Q32.50130058925629,20.6568561,32.50130058925629,19Q32.50130058925629,17.3431443,31.329749589256288,16.17157865ZM17.501328789256288,19.000001Q17.501329789256285,17,19.501329789256285,17Q21.501300189256288,17,21.501300189256288,19Q21.501300189256288,21,19.501329789256285,21Q17.501329789256285,21,17.501328789256288,19.000001ZM26.50130058925629,19.0000014Q26.50130058925629,17,28.501302589256287,17Q30.501300589256285,17,30.501300589256285,19Q30.501300589256285,21,28.501302589256287,21Q26.50130058925629,21,26.50130058925629,19.0000014ZM32.35520158925628,31L29.001302589256287,31L29.001302589256287,31.0002Q28.902829589256285,31.0002,28.806249589256286,31.019410999999998Q28.709670589256287,31.038621,28.61869358925629,31.076303Q28.527716589256286,31.113987,28.445842589256287,31.168694000000002Q28.36396558925629,31.223402999999998,28.294335589256285,31.293034Q28.22470558925629,31.362662999999998,28.169997589256287,31.44454Q28.115289589256285,31.526415,28.077605589256287,31.617392000000002Q28.039922589256285,31.708368,28.020711589256287,31.804948Q28.00150058925629,31.901527,28.001501589256286,32Q28.00150058925629,32.098473,28.020711589256287,32.195051Q28.039922589256285,32.29163,28.077605589256287,32.382607Q28.115289589256285,32.473583000000005,28.169997589256287,32.555458Q28.22470558925629,32.637335,28.294335589256285,32.706964Q28.36396558925629,32.776594,28.445841589256286,32.831300999999996Q28.527716589256286,32.886009,28.61869358925629,32.923693Q28.709670589256287,32.961376,28.806248589256285,32.980587Q28.902829589256285,32.999798,29.001302589256287,32.9998L29.001302589256287,33L32.35520158925628,33Q33.69433958925629,33,34.55368958925629,32.021748Q35.48429458925629,30.962381999999998,35.10951558925629,29.617128Q34.239594589256285,26.494467,31.87076358925629,24.9900837Q29.605535589256284,23.5514975,27.039267589256287,24.1754065L27.039314589256286,24.1755991Q26.95823058925629,24.1953125,26.881535589256288,24.2281933Q26.804841589256284,24.261074100000002,26.734658589256284,24.3062134Q26.66447658925629,24.3513527,26.602748589256286,24.4075022Q26.541020589256284,24.4636517,26.489453589256286,24.5292568Q26.437886589256287,24.594862,26.39790858925629,24.668108Q26.35793158925629,24.741354,26.330648589256285,24.8202133Q26.303366589256285,24.8990726,26.289533589256287,24.981363299999998Q26.27570058925629,25.0636549,26.27570058925629,25.1471004Q26.27570058925629,25.2455711,26.294910589256286,25.342150699999998Q26.31412158925629,25.438730200000002,26.351805589256287,25.529705999999997Q26.389487589256287,25.6206818,26.444196589256286,25.7025576Q26.498903589256287,25.7844343,26.568534589256288,25.854064899999997Q26.638163589256287,25.923694599999997,26.720039589256288,25.9784031Q26.80191558925629,26.033110999999998,26.892892589256284,26.070794Q26.98386858925629,26.108479000000003,27.080448589256285,26.127689Q27.177027589256287,26.146900000000002,27.27550058925629,26.146900000000002Q27.395293589256287,26.146900000000002,27.51169658925629,26.1186L27.511743589256287,26.118796Q29.251426589256287,25.6958466,30.798564589256287,26.678392000000002Q32.51906758925629,27.771038,33.18288558925629,30.153873Q33.26705158925628,30.455982,33.05111058925628,30.701801Q32.78915758925629,31,32.35520158925628,31ZM25.554449589256286,32.019093Q26.483882589256286,30.958274,26.108718589256284,29.613578L26.108716589256286,29.613562Q24.542626589256287,24.000038099999998,19.501328389256287,24.000011399999998Q14.460021789256286,23.9999857,12.893940209256286,29.613485Q12.518785189256286,30.958242,13.448190389256286,32.019068000000004Q14.307600559256286,33,15.647279989256287,33L23.355401389256286,33Q24.69503158925629,33,25.554449589256286,32.019093ZM19.501318289256286,26.000011Q23.024226589256287,26.000031,24.182286589256286,30.151021999999998Q24.266775589256287,30.45386,24.050151589256288,30.701107Q23.78827698925629,31,23.355401389256286,31L15.647279989256287,31Q15.214376789256287,31,14.952512189256286,30.701107Q14.735872509256287,30.453834999999998,14.820379689256287,30.150914999999998Q15.978423989256287,25.9999933,19.501318289256286,26.000011Z" fill-rule="evenodd" fill="#FFFFFF" fill-opacity="1"/></g></g></g></svg>