<svg xmlns="http://www.w3.org/2000/svg" xmlns:xlink="http://www.w3.org/1999/xlink" fill="none" version="1.1" width="48" height="48" viewBox="0 0 48 48"><defs><linearGradient x1="0.5" y1="0" x2="0.5" y2="1" id="master_svg0_106_0810"><stop offset="0%" stop-color="#4B5F75" stop-opacity="1"/><stop offset="100%" stop-color="#222E3D" stop-opacity="1"/></linearGradient><clipPath id="master_svg1_148_5788"><rect x="0" y="0" width="48" height="48" rx="24"/></clipPath><clipPath id="master_svg2_148_6089"><rect x="12" y="12" width="24" height="24" rx="0"/></clipPath></defs><g clip-path="url(#master_svg1_148_5788)"><rect x="0" y="0" width="48" height="48" rx="24" fill="url(#master_svg0_106_0810)" fill-opacity="1"/><g clip-path="url(#master_svg2_148_6089)"><g><path d="M14.71265209,24.9578266Q21.119976,26.880023,23.0421743,33.28735Q23.0778389,33.406233,23.141484300000002,33.512789Q23.2051296,33.619344999999996,23.2928934,33.707108000000005Q23.3806572,33.794872,23.487213099999998,33.858517Q23.59377,33.922161,23.7126522,33.957827Q23.806989700000003,33.986126,23.905036000000003,33.99548Q24.003082300000003,34.004833000000005,24.1010685,33.994877Q24.199054699999998,33.984924,24.2932177,33.956043Q24.3873806,33.927166,24.4741001,33.88047Q24.5608177,33.833775,24.6367607,33.771061Q24.7127037,33.708344,24.774951899999998,33.632019Q24.837200199999998,33.555693000000005,24.8833628,33.468689Q24.9295254,33.381687,24.9578266,33.28735Q26.880023,26.880024,33.28735,24.9578266Q33.406233,24.922162999999998,33.512789,24.8585167Q33.619344999999996,24.7948713,33.707108000000005,24.7071066Q33.794872,24.6193428,33.858517,24.512786900000002Q33.922161,24.4062309,33.957827,24.2873478Q33.986126,24.193010299999997,33.99548,24.0949631Q34.004833000000005,23.9969168,33.994877,23.898929600000002Q33.984924,23.8009434,33.956043,23.7067804Q33.927166,23.612618400000002,33.88047,23.5258999Q33.833775,23.439180399999998,33.771061,23.3632374Q33.708344,23.2872953,33.632019,23.225047099999998Q33.555693000000005,23.1627989,33.468689,23.1166372Q33.381687,23.0704756,33.28735,23.0421743Q26.880023,21.119976,24.9578266,14.71265212Q24.922162999999998,14.59376973,24.8585167,14.48721337Q24.7948713,14.38065702,24.7071066,14.29289317Q24.6193428,14.20512927,24.512786900000002,14.14148378Q24.4062309,14.0778383,24.2873478,14.04217368Q24.096824599999998,13.9850168,23.8989315,14.00512064Q23.7010374,14.02522457,23.525900800000002,14.11952865Q23.3507633,14.21383297,23.225048100000002,14.36798072Q23.099330899999998,14.52212852,23.0421743,14.71265209Q21.119976,21.119977,14.71265212,23.0421743Q14.59376973,23.0778389,14.48721337,23.141484300000002Q14.38065702,23.2051296,14.29289317,23.2928934Q14.20512927,23.3806572,14.14148378,23.487213099999998Q14.0778383,23.59377,14.04217368,23.7126522Q14.01387239,23.806989700000003,14.00451928,23.905036000000003Q13.9951662,24.003082300000003,14.00512069,24.1010685Q14.01507521,24.199054699999998,14.04395467,24.2932177Q14.07283425,24.3873806,14.11952895,24.4741001Q14.1662237,24.5608177,14.22893924,24.6367607Q14.29165477,24.7127037,14.36798096,24.774951899999998Q14.44430709,24.837200199999998,14.53131077,24.8833628Q14.61831445,24.9295254,14.71265209,24.9578266ZM24,30.232765Q26.034853,26.034853,30.232765,24Q26.034853,21.9651461,24,17.767235Q21.9651465,21.9651465,17.767235,24Q21.9651461,26.034853,24,30.232765Z" fill-rule="evenodd" fill="#FFFFFF" fill-opacity="1"/></g></g></g></svg>