<svg xmlns="http://www.w3.org/2000/svg" xmlns:xlink="http://www.w3.org/1999/xlink" fill="none" version="1.1" width="48" height="48" viewBox="0 0 48 48"><defs><linearGradient x1="0.5" y1="0" x2="0.5" y2="1" id="master_svg0_106_0810"><stop offset="0%" stop-color="#4B5F75" stop-opacity="1"/><stop offset="100%" stop-color="#222E3D" stop-opacity="1"/></linearGradient><clipPath id="master_svg1_148_5799"><rect x="0" y="0" width="48" height="48" rx="24"/></clipPath><clipPath id="master_svg2_148_6091"><rect x="12" y="12" width="24" height="24" rx="0"/></clipPath></defs><g clip-path="url(#master_svg1_148_5799)"><rect x="0" y="0" width="48" height="48" rx="24" fill="url(#master_svg0_106_0810)" fill-opacity="1"/><g clip-path="url(#master_svg2_148_6091)"><g><path d="M20,23.2360687L20,31L29.3813,31Q31.127092,31,31.36297,29.27019L32.044776999999996,24.2701435Q32.167622,23.3695889,31.569878,22.6848083Q30.972109,22,30.063101,22L25.0161,22Q24.9386139,22,24.862052900000002,21.9880633Q24.665514,21.9574213,24.4956627,21.8538995Q24.3258114,21.7503781,24.208505600000002,21.5897374Q24.091198900000002,21.4290962,24.0442963,21.235793100000002Q23.9973946,21.04249,24.0280371,20.8459525L24.6036396,17.1540351Q24.674551,16.6992588,24.3752127,16.3496299Q24.0766649,16.0009247,23.618032499999998,16.0000025L20,23.2360687ZM18,31L18,24L16,24L16,31L18,31ZM18.3819666,22L16,22Q14,22,14,24L14,31Q14,33,16,33L29.3813,33Q32.872879,33,33.344631,29.540411L34.026426,24.5404568Q34.272133,22.7392044,33.076599,21.3695922Q31.881083,20,30.063101,20L26.184089999999998,20L26.579760999999998,17.4621654Q26.792499,16.0978183,25.894463000000002,15.0489076Q24.9964294,14,23.6155996,14L23,14.00000006Q22.8607163,14.00000012,22.7267342,14.03806174Q22.5927515,14.07612336,22.4742694,14.14934927Q22.3557873,14.22257519,22.2618251,14.32539111Q22.1678629,14.42820704,22.105573200000002,14.55278641L18.3819666,22Z" fill-rule="evenodd" fill="#FFFFFF" fill-opacity="1"/></g></g></g></svg>