<svg width="563" height="378" viewBox="0 0 563 378" fill="none" xmlns="http://www.w3.org/2000/svg">
<g id="High-Quality_Ad_Placements">
<g id="Group" filter="url(#filter0_d_74_947)">
<path id="Vector" d="M489 15H28C21.3726 15 16 20.3726 16 27V312C16 318.627 21.3726 324 28 324H489C495.627 324 501 318.627 501 312V27C501 20.3726 495.627 15 489 15Z" fill="white"/>
</g>
<g id="Group_2">
<path id="Vector_2" d="M16 27C16 20.3726 21.3726 15 28 15H489C495.627 15 501 20.3726 501 27V51H16V27Z" fill="white"/>
</g>
<g id="Group_3">
<path id="Vector_3" d="M501 51H16V52H501V51Z" fill="#F1F1F1"/>
</g>
<g id="Clip path group">
<mask id="mask0_74_947" style="mask-type:luminance" maskUnits="userSpaceOnUse" x="36" y="14" width="65" height="38">
<g id="master_svg1u_84_00846">
<path id="Vector_4" d="M101 14H36V52H101V14Z" fill="white"/>
</g>
</mask>
<g mask="url(#mask0_74_947)">
<g id="Group_4">
<g id="Group_5">
<g id="Group_6">
<g id="Group_7">
<path id="Vector_5" d="M42.1716 41.5915C41.3894 40.826 41.3894 39.5862 42.1716 38.8207L56.8942 24.411C57.6764 23.6455 58.943 23.6455 59.7252 24.411C60.5073 25.1766 60.5073 26.4163 59.7252 27.1818L45.0025 41.5915C44.2204 42.3556 42.9537 42.3556 42.1716 41.5915Z" fill="#39A6FF"/>
</g>
<g id="Group_8">
<path id="Vector_6" d="M59.7252 41.5915C58.943 42.357 57.6764 42.357 56.8942 41.5915L42.1716 27.1818C41.3894 26.4163 41.3894 25.1766 42.1716 24.411C42.9537 23.6455 44.2204 23.6455 45.0025 24.411L59.7252 38.8207C60.5073 39.5848 60.5073 40.826 59.7252 41.5915Z" fill="#AED7FF"/>
</g>
<g id="Group_9">
<path id="Vector_7" d="M59.0989 30.6087H55.2831C54.2393 30.6087 53.3939 29.7812 53.3939 28.7595V25.0249C53.3939 23.7514 52.4119 22.6382 51.1121 22.5552C49.6888 22.4651 48.5055 23.5685 48.5055 24.9419V28.7581C48.5055 29.7797 47.6601 30.6072 46.6163 30.6072H42.799C41.4979 30.6072 40.3606 31.5682 40.2758 32.8404C40.1838 34.2335 41.3109 35.3916 42.7142 35.3916H46.6134C47.6572 35.3916 48.5026 36.219 48.5026 37.2407V40.9754C48.5026 42.2489 49.4846 43.362 50.7843 43.4451C52.2077 43.5351 53.391 42.4318 53.391 41.0584V37.242C53.391 36.2204 54.2364 35.3931 55.2802 35.3931H59.1794C60.5826 35.3931 61.7098 34.2349 61.6178 32.8418C61.5373 31.5697 60.4 30.6087 59.0989 30.6087Z" fill="#0077FD"/>
</g>
<g id="Group_10">
<g id="Group_11">
<path id="Vector_8" d="M50.9492 33.8394C49.6912 33.8394 48.482 33.5186 47.5446 32.9346C47.3448 32.8108 47.2858 32.5504 47.4123 32.3562C47.5388 32.1606 47.8048 32.103 48.0032 32.2268C48.8055 32.725 49.8508 33.0008 50.9478 33.0008C52.0448 33.0008 53.0915 32.7264 53.8923 32.2268C54.0921 32.103 54.3567 32.1606 54.4832 32.3562C54.6097 32.5518 54.5508 32.8108 54.3509 32.9346C53.4164 33.5186 52.2072 33.8394 50.9492 33.8394Z" fill="white"/>
</g>
</g>
</g>
<g id="Group_12">
<g id="Group_13">
<path id="Vector_9" d="M73.7178 32.0384C73.1169 32.2762 72.5576 32.4127 72.0414 32.4493C71.5238 32.4859 71.058 32.438 70.6425 32.3057C70.227 32.1735 69.8718 31.9709 69.5771 31.6993C69.2823 31.4277 69.0566 31.1054 68.9014 30.7325C68.7446 30.3596 68.667 29.9515 68.667 29.5111C68.667 29.0762 68.7389 28.6724 68.8841 28.3023C69.0279 27.9322 69.2406 27.6113 69.521 27.3397C69.8014 27.0681 70.1407 26.8557 70.539 26.7037C70.9372 26.5517 71.3915 26.4758 71.8991 26.4786C72.408 26.4814 72.9644 26.5729 73.5712 26.7545C73.5712 26.9923 73.5712 27.2313 73.5712 27.4705C73.5712 27.7112 73.5712 27.9504 73.5712 28.1868C73.091 27.9997 72.6481 27.8927 72.2413 27.8646C71.8344 27.8364 71.4792 27.8787 71.1759 27.9913C70.8725 28.1039 70.6353 28.2841 70.4656 28.5303C70.2945 28.7766 70.2097 29.0832 70.2097 29.4505C70.2097 29.7728 70.2715 30.0584 70.3966 30.3074C70.5202 30.5565 70.6957 30.7508 70.9214 30.8929C71.1471 31.035 71.403 31.1053 71.692 31.1053C71.7898 31.1053 71.889 31.1013 71.9868 31.0928C72.0845 31.0844 72.1809 31.0687 72.2729 31.0462C72.2729 30.8999 72.2729 30.7495 72.2729 30.5975C72.2729 30.4455 72.2729 30.2949 72.2729 30.1485C72.1104 30.1485 71.9494 30.1485 71.7883 30.1485C71.6259 30.1485 71.4649 30.1485 71.3024 30.1485C71.3024 29.9388 71.3024 29.7292 71.3024 29.5167C71.3024 29.3042 71.3024 29.0945 71.3024 28.8848C71.7006 28.8848 72.1032 28.8848 72.5115 28.8848C72.9184 28.8848 73.3224 28.8848 73.7207 28.8848C73.7207 29.4055 73.7207 29.9303 73.7207 30.4622C73.7178 30.9927 73.7178 31.5192 73.7178 32.0384Z" fill="#030303"/>
</g>
<g id="Group_14">
<path id="Vector_10" d="M77.7882 32.3435C77.7882 32.2985 77.7882 32.2549 77.7882 32.2126C77.7882 32.1704 77.7882 32.1295 77.7882 32.0901C77.643 32.2083 77.4805 32.3012 77.2979 32.366C77.1153 32.4307 76.9212 32.4631 76.7128 32.4631C76.418 32.4631 76.1405 32.4083 75.8803 32.2971C75.6201 32.1873 75.39 32.0284 75.1916 31.8215C74.9918 31.6147 74.8365 31.3712 74.7243 31.0884C74.6122 30.8055 74.5547 30.4917 74.5547 30.147C74.5547 29.7966 74.6108 29.4799 74.7243 29.197C74.8365 28.9142 74.9932 28.6722 75.1916 28.4724C75.3915 28.2712 75.6201 28.1164 75.8803 28.0066C76.1405 27.8968 76.4151 27.8406 76.7041 27.8406C76.9126 27.8406 77.1082 27.8728 77.2936 27.9375C77.4791 28.0022 77.643 28.0923 77.7882 28.2048C77.7882 28.1598 77.7882 28.1178 77.7882 28.0784C77.7882 28.039 77.7882 27.9996 77.7882 27.9602C78.0254 27.9602 78.2641 27.9602 78.5071 27.9602C78.7501 27.9602 78.9859 27.9602 79.2173 27.9602C79.2173 28.6835 79.2173 29.4152 79.2173 30.1526C79.2173 30.89 79.2173 31.6217 79.2173 32.345C78.9859 32.345 78.7501 32.345 78.5071 32.345C78.2641 32.345 78.0254 32.3435 77.7882 32.3435ZM76.9054 31.2249C77.1829 31.2249 77.4043 31.1261 77.5725 30.9277C77.7393 30.7293 77.8241 30.4706 77.8241 30.147C77.8241 29.8247 77.7408 29.5658 77.5725 29.3716C77.4043 29.176 77.1829 29.0789 76.9054 29.0789C76.6222 29.0789 76.3979 29.1744 76.234 29.3672C76.0701 29.56 75.9867 29.8191 75.9867 30.147C75.9867 30.4748 76.0687 30.7365 76.234 30.9307C76.3979 31.1263 76.6222 31.2249 76.9054 31.2249Z" fill="#030303"/>
</g>
<g id="Group_15">
<path id="Vector_11" d="M80.7094 32.3435C80.7094 31.8229 80.7094 31.3009 80.7094 30.7747C80.7094 30.2484 80.7094 29.7289 80.7094 29.2139C80.5944 29.2139 80.4765 29.2139 80.3586 29.2139C80.2407 29.2139 80.1228 29.2139 80.0078 29.2139C80.0078 29.0042 80.0078 28.7961 80.0078 28.5864C80.0078 28.3767 80.0078 28.1684 80.0078 27.9587C80.1228 27.9587 80.2407 27.9587 80.3586 27.9587C80.4765 27.9587 80.5944 27.9587 80.7094 27.9587C80.7094 27.7603 80.7094 27.5647 80.7094 27.3691C80.7094 27.1735 80.7094 26.9809 80.7094 26.7881C80.9467 26.7881 81.1853 26.7881 81.4283 26.7881C81.6713 26.7881 81.9071 26.7881 82.1386 26.7881C82.1386 26.9809 82.1386 27.1735 82.1386 27.3691C82.1386 27.5647 82.1386 27.7603 82.1386 27.9587C82.2708 27.9587 82.4074 27.9587 82.5455 27.9587C82.6835 27.9587 82.8201 27.9587 82.9523 27.9587C82.9523 28.1684 82.9523 28.3767 82.9523 28.5864C82.9523 28.7961 82.9523 29.0042 82.9523 29.2139C82.8201 29.2139 82.6835 29.2139 82.5455 29.2139C82.4074 29.2139 82.2708 29.2139 82.1386 29.2139C82.1386 29.7289 82.1386 30.2484 82.1386 30.7747C82.1386 31.3009 82.1386 31.8229 82.1386 32.3435C81.9071 32.3435 81.6713 32.3435 81.4283 32.3435C81.1853 32.3435 80.9467 32.3435 80.7094 32.3435Z" fill="#030303"/>
</g>
<g id="Group_16">
<path id="Vector_12" d="M83.7598 32.3435C83.7598 31.3205 83.7598 30.2891 83.7598 29.2478C83.7598 28.2079 83.7598 27.1749 83.7598 26.1519C83.997 26.1519 84.2357 26.1519 84.4786 26.1519C84.7216 26.1519 84.9574 26.1519 85.1889 26.1519C85.1889 26.4854 85.1889 26.8231 85.1889 27.165C85.1889 27.507 85.1889 27.8447 85.1889 28.1782C85.3442 28.0713 85.5196 27.9868 85.7137 27.9277C85.9078 27.8686 86.1163 27.8391 86.342 27.8391C86.6712 27.8391 86.9616 27.9123 87.2133 28.0601C87.4649 28.2078 87.6604 28.4175 87.8027 28.6919C87.9436 28.9663 88.0155 29.2955 88.0155 29.6797C88.0155 30.1201 88.0155 30.5649 88.0155 31.011C88.0155 31.4571 88.0155 31.9016 88.0155 32.342C87.784 32.342 87.5483 32.342 87.3053 32.342C87.0623 32.342 86.8222 32.342 86.5864 32.342C86.5864 31.9354 86.5864 31.5217 86.5864 31.1038C86.5864 30.6858 86.5864 30.2722 86.5864 29.8655C86.5864 29.6389 86.5332 29.4574 86.4254 29.3181C86.319 29.1802 86.1493 29.1099 85.9178 29.1099C85.6864 29.1099 85.5081 29.1745 85.3801 29.3054C85.2536 29.4363 85.1889 29.622 85.1889 29.8655C85.1889 30.2722 85.1889 30.6858 85.1889 31.1038C85.1889 31.5217 85.1889 31.9354 85.1889 32.342C84.9574 32.342 84.7216 32.342 84.4787 32.342C84.2357 32.3435 83.9956 32.3435 83.7598 32.3435Z" fill="#030303"/>
</g>
<g id="Group_17">
<path id="Vector_13" d="M92.8324 32.1394C92.4342 32.304 92.0388 32.4054 91.6449 32.4448C91.2523 32.4842 90.8814 32.4632 90.532 32.3816C90.1827 32.3 89.8721 32.1592 89.6004 31.9622C89.3286 31.7637 89.1158 31.5134 88.9634 31.208C88.8096 30.9026 88.7334 30.5492 88.7334 30.1482C88.7334 29.8147 88.7895 29.5081 88.903 29.228C89.0152 28.948 89.1762 28.7018 89.3833 28.4907C89.5917 28.2782 89.8362 28.1148 90.1194 27.998C90.4026 27.8827 90.7118 27.8237 91.0468 27.8237C91.3472 27.8237 91.619 27.8716 91.862 27.9673C92.1049 28.063 92.3148 28.198 92.4946 28.3696C92.6728 28.5427 92.8181 28.7468 92.9273 28.9846C93.0366 29.2224 93.1056 29.4828 93.1358 29.7656C93.1646 30.0485 93.1473 30.3482 93.0841 30.6648C92.611 30.6648 92.1337 30.6648 91.6549 30.6648C91.1747 30.6648 90.6988 30.6648 90.2258 30.6648C90.3351 30.8801 90.5191 31.032 90.7765 31.1221C91.0338 31.2121 91.3401 31.2403 91.6952 31.2065C92.0503 31.1728 92.4299 31.0828 92.8339 30.9351C92.8339 31.1335 92.8339 31.3331 92.8339 31.5371C92.8325 31.7411 92.8324 31.9424 92.8324 32.1394ZM91.0123 29.0789C90.844 29.0789 90.6902 29.1238 90.5493 29.2139C90.4084 29.3039 90.2991 29.4434 90.2243 29.6292C90.4846 29.6292 90.7448 29.6292 91.0079 29.6292C91.271 29.6292 91.5327 29.6292 91.7915 29.6292C91.7225 29.4364 91.619 29.297 91.4838 29.2097C91.3487 29.1225 91.192 29.0789 91.0123 29.0789Z" fill="#030303"/>
</g>
<g id="Group_18">
<path id="Vector_14" d="M93.958 32.3432C93.958 31.62 93.958 30.8882 93.958 30.1509C93.958 29.4135 93.958 28.6818 93.958 27.9585C94.1952 27.9585 94.4353 27.9585 94.6769 27.9585C94.9184 27.9585 95.1557 27.9585 95.3871 27.9585C95.3871 27.9979 95.3871 28.0372 95.3871 28.0766C95.3871 28.116 95.3871 28.1556 95.3871 28.195C95.5654 28.0712 95.7682 27.9769 95.9939 27.915C96.2196 27.8531 96.464 27.8361 96.73 27.8642C96.73 28.0908 96.73 28.3188 96.73 28.551C96.73 28.7832 96.73 29.0126 96.73 29.2378C96.2742 29.1759 95.9364 29.2139 95.7164 29.3518C95.4964 29.4897 95.3871 29.7146 95.3871 30.0256C95.3871 30.4042 95.3871 30.7885 95.3871 31.1797C95.3871 31.5709 95.3871 31.9579 95.3871 32.342C95.1557 32.342 94.9199 32.342 94.6769 32.342C94.4339 32.342 94.1952 32.3432 93.958 32.3432Z" fill="#030303"/>
</g>
<g id="Group_19">
<path id="Vector_15" d="M72.8323 37.8428C72.8323 38.272 72.7187 38.6209 72.4901 38.8896C72.2615 39.1584 71.9553 39.3513 71.5714 39.4709C71.1875 39.5891 70.7576 39.641 70.2846 39.627C69.8116 39.6129 69.3285 39.5413 68.8382 39.4104C68.8382 39.167 68.8382 38.9234 68.8382 38.6814C68.8382 38.4379 68.8382 38.1944 68.8382 37.9524C69.2882 38.1114 69.6994 38.2101 70.0689 38.2495C70.4384 38.2889 70.7332 38.2732 70.9532 38.2029C71.1731 38.1325 71.2824 38.0116 71.2824 37.8428C71.2824 37.7246 71.222 37.626 71.0998 37.55C70.979 37.4741 70.8209 37.4051 70.6282 37.3418C70.4341 37.2799 70.2314 37.208 70.0172 37.125C69.803 37.0434 69.6002 36.9379 69.4061 36.8113C69.212 36.6846 69.0553 36.5172 68.9346 36.3103C68.8138 36.1034 68.752 35.8459 68.752 35.5349C68.752 35.1508 68.8555 34.8258 69.0639 34.5598C69.2724 34.2939 69.5528 34.094 69.9093 33.9575C70.2645 33.8224 70.6685 33.7534 71.1228 33.7534C71.5757 33.7534 72.0459 33.821 72.5304 33.9575C72.5304 34.201 72.5304 34.4445 72.5304 34.6865C72.5304 34.93 72.5304 35.1732 72.5304 35.4153C72.1264 35.245 71.7554 35.1423 71.4176 35.1057C71.0797 35.0691 70.8094 35.0861 70.6081 35.1565C70.4054 35.2269 70.3047 35.3421 70.3047 35.4998C70.3047 35.6123 70.3651 35.7066 70.4873 35.7798C70.6081 35.853 70.7662 35.9192 70.9589 35.9797C71.153 36.0388 71.3557 36.1105 71.57 36.1921C71.7842 36.2738 71.9869 36.3821 72.181 36.5144C72.3751 36.6467 72.5318 36.8197 72.6526 37.0322C72.7719 37.2447 72.8323 37.5149 72.8323 37.8428Z" fill="#030303"/>
</g>
<g id="Group_20">
<path id="Vector_16" d="M73.9858 39.582C73.9858 39.0614 73.9858 38.5392 73.9858 38.0129C73.9858 37.4866 73.9858 36.9674 73.9858 36.4524C73.8708 36.4524 73.7529 36.4524 73.635 36.4524C73.5171 36.4524 73.3992 36.4524 73.2842 36.4524C73.2842 36.2427 73.2842 36.0344 73.2842 35.8247C73.2842 35.615 73.2842 35.4069 73.2842 35.1973C73.3992 35.1973 73.5171 35.1973 73.635 35.1973C73.7529 35.1973 73.8708 35.1973 73.9858 35.1973C73.9858 34.9989 73.9858 34.8033 73.9858 34.6077C73.9858 34.4121 73.9858 34.2192 73.9858 34.0264C74.223 34.0264 74.4617 34.0264 74.7047 34.0264C74.9477 34.0264 75.1835 34.0264 75.4149 34.0264C75.4149 34.2192 75.4149 34.4121 75.4149 34.6077C75.4149 34.8033 75.4149 34.9989 75.4149 35.1973C75.5472 35.1973 75.6838 35.1973 75.8218 35.1973C75.9598 35.1973 76.0964 35.1973 76.2287 35.1973C76.2287 35.4069 76.2287 35.615 76.2287 35.8247C76.2287 36.0344 76.2287 36.2427 76.2287 36.4524C76.0964 36.4524 75.9598 36.4524 75.8218 36.4524C75.6838 36.4524 75.5472 36.4524 75.4149 36.4524C75.4149 36.9674 75.4149 37.4866 75.4149 38.0129C75.4149 38.5392 75.4149 39.0614 75.4149 39.582C75.1835 39.582 74.9477 39.582 74.7047 39.582C74.4617 39.582 74.2216 39.582 73.9858 39.582Z" fill="#030303"/>
</g>
<g id="Group_21">
<path id="Vector_17" d="M79.9386 39.582C79.9386 39.537 79.9386 39.4934 79.9386 39.4512C79.9386 39.409 79.9386 39.3683 79.9386 39.3289C79.7934 39.4471 79.6309 39.5398 79.4483 39.6045C79.2657 39.6692 79.0716 39.7017 78.8632 39.7017C78.5684 39.7017 78.2909 39.6468 78.0307 39.5356C77.7705 39.4259 77.5404 39.267 77.342 39.0615C77.1422 38.8547 76.9869 38.6112 76.8747 38.3284C76.7626 38.0455 76.7051 37.7317 76.7051 37.387C76.7051 37.0366 76.7611 36.7199 76.8747 36.437C76.9869 36.1542 77.1436 35.9122 77.342 35.7124C77.5419 35.5112 77.7705 35.3563 78.0307 35.2466C78.2909 35.1368 78.5655 35.0806 78.8545 35.0806C79.063 35.0806 79.2585 35.1128 79.444 35.1775C79.6295 35.2422 79.7934 35.3323 79.9386 35.4448C79.9386 35.3998 79.9386 35.3578 79.9386 35.3184C79.9386 35.279 79.9386 35.2396 79.9386 35.2002C80.1758 35.2002 80.4145 35.2002 80.6575 35.2002C80.9005 35.2002 81.1362 35.2002 81.3677 35.2002C81.3677 35.9235 81.3677 36.6552 81.3677 37.3926C81.3677 38.1299 81.3677 38.8617 81.3677 39.585C81.1362 39.585 80.9005 39.585 80.6575 39.585C80.4145 39.585 80.1758 39.582 79.9386 39.582ZM79.0544 38.4619C79.3319 38.4619 79.5533 38.3634 79.7215 38.165C79.8883 37.9666 79.9731 37.7077 79.9731 37.384C79.9731 37.0604 79.8897 36.8028 79.7215 36.6086C79.5533 36.413 79.3319 36.3159 79.0544 36.3159C78.7711 36.3159 78.5468 36.4117 78.3829 36.6045C78.219 36.7973 78.1357 37.0562 78.1357 37.384C78.1357 37.7119 78.2176 37.9735 78.3829 38.1677C78.5483 38.3647 78.7711 38.4619 79.0544 38.4619Z" fill="#030303"/>
</g>
<g id="Group_22">
<path id="Vector_18" d="M82.3916 39.5821C82.3916 38.8588 82.3916 38.1271 82.3916 37.3897C82.3916 36.6523 82.3916 35.9206 82.3916 35.1973C82.6288 35.1973 82.8689 35.1973 83.1105 35.1973C83.352 35.1973 83.5892 35.1973 83.8207 35.1973C83.8207 35.2367 83.8207 35.2761 83.8207 35.3155C83.8207 35.3549 83.8207 35.3942 83.8207 35.4336C83.999 35.3098 84.2017 35.2155 84.4275 35.1536C84.6532 35.0917 84.8976 35.0749 85.1636 35.1031C85.1636 35.3296 85.1636 35.5574 85.1636 35.7896C85.1636 36.0218 85.1636 36.2512 85.1636 36.4764C84.7078 36.4144 84.37 36.4525 84.15 36.5904C83.93 36.7283 83.8207 36.9535 83.8207 37.2644C83.8207 37.643 83.8207 38.027 83.8207 38.4182C83.8207 38.808 83.8207 39.1964 83.8207 39.5806C83.5892 39.5806 83.3535 39.5806 83.1105 39.5806C82.8675 39.5806 82.6274 39.5821 82.3916 39.5821Z" fill="#030303"/>
</g>
</g>
</g>
</g>
</g>
</g>
<g id="Group_23">
<path id="Vector_19" d="M472 43C477.523 43 482 38.5228 482 33C482 27.4772 477.523 23 472 23C466.477 23 462 27.4772 462 33C462 38.5228 466.477 43 472 43Z" fill="#0077FD"/>
</g>
<g id="Clip path group_2">
<mask id="mask1_74_947" style="mask-type:luminance" maskUnits="userSpaceOnUse" x="448" y="29" width="8" height="8">
<g id="master_svg1v_84_00866">
<path id="Vector_20" d="M456 29H448V37H456V29Z" fill="white"/>
</g>
</mask>
<g mask="url(#mask1_74_947)">
<g id="Group_24">
<g id="Group_25">
<path id="Vector_21" d="M454.87 31.8557L452.304 34.8533C452.227 34.9465 452.116 35 452 35C451.884 35 451.773 34.9465 451.697 34.8533L449.13 31.8557C449.005 31.7144 448.966 31.5084 449.031 31.3264C449.096 31.1445 449.252 31.0173 449.434 31H454.565C454.747 31.0165 454.904 31.143 454.969 31.3257C455.034 31.5084 454.995 31.7136 454.87 31.8557Z" fill="black"/>
</g>
</g>
</g>
</g>
<g id="Group_26">
<path id="Vector_22" d="M269 140H46C42.6863 140 40 142.686 40 146V237C40 240.314 42.6863 243 46 243H269C272.314 243 275 240.314 275 237V146C275 142.686 272.314 140 269 140Z" fill="#0077FD"/>
</g>
<g id="Group_27">
<path id="Vector_23" d="M473.756 140H288.244C286.453 140 285 141.453 285 143.244V199.756C285 201.547 286.453 203 288.244 203H473.756C475.547 203 477 201.547 477 199.756V143.244C477 141.453 475.547 140 473.756 140Z" fill="#E7E7E7"/>
</g>
<g id="Group_28">
<path id="Vector_24" d="M473.756 239H288.244C286.453 239 285 240.453 285 242.244V291.756C285 293.547 286.453 295 288.244 295H473.756C475.547 295 477 293.547 477 291.756V242.244C477 240.453 475.547 239 473.756 239Z" fill="#E7E7E7"/>
</g>
<g id="Group_29">
<path id="Vector_25" d="M273.378 248H41.6222C40.7263 248 40 248.726 40 249.622V256.378C40 257.274 40.7263 258 41.6222 258H273.378C274.274 258 275 257.274 275 256.378V249.622C275 248.726 274.274 248 273.378 248Z" fill="#F3F3F3"/>
</g>
<g id="Group_30">
<path id="Vector_26" d="M153.378 264H41.6222C40.7263 264 40 264.726 40 265.622V273.378C40 274.274 40.7263 275 41.6222 275H153.378C154.274 275 155 274.274 155 273.378V265.622C155 264.726 154.274 264 153.378 264Z" fill="#F3F3F3"/>
</g>
<g id="Group_31">
<path id="Vector_27" d="M475.378 208H286.622C285.726 208 285 208.726 285 209.622V217.378C285 218.274 285.726 219 286.622 219H475.378C476.274 219 477 218.274 477 217.378V209.622C477 208.726 476.274 208 475.378 208Z" fill="#E7E7E7"/>
</g>
<g id="Group_32">
<path id="Vector_28" d="M406.378 224H286.622C285.726 224 285 224.726 285 225.622V232.378C285 233.274 285.726 234 286.622 234H406.378C407.274 234 408 233.274 408 232.378V225.622C408 224.726 407.274 224 406.378 224Z" fill="#F3F3F3"/>
</g>
<g id="Group_33">
<path id="Vector_29" d="M273.378 280H41.6222C40.7263 280 40 280.726 40 281.622V293.378C40 294.274 40.7263 295 41.6222 295H273.378C274.274 295 275 294.274 275 293.378V281.622C275 280.726 274.274 280 273.378 280Z" fill="#E7E7E7"/>
</g>
<g id="Group_34">
<path id="Vector_30" d="M308 73H44C41.7909 73 40 74.7909 40 77V116C40 118.209 41.7909 120 44 120H308C310.209 120 312 118.209 312 116V77C312 74.7909 310.209 73 308 73Z" fill="#E7E7E7"/>
</g>
<g id="Group_35">
<path id="Vector_31" d="M473 73H333C330.791 73 329 74.7909 329 77V116C329 118.209 330.791 120 333 120H473C475.209 120 477 118.209 477 116V77C477 74.7909 475.209 73 473 73Z" fill="#0077FD"/>
</g>
<g id="Group_36">
<path id="Vector_32" d="M458.5 83H376.5C369.044 83 363 89.0442 363 96.5C363 103.956 369.044 110 376.5 110H458.5C465.956 110 472 103.956 472 96.5C472 89.0442 465.956 83 458.5 83Z" fill="#FC8C08"/>
<g id="Group_37">
<path id="Vector_33" d="M386.296 99.4961V93.1843H384.006V92.0667H389.91V93.1843H387.62V99.4961H386.296ZM390.509 99.4961V93.8708H391.79V94.7322H391.879C391.976 94.4295 392.149 94.1948 392.398 94.0281C392.648 93.8613 392.958 93.7781 393.328 93.7781C393.424 93.7781 393.519 93.7836 393.613 93.7949C393.706 93.8062 393.784 93.82 393.847 93.8367V94.9858C393.743 94.9621 393.638 94.944 393.533 94.9316C393.428 94.9192 393.32 94.9131 393.208 94.9131C392.923 94.9131 392.675 94.9667 392.462 95.074C392.249 95.1812 392.084 95.333 391.966 95.5291C391.849 95.725 391.79 95.9573 391.79 96.2263V99.4961H390.509ZM395.569 101.475C395.492 101.475 395.411 101.473 395.326 101.47C395.241 101.466 395.159 101.461 395.08 101.454V100.468C395.133 100.475 395.194 100.48 395.262 100.482C395.33 100.485 395.397 100.486 395.463 100.486C395.726 100.486 395.937 100.428 396.097 100.314C396.257 100.199 396.371 100.014 396.44 99.7576L396.511 99.4998L394.497 93.8708H395.893L397.379 98.8506L397.031 98.2666H397.469L397.13 98.8506L398.613 93.8708H399.963L397.945 99.6174C397.784 100.086 397.599 100.456 397.389 100.727C397.179 100.998 396.927 101.19 396.634 101.304C396.34 101.418 395.985 101.475 395.569 101.475ZM403.879 99.4961V93.8708H405.16V99.4961H403.879ZM404.523 92.9272C404.316 92.9272 404.137 92.8532 403.986 92.7053C403.835 92.5573 403.76 92.3797 403.76 92.1724C403.76 91.9616 403.835 91.7828 403.986 91.636C404.137 91.4892 404.316 91.4158 404.523 91.4158C404.734 91.4158 404.914 91.4892 405.062 91.636C405.211 91.7828 405.286 91.9616 405.286 92.1724C405.286 92.3797 405.211 92.5573 405.062 92.7053C404.914 92.8532 404.734 92.9272 404.523 92.9272ZM408.951 99.5244C408.307 99.5244 407.842 99.4058 407.556 99.1687C407.271 98.9316 407.129 98.5424 407.129 98.0007V94.8601H406.255V93.8708H407.129V92.4866H408.431V93.8708H409.618V94.8601H408.431V97.6975C408.431 97.9779 408.49 98.1818 408.609 98.3091C408.727 98.4363 408.92 98.5 409.187 98.5C409.276 98.5 409.352 98.4979 409.413 98.4939C409.474 98.4899 409.542 98.4846 409.618 98.4778V99.4646C409.528 99.4805 409.425 99.4944 409.311 99.5063C409.196 99.5183 409.076 99.5244 408.951 99.5244ZM414.121 99.4961V94.8601H413.202V93.8708H414.121V93.3101C414.121 92.935 414.186 92.6239 414.315 92.3765C414.445 92.129 414.644 91.9438 414.915 91.821C415.185 91.6983 415.528 91.637 415.944 91.637C416.082 91.637 416.209 91.6417 416.325 91.6514C416.441 91.661 416.55 91.6745 416.652 91.6917V92.5884C416.603 92.5792 416.541 92.5724 416.465 92.5679C416.39 92.5633 416.307 92.561 416.216 92.561C415.915 92.561 415.701 92.6309 415.573 92.7708C415.446 92.9105 415.382 93.1152 415.382 93.3848V93.8708H416.604V94.8601H415.402V99.4961H414.121ZM420.057 99.6086C419.497 99.6086 419.014 99.4915 418.609 99.2571C418.204 99.0227 417.893 98.6872 417.675 98.2505C417.457 97.8138 417.348 97.2926 417.348 96.687V96.6768C417.348 96.0731 417.458 95.5533 417.677 95.1172C417.897 94.681 418.209 94.3454 418.614 94.1106C419.019 93.8757 419.5 93.7583 420.057 93.7583C420.617 93.7583 421.099 93.8755 421.503 94.1099C421.907 94.3442 422.218 94.6793 422.437 95.1155C422.656 95.5516 422.766 96.0721 422.766 96.6768V96.687C422.766 97.2926 422.657 97.8138 422.439 98.2505C422.222 98.6872 421.911 99.0227 421.508 99.2571C421.104 99.4915 420.62 99.6086 420.057 99.6086ZM420.057 98.571C420.355 98.571 420.607 98.4965 420.815 98.3469C421.022 98.1974 421.18 97.9823 421.29 97.7017C421.4 97.421 421.455 97.0833 421.455 96.6887V96.6785C421.455 96.2826 421.4 95.9444 421.289 95.6643C421.179 95.3842 421.02 95.1695 420.813 95.02C420.606 94.8705 420.354 94.7959 420.057 94.7959C419.761 94.7959 419.509 94.8705 419.301 95.02C419.094 95.1695 418.935 95.3842 418.824 95.6643C418.714 95.9444 418.659 96.2826 418.659 96.6785V96.6887C418.659 97.0844 418.714 97.4225 418.824 97.7031C418.933 97.9838 419.092 98.1987 419.3 98.3477C419.508 98.4966 419.76 98.571 420.057 98.571ZM424.048 99.4961V93.8708H425.329V94.7322H425.418C425.514 94.4295 425.687 94.1948 425.937 94.0281C426.187 93.8613 426.496 93.7781 426.866 93.7781C426.963 93.7781 427.058 93.7836 427.151 93.7949C427.244 93.8062 427.323 93.82 427.386 93.8367V94.9858C427.281 94.9621 427.176 94.944 427.071 94.9316C426.967 94.9192 426.858 94.9131 426.747 94.9131C426.462 94.9131 426.213 94.9667 426.001 95.074C425.788 95.1812 425.623 95.333 425.505 95.5291C425.387 95.725 425.329 95.9573 425.329 96.2263V99.4961H424.048ZM431.647 99.4961V94.8601H430.729V93.8708H431.647V93.3101C431.647 92.935 431.712 92.6239 431.841 92.3765C431.971 92.129 432.171 91.9438 432.441 91.821C432.711 91.6983 433.054 91.637 433.471 91.637C433.609 91.637 433.736 91.6417 433.851 91.6514C433.967 91.661 434.076 91.6745 434.179 91.6917V92.5884C434.129 92.5792 434.067 92.5724 433.991 92.5679C433.916 92.5633 433.833 92.561 433.742 92.561C433.441 92.561 433.227 92.6309 433.1 92.7708C432.972 92.9105 432.908 93.1152 432.908 93.3848V93.8708H434.13V94.8601H432.928V99.4961H431.647ZM435.36 99.4961V93.8708H436.64V94.7322H436.729C436.826 94.4295 436.999 94.1948 437.249 94.0281C437.498 93.8613 437.808 93.7781 438.178 93.7781C438.275 93.7781 438.37 93.7836 438.463 93.7949C438.556 93.8062 438.634 93.82 438.697 93.8367V94.9858C438.593 94.9621 438.488 94.944 438.383 94.9316C438.278 94.9192 438.17 94.9131 438.059 94.9131C437.774 94.9131 437.525 94.9667 437.312 95.074C437.1 95.1812 436.935 95.333 436.817 95.5291C436.699 95.725 436.64 95.9573 436.64 96.2263V99.4961H435.36ZM442.006 99.6086C441.448 99.6086 440.969 99.4903 440.568 99.2537C440.167 99.017 439.858 98.6809 439.642 98.2454C439.425 97.8099 439.317 97.2939 439.317 96.6975V96.6924C439.317 96.1007 439.425 95.5855 439.641 95.1465C439.856 94.7075 440.161 94.3662 440.556 94.123C440.95 93.8799 441.413 93.7583 441.946 93.7583C442.48 93.7583 442.941 93.8758 443.328 94.1108C443.715 94.3459 444.013 94.6751 444.221 95.0981C444.43 95.5211 444.534 96.0154 444.534 96.5811V97.0044H439.963V96.1455H443.908L443.299 96.9492V96.4392C443.299 96.0642 443.242 95.753 443.129 95.5059C443.015 95.2586 442.858 95.073 442.657 94.9492C442.457 94.8254 442.224 94.7634 441.96 94.7634C441.698 94.7634 441.464 94.8278 441.259 94.9563C441.055 95.0848 440.893 95.2736 440.775 95.5232C440.657 95.7727 440.598 96.0782 440.598 96.4392V96.9526C440.598 97.2995 440.655 97.596 440.771 97.842C440.887 98.0881 441.053 98.2766 441.268 98.4075C441.483 98.5383 441.738 98.6035 442.033 98.6035C442.264 98.6035 442.462 98.5706 442.628 98.5046C442.794 98.4387 442.929 98.3582 443.033 98.2632C443.137 98.1681 443.208 98.0784 443.248 97.9937L443.265 97.957L444.48 97.9553L444.468 98.0046C444.424 98.1858 444.342 98.3702 444.222 98.5579C444.103 98.7455 443.944 98.9186 443.744 99.0774C443.544 99.2361 443.3 99.3645 443.011 99.4622C442.723 99.5598 442.388 99.6086 442.006 99.6086ZM448.226 99.6086C447.668 99.6086 447.188 99.4903 446.787 99.2537C446.386 99.017 446.077 98.6809 445.861 98.2454C445.645 97.8099 445.537 97.2939 445.537 96.6975V96.6924C445.537 96.1007 445.645 95.5855 445.861 95.1465C446.076 94.7075 446.381 94.3662 446.775 94.123C447.17 93.8799 447.633 93.7583 448.166 93.7583C448.7 93.7583 449.16 93.8758 449.547 94.1108C449.934 94.3459 450.232 94.6751 450.441 95.0981C450.649 95.5211 450.754 96.0154 450.754 96.5811V97.0044H446.183V96.1455H450.128L449.519 96.9492V96.4392C449.519 96.0642 449.462 95.753 449.348 95.5059C449.235 95.2586 449.077 95.073 448.877 94.9492C448.676 94.8254 448.444 94.7634 448.18 94.7634C447.917 94.7634 447.684 94.8278 447.479 94.9563C447.274 95.0848 447.113 95.2736 446.995 95.5232C446.876 95.7727 446.817 96.0782 446.817 96.4392V96.9526C446.817 97.2995 446.875 97.596 446.991 97.842C447.107 98.0881 447.272 98.2766 447.488 98.4075C447.703 98.5383 447.958 98.6035 448.253 98.6035C448.484 98.6035 448.682 98.5706 448.848 98.5046C449.014 98.4387 449.149 98.3582 449.252 98.2632C449.356 98.1681 449.428 98.0784 449.467 97.9937L449.485 97.957L450.7 97.9553L450.688 98.0046C450.643 98.1858 450.561 98.3702 450.442 98.5579C450.323 98.7455 450.163 98.9186 449.964 99.0774C449.764 99.2361 449.52 99.3645 449.231 99.4622C448.942 99.5598 448.607 99.6086 448.226 99.6086Z" fill="white"/>
</g>
</g>
<g id="Group_38" filter="url(#filter1_d_74_947)">
<path id="Vector_34" d="M533.016 66.3608H421.984C414.261 66.3608 408 72.6216 408 80.345V349.016C408 356.739 414.261 363 421.984 363H533.016C540.739 363 547 356.739 547 349.016V80.345C547 72.6216 540.739 66.3608 533.016 66.3608Z" fill="white"/>
<path id="Vector_35" d="M533.016 64.7268H421.984C413.359 64.7268 406.366 71.7193 406.366 80.345V349.016C406.366 357.641 413.359 364.634 421.984 364.634H533.016C541.641 364.634 548.634 357.641 548.634 349.016V80.345C548.634 71.7193 541.641 64.7268 533.016 64.7268Z" stroke="#494949" stroke-width="3.26768"/>
</g>
<g id="Group_39">
<path id="Vector_36" d="M535 84H420C417.791 84 416 85.7909 416 88V108C416 110.209 417.791 112 420 112H535C537.209 112 539 110.209 539 108V88C539 85.7909 537.209 84 535 84Z" fill="#E7E7E7"/>
</g>
<g id="Group_40">
<path id="Vector_37" d="M535.328 258.224H419.673C417.742 258.224 416.177 259.789 416.177 261.72V310.518C416.177 312.448 417.742 314.014 419.673 314.014H535.328C537.259 314.014 538.824 312.448 538.824 310.518V261.72C538.824 259.789 537.259 258.224 535.328 258.224Z" fill="#E7E7E7"/>
</g>
<g id="Group_41">
<path id="Vector_38" d="M536.493 217.402H418.508C417.22 217.402 416.177 218.445 416.177 219.733V223.236C416.177 224.523 417.22 225.566 418.508 225.566H536.493C537.78 225.566 538.824 224.523 538.824 223.236V219.733C538.824 218.445 537.78 217.402 536.493 217.402Z" fill="#F3F3F3"/>
</g>
<g id="Group_42">
<path id="Vector_39" d="M498.669 150H418.331C417.044 150 416 151.044 416 152.331V155.669C416 156.956 417.044 158 418.331 158H498.669C499.956 158 501 156.956 501 155.669V152.331C501 151.044 499.956 150 498.669 150Z" fill="#F3F3F3"/>
</g>
<g id="Group_43">
<path id="Vector_40" d="M454.926 331.703H419.673C417.742 331.703 416.177 333.268 416.177 335.199V337.732C416.177 339.663 417.742 341.228 419.673 341.228H454.926C456.857 341.228 458.422 339.663 458.422 337.732V335.199C458.422 333.268 456.857 331.703 454.926 331.703Z" fill="#F3F3F3"/>
</g>
<g id="Group_44">
<path id="Vector_41" d="M536.493 231.009H418.508C417.22 231.009 416.177 232.053 416.177 233.34V238.204C416.177 239.491 417.22 240.534 418.508 240.534H536.493C537.78 240.534 538.824 239.491 538.824 238.204V233.34C538.824 232.053 537.78 231.009 536.493 231.009Z" fill="#F3F3F3"/>
</g>
<g id="Group_45">
<path id="Vector_42" d="M536.493 244.616H418.508C417.22 244.616 416.177 245.66 416.177 246.947V251.811C416.177 253.098 417.22 254.142 418.508 254.142H536.493C537.78 254.142 538.824 253.098 538.824 251.811V246.947C538.824 245.66 537.78 244.616 536.493 244.616Z" fill="#E7E7E7"/>
</g>
<g id="Group_46">
<path id="Vector_43" d="M472.641 319.457H419.673C417.742 319.457 416.177 321.022 416.177 322.953V324.125C416.177 326.056 417.742 327.621 419.673 327.621H472.641C474.572 327.621 476.138 326.056 476.138 324.125V322.953C476.138 321.022 474.572 319.457 472.641 319.457Z" fill="#E7E7E7"/>
</g>
<g id="Group_47">
<path id="Vector_44" d="M535 117H420C417.791 117 416 118.791 416 121V141C416 143.209 417.791 145 420 145H535C537.209 145 539 143.209 539 141V121C539 118.791 537.209 117 535 117Z" fill="#0077FD"/>
</g>
<g id="Group_48">
<g id="Group_49">
<path id="Vector_45" d="M49 160H9C6.23858 160 4 162.239 4 165V205C4 207.761 6.23858 210 9 210H49C51.7614 210 54 207.761 54 205V165C54 162.239 51.7614 160 49 160Z" fill="#FFB933"/>
</g>
<g id="Clip path group_3">
<mask id="mask2_74_947" style="mask-type:luminance" maskUnits="userSpaceOnUse" x="13" y="169" width="32" height="32">
<g id="master_svg1x_84_00951">
<path id="Vector_46" d="M45 169H13V201H45V169Z" fill="white"/>
</g>
</mask>
<g mask="url(#mask2_74_947)">
<g id="Group_50">
<g id="Group_51">
<path id="Vector_47" d="M40.6739 180.482C40.0286 180.482 39.5055 179.959 39.5055 179.314V174.564H34.5779C33.9329 174.564 33.4102 174.041 33.4102 173.396C33.4102 172.751 33.9329 172.228 34.5779 172.228H40.6739C41.3191 172.228 41.8422 172.751 41.8422 173.396V179.314C41.8422 179.959 41.3191 180.482 40.6739 180.482Z" fill="white"/>
</g>
<g id="Group_52">
<path id="Vector_48" d="M16.9689 182.562C16.5004 182.562 16.0772 182.282 15.8939 181.85C15.7106 181.419 15.8027 180.92 16.1277 180.583L23.7717 172.651C24.2083 172.198 24.9248 172.173 25.3928 172.593L33.0076 179.412L39.8499 172.571C40.3024 172.094 41.0585 172.085 41.5231 172.549C41.9877 173.014 41.978 173.77 41.5016 174.223L33.8839 181.852C33.4451 182.291 32.7395 182.31 32.2774 181.896L24.683 175.086L17.8189 182.21C17.5956 182.438 17.2885 182.566 16.9689 182.562ZM16.9835 198.467C16.3383 198.467 15.8152 197.944 15.8152 197.299V189.851C15.8152 189.206 16.3383 188.683 16.9835 188.683C17.6288 188.683 18.1519 189.206 18.1519 189.851V197.299C18.1519 197.944 17.6288 198.467 16.9835 198.467ZM24.8685 198.467C24.2232 198.467 23.7001 197.944 23.7001 197.299V184.301C23.7001 183.656 24.2232 183.133 24.8685 183.133C25.5138 183.133 26.0369 183.656 26.0369 184.301V197.299C26.0369 197.944 25.5138 198.467 24.8685 198.467ZM32.7535 198.467C32.1083 198.467 31.5852 197.944 31.5852 197.299V192.48C31.5852 191.834 32.1083 191.311 32.7535 191.311C33.3988 191.311 33.9219 191.834 33.9219 192.48V197.299C33.9219 197.944 33.3988 198.467 32.7535 198.467ZM40.64 198.467C39.9947 198.467 39.4716 197.944 39.4716 197.299V187.222C39.4716 186.577 39.9947 186.054 40.64 186.054C41.2852 186.054 41.8083 186.577 41.8083 187.222V197.299C41.8083 197.944 41.2852 198.467 40.64 198.467Z" fill="white"/>
</g>
</g>
</g>
</g>
</g>
<g id="Group_53">
<g id="Group_54">
<path id="Vector_49" d="M559 164H396C393.791 164 392 165.791 392 168V252C392 254.209 393.791 256 396 256H559C561.209 256 563 254.209 563 252V168C563 165.791 561.209 164 559 164Z" fill="#0077FD"/>
</g>
<g id="Group_55">
<path id="Vector_50" d="M425.384 203.8H423.224L420.216 209.064L417.16 203.8H414.984L419.16 211.416V215H421.304V211.336L425.384 203.8ZM431.8 203.736C428.424 203.736 425.832 206.168 425.832 209.4C425.832 212.616 428.424 215.096 431.8 215.096C435.176 215.096 437.768 212.616 437.768 209.4C437.768 206.184 435.176 203.736 431.8 203.736ZM431.832 205.656C433.88 205.656 435.576 207.288 435.576 209.4C435.576 211.512 433.88 213.176 431.832 213.176C429.768 213.176 428.024 211.512 428.024 209.4C428.024 207.288 429.752 205.656 431.832 205.656ZM441.576 210.328V203.8H439.432V210.328C439.432 213.272 441.352 215.096 444.408 215.096C447.448 215.096 449.32 213.272 449.32 210.328V203.8H447.176V210.328C447.176 212.12 446.104 213.176 444.408 213.176C442.712 213.176 441.576 212.104 441.576 210.328ZM461.304 215L458.84 211.288C460.28 210.68 461.064 209.416 461.064 207.656C461.064 205.192 459.416 203.8 456.52 203.8H451.848V215H453.992V211.704H456.52C456.664 211.704 456.792 211.704 456.92 211.688L458.856 215H461.304ZM453.992 205.672H456.52C458.12 205.672 459.016 206.344 459.016 207.72C459.016 209.128 458.12 209.816 456.52 209.816H453.992V205.672ZM476.504 215H478.808L473.96 203.8H471.736L466.824 215H469.048L470.04 212.632H475.512L476.504 215ZM470.808 210.792L472.792 206.088L474.744 210.792H470.808ZM484.824 203.8H480.168V215H484.744C488.2 215 490.664 212.664 490.664 209.4C490.664 206.12 488.216 203.8 484.824 203.8ZM484.872 213.112H482.312V205.688H484.792C486.888 205.688 488.472 207.224 488.472 209.416C488.472 211.592 486.936 213.112 484.872 213.112ZM497.336 203.8V215H499.48V210.456H505.064V215H507.208V203.8H505.064V208.584H499.48V203.8H497.336ZM509.976 203.8V215H518.376V213.128H512.12V210.312H517.56V208.44H512.12V205.672H518.184V203.8H509.976ZM530.008 215L527.544 211.288C528.984 210.68 529.768 209.416 529.768 207.656C529.768 205.192 528.12 203.8 525.224 203.8H520.552V215H522.696V211.704H525.224C525.368 211.704 525.496 211.704 525.624 211.688L527.56 215H530.008ZM522.696 205.672H525.224C526.824 205.672 527.72 206.344 527.72 207.72C527.72 209.128 526.824 209.816 525.224 209.816H522.696V205.672ZM532.12 203.8V215H540.52V213.128H534.264V210.312H539.704V208.44H534.264V205.672H540.328V203.8H532.12Z" fill="white"/>
</g>
<g id="Group_56">
<path id="Vector_51" d="M91.98 185H89.28L85.52 191.58L81.7 185H78.98L84.2 194.52V199H86.88V194.42L91.98 185ZM100 184.92C95.78 184.92 92.54 187.96 92.54 192C92.54 196.02 95.78 199.12 100 199.12C104.22 199.12 107.46 196.02 107.46 192C107.46 187.98 104.22 184.92 100 184.92ZM100.04 187.32C102.6 187.32 104.72 189.36 104.72 192C104.72 194.64 102.6 196.72 100.04 196.72C97.46 196.72 95.28 194.64 95.28 192C95.28 189.36 97.44 187.32 100.04 187.32ZM112.22 193.16V185H109.54V193.16C109.54 196.84 111.94 199.12 115.76 199.12C119.56 199.12 121.9 196.84 121.9 193.16V185H119.22V193.16C119.22 195.4 117.88 196.72 115.76 196.72C113.64 196.72 112.22 195.38 112.22 193.16ZM136.88 199L133.8 194.36C135.6 193.6 136.58 192.02 136.58 189.82C136.58 186.74 134.52 185 130.9 185H125.06V199H127.74V194.88H130.9C131.08 194.88 131.24 194.88 131.4 194.86L133.82 199H136.88ZM127.74 187.34H130.9C132.9 187.34 134.02 188.18 134.02 189.9C134.02 191.66 132.9 192.52 130.9 192.52H127.74V187.34ZM155.88 199H158.76L152.7 185H149.92L143.78 199H146.56L147.8 196.04H154.64L155.88 199ZM148.76 193.74L151.24 187.86L153.68 193.74H148.76ZM166.28 185H160.46V199H166.18C170.5 199 173.58 196.08 173.58 192C173.58 187.9 170.52 185 166.28 185ZM166.34 196.64H163.14V187.36H166.24C168.86 187.36 170.84 189.28 170.84 192.02C170.84 194.74 168.92 196.64 166.34 196.64ZM181.92 185V199H184.6V193.32H191.58V199H194.26V185H191.58V190.98H184.6V185H181.92ZM197.72 185V199H208.22V196.66H200.4V193.14H207.2V190.8H200.4V187.34H207.98V185H197.72ZM222.76 199L219.68 194.36C221.48 193.6 222.46 192.02 222.46 189.82C222.46 186.74 220.4 185 216.78 185H210.94V199H213.62V194.88H216.78C216.96 194.88 217.12 194.88 217.28 194.86L219.7 199H222.76ZM213.62 187.34H216.78C218.78 187.34 219.9 188.18 219.9 189.9C219.9 191.66 218.78 192.52 216.78 192.52H213.62V187.34ZM225.4 185V199H235.9V196.66H228.08V193.14H234.88V190.8H228.08V187.34H235.66V185H225.4Z" fill="white"/>
</g>
</g>
<g id="Group_57">
<path id="Vector_52" d="M517 122H438C433.029 122 429 126.029 429 131C429 135.971 433.029 140 438 140H517C521.971 140 526 135.971 526 131C526 126.029 521.971 122 517 122Z" fill="#FC8C08"/>
<g id="Group_58">
<path id="Vector_53" d="M457.755 132.998V128.982H456.299V128.271H460.055V128.982H458.598V132.998H457.755ZM460.436 132.998V129.419H461.25V129.967H461.307C461.368 129.775 461.479 129.625 461.637 129.519C461.796 129.413 461.993 129.36 462.229 129.36C462.29 129.36 462.35 129.364 462.41 129.371C462.469 129.378 462.519 129.387 462.559 129.397V130.128C462.493 130.113 462.426 130.102 462.359 130.094C462.292 130.086 462.224 130.082 462.153 130.082C461.971 130.082 461.813 130.116 461.678 130.184C461.543 130.253 461.438 130.349 461.363 130.474C461.288 130.599 461.25 130.746 461.25 130.917V132.998H460.436ZM463.654 134.256C463.606 134.256 463.554 134.255 463.5 134.253C463.446 134.251 463.393 134.247 463.343 134.243V133.616C463.377 133.62 463.416 133.623 463.459 133.625C463.502 133.626 463.545 133.627 463.587 133.627C463.754 133.627 463.889 133.591 463.99 133.518C464.092 133.445 464.165 133.327 464.209 133.164L464.253 133L462.973 129.419H463.861L464.806 132.587L464.584 132.215H464.863L464.648 132.587L465.591 129.419H466.449L465.166 133.075C465.063 133.373 464.946 133.608 464.812 133.78C464.678 133.953 464.518 134.075 464.332 134.147C464.145 134.22 463.919 134.256 463.654 134.256ZM468.941 132.998V129.419H469.755V132.998H468.941ZM469.35 128.819C469.218 128.819 469.105 128.772 469.009 128.677C468.913 128.583 468.865 128.471 468.865 128.339C468.865 128.205 468.913 128.091 469.009 127.997C469.105 127.904 469.218 127.857 469.35 127.857C469.484 127.857 469.599 127.904 469.693 127.997C469.788 128.091 469.836 128.205 469.836 128.339C469.836 128.471 469.788 128.583 469.693 128.677C469.599 128.772 469.484 128.819 469.35 128.819ZM472.167 133.015C471.757 133.015 471.461 132.94 471.28 132.789C471.099 132.638 471.008 132.391 471.008 132.046V130.048H470.452V129.419H471.008V128.538H471.836V129.419H472.591V130.048H471.836V131.853C471.836 132.032 471.874 132.161 471.949 132.242C472.025 132.323 472.147 132.364 472.317 132.364C472.374 132.364 472.422 132.362 472.461 132.36C472.5 132.357 472.543 132.354 472.591 132.35V132.978C472.534 132.988 472.469 132.996 472.396 133.004C472.323 133.012 472.247 133.015 472.167 133.015ZM475.456 132.998V130.048H474.872V129.419H475.456V129.062C475.456 128.824 475.497 128.626 475.579 128.469C475.662 128.311 475.789 128.193 475.961 128.115C476.132 128.037 476.351 127.998 476.616 127.998C476.703 127.998 476.784 128.001 476.858 128.007C476.931 128.013 477.001 128.022 477.066 128.033V128.603C477.035 128.597 476.995 128.593 476.947 128.59C476.899 128.587 476.846 128.586 476.788 128.586C476.597 128.586 476.461 128.63 476.38 128.719C476.298 128.808 476.258 128.938 476.258 129.11V129.419H477.035V130.048H476.27V132.998H475.456ZM479.232 133.069C478.875 133.069 478.569 132.995 478.311 132.845C478.053 132.696 477.855 132.483 477.716 132.205C477.578 131.927 477.508 131.596 477.508 131.21V131.204C477.508 130.82 477.578 130.489 477.718 130.212C477.858 129.934 478.056 129.721 478.314 129.572C478.572 129.422 478.878 129.347 479.232 129.347C479.588 129.347 479.895 129.422 480.151 129.571C480.408 129.72 480.606 129.933 480.746 130.211C480.885 130.488 480.955 130.819 480.955 131.204V131.21C480.955 131.596 480.886 131.927 480.747 132.205C480.609 132.483 480.411 132.696 480.154 132.845C479.898 132.995 479.59 133.069 479.232 133.069ZM479.232 132.409C479.421 132.409 479.582 132.361 479.714 132.266C479.846 132.171 479.946 132.034 480.016 131.856C480.086 131.677 480.121 131.462 480.121 131.211V131.205C480.121 130.953 480.086 130.738 480.016 130.56C479.946 130.382 479.845 130.245 479.713 130.15C479.581 130.055 479.42 130.007 479.232 130.007C479.043 130.007 478.883 130.055 478.751 130.15C478.619 130.245 478.518 130.382 478.448 130.56C478.377 130.738 478.342 130.953 478.342 131.205V131.211C478.342 131.463 478.377 131.678 478.447 131.857C478.517 132.035 478.618 132.172 478.75 132.267C478.882 132.362 479.043 132.409 479.232 132.409ZM481.771 132.998V129.419H482.585V129.967H482.642C482.703 129.775 482.813 129.625 482.972 129.519C483.131 129.413 483.328 129.36 483.563 129.36C483.625 129.36 483.685 129.364 483.745 129.371C483.804 129.378 483.854 129.387 483.894 129.397V130.128C483.827 130.113 483.761 130.102 483.694 130.094C483.627 130.086 483.558 130.082 483.487 130.082C483.306 130.082 483.148 130.116 483.013 130.184C482.877 130.253 482.772 130.349 482.697 130.474C482.623 130.599 482.585 130.746 482.585 130.917V132.998H481.771ZM486.604 132.998V130.048H486.02V129.419H486.604V129.062C486.604 128.824 486.646 128.626 486.728 128.469C486.81 128.311 486.937 128.193 487.109 128.115C487.281 128.037 487.5 127.998 487.764 127.998C487.852 127.998 487.933 128.001 488.007 128.007C488.08 128.013 488.15 128.022 488.215 128.033V128.603C488.183 128.597 488.144 128.593 488.096 128.59C488.048 128.587 487.995 128.586 487.937 128.586C487.746 128.586 487.61 128.63 487.528 128.719C487.447 128.808 487.407 128.938 487.407 129.11V129.419H488.184V130.048H487.419V132.998H486.604ZM488.966 132.998V129.419H489.781V129.967H489.837C489.899 129.775 490.009 129.625 490.168 129.519C490.327 129.413 490.524 129.36 490.759 129.36C490.82 129.36 490.881 129.364 490.94 129.371C491 129.378 491.049 129.387 491.089 129.397V130.128C491.023 130.113 490.956 130.102 490.889 130.094C490.823 130.086 490.754 130.082 490.683 130.082C490.502 130.082 490.343 130.116 490.208 130.184C490.073 130.253 489.968 130.349 489.893 130.474C489.818 130.599 489.781 130.746 489.781 130.917V132.998H488.966ZM493.194 133.069C492.839 133.069 492.534 132.994 492.279 132.843C492.024 132.693 491.828 132.479 491.69 132.202C491.552 131.925 491.484 131.597 491.484 131.217V131.214C491.484 130.837 491.552 130.51 491.69 130.23C491.827 129.951 492.021 129.734 492.271 129.58C492.522 129.425 492.817 129.347 493.156 129.347C493.496 129.347 493.789 129.422 494.035 129.572C494.281 129.721 494.47 129.931 494.603 130.2C494.736 130.469 494.802 130.783 494.802 131.143V131.412H491.895V130.866H494.404L494.016 131.377V131.053C494.016 130.814 493.98 130.616 493.908 130.459C493.836 130.302 493.736 130.184 493.608 130.105C493.481 130.026 493.333 129.987 493.165 129.987C492.998 129.987 492.849 130.028 492.719 130.109C492.589 130.191 492.486 130.311 492.411 130.47C492.336 130.629 492.298 130.823 492.298 131.053V131.379C492.298 131.6 492.335 131.789 492.409 131.945C492.482 132.102 492.588 132.222 492.724 132.305C492.861 132.388 493.024 132.43 493.211 132.43C493.358 132.43 493.484 132.409 493.59 132.367C493.695 132.325 493.781 132.274 493.847 132.213C493.913 132.153 493.959 132.095 493.984 132.042L493.995 132.018L494.768 132.017L494.76 132.049C494.732 132.164 494.68 132.281 494.604 132.401C494.528 132.52 494.427 132.63 494.3 132.731C494.172 132.832 494.017 132.914 493.833 132.976C493.65 133.038 493.437 133.069 493.194 133.069ZM497.151 133.069C496.796 133.069 496.491 132.994 496.235 132.843C495.98 132.693 495.784 132.479 495.646 132.202C495.509 131.925 495.44 131.597 495.44 131.217V131.214C495.44 130.837 495.509 130.51 495.646 130.23C495.783 129.951 495.977 129.734 496.228 129.58C496.479 129.425 496.774 129.347 497.112 129.347C497.452 129.347 497.745 129.422 497.991 129.572C498.237 129.721 498.427 129.931 498.56 130.2C498.692 130.469 498.759 130.783 498.759 131.143V131.412H495.851V130.866H498.36L497.973 131.377V131.053C497.973 130.814 497.937 130.616 497.865 130.459C497.792 130.302 497.692 130.184 497.565 130.105C497.437 130.026 497.289 129.987 497.122 129.987C496.954 129.987 496.806 130.028 496.675 130.109C496.545 130.191 496.443 130.311 496.367 130.47C496.292 130.629 496.255 130.823 496.255 131.053V131.379C496.255 131.6 496.291 131.789 496.365 131.945C496.439 132.102 496.544 132.222 496.681 132.305C496.818 132.388 496.98 132.43 497.168 132.43C497.315 132.43 497.441 132.409 497.546 132.367C497.652 132.325 497.738 132.274 497.804 132.213C497.87 132.153 497.915 132.095 497.94 132.042L497.951 132.018L498.724 132.017L498.717 132.049C498.688 132.164 498.636 132.281 498.56 132.401C498.485 132.52 498.383 132.63 498.256 132.731C498.129 132.832 497.974 132.914 497.79 132.976C497.606 133.038 497.393 133.069 497.151 133.069Z" fill="white"/>
</g>
</g>
</g>
<defs>
<filter id="filter0_d_74_947" x="0.882478" y="0.866564" width="515.235" height="339.235" filterUnits="userSpaceOnUse" color-interpolation-filters="sRGB">
<feFlood flood-opacity="0" result="BackgroundImageFix"/>
<feColorMatrix in="SourceAlpha" type="matrix" values="0 0 0 0 0 0 0 0 0 0 0 0 0 0 0 0 0 0 127 0" result="hardAlpha"/>
<feOffset dy="0.984086"/>
<feGaussianBlur stdDeviation="7.55876"/>
<feColorMatrix type="matrix" values="0 0 0 0 0.0862745 0 0 0 0 0.364706 0 0 0 0 1 0 0 0 0.07 0"/>
<feBlend mode="normal" in2="BackgroundImageFix" result="effect1_dropShadow_74_947"/>
<feBlend mode="normal" in="SourceGraphic" in2="effect1_dropShadow_74_947" result="shape"/>
</filter>
<filter id="filter1_d_74_947" x="393.079" y="51.4394" width="168.842" height="326.482" filterUnits="userSpaceOnUse" color-interpolation-filters="sRGB">
<feFlood flood-opacity="0" result="BackgroundImageFix"/>
<feColorMatrix in="SourceAlpha" type="matrix" values="0 0 0 0 0 0 0 0 0 0 0 0 0 0 0 0 0 0 127 0" result="hardAlpha"/>
<feOffset/>
<feGaussianBlur stdDeviation="5.8268"/>
<feColorMatrix type="matrix" values="0 0 0 0 0.00784314 0 0 0 0 0.466667 0 0 0 0 0.992157 0 0 0 0.05 0"/>
<feBlend mode="normal" in2="BackgroundImageFix" result="effect1_dropShadow_74_947"/>
<feBlend mode="normal" in="SourceGraphic" in2="effect1_dropShadow_74_947" result="shape"/>
</filter>
</defs>
</svg>
