<svg xmlns="http://www.w3.org/2000/svg" xmlns:xlink="http://www.w3.org/1999/xlink" fill="none" version="1.1" width="48" height="48" viewBox="0 0 48 48"><defs><linearGradient x1="0.5" y1="0" x2="0.5" y2="1" id="master_svg0_106_0810"><stop offset="0%" stop-color="#4B5F75" stop-opacity="1"/><stop offset="100%" stop-color="#222E3D" stop-opacity="1"/></linearGradient><clipPath id="master_svg1_331_3545"><rect x="0" y="0" width="48" height="48" rx="24"/></clipPath><clipPath id="master_svg2_331_6010"><rect x="12" y="12" width="24" height="24" rx="0"/></clipPath></defs><g clip-path="url(#master_svg1_331_3545)"><rect x="0" y="0" width="48" height="48" rx="24" fill="url(#master_svg0_106_0810)" fill-opacity="1"/><g clip-path="url(#master_svg2_331_6010)"><g><path d="M24.464438921051027,22.87895225515137Q25.192173921051026,23.606799355151367,25.319764921051025,24.624765155151366L25.319962921051026,24.624740355151367Q25.331230921051024,24.714647255151366,25.358479921051025,24.801063555151366Q25.385726921051024,24.887479755151368,25.428068921051025,24.967589355151368Q25.470408921051025,25.04769895515137,25.526460921051026,25.11889075515137Q25.582513921051024,25.19008305515137,25.650453921051025,25.250038155151366Q25.718391921051026,25.309992755151367,25.796002921051027,25.356757155151367Q25.873613921051025,25.403521055151366,25.958367921051025,25.43557025515137Q26.043120921051027,25.467618955151366,26.132255921051026,25.483909155151366Q26.221389921051028,25.500199355151366,26.312000921051023,25.500199755151367Q26.410471921051027,25.500199355151366,26.507051921051026,25.48098845515137Q26.603630921051025,25.461777655151366,26.694605921051025,25.424093755151368Q26.785581921051026,25.386409755151366,26.867458921051025,25.331702255151367Q26.949334921051026,25.276994255151365,27.018964921051026,25.207364555151365Q27.088594921051026,25.137734455151367,27.143302921051024,25.055858155151366Q27.198009921051025,24.973981855151365,27.235693921051023,24.883005655151365Q27.273376921051025,24.792029855151366,27.292588921051028,24.695450355151365Q27.311799921051026,24.598871255151366,27.311800921051024,24.50039955515137Q27.311800921051024,24.437986855151365,27.304038921051024,24.376058855151367L27.304236921051025,24.37603405515137Q27.091361921051025,22.677634755151367,25.878762921051027,21.464848225151368L25.535402921051023,21.121589305151367Q24.071038721051025,19.657224835151368,21.999990021051026,19.657224835151368Q19.928941221051026,19.657224835151368,18.464473021051024,21.121693645151367L15.121328531051025,24.464787955151365Q13.656856421051025,25.929260255151366,13.656858821051026,28.000352355151367Q13.656861361051025,30.07143685515137,15.121321351051025,31.535904655151366L15.464525041051026,31.87905865515137Q16.928941721051025,33.343475655151366,19.000008621051023,33.343475655151366Q21.071078321051026,33.343475655151366,22.535539121051023,31.87900465515137L22.706961121051023,31.70765365515137L22.706819021051025,31.707511655151368Q22.847509821051027,31.566878655151367,22.923655021051026,31.38310265515137Q22.999800221051025,31.19932565515137,22.999800221051025,31.000400655151367Q22.999800221051025,30.90192765515137,22.980589421051025,30.805348655151366Q22.961378621051026,30.708768655151367,22.923694121051025,30.617793055151367Q22.886010621051025,30.526817355151366,22.831303121051025,30.44494055515137Q22.776594621051025,30.363064755151367,22.706964921051025,30.293435055151367Q22.637335321051026,30.223804455151367,22.555459021051025,30.169096955151367Q22.473582721051024,30.11438945515137,22.382606521051024,30.07670595515137Q22.291630221051026,30.03902245515137,22.195051221051024,30.019811655151365Q22.098471121051027,30.00060085515137,22.000000021051026,30.00060085515137Q21.801181321051025,30.00060085515137,21.617489321051025,30.07666585515137Q21.433796921051027,30.152731855151366,21.293181421051024,30.293288255151367L21.293039821051025,30.293147055151366L21.121320721051024,30.464795155151368Q20.242647121051025,31.34347465515137,19.000008621051023,31.34347465515137Q17.757368321051025,31.34347465515137,16.878634421051025,30.464740755151368L16.535539221051025,30.12169555515137Q15.656860321051026,29.24301145515137,15.656858801051026,28.000349555151367Q15.656857311051025,26.75768615515137,16.535531421051026,25.879012155151365L19.878687421051026,22.535906755151366Q20.757368521051024,21.65722475515137,21.999990021051026,21.65722475515137Q23.242611421051024,21.65722475515137,24.121397521051023,22.536011055151366L24.464438921051027,22.87895225515137Z" fill-rule="evenodd" fill="#FFFFFF" fill-opacity="1" style="mix-blend-mode:passthrough"/></g><g><path d="M25.46425058859863,17.121836665151367L25.292750088598634,17.293406485151365L25.292891488598634,17.293547805151366Q25.152332788598635,17.43416321515137,25.07626628859863,17.61785662515137Q25.000199788598632,17.801550055151367,25.000199988598634,18.000370055151368Q25.000199788598632,18.098841655151368,25.01941058859863,18.195421055151368Q25.03862138859863,18.292000755151367,25.07630488859863,18.38297675515137Q25.11398838859863,18.47395265515137,25.168696388598633,18.555828955151366Q25.22340438859863,18.63770505515137,25.293034588598633,18.707335255151367Q25.362664488598632,18.776965155151366,25.444540488598633,18.831673155151368Q25.52641678859863,18.886380955151367,25.617392588598634,18.924064355151366Q25.708368288598635,18.96174815515137,25.80494828859863,18.980958955151365Q25.901527888598633,19.00016975515137,25.99999998859863,19.000169955151367Q26.198924988598634,19.000169955151367,26.38269998859863,18.924026055151366Q26.566475388598633,18.847882055151366,26.70710848859863,18.70719215515137L26.707250088598634,18.707333755151367L26.87875028859863,18.535763955151367Q27.757288488598633,17.657224855151366,28.999949888598632,17.657224855151366Q30.242610888598634,17.657224855151366,31.121293088598634,18.535906755151366L31.464351688598633,18.879005655151367Q32.34307618859863,19.757728555151367,32.34307618859863,21.000370055151368Q32.34307618859863,22.24301145515137,31.464393588598632,23.121693155151366L28.121293088598634,26.464793255151367Q27.242611388598633,27.34347465515137,25.999949888598632,27.34347465515137Q24.75728868859863,27.34347465515137,23.878608988598632,26.464793255151367L23.535505088598633,26.121692655151367Q22.807751388598632,25.393939055151368,22.680233298598633,24.376090055151366L22.680035228598634,24.376114855151368Q22.668770968598633,24.28620335515137,22.641525388598634,24.199782355151367Q22.614279748598634,24.11336135515137,22.571940778598634,24.03324745515137Q22.529601688598632,23.953132655151368,22.473548948598634,23.881935555151365Q22.41749620859863,23.810738555151367,22.349556568598633,23.750780155151368Q22.28161680859863,23.690820255151365,22.204004228598635,23.64405255515137Q22.126391648598634,23.597285255151366,22.041635538598634,23.565233755151368Q21.956879378598632,23.533181155151368,21.86774181859863,23.516890055151368Q21.778604261598634,23.500599355151365,21.687990188598633,23.500599355151365Q21.589518479598635,23.500599355151365,21.492938888598633,23.519809755151368Q21.396359298598632,23.539020555151367,21.305383328598634,23.576704055151367Q21.214407328598632,23.614387555151367,21.132531108598634,23.669095055151367Q21.050654888598633,23.723803555151367,20.981024858598634,23.793433655151368Q20.911394838598632,23.86306335515137,20.856686948598632,23.944939655151366Q20.801979008598632,24.02681585515137,20.764295518598633,24.117792155151367Q20.726611968598633,24.20876785515137,20.707401098598634,24.30534795515137Q20.68819021859863,24.40192795515137,20.688190158598633,24.50039955515137Q20.688190158598633,24.562784155151366,20.695945258598634,24.624685255151366L20.695746538598634,24.62471005515137Q20.908529638598633,26.323143955151366,22.121294378598634,27.535909655151368L22.464394688598635,27.879006655151365Q23.928862088598635,29.343475655151366,25.999949888598632,29.343475655151366Q28.071039188598633,29.343475655151366,29.535507188598633,27.87900765515137L32.87860618859863,24.53590725515137Q34.34307618859863,23.071437855151366,34.34307618859863,21.000370055151368Q34.34307618859863,18.929301755151368,32.87864818859863,17.464874145151366L32.53550718859863,17.121693815151367Q31.071039188598633,15.657224775151366,28.999949888598632,15.657224775151366Q26.92886118859863,15.657224895151368,25.46425058859863,17.121836665151367Z" fill-rule="evenodd" fill="#FFFFFF" fill-opacity="1" style="mix-blend-mode:passthrough"/></g></g></g></svg>