<svg xmlns="http://www.w3.org/2000/svg" xmlns:xlink="http://www.w3.org/1999/xlink" fill="none" version="1.1" width="48" height="48" viewBox="0 0 48 48"><defs><linearGradient x1="0.5" y1="0" x2="0.5" y2="1" id="master_svg0_106_0810"><stop offset="0%" stop-color="#4B5F75" stop-opacity="1"/><stop offset="100%" stop-color="#222E3D" stop-opacity="1"/></linearGradient><clipPath id="master_svg1_331_3522"><rect x="0" y="0" width="48" height="48" rx="24"/></clipPath><clipPath id="master_svg2_331_6000"><rect x="12" y="12" width="24" height="24" rx="0"/></clipPath></defs><g clip-path="url(#master_svg1_331_3522)"><rect x="0" y="0" width="48" height="48" rx="24" fill="url(#master_svg0_106_0810)" fill-opacity="1"/><g clip-path="url(#master_svg2_331_6000)"><g><path d="M18,29.5Q18.098491199999998,29.4999995,18.1950901,29.4807844Q18.2916889,29.4615698,18.3826833,29.4238787Q18.4736774,29.3861876,18.5555701,29.3314686Q18.6374626,29.2767496,18.7071066,29.2071061Q18.7767506,29.1374626,18.831469300000002,29.0555696Q18.886188,28.9736772,18.9238791,28.8826828Q18.961570299999998,28.7916889,18.9807849,28.695089799999998Q18.9999998,28.598491199999998,19,28.5L19,22Q18.9999998,21.9015086,18.9807849,21.80490969Q18.961570299999998,21.70831078,18.9238791,21.6173166Q18.886188,21.52632242,18.831469300000002,21.44442987Q18.7767506,21.36253726,18.7071066,21.29289329Q18.6374626,21.22324938,18.555569900000002,21.16853052Q18.4736774,21.11381161,18.3826833,21.07612056Q18.2916889,21.0384295,18.1950901,21.01921481Q18.098491199999998,21.00000006,18,21L16.5,21Q15.46446508,21,14.73222703,21.73224825Q14.00000006,22.46448553,14,23.5L14,27Q14,28.0355148,14.73222703,28.767751699999998Q15.46446484,29.5,16.5,29.5L18,29.5ZM16.9999999,27.5L16.9999999,23L16.5,23Q16.2929003,23,16.1464505,23.146452Q16,23.2929045,16,23.5L16,27Q16,27.2070956,16.1464505,27.353548Q16.2929003,27.5,16.5,27.5L16.9999999,27.5Z" fill-rule="evenodd" fill="#FFFFFF" fill-opacity="1" style="mix-blend-mode:passthrough"/></g><g><path d="M34.5,27.0000019L34.5,23.5Q34.5,22.46448681,33.7677569,21.73224348Q33.0355139,21,32.000001,20.9999998L30.5,21Q30.4015086,21.00000006,30.30490969,21.01921481Q30.20831078,21.03842956,30.1173166,21.07612062Q30.02632242,21.11381161,29.94442987,21.16853046Q29.86253726,21.22324938,29.79289329,21.29289329Q29.72324938,21.36253726,29.66853052,21.44442981Q29.61381161,21.52632242,29.57612056,21.6173166Q29.5384295,21.70831078,29.51921481,21.80490969Q29.50000006,21.9015086,29.5,22L29.5,28.5Q29.50000006,28.598491199999998,29.51921481,28.6950903Q29.53842956,28.7916889,29.57612062,28.8826828Q29.61381161,28.9736772,29.66853046,29.0555696Q29.72324938,29.1374626,29.79289329,29.2071066Q29.86253726,29.2767506,29.94442981,29.3314695Q30.02632242,29.3861876,30.1173166,29.4238787Q30.20831078,29.4615698,30.30490969,29.4807844Q30.4015086,29.4999995,30.5,29.5L32,29.5Q33.0355129,29.5,33.7677565,28.767756900000002Q34.5,28.035513899999998,34.5,27.0000019ZM32.353543,23.1464567Q32.4999999,23.2929137,32.4999999,23.5L32.4999999,27.0000019Q32.4999999,27.2070866,32.3535434,27.3535428Q32.2070862,27.5,32,27.5L31.5,27.5L31.5,22.99999994L32.0000005,22.99999988Q32.2070862,22.99999988,32.353543,23.1464567Z" fill-rule="evenodd" fill="#FFFFFF" fill-opacity="1" style="mix-blend-mode:passthrough"/></g><g><path d="M16,21.7499995L16,21.9999995L18,21.9999995L18,21.7499995Q18,19.3893433,19.8048961,17.7089238Q21.6404071,16,24.25,16Q26.859614399999998,16,28.695118,17.7089226Q30.5,19.3893366,30.5,21.7499995L30.5,21.9999995L32.5,21.9999995L32.5,21.7499995Q32.5,18.5187709,30.057958,16.2451371Q27.646523000000002,14,24.25,14Q20.8535025,13.9999998,18.4420592,16.2451359Q16,18.5187769,16,21.7499995Z" fill-rule="evenodd" fill="#FFFFFF" fill-opacity="1" style="mix-blend-mode:passthrough"/></g><g><path d="M32.7497997,28.5L32.75,28.5Q32.75,30.7781889,31.1390948,32.3890941Q29.5281887,34,27.25,34L25.5,34Q24.46448666,34,23.73224318,33.2677565Q23,32.5355129,23,31.4999993L23,31L23.00019997,31Q23.00020003,30.9015284,23.01941091,30.8049486Q23.03862178,30.7083688,23.07630527,30.6173928Q23.11398876,30.5264168,23.1686967,30.4445405Q23.22340465,30.3626645,23.29303467,30.2930346Q23.3626647,30.2234044,23.44454092,30.1686965Q23.52641714,30.1139886,23.61739314,30.0763052Q23.70836911,30.0386217,23.8049487,30.019411Q23.901528291,30.0002,24,30.0002Q24.098471709,30.0002,24.1950513,30.0194108Q24.29163089,30.0386217,24.38260686,30.0763052Q24.47358286,30.1139886,24.55545908,30.1686964Q24.6373353,30.2234044,24.70696533,30.2930346Q24.77659535,30.3626645,24.83130324,30.4445407Q24.88601118,30.5264168,24.92369467,30.617393Q24.96137822,30.7083688,24.98058909,30.8049486Q24.99979997,30.9015284,24.99980003,31L25,31L25,31.4999993Q25,31.7070858,25.1464572,31.853543000000002Q25.292914,32,25.5,32L27.25,32Q28.6997614,32,29.7248807,30.9748807Q30.75,29.9497614,30.75,28.5L30.7501998,28.5Q30.7501993,28.401528291,30.7694101,28.3049487Q30.788620899999998,28.20836911,30.826304399999998,28.11739314Q30.863987899999998,28.02641714,30.9186959,27.94454092Q30.9734039,27.8626647,31.0430341,27.79303467Q31.1126637,27.72340465,31.19454,27.66869676Q31.2764163,27.61398882,31.3673925,27.57630533Q31.4583683,27.53862178,31.554947900000002,27.51941091Q31.651527899999998,27.50020003,31.75,27.50019997Q31.8484712,27.50020003,31.9450507,27.51941091Q32.0416298,27.53862178,32.1326056,27.57630527Q32.2235813,27.61398876,32.305458099999996,27.6686967Q32.3873348,27.72340465,32.4569645,27.79303467Q32.5265942,27.8626647,32.5813017,27.94454092Q32.636009200000004,28.02641714,32.673692700000004,28.11739314Q32.711376200000004,28.20836911,32.730588,28.3049487Q32.7497997,28.401528291,32.7497997,28.5Z" fill-rule="evenodd" fill="#FFFFFF" fill-opacity="1" style="mix-blend-mode:passthrough"/></g></g></g></svg>