<svg xmlns="http://www.w3.org/2000/svg" xmlns:xlink="http://www.w3.org/1999/xlink" fill="none" version="1.1" width="40" height="40" viewBox="0 0 40 40"><defs><linearGradient x1="0.5" y1="0" x2="0.5" y2="1" id="master_svg0_106_0810"><stop offset="0%" stop-color="#4B5F75" stop-opacity="1"/><stop offset="100%" stop-color="#222E3D" stop-opacity="1"/></linearGradient><clipPath id="master_svg1_239_2262"><rect x="0" y="0" width="40" height="40" rx="20"/></clipPath><clipPath id="master_svg2_239_2360"><rect x="8" y="8" width="24" height="24" rx="0"/></clipPath></defs><g clip-path="url(#master_svg1_239_2262)"><rect x="0" y="0" width="40" height="40" rx="20" fill="url(#master_svg0_106_0810)" fill-opacity="1"/><g clip-path="url(#master_svg2_239_2360)"><g><path d="M10.25014997,13Q10.25014997,12.926146217,10.2645582,12.85371152Q10.27896631,12.78127682,10.30722892,12.71304482Q10.33549154,12.64481282,10.37652254,12.58340567Q10.41755348,12.52199849,10.46977597,12.46977597Q10.52199849,12.41755348,10.58340567,12.37652254Q10.64481282,12.33549154,10.71304482,12.30722892Q10.78127682,12.27896631,10.85371152,12.2645582Q10.926146217,12.25014997,11,12.25014997Q11.073853783,12.25014997,11.14628848,12.2645582Q11.21872318,12.27896631,11.28695518,12.30722892Q11.35518718,12.33549154,11.41659433,12.37652254Q11.47800151,12.41755348,11.53022403,12.46977597Q11.58244652,12.52199849,11.62347746,12.58340567Q11.66450846,12.64481282,11.69277108,12.71304482Q11.72103369,12.78127682,11.7354418,12.85371152Q11.74985003,12.926146217,11.74985003,13L11.75,13L11.75,25.000004Q11.75,25.517784,12.116112900000001,25.883892Q12.482224200000001,26.249999000000003,13,26.249999000000003L29,26.249999000000003L29,26.250149999999998Q29.073853,26.250149999999998,29.146288,26.264558Q29.218721,26.278965,29.286953,26.307226999999997Q29.355185,26.33549,29.416592,26.376522Q29.477999,26.417552999999998,29.530222,26.469775Q29.582443,26.521997,29.623474,26.583405Q29.664505,26.644812,29.692768,26.713043Q29.721031,26.781276,29.735439,26.853711Q29.749847,26.926146,29.749849,27Q29.749847,27.073853,29.735439,27.146287Q29.721031,27.218721000000002,29.692768,27.286953Q29.664505,27.355186,29.623474,27.416594Q29.582443,27.478001,29.530222,27.530224Q29.477999,27.582445,29.416592,27.623476Q29.355185,27.664507,29.286953,27.69277Q29.218721,27.721033,29.146286,27.735441Q29.073853,27.749848999999998,29,27.749850000000002L29,27.749999000000003L13,27.749999000000003Q11.86091065,27.749999000000003,11.055459585,26.944558999999998Q10.25000012,26.139110000000002,10.25,25.000004L10.25,13L10.25014997,13ZM26.249999000000003,16.8106854L26.249999000000003,19L26.250149999999998,19Q26.250149,19.0738535,26.264557,19.1462879Q26.278965,19.2187223,26.307226999999997,19.2869544Q26.335489000000003,19.355186500000002,26.37652,19.4165936Q26.417551,19.4780011,26.469774,19.5302238Q26.521997,19.5824461,26.583404,19.623477Q26.644812,19.6645079,26.713043,19.692771Q26.781275,19.7210331,26.85371,19.7354412Q26.926146,19.7498503,27,19.7498503Q27.073853,19.7498503,27.146288,19.7354417Q27.218721,19.7210331,27.286953,19.6927705Q27.355186,19.6645079,27.416594,19.623477Q27.478001,19.5824461,27.530224,19.5302238Q27.582447,19.4780011,27.623476,19.416594Q27.664507,19.355186500000002,27.69277,19.286954899999998Q27.721031,19.218722800000002,27.735439,19.1462879Q27.749847,19.0738535,27.749849,19L27.75,19L27.75,15Q27.75,14.9261314,27.735588,14.8536822Q27.721178,14.7812328,27.692909,14.7129872Q27.66464,14.6447415,27.6236,14.5833222Q27.582561,14.5219028,27.530329,14.4696698Q27.478096,14.4174368,27.416676,14.3763977Q27.355255,14.3353585,27.28701,14.3070903Q27.218765,14.2788219,27.146317,14.264410999999999Q27.073868,14.25,27,14.25L23,14.25L23,14.25015Q22.926146,14.25015,22.853711,14.2645581Q22.781277,14.2789662,22.713044,14.3072288Q22.644812,14.3354914,22.583405,14.3765224Q22.521997,14.4175534,22.469775,14.4697759Q22.417552,14.5219984,22.37652,14.5834055Q22.335489000000003,14.6448126,22.307226999999997,14.7130446Q22.278965,14.7812766,22.264557,14.8537114Q22.250149,14.926146,22.250149999999998,15Q22.250149,15.0738535,22.264557,15.1462882Q22.278965,15.2187228,22.307228000000002,15.2869549Q22.33549,15.3551869,22.376522,15.416594Q22.417552999999998,15.4780011,22.469776,15.5302238Q22.521998,15.5824463,22.583405,15.6234772Q22.644812,15.6645083,22.713044,15.692771Q22.781277,15.7210336,22.853711,15.735441699999999Q22.926146,15.7498498,23,15.74985L23,15.75L25.189365000000002,15.75L21.469670999999998,19.4696679Q21.275115,19.6642246,21,19.6642246Q20.7248859,19.6642246,20.5303307,19.4696698Q19.8964348,18.8357744,19,18.8357744Q18.1035647,18.8357744,17.4696693,19.469668900000002L14.4696698,22.4696693L14.4697762,22.4697752Q14.3643079,22.575243,14.307229,22.7130442Q14.25015,22.8508453,14.25015,23Q14.2501497,23.073853,14.2645581,23.146288Q14.278966,23.218722,14.3072286,23.286955Q14.3354912,23.355186,14.376522099999999,23.416594Q14.4175529,23.478001,14.4697757,23.530224Q14.5219979,23.582445,14.583404999999999,23.623476Q14.6448123,23.664507,14.7130444,23.69277Q14.7812767,23.721033,14.8537114,23.735441Q14.926146,23.749848999999998,15,23.749850000000002Q15.1491547,23.749850000000002,15.286955800000001,23.692771Q15.4247561,23.635693,15.5302243,23.530224L15.5303297,23.53033L18.5303297,20.5303297Q18.7651653,20.2954941,19,20.295494599999998Q19.2348347,20.295495,19.4696693,20.5303297Q20.103564300000002,21.1642246,21,21.1642246Q21.896435,21.1642246,22.530328,20.530331099999998L26.249999000000003,16.8106854Z" fill-rule="evenodd" fill="#FFFFFF" fill-opacity="1"/></g></g></g></svg>