<svg xmlns="http://www.w3.org/2000/svg" xmlns:xlink="http://www.w3.org/1999/xlink" fill="none" version="1.1" width="48" height="48" viewBox="0 0 48 48"><defs><linearGradient x1="0.5" y1="0" x2="0.5" y2="1" id="master_svg0_106_0810"><stop offset="0%" stop-color="#4B5F75" stop-opacity="1"/><stop offset="100%" stop-color="#222E3D" stop-opacity="1"/></linearGradient><clipPath id="master_svg1_331_3557"><rect x="0" y="0" width="48" height="48" rx="24"/></clipPath><clipPath id="master_svg2_331_5996"><rect x="12" y="12" width="24" height="24" rx="0"/></clipPath></defs><g clip-path="url(#master_svg1_331_3557)"><rect x="0" y="0" width="48" height="48" rx="24" fill="url(#master_svg0_106_0810)" fill-opacity="1"/><g clip-path="url(#master_svg2_331_5996)"><g><path d="M24.748148680245972,34.430703428527835L32.81395058024597,22.332041728527834L32.81397358024597,22.332006428527833Q33.31236358024597,21.58435532852783,32.88833858024597,20.792156728527832Q32.46433158024597,19.999990928527833,31.565799580245972,19.999990928527833L26.000099580245973,19.999990928527833L26.000099580245973,14.401380058527831Q26.000099580245973,13.288295088527832,24.93478848024597,12.965740318527832Q23.869453180245973,12.643178628527831,23.252036780245973,13.569348718527833L15.186233100245971,25.66789542852783Q14.687845080245971,26.415557428527833,15.111785290245972,27.207748428527832Q15.535758410245972,28.000000428527834,16.434309960245972,28.000000428527834L22.000099880245973,28.000000428527834L22.000099880245973,33.598599428527834Q22.000099880245973,34.71163642852783,23.065361780245972,35.03423742852783Q24.13070658024597,35.35686542852783,24.748148680245972,34.430703428527835ZM30.631614580245973,21.99999142852783L25.50009988024597,21.99999142852783Q24.00009988024597,21.99999142852783,24.00009988024597,20.499990928527833L24.00009988024597,16.05278852852783L17.36853758024597,26.000000428527834L22.500099880245973,26.000000428527834Q24.00009988024597,26.000000428527834,24.00009988024597,27.500000428527834L24.00009988024597,31.947228428527833L30.631614580245973,21.99999142852783Z" fill-rule="evenodd" fill="#FFFFFF" fill-opacity="1" style="mix-blend-mode:passthrough"/></g></g></g></svg>