<svg xmlns="http://www.w3.org/2000/svg" xmlns:xlink="http://www.w3.org/1999/xlink" fill="none" version="1.1" width="48" height="48" viewBox="0 0 48 48"><defs><linearGradient x1="0.5" y1="0" x2="0.5" y2="1" id="master_svg0_106_0810"><stop offset="0%" stop-color="#4B5F75" stop-opacity="1"/><stop offset="100%" stop-color="#222E3D" stop-opacity="1"/></linearGradient><clipPath id="master_svg1_331_3534"><rect x="0" y="0" width="48" height="48" rx="24"/></clipPath><clipPath id="master_svg2_331_5992"><rect x="12" y="12" width="24" height="24" rx="0"/></clipPath></defs><g clip-path="url(#master_svg1_331_3534)"><rect x="0" y="0" width="48" height="48" rx="24" fill="url(#master_svg0_106_0810)" fill-opacity="1"/><g clip-path="url(#master_svg2_331_5992)"><g><path d="M14.00019997,17Q14.00020003,16.901528291,14.01941091,16.8049487Q14.03862178,16.70836911,14.07630527,16.61739314Q14.11398876,16.52641714,14.1686967,16.44454092Q14.223404649999999,16.3626647,14.29303467,16.29303467Q14.3626647,16.22340465,14.44454092,16.16869676Q14.52641714,16.11398882,14.61739314,16.07630533Q14.70836911,16.03862178,14.8049487,16.01941091Q14.901528291,16.00020003,15,16.00019997Q15.098471709,16.00020003,15.1950513,16.01941091Q15.29163089,16.03862178,15.38260686,16.07630527Q15.47358286,16.11398876,15.55545908,16.1686967Q15.6373353,16.22340465,15.70696533,16.29303467Q15.776595350000001,16.3626647,15.83130324,16.44454092Q15.88601118,16.52641714,15.92369467,16.61739314Q15.96137822,16.70836911,15.98058909,16.8049487Q15.99979997,16.901528291,15.99980003,17L16,17L16,29.000004Q16,29.414229,16.2928885,29.707114Q16.5857769,29.999999000000003,17,29.999999000000003L33,29.999999000000003L33,30.0002Q33.098473,30.0002,33.195051,30.019410999999998Q33.29163,30.038621,33.382605,30.076303Q33.473579,30.113987,33.555458,30.168695Q33.637333,30.223404000000002,33.706964,30.293035Q33.776594,30.362662999999998,33.831303,30.44454Q33.886009,30.526415999999998,33.923693,30.617392000000002Q33.961376,30.708368,33.980587,30.804948Q33.999798,30.901527,33.9998,31Q33.999798,31.098471,33.980587,31.195051Q33.961376,31.291629999999998,33.923691000000005,31.382606Q33.886009,31.473581,33.831303,31.555458Q33.776594,31.637335,33.706964,31.706964Q33.637333,31.776594,33.555456,31.831301Q33.473579,31.886009,33.382605,31.923693Q33.29163,31.961376,33.195049,31.980587999999997Q33.098473,31.999799,33,31.9998L33,31.999997999999998L17,31.999997999999998Q15.75735676,31.999997999999998,14.87868402,31.121337Q14.00000012,30.242663999999998,14,29.000004L14,17L14.00019997,17ZM30,21.4142346L30,23L30.0002,23Q30.000199000000002,23.0984716,30.019409,23.1950507Q30.03862,23.2916307,30.076303,23.3826065Q30.113987,23.4735823,30.168694000000002,23.5554585Q30.223402999999998,23.637334799999998,30.293034,23.706965Q30.362662999999998,23.7765946,30.44454,23.8313026Q30.526415,23.8860102,30.617392000000002,23.9236941Q30.708368,23.9613781,30.804948,23.9805889Q30.901527,23.9997997,31,23.9998002Q31.098473,23.9997997,31.195051,23.9805889Q31.29163,23.9613781,31.382607,23.9236941Q31.473583,23.8860106,31.555458,23.8313026Q31.637335,23.7765951,31.706964,23.7069654Q31.776594,23.637334799999998,31.831301,23.5554585Q31.886009,23.4735823,31.923693,23.3826065Q31.961376,23.2916307,31.980587,23.1950507Q31.999798,23.0984716,31.9998,23L32,23L32,19Q32,18.9015086,31.980785,18.8049095Q31.961571,18.7083106,31.923878,18.6173165Q31.886187,18.5263224,31.831467,18.4444296Q31.776749,18.3625371,31.707106,18.2928932Q31.637461,18.2232492,31.555569,18.1685302Q31.473675,18.1138114,31.382683,18.0761204Q31.291687,18.0384294,31.195089,18.0192146Q31.098492,18,31,18L27,18L27,18.0002Q26.901527,18.0002,26.804948,18.0194108Q26.708368,18.0386217,26.617392000000002,18.0763052Q26.526415,18.1139886,26.44454,18.1686966Q26.362662999999998,18.2234045,26.293034,18.2930346Q26.223402999999998,18.3626645,26.168694000000002,18.4445406Q26.113987,18.5264169,26.076303,18.6173929Q26.03862,18.7083689,26.019409,18.8049486Q26.000199000000002,18.9015281,26.0002,19Q26.000199000000002,19.0984716,26.01941,19.1950512Q26.03862,19.2916307,26.076303,19.3826067Q26.113987,19.4735827,26.168695,19.5554588Q26.223402999999998,19.6373351,26.293034,19.7069652Q26.362662999999998,19.7765951,26.44454,19.8313029Q26.526415,19.8860106,26.617392000000002,19.9236944Q26.708368,19.9613779,26.804948,19.9805889Q26.901527,19.9997997,27,19.9998L27,20L28.585808999999998,20L25.292896,23.2928901Q25.171561,23.4142246,25,23.4142246Q24.8284388,23.4142246,24.7071075,23.2928929Q23.999988600000002,22.5857744,23,22.5857744Q22.000011,22.5857744,21.2928929,23.2928925L18.2928932,26.2928934L18.2930346,26.2930346Q18.1524103,26.4336586,18.0763049,26.6173925Q18.0001998,26.801126500000002,18.0002,27Q18.0001998,27.098472,18.0194108,27.195051Q18.0386214,27.291629999999998,18.0763049,27.382606Q18.1139884,27.473581,18.1686964,27.555458Q18.2234044,27.637335,18.2930346,27.706964Q18.3626647,27.776594,18.4445405,27.831302Q18.5264168,27.886009,18.6173928,27.923693Q18.7083688,27.961376,18.8049486,27.980587999999997Q18.9015281,27.9998,19,27.9998Q19.1988726,27.9998,19.382607,27.923695000000002Q19.5663414,27.847589,19.7069659,27.706964L19.7071066,27.707106L22.7071061,24.7071066Q22.8535538,24.5606594,23,24.5606599Q23.1464462,24.5606599,23.2928925,24.7071061Q24.000010500000002,25.4142246,25,25.4142246Q25.999988000000002,25.4142246,26.707104,24.7071085L30,21.4142346Z" fill-rule="evenodd" fill="#FFFFFF" fill-opacity="1" style="mix-blend-mode:passthrough"/></g></g></g></svg>