<svg xmlns="http://www.w3.org/2000/svg" xmlns:xlink="http://www.w3.org/1999/xlink" fill="none" version="1.1" width="24" height="24" viewBox="0 0 24 24"><defs><clipPath id="master_svg0_331_5908"><rect x="0" y="0" width="24" height="24" rx="0"/></clipPath></defs><g clip-path="url(#master_svg0_331_5908)"><g><path d="M17.752426,8.65837276Q17.872030000000002,8.52168149,17.935915,8.35165623Q17.9998,8.18163097,17.9998,8Q17.9998,7.901528291,17.980587999999997,7.8049487Q17.961377,7.70836911,17.923693999999998,7.61739314Q17.886009,7.52641714,17.831303,7.44454092Q17.776594,7.3626647,17.706964,7.29303467Q17.637335,7.22340465,17.555458,7.16869676Q17.473581,7.11398882,17.382606,7.07630533Q17.291629999999998,7.03862178,17.195051,7.0194109099999995Q17.098472,7.00020003,17,7.00019997Q16.893121700000002,7.00020003,16.7886581,7.02279258Q16.684194599999998,7.04538518,16.586866399999998,7.08954924Q16.4895382,7.13371336,16.403746599999998,7.19745302Q16.3179531,7.26119268,16.2475739,7.34162724L16.2474232,7.34149539L9.951289899999999,14.537076500000001L7.70710677,12.2928934L7.70696551,12.2930346Q7.5663414,12.1524105,7.38260701,12.0763049Q7.19887266,12.0001998,7,12.0001998Q6.901528291,12.0001998,6.8049487,12.0194106Q6.70836911,12.0386214,6.61739314,12.0763049Q6.52641714,12.1139879,6.44454092,12.1686959Q6.3626647,12.223403900000001,6.29303467,12.2930341Q6.22340465,12.362664200000001,6.16869676,12.44454Q6.11398882,12.5264168,6.07630533,12.617392500000001Q6.03862178,12.7083683,6.0194109099999995,12.8049483Q6.00020003,12.9015284,6.00019997,13Q6.00020003,13.1988726,6.07630527,13.3826065Q6.15241045,13.5663409,6.29303449,13.7069654L6.29289323,13.7071066L9.2928934,16.7071066Q9.3164372,16.7306509,9.3414955,16.7525768Q9.4156177,16.8174334,9.5009687,16.866582899999997Q9.5863199,16.9157333,9.6796196,16.9472876Q9.7729192,16.978841799999998,9.8705823,16.9915886Q9.9682455,17.004335400000002,10.0665188,16.9977846Q10.1647918,16.991231900000002,10.2598987,16.965634299999998Q10.3550055,16.9400368,10.4432912,16.8963766Q10.531576600000001,16.8527164,10.609648,16.7926712Q10.6877196,16.732626,10.7525768,16.6585045L17.752577000000002,8.65850461L17.752426,8.65837276Z" fill-rule="evenodd" fill="#FFFFFF" fill-opacity="1" style="mix-blend-mode:passthrough"/></g></g></svg>