<svg xmlns="http://www.w3.org/2000/svg" xmlns:xlink="http://www.w3.org/1999/xlink" fill="none" version="1.1" width="16" height="16" viewBox="0 0 16 16"><g><g><path d="M8.000650875,14.66682909375C11.682517375,14.66682909375,14.667317375,11.68202909375,14.667317375,8.00016259375C14.667317375,4.31826259375,11.682517375,1.33349609375,8.000650875,1.33349609375C4.318750875,1.33349609375,1.333984375,4.31826259375,1.333984375,8.00016259375C1.333984375,11.68202909375,4.318750875,14.66682909375,8.000650875,14.66682909375ZM9.138717674999999,5.52875569375C8.878384075,5.2684089937500005,8.456251175,5.2684089937500005,8.195917575,5.52875569375C7.935584075,5.78910919375,7.935584075,6.21121649375,8.195917575,6.47156949375C8.195917575,6.47156949375,9.057850875,7.33349609375,9.057850875,7.33349609375C9.057850875,7.33349609375,5.333984375,7.33349609375,5.333984375,7.33349609375C4.965797675,7.33349609375,4.667317675,7.63196279375,4.667317675,8.00016259375C4.667317675,8.368362393750001,4.965797675,8.66682909375,5.333984375,8.66682909375C5.333984375,8.66682909375,9.057850875,8.66682909375,9.057850875,8.66682909375C9.057850875,8.66682909375,8.195917575,9.52876279375,8.195917575,9.52876279375C7.935584075,9.78909589375,7.935584075,10.21122929375,8.195917575,10.47156239375C8.456251175,10.73189549375,8.878384075,10.73189549375,9.138717674999999,10.47156239375C9.138717674999999,10.47156239375,11.138717675,8.47156239375,11.138717675,8.47156239375C11.399050375,8.21122929375,11.399050375,7.78909589375,11.138717675,7.52876279375C11.138717675,7.52876279375,9.138717674999999,5.52875569375,9.138717674999999,5.52875569375Z" fill-rule="evenodd" fill="#FFFFFF" fill-opacity="1"/></g></g></svg>