<svg xmlns="http://www.w3.org/2000/svg" xmlns:xlink="http://www.w3.org/1999/xlink" fill="none" version="1.1" width="100" height="100" viewBox="0 0 100 100"><defs><linearGradient x1="0.5" y1="0" x2="0.5" y2="1" id="master_svg0_106_2048"><stop offset="0%" stop-color="#71B5FF" stop-opacity="1"/><stop offset="100%" stop-color="#0077FD" stop-opacity="1"/></linearGradient><filter id="master_svg1_204_2857" filterUnits="objectBoundingBox" color-interpolation-filters="sRGB" x="-0.1875" y="-0.14583333333333334" width="1.25" height="1.25"><feFlood flood-opacity="0" result="BackgroundImageFix"/><feColorMatrix in="SourceAlpha" type="matrix" values="0 0 0 0 0 0 0 0 0 0 0 0 0 0 0 0 0 0 127 0"/><feOffset dy="1" dx="0"/><feGaussianBlur stdDeviation="1.5"/><feColorMatrix type="matrix" values="0 0 0 0 0.06666667014360428 0 0 0 0 0.06666667014360428 0 0 0 0 0.06666667014360428 0 0 0 0.10000000149011612 0"/><feBlend mode="normal" in2="BackgroundImageFix" result="effect1_dropShadow"/><feColorMatrix in="SourceAlpha" type="matrix" values="0 0 0 0 0 0 0 0 0 0 0 0 0 0 0 0 0 0 127 0"/><feMorphology radius="-1" operator="dilate" in="SourceAlpha" result="effect2_dropShadow"/><feOffset dy="1" dx="0"/><feGaussianBlur stdDeviation="1"/><feColorMatrix type="matrix" values="0 0 0 0 0.06666667014360428 0 0 0 0 0.06666667014360428 0 0 0 0 0.06666667014360428 0 0 0 0.10000000149011612 0"/><feBlend mode="normal" in2="effect1_dropShadow" result="effect2_dropShadow"/><feBlend mode="normal" in="SourceGraphic" in2="effect2_dropShadow" result="shape"/></filter><clipPath id="master_svg2_204_2857"><rect x="26" y="26" width="48" height="48" rx="0"/></clipPath></defs><g><g><path d="M6,68.016457C6,72.333252,8.3186185,76.317398,12.071887,78.449936L44.071888,96.631752C47.74799,98.720444,52.25201,98.720444,55.928112,96.631752L87.928116,78.449936C91.681381,76.317398,94,72.333252,94,68.016457L94,31.983543C94,27.666744,91.681381,23.682604,87.928116,21.550064L55.928112,3.3682454C52.25201,1.2795503,47.74799,1.2795503,44.071888,3.3682451L12.071887,21.550064C8.3186185,23.682604,6,27.666744,6,31.983543L6,68.016457Z" fill="url(#master_svg0_106_2048)" fill-opacity="1"/><path d="M6,68.016457C6,72.333252,8.3186185,76.317398,12.071887,78.449936L44.071888,96.631752C47.74799,98.720444,52.25201,98.720444,55.928112,96.631752L87.928116,78.449936C91.681381,76.317398,94,72.333252,94,68.016457L94,31.983543C94,27.666744,91.681381,23.682604,87.928116,21.550064L55.928112,3.3682454C52.25201,1.2795503,47.74799,1.2795503,44.071888,3.3682451L12.071887,21.550064C8.3186185,23.682604,6,27.666744,6,31.983543L6,68.016457ZM8,68.016464Q8,73.836082,13.0599055,76.711029L45.05991,94.892845Q50,97.699699,54.940094,94.892845L86.940102,76.711029Q92,73.836075,92,68.016464L92,31.983543Q92,26.163931,86.940102,23.288977L54.940094,5.1071587Q50,2.3002861,45.05991,5.1071587L13.0599055,23.288977Q7.9999998,26.163925,7.9999994,31.983543L8,68.016464Z" fill-rule="evenodd" fill="#000000" fill-opacity="0.10000000149011612"/></g><g filter="url(#master_svg1_204_2857)"><g clip-path="url(#master_svg2_204_2857)"><g><path d="M54.110943,35.76816365Q52.5,37.37897535,52.5,39.65724565L52.5,45.37908525L48.939339000000004,48.93974925L48.93955,48.93996025Q48.835105999999996,49.04440725,48.753044,49.16721925Q48.670981999999995,49.29003525,48.614458,49.42649825Q48.557934,49.56296125,48.529116,49.707832249999996Q48.500299,49.85269925,48.500299,50.00040825Q48.500299,50.074085249999996,48.507521,50.147403249999996Q48.514744,50.22072625,48.529116,50.29298425Q48.543489,50.36524625,48.564876999999996,50.43574925Q48.586262000000005,50.50625225,48.614456000000004,50.574318250000005Q48.642652999999996,50.642385250000004,48.677383,50.707361250000005Q48.712112000000005,50.77233725,48.753044,50.83359525Q48.793976,50.89485525,48.840717,50.95180925Q48.887455,51.00876025,48.93955,51.06085625Q48.991648,51.112953250000004,49.048598999999996,51.159693250000004Q49.105551,51.20643225,49.166809,51.247362249999995Q49.228069000000005,51.288295250000004,49.293045,51.32302425Q49.358021,51.35775425,49.426088,51.38594825Q49.494158,51.41414425,49.564661,51.43553125Q49.635164,51.45691825,49.707422,51.471290249999996Q49.779682,51.48566425,49.853004,51.492887249999995Q49.926325,51.50010825,50,51.50010825Q50.147709,51.50010725,50.292578,51.471290249999996Q50.437447,51.442474250000004,50.57391,51.38595025Q50.710373000000004,51.32942425,50.833189000000004,51.247362249999995Q50.956002999999995,51.16530025,51.06045,51.06085625L51.060660999999996,51.06106725L54.621320999999995,47.50040825L60.343201,47.50040825Q62.621210000000005,47.50040825,64.23222,45.88952725L69.488659,40.63310715Q70.277195,39.84452055,70.020893,38.75926165Q69.764587,37.67397305,68.70652,37.32146695L64.185852,35.81453655L62.67882,31.29353499Q62.326025,30.23568615,61.241032000000004,29.97951375Q60.155785,29.72328135,59.3673,30.51182568L54.110943,35.76816365ZM55.5,44.50040725L60.343201,44.50040725Q61.378639,44.50040725,62.110983000000004,43.76812225L66.223175,39.65594865L62.525645999999995,38.42340565Q62.359961999999996,38.36817645,62.211397000000005,38.27635815Q62.062832,38.18453935,61.939335,38.061043749999996Q61.815844,37.93754955,61.724025999999995,37.788985249999996Q61.63221,37.64042095,61.576979,37.474734749999996L60.344473,33.777290550000004L56.232258,37.88948825Q55.5,38.62168785,55.5,39.65724565L55.5,44.50040725ZM38.3327398,38.33312795Q43.165478,33.50038525,50,33.50038525L50,33.50008535Q50.073677,33.50008535,50.146996,33.49286385Q50.220318,33.48564245,50.292576,33.47126885Q50.364838,33.456895349999996,50.435341,33.43550875Q50.505843999999996,33.41412175,50.57391,33.38592735Q50.641979,33.35773305,50.706955,33.32300255Q50.771930999999995,33.28827215,50.833189000000004,33.24734025Q50.894447,33.20640825,50.951401000000004,33.15966915Q51.008352,33.11292985,51.060448,33.06083335Q51.112545,33.00873685,51.159283,32.95178485Q51.206019999999995,32.89483285,51.246952,32.83357385Q51.287886,32.77231495,51.322617,32.70733895Q51.357346,32.64236285,51.38554,32.57429555Q51.413736,32.50622825,51.435123000000004,32.43572525Q51.456511,32.3652221,51.470882,32.29296219Q51.485256,32.22070241,51.492479,32.14738166Q51.499701,32.07406092,51.499701,32.00038528Q51.499701,31.92670977,51.492479,31.85338897Q51.485256,31.78006822,51.470882,31.70780832Q51.456511,31.63554844,51.435123000000004,31.56504536Q51.413736,31.494542256,51.38554,31.42647494376Q51.357346,31.358407609,51.322617,31.29343158Q51.287886,31.22845556,51.246952,31.1671966Q51.206019999999995,31.10593763,51.159283,31.04898566Q51.112545,30.99203369,51.060448,30.93993723Q51.008352,30.88784075,50.951401000000004,30.84110153Q50.894447,30.79436219,50.833189000000004,30.75343031Q50.771930999999995,30.71249831,50.706955,30.67776787Q50.641979,30.64303744,50.57391,30.61484313Q50.505843999999996,30.5866487,50.435341,30.56526184Q50.364838,30.54387492,50.292576,30.52950156Q50.220318,30.51512814,50.146996,30.50790662Q50.073677,30.50068521,50,30.50068521L50,30.50038528Q41.9228363,30.50038528,36.2114191,36.21180825Q30.5,41.923233249999996,30.5,50.00040825Q30.5,58.07761725,36.2114215,63.78902025Q41.9228249,69.50040425,50,69.50040425Q58.077223000000004,69.50040425,63.78861,63.78902025Q69.5,58.07763525,69.5,50.00041225L69.49969899999999,50.00041225Q69.499702,49.92673725,69.49247700000001,49.853416249999995Q69.485252,49.780094250000005,69.470879,49.707832249999996Q69.45650499999999,49.635574250000005,69.43512,49.56507125Q69.413734,49.49456825,69.385536,49.42649825Q69.357346,49.358431249999995,69.32261700000001,49.29345325Q69.28788399999999,49.22847725,69.246948,49.16721725Q69.206017,49.10596125,69.159279,49.04900725Q69.112541,48.992056250000005,69.06044399999999,48.939958250000004Q69.00835000000001,48.887863249999995,68.951401,48.841123249999995Q68.894447,48.79438425,68.83318299999999,48.753452249999995Q68.771927,48.71252025,68.706951,48.67779125Q68.641975,48.643060250000005,68.573906,48.61486425Q68.505844,48.58667225,68.435341,48.565284250000005Q68.36483799999999,48.543899249999996,68.292572,48.52952425Q68.220314,48.51515225,68.146996,48.50793125Q68.073677,48.50070925,68,48.500707250000005Q67.926331,48.50070925,67.853004,48.50793125Q67.779686,48.51515225,67.70742,48.52952425Q67.63516200000001,48.543899249999996,67.564659,48.565284250000005Q67.494156,48.58667225,67.426086,48.61486425Q67.358025,48.643060250000005,67.293045,48.67779125Q67.228073,48.71252025,67.166809,48.753452249999995Q67.105553,48.79438425,67.048603,48.841123249999995Q66.991653,48.887863249999995,66.93955199999999,48.939958250000004Q66.887459,48.992056250000005,66.840717,49.04900725Q66.793976,49.10596125,66.753044,49.16721725Q66.71211199999999,49.22847725,66.67738299999999,49.29345325Q66.642654,49.35842925,66.61445599999999,49.426494250000005Q66.586266,49.494564249999996,66.564877,49.56506725Q66.543488,49.63557025,66.52911399999999,49.70782825Q66.51474,49.78009025,66.50752299999999,49.853412250000005Q66.50030100000001,49.92673325,66.50030100000001,50.00040825L66.5,50.00041225Q66.5,56.83499125,61.667292,61.66769825Q56.834582999999995,66.50040425,50,66.50040425Q43.165464,66.50040425,38.3327384,61.66769625Q33.5,56.83497625,33.5,50.00040825Q33.5,43.16587225,38.3327398,38.33312795ZM47.449384,41.88821525Q47.562876,41.85257025,47.669328,41.79947925Q47.77578,41.74638825,47.87253,41.67717925Q47.969281,41.60796925,48.053911,41.52437325Q48.138542,41.44077725,48.208935,41.34488295Q48.279326999999995,41.24899105,48.333725,41.143199949999996Q48.388119,41.03740885,48.425157999999996,40.92436505Q48.462196,40.81132125,48.480948999999995,40.69385245Q48.499702,40.57638355,48.499701,40.45742605Q48.499701,40.38375095,48.492479,40.31043055Q48.485256,40.23710915,48.470882,40.16484835Q48.456511,40.09258845,48.435123000000004,40.02208515Q48.413736,39.95158195,48.38554,39.88351445Q48.357346,39.81544685,48.322617,39.750471149999996Q48.287884,39.68549535,48.246952,39.62423615Q48.206019999999995,39.56297775,48.159283,39.50602535Q48.112543,39.44907375,48.060448,39.39697745Q48.00835,39.34488105,47.951399,39.29814145Q47.894447,39.25140235,47.833187,39.21047015Q47.771929,39.16953845,47.706953,39.13480855Q47.641977,39.10007815,47.573909,39.07188325Q47.505842,39.04368925,47.435339,39.02230265Q47.364837,39.00091555,47.292576,38.98654225Q47.220318,38.97216935,47.146996,38.96494815Q47.073676,38.95772645,47,38.95772605Q46.770024,38.95772605,46.550616,39.02663805L46.550527,39.02635195Q43.006854000000004,40.13935375,40.776147800000004,43.13051825Q38.5,46.18261525,38.5,49.99960725Q38.5,54.76303325,41.8682728,58.131317249999995Q45.236554,61.49960925,50,61.49960925Q53.817158,61.49960925,56.869305,59.22336225Q59.86055,56.99253425,60.97349,53.44863125L60.973203999999996,53.448541250000005Q61.042101,53.22915625,61.042101,52.99920625Q61.042103,52.92553125,61.03488,52.85220925Q61.027658,52.77888825,61.013283,52.70662925Q60.998913,52.63436925,60.977524,52.56386525Q60.956139,52.493362250000004,60.92794,52.425295250000005Q60.899748,52.35722725,60.865017,52.29225125Q60.830286,52.22727625,60.789352,52.16601525Q60.748423,52.10475925,60.701685,52.04780625Q60.654945,51.99085625,60.602848,51.938757249999995Q60.550753,51.88666125,60.493801000000005,51.83992225Q60.436848,51.79318225,60.375586999999996,51.75224925Q60.314330999999996,51.71131925,60.249355,51.676588249999995Q60.184380000000004,51.64185725,60.11631,51.613662250000004Q60.048244,51.58547025,59.977743000000004,51.564083249999996Q59.90724,51.54269825,59.834978,51.52832225Q59.76272,51.51395025,59.689398,51.50672925Q59.616077000000004,51.499508250000005,59.5424,51.499506249999996Q59.423443,51.499508250000005,59.305973,51.518263250000004Q59.188501,51.53701825,59.075452999999996,51.57405425Q58.96241,51.61109725,58.856615000000005,51.66549725Q58.750820000000004,51.719894249999996,58.654924,51.79028925Q58.559032,51.86068725,58.475432999999995,51.94532025Q58.391838,52.029957249999995,58.322628,52.126709250000005Q58.253422,52.223465250000004,58.200331,52.32992125Q58.147242,52.436378250000004,58.111597,52.549871249999995L58.111311,52.54978225Q56.242805000000004,58.49960925,50,58.49960925Q46.4792,58.49960925,43.989597,56.009998249999995Q41.5,53.52039325,41.5,49.99960725Q41.5,43.75711925,47.449473,41.88850025L47.449384,41.88821525Z" fill-rule="evenodd" fill="#FFFFFF" fill-opacity="1"/></g></g></g></g></svg>