<svg xmlns="http://www.w3.org/2000/svg" xmlns:xlink="http://www.w3.org/1999/xlink" fill="none" version="1.1" width="100" height="100" viewBox="0 0 100 100"><defs><linearGradient x1="0.5" y1="0" x2="0.5" y2="1" id="master_svg0_106_2048"><stop offset="0%" stop-color="#71B5FF" stop-opacity="1"/><stop offset="100%" stop-color="#0077FD" stop-opacity="1"/></linearGradient><filter id="master_svg1_204_2962" filterUnits="objectBoundingBox" color-interpolation-filters="sRGB" x="-0.1875" y="-0.14583333333333334" width="1.25" height="1.25"><feFlood flood-opacity="0" result="BackgroundImageFix"/><feColorMatrix in="SourceAlpha" type="matrix" values="0 0 0 0 0 0 0 0 0 0 0 0 0 0 0 0 0 0 127 0"/><feOffset dy="1" dx="0"/><feGaussianBlur stdDeviation="1.5"/><feColorMatrix type="matrix" values="0 0 0 0 0.06666667014360428 0 0 0 0 0.06666667014360428 0 0 0 0 0.06666667014360428 0 0 0 0.10000000149011612 0"/><feBlend mode="normal" in2="BackgroundImageFix" result="effect1_dropShadow"/><feColorMatrix in="SourceAlpha" type="matrix" values="0 0 0 0 0 0 0 0 0 0 0 0 0 0 0 0 0 0 127 0"/><feMorphology radius="-1" operator="dilate" in="SourceAlpha" result="effect2_dropShadow"/><feOffset dy="1" dx="0"/><feGaussianBlur stdDeviation="1"/><feColorMatrix type="matrix" values="0 0 0 0 0.06666667014360428 0 0 0 0 0.06666667014360428 0 0 0 0 0.06666667014360428 0 0 0 0.10000000149011612 0"/><feBlend mode="normal" in2="effect1_dropShadow" result="effect2_dropShadow"/><feBlend mode="normal" in="SourceGraphic" in2="effect2_dropShadow" result="shape"/></filter><clipPath id="master_svg2_204_2962"><rect x="26" y="26" width="48" height="48" rx="0"/></clipPath></defs><g><g><path d="M6,68.016457C6,72.333252,8.3186185,76.317398,12.071887,78.449936L44.071888,96.631752C47.74799,98.720444,52.25201,98.720444,55.928112,96.631752L87.928116,78.449936C91.681381,76.317398,94,72.333252,94,68.016457L94,31.983543C94,27.666744,91.681381,23.682604,87.928116,21.550064L55.928112,3.3682454C52.25201,1.2795503,47.74799,1.2795503,44.071888,3.3682451L12.071887,21.550064C8.3186185,23.682604,6,27.666744,6,31.983543L6,68.016457Z" fill="url(#master_svg0_106_2048)" fill-opacity="1"/><path d="M6,68.016457C6,72.333252,8.3186185,76.317398,12.071887,78.449936L44.071888,96.631752C47.74799,98.720444,52.25201,98.720444,55.928112,96.631752L87.928116,78.449936C91.681381,76.317398,94,72.333252,94,68.016457L94,31.983543C94,27.666744,91.681381,23.682604,87.928116,21.550064L55.928112,3.3682454C52.25201,1.2795503,47.74799,1.2795503,44.071888,3.3682451L12.071887,21.550064C8.3186185,23.682604,6,27.666744,6,31.983543L6,68.016457ZM8,68.016464Q8,73.836082,13.0599055,76.711029L45.05991,94.892845Q50,97.699699,54.940094,94.892845L86.940102,76.711029Q92,73.836075,92,68.016464L92,31.983543Q92,26.163931,86.940102,23.288977L54.940094,5.1071587Q50,2.3002861,45.05991,5.1071587L13.0599055,23.288977Q7.9999998,26.163925,7.9999994,31.983543L8,68.016464Z" fill-rule="evenodd" fill="#000000" fill-opacity="0.10000000149011612"/></g><g filter="url(#master_svg1_204_2962)"><g clip-path="url(#master_svg2_204_2962)"><g><path d="M30.5002999,36Q30.5002998,35.926324457,30.5075214,35.85300368Q30.5147429,35.7796829,30.5291164,35.70742303Q30.5434897,35.63516313,30.5648766,35.56466001Q30.5862634,35.49415696,30.6144578,35.42608964Q30.6426522,35.35802227,30.6773825,35.29304624Q30.712113,35.22807026,30.7530451,35.16681135Q30.7939769,35.10555232,30.8407161,35.04860032Q30.8874555,34.9916484,30.9395519,34.9395519Q30.9916484,34.8874555,31.04860038,34.8407161Q31.10555232,34.7939769,31.16681135,34.7530451Q31.22807026,34.712113,31.2930463,34.6773826Q31.35802227,34.6426522,31.42608964,34.6144578Q31.49415696,34.5862634,31.56466004,34.5648766Q31.63516313,34.5434897,31.70742303,34.5291164Q31.7796829,34.5147429,31.85300368,34.5075213Q31.926324457,34.5002999,32,34.5002999Q32.073675543,34.5002999,32.14699632,34.5075214Q32.2203171,34.5147429,32.29257697,34.5291164Q32.36483687,34.5434897,32.43533999,34.5648766Q32.50584304,34.5862634,32.57391036,34.6144578Q32.64197773,34.6426522,32.70695376,34.6773825Q32.77192974,34.712113,32.83318865,34.7530451Q32.89444768,34.7939769,32.95139968,34.8407161Q33.0083516,34.8874555,33.0604481,34.9395519Q33.1125445,34.9916484,33.1592839,35.04860038Q33.2060231,35.10555232,33.2469549,35.16681135Q33.287887,35.22807026,33.3226174,35.2930463Q33.3573478,35.35802227,33.3855422,35.42608964Q33.4137366,35.49415696,33.4351234,35.56466004Q33.4565103,35.63516313,33.4708836,35.70742303Q33.4852571,35.7796829,33.4924787,35.85300368Q33.4997002,35.926324457,33.4997001,36L33.5,36L33.5,60Q33.5,62.5,36,62.5L68,62.5L68,62.500299Q68.073677,62.500301,68.146999,62.507523Q68.22031799999999,62.514744,68.292576,62.529116Q68.36483799999999,62.543489,68.435341,62.564875Q68.505844,62.586262000000005,68.573906,62.614453999999995Q68.641975,62.642651,68.706951,62.677382Q68.771927,62.712112000000005,68.83318299999999,62.753044Q68.894447,62.793977999999996,68.951397,62.840717Q69.00835000000001,62.887455,69.06044399999999,62.93955Q69.112541,62.99165,69.159279,63.048598999999996Q69.206017,63.105553,69.246948,63.166809Q69.28788399999999,63.228069000000005,69.32261299999999,63.293045Q69.357346,63.358021,69.385536,63.426086Q69.413734,63.494156000000004,69.43512,63.564659Q69.45650499999999,63.635162,69.470879,63.707422Q69.485252,63.779682,69.49247700000001,63.853004Q69.499702,63.926325,69.49969899999999,64Q69.499702,64.07367500000001,69.49247700000001,64.146996Q69.485252,64.220316,69.470879,64.292574Q69.45650499999999,64.364836,69.43512,64.435337Q69.413734,64.50584,69.385536,64.573906Q69.357346,64.641975,69.32261700000001,64.706953Q69.28788399999999,64.771929,69.246948,64.833187Q69.206017,64.894447,69.159279,64.951401Q69.112541,65.008352,69.06044399999999,65.06044800000001Q69.00835000000001,65.112545,68.951401,65.159283Q68.894447,65.20602,68.83318299999999,65.246952Q68.771927,65.287886,68.706951,65.32261700000001Q68.641975,65.357347,68.573906,65.38553999999999Q68.505844,65.413738,68.435341,65.435123Q68.36483799999999,65.456512,68.292572,65.470882Q68.220314,65.485258,68.146996,65.492479Q68.073677,65.499701,68,65.499701L68,65.5L36,65.5Q33.7218189,65.5,32.11091816,63.889116Q30.5,62.278215,30.5,60L30.5,36L30.5002999,36ZM62.5,43.6213713L62.5,48L62.500299,48Q62.500301,48.073676,62.507523,48.146996Q62.514744,48.220317,62.529114,48.292576Q62.543489,48.364836,62.564876999999996,48.435339Q62.586262000000005,48.505842,62.614453999999995,48.573909Q62.642651,48.641977,62.677382,48.706953Q62.712111,48.771929,62.75304,48.833187Q62.793974,48.894447,62.840714,48.9514Q62.887453,49.008352,62.939548,49.060448Q62.991648,49.112545,63.048598999999996,49.159285Q63.105553,49.206023,63.166807,49.246954Q63.228069000000005,49.287887,63.293045,49.322617Q63.358021,49.357347000000004,63.426086,49.385542Q63.494156000000004,49.413736,63.564659,49.435123000000004Q63.635162,49.45651,63.70742,49.470882Q63.779682,49.485257000000004,63.853004,49.492479Q63.926327,49.499701,64,49.499701Q64.073677,49.499701,64.146996,49.492479Q64.22031799999999,49.485258,64.292576,49.470883Q64.36483799999999,49.456511,64.435337,49.435123000000004Q64.50584,49.413736,64.573906,49.385541Q64.641975,49.357347000000004,64.706955,49.322618Q64.771931,49.287887,64.83318700000001,49.246954Q64.894447,49.206023,64.951401,49.159284Q65.008354,49.112545,65.06044800000001,49.060448Q65.112549,49.008352,65.15928600000001,48.9514Q65.206024,48.894447,65.246952,48.833188Q65.28788800000001,48.77193,65.32261700000001,48.706953Q65.357346,48.641977,65.38553999999999,48.57391Q65.413734,48.505842,65.435123,48.435339Q65.456509,48.364836,65.470879,48.292576Q65.485252,48.220317,65.49247700000001,48.146996Q65.49969899999999,48.073676,65.49969899999999,48L65.5,48L65.5,40Q65.5,39.9263098,65.492779,39.8529744Q65.485558,39.7796388,65.471176,39.7073643Q65.45680200000001,39.6350901,65.435413,39.5645728Q65.41402099999999,39.4940555,65.385818,39.4259744Q65.35762,39.3578935,65.32288,39.2929046Q65.28814299999999,39.2279158,65.24719999999999,39.1666443Q65.206261,39.1053734,65.159515,39.0484102Q65.112766,38.9914467,65.06065799999999,38.9393396Q65.008553,38.8872328,64.951588,38.8404844Q64.894623,38.7937357,64.833351,38.7527955Q64.77207899999999,38.7118554,64.707088,38.6771181Q64.642101,38.6423807,64.57401999999999,38.6141806Q64.505943,38.5859804,64.43542500000001,38.5645895Q64.36490599999999,38.5431981,64.292633,38.5288219Q64.22036,38.5144458,64.147026,38.5072231Q64.073692,38.5000002,64,38.5L56,38.5L56,38.5002999Q55.926325,38.5003002,55.853004,38.5075216Q55.779682,38.5147429,55.707422,38.5291162Q55.635164,38.5434895,55.564661,38.5648766Q55.494158,38.5862632,55.426088,38.6144576Q55.358021,38.642652,55.293047,38.6773825Q55.228069000000005,38.7121129,55.166810999999996,38.7530448Q55.105553,38.793977,55.048598999999996,38.8407164Q54.991648,38.8874555,54.93955,38.9395518Q54.887455,38.9916484,54.840714,39.0486002Q54.793974,39.1055522,54.75304,39.166811Q54.712109,39.2280703,54.67738,39.293046Q54.642651,39.3580222,54.614453999999995,39.4260893Q54.586262000000005,39.4941568,54.564875,39.5646598Q54.543487999999996,39.6351628,54.529114,39.7074227Q54.514742,39.7796826,54.507521,39.8530037Q54.500299,39.9263244,54.500299,40Q54.500299,40.0736752,54.507521,40.146996Q54.514742,40.2203169,54.529114,40.2925763Q54.543487999999996,40.3648367,54.564876999999996,40.4353395Q54.586262000000005,40.5058427,54.614456000000004,40.5739098Q54.642651,40.6419773,54.677382,40.7069535Q54.712112000000005,40.7719297,54.753044,40.8331881Q54.793976,40.8944473,54.840717,40.9513988Q54.887455,41.0083513,54.939552,41.0604477Q54.99165,41.1125441,55.048601000000005,41.1592836Q55.105553,41.2060227,55.166810999999996,41.2469544Q55.228069000000005,41.2878866,55.293047,41.3226175Q55.358021,41.357348,55.426088,41.3855419Q55.494158,41.4137363,55.564661,41.4351234Q55.635164,41.4565105,55.707422,41.4708834Q55.779682,41.4852571,55.853004,41.4924788Q55.926325,41.4997001,56,41.4997001L56,41.5L60.378729,41.5L52.939341999999996,48.939337Q52.469668999999996,49.40901,51.999998000000005,49.409009Q51.530328999999995,49.409009,51.060659,48.93934Q49.79287,47.671549,48,47.671549Q46.20713,47.671549,44.93934,48.93934L38.9393396,54.939341L38.9395514,54.939552Q38.8351059,55.043997000000005,38.7530441,55.166810999999996Q38.6709824,55.289626999999996,38.6144571,55.42609Q38.5579319,55.562553,38.5291157,55.707424Q38.5002995,55.852293,38.5002999,56Q38.5002999,56.073677,38.5075212,56.146997Q38.5147429,56.220318,38.5291162,56.292576Q38.5434895,56.364838,38.5648766,56.435341Q38.5862632,56.505843999999996,38.6144571,56.57391Q38.6426516,56.641979,38.677382,56.706955Q38.7121124,56.771930999999995,38.7530441,56.833186999999995Q38.7939768,56.894447,38.8407159,56.951398999999995Q38.887455,57.00835,38.9395514,57.060448Q38.9916482,57.112545,39.0485997,57.159283Q39.1055517,57.206019999999995,39.16681,57.246952Q39.2280693,57.287884,39.2930455,57.322617Q39.3580217,57.357346,39.4260888,57.38554Q39.4941568,57.413736,39.5646601,57.435123000000004Q39.6351633,57.456511,39.7074227,57.470882Q39.7796831,57.485256,39.853004,57.492479Q39.9263248,57.499701,40,57.499701Q40.147707,57.499699,40.2925768,57.470884Q40.4374466,57.442066,40.573909799999996,57.385542Q40.7103739,57.329015999999996,40.833189000000004,57.246954Q40.9560032,57.164891999999995,41.0604486,57.060448L41.0606604,57.060659L47.06066,51.06066Q48,50.121321,48.939341,51.06066Q50.20713,52.328451,52,52.328451Q53.79287,52.328451,55.060658000000004,51.060663L62.5,43.6213713Z" fill-rule="evenodd" fill="#FFFFFF" fill-opacity="1"/></g></g></g></g></svg>