<svg xmlns="http://www.w3.org/2000/svg" xmlns:xlink="http://www.w3.org/1999/xlink" fill="none" version="1.1" width="42" height="42" viewBox="0 0 42 42"><defs><clipPath id="master_svg0_161_3818"><rect x="0" y="0" width="42" height="42" rx="21"/></clipPath></defs><g clip-path="url(#master_svg0_161_3818)"><rect x="0" y="0" width="42" height="42" rx="21" fill="#FFFFFF" fill-opacity="1"/><g><g transform="matrix(0.7071067094802856,-0.7071067094802856,0.7071067094802856,0.7071067094802856,-6.401465871174878,11.17207732071256)"><rect x="10.28515625" y="13.31329345703125" width="4.282351970672607" height="26.02351951599121" rx="2.1411759853363037" fill="#97C6FF" fill-opacity="1"/></g><g transform="matrix(0.7071067690849304,0.7071067690849304,-0.7071067690849304,0.7071067690849304,15.674878455545695,-17.27194650607271)"><rect x="28.6865234375" y="10.2852783203125" width="4.282352924346924" height="26.023530960083008" rx="2.141176462173462" fill="#4B9EFF" fill-opacity="1"/></g><g><rect x="8.646484375" y="18.199951171875" width="24.705883026123047" height="5.599999904632568" rx="2.799999952316284" fill="#0077FD" fill-opacity="1"/></g><g><rect x="18.19921875" y="8.64697265625" width="5.599999904632568" height="24.705883026123047" rx="2.799999952316284" fill="#0077FD" fill-opacity="1"/></g><g><path d="M18.199414,15.509675617058107Q18.194186000000002,15.643058280637208,18.1762929,15.775338710637207Q18.1583998,15.907619120637207,18.1280041,16.03759742063721Q18.0976081,16.167575720637206,18.0549855,16.29407304063721Q18.012362500000002,16.420570370637208,17.9578993,16.542439240637208Q17.9034362,16.664308040637206,17.8376265,16.780443240637208Q17.7718167,16.896578240637208,17.6952574,17.005926140637207Q17.6186981,17.115273940637206,17.532084,17.216842740637208Q17.4454699,17.318411740637206,17.3495861,17.411280440637206Q17.2537024,17.504148940637208,17.1494188,17.587474840637206Q17.0451353,17.670800940637207,16.9333979,17.743828540637207Q16.8216604,17.816855940637208,16.7034826,17.878922940637207Q16.5853049,17.940989540637208,16.4617587,17.991532840637205Q16.33821243,18.042075640637208,16.21041834,18.080636240637208Q16.0826242,18.119196940637206,15.9517414,18.145426040637208Q15.82085854,18.17165474063721,15.68807408,18.185313440637206Q15.55528964,18.198972240637207,15.421808040548,18.199937540637208L18.199414,18.199937540637208L18.199414,15.509675617058107Z" fill-rule="evenodd" fill="#0077FD" fill-opacity="1"/></g><g transform="matrix(-1,0,0,-1,53.158203125,52.98070526123047)"><path d="M29.3566405625,26.490349407036135Q29.351412562500002,26.623732070615233,29.3335194625,26.756012500615235Q29.3156263625,26.888292910615235,29.2852306625,27.018271210615236Q29.2548346625,27.148249510615234,29.2122120625,27.274746830615236Q29.169589062500002,27.401244160615235,29.1151258625,27.523113030615235Q29.0606627625,27.644981830615233,28.9948530625,27.761117030615235Q28.9290432625,27.877252030615235,28.8524839625,27.986599930615235Q28.7759246625,28.095947730615233,28.6893105625,28.197516530615236Q28.6026964625,28.299085530615233,28.5068126625,28.391954230615234Q28.4109289625,28.484822730615235,28.3066453625,28.568148630615234Q28.2023618625,28.651474730615234,28.0906244625,28.724502330615234Q27.9788869625,28.797529730615235,27.8607091625,28.859596730615234Q27.7425314625,28.921663330615235,27.6189852625,28.972206630615233Q27.4954389925,29.022749430615235,27.3676449025,29.061310030615235Q27.2398507625,29.099870730615233,27.1089679625,29.126099830615235Q26.9780851025,29.152328530615236,26.8453006425,29.165987230615233Q26.7125162025,29.179646030615235,26.579034603048,29.180611330615235L29.3566405625,29.180611330615235L29.3566405625,26.490349407036135Z" fill-rule="evenodd" fill="#0077FD" fill-opacity="1"/></g><g transform="matrix(-1,0,0,1,53.158203125,0)"><path d="M29.3566405625,15.509645099479982Q29.351412562500002,15.643027763059083,29.3335194625,15.775308193059082Q29.3156263625,15.907588603059082,29.2852306625,16.037566903059084Q29.2548346625,16.16754520305908,29.2122120625,16.294042523059083Q29.169589062500002,16.420539853059083,29.1151258625,16.542408723059083Q29.0606627625,16.66427752305908,28.9948530625,16.780412723059083Q28.9290432625,16.896547723059083,28.8524839625,17.005895623059082Q28.7759246625,17.11524342305908,28.6893105625,17.216812223059083Q28.6026964625,17.31838122305908,28.5068126625,17.41124992305908Q28.4109289625,17.504118423059083,28.3066453625,17.58744432305908Q28.2023618625,17.670770423059082,28.0906244625,17.74379802305908Q27.9788869625,17.816825423059083,27.8607091625,17.87889242305908Q27.7425314625,17.940959023059083,27.6189852625,17.99150232305908Q27.4954389925,18.042045123059083,27.3676449025,18.080605723059083Q27.2398507625,18.11916642305908,27.1089679625,18.145395523059083Q26.9780851025,18.171624223059084,26.8453006425,18.18528292305908Q26.7125162025,18.198941723059082,26.579034603048,18.199907023059083L29.3566405625,18.199907023059083L29.3566405625,15.509645099479982Z" fill-rule="evenodd" fill="#0077FD" fill-opacity="1"/></g><g transform="matrix(1,0,0,-1,0,52.98076629638672)"><path d="M18.199414,26.49037992461426Q18.194186000000002,26.623762588193358,18.1762929,26.75604301819336Q18.1583998,26.88832342819336,18.1280041,27.01830172819336Q18.0976081,27.14828002819336,18.0549855,27.27477734819336Q18.012362500000002,27.40127467819336,17.9578993,27.52314354819336Q17.9034362,27.645012348193358,17.8376265,27.76114754819336Q17.7718167,27.87728254819336,17.6952574,27.98663044819336Q17.6186981,28.095978248193358,17.532084,28.19754704819336Q17.4454699,28.29911604819336,17.3495861,28.39198474819336Q17.2537024,28.48485324819336,17.1494188,28.56817914819336Q17.0451353,28.65150524819336,16.9333979,28.72453284819336Q16.8216604,28.79756024819336,16.7034826,28.85962724819336Q16.5853049,28.92169384819336,16.4617587,28.972237148193358Q16.33821243,29.02277994819336,16.21041834,29.06134054819336Q16.0826242,29.09990124819336,15.9517414,29.12613034819336Q15.82085854,29.15235904819336,15.68807408,29.166017748193358Q15.55528964,29.17967654819336,15.421808040548,29.18064184819336L18.199414,29.18064184819336L18.199414,26.49037992461426Z" fill-rule="evenodd" fill="#0077FD" fill-opacity="1"/></g><g><path d="M17.386635865,20.5643014046875Q18.169432125,21.0881322146875,19.065959225,21.3668008746875Q20.005573725,21.6588624146875,20.999655525,21.6588624746875Q21.993737225,21.6588623546875,22.933351525,21.3668008146875Q23.829877825,21.0881324246875,24.612674724999998,20.5643014646875Q24.745196825,20.4639612746875,24.911420325,20.4639612746875Q24.960163625,20.4639613046875,25.007970325,20.4734706846875Q25.055776625,20.4829800746875,25.100810025,20.5016334046875Q25.145842525,20.5202867346875,25.186371825000002,20.5473671546875Q25.226900125,20.5744475746875,25.261367825,20.6089144346875Q25.295834525,20.6433812946875,25.322914125,20.6839100446875Q25.349994625,20.7244387846875,25.368648524999998,20.7694718946875Q25.387302425,20.8145050146875,25.396811525,20.8623119146875Q25.406320524999998,20.9101188106875,25.406321525,20.9588623046875Q25.406320524999998,21.0232634166875,25.389839125,21.0855197646875Q25.373357724999998,21.1477760946875,25.341491724999997,21.2037409946875Q25.309625625000002,21.2597058746875,25.264497725,21.3056516646875Q25.219370825,21.3515974846875,25.163988125,21.3844639046875Q24.261250925,21.9889228046875,23.226682625,22.3104989046875Q22.143784025000002,22.6470976046875,20.999655525,22.6470977046875Q19.855526925,22.6470976046875,18.772628425,22.3104989046875Q17.738056305,21.9889216046875,16.835315885,21.3844595846875Q16.779934165,21.3515927746875,16.734808055,21.3056471646875Q16.689681945,21.2597015546875,16.657817065,21.2037373146875Q16.625952185,21.1477730846875,16.609470905,21.0855177146875Q16.592989595,21.0232623446875,16.592989595,20.9588623046875Q16.592989625,20.9101188106875,16.602499005,20.8623119146875Q16.612008395,20.8145050146875,16.630661725,20.7694718946875Q16.649315055,20.7244387846875,16.676395475,20.6839100446875Q16.703475895,20.6433812946875,16.737942755,20.6089144346875Q16.772409615,20.5744475746875,16.812938365,20.5473671546875Q16.853467105,20.5202867346875,16.898500215,20.5016334046875Q16.943533335,20.4829800746875,16.991340235,20.4734706546875Q17.039147131,20.4639613046875,17.087890625,20.4639612746875Q17.254113955,20.4639612746875,17.386635865,20.5643014046875Z" fill-rule="evenodd" fill="#FFFFFF" fill-opacity="1"/></g></g><rect x="0.5" y="0.5" width="41" height="41" rx="20.5" fill-opacity="0" stroke-opacity="0.05000000074505806" stroke="#000000" fill="none" stroke-width="1"/></g></svg>