<svg xmlns="http://www.w3.org/2000/svg" xmlns:xlink="http://www.w3.org/1999/xlink" fill="none" version="1.1" width="48" height="48" viewBox="0 0 48 48"><defs><linearGradient x1="0.5" y1="0" x2="0.5" y2="1" id="master_svg0_132_7353"><stop offset="0%" stop-color="#FFFFFF" stop-opacity="1"/><stop offset="100%" stop-color="#F2F4F7" stop-opacity="1"/></linearGradient><clipPath id="master_svg1_177_4905"><rect x="0" y="0" width="48" height="48" rx="24"/></clipPath></defs><g clip-path="url(#master_svg1_177_4905)"><rect x="0" y="0" width="48" height="48" rx="24" fill="url(#master_svg0_132_7353)" fill-opacity="1"/><g><g transform="matrix(0.7071067094802856,-0.7071067094802856,0.7071067094802856,0.7071067094802856,-6.987853037571767,11.364201490214327)"><rect x="10.223876953125" y="14.1171875" width="5.50587797164917" height="33.45879364013672" rx="2.752938985824585" fill="#97C9FF" fill-opacity="1"/></g><g transform="matrix(0.7071067690849304,0.7071067690849304,-0.7071067690849304,0.7071067690849304,17.152517869851636,-20.964527545248075)"><rect x="33.88268280029297" y="10.22265625" width="5.505882740020752" height="33.458824157714844" rx="2.752941370010376" fill="#4BA0FF" fill-opacity="1"/></g><g><rect x="8.116897583007812" y="20.400390625" width="31.764705657958984" height="7.199999809265137" rx="3.5999999046325684" fill="#0077FD" fill-opacity="1"/></g><g><rect x="20.39898681640625" y="8.1171875" width="7.199999809265137" height="31.764705657958984" rx="3.5999999046325684" fill="#0077FD" fill-opacity="1"/></g><g><path d="M20.399329615600585,16.941263611458556Q20.392696415600586,17.110464339018556,20.370210615600584,17.278295399018553Q20.347724415600585,17.446126459018554,20.309584415600586,17.611105919018556Q20.271444315600586,17.776085319018556,20.217986615600587,17.936756309018556Q20.164529315600586,18.097427319018554,20.096226415600587,18.252371219018556Q20.027923615600585,18.407315019018554,19.945378315600585,18.555163519018556Q19.862833215600585,18.703012019018555,19.766774915600585,18.842459719018557Q19.670716315600586,18.981907319018553,19.561992615600587,19.111722719018555Q19.453269015600586,19.241538019018556,19.332840215600587,19.360575219018553Q19.212411415600585,19.479611919018556,19.081341015600586,19.586819419018553Q18.950270615600587,19.694026919018555,18.809716015600586,19.788458119018554Q18.669161215600585,19.882889319018556,18.520363215600586,19.963710119018554Q18.371565315600584,20.044531319018553,18.215837915600584,20.111028719018556Q18.060110615600586,20.177525719018554,17.898829045600586,20.229112119018556Q17.737547515600586,20.280698519018554,17.572135985600585,20.316918619018555Q17.406724335600586,20.353138419018556,17.238643255600586,20.373672019018557Q17.070562195600587,20.394205819018556,16.901295820440676,20.398871919018553L20.399329615600585,20.398871919018553L20.399329615600585,16.941263611458556Z" fill-rule="evenodd" fill="#0077FD" fill-opacity="1"/></g><g transform="matrix(-1,0,0,-1,62.13862991333008,62.119140625)"><path d="M34.53674645666504,31.05996800808Q34.53021335666504,31.2282535625,34.50799795666504,31.3951941725Q34.48578235666504,31.5621348025,34.44807865666504,31.7262723425Q34.41037465666504,31.8904098825,34.357511956665036,32.0503106125Q34.30464935666504,32.2102113125,34.23708935666504,32.3644785125Q34.16952945666504,32.5187456125,34.08786275666504,32.6660319125Q34.00619605666504,32.8133181125,33.911135456665036,32.9523369125Q33.81607485666504,33.0913555125,33.70845075666504,33.2208924125Q33.600826756665036,33.3504290125,33.48157975666504,33.4693527125Q33.36233255666504,33.5882764125,33.23250385666504,33.6955478125Q33.10267495666504,33.8028192125,32.96339855666504,33.8975019125Q32.82412195666504,33.9921841125,32.67661425666504,34.0734506125Q32.529106656665036,34.1547170125,32.374656456665036,34.2218575125Q32.220206156665036,34.2889979125,32.06016242666504,34.3414259125Q31.90011870666504,34.3938537125,31.73587930666504,34.4311116125Q31.57163989666504,34.4683690125,31.40463951666504,34.4901309125Q31.23763914666504,34.5118928125,31.06933648300804,34.5179686125L34.53674645666504,34.5179686125L34.53674645666504,31.05996800808Z" fill-rule="evenodd" fill="#0077FD" fill-opacity="1"/></g><g transform="matrix(-1,0,0,1,62.13862991333008,0)"><path d="M34.53674645666504,16.94082738308Q34.53021335666504,17.1091129375,34.50799795666504,17.2760535475Q34.48578235666504,17.4429941775,34.44807865666504,17.6071317175Q34.41037465666504,17.7712692575,34.357511956665036,17.9311699875Q34.30464935666504,18.0910706875,34.23708935666504,18.2453378875Q34.16952945666504,18.3996049875,34.08786275666504,18.5468912875Q34.00619605666504,18.6941774875,33.911135456665036,18.8331962875Q33.81607485666504,18.9722148875,33.70845075666504,19.1017517875Q33.600826756665036,19.2312883875,33.48157975666504,19.3502120875Q33.36233255666504,19.4691357875,33.23250385666504,19.5764071875Q33.10267495666504,19.6836785875,32.96339855666504,19.7783612875Q32.82412195666504,19.8730434875,32.67661425666504,19.9543099875Q32.529106656665036,20.0355763875,32.374656456665036,20.1027168875Q32.220206156665036,20.1698572875,32.06016242666504,20.2222852875Q31.90011870666504,20.2747130875,31.73587930666504,20.3119709875Q31.57163989666504,20.3492283875,31.40463951666504,20.3709902875Q31.23763914666504,20.3927521875,31.06933648300804,20.3988279875L34.53674645666504,20.3988279875L34.53674645666504,16.94082738308Z" fill-rule="evenodd" fill="#0077FD" fill-opacity="1"/></g><g transform="matrix(1,0,0,-1,0,62.1171875)"><path d="M20.399329615600585,31.05840724244Q20.392696415600586,31.22760797,20.370210615600584,31.39543903Q20.347724415600585,31.56327009,20.309584415600586,31.72824955Q20.271444315600586,31.89322895,20.217986615600587,32.05389994Q20.164529315600586,32.21457095,20.096226415600587,32.36951485Q20.027923615600585,32.52445865,19.945378315600585,32.67230715Q19.862833215600585,32.82015565,19.766774915600585,32.95960335Q19.670716315600586,33.09905095,19.561992615600587,33.22886635Q19.453269015600586,33.35868165,19.332840215600587,33.47771885Q19.212411415600585,33.59675555,19.081341015600586,33.70396305Q18.950270615600587,33.81117055,18.809716015600586,33.90560175Q18.669161215600585,34.00003295,18.520363215600586,34.08085375Q18.371565315600584,34.16167495,18.215837915600584,34.22817235Q18.060110615600586,34.29466935,17.898829045600586,34.34625575Q17.737547515600586,34.39784215,17.572135985600585,34.43406225Q17.406724335600586,34.47028205,17.238643255600586,34.49081565Q17.070562195600587,34.51134945,16.901295820440676,34.51601555L20.399329615600585,34.51601555L20.399329615600585,31.05840724244Z" fill-rule="evenodd" fill="#0077FD" fill-opacity="1"/></g><g><path d="M19.32535486919922,23.421061695L19.325590489199218,23.420712645000002Q20.34427257919922,24.108363735,21.513377179199217,24.471757945Q22.721452679199217,24.847265545,23.999557979199217,24.847265605Q25.277663279199217,24.847265425,26.485738779199217,24.471757825Q27.654844279199217,24.108363225,28.673525779199217,23.420712355L28.67376137919922,23.421061335Q28.83474347919922,23.312392595,29.02897017919922,23.312392595Q29.091499179199218,23.312392595,29.152826179199216,23.324591515Q29.21415417919922,23.336790445,29.271924179199218,23.360719445Q29.32969417919922,23.384648445,29.381685179199216,23.419387995Q29.43367717919922,23.454127555,29.477892179199216,23.498342635Q29.522107179199217,23.542557685,29.55684617919922,23.594549115Q29.59158617919922,23.646540525,29.61551517919922,23.704310265Q29.639444179199216,23.762080015,29.651644179199216,23.823408055Q29.66384317919922,23.884736091,29.66384317919922,23.947265625Q29.663842179199218,24.025188841,29.64499717919922,24.100799115Q29.62615417919922,24.176409395,29.58958417919922,24.245218215Q29.55301317919922,24.314026955,29.50088817919922,24.371949435Q29.44876317919922,24.429871975,29.384178179199218,24.473469675L29.38441417919922,24.473818185Q28.21065427919922,25.266153125,26.86287827919922,25.685084125Q25.47058007919922,26.117853925,23.999557979199217,26.117854125Q22.52853627919922,26.117854125,21.136237579199218,25.685084125Q19.788461269199217,25.266153125,18.61470186919922,24.473818604999998L18.614937489199217,24.473469555Q18.55035218919922,24.429871855000002,18.49822723919922,24.371949345Q18.44610225919922,24.314026835,18.40953206919922,24.245218095Q18.37296199919922,24.176409305,18.35411762919922,24.100799055Q18.33527320919922,24.025188811,18.335273149199217,23.947265625Q18.335273149199217,23.884736091,18.34747206919922,23.823408055Q18.359670999199217,23.762080015,18.38359999919922,23.704310265Q18.40752899919922,23.646540525,18.44226854919922,23.594549085Q18.477008109199218,23.542557685,18.52122318919922,23.498342635Q18.565438239199217,23.454127555,18.61742966919922,23.419387995Q18.669421079199218,23.384648445,18.72719081919922,23.360719445Q18.784960569199217,23.336790445,18.84628860919922,23.324591515Q18.90761664519922,23.312392595,18.97014617919922,23.312392595Q19.16437311919922,23.312392595,19.32535486919922,23.421061695Z" fill-rule="evenodd" fill="#FFFFFF" fill-opacity="1"/></g></g><rect x="0.5" y="0.5" width="47" height="47" rx="23.5" fill-opacity="0" stroke-opacity="0.05000000074505806" stroke="#000000" fill="none" stroke-width="1"/></g></svg>