<svg xmlns="http://www.w3.org/2000/svg" xmlns:xlink="http://www.w3.org/1999/xlink" fill="none" version="1.1" width="36" height="36" viewBox="0 0 36 36"><defs><clipPath id="master_svg0_177_4318"><rect x="0" y="0" width="36" height="36" rx="0"/></clipPath></defs><g clip-path="url(#master_svg0_177_4318)"><g><path d="M15,22.21374325L15,13.80205864C15,13.1994929,15.67470074,12.84294368,16.1725502,13.18239401L22.3411503,17.38824315C22.777801,17.685992249999998,22.777801,18.32979245,22.3411503,18.62754205L16.1725502,22.83339215C15.67470074,23.17284425,15,22.81629185,15,22.21374325Z" fill="#222E3D" fill-opacity="1"/></g><g><path d="M17.999954000000002,6C11.3725805,6,6.0000007,11.3725805,6.0000007,18.000044000000003C6.0000007,24.627495,11.3725805,30.000046,17.999954000000002,30.000046C24.627405,30.000046,29.999954,24.627495,29.999954,18.000044000000003C29.999954,11.3725805,24.627405,6,17.999954000000002,6ZM3,18.000044000000003C3,9.7157249,9.7157249,3,17.999954000000002,3C26.284155,3,32.999954,9.7157249,32.999954,18.000044000000003C32.999954,26.284245,26.284155,33.000046,17.999954000000002,33.000046C9.7157249,33.000046,3,26.284245,3,18.000044000000003Z" fill-rule="evenodd" fill="#222E3D" fill-opacity="1"/></g></g></svg>