<svg xmlns="http://www.w3.org/2000/svg" xmlns:xlink="http://www.w3.org/1999/xlink" fill="none" version="1.1" width="36" height="36" viewBox="0 0 36 36"><defs><clipPath id="master_svg0_177_4382"><rect x="0" y="0" width="36" height="36" rx="0"/></clipPath></defs><g clip-path="url(#master_svg0_177_4382)"><g><path d="M26.648872625,4.9731199175Q24.803581625,3.6249197875,22.626371625,4.3195619875L10.228043525,8.2752112875Q10.037830825,8.3099448875,9.862648925,8.3917893875L6.126368725,9.5838381875Q2.994140625,10.5831508875,2.994140625,13.8709258875L2.994140625,19.130165187499998Q2.9941404250000003,22.4180241875,6.126352825,23.4171431875L8.994140625,24.3321231875L8.994140625,25.5005151875Q8.994140625,27.9858421875,10.751508725,29.7431891875Q12.508855825,31.5005151875,14.994140625,31.5005151875Q18.969838625,31.5005151875,20.461954625,27.9909801875L22.626413625,28.6815601875Q24.803615625,29.3761311875,26.648870625,28.0279621875Q28.494155625,26.6797691875,28.494155625,24.3944151875L28.494155625,22.3245431875Q30.035505625,21.9444201875,31.236755625,20.7431961875Q32.994157625,18.9858341875,32.994157625,16.5005171875Q32.994157625,14.0152482875,31.236760625,12.257872087500001Q30.035501625,11.056625887500001,28.494155625,10.6764955875L28.494155625,8.6066462875Q28.494155625,6.3213151075,26.648872625,4.9731199175ZM28.494155625,13.7578754875Q29.994157625,14.3791951875,29.994157625,16.5005171875Q29.994157625,18.6218381875,28.494155625,19.243159187499998L28.494155625,13.7578754875ZM17.572606625,27.0691201875L11.994140625,25.2892871875L11.994140625,25.5005151875Q11.994140625,28.5005151875,14.994140625,28.5005151875Q16.790184625000002,28.5005151875,17.572606625,27.0691201875ZM11.997440825,22.1413461875L23.538198625,25.8234751875Q24.263967625,26.0550101875,24.879064625,25.6056101875Q25.494155625,25.1562151875,25.494155625,24.3944151875L25.494155625,8.6066462875Q25.494155625,7.8448667875,24.879062625,7.3954691875Q24.263973625,6.9460743874999995,23.538234625,7.1776221875L11.997440825,10.8596772875L11.997440825,22.1413461875ZM8.997440825,11.816818187500001L8.997440825,21.1841831875L7.038228025,20.559088187500002Q5.994140625,20.2260431875,5.994140625,19.130165187499998L5.994140625,13.8709258875Q5.994140625,12.7750062875,7.038212025,12.4419040875L8.997440825,11.816818187500001Z" fill-rule="evenodd" fill="#222E3D" fill-opacity="1"/></g></g></svg>