<svg xmlns="http://www.w3.org/2000/svg" xmlns:xlink="http://www.w3.org/1999/xlink" fill="none" version="1.1" width="36" height="36" viewBox="0 0 36 36"><defs><clipPath id="master_svg0_177_4326"><rect x="0" y="0" width="36" height="36" rx="0"/></clipPath></defs><g clip-path="url(#master_svg0_177_4326)"><g><path d="M5.195488755,30.85219025Q6.693743075,32.16592825,8.485689375,31.29429225L8.485766675,31.29425625L30.256072875,20.70325125Q31.943717875,19.88237925,31.943717875,18.00560725Q31.943717875,16.128950250000003,30.256166875,15.30789755L8.485776675,4.71690735Q6.693813075,3.84514645,5.195487555,5.1589664200000005Q3.6971499750000003,6.4727968,4.327331075,8.36329415L7.541426175,18.00555125L4.3273204750000005,27.64784025Q3.6971785749999997,29.53840425,5.195488755,30.85219025ZM10.203703875,19.50555125L7.173390975,28.59646025L7.173358675,28.59652525L7.173442175,28.59651525L28.943660875,18.00555125L7.173385875,7.41461575L10.203703875,16.50555125L13.622565275,16.50555125L13.622565275,16.50585125Q13.696241375,16.50585125,13.769561775,16.513074250000003Q13.842882175,16.52029525,13.915141075,16.53466825Q13.987401975,16.549041250000002,14.057905175,16.57042925Q14.128408475,16.59181525,14.196474075,16.620008249999998Q14.264541675,16.64820325,14.329517375,16.682934250000002Q14.394494075,16.71766425,14.455752375,16.75859525Q14.517012575,16.79952825,14.573965075,16.84626825Q14.630916575,16.89300725,14.683011975,16.945102249999998Q14.735109375,16.99720025,14.781847975,17.05415125Q14.828586575,17.11110325,14.869518275,17.17236125Q14.910451875,17.23362125,14.945181875,17.29859725Q14.979912775,17.36357425,15.008106275,17.43164025Q15.036302575,17.499708249999998,15.057688675,17.57021125Q15.079076775,17.640714250000002,15.093448675,17.712973249999997Q15.107822375,17.785234250000002,15.115043675,17.85855625Q15.122265775,17.931876250000002,15.122264875,18.00555125Q15.122265775,18.079227250000002,15.115044575,18.152548250000002Q15.107822375,18.225868249999998,15.093448675,18.29812725Q15.079076775,18.370388249999998,15.057688675,18.44089125Q15.036302575,18.511394250000002,15.008106275,18.57946025Q14.979912775,18.64752725,14.945182775,18.712504250000002Q14.910451875,18.77748125,14.869519275,18.83873925Q14.828587575,18.89999925,14.781847975,18.95695125Q14.735109375,19.01390225,14.683011975,19.06599825Q14.630916575,19.11809525,14.573965075,19.16483425Q14.517012575,19.21157225,14.455752375,19.25250425Q14.394494075,19.29343725,14.329518275,19.32816725Q14.264541675,19.36289825,14.196474075,19.391091250000002Q14.128408475,19.41928625,14.057905175,19.44067325Q13.987401975,19.462061249999998,13.915141075,19.47643325Q13.842882175,19.49080725,13.769561775,19.498029250000002Q13.696241375,19.50525125,13.622565275,19.50525125L13.622565275,19.50555125L10.203703875,19.50555125Z" fill-rule="evenodd" fill="#222E3D" fill-opacity="1"/></g></g></svg>