<svg xmlns="http://www.w3.org/2000/svg" xmlns:xlink="http://www.w3.org/1999/xlink" fill="none" version="1.1" width="36" height="36" viewBox="0 0 36 36"><defs><clipPath id="master_svg0_177_4364"><rect x="0" y="0" width="36" height="36" rx="0"/></clipPath></defs><g clip-path="url(#master_svg0_177_4364)"><g><path d="M20.818043,7.0609569375Q19.5,8.3788914375,19.5,10.2429342375L19.5,14.3789849375L16.93934,16.9396459375L16.939552,16.9398579375Q16.835106,17.0443039375,16.753044,17.167117937500002Q16.670982000000002,17.2899319375,16.614457,17.4263959375Q16.557932,17.562860937499998,16.529116000000002,17.7077289375Q16.500299,17.8525979375,16.500299,18.000305937500002Q16.500299,18.0739819375,16.507522,18.1473029375Q16.514742,18.2206229375,16.529114,18.2928819375Q16.543488,18.3651429375,16.564875999999998,18.4356459375Q16.586261999999998,18.5061489375,16.614456,18.574214937500003Q16.642651,18.6422829375,16.677382,18.7072579375Q16.712111,18.772234937500002,16.753042,18.8334929375Q16.793975,18.8947539375,16.840714,18.9517059375Q16.887453999999998,19.0086579375,16.93955,19.0607529375Q16.991647999999998,19.112849937500002,17.048599,19.1595899375Q17.105552,19.2063279375,17.166809999999998,19.2472589375Q17.228068999999998,19.2881929375,17.293046,19.3229229375Q17.358021,19.3576529375,17.426088,19.3858469375Q17.494158,19.4140429375,17.564661,19.4354299375Q17.635164,19.4568159375,17.707423,19.4711889375Q17.779684,19.4855629375,17.853004,19.492784937499998Q17.926325,19.5000059375,18,19.5000059375Q18.147707,19.5000059375,18.292576,19.4711889375Q18.437445,19.4423709375,18.573909,19.3858459375Q18.710373,19.3293209375,18.833187000000002,19.2472589375Q18.956001,19.1651969375,19.060448,19.0607539375L19.06066,19.060966937499998L21.621323,16.500304937499997L25.757401,16.500304937499997Q27.621227,16.500304937499997,28.939318,15.1823219375L32.881659,11.2399959375Q33.620913,10.500691437499999,33.380629,9.483253937499999Q33.140339,8.465794537499999,32.14842,8.1353254375L28.93585,7.0644393375L27.86487,3.8515636275Q27.534126,2.8598318375,26.516943,2.6196699375000003Q25.499508,2.3794486375,24.7603,3.1187155275L20.818043,7.0609569375ZM22.5,13.5003051375L25.757401,13.5003051375Q26.378656,13.5003051375,26.818083,13.0609150375L29.473171,10.4058380375L27.275646,9.673309337500001Q27.109962,9.6180801375,26.961397,9.5262613375Q26.812834,9.4344425375,26.689339,9.310947437500001Q26.565845,9.1874528375,26.474026,9.038888437499999Q26.382208,8.890324637500001,26.326979,8.7246389375L25.594475,6.527174237500001L22.939358,9.1822815375Q22.5,9.6216044375,22.5,10.2429342375L22.5,13.5003051375ZM9.5147209,9.5150108375Q13.0294399,6.0002889375,18,6.0002889375L18,5.9999890375Q18.073676,5.9999890375,18.146997,5.9927677374999995Q18.220318,5.9855461375,18.292576,5.9711725375Q18.364837,5.9567992375,18.43534,5.9354124375Q18.505842,5.9140255375,18.573909,5.8858310375Q18.641977,5.8576367375,18.706953,5.8229063375Q18.771929,5.7881758375,18.833187000000002,5.7472438375Q18.894447,5.7063120375,18.951399000000002,5.6595728375Q19.008350999999998,5.6128335375,19.060448,5.5607370375Q19.112545,5.5086405375,19.159285,5.4516885375Q19.206023000000002,5.3947365375,19.246954000000002,5.3334775375Q19.287886999999998,5.2722185375,19.322617,5.2072425375Q19.357347,5.1422665375,19.385542,5.0741992375Q19.413738000000002,5.0061318875000005,19.435125,4.9356288275Q19.456512,4.8651257775,19.470883999999998,4.7928658675Q19.485258,4.7206060275,19.492479,4.6472852275Q19.499701,4.5739644775,19.499701,4.5002889675Q19.499701,4.4266134475,19.492479,4.3532926475Q19.485258,4.2799718875,19.470883999999998,4.2077119975Q19.456512,4.1354521145,19.435125,4.0649490133Q19.413738000000002,3.9944459195,19.385542,3.9263786075000002Q19.357347,3.8583112675,19.322618,3.7933352575Q19.287886999999998,3.7283592175,19.246954000000002,3.6671002775Q19.206023000000002,3.6058412775,19.159284,3.5488892775Q19.112545,3.4919373375,19.060448,3.4398409174999998Q19.008350999999998,3.3877444275,18.951399000000002,3.3410051474999998Q18.894447,3.2942658675,18.833187000000002,3.2533339875Q18.771929,3.2124019875,18.706953,3.1776716074999998Q18.641977,3.1429411775,18.573909,3.1147468075Q18.505842,3.0865523775,18.435339,3.0651655375Q18.364837,3.0437786375,18.292576,3.0294052375Q18.220318,3.0150318375,18.146996,3.0078103375Q18.073676,3.0005889375,18,3.0005889375L18,3.0002889374999997Q11.7867985,3.0002889374999997,7.3934,7.3936917375Q3.0000007,11.7870950375,3.0000019,18.000305937500002Q3,24.2135429375,7.3934016,28.6069299375Q11.786787499999999,33.0003009375,18,33.0003009375Q24.213247,33.000302937499995,28.606623,28.6069299375Q33,24.2135539375,33,18.0003069375L32.999701,18.0003069375Q32.999702,17.926631937499998,32.992479,17.8533119375Q32.985256,17.7799889375,32.970882,17.7077279375Q32.956511,17.6354689375,32.935123000000004,17.5649659375Q32.913736,17.4944629375,32.88554,17.4263949375Q32.857346,17.3583279375,32.822617,17.2933519375Q32.787886,17.228375937499997,32.746952,17.167116937499998Q32.706022000000004,17.105857937499998,32.659285,17.048905937500002Q32.612545,16.991954937499997,32.560448,16.9398579375Q32.508352,16.887761937500002,32.451398999999995,16.8410229375Q32.394447,16.7942829375,32.333186999999995,16.753349937499998Q32.271930999999995,16.7124199375,32.206953,16.6776889375Q32.141977,16.6429579375,32.073908,16.6147629375Q32.00584,16.586569937500002,31.935337,16.565182937499998Q31.864836,16.543796937499998,31.792576,16.5294229375Q31.720318,16.515049937500002,31.646996,16.5078289375Q31.573677,16.500606937500002,31.5,16.500606937500002Q31.426325,16.500606937500002,31.353004,16.5078279375Q31.279682,16.515049937500002,31.207422,16.5294229375Q31.135162,16.543796937499998,31.064659,16.565183937500002Q30.994156,16.586569937500002,30.926086,16.6147629375Q30.858021,16.6429579375,30.793045,16.6776889375Q30.728069,16.7124199375,30.666809,16.753349937499998Q30.605553,16.7942829375,30.548599,16.8410229375Q30.491648,16.887761937500002,30.43955,16.9398579375Q30.387455,16.991954937499997,30.340717,17.048905937500002Q30.293976,17.105857937499998,30.253042,17.167116937499998Q30.212111,17.228375937499997,30.177382,17.2933509375Q30.142651,17.3583279375,30.114454,17.426393937500002Q30.086262,17.4944619375,30.064875,17.5649659375Q30.043488,17.6354689375,30.029114,17.7077279375Q30.014742,17.7799889375,30.007521,17.8533099375Q30.000299,17.926631937499998,30.000299,18.000305937500002L30,18.0003069375Q30,22.9709129375,26.485304,26.4856069375Q22.970608,30.0003029375,18,30.0003009375Q13.0294247,30.0003009375,9.5147185,26.4856069375Q6,22.9708999375,6.0000019,18.000305937500002Q6.0000014,13.0297336375,9.5147209,9.5150108375ZM16.199384000000002,12.2738580375Q16.312876,12.2382135375,16.419328,12.1851234375Q16.525779999999997,12.1320324375,16.622529999999998,12.0628223375Q16.719281000000002,11.9936132375,16.803911,11.910017037500001Q16.888542,11.8264203375,16.958935,11.730526937499999Q17.029328,11.6346345375,17.083724,11.5288438375Q17.138120999999998,11.4230528375,17.175158,11.3100085375Q17.212195,11.196965237499999,17.230947999999998,11.0794963375Q17.249701,10.9620266375,17.249701,10.8430695375Q17.249701,10.7693939375,17.242479,10.6960735375Q17.235258,10.6227522375,17.220883,10.5504922375Q17.206511,10.4782323375,17.185123,10.407729637500001Q17.163736,10.337226837500001,17.135542,10.2691593375Q17.107347,10.2010922375,17.072618,10.136116037499999Q17.037888000000002,10.071140337500001,16.996955,10.0098810375Q16.956024,9.9486222375,16.909285,9.8916702375Q16.862545,9.834718237499999,16.810448,9.7826213375Q16.758352000000002,9.7305250375,16.7014,9.6837859375Q16.644447,9.6370463375,16.583187000000002,9.596114137499999Q16.521929,9.555182437500001,16.456953,9.520452537499999Q16.391977,9.4857216375,16.323909,9.457526637499999Q16.255842,9.429332737500001,16.185339,9.4079456375Q16.114836,9.3865594375,16.042576,9.3721857375Q15.970317,9.3578128375,15.896996,9.3505911375Q15.823676,9.3433699375,15.75,9.3433694375Q15.520024,9.3433694375,15.300616,9.4122815375L15.300527,9.4119954375Q9,11.3908729375,9,17.9997049375Q9,21.7276059375,11.6360393,24.3636529375Q14.2720842,26.9997059375,18,26.9997059375Q24.609138,26.9997059375,26.587889,20.6988299375L26.587603,20.6987399375Q26.6565,20.4793549375,26.6565,20.2494049375Q26.6565,20.1757299375,26.649277,20.1024089375Q26.642056,20.0290869375,26.627682,19.9568269375Q26.61331,19.8845669375,26.591923,19.814063937500002Q26.570536,19.7435609375,26.542339,19.6754929375Q26.514145,19.6074259375,26.479416,19.542449937500002Q26.444685,19.4774739375,26.403753,19.4162139375Q26.362822,19.3549559375,26.316082,19.2980039375Q26.269344,19.2410529375,26.217247,19.1889549375Q26.16515,19.1368599375,26.1082,19.0901199375Q26.051247,19.0433819375,25.989988,19.0024489375Q25.92873,18.9615169375,25.863754,18.9267859375Q25.798779,18.8920569375,25.730709,18.8638609375Q25.662643,18.8356689375,25.59214,18.8142819375Q25.521637,18.7928939375,25.449375,18.778520937499998Q25.377117,18.7641479375,25.303799,18.7569259375Q25.230476,18.7497039375,25.156799,18.7497039375Q25.037842,18.7497059375,24.920368,18.768460937500002Q24.802898,18.7872149375,24.68985,18.8242539375Q24.576805,18.8612949375,24.471012,18.915692937499998Q24.365219,18.9700919375,24.269325,19.0404869375Q24.173431,19.1108859375,24.089834,19.195519937500002Q24.006237,19.2801549375,23.937027,19.376908937499998Q23.867819,19.4736649375,23.81473,19.5801199375Q23.761639,19.6865769375,23.725996,19.800069937499998L23.72571,19.799979937499998Q22.406811,23.9997059375,18,23.9997059375Q15.514729,23.9997059375,13.7573624,22.2423339375Q12,20.4849659375,12,17.9997049375Q12,13.5931205375,16.199472999999998,12.2741432375L16.199384000000002,12.2738580375Z" fill-rule="evenodd" fill="#222E3D" fill-opacity="1"/></g></g></svg>