<svg xmlns="http://www.w3.org/2000/svg" xmlns:xlink="http://www.w3.org/1999/xlink" fill="none" version="1.1" width="36" height="36" viewBox="0 0 36 36"><defs><clipPath id="master_svg0_177_4349"><rect x="0" y="0" width="36" height="36" rx="0"/></clipPath></defs><g clip-path="url(#master_svg0_177_4349)"><g><path d="M19.500007,2.9999932L18,3Q11.7868009,3,7.3934004,7.3934Q3.0000012,11.7867994,3.0000019,18Q3,24.213236,7.3934016,28.606625Q11.2467375,32.459949,16.499993,32.933615L16.499993,33.000008L18,33L19.500007,33.000008L19.500007,32.933615Q24.753294,32.459951000000004,28.606623,28.606625Q32.459955,24.753294,32.933617,19.500007L33.000008,19.500007L33,18L33.000008,16.499993L32.933615,16.499993Q32.459949,11.2467375,28.606625,7.3934016Q24.753286,3.54005218,19.500007,3.0663866L19.500007,2.9999932ZM12.6901255,7.1991072Q10.9765096,8.052931300000001,9.5147209,9.51472Q6.5425992,12.4868422,6.0837673,16.5L10.5315189,16.5Q10.743853999999999,11.541123899999999,12.386641000000001,7.844852899999999Q12.5352726,7.510433,12.6901255,7.1991072ZM13.5344429,16.5Q13.7368031,12.1936331,15.128076,9.0632682Q16.489527000000002,6.0000014,18,6.0000019Q19.51044,6.0000012,20.871902,9.063271499999999Q22.263193,12.1936564,22.465557,16.5L13.5344429,16.5ZM10.531518,19.5L6.0837657,19.5Q6.542593999999999,23.513187,9.5147185,26.485302Q10.9765038,27.947083,12.6901188,28.800901Q12.5352612,28.489565,12.386642,28.155172Q10.7438512,24.458906,10.531518,19.5ZM13.5344419,19.5L22.465557,19.5Q22.263197,23.806376,20.871904,26.93675Q19.510447,30,18,30Q16.489521,30,15.128075,26.936754Q13.7367992,23.806395,13.5344419,19.5ZM23.309841,28.800932Q23.464703,28.48959,23.613333,28.155176Q25.256144,24.458887,25.468481,19.5L29.916237,19.5Q29.457413,23.513195,26.485304,26.485302Q25.023497,27.947109,23.309841,28.800932ZM29.916235,16.5Q29.457407,12.4868317,26.485302,9.5147185Q25.023491,8.0529027,23.309834,7.1990742999999995Q23.464697,7.5104179,23.613335,7.8448496Q25.256142,11.5411429,25.468481,16.5L29.916235,16.5Z" fill-rule="evenodd" fill="#222E3D" fill-opacity="1"/></g></g></svg>