<svg xmlns="http://www.w3.org/2000/svg" xmlns:xlink="http://www.w3.org/1999/xlink" fill="none" version="1.1" width="32" height="32" viewBox="0 0 32 32"><defs><clipPath id="master_svg0_169_1732"><rect x="0" y="0" width="32" height="32" rx="0"/></clipPath></defs><g clip-path="url(#master_svg0_169_1732)"><g><g><path d="M23.65,7C23.65,7,8.3499999,7,8.3499999,7C7.99195993,7,7.6485800699999995,7.14223006,7.39541006,7.39541006C7.14223006,7.6485800699999995,7,7.99195993,7,8.3499999C7,8.3499999,7,23.65,7,23.65C7,24.007999,7.14223006,24.3514,7.39541006,24.604601C7.6485800699999995,24.857801,7.99195993,25,8.3499999,25C8.3499999,25,23.65,25,23.65,25C24.007999,25,24.3514,24.857801,24.604601,24.604601C24.857801,24.3514,25,24.007999,25,23.65C25,23.65,25,8.3499999,25,8.3499999C25,7.99195993,24.857801,7.6485800699999995,24.604601,7.39541006C24.3514,7.14223006,24.007999,7,23.65,7ZM12.399999600000001,22.299999C12.399999600000001,22.299999,9.6999998,22.299999,9.6999998,22.299999C9.6999998,22.299999,9.6999998,14.1999998,9.6999998,14.1999998C9.6999998,14.1999998,12.399999600000001,14.1999998,12.399999600000001,14.1999998C12.399999600000001,14.1999998,12.399999600000001,22.299999,12.399999600000001,22.299999ZM11.0500002,12.625C10.7405603,12.6161599,10.4406002,12.5163198,10.1875801,12.3379698C9.9345601,12.1596198,9.7396998,11.910659800000001,9.6273699,11.6222C9.5150299,11.333740200000001,9.4901903,11.0185699,9.5559502,10.7160702C9.6217003,10.4135802,9.7751498,10.1371601,9.9970999,9.92138C10.2190599,9.70559,10.4996798,9.5599899,10.8039098,9.50278C11.108139999999999,9.44556,11.4224801,9.47927,11.7076602,9.599689999999999C11.992840300000001,9.720099900000001,12.2362194,9.92189,12.407369599999999,10.1798301C12.5785298,10.4377801,12.6698699,10.7404401,12.6700001,11.0500002C12.66289,11.47331,12.4884996,11.8766003,12.1849499,12.17173C11.8813901,12.4668503,11.47335,12.629819900000001,11.0500002,12.625ZM22.299999,22.299999C22.299999,22.299999,19.6,22.299999,19.6,22.299999C19.6,22.299999,19.6,18.034,19.6,18.034C19.6,16.7560005,19.059998999999998,16.2969999,18.358,16.2969999C18.1522,16.3106995,17.9511,16.3649006,17.7663,16.4566002C17.5815,16.5482006,17.416600000000003,16.6754999,17.281100000000002,16.8310003C17.145699999999998,16.9865999,17.0422,17.1674,16.9768,17.363C16.911399799999998,17.558599,16.885299699999997,17.7652,16.8999996,17.971C16.8954992,18.012899,16.8954992,18.0551,16.8999996,18.097C16.8999996,18.097,16.8999996,22.299999,16.8999996,22.299999C16.8999996,22.299999,14.1999998,22.299999,14.1999998,22.299999C14.1999998,22.299999,14.1999998,14.1999998,14.1999998,14.1999998C14.1999998,14.1999998,16.8100004,14.1999998,16.8100004,14.1999998C16.8100004,14.1999998,16.8100004,15.3699999,16.8100004,15.3699999C17.0733,14.969500100000001,17.435000000000002,14.643300100000001,17.860500000000002,14.4226999C18.286,14.2020998,18.761,14.0943995,19.240000000000002,14.1099997C20.634999999999998,14.1099997,22.264,14.8840003,22.264,17.404C22.264,17.404,22.299999,22.299999,22.299999,22.299999Z" fill="#929292" fill-opacity="1"/></g></g></g></svg>