<svg xmlns="http://www.w3.org/2000/svg" xmlns:xlink="http://www.w3.org/1999/xlink" fill="none" version="1.1" width="188" height="40" viewBox="0 0 188 40"><defs><clipPath id="master_svg0_177_5466/223_3124"><rect x="0" y="0" width="188" height="40" rx="20"/></clipPath><clipPath id="master_svg1_177_5466/223_3128"><rect x="12" y="8" width="24" height="24" rx="0"/></clipPath></defs><g clip-path="url(#master_svg0_177_5466/223_3124)"><rect x="0" y="0" width="188" height="40" rx="20" fill="#FFFFFF" fill-opacity="0.05000000074505806"/><g clip-path="url(#master_svg1_177_5466/223_3128)"><g><path d="M29.56520099320984,11.25L32.53190099320984,11.25L26.05049999320984,18.662799800000002L33.67530099320984,28.75L27.70519999320984,28.75L23.02910019320984,22.632199999999997L17.67866989320984,28.75L14.710170033209838,28.75L21.64263989320984,20.821200400000002L14.328119993209839,11.25L20.449859393209838,11.25L24.67659999320984,16.8419199L29.56520099320984,11.25ZM28.52399999320984,26.973101L30.167899993209836,26.973101L19.55662039320984,12.9335899L17.79256009320984,12.9335899L28.52399999320984,26.973101Z" fill="#FFFFFF" fill-opacity="1"/></g></g><g><path d="M50.237915,29.261719Q48.4681396,29.261719,47.083252,28.770142Q45.6983643,28.278564,44.7370605,27.337402Q43.7758789,26.396362,43.277832000000004,25.035034Q42.77978516,23.673706,42.77978516,21.939453Q42.77978516,20.263306,43.2709961,18.901854999999998Q43.7623291,17.5404053,44.7089844,16.5654297Q45.6556396,15.590332,47.025268600000004,15.065795900000001Q48.395019500000004,14.5411377,50.1499023,14.5411377Q51.8118896,14.5411377,53.11731,15.049072299999999Q54.422729000000004,15.5570068,55.334961,16.4619141Q56.247314,17.366821299999998,56.724365,18.567505Q57.201538,19.768188000000002,57.201538,21.14978Q57.201538,22.091309000000003,57.045654,22.927612Q56.889770999999996,23.763916000000002,56.533813,24.408081Q56.177856,25.052124,55.586548,25.421509Q54.995239,25.790771,54.12207,25.790771Q53.621582000000004,25.790771,53.16272,25.647949Q52.703857,25.505005,52.390136999999996,25.21167Q52.076538,24.918335,52.005493,24.475952L51.948730499999996,24.475952Q51.741333,25.028442,51.1588135,25.401245Q50.576293899999996,25.774048,49.664794900000004,25.774048Q48.6055908,25.774048,47.8675537,25.271118Q47.1296387,24.768066,46.7442627,23.887451Q46.3590088,23.006714000000002,46.3590088,21.868896Q46.3590088,20.742554,46.789794900000004,19.879761000000002Q47.2207031,19.016846,47.9804688,18.528686999999998Q48.740356399999996,18.040527,49.7163086,18.040527Q50.4803467,18.040527,51.0177002,18.317505Q51.5551758,18.594482,51.776855499999996,18.977660999999998L51.8499756,18.977660999999998L51.8499756,18.222412L53.341064,18.222412L53.341064,23.447998Q53.341064,23.867554,53.541748,24.126953Q53.742554,24.38623,54.146361999999996,24.38623Q54.662109,24.38623,54.960693,24.047119Q55.259399,23.708008,55.388672,23.011963Q55.518066,22.315796,55.518066,21.24353Q55.518066,20.135376,55.184448,19.198608Q54.850952,18.261841,54.187256,17.5689697Q53.52356,16.8760986,52.530518,16.4935303Q51.5374756,16.1109619,50.2207031,16.1109619Q48.8527832,16.1109619,47.7949219,16.5067139Q46.7370605,16.9023438,46.010131799999996,17.6536865Q45.2833252,18.404907,44.9082031,19.482056Q44.5332031,20.559082,44.5332031,21.921387Q44.5332031,23.302124,44.9107666,24.375244Q45.2883301,25.448364,46.0308838,26.185181Q46.7734375,26.922119,47.8583984,27.302246Q48.943481399999996,27.682373,50.3583984,27.682373Q51.007080099999996,27.682373,51.6019287,27.579834Q52.196899,27.477417,52.676392,27.335205Q53.156006,27.193115,53.447388000000004,27.077881L53.977661,28.529663Q53.603271,28.699585,53.013672,28.869751Q52.424072,29.039917,51.709106399999996,29.150757Q50.9941406,29.261719,50.237915,29.261719ZM49.8344727,24.25769Q50.509643600000004,24.25769,50.943481399999996,23.98291Q51.377319299999996,23.708008,51.588623,23.16687Q51.7999268,22.62561,51.7999268,21.830811Q51.7999268,21.023682,51.5787354,20.536743Q51.357666,20.049805,50.923706100000004,19.831055Q50.489868200000004,19.612305,49.8566895,19.612305Q49.2484131,19.612305,48.817627,19.897705000000002Q48.3868408,20.183104999999998,48.1594238,20.681885Q47.932006799999996,21.180664,47.932006799999996,21.828369000000002Q47.932006799999996,22.51062,48.1326904,23.062621999999998Q48.3334961,23.614624,48.7553711,23.936157Q49.1772461,24.25769,49.8344727,24.25769ZM64.160645,26.159668Q62.554321,26.159668,61.339721999999995,25.43103Q60.125122000000005,24.702393,59.44458,23.362427Q58.764160000000004,22.022339000000002,58.764160000000004,20.192505Q58.764160000000004,18.320801,59.46228,16.9797363Q60.160522,15.6385498,61.367676,14.9191895Q62.574951,14.199707,64.09973099999999,14.199707Q65.062866,14.199707,65.897339,14.4814453Q66.731934,14.7631836,67.386353,15.284423799999999Q68.04089400000001,15.805541999999999,68.460815,16.5192871Q68.880737,17.2330322,69.013306,18.093384L66.888672,18.093384Q66.751953,17.6235352,66.503906,17.2504883Q66.255859,16.8773193,65.904541,16.6116943Q65.553223,16.3459473,65.108154,16.2067871Q64.66308599999999,16.067627,64.12951699999999,16.067627Q63.179199,16.067627,62.438477,16.5462646Q61.697876,17.0249023,61.27771,17.9431152Q60.857544000000004,18.861206,60.857544000000004,20.17749Q60.857544000000004,21.489013999999997,61.276245,22.407227Q61.695068,23.325439,62.441406,23.808594Q63.187743999999995,24.291748,64.175293,24.291748Q65.062012,24.291748,65.717651,23.947266Q66.373291,23.602660999999998,66.73071300000001,22.971069Q67.088257,22.339478,67.088257,21.483643L67.575684,21.556641L64.39660599999999,21.556641L64.39660599999999,19.917236000000003L69.115601,19.917236000000003L69.115601,21.313354Q69.115601,22.802856,68.476196,23.889893Q67.83691400000001,24.976929,66.719849,25.568359Q65.602783,26.159668,64.160645,26.159668ZM73.450684,26.175415Q72.620605,26.175415,71.958496,25.878296Q71.296387,25.581055,70.91333,24.997559Q70.530396,24.414062,70.530396,23.556519Q70.530396,22.821533000000002,70.806152,22.341431Q71.082031,21.861328,71.554565,21.573853Q72.027222,21.286377,72.620728,21.138794Q73.214355,20.991089000000002,73.84899899999999,20.924194Q74.61352500000001,20.839354999999998,75.08459500000001,20.776123Q75.555786,20.712769,75.776489,20.573975Q75.997314,20.435059000000003,75.997314,20.141602L75.997314,20.098145000000002Q75.997314,19.675049,75.822998,19.379517Q75.64868200000001,19.083862,75.310059,18.924927Q74.971558,18.765991,74.47473099999999,18.765991Q73.971436,18.765991,73.60022000000001,18.921630999999998Q73.22912600000001,19.077271,72.99646,19.329102Q72.763916,19.580811,72.662842,19.878296L70.778564,19.534912Q71.015259,18.755127,71.54394500000001,18.239136000000002Q72.072754,17.7230225,72.82519500000001,17.463378900000002Q73.577759,17.2036133,74.472534,17.2036133Q75.108154,17.2036133,75.73779300000001,17.3552246Q76.36743200000001,17.5067139,76.883179,17.8500977Q77.399048,18.193359,77.70910599999999,18.765746999999998Q78.01928699999999,19.338135,78.01928699999999,20.184326L78.01928699999999,26L76.077515,26L76.077515,24.799805L76.000732,24.799805Q75.809692,25.171509,75.469604,25.484985Q75.129639,25.798462,74.629761,25.986938Q74.130005,26.175415,73.450684,26.175415ZM73.96740700000001,24.671509Q74.598022,24.671509,75.054688,24.424683Q75.51147499999999,24.177856,75.76001,23.767944Q76.008545,23.358032,76.008545,22.875366L76.008545,21.856811999999998Q75.909424,21.936157,75.680054,22.003906Q75.450806,22.071533000000002,75.161011,22.125244000000002Q74.87133800000001,22.178832999999997,74.587891,22.218628000000002Q74.30444299999999,22.258301,74.095215,22.286499Q73.64209,22.346190999999997,73.27771,22.48938Q72.91333,22.632446,72.703247,22.884155Q72.493286,23.135863999999998,72.493286,23.534546Q72.493286,23.905518,72.683472,24.158447Q72.873779,24.411377,73.2052,24.541504Q73.536743,24.671509,73.96740700000001,24.671509ZM84.199097,17.319457999999997L84.199097,18.909912L79.223755,18.909912L79.223755,17.319457999999997L84.199097,17.319457999999997ZM80.48547400000001,15.222168L82.50988799999999,15.222168L82.50988799999999,23.550781Q82.50988799999999,24.020264,82.710327,24.23645Q82.910889,24.452515,83.379761,24.452515Q83.521484,24.452515,83.753174,24.423584Q83.984985,24.394531,84.127441,24.366699L84.411865,25.935791Q84.092163,26.027832,83.745117,26.066284Q83.398071,26.104736,83.071777,26.104736Q81.816895,26.104736,81.151123,25.493164Q80.48547400000001,24.88147,80.48547400000001,23.737427L80.48547400000001,15.222168ZM87.789429,20.933838L87.789429,26L85.765015,26L85.765015,14.359375L87.764404,14.359375L87.764404,19.472046L87.532471,19.472046Q87.898315,18.343018,88.612427,17.7733154Q89.32666,17.2036133,90.39563,17.2036133Q91.29162600000001,17.2036133,91.963867,17.5869141Q92.63623,17.9702148,93.009033,18.703979Q93.38183599999999,19.437744000000002,93.38183599999999,20.491821L93.38183599999999,26L91.353027,26L91.353027,20.803345Q91.353027,19.921387,90.89977999999999,19.426147Q90.446533,18.930785999999998,89.64819299999999,18.930785999999998Q89.112671,18.930785999999998,88.69165000000001,19.163574Q88.27063,19.396362,88.030029,19.842529Q87.789429,20.288696,87.789429,20.933838ZM99.32556199999999,26.17749Q98.02063,26.17749,97.074097,25.624756Q96.127686,25.072021,95.618408,24.067993Q95.10913099999999,23.063965,95.10913099999999,21.708374Q95.10913099999999,20.371338,95.614502,19.357056Q96.119873,18.342651,97.040649,17.7720947Q97.961548,17.201416000000002,99.197998,17.201416000000002Q100.010254,17.201416000000002,100.731689,17.4658203Q101.453125,17.7302246,102.00708,18.271362Q102.561035,18.8125,102.876465,19.640380999999998Q103.191895,20.468262,103.191895,21.597656L103.191895,22.220581L96.04821799999999,22.220581L96.04821799999999,20.843871999999998L102.181152,20.843871999999998L101.239868,21.248291000000002Q101.239868,20.511963,101.008545,19.959229Q100.777222,19.406371999999998,100.326416,19.098877Q99.87561,18.79126,99.211426,18.79126Q98.548096,18.79126,98.07959,19.103271Q97.61120600000001,19.415283000000002,97.36438,19.941406Q97.117554,20.467407,97.117554,21.119385L97.117554,22.063599Q97.117554,22.878418,97.395264,23.44397Q97.67297400000001,24.009399,98.178223,24.299194Q98.683472,24.588989,99.35498,24.588989Q99.805908,24.588989,100.17211900000001,24.459351Q100.53833,24.32959,100.799927,24.075073Q101.061646,23.820435,101.197266,23.450317L103.06066899999999,23.793579Q102.85803200000001,24.506836,102.346191,25.043457Q101.834473,25.580078,101.067871,25.878784Q100.30139199999999,26.17749,99.32556199999999,26.17749ZM104.890015,26L104.890015,17.319457999999997L106.849609,17.319457999999997L106.849609,18.771118L106.935791,18.771118Q107.173706,18.016846,107.747314,17.6107178Q108.321045,17.2044678,109.077026,17.2044678Q109.252686,17.2044678,109.45813,17.2200928Q109.663574,17.235595699999998,109.807739,17.261108399999998L109.807739,19.11499Q109.685059,19.076904,109.404663,19.04541Q109.124268,19.013794,108.854248,19.013794Q108.299683,19.013794,107.857788,19.252686Q107.415894,19.491577,107.165161,19.918091Q106.914429,20.344604,106.914429,20.914551L106.914429,26L104.890015,26ZM115.367676,26.181396Q114.007202,26.181396,113.004639,25.753662Q112.002075,25.325806,111.442749,24.511108Q110.883545,23.696410999999998,110.841064,22.535034L112.8927,22.535034Q112.939209,23.156005999999998,113.267822,23.571655Q113.596436,23.987305,114.139771,24.194824Q114.683105,24.402222,115.354248,24.402222Q116.046875,24.402222,116.574707,24.192627Q117.102539,23.983032,117.401245,23.603149000000002Q117.699951,23.223267,117.699951,22.723022Q117.699951,22.272216999999998,117.442017,21.974487Q117.184082,21.676758,116.71106,21.469971Q116.238037,21.263184000000003,115.588745,21.103394L114.274658,20.765259Q112.788086,20.389648,111.96814,19.626831Q111.148193,18.863892,111.148193,17.6323242Q111.148193,16.601196299999998,111.702271,15.8284912Q112.256348,15.055786099999999,113.217896,14.6278076Q114.179443,14.199707,115.404541,14.199707Q116.654663,14.199707,117.591064,14.631835899999999Q118.527588,15.0639648,119.05603,15.828002900000001Q119.584595,16.592041000000002,119.608643,17.5874023L117.593872,17.5874023Q117.516846,16.8182373,116.921753,16.3944092Q116.32666,15.970459,115.377075,15.970459Q114.723877,15.970459,114.246216,16.1696777Q113.768555,16.3687744,113.511719,16.7166748Q113.254883,17.0644531,113.254883,17.5109863Q113.254883,17.9886475,113.545532,18.297729Q113.836182,18.606811999999998,114.2948,18.797485Q114.75354,18.988159,115.252563,19.111694L116.351196,19.389038Q117.025879,19.547729,117.6427,19.812378000000002Q118.259521,20.076904,118.741699,20.47168Q119.223877,20.866455000000002,119.502197,21.421387Q119.78064,21.976318,119.78064,22.722168Q119.78064,23.752319,119.256348,24.532837Q118.732056,25.313232,117.744873,25.747314Q116.757812,26.181396,115.367676,26.181396ZM125.636597,17.319457999999997L125.636597,18.909912L120.661255,18.909912L120.661255,17.319457999999997L125.636597,17.319457999999997ZM121.922974,15.222168L123.947388,15.222168L123.947388,23.550781Q123.947388,24.020264,124.147827,24.23645Q124.348389,24.452515,124.817261,24.452515Q124.958984,24.452515,125.190674,24.423584Q125.422485,24.394531,125.564941,24.366699L125.849365,25.935791Q125.529663,26.027832,125.182617,26.066284Q124.835571,26.104736,124.509277,26.104736Q123.254395,26.104736,122.588623,25.493164Q121.922974,24.88147,121.922974,23.737427L121.922974,15.222168ZM129.653809,26.175415Q128.82373,26.175415,128.161621,25.878296Q127.499512,25.581055,127.116455,24.997559Q126.733521,24.414062,126.733521,23.556519Q126.733521,22.821533000000002,127.009277,22.341431Q127.285156,21.861328,127.75769,21.573853Q128.230347,21.286377,128.82385299999999,21.138794Q129.41748,20.991089000000002,130.052124,20.924194Q130.81664999999998,20.839354999999998,131.28771999999998,20.776123Q131.758911,20.712769,131.979614,20.573975Q132.20043900000002,20.435059000000003,132.20043900000002,20.141602L132.20043900000002,20.098145000000002Q132.20043900000002,19.675049,132.02612299999998,19.379517Q131.851807,19.083862,131.513184,18.924927Q131.17468300000002,18.765991,130.67785600000002,18.765991Q130.17456099999998,18.765991,129.80334499999998,18.921630999999998Q129.432251,19.077271,129.199585,19.329102Q128.967041,19.580811,128.865967,19.878296L126.981689,19.534912Q127.218384,18.755127,127.74707,18.239136000000002Q128.275879,17.7230225,129.02832,17.463378900000002Q129.78088400000001,17.2036133,130.675659,17.2036133Q131.311279,17.2036133,131.940918,17.3552246Q132.570557,17.5067139,133.08630399999998,17.8500977Q133.602173,18.193359,133.91223100000002,18.765746999999998Q134.22241200000002,19.338135,134.22241200000002,20.184326L134.22241200000002,26L132.28064,26L132.28064,24.799805L132.203857,24.799805Q132.01281699999998,25.171509,131.672729,25.484985Q131.332764,25.798462,130.832886,25.986938Q130.33312999999998,26.175415,129.653809,26.175415ZM130.17053199999998,24.671509Q130.80114700000001,24.671509,131.257812,24.424683Q131.71460000000002,24.177856,131.963135,23.767944Q132.21167,23.358032,132.21167,22.875366L132.21167,21.856811999999998Q132.112549,21.936157,131.88317899999998,22.003906Q131.653931,22.071533000000002,131.364136,22.125244000000002Q131.07446299999998,22.178832999999997,130.791016,22.218628000000002Q130.507568,22.258301,130.29834,22.286499Q129.845215,22.346190999999997,129.480835,22.48938Q129.116455,22.632446,128.906372,22.884155Q128.696411,23.135863999999998,128.696411,23.534546Q128.696411,23.905518,128.886597,24.158447Q129.076904,24.411377,129.408325,24.541504Q129.739868,24.671509,130.17053199999998,24.671509ZM136.327515,26L136.327515,17.319457999999997L138.287109,17.319457999999997L138.287109,18.771118L138.373291,18.771118Q138.61120599999998,18.016846,139.18481400000002,17.6107178Q139.758545,17.2044678,140.514526,17.2044678Q140.69018599999998,17.2044678,140.89562999999998,17.2200928Q141.10107399999998,17.235595699999998,141.245239,17.261108399999998L141.245239,19.11499Q141.122559,19.076904,140.842163,19.04541Q140.561768,19.013794,140.29174799999998,19.013794Q139.73718300000002,19.013794,139.295288,19.252686Q138.85339399999998,19.491577,138.602661,19.918091Q138.35192899999998,20.344604,138.35192899999998,20.914551L138.35192899999998,26L136.327515,26ZM141.911865,26L145.98572000000001,14.359375L148.63171,14.359375L152.77979,26L150.49304,26L148.43005,19.946533000000002Q148.12708,19.003906,147.79613999999998,17.8322754Q147.46521,16.6606445,147.06287,15.151001L147.51685,15.151001Q147.12341,16.6695557,146.80273,17.8500977Q146.48206,19.030518,146.19617,19.946533000000002L144.18628,26L141.911865,26ZM144.29016000000001,23.127319L144.29016000000001,21.445679L150.40186,21.445679L150.40186,23.127319L144.29016000000001,23.127319ZM157.41138,26.160278Q156.37682999999998,26.160278,155.56055,25.62854Q154.74426,25.09668,154.2782,24.093872Q153.81225999999998,23.091064,153.81225999999998,21.674927Q153.81225999999998,20.239624,154.28845,19.240479Q154.76465000000002,18.241211,155.57947000000001,17.7224121Q156.39441,17.2036133,157.40466,17.2036133Q158.15649000000002,17.2036133,158.64868,17.4511719Q159.14099,17.6987305,159.44214,18.053711Q159.74340999999998,18.408690999999997,159.90515,18.734741L159.98376000000002,18.734741L159.98376000000002,14.359375L162.00817999999998,14.359375L162.00817999999998,26L160.02393,26L160.02393,24.630981L159.90857,24.630981Q159.74255,24.964478,159.43506,25.317749Q159.12756000000002,25.671021,158.63611,25.915649Q158.14465,26.160278,157.41138,26.160278ZM157.953,24.491699Q158.61548,24.491699,159.07971,24.13623Q159.54395,23.780762,159.78687,23.144652999999998Q160.02979,22.508544999999998,160.02979,21.666016Q160.02979,20.817993,159.78906,20.192138999999997Q159.54846,19.566162,159.08411,19.218628000000002Q158.61987,18.871094,157.953,18.871094Q157.27697999999998,18.871094,156.81494,19.229736000000003Q156.35291,19.588379,156.11755,20.21814Q155.88232,20.8479,155.88232,21.666016Q155.88232,22.485596,156.11975,23.124512Q156.3573,23.763427999999998,156.82153,24.127563Q157.28589,24.491699,157.953,24.491699ZM167.41309,26.178467Q166.41003,26.178467,165.63257,25.886963Q164.8551,25.595459,164.36243000000002,25.035278Q163.86975,24.474976,163.72595,23.674683L165.63232,23.357544Q165.79626000000002,23.998291000000002,166.25134,24.315186Q166.70641999999998,24.63208,167.44507,24.63208Q168.19214,24.63208,168.62891000000002,24.333496Q169.0658,24.034912,169.0658,23.594604Q169.0658,23.215332,168.77478000000002,22.971436Q168.48376000000002,22.727539,167.89172000000002,22.601074L166.4137,22.283324999999998Q165.18176,22.018188000000002,164.57227,21.40979Q163.96289000000002,20.801270000000002,163.96289000000002,19.842896Q163.96289000000002,19.039673,164.40466,18.447144Q164.84656,17.8544922,165.63403,17.5284424Q166.42151,17.202270499999997,167.46251999999998,17.202270499999997Q168.45471,17.202270499999997,169.17432,17.4891357Q169.89404000000002,17.776001,170.33557,18.293091Q170.7771,18.810181,170.93323,19.510498L169.11792,19.824707Q168.9823,19.359496999999998,168.58826,19.03772Q168.19434,18.715942,167.49194,18.715942Q166.84546,18.715942,166.41797,18.998901Q165.9906,19.281738,165.9906,19.727173Q165.9906,20.106445,166.27673,20.353882Q166.56287,20.601196,167.21289000000002,20.743408000000002L168.6991,21.055298Q169.93872,21.319091999999998,170.5387,21.901123Q171.13867,22.483032,171.13867,23.404663Q171.13867,24.229736,170.66345,24.854126Q170.18835,25.478394,169.34839,25.828491Q168.50853999999998,26.178467,167.41309,26.178467Z" fill="#FFFFFF" fill-opacity="1"/></g><rect x="0.5" y="0.5" width="187" height="39" rx="19.5" fill-opacity="0" stroke-opacity="0.10000000149011612" stroke="#FFFFFF" fill="none" stroke-width="1"/></g></svg>