<svg xmlns="http://www.w3.org/2000/svg" xmlns:xlink="http://www.w3.org/1999/xlink" fill="none" version="1.1" width="142" height="40" viewBox="0 0 142 40"><defs><clipPath id="master_svg0_177_5466/223_3118"><rect x="0" y="0" width="142" height="40" rx="20"/></clipPath></defs><g clip-path="url(#master_svg0_177_5466/223_3118)"><rect x="0" y="0" width="142" height="40" rx="20" fill="#FFFFFF" fill-opacity="0.05000000074505806"/><g><g><path d="M31.65,11C31.65,11,16.3499999,11,16.3499999,11C15.99195993,11,15.64858007,11.14223006,15.39541006,11.39541006C15.14223006,11.64858007,15,11.99195993,15,12.3499999C15,12.3499999,15,27.65,15,27.65C15,28.007999,15.14223006,28.3514,15.39541006,28.604601C15.64858007,28.857801,15.99195993,29,16.3499999,29C16.3499999,29,31.65,29,31.65,29C32.007999,29,32.3514,28.857801,32.604601,28.604601C32.857800999999995,28.3514,33,28.007999,33,27.65C33,27.65,33,12.3499999,33,12.3499999C33,11.99195993,32.857800999999995,11.64858007,32.604601,11.39541006C32.3514,11.14223006,32.007999,11,31.65,11ZM20.3999996,26.299999C20.3999996,26.299999,17.6999998,26.299999,17.6999998,26.299999C17.6999998,26.299999,17.6999998,18.1999998,17.6999998,18.1999998C17.6999998,18.1999998,20.3999996,18.1999998,20.3999996,18.1999998C20.3999996,18.1999998,20.3999996,26.299999,20.3999996,26.299999ZM19.0500002,16.625C18.7405603,16.6161599,18.4406002,16.516319799999998,18.187580099999998,16.3379698C17.9345601,16.1596198,17.7396998,15.910659800000001,17.6273699,15.6222C17.515029900000002,15.333740200000001,17.490190300000002,15.0185699,17.555950199999998,14.7160702C17.6217003,14.4135802,17.7751498,14.1371601,17.9970999,13.92138C18.2190599,13.70559,18.4996798,13.5599899,18.8039098,13.50278C19.10814,13.44556,19.4224801,13.47927,19.7076602,13.599689999999999C19.9928403,13.720099900000001,20.2362194,13.92189,20.4073696,14.1798301C20.5785298,14.4377801,20.669869900000002,14.7404401,20.6700001,15.0500002C20.66289,15.47331,20.4884996,15.8766003,20.1849499,16.17173C19.8813901,16.4668503,19.47335,16.6298199,19.0500002,16.625ZM30.299999,26.299999C30.299999,26.299999,27.6,26.299999,27.6,26.299999C27.6,26.299999,27.6,22.034,27.6,22.034C27.6,20.7560005,27.059998999999998,20.2969999,26.358,20.2969999C26.1522,20.3106995,25.9511,20.3649006,25.7663,20.4566002C25.5815,20.5482006,25.416600000000003,20.6754999,25.281100000000002,20.8310003C25.145699999999998,20.9865999,25.0422,21.1674,24.9768,21.363C24.911399799999998,21.558599,24.885299699999997,21.7652,24.8999996,21.971C24.8954992,22.012899,24.8954992,22.0551,24.8999996,22.097C24.8999996,22.097,24.8999996,26.299999,24.8999996,26.299999C24.8999996,26.299999,22.1999998,26.299999,22.1999998,26.299999C22.1999998,26.299999,22.1999998,18.1999998,22.1999998,18.1999998C22.1999998,18.1999998,24.8100004,18.1999998,24.8100004,18.1999998C24.8100004,18.1999998,24.8100004,19.3699999,24.8100004,19.3699999C25.0733,18.9695001,25.435000000000002,18.6433001,25.860500000000002,18.422699899999998C26.286,18.2020998,26.761,18.0943995,27.240000000000002,18.1099997C28.634999999999998,18.1099997,30.264,18.8840003,30.264,21.404C30.264,21.404,30.299999,26.299999,30.299999,26.299999Z" fill="#FFFFFF" fill-opacity="1"/></g></g><g><path d="M48.176269500000004,26.159668Q46.5699463,26.159668,45.3553467,25.43103Q44.1407471,24.702393,43.4602051,23.362427Q42.77978516,22.022339000000002,42.77978516,20.192505Q42.77978516,18.320801,43.4779053,16.9797363Q44.1761475,15.6385498,45.3833008,14.9191895Q46.5905762,14.199707,48.115356399999996,14.199707Q49.0784912,14.199707,49.9129639,14.4814453Q50.7475586,14.7631836,51.4019775,15.284423799999999Q52.056519,15.805541999999999,52.47644,16.5192871Q52.896361999999996,17.2330322,53.028931,18.093384L50.9042969,18.093384Q50.7675781,17.6235352,50.5195312,17.2504883Q50.2714844,16.8773193,49.920166,16.6116943Q49.5688477,16.3459473,49.1237793,16.2067871Q48.6787109,16.067627,48.1451416,16.067627Q47.1948242,16.067627,46.4541016,16.5462646Q45.713501,17.0249023,45.293335,17.9431152Q44.8731689,18.861206,44.8731689,20.17749Q44.8731689,21.489013999999997,45.2918701,22.407227Q45.7106934,23.325439,46.4570312,23.808594Q47.2033691,24.291748,48.190917999999996,24.291748Q49.0776367,24.291748,49.7332764,23.947266Q50.388916,23.602660999999998,50.7463379,22.971069Q51.103881799999996,22.339478,51.103881799999996,21.483643L51.5913086,21.556641L48.412231399999996,21.556641L48.412231399999996,19.917236000000003L53.131226,19.917236000000003L53.131226,21.313354Q53.131226,22.802856,52.491821,23.889893Q51.8525391,24.976929,50.7354736,25.568359Q49.6184082,26.159668,48.176269500000004,26.159668ZM57.466309,26.175415Q56.63623,26.175415,55.974121,25.878296Q55.312011999999996,25.581055,54.928955,24.997559Q54.546020999999996,24.414062,54.546020999999996,23.556519Q54.546020999999996,22.821533000000002,54.821777,22.341431Q55.097656,21.861328,55.57019,21.573853Q56.042847,21.286377,56.636353,21.138794Q57.22998,20.991089000000002,57.864624,20.924194Q58.629149999999996,20.839354999999998,59.10022,20.776123Q59.571411,20.712769,59.792114,20.573975Q60.012939,20.435059000000003,60.012939,20.141602L60.012939,20.098145000000002Q60.012939,19.675049,59.838623,19.379517Q59.664307,19.083862,59.325683999999995,18.924927Q58.987183,18.765991,58.490356,18.765991Q57.987061,18.765991,57.615845,18.921630999999998Q57.244751,19.077271,57.012085,19.329102Q56.779541,19.580811,56.678467,19.878296L54.794189,19.534912Q55.030884,18.755127,55.55957,18.239136000000002Q56.088379,17.7230225,56.84082,17.463378900000002Q57.593384,17.2036133,58.488158999999996,17.2036133Q59.123779,17.2036133,59.753417999999996,17.3552246Q60.383057,17.5067139,60.898804,17.8500977Q61.414673,18.193359,61.724731,18.765746999999998Q62.034912,19.338135,62.034912,20.184326L62.034912,26L60.09314,26L60.09314,24.799805L60.016357,24.799805Q59.825317,25.171509,59.485229000000004,25.484985Q59.145264,25.798462,58.645386,25.986938Q58.14563,26.175415,57.466309,26.175415ZM57.983032,24.671509Q58.613647,24.671509,59.070312,24.424683Q59.527100000000004,24.177856,59.775635,23.767944Q60.02417,23.358032,60.02417,22.875366L60.02417,21.856811999999998Q59.925049,21.936157,59.695679,22.003906Q59.466431,22.071533000000002,59.176636,22.125244000000002Q58.886963,22.178832999999997,58.603516,22.218628000000002Q58.320068,22.258301,58.110839999999996,22.286499Q57.657714999999996,22.346190999999997,57.293335,22.48938Q56.928955,22.632446,56.718872,22.884155Q56.508911,23.135863999999998,56.508911,23.534546Q56.508911,23.905518,56.699097,24.158447Q56.889404,24.411377,57.220825,24.541504Q57.552368,24.671509,57.983032,24.671509ZM68.214722,17.319457999999997L68.214722,18.909912L63.23938,18.909912L63.23938,17.319457999999997L68.214722,17.319457999999997ZM64.501099,15.222168L66.525513,15.222168L66.525513,23.550781Q66.525513,24.020264,66.725952,24.23645Q66.926514,24.452515,67.395386,24.452515Q67.537109,24.452515,67.768799,24.423584Q68.00061,24.394531,68.143066,24.366699L68.42749,25.935791Q68.107788,26.027832,67.760742,26.066284Q67.413696,26.104736,67.087402,26.104736Q65.83252,26.104736,65.166748,25.493164Q64.501099,24.88147,64.501099,23.737427L64.501099,15.222168ZM71.805054,20.933838L71.805054,26L69.78064,26L69.78064,14.359375L71.780029,14.359375L71.780029,19.472046L71.548096,19.472046Q71.91394,18.343018,72.628052,17.7733154Q73.342285,17.2036133,74.411255,17.2036133Q75.30725100000001,17.2036133,75.979492,17.5869141Q76.651855,17.9702148,77.024658,18.703979Q77.39746099999999,19.437744000000002,77.39746099999999,20.491821L77.39746099999999,26L75.368652,26L75.368652,20.803345Q75.368652,19.921387,74.91540499999999,19.426147Q74.462158,18.930785999999998,73.66381799999999,18.930785999999998Q73.128296,18.930785999999998,72.707275,19.163574Q72.286255,19.396362,72.045654,19.842529Q71.805054,20.288696,71.805054,20.933838ZM83.34118699999999,26.17749Q82.036255,26.17749,81.089722,25.624756Q80.143311,25.072021,79.634033,24.067993Q79.12475599999999,23.063965,79.12475599999999,21.708374Q79.12475599999999,20.371338,79.630127,19.357056Q80.135498,18.342651,81.056274,17.7720947Q81.977173,17.201416000000002,83.213623,17.201416000000002Q84.025879,17.201416000000002,84.747314,17.4658203Q85.46875,17.7302246,86.022705,18.271362Q86.57666,18.8125,86.89209,19.640380999999998Q87.20752,20.468262,87.20752,21.597656L87.20752,22.220581L80.06384299999999,22.220581L80.06384299999999,20.843871999999998L86.196777,20.843871999999998L85.255493,21.248291000000002Q85.255493,20.511963,85.02417,19.959229Q84.792847,19.406371999999998,84.342041,19.098877Q83.891235,18.79126,83.227051,18.79126Q82.563721,18.79126,82.095215,19.103271Q81.62683100000001,19.415283000000002,81.380005,19.941406Q81.133179,20.467407,81.133179,21.119385L81.133179,22.063599Q81.133179,22.878418,81.410889,23.44397Q81.68859900000001,24.009399,82.193848,24.299194Q82.699097,24.588989,83.370605,24.588989Q83.821533,24.588989,84.18774400000001,24.459351Q84.553955,24.32959,84.815552,24.075073Q85.077271,23.820435,85.212891,23.450317L87.07629399999999,23.793579Q86.87365700000001,24.506836,86.361816,25.043457Q85.850098,25.580078,85.083496,25.878784Q84.31701699999999,26.17749,83.34118699999999,26.17749ZM88.90564,26L88.90564,17.319457999999997L90.865234,17.319457999999997L90.865234,18.771118L90.951416,18.771118Q91.18933100000001,18.016846,91.762939,17.6107178Q92.33667,17.2044678,93.09265099999999,17.2044678Q93.268311,17.2044678,93.473755,17.2200928Q93.679199,17.235595699999998,93.823364,17.261108399999998L93.823364,19.11499Q93.700684,19.076904,93.420288,19.04541Q93.139893,19.013794,92.869873,19.013794Q92.315308,19.013794,91.873413,19.252686Q91.43151900000001,19.491577,91.180786,19.918091Q90.930054,20.344604,90.930054,20.914551L90.930054,26L88.90564,26ZM99.383301,26.181396Q98.022827,26.181396,97.020264,25.753662Q96.01769999999999,25.325806,95.45837399999999,24.511108Q94.89917,23.696410999999998,94.856689,22.535034L96.90832499999999,22.535034Q96.954834,23.156005999999998,97.283447,23.571655Q97.612061,23.987305,98.155396,24.194824Q98.69873,24.402222,99.369873,24.402222Q100.0625,24.402222,100.59033199999999,24.192627Q101.11816400000001,23.983032,101.41687,23.603149000000002Q101.715576,23.223267,101.715576,22.723022Q101.715576,22.272216999999998,101.45764199999999,21.974487Q101.19970699999999,21.676758,100.726685,21.469971Q100.25366199999999,21.263184000000003,99.60437,21.103394L98.290283,20.765259Q96.80371099999999,20.389648,95.983765,19.626831Q95.16381799999999,18.863892,95.16381799999999,17.6323242Q95.16381799999999,16.601196299999998,95.717896,15.8284912Q96.271973,15.055786099999999,97.233521,14.6278076Q98.19506799999999,14.199707,99.420166,14.199707Q100.670288,14.199707,101.606689,14.631835899999999Q102.54321300000001,15.0639648,103.07165499999999,15.828002900000001Q103.60022000000001,16.592041000000002,103.624268,17.5874023L101.609497,17.5874023Q101.532471,16.8182373,100.937378,16.3944092Q100.342285,15.970459,99.39269999999999,15.970459Q98.739502,15.970459,98.261841,16.1696777Q97.78417999999999,16.3687744,97.527344,16.7166748Q97.270508,17.0644531,97.270508,17.5109863Q97.270508,17.9886475,97.56115700000001,18.297729Q97.85180700000001,18.606811999999998,98.31042500000001,18.797485Q98.769165,18.988159,99.26818800000001,19.111694L100.366821,19.389038Q101.041504,19.547729,101.65832499999999,19.812378000000002Q102.275146,20.076904,102.757324,20.47168Q103.239502,20.866455000000002,103.517822,21.421387Q103.796265,21.976318,103.796265,22.722168Q103.796265,23.752319,103.271973,24.532837Q102.747681,25.313232,101.760498,25.747314Q100.773438,26.181396,99.383301,26.181396ZM109.652222,17.319457999999997L109.652222,18.909912L104.67688,18.909912L104.67688,17.319457999999997L109.652222,17.319457999999997ZM105.93859900000001,15.222168L107.963013,15.222168L107.963013,23.550781Q107.963013,24.020264,108.163452,24.23645Q108.364014,24.452515,108.832886,24.452515Q108.974609,24.452515,109.206299,24.423584Q109.43811,24.394531,109.580566,24.366699L109.86499,25.935791Q109.545288,26.027832,109.198242,26.066284Q108.851196,26.104736,108.524902,26.104736Q107.27002,26.104736,106.604248,25.493164Q105.93859900000001,24.88147,105.93859900000001,23.737427L105.93859900000001,15.222168ZM113.669434,26.175415Q112.839355,26.175415,112.177246,25.878296Q111.515137,25.581055,111.13208,24.997559Q110.749146,24.414062,110.749146,23.556519Q110.749146,22.821533000000002,111.024902,22.341431Q111.300781,21.861328,111.773315,21.573853Q112.245972,21.286377,112.839478,21.138794Q113.433105,20.991089000000002,114.067749,20.924194Q114.832275,20.839354999999998,115.303345,20.776123Q115.774536,20.712769,115.995239,20.573975Q116.216064,20.435059000000003,116.216064,20.141602L116.216064,20.098145000000002Q116.216064,19.675049,116.041748,19.379517Q115.867432,19.083862,115.528809,18.924927Q115.190308,18.765991,114.693481,18.765991Q114.190186,18.765991,113.81897,18.921630999999998Q113.447876,19.077271,113.21521,19.329102Q112.982666,19.580811,112.881592,19.878296L110.997314,19.534912Q111.234009,18.755127,111.762695,18.239136000000002Q112.291504,17.7230225,113.043945,17.463378900000002Q113.796509,17.2036133,114.691284,17.2036133Q115.326904,17.2036133,115.956543,17.3552246Q116.586182,17.5067139,117.101929,17.8500977Q117.617798,18.193359,117.927856,18.765746999999998Q118.238037,19.338135,118.238037,20.184326L118.238037,26L116.296265,26L116.296265,24.799805L116.219482,24.799805Q116.028442,25.171509,115.688354,25.484985Q115.348389,25.798462,114.848511,25.986938Q114.348755,26.175415,113.669434,26.175415ZM114.186157,24.671509Q114.816772,24.671509,115.273438,24.424683Q115.730225,24.177856,115.97876,23.767944Q116.227295,23.358032,116.227295,22.875366L116.227295,21.856811999999998Q116.128174,21.936157,115.898804,22.003906Q115.669556,22.071533000000002,115.379761,22.125244000000002Q115.090088,22.178832999999997,114.806641,22.218628000000002Q114.523193,22.258301,114.313965,22.286499Q113.86084,22.346190999999997,113.49646,22.48938Q113.13208,22.632446,112.921997,22.884155Q112.712036,23.135863999999998,112.712036,23.534546Q112.712036,23.905518,112.902222,24.158447Q113.092529,24.411377,113.42395,24.541504Q113.755493,24.671509,114.186157,24.671509ZM120.34314,26L120.34314,17.319457999999997L122.302734,17.319457999999997L122.302734,18.771118L122.388916,18.771118Q122.626831,18.016846,123.200439,17.6107178Q123.77417,17.2044678,124.530151,17.2044678Q124.705811,17.2044678,124.911255,17.2200928Q125.116699,17.235595699999998,125.260864,17.261108399999998L125.260864,19.11499Q125.138184,19.076904,124.857788,19.04541Q124.577393,19.013794,124.307373,19.013794Q123.752808,19.013794,123.310913,19.252686Q122.869019,19.491577,122.618286,19.918091Q122.367554,20.344604,122.367554,20.914551L122.367554,26L120.34314,26Z" fill="#FFFFFF" fill-opacity="1"/></g><rect x="0.5" y="0.5" width="141" height="39" rx="19.5" fill-opacity="0" stroke-opacity="0.10000000149011612" stroke="#FFFFFF" fill="none" stroke-width="1"/></g></svg>