<svg width="60" height="60" viewBox="0 0 60 60" fill="none" xmlns="http://www.w3.org/2000/svg">
<g id="Monthly_Ad_Impressions">
<g id="Clip path group">
<mask id="mask0_1278_35739" style="mask-type:luminance" maskUnits="userSpaceOnUse" x="0" y="0" width="60" height="60">
<g id="master_svg16_75_3533">
<path id="Vector" d="M60 0H0V60H60V0Z" fill="white"/>
</g>
</mask>
<g mask="url(#mask0_1278_35739)">
<g id="Group">
<g id="Group_2">
<path id="Vector_2" d="M23 22.1171V38.0189C22.9997 39.1418 23.6035 40.1775 24.5806 40.7308C25.5577 41.2841 26.7569 41.2691 27.7197 40.6913L40.9704 32.7406C42.989 31.5306 42.989 28.605 40.9704 27.3949L27.7197 19.4442C26.7569 18.8664 25.5577 18.8513 24.5806 19.4047C23.6035 19.958 22.9997 20.9942 23 22.1171ZM37.9694 30.0677L26.8352 36.7484V23.3871L37.9694 30.0677Z" fill="#0077FD"/>
</g>
<g id="Group_3">
<path id="Vector_3" d="M30.0001 55.8877C44.2983 55.8877 55.8879 44.2982 55.8879 30C55.8879 15.7018 44.2983 4.1123 30.0001 4.1123C15.7019 4.1123 4.1123 15.7018 4.1123 30C4.1123 44.2982 15.7019 55.8877 30.0001 55.8877ZM30.0001 52.0522C17.8208 52.0522 7.94754 42.1793 7.94754 30C7.94754 17.8207 17.8208 7.94727 30.0001 7.94727C42.1794 7.94727 52.0526 17.8207 52.0526 30C52.0526 42.1793 42.1794 52.0522 30.0001 52.0522Z" fill="#0077FD"/>
</g>
</g>
</g>
</g>
<g id="Mask group">
<mask id="mask1_1278_35739" style="mask-type:alpha" maskUnits="userSpaceOnUse" x="0" y="2" width="27" height="27">
<g id="Group_4">
<g id="Group_5">
<path id="Vector_4" d="M27 2H0V29H27V2Z" fill="white"/>
</g>
</g>
</mask>
<g mask="url(#mask1_1278_35739)">
<g id="Group_6">
<g id="Group_7">
<path id="Vector_5" d="M30.0001 55.8877C44.2983 55.8877 55.8879 44.2982 55.8879 30C55.8879 15.7018 44.2983 4.1123 30.0001 4.1123C15.7019 4.1123 4.1123 15.7018 4.1123 30C4.1123 44.2982 15.7019 55.8877 30.0001 55.8877ZM30.0001 52.0522C17.8208 52.0522 7.94754 42.1793 7.94754 30C7.94754 17.8207 17.8208 7.94727 30.0001 7.94727C42.1794 7.94727 52.0526 17.8207 52.0526 30C52.0526 42.1793 42.1794 52.0522 30.0001 52.0522Z" fill="#FFA100"/>
</g>
</g>
</g>
</g>
</g>
</svg>
