<svg width="60" height="60" viewBox="0 0 60 60" fill="none" xmlns="http://www.w3.org/2000/svg">
<g id="Elite_Advertisers">
<g id="Group">
<path id="Vector" d="M27.9998 31C20.2678 31 14 24.732 14 17C14 9.26796 20.2678 3 27.9998 3C35.7317 3 42 9.268 42 17C41.9911 24.7283 35.7283 30.9915 27.9998 31ZM27.9998 6.5C22.2008 6.5 17.5 11.2009 17.5 17C17.5 22.799 22.2009 27.5 27.9998 27.5C33.7987 27.5 38.4999 22.799 38.4999 17C38.4923 11.2038 33.7956 6.50693 27.9998 6.5Z" fill="#0077FD"/>
</g>
<g id="Group_2">
<path id="Vector_2" d="M49.3106 56H46.8946C45.7309 56 44.7875 55.061 44.7875 53.9024V40.0982C44.7875 38.9395 45.7309 38 46.8946 38H49.3106C54.1641 38.1906 58 42.1637 58 47C58 51.8364 54.1641 55.8095 49.3106 56ZM49.0015 51.8042H49.3106C51.8743 51.6664 53.882 49.5564 53.882 47C53.882 44.4437 51.8743 42.3336 49.3106 42.1958H49.0015V51.8042ZM28.1004 56C27.778 55.999 27.4604 55.9225 27.1734 55.7764C26.1315 55.2687 25.703 54.0139 26.2182 52.979L33.0166 39.1748C33.3737 38.4568 34.1081 38.0017 34.9129 38C35.7195 37.9951 36.4573 38.4521 36.8092 39.1748L43.6076 52.979C44.0527 54.0063 43.6099 55.2006 42.6012 55.6934C41.5925 56.1863 40.3728 55.8043 39.8291 54.8252L34.9129 44.8531L29.9967 54.8252C29.6422 55.5456 28.906 56.0016 28.1004 56Z" fill="#0077FD"/>
</g>
<g id="Group_3">
<path id="Vector_3" d="M38.2578 51H31.7422C30.78 51 30 50.3284 30 49.5C30 48.6716 30.78 48 31.7422 48H38.2578C39.22 48 40 48.6716 40 49.5C40 50.3284 39.22 51 38.2578 51Z" fill="#0077FD"/>
</g>
<g id="Group_4">
<path id="Vector_4" d="M3 50.7368C3.1352 53.9644 5.92213 56.8749 9.39807 57H22.4432V53.436H9.34631C7.94716 53.4227 6.82447 52.3583 6.83875 51.0591C6.84879 43.1166 13.8762 37.5739 22.1935 37.5645L21.606 37.5503L30 37.5591V34H22.1935C11.9351 34 3 40.8253 3 50.7368Z" fill="#FFA100"/>
</g>
</g>
</svg>
