<svg xmlns="http://www.w3.org/2000/svg" xmlns:xlink="http://www.w3.org/1999/xlink" fill="none" version="1.1" width="260" height="120" viewBox="0 0 260 120"><defs><clipPath id="master_svg0_284_4353"><rect x="0" y="0" width="260" height="120" rx="0"/></clipPath><clipPath id="master_svg1_284_4354"><rect x="6" y="36" width="248.43215942382812" height="48" rx="0"/></clipPath></defs><g clip-path="url(#master_svg0_284_4353)"><g clip-path="url(#master_svg1_284_4354)"><g><rect x="6" y="36" width="48" height="48" rx="0" fill="#2A9DB2" fill-opacity="1" style="mix-blend-mode:passthrough"/></g><g><path d="M40.849134652709964,55.48413086C39.81254765270996,55.48047441,38.79206265270996,55.22733083,37.873928652709964,54.7460955096155L37.873928652709964,68.64884375C37.87249765270996,69.82574375,37.56745465270996,70.98237575,36.98828665270996,72.00690475C36.40669765270996,73.06710275,35.53454865270996,73.93924375,34.47435465270996,74.52083575C32.38183165270996,75.74005174999999,29.79539535270996,75.74005174999999,27.702874652709962,74.52083575C27.185323752709962,74.23483075,26.71152495270996,73.87600175,26.295988052709962,73.45530275L22.09840965270996,77.65750274999999C22.89054781270996,78.42887275,23.78075815270996,79.09265475000001,24.74611235270996,79.63174475C28.69002725270996,81.87519474999999,33.524093652709965,81.87519474999999,37.46800865270996,79.63174475C39.45774065270996,78.54275475,41.09250865270996,76.90478475,42.177596652709965,74.91293375000001C43.26997165270996,72.98217775,43.84664165270996,70.80260875,43.85201665270996,68.58426375L43.85201665270996,54.74609375C42.926324652709965,55.23358622,41.895339652709964,55.48697788,40.849134652709964,55.48413086Z" fill="#FFFFFF" fill-opacity="1" style="mix-blend-mode:passthrough"/></g><g><path d="M30.696535950439454,64.37770412500001C29.181661950439455,65.23719812499999,27.326530950439455,65.23719812499999,25.811654950439454,64.37770412500001C25.031868950439453,63.953075125,24.391196250439453,63.312408125000005,23.966569950439453,62.532616125000004C23.528878250439455,61.770161125,23.29681585043945,60.907064125000005,23.293112750439455,60.027912125L23.293112750439455,52.144766125000004L35.28619195043945,52.144766125000004C34.797940950439454,51.230357125,34.53988295043945,50.210751125,34.534318950439456,49.174170125C34.53900695043946,48.124358225,34.80534895043945,47.092270825,35.30925595043945,46.171287025L23.28388505043945,46.171287025L23.28388505043945,38.689453125L17.287343950439453,38.689453125L17.287343950439453,46.185126325L14.976367950439453,46.185126325L14.976367950439453,52.144766125000004L17.310405950439453,52.144766125000004L17.310405950439453,60.087873125C17.311142650439454,62.029533125,17.818322850439454,63.937424125,18.781865550439452,65.623150125C19.72053195043945,67.340113125,21.141232050439452,68.74476812500001,22.868740050439452,69.66389112499999C26.212765950439454,71.54426612500001,30.295424950439454,71.54426612500001,33.63945995043945,69.66389112499999C34.69768295043946,69.079830125,35.64659495043945,68.316643125,36.443990950439456,67.408264125L32.15415595043945,63.118437125C31.761716950439453,63.635527124999996,31.265141950439453,64.064522125,30.696535950439454,64.37770412500001Z" fill="#FFFFFF" fill-opacity="1" style="mix-blend-mode:passthrough"/></g><g><path d="M42.90180537541504,45.52484232C43.56273607541504,45.87620485,44.10633417541504,46.4133886,44.46551747541504,47.0701048C44.83241177541504,47.7138937,45.02628997541504,48.4417396,45.02827167541504,49.1827321C45.02526187541504,49.9107184,44.834613775415036,50.6256337,44.47474477541504,51.2584586C44.11869387541504,51.913961900000004,43.58037277541504,52.4522824,42.92486907541504,52.8083344C41.62836977541504,53.5417957,40.042240575415036,53.5417957,38.74574227541504,52.8083344C38.090399075415036,52.4520736,37.55213278541504,51.9138026,37.19586706541504,51.2584586C36.83857019541504,50.6248059,36.64958757881504,49.9101734,36.64695167541504,49.1827331C36.649489039315036,48.4400005,36.84841345541504,47.7111495,37.22354221541504,47.0701048C37.58749020541504,46.4126559,38.133727475415036,45.87442756,38.79648347541504,45.52022946C40.07166837541504,44.80411656,41.62823057541504,44.80586563,42.90180537541504,45.52484232Z" fill="#FFFFFF" fill-opacity="1" style="mix-blend-mode:passthrough"/></g><g><path d="M73.433535140625,53.25613574375L68.396443340625,53.25613574375L68.396443340625,67.91537284374999L65.042990240625,67.91537284374999L65.042990240625,53.25613574375L59.968994140625,53.25613574375L59.968994140625,50.26708984375L73.447375140625,50.26708984375L73.447375140625,53.25613574375L73.433535140625,53.25613574375Z" fill="#808184" fill-opacity="1" style="mix-blend-mode:passthrough"/></g><g><path d="M79.12551924931641,67.91550984375L75.7490005493164,67.91550984375L75.7490005493164,50.26722797348L83.7659177493164,50.26722797348C84.61344814931641,50.26177052875,85.45420364931641,50.41833663375,86.2429505493164,50.72850033375C86.9631305493164,51.00821912375,87.61678354931641,51.43560514375,88.1618485493164,51.98316184375C88.70280554931641,52.53527144375,89.12645254931641,53.19113874375,89.40728054931641,53.91128014375C89.71570054931641,54.68927474375,89.87227654931641,55.51913544375,89.8685525493164,56.35602524375C89.89684554931641,57.59600214375,89.54778254931641,58.81531334375,88.8675915493164,59.85246844375C88.22369754931641,60.829281843749996,87.2895835493164,61.57947684375,86.19682754931641,61.99738484375Q88.42016554931641,64.94030184375,90.59275454931641,67.92934984375L86.5658485493164,67.92934984375Q85.5049180493164,66.54552984375,84.4993467493164,65.16171484375Q83.49377674931641,63.77789584375,82.46513364931641,62.29259984375L79.12551924931641,62.29259984375L79.12551924931641,67.91550984375ZM79.12551924931641,59.30816844375L83.7659177493164,59.30816844375C84.0907659493164,59.30443664375,84.41241644931641,59.24354364375,84.71613884931641,59.12827204375C85.0442342493164,59.00801754375,85.3429918493164,58.819334043750004,85.59255604931641,58.57474614375C85.86042354931641,58.30962274375,86.0763225493164,57.99672694375,86.2291095493164,57.65220074375C86.4060515493164,57.24183564375,86.4925755493164,56.79819104375,86.4828155493164,56.35141234375C86.4777875493164,56.04164314375,86.4453725493164,55.73292354375,86.3859465493164,55.42886684375C86.31976154931641,55.07195474375,86.19008354931641,54.72980544375,86.00308654931641,54.41868114375C85.79907654931641,54.08476404375,85.51939204931641,53.80350704375,85.18663214931641,53.59761694375C84.7560672493164,53.35339714375,84.26493644931641,53.23661444375,83.77052114931641,53.26088834375L79.12551924931641,53.26088834375L79.12551924931641,59.30816844375Z" fill="#808184" fill-opacity="1" style="mix-blend-mode:passthrough"/></g><g><path d="M91.05863952636719,67.91531140625L100.07190612636718,50.29931640625L100.40863612636718,50.29931640625L109.42651552636718,67.91992040625L105.75940052636719,67.91992040625L104.37558152636718,65.15228640625L96.07267762636718,65.15228640625L94.72115132636719,67.91992040625L91.05863952636719,67.91992040625L91.05863952636719,67.91531140625ZM97.71019502636719,62.200144406250004L102.74728952636718,62.200144406250004L100.23796652636719,56.87244700625L97.71019502636719,62.200144406250004Z" fill="#808184" fill-opacity="1" style="mix-blend-mode:passthrough"/></g><g><path d="M114.86033655419922,53.25613574375L114.86033655419922,57.61976914375L123.37081005419921,57.61976914375L123.37081005419921,60.72874884375L114.86033655419922,60.72874884375L114.86033655419922,67.91537284374999L111.48381805419922,67.91537284374999L111.48381805419922,50.26708984375L124.45479705419922,50.26708984375L124.45479705419922,53.25613574375L114.86033655419922,53.25613574375Z" fill="#808184" fill-opacity="1" style="mix-blend-mode:passthrough"/></g><g><path d="M130.59430719628907,53.25613574375L130.59430719628907,57.61976914375L139.10478069628905,57.61976914375L139.10478069628905,60.72874884375L130.59430719628907,60.72874884375L130.59430719628907,67.91537284374999L127.21778869628906,67.91537284374999L127.21778869628906,50.26708984375L140.18876769628906,50.26708984375L140.18876769628906,53.25613574375L130.59430719628907,53.25613574375Z" fill="#808184" fill-opacity="1" style="mix-blend-mode:passthrough"/></g><g><path d="M146.79422785058594,67.91531140625L143.41770935058594,67.91531140625L143.41770935058594,50.29931640625L146.79422785058594,50.29931640625L146.79422785058594,67.91992040625L146.79422785058594,67.91531140625Z" fill="#808184" fill-opacity="1" style="mix-blend-mode:passthrough"/></g><g><path d="M167.28388580078126,63.57451521875C166.90222580078125,64.27733921875,166.42400180078124,64.92324121875001,165.86317280078126,65.49340721875001C165.30498080078124,66.06070721875,164.67729180078126,66.55511121875,163.99502780078126,66.96487421875C162.57714080078125,67.81231121875,160.95570580078126,68.25872221875,159.30387690078126,68.25643521875C158.08558940078126,68.26309221875,156.87922430078126,68.01647521875,155.76130720078126,67.53223621875C153.57123280078125,66.59599121875,151.82652530078124,64.85128321875,150.89026874078124,62.66120021875C149.92500009078125,60.39651021875,149.92500009078125,57.83612491875,150.89026874078124,55.57144071875C151.82651070078126,53.38136241875,153.57121850078124,51.63665331875,155.76130720078126,50.70040285875C156.87922430078126,50.21616306875,158.08558940078126,49.96954956835,159.30387690078126,49.97620531007C160.95564680078124,49.97437795015,162.57695780078126,50.42075609875,163.99502780078126,51.26776791875C164.67727880078124,51.67756451875,165.30496880078124,52.17197081875,165.86317280078126,52.73922631875C166.41951780078125,53.30297521875,166.89739080078124,53.93910021875,167.28388580078126,54.63044211875L164.12416880078126,55.90816781875C163.85583180078126,55.51523971875,163.54658880078125,55.151879818750004,163.20162180078125,54.82417871875C162.85449580078125,54.48593141875,162.47082080078124,54.18734311875,162.05766180078126,53.93392231875C161.64324980078126,53.67817501875,161.19853180078124,53.47518181875,160.73381080078124,53.32965441875C160.26473980078126,53.18459871875,159.77638340078124,53.11150171875,159.28540610078124,53.11285571875C158.50613880078126,53.10714581875,157.73545360078126,53.27578191875,157.02977850078125,53.606417218749996C156.35403010078124,53.92564251875,155.74389360078126,54.36838201875,155.23083210078124,54.91182091875C154.70922420078125,55.47029161875,154.29347750078125,56.11892651875,154.00384470078126,56.82610271875C153.39239950078124,58.28690151875,153.39239950078124,59.93190291875,154.00384470078126,61.39270121875C154.29516700078125,62.09622421875,154.71078820078125,62.74154021875,155.23083210078124,63.29775821875C155.74939730078125,63.84742921875,156.36771150078124,64.29355421875,157.05286500078125,64.61238221875C157.75844140078124,64.94331121875,158.52919580078125,65.11196121875,159.30849460078124,65.10594221875C159.79946900078124,65.10729821875,160.28782680078126,65.03420321875,160.75689680078125,64.88914321875001C161.22161980078124,64.74362021875,161.66633680078124,64.54062221875,162.08074380078125,64.28487221875C162.49712480078125,64.02356521875001,162.88111580078126,63.71389321875,163.22471080078125,63.36233021875C163.56817280078124,63.02816821875,163.87723080078126,62.660381218750004,164.14725380078124,62.264502218749996L167.28388580078126,63.57451521875Z" fill="#808184" fill-opacity="1" style="mix-blend-mode:passthrough"/></g><g><path d="M180.7853691064453,50.29931640625L180.7853691064453,61.36985840625C180.7993491064453,62.32919340625,180.64318110644533,63.28341040625,180.32409810644532,64.18822840625C180.02887710644532,64.99713940625,179.57040510644532,65.73665640625,178.9771761064453,66.36082240625001C178.39657210644532,66.96402740625,177.6935139064453,67.43588040624999,176.9152889064453,67.74464240625C176.0643392064453,68.08248940625,175.1554060064453,68.25017140625,174.2399139064453,68.23820340625C172.98453280644532,68.27260740625,171.7460596064453,67.94256240625,170.6742716064453,67.28798640625C169.66605420644532,66.64205340625,168.8728337864453,65.71074140625,168.3955841064453,64.61259940625L171.45844010644532,63.22878640625C171.5643833064453,63.47022140625,171.69418620644532,63.70045940625,171.84590740644532,63.916083406249996C172.1881027064453,64.40794440625,172.67023750644532,64.78560840625,173.22972390644532,65.00007340625C173.5638552064453,65.12709240625,173.9194369064453,65.18818240625001,174.2768087064453,65.17996940625C175.34768060644532,65.25804140625,176.36520430644532,64.70237840625,176.8783932064453,63.75924740625C177.10403350644532,63.371071406249996,177.2601309064453,62.94646940625,177.3396625064453,62.50458540625C177.3929176064453,62.12879040625,177.41605850644532,61.74933940625,177.40885350644533,61.36985840625L177.40885350644533,50.29931640625L180.7853691064453,50.29931640625Z" fill="#808184" fill-opacity="1" style="mix-blend-mode:passthrough"/></g><g><path d="M192.14183995585938,68.22897940625C191.08187535585938,68.24274040625,190.02830215585936,68.06297140625,189.03286885585936,67.69851540625C188.14288185585937,67.37113540625,187.3307425558594,66.86217840625,186.64808325585938,66.20399240625C185.97650095585936,65.54271640625,185.45431822585937,64.74528740625,185.11665487585938,63.86534040625C184.74310974585939,62.88800740625,184.5584206038594,61.84867740625,184.57235675549938,60.80249140625L184.57235675549938,50.29931640625L187.94887475585938,50.29931640625L187.94887475585938,60.78403840625C187.92191715585938,61.53809640625,188.07034375585937,62.28812340625,188.38247105585938,62.975082406249996C188.63389925585938,63.51020540625,189.00098415585938,63.98284440625,189.45723055585938,64.35890040625C189.86401085585936,64.68637640625,190.33568815585937,64.92378040625,190.84104725585937,65.05542040625C191.69857075585938,65.31290840625,192.61281105585937,65.31290840625,193.47030825585938,65.05542040625C193.97566795585936,64.92378040625,194.44732575585937,64.68637740625,194.85412575585937,64.35890040625C195.31036975585937,63.98284740625,195.67745775585936,63.51020640625,195.92888275585938,62.975082406249996C196.24101375585937,62.28812340625,196.38943475585938,61.53809640625,196.36247975585937,60.78403840625L196.36247975585937,50.29931640625L199.73899875585937,50.29931640625L199.73899875585937,60.80249040625C199.7531977558594,61.847467406250004,199.57332375585938,62.88600140625,199.20853575585937,63.86533740625C198.87899575585936,64.74609140625,198.36106175585937,65.54423840625,197.6909457558594,66.20399240625C197.00828775585939,66.86217840625,196.19614975585938,67.37113540625,195.30616575585938,67.69851540625C194.29301735585938,68.06854640625,193.22027395585937,68.24838040624999,192.14183995585938,68.22897940625Z" fill="#808184" fill-opacity="1" style="mix-blend-mode:passthrough"/></g><g><path d="M218.53590028125,67.91531140625L206.93950578125,57.42597390625L206.93950578125,67.91531140625L203.56298828125,67.91531140625L203.56298828125,50.29931640625L203.92278024125,50.29931640625L215.51916428125,60.95470840625L215.51916428125,50.29931640625L218.89567728125,50.29931640625L218.89567728125,67.91992040625L218.53588628125,67.91992040625L218.53590028125,67.91531140625Z" fill="#808184" fill-opacity="1" style="mix-blend-mode:passthrough"/></g><g><path d="M233.5318211201172,67.91537284374999L226.15146632011718,59.88923264375L226.15146632011718,67.91537284374999L222.7749481201172,67.91537284374999L222.7749481201172,50.26708984375L226.15146632011718,50.26708984375L226.15146632011718,59.23422624375L233.14435812011718,50.29937877175L237.29581012011718,50.29937877175L230.03538562011718,59.40489764375L237.99233712011718,67.91537284374999L233.5318211201172,67.91537284374999Z" fill="#808184" fill-opacity="1" style="mix-blend-mode:passthrough"/></g><g><path d="M254.43208087207032,50.29931640625Q253.7540188720703,51.40637110625,252.87759487207032,52.83170130625L251.08323887207032,55.73771710625L249.2750598720703,58.65295890625Q248.38480787207033,60.08751490625,247.70672287207032,61.24530940625L247.70672287207032,67.91531740625L244.3302049720703,67.91531740625L244.3302049720703,61.23608540625Q242.76186947207032,58.46845050625,241.0044357720703,55.76539470625Q239.2470034720703,53.06233720625,237.6555938720703,50.29931640625L241.58562927207032,50.29931640625Q242.6696085720703,52.10750390625,243.8043484720703,54.03562260625Q244.9390892720703,55.96374080625,246.02306747207032,57.77192880625Q246.5535440720703,56.92780020625,247.13013167207032,55.96374080625Q247.70672287207032,54.99968430625,248.28792887207032,54.02178450625L249.43187487207032,52.09366600625L250.5020338720703,50.29931640625L254.43208087207032,50.29931640625Z" fill="#808184" fill-opacity="1" style="mix-blend-mode:passthrough"/></g></g></g></svg>