<svg xmlns="http://www.w3.org/2000/svg" xmlns:xlink="http://www.w3.org/1999/xlink" fill="none" version="1.1" width="36" height="36" viewBox="0 0 36 36"><defs><clipPath id="master_svg0_177_3005"><rect x="0" y="0" width="36" height="36" rx="0"/></clipPath></defs><g clip-path="url(#master_svg0_177_3005)"><g><path d="M19.746700278124997,3.5002307875C18.666699878125,2.8736209875,17.333350178125002,2.8736209875,16.253199578125,3.5002307875C14.431149978125,4.5573709375,12.819894778125,5.9576807375000005,11.553955078125,7.6902713375C13.903029478125,8.055940637500001,16.089400278124998,8.9175415375,17.999949978125,10.1626162375C19.910650278125,8.9175415375,22.097051078125,8.055940637500001,24.446049078125,7.6902713375C23.180200078125,5.9576807375000005,21.568900078125,4.5573709375,19.746700278124997,3.5002307875Z" fill="#222E3D" fill-opacity="1"/></g><g><path d="M10.486199899999999,10.7955996995C8.0285254,10.4262394875,6,12.5076844875,6,14.9929294875L6,17.9929294875C6,24.1123306875,10.5805349,29.1619296875,16.499955,29.9000796875L16.499955,31.4929316875C16.499955,32.321380687499996,17.171506,32.992931687500004,17.999955,32.992931687500004C18.828406,32.992931687500004,19.499954000000002,32.321380687499996,19.499954000000002,31.4929316875L19.499954000000002,19.4929294875C19.499954000000002,13.730439887500001,15.2887049,11.5173542475,10.486199899999999,10.7955996995Z" fill="#222E3D" fill-opacity="1"/></g><g><path d="M22.49990555,29.1206283125C26.89760685,27.3404293125,29.99990555,23.0289783125,29.99990555,17.9928789125L29.99990555,14.9928789125C29.99990555,12.5076041125,27.97520545,10.3837695125,25.505455949999998,10.6623344425C23.74655625,10.8607542525,22.03610515,11.2913596625,20.37890625,12.2256346125C21.72155575,14.3235340125,22.49990555,16.8173289125,22.49990555,19.4928789125L22.49990555,29.1206283125Z" fill="#222E3D" fill-opacity="1"/></g></g></svg>