<svg xmlns="http://www.w3.org/2000/svg" xmlns:xlink="http://www.w3.org/1999/xlink" fill="none" version="1.1" width="36" height="36" viewBox="0 0 36 36"><defs><clipPath id="master_svg0_177_3044"><rect x="0" y="0" width="36" height="36" rx="0"/></clipPath></defs><g clip-path="url(#master_svg0_177_3044)"><g><path d="M7.5,7.5C4.1862898,7.5,1.5,10.1862903,1.5,13.5L1.5,22.5C1.5,25.813652,4.1862898,28.5,7.5,28.5L28.5,28.5C31.813652,28.5,34.5,25.813652,34.5,22.5L34.5,13.5C34.5,10.1862903,31.813652,7.5,28.5,7.5L7.5,7.5ZM12,13.5C12.828421,13.5,13.5,14.171579399999999,13.5,15L13.5,16.5L15,16.5C15.828451,16.5,16.5,17.1715488,16.5,18C16.5,18.828451,15.828451,19.5,15,19.5L13.5,19.5L13.5,21C13.5,21.828451,12.828421,22.5,12,22.5C11.1715803,22.5,10.5,21.828451,10.5,21L10.5,19.5L9,19.5C8.171580299999999,19.5,7.5,18.828451,7.5,18C7.5,17.1715488,8.171580299999999,16.5,9,16.5L10.5,16.5L10.5,15C10.5,14.171579399999999,11.1715803,13.5,12,13.5ZM26.625,17.625C25.589401,17.625,24.75,16.7856007,24.75,15.75C24.75,14.7144599,25.589401,13.875,26.625,13.875C27.660599,13.875,28.5,14.7144599,28.5,15.75C28.5,16.7856007,27.660599,17.625,26.625,17.625ZM22.125,22.125C21.089399,22.125,20.25,21.285601,20.25,20.25C20.25,19.214399,21.089399,18.375,22.125,18.375C23.160601,18.375,24,19.214399,24,20.25C24,21.285601,23.160601,22.125,22.125,22.125Z" fill-rule="evenodd" fill="#222E3D" fill-opacity="1"/></g></g></svg>