<svg xmlns="http://www.w3.org/2000/svg" xmlns:xlink="http://www.w3.org/1999/xlink" fill="none" version="1.1" width="36" height="36" viewBox="0 0 36 36"><defs><clipPath id="master_svg0_177_3072"><rect x="0" y="0" width="36" height="36" rx="0"/></clipPath></defs><g clip-path="url(#master_svg0_177_3072)"><g><path d="M19.875,21.75C20.4962997,21.75,21,21.2462997,21,20.625C21,20.00370026,20.4962997,19.5,19.875,19.5L16.5,19.5L16.5,21.75L19.875,21.75Z" fill="#222E3D" fill-opacity="1"/></g><g><path d="M16.5,14.25L19.875,14.25C20.4962997,14.25,21,14.75368452,21,15.375C21,15.9962997,20.4962997,16.5,19.875,16.5L16.5,16.5L16.5,14.25Z" fill="#222E3D" fill-opacity="1"/></g><g><path d="M3,18C3,9.7157249,9.7157249,3,18,3C26.284201,3,33,9.7157249,33,18C33,26.284201,26.284201,33,18,33C9.7157249,33,3,26.284201,3,18ZM12.75,11.25C11.9215803,11.25,11.25,11.9215803,11.25,12.75C11.25,13.578421,11.9215803,14.25,12.75,14.25L13.5,14.25L13.5,21.75L12.75,21.75C11.9215803,21.75,11.25,22.421549,11.25,23.25C11.25,24.078449,11.9215803,24.75,12.75,24.75L16.5,24.75L16.5,25.5C16.5,26.328449,17.171549,27,18,27C18.828451,27,19.5,26.328449,19.5,25.5L19.5,24.75L19.875,24.75C22.1532,24.75,24,22.9032,24,20.625C24,19.6278,23.646151,18.713250000000002,23.0571,18C23.646151,17.286749999999998,24,16.3722,24,15.375C24,13.09683,22.1532,11.25,19.875,11.25L19.5,11.25L19.5,10.5C19.5,9.671580299999999,18.828451,9,18,9C17.171549,9,16.5,9.671580299999999,16.5,10.5L16.5,11.25L12.75,11.25Z" fill-rule="evenodd" fill="#222E3D" fill-opacity="1"/></g></g></svg>