<svg xmlns="http://www.w3.org/2000/svg" xmlns:xlink="http://www.w3.org/1999/xlink" fill="none" version="1.1" width="24" height="24" viewBox="0 0 24 24"><defs><clipPath id="master_svg0_177_6382"><rect x="0" y="0" width="24" height="24" rx="0"/></clipPath></defs><g clip-path="url(#master_svg0_177_6382)"><g><path d="M10.58577555,3.58579326Q10,4.1715771,10,5Q10,5.8284229,10.58577555,6.414206699999999Q11.17156053,7,12,7Q12.8284394,7,13.4142244,6.414206699999999Q14,5.8284228,14,5Q14,4.17157716,13.4142244,3.58579326Q12.8284395,3,12,3Q11.17156065,3,10.58577555,3.58579326Z" fill-rule="evenodd" fill="#FFFFFF" fill-opacity="1"/></g><g><path d="M10.58578056,10.58578056Q10,11.17156112,10,12Q10,12.8284388,10.58578056,13.4142194Q11.17156118,14,12,14Q12.8284386,14,13.4142194,13.4142194Q14,12.8284388,14,12Q14,11.17156136,13.4142194,10.58578056Q12.8284388,10,12,10Q11.17156118,10,10.58578056,10.58578056Z" fill-rule="evenodd" fill="#FFFFFF" fill-opacity="1"/></g><g><path d="M10.58578032,17.58578116Q10,18.1715619,10,19Q10,19.8284383,10.58578032,20.4142189Q11.17156106,21,12,21Q12.828439,21,13.4142196,20.4142189Q14,19.828438,14,19Q14,18.17156184,13.4142196,17.58578116Q12.8284389,17,12,17Q11.17156112,17,10.58578032,17.58578116Z" fill-rule="evenodd" fill="#FFFFFF" fill-opacity="1"/></g><g><path d="M17.58577615,3.58579302Q17,4.1715771,17,5Q17,5.828423,17.58577615,6.414207Q18.17156124,7,19,7Q19.8284388,7,20.4142239,6.414207Q21,5.828423,21,5Q21,4.17157704,20.4142239,3.58579302Q19.8284388,3,19,3Q18.17156124,3,17.58577615,3.58579302Z" fill-rule="evenodd" fill="#FFFFFF" fill-opacity="1"/></g><g><path d="M17.58578116,10.58578032Q17,11.17156106,17,12Q17,12.8284389,17.58578116,13.4142196Q18.17156196,14,19,14Q19.8284382,14,20.4142189,13.4142196Q21,12.8284389,21,12Q21,11.171560939999999,20.4142189,10.58578032Q19.8284382,10,19,10Q18.17156178,10,17.58578116,10.58578032Z" fill-rule="evenodd" fill="#FFFFFF" fill-opacity="1"/></g><g><path d="M17.58578092,17.58578092Q17,18.17156184,17,19Q17,19.8284383,17.58578092,20.4142191Q18.17156178,21,19,21Q19.8284383,21,20.4142191,20.4142191Q21,19.8284383,21,19Q21,18.17156172,20.4142191,17.58578092Q19.8284383,17,19,17Q18.17156178,17,17.58578092,17.58578092Z" fill-rule="evenodd" fill="#FFFFFF" fill-opacity="1"/></g><g><path d="M3.58579326,10.58577555Q3,11.17156053,3,12Q3,12.8284394,3.58579326,13.4142244Q4.17157716,14,5,14Q5.8284228,14,6.414206699999999,13.4142244Q7,12.8284395,7,12Q7,11.17156065,6.414206699999999,10.58577555Q5.8284229,10,5,10Q4.1715771,10,3.58579326,10.58577555Z" fill-rule="evenodd" fill="#FFFFFF" fill-opacity="1"/></g><g><path d="M3.58579302,17.58577615Q3,18.17156124,3,19Q3,19.8284388,3.58579302,20.4142239Q4.17157698,21,5,21Q5.828423,21,6.414207,20.4142239Q7,19.8284388,7,19Q7,18.17156124,6.414207,17.58577615Q5.8284229,17,5,17Q4.17157704,17,3.58579302,17.58577615Z" fill-rule="evenodd" fill="#FFFFFF" fill-opacity="1"/></g><g><path d="M3.5857882500000002,3.5857882500000002Q3,4.1715765,3,5Q3,5.8284234999999995,3.5857882500000002,6.4142118Q4.1715765,7,5,7Q5.8284234999999995,7,6.4142118,6.4142118Q7,5.8284234999999995,7,5Q7,4.17157656,6.4142118,3.5857882500000002Q5.8284234999999995,3,5,3Q4.17157656,3,3.5857882500000002,3.5857882500000002Z" fill-rule="evenodd" fill="#FFFFFF" fill-opacity="1"/></g></g></svg>