<svg xmlns="http://www.w3.org/2000/svg" xmlns:xlink="http://www.w3.org/1999/xlink" fill="none" version="1.1" width="10" height="10" viewBox="0 0 10 10"><defs><clipPath id="master_svg0_132_2531"><rect x="0" y="0" width="10" height="10" rx="0"/></clipPath></defs><g clip-path="url(#master_svg0_132_2531)"><g><path d="M5.399002553125,1.1304336237500001C5.346127553125,0.95419193375,5.183918453125,0.83349609375,4.999918953125,0.83349609375C4.815918653124999,0.83349609375,4.653710353125,0.95419193375,4.600835753125001,1.1304336237500001C4.301085453124999,2.12952109375,3.912568853125,2.84200449375,3.377164553125,3.37740869375C2.841760353125,3.91281299375,2.129276953125,4.301329593749999,1.1301894831250001,4.601079893750001C0.953947793125,4.65395449375,0.833251953125,4.816162793749999,0.833251953125,5.00016309375C0.833251953125,5.18416259375,0.953947793125,5.34637169375,1.1301894831250001,5.39924669375C2.129276953125,5.69899659375,2.841760353125,6.08749679375,3.377164553125,6.62291339375C3.912568853125,7.15832999375,4.301085453124999,7.87078809375,4.600835753125001,8.86987109375C4.653710353125,9.04612159375,4.815918653124999,9.16683009375,4.999918953125,9.16683009375C5.183918453125,9.16683009375,5.346127553125,9.04612159375,5.399002553125,8.86987109375C5.698752453125,7.87078809375,6.087252653125,7.15832999375,6.622669253125,6.62291339375C7.158085853125,6.08749679375,7.870543953125,5.69899659375,8.869626953125,5.39924669375C9.045877453125,5.34637169375,9.166585953125,5.18416259375,9.166585953125,5.00016309375C9.166585953125,4.816162793749999,9.045877453125,4.65395449375,8.869626953125,4.601079893750001C7.870543953125,4.301329593749999,7.158085853125,3.91281299375,6.622669253125,3.37740869375C6.087252653125,2.84200449375,5.698752453125,2.12952109375,5.399002553125,1.1304336237500001Z" fill="#222E3D" fill-opacity="1"/></g></g></svg>