<svg width="21" height="21" viewBox="0 0 21 21" fill="none" xmlns="http://www.w3.org/2000/svg">
<g id="Group">
<g id="Group_2">
<path id="Vector" d="M20.5 10.5C20.5 10.6637 20.496 10.8273 20.488 10.9907C20.4799 11.1542 20.4679 11.3174 20.4518 11.4802C20.4358 11.6431 20.4158 11.8054 20.3918 11.9673C20.3677 12.1292 20.3398 12.2904 20.3079 12.4509C20.276 12.6115 20.2401 12.7711 20.2003 12.9298C20.1606 13.0885 20.1169 13.2462 20.0694 13.4028C20.0219 13.5595 19.9705 13.7148 19.9154 13.8689C19.8603 14.023 19.8014 14.1756 19.7388 14.3268C19.6761 14.478 19.6098 14.6276 19.5399 14.7756C19.4699 14.9236 19.3963 15.0697 19.3192 15.214C19.2421 15.3583 19.1614 15.5007 19.0773 15.641C18.9932 15.7814 18.9056 15.9196 18.8147 16.0557C18.7238 16.1917 18.6296 16.3256 18.5321 16.457C18.4346 16.5885 18.3339 16.7174 18.2301 16.8439C18.1263 16.9704 18.0194 17.0943 17.9095 17.2156C17.7996 17.3368 17.6868 17.4553 17.5711 17.571C17.4554 17.6868 17.3369 17.7997 17.2156 17.9095C17.0943 18.0195 16.9704 18.1263 16.8439 18.2301C16.7174 18.3339 16.5885 18.4346 16.457 18.5321C16.3255 18.6296 16.1918 18.7238 16.0557 18.8147C15.9196 18.9056 15.7814 18.9931 15.641 19.0773C15.5007 19.1614 15.3583 19.2421 15.214 19.3192C15.0697 19.3963 14.9235 19.4699 14.7756 19.5399C14.6276 19.6098 14.478 19.6761 14.3268 19.7388C14.1756 19.8014 14.023 19.8603 13.8689 19.9154C13.7148 19.9705 13.5595 20.0219 13.4028 20.0695C13.2462 20.117 13.0885 20.1606 12.9298 20.2003C12.7711 20.2401 12.6114 20.2759 12.4509 20.3079C12.2904 20.3397 12.1292 20.3678 11.9673 20.3918C11.8054 20.4158 11.6431 20.4358 11.4802 20.4518C11.3173 20.4678 11.1542 20.48 10.9907 20.488C10.8272 20.496 10.6637 20.5 10.5 20.5C10.3363 20.5 10.1728 20.496 10.0093 20.488C9.84585 20.48 9.6827 20.4678 9.51984 20.4518C9.35697 20.4358 9.1946 20.4158 9.03271 20.3918C8.87083 20.3678 8.70962 20.3397 8.5491 20.3079C8.38859 20.2759 8.22894 20.2401 8.07019 20.2003C7.91144 20.1606 7.75375 20.117 7.59714 20.0695C7.44053 20.0219 7.2852 19.9705 7.1311 19.9154C6.97701 19.8603 6.82435 19.8014 6.67316 19.7388C6.52196 19.6761 6.3724 19.6098 6.22446 19.5399C6.07651 19.4699 5.93037 19.3963 5.78604 19.3192C5.64171 19.2421 5.49935 19.1614 5.35898 19.0773C5.21861 18.9931 5.08038 18.9056 4.94431 18.8147C4.80823 18.7238 4.67445 18.6296 4.543 18.5321C4.41155 18.4346 4.28257 18.3339 4.15607 18.2301C4.02955 18.1263 3.90568 18.0195 3.78442 17.9095C3.66316 17.7997 3.54465 17.6868 3.42892 17.571C3.3132 17.4553 3.20039 17.3368 3.09048 17.2156C2.98058 17.0943 2.87372 16.9704 2.7699 16.8439C2.66607 16.7174 2.56542 16.5885 2.46793 16.457C2.37044 16.3256 2.27623 16.1917 2.1853 16.0557C2.09438 15.9196 2.00684 15.7814 1.9227 15.641C1.83857 15.5007 1.75793 15.3583 1.68079 15.214C1.60364 15.0697 1.53009 14.9236 1.46011 14.7756C1.39014 14.6276 1.32383 14.478 1.2612 14.3268C1.19857 14.1756 1.1397 14.023 1.08456 13.8689C1.02943 13.7148 0.97811 13.5595 0.930603 13.4028C0.883096 13.2462 0.839449 13.0885 0.799683 12.9298C0.759917 12.7711 0.724067 12.6115 0.692139 12.4509C0.660211 12.2904 0.632259 12.1292 0.608246 11.9673C0.584232 11.8054 0.564198 11.6431 0.548157 11.4802C0.532116 11.3174 0.520085 11.1542 0.512054 10.9907C0.504024 10.8273 0.5 10.6637 0.5 10.5C0.5 10.3363 0.504024 10.1727 0.512054 10.0093C0.520085 9.84582 0.532116 9.68264 0.548157 9.51978C0.564198 9.35691 0.584232 9.1946 0.608246 9.03271C0.632259 8.87083 0.660211 8.70959 0.692139 8.54907C0.724067 8.38856 0.759917 8.22894 0.799683 8.07019C0.839449 7.91144 0.883096 7.75378 0.930603 7.59717C0.97811 7.44056 1.02943 7.2852 1.08456 7.1311C1.1397 6.97701 1.19857 6.82441 1.2612 6.67322C1.32383 6.52202 1.39014 6.37243 1.46011 6.22449C1.53009 6.07654 1.60364 5.93034 1.68079 5.78601C1.75793 5.64168 1.83857 5.49938 1.9227 5.35901C2.00684 5.21864 2.09438 5.08041 2.1853 4.94434C2.27623 4.80826 2.37044 4.67442 2.46793 4.54297C2.56542 4.41152 2.66607 4.28263 2.7699 4.15613C2.87372 4.02961 2.98058 3.90568 3.09048 3.78442C3.20039 3.66316 3.3132 3.54468 3.42892 3.42896C3.54465 3.31324 3.66316 3.20036 3.78442 3.09045C3.90568 2.98055 4.02955 2.87372 4.15607 2.7699C4.28257 2.66607 4.41155 2.56539 4.543 2.4679C4.67445 2.37041 4.80823 2.27623 4.94431 2.1853C5.08038 2.09438 5.21861 2.00687 5.35898 1.92273C5.49935 1.8386 5.64171 1.75793 5.78604 1.68079C5.93037 1.60364 6.07651 1.53006 6.22446 1.46008C6.3724 1.39011 6.52196 1.32386 6.67316 1.26123C6.82435 1.1986 6.97701 1.13973 7.1311 1.08459C7.2852 1.02946 7.44053 0.978049 7.59714 0.930542C7.75375 0.883035 7.91144 0.839449 8.07019 0.799683C8.22894 0.759917 8.38859 0.724067 8.5491 0.692139C8.70962 0.660211 8.87083 0.63229 9.03271 0.608276C9.1946 0.584263 9.35697 0.564137 9.51984 0.548096C9.6827 0.532055 9.84585 0.520115 10.0093 0.512085C10.1728 0.504055 10.3363 0.5 10.5 0.5C10.6637 0.5 10.8272 0.504055 10.9907 0.512085C11.1542 0.520115 11.3173 0.532055 11.4802 0.548096C11.6431 0.564137 11.8054 0.584263 11.9673 0.608276C12.1292 0.63229 12.2904 0.660211 12.4509 0.692139C12.6114 0.724067 12.7711 0.759917 12.9298 0.799683C13.0885 0.839449 13.2462 0.883035 13.4028 0.930542C13.5595 0.978049 13.7148 1.02946 13.8689 1.08459C14.023 1.13973 14.1756 1.1986 14.3268 1.26123C14.478 1.32386 14.6276 1.39011 14.7756 1.46008C14.9235 1.53006 15.0697 1.60364 15.214 1.68079C15.3583 1.75793 15.5007 1.8386 15.641 1.92273C15.7814 2.00687 15.9196 2.09438 16.0557 2.1853C16.1918 2.27623 16.3255 2.37041 16.457 2.4679C16.5885 2.56539 16.7174 2.66607 16.8439 2.7699C16.9704 2.87372 17.0943 2.98055 17.2156 3.09045C17.3369 3.20036 17.4554 3.31324 17.5711 3.42896C17.6868 3.54468 17.7996 3.66316 17.9095 3.78442C18.0194 3.90568 18.1263 4.02961 18.2301 4.15613C18.3339 4.28263 18.4346 4.41152 18.5321 4.54297C18.6296 4.67442 18.7238 4.80826 18.8147 4.94434C18.9056 5.08041 18.9932 5.21864 19.0773 5.35901C19.1614 5.49938 19.2421 5.64168 19.3192 5.78601C19.3963 5.93034 19.4699 6.07654 19.5399 6.22449C19.6098 6.37243 19.6761 6.52202 19.7388 6.67322C19.8014 6.82441 19.8603 6.97701 19.9154 7.1311C19.9705 7.2852 20.0219 7.44056 20.0694 7.59717C20.1169 7.75378 20.1606 7.91144 20.2003 8.07019C20.2401 8.22894 20.276 8.38856 20.3079 8.54907C20.3398 8.70959 20.3677 8.87083 20.3918 9.03271C20.4158 9.1946 20.4358 9.35691 20.4518 9.51978C20.4679 9.68264 20.4799 9.84582 20.488 10.0093C20.496 10.1727 20.5 10.3363 20.5 10.5Z" fill="#333333"/>
</g>
<g id="Group_3">
<path id="Vector_2" d="M15.4368 10.1772C15.5211 10.3861 15.5211 10.6206 15.4368 10.8295C15.3964 10.9313 15.3374 11.0244 15.2632 11.1037H15.2553L12.1842 14.2507C11.8585 14.5837 11.3312 14.583 11.0064 14.2491C10.6815 13.9153 10.6822 13.3748 11.0079 13.0419L12.6579 11.3539H6.33427C5.87361 11.3542 5.50001 10.9715 5.50001 10.4994C5.50001 10.0272 5.87361 9.64444 6.33427 9.64476H12.6579L11.0079 7.95678C10.6835 7.62362 10.6833 7.08416 11.0077 6.75084C11.332 6.41753 11.8583 6.41623 12.1842 6.74791L15.2553 9.89562C15.3345 9.97369 15.3965 10.0684 15.4368 10.1732V10.1772Z" fill="white"/>
</g>
</g>
</svg>
