<svg width="143" height="97" viewBox="0 0 143 97" fill="none" xmlns="http://www.w3.org/2000/svg">
<g id="Advertisers">
<g id="Group" filter="url(#filter0_d_1255_24738)">
<path id="Vector" d="M124.634 14H17.6084C15.6155 14 14 15.6156 14 17.6084V79.3916C14 81.3844 15.6155 83 17.6084 83H124.634C126.627 83 128.243 81.3844 128.243 79.3916V17.6084C128.243 15.6156 126.627 14 124.634 14Z" fill="white"/>
</g>
<g id="Group_2">
<path id="Vector_2" fill-rule="evenodd" clip-rule="evenodd" d="M18.5332 40.2112V38.3293H19.4353V40.2112H18.5332ZM18.5332 43.9747V42.0929H19.4353V43.9747H18.5332ZM18.5332 47.7384V45.8566H19.4353V47.7384H18.5332ZM18.5332 51.5021V49.6202H19.4353V51.5021H18.5332ZM23.1071 54.3248H21.2775V53.4227H23.1071V54.3248ZM26.7662 54.3248H24.9367V53.4227H26.7662V54.3248ZM30.4254 54.3248H28.5958V53.4227H30.4254V54.3248ZM34.0845 54.3248H32.2549V53.4227H34.0845V54.3248ZM37.7436 54.3248H35.9141V53.4227H37.7436V54.3248ZM41.4028 54.3248H39.5732V53.4227H41.4028V54.3248ZM45.0619 54.3248H43.2323V53.4227H45.0619V54.3248ZM48.721 54.3248H46.8915V53.4227H48.721V54.3248ZM52.3802 54.3248H50.5506V53.4227H52.3802V54.3248ZM56.0393 54.3248H54.2097V53.4227H56.0393V54.3248ZM59.6984 54.3248H57.8689V53.4227H59.6984V54.3248ZM63.3576 54.3248H61.528V53.4227H63.3576V54.3248ZM67.0167 54.3248H65.1871V53.4227H67.0167V54.3248ZM70.6758 54.3248H68.8463V53.4227H70.6758V54.3248ZM74.335 54.3248H72.5054V53.4227H74.335V54.3248ZM77.9941 54.3248H76.1645V53.4227H77.9941V54.3248ZM81.6532 54.3248H79.8237V53.4227H81.6532V54.3248ZM85.3124 54.3248H83.4828V53.4227H85.3124V54.3248ZM88.9715 54.3248H87.1419V53.4227H88.9715V54.3248ZM92.6306 54.3248H90.8011V53.4227H92.6306V54.3248ZM96.2898 54.3248H94.4602V53.4227H96.2898V54.3248ZM99.9489 54.3248H98.1193V53.4227H99.9489V54.3248ZM103.608 54.3248H101.779V53.4227H103.608V54.3248ZM107.267 54.3248H105.438V53.4227H107.267V54.3248ZM110.926 54.3248H109.097V53.4227H110.926V54.3248ZM114.585 54.3248H112.756V53.4227H114.585V54.3248ZM118.245 54.3248H116.415V53.4227H118.245V54.3248ZM120.989 49.6202V51.5021H120.087V49.6202H120.989ZM120.989 45.8566V47.7384H120.087V45.8566H120.989ZM120.989 42.0929V43.9747H120.087V42.0929H120.989ZM120.989 38.3293V40.2112H120.087V38.3293H120.989ZM116.415 35.5066H118.245V36.4087H116.415V35.5066ZM112.756 35.5066H114.586V36.4087H112.756V35.5066ZM109.097 35.5066H110.926V36.4087H109.097V35.5066ZM105.438 35.5066H107.267V36.4087H105.438V35.5066ZM101.779 35.5066H103.608V36.4087H101.779V35.5066ZM98.1194 35.5066H99.9489V36.4087H98.1194V35.5066ZM94.4602 35.5066H96.2898V36.4087H94.4602V35.5066ZM90.8011 35.5066H92.6307V36.4087H90.8011V35.5066ZM87.1419 35.5066H88.9715V36.4087H87.1419V35.5066ZM83.4828 35.5066H85.3124V36.4087H83.4828V35.5066ZM79.8237 35.5066H81.6533V36.4087H79.8237V35.5066ZM76.1646 35.5066H77.9941V36.4087H76.1646V35.5066ZM72.5054 35.5066H74.335V36.4087H72.5054V35.5066ZM68.8463 35.5066H70.6759V36.4087H68.8463V35.5066ZM65.1871 35.5066H67.0167V36.4087H65.1871V35.5066ZM61.528 35.5066H63.3576V36.4087H61.528V35.5066ZM57.8689 35.5066H59.6984V36.4087H57.8689V35.5066ZM54.2097 35.5066H56.0393V36.4087H54.2097V35.5066ZM50.5506 35.5066H52.3802V36.4087H50.5506V35.5066ZM46.8915 35.5066H48.721V36.4087H46.8915V35.5066ZM43.2323 35.5066H45.0619V36.4087H43.2323V35.5066ZM39.5732 35.5066H41.4028V36.4087H39.5732V35.5066ZM35.9141 35.5066H37.7436V36.4087H35.9141V35.5066ZM32.2549 35.5066H34.0845V36.4087H32.2549V35.5066ZM28.5958 35.5066H30.4254V36.4087H28.5958V35.5066ZM24.9367 35.5066H26.7663V36.4087H24.9367V35.5066ZM21.2776 35.5066H23.1071V36.4087H21.2776V35.5066ZM19.448 35.5066V36.4087H19.4353V36.4475H18.5332V35.5066H19.448ZM120.074 35.5066H120.989V36.4475H120.087V36.4087H120.074V35.5066ZM120.989 53.3839V54.3248H120.074V53.4227H120.087V53.3839H120.989ZM19.448 54.3248H18.5332V53.3839H19.4353V53.4227H19.448V54.3248Z" fill="#0077FD"/>
</g>
<g id="Group_3">
<path id="Vector_3" d="M14 17.6084C14 15.6156 15.6155 14 17.6084 14H124.634C126.627 14 128.243 15.6156 128.243 17.6084V29.2338H14V17.6084Z" fill="url(#paint0_linear_1255_24738)"/>
</g>
<g id="Group_4">
<path id="Vector_4" d="M123.71 31.9221H21.2539V50.7404H123.71V31.9221Z" fill="#0077FD"/>
</g>
<g id="logo">
<path id="Vector_5" d="M65.9839 46.8562C65.4858 46.3639 65.4858 45.5659 65.9839 45.0739L75.3611 35.8062C75.8593 35.3139 76.6667 35.3139 77.1644 35.8062C77.6625 36.2985 77.6625 37.0964 77.1644 37.5883L67.7872 46.8562C67.2894 47.3481 66.482 47.3481 65.9839 46.8562Z" fill="#CDE4F6"/>
<path id="Vector_6" d="M77.1644 46.8562C76.6663 47.3485 75.8589 47.3485 75.3611 46.8562L65.9839 37.5883C65.4858 37.096 65.4858 36.2982 65.9839 35.8062C66.482 35.3139 67.2894 35.3139 67.7872 35.8062L77.1644 45.0739C77.6622 45.5659 77.6622 46.3639 77.1644 46.8562Z" fill="#64B0FF"/>
<path id="Vector_7" d="M76.7692 39.7926H74.3344C73.6699 39.7926 73.1313 39.2602 73.1313 38.6035V36.1971C73.1313 35.387 72.4639 34.6476 71.6449 34.6119C70.7533 34.5729 70.0179 35.2761 70.0179 36.1488V38.6035C70.0179 39.2602 69.4792 39.7926 68.8147 39.7926H66.3799C65.5602 39.7926 64.8122 40.4522 64.776 41.2616C64.7365 42.1428 65.4481 42.8696 66.3311 42.8696H68.8147C69.4792 42.8696 70.0179 43.4019 70.0179 44.0587V46.4652C70.0179 47.2753 70.6853 48.0146 71.5042 48.0503C72.3959 48.0893 73.1313 47.3861 73.1313 46.5134V44.059C73.1313 43.4023 73.6699 42.87 74.3344 42.87H76.8181C77.7011 42.87 78.4126 42.1432 78.3732 41.2619C78.3373 40.4522 77.5893 39.7926 76.7692 39.7926Z" fill="#FFFFF7"/>
<path id="Vector_8" d="M71.5736 41.8713C70.7796 41.8713 70.016 41.6686 69.4213 41.3C69.3102 41.2314 69.2487 41.0977 69.2925 40.9754C69.354 40.8042 69.553 40.7434 69.698 40.8346C70.2084 41.1553 70.8747 41.3319 71.5736 41.3319C72.2725 41.3319 72.9388 41.1553 73.4496 40.8346C73.595 40.7438 73.7939 40.8046 73.8551 40.9762C73.8985 41.0981 73.837 41.2318 73.7259 41.3004C73.1309 41.6686 72.3676 41.8713 71.5736 41.8713Z" fill="#0673FF"/>
</g>
<g id="Group_5">
<path id="Vector_9" d="M84.7267 59.7014H22.156C21.6578 59.7014 21.2539 60.1053 21.2539 60.6035V64.1759C21.2539 64.6741 21.6578 65.078 22.156 65.078H84.7267C85.2249 65.078 85.6287 64.6741 85.6287 64.1759V60.6035C85.6287 60.1053 85.2249 59.7014 84.7267 59.7014Z" fill="#E7E7E7"/>
</g>
<g id="Group_6">
<path id="Vector_10" d="M61.1528 67.7661H22.156C21.6578 67.7661 21.2539 68.17 21.2539 68.6682V72.2406C21.2539 72.7388 21.6578 73.1427 22.156 73.1427H61.1528C61.651 73.1427 62.0549 72.7388 62.0549 72.2406V68.6682C62.0549 68.17 61.651 67.7661 61.1528 67.7661Z" fill="#F3F3F3"/>
</g>
<g id="Group_7" filter="url(#filter1_d_1255_24738)">
<path id="Vector_11" d="M117.15 69.9301C116.774 70.1359 116.473 70.4541 116.289 70.8408C115.554 70.1027 114.424 69.9333 113.521 70.4259C113.131 70.6486 112.813 70.9753 112.601 71.3704C111.501 70.3338 109.728 70.6044 109.023 71.9169L106.287 67.2337C105.664 66.0686 104.213 65.6225 103.061 66.2423C101.921 66.9173 101.556 68.3913 102.244 69.5405L108.536 80.3106L106.517 79.7495C105.248 79.4342 103.968 80.1644 103.609 81.4086C103.203 82.7533 103.945 84.1923 105.287 84.6589L114.555 87.3484C114.739 87.3995 114.929 87.4261 115.119 87.4271C117.107 87.7322 119.124 87.247 120.734 86.0765C126.566 82.7487 125.199 79.1814 122.858 75.1726L120.376 70.9244C119.767 69.7436 118.3 69.2925 117.151 69.9323L117.15 69.9301Z" fill="#FF6700"/>
</g>
</g>
<defs>
<filter id="filter0_d_1255_24738" x="0.0799999" y="0.0799999" width="142.083" height="96.84" filterUnits="userSpaceOnUse" color-interpolation-filters="sRGB">
<feFlood flood-opacity="0" result="BackgroundImageFix"/>
<feColorMatrix in="SourceAlpha" type="matrix" values="0 0 0 0 0 0 0 0 0 0 0 0 0 0 0 0 0 0 127 0" result="hardAlpha"/>
<feOffset/>
<feGaussianBlur stdDeviation="6.96"/>
<feColorMatrix type="matrix" values="0 0 0 0 0 0 0 0 0 0 0 0 0 0 0 0 0 0 0.08 0"/>
<feBlend mode="normal" in2="BackgroundImageFix" result="effect1_dropShadow_1255_24738"/>
<feBlend mode="normal" in="SourceGraphic" in2="effect1_dropShadow_1255_24738" result="shape"/>
</filter>
<filter id="filter1_d_1255_24738" x="95.5819" y="65.9628" width="31.9921" height="30.5742" filterUnits="userSpaceOnUse" color-interpolation-filters="sRGB">
<feFlood flood-opacity="0" result="BackgroundImageFix"/>
<feColorMatrix in="SourceAlpha" type="matrix" values="0 0 0 0 0 0 0 0 0 0 0 0 0 0 0 0 0 0 127 0" result="hardAlpha"/>
<feOffset dx="-1.80417" dy="4.51044"/>
<feGaussianBlur stdDeviation="2.25522"/>
<feColorMatrix type="matrix" values="0 0 0 0 1 0 0 0 0 0.282353 0 0 0 0 0 0 0 0 0.45 0"/>
<feBlend mode="normal" in2="BackgroundImageFix" result="effect1_dropShadow_1255_24738"/>
<feBlend mode="normal" in="SourceGraphic" in2="effect1_dropShadow_1255_24738" result="shape"/>
</filter>
<linearGradient id="paint0_linear_1255_24738" x1="128.243" y1="21.6169" x2="14" y2="21.6169" gradientUnits="userSpaceOnUse">
<stop stop-color="#EBEBEB" stop-opacity="0.14"/>
<stop offset="1" stop-color="#E1E1E1"/>
</linearGradient>
</defs>
</svg>
