<svg xmlns="http://www.w3.org/2000/svg" xmlns:xlink="http://www.w3.org/1999/xlink" fill="none" version="1.1" width="24" height="24" viewBox="0 0 24 24"><g><g><path d="M19.65,3C19.65,3,4.3499999,3,4.3499999,3C3.99195993,3,3.64858007,3.14223006,3.39541006,3.39541006C3.14223006,3.64858007,3,3.99195993,3,4.3499999C3,4.3499999,3,19.65,3,19.65C3,20.007999,3.14223006,20.3514,3.39541006,20.604601C3.64858007,20.857801,3.99195993,21,4.3499999,21C4.3499999,21,19.65,21,19.65,21C20.007999,21,20.3514,20.857801,20.604601,20.604601C20.857801,20.3514,21,20.007999,21,19.65C21,19.65,21,4.3499999,21,4.3499999C21,3.99195993,20.857801,3.64858007,20.604601,3.39541006C20.3514,3.14223006,20.007999,3,19.65,3ZM8.399999600000001,18.299999C8.399999600000001,18.299999,5.6999998000000005,18.299999,5.6999998000000005,18.299999C5.6999998000000005,18.299999,5.6999998000000005,10.1999998,5.6999998000000005,10.1999998C5.6999998000000005,10.1999998,8.399999600000001,10.1999998,8.399999600000001,10.1999998C8.399999600000001,10.1999998,8.399999600000001,18.299999,8.399999600000001,18.299999ZM7.0500002,8.625C6.7405603,8.6161599,6.4406002,8.5163198,6.1875801,8.3379698C5.934560100000001,8.1596198,5.7396998,7.9106598,5.6273699,7.6222C5.5150299,7.3337402,5.4901903,7.0185699,5.5559502,6.7160702C5.6217003000000005,6.4135802,5.7751497999999994,6.1371601,5.9970999,5.92138C6.2190598999999995,5.70559,6.4996798,5.5599899,6.8039098,5.50278C7.10814,5.44556,7.4224801,5.47927,7.7076602,5.59969C7.9928403,5.7200999,8.2362194,5.921889999999999,8.407369599999999,6.1798301C8.5785298,6.4377800999999995,8.6698699,6.7404401,8.6700001,7.0500002C8.66289,7.47331,8.4884996,7.8766003,8.1849499,8.17173C7.8813901,8.4668503,7.47335,8.629819900000001,7.0500002,8.625ZM18.299999,18.299999C18.299999,18.299999,15.6,18.299999,15.6,18.299999C15.6,18.299999,15.6,14.034,15.6,14.034C15.6,12.7560005,15.059999,12.2969999,14.358,12.2969999C14.1522,12.3106995,13.9511,12.3649006,13.7663,12.4566002C13.5815,12.5482006,13.4166,12.6754999,13.2811,12.8310003C13.1457,12.9865999,13.0422,13.1674,12.9768,13.363C12.9113998,13.558599,12.8852997,13.7652,12.8999996,13.971C12.8954992,14.012899,12.8954992,14.0551,12.8999996,14.097C12.8999996,14.097,12.8999996,18.299999,12.8999996,18.299999C12.8999996,18.299999,10.1999998,18.299999,10.1999998,18.299999C10.1999998,18.299999,10.1999998,10.1999998,10.1999998,10.1999998C10.1999998,10.1999998,12.8100004,10.1999998,12.8100004,10.1999998C12.8100004,10.1999998,12.8100004,11.3699999,12.8100004,11.3699999C13.0733,10.969500100000001,13.435,10.643300100000001,13.8605,10.4226999C14.286,10.2020998,14.761,10.0943995,15.24,10.1099997C16.634999999999998,10.1099997,18.264,10.8840003,18.264,13.404C18.264,13.404,18.299999,18.299999,18.299999,18.299999Z" fill="#929292" fill-opacity="1"/></g></g></svg>