<svg width="16" height="16" viewBox="0 0 16 16" fill="none" xmlns="http://www.w3.org/2000/svg">
<g id="arrow-right-circle">
<path id="Vector" fill-rule="evenodd" clip-rule="evenodd" d="M8.00016 14.6668C11.682 14.6668 14.6668 11.682 14.6668 8.00016C14.6668 4.31826 11.682 1.3335 8.00016 1.3335C4.31826 1.3335 1.3335 4.31826 1.3335 8.00016C1.3335 11.682 4.31826 14.6668 8.00016 14.6668ZM9.13823 5.52876C8.8779 5.26841 8.45576 5.26841 8.19543 5.52876C7.9351 5.78911 7.9351 6.21122 8.19543 6.47157L9.05736 7.3335H5.3335C4.96531 7.3335 4.66683 7.63196 4.66683 8.00016C4.66683 8.36836 4.96531 8.66683 5.3335 8.66683H9.05736L8.19543 9.52876C7.9351 9.7891 7.9351 10.2112 8.19543 10.4716C8.45576 10.7319 8.8779 10.7319 9.13823 10.4716L11.1382 8.47156C11.3986 8.21123 11.3986 7.7891 11.1382 7.52876L9.13823 5.52876Z" fill="#0077FD"/>
</g>
</svg>
