<svg width="60" height="60" viewBox="0 0 60 60" fill="none" xmlns="http://www.w3.org/2000/svg">
<g id="Monthly_Ad_Requests">
<mask id="mask0_1278_35815" style="mask-type:luminance" maskUnits="userSpaceOnUse" x="0" y="0" width="60" height="60">
<g id="master_svg1c_75_3565">
<path id="Vector" d="M60 0H0V60H60V0Z" fill="white"/>
</g>
</mask>
<g mask="url(#mask0_1278_35815)">
<g id="Group">
<g id="Group_2">
<path id="Vector_2" d="M56.2376 5.52979C56.2376 5.45979 56.2375 5.39758 56.21 5.33008C56.18 5.26758 56.1726 5.21479 56.1551 5.15479C56.1293 5.06056 56.0959 4.96868 56.0551 4.87988C56.0551 4.84488 56.0151 4.81729 55.9926 4.77979C55.9676 4.74479 55.9176 4.6576 55.8751 4.6001L55.7501 4.44727C55.7051 4.39977 55.6651 4.3473 55.6101 4.2998C55.566 4.25272 55.5174 4.21007 55.465 4.17236L55.3001 4.05518C55.2426 4.02018 55.1826 3.98996 55.1251 3.95996C55.0679 3.93093 55.0094 3.90417 54.95 3.87988L54.7451 3.81494C54.7026 3.81494 54.6701 3.78479 54.6276 3.77979H54.5626C54.488 3.7685 54.4128 3.76026 54.3375 3.75488H54.1525C54.0876 3.76238 54.0175 3.76729 53.9525 3.77979L53.7526 3.80762L53.5775 3.8623L53.3676 3.9248C53.3501 3.9373 53.3251 3.9427 53.3026 3.9502L4.96261 27.6675C4.67814 27.798 4.42619 27.9902 4.22506 28.23L4.1426 28.355C4.08423 28.4361 4.02914 28.5195 3.97756 28.605V28.6475C3.50256 29.5975 3.83256 30.7451 4.72756 31.3076L11.9876 37.125L15.5926 39.9951C16.479 40.6991 17.7678 40.5536 18.4751 39.6699C19.1803 38.7825 19.0336 37.492 18.1475 36.7852L12.8451 32.5425L12.8026 32.5176L9.61007 29.9526L51.3226 9.47998L42.71 50.5024L33.0401 42.75L33.0125 42.71H32.9625C32.8739 42.6408 32.7804 42.5781 32.6826 42.5225C31.8945 42.1076 30.9287 42.2491 30.2926 42.8726L24.5501 47.6074V42.4502L42.8501 24.1748C43.5652 23.4863 43.6998 22.3909 43.1726 21.5498C42.4614 20.4535 40.9205 20.2922 39.9976 21.2173L21.0951 40.0898C20.7832 40.3828 20.5701 40.7657 20.4851 41.1851C20.4792 41.26 20.4792 41.3353 20.4851 41.4102V52.2173C20.4951 52.2948 20.51 52.3698 20.525 52.4473L20.5726 52.605C20.6026 52.68 20.6301 52.7575 20.6651 52.835C20.6651 52.88 20.7151 52.9223 20.7376 52.9673C20.7776 53.0398 20.8301 53.1102 20.8826 53.1802C20.8826 53.1802 20.9076 53.2276 20.9251 53.2451L20.9826 53.2949C21.0365 53.3567 21.095 53.4143 21.1576 53.4673C21.2001 53.5023 21.2401 53.5423 21.2876 53.5723C21.3451 53.6198 21.4126 53.6598 21.4751 53.6973C21.5226 53.7298 21.5751 53.7552 21.6326 53.7827C21.6979 53.8112 21.7646 53.8359 21.8325 53.8574L22.0125 53.9175C22.1466 53.955 22.2867 53.967 22.4251 53.9526H22.6051C22.6801 53.9601 22.7525 53.9601 22.83 53.9526C22.8875 53.9476 22.9501 53.9275 23.0101 53.9175C23.0803 53.9021 23.1488 53.8803 23.215 53.8525L23.3851 53.7827C23.5376 53.7006 23.6845 53.6084 23.825 53.5073L31.7801 46.9448L42.7725 55.7627C42.7725 55.7627 42.815 55.7877 42.8325 55.8052C42.85 55.8227 42.95 55.8799 43.015 55.9224C43.0775 55.9574 43.1301 55.9925 43.1901 56.0225L43.3601 56.085C43.4322 56.1144 43.5065 56.1377 43.5825 56.1548H43.7526C43.8164 56.1908 43.8833 56.2212 43.9525 56.2451H44.14C44.2719 56.2548 44.4046 56.2428 44.5326 56.21L44.7251 56.1499L44.9 56.0752L45.0875 55.9751L45.2451 55.8701C45.3013 55.8322 45.3548 55.7904 45.4051 55.7451C45.4551 55.7001 45.5051 55.6399 45.5551 55.5874L45.64 55.5049C45.7322 55.3748 45.8142 55.238 45.8851 55.0952C45.9144 55.0377 45.9377 54.9772 45.955 54.915L46.025 54.7026C46.0297 54.6797 46.0383 54.6578 46.0501 54.6377L56.2201 6.19238V6.12988C56.2314 6.05523 56.2397 5.98008 56.2451 5.90479V5.71729C56.2376 5.65979 56.2376 5.59478 56.2376 5.52979Z" fill="#0077FD"/>
</g>
<g id="Mask group">
<mask id="mask1_1278_35815" style="mask-type:alpha" maskUnits="userSpaceOnUse" x="3" y="3" width="54" height="54">
<g id="Group_3">
<g id="Group_4">
<path id="Vector_3" d="M56.2376 5.52979C56.2376 5.45979 56.2375 5.39758 56.21 5.33008C56.18 5.26758 56.1726 5.21479 56.1551 5.15479C56.1293 5.06056 56.0959 4.96868 56.0551 4.87988C56.0551 4.84488 56.0151 4.81729 55.9926 4.77979C55.9676 4.74479 55.9176 4.6576 55.8751 4.6001L55.7501 4.44727C55.7051 4.39977 55.6651 4.3473 55.6101 4.2998C55.566 4.25272 55.5174 4.21007 55.465 4.17236L55.3001 4.05518C55.2426 4.02018 55.1826 3.98996 55.1251 3.95996C55.0679 3.93093 55.0094 3.90417 54.95 3.87988L54.7451 3.81494C54.7026 3.81494 54.6701 3.78479 54.6276 3.77979H54.5626C54.488 3.7685 54.4128 3.76026 54.3375 3.75488H54.1525C54.0876 3.76238 54.0175 3.76729 53.9525 3.77979L53.7526 3.80762L53.5775 3.8623L53.3676 3.9248C53.3501 3.9373 53.3251 3.9427 53.3026 3.9502L4.96261 27.6675C4.67814 27.798 4.42619 27.9902 4.22506 28.23L4.1426 28.355C4.08423 28.4361 4.02914 28.5195 3.97756 28.605V28.6475C3.50256 29.5975 3.83256 30.7451 4.72756 31.3076L11.9876 37.125L15.5926 39.9951C16.479 40.6991 17.7678 40.5536 18.4751 39.6699C19.1803 38.7825 19.0336 37.492 18.1475 36.7852L12.8451 32.5425L12.8026 32.5176L9.61007 29.9526L51.3226 9.47998L42.71 50.5024L33.0401 42.75L33.0125 42.71H32.9625C32.8739 42.6408 32.7804 42.5781 32.6826 42.5225C31.8945 42.1076 30.9287 42.2491 30.2926 42.8726L24.5501 47.6074V42.4502L42.8501 24.1748C43.5652 23.4863 43.6998 22.3909 43.1726 21.5498C42.4614 20.4535 40.9205 20.2922 39.9976 21.2173L21.0951 40.0898C20.7832 40.3828 20.5701 40.7657 20.4851 41.1851C20.4792 41.26 20.4792 41.3353 20.4851 41.4102V52.2173C20.4951 52.2948 20.51 52.3698 20.525 52.4473L20.5726 52.605C20.6026 52.68 20.6301 52.7575 20.6651 52.835C20.6651 52.88 20.7151 52.9223 20.7376 52.9673C20.7776 53.0398 20.8301 53.1102 20.8826 53.1802C20.8826 53.1802 20.9076 53.2276 20.9251 53.2451L20.9826 53.2949C21.0365 53.3567 21.095 53.4143 21.1576 53.4673C21.2001 53.5023 21.2401 53.5423 21.2876 53.5723C21.3451 53.6198 21.4126 53.6598 21.4751 53.6973C21.5226 53.7298 21.5751 53.7552 21.6326 53.7827C21.6979 53.8112 21.7646 53.8359 21.8325 53.8574L22.0125 53.9175C22.1466 53.955 22.2867 53.967 22.4251 53.9526H22.6051C22.6801 53.9601 22.7525 53.9601 22.83 53.9526C22.8875 53.9476 22.9501 53.9275 23.0101 53.9175C23.0803 53.9021 23.1488 53.8803 23.215 53.8525L23.3851 53.7827C23.5376 53.7006 23.6845 53.6084 23.825 53.5073L31.7801 46.9448L42.7725 55.7627C42.7725 55.7627 42.815 55.7877 42.8325 55.8052C42.85 55.8227 42.95 55.8799 43.015 55.9224C43.0775 55.9574 43.1301 55.9925 43.1901 56.0225L43.3601 56.085C43.4322 56.1144 43.5065 56.1377 43.5825 56.1548H43.7526C43.8164 56.1908 43.8833 56.2212 43.9525 56.2451H44.14C44.2719 56.2548 44.4046 56.2428 44.5326 56.21L44.7251 56.1499L44.9 56.0752L45.0875 55.9751L45.2451 55.8701C45.3013 55.8322 45.3548 55.7904 45.4051 55.7451C45.4551 55.7001 45.5051 55.6399 45.5551 55.5874L45.64 55.5049C45.7322 55.3748 45.8142 55.238 45.8851 55.0952C45.9144 55.0377 45.9377 54.9772 45.955 54.915L46.025 54.7026C46.0297 54.6797 46.0383 54.6578 46.0501 54.6377L56.2201 6.19238V6.12988C56.2314 6.05523 56.2397 5.98008 56.2451 5.90479V5.71729C56.2376 5.65979 56.2376 5.59478 56.2376 5.52979Z" fill="white"/>
</g>
</g>
</mask>
<g mask="url(#mask1_1278_35815)">
<g id="Group_5">
<g id="Group_6">
<path id="Vector_4" d="M20 18H2V41H20V18Z" fill="#FFA100"/>
</g>
</g>
</g>
</g>
</g>
</g>
</g>
</svg>
