<svg width="60" height="60" viewBox="0 0 60 60" fill="none" xmlns="http://www.w3.org/2000/svg">
<g id="Premium_Publishers">
<g id="Clip path group">
<mask id="mask0_1278_35760" style="mask-type:luminance" maskUnits="userSpaceOnUse" x="0" y="0" width="60" height="60">
<g id="master_svg18_75_3538">
<path id="Vector" d="M60 0H0V60H60V0Z" fill="white"/>
</g>
</mask>
<g mask="url(#mask0_1278_35760)">
<g id="Group">
<g id="Group_2">
<path id="Vector_2" d="M36.8253 35.7627H34.6752C33.6396 35.7627 32.8002 34.9233 32.8002 33.8877V21.5503C32.8002 20.5148 33.6396 19.6753 34.6752 19.6753H36.8253C41.1444 19.8456 44.558 23.3963 44.558 27.7188C44.558 32.0413 41.1444 35.5925 36.8253 35.7627ZM36.5502 32.0127H36.8253C39.1067 31.8896 40.8934 30.0036 40.8934 27.7188C40.8934 25.434 39.1067 23.5485 36.8253 23.4253H36.5502V32.0127ZM17.9502 35.7627C17.6633 35.7618 17.3807 35.6931 17.1252 35.5625C16.1981 35.1087 15.8168 33.9874 16.2752 33.0625L22.3252 20.7251C22.643 20.0833 23.2965 19.6769 24.0127 19.6753C24.7305 19.6709 25.387 20.0792 25.7002 20.7251L31.7502 33.0625C32.1463 33.9807 31.7523 35.0484 30.8546 35.4888C29.957 35.9293 28.8716 35.5875 28.3878 34.7124L24.0127 25.8003L19.6377 34.7124C19.3222 35.3563 18.6672 35.7642 17.9502 35.7627Z" fill="#0077FD"/>
</g>
<g id="Group_3">
<path id="Vector_3" d="M51.7633 46.3877H8.23828C5.82203 46.3877 3.86328 44.4289 3.86328 42.0127V14.25C3.86328 11.8338 5.82203 9.875 8.23828 9.875H51.7633C54.1795 9.875 56.1383 11.8338 56.1383 14.25V42.0127C56.1383 44.4289 54.1795 46.3877 51.7633 46.3877ZM8.23828 13.625C7.8931 13.625 7.61328 13.9048 7.61328 14.25V42.0127C7.61993 42.3551 7.89589 42.631 8.23828 42.6377H51.7633C52.1057 42.631 52.3816 42.3551 52.3883 42.0127V14.25C52.3883 13.9048 52.1085 13.625 51.7633 13.625H8.23828ZM43.1633 56.25H16.8383C15.8028 56.25 14.9633 55.4105 14.9633 54.375C14.9633 53.3395 15.8028 52.5 16.8383 52.5H43.1633C44.1988 52.5 45.0383 53.3395 45.0383 54.375C45.0383 55.4105 44.1988 56.25 43.1633 56.25Z" fill="#0077FD"/>
</g>
<g id="Group_4">
<path id="Vector_4" d="M27.4998 32.4248H20.4873C19.4518 32.4248 18.6123 31.5853 18.6123 30.5498C18.6123 29.5143 19.4518 28.6748 20.4873 28.6748H27.4998C28.5354 28.6748 29.3748 29.5143 29.3748 30.5498C29.3748 31.5853 28.5354 32.4248 27.4998 32.4248Z" fill="#0077FD"/>
</g>
</g>
</g>
</g>
<g id="Mask group">
<mask id="mask1_1278_35760" style="mask-type:alpha" maskUnits="userSpaceOnUse" x="0" y="5" width="24" height="25">
<g id="Group_5">
<g id="Group_6">
<path id="Vector_5" d="M24 5H0V30H24V5Z" fill="white"/>
</g>
</g>
</mask>
<g mask="url(#mask1_1278_35760)">
<g id="Group_7">
<g id="Group_8">
<path id="Vector_6" d="M51.7633 46.3877H8.23828C5.82203 46.3877 3.86328 44.4289 3.86328 42.0127V14.25C3.86328 11.8338 5.82203 9.875 8.23828 9.875H51.7633C54.1795 9.875 56.1383 11.8338 56.1383 14.25V42.0127C56.1383 44.4289 54.1795 46.3877 51.7633 46.3877ZM8.23828 13.625C7.8931 13.625 7.61328 13.9048 7.61328 14.25V42.0127C7.61993 42.3551 7.89589 42.631 8.23828 42.6377H51.7633C52.1057 42.631 52.3816 42.3551 52.3883 42.0127V14.25C52.3883 13.9048 52.1085 13.625 51.7633 13.625H8.23828ZM43.1633 56.25H16.8383C15.8028 56.25 14.9633 55.4105 14.9633 54.375C14.9633 53.3395 15.8028 52.5 16.8383 52.5H43.1633C44.1988 52.5 45.0383 53.3395 45.0383 54.375C45.0383 55.4105 44.1988 56.25 43.1633 56.25Z" fill="#FFA100"/>
</g>
</g>
</g>
</g>
</g>
</svg>
