<svg width="60" height="60" viewBox="0 0 60 60" fill="none" xmlns="http://www.w3.org/2000/svg">
<g id="Countries_Served">
<mask id="mask0_1278_35797" style="mask-type:luminance" maskUnits="userSpaceOnUse" x="0" y="0" width="60" height="60">
<g id="master_svg1a_75_3561">
<path id="Vector" d="M60 0H0V60H60V0Z" fill="white"/>
</g>
</mask>
<g mask="url(#mask0_1278_35797)">
<g id="Group">
<g id="Group_2">
<path id="Vector_2" d="M30.3529 5.29395C43.8027 5.29394 54.7059 16.1973 54.7059 29.647V30.353C54.7059 43.8028 43.8027 54.7061 30.3529 54.7061C16.9032 54.7061 6 43.8028 6 30.353V29.647C6 16.1973 16.9032 5.29395 30.3529 5.29395ZM51.1306 31.7646H40.5424C40.2013 38.6946 37.7973 45.3648 33.6388 50.9189C43.2183 49.3863 50.4716 41.4436 51.1306 31.7646ZM20.1635 31.7646H9.5753C10.2343 41.4436 17.4876 49.3863 27.0671 50.9189C22.9086 45.3648 20.5046 38.6946 20.1635 31.7646ZM37.0094 31.7646H23.6929C24.0459 38.188 26.3703 44.3466 30.3494 49.4014C34.3298 44.3471 36.6554 38.1883 37.0094 31.7646ZM33.6388 9.08105C37.7973 14.6352 40.2013 21.3054 40.5424 28.2354H51.1306C50.4716 18.5565 43.2183 10.6136 33.6388 9.08105ZM30.3529 10.5991C26.3738 15.6538 24.0495 21.812 23.6965 28.2354H37.0094C36.6564 21.812 34.3321 15.6538 30.3529 10.5991ZM27.0706 9.08105C17.4897 10.6121 10.2346 18.5554 9.5753 28.2354H20.1635C20.5046 21.3054 22.9086 14.6352 27.0671 9.08105H27.0706Z" fill="#0077FD"/>
</g>
<g id="Mask group">
<mask id="mask1_1278_35797" style="mask-type:alpha" maskUnits="userSpaceOnUse" x="6" y="5" width="49" height="50">
<g id="Group_3">
<g id="Group_4">
<path id="Vector_3" d="M30.3529 5.29395C43.8027 5.29394 54.7059 16.1973 54.7059 29.647V30.353C54.7059 43.8028 43.8027 54.7061 30.3529 54.7061C16.9032 54.7061 6 43.8028 6 30.353V29.647C6 16.1973 16.9032 5.29395 30.3529 5.29395ZM51.1306 31.7646H40.5424C40.2013 38.6946 37.7973 45.3648 33.6388 50.9189C43.2183 49.3863 50.4716 41.4436 51.1306 31.7646ZM20.1635 31.7646H9.5753C10.2343 41.4436 17.4876 49.3863 27.0671 50.9189C22.9086 45.3648 20.5046 38.6946 20.1635 31.7646ZM37.0094 31.7646H23.6929C24.0459 38.188 26.3703 44.3466 30.3494 49.4014C34.3298 44.3471 36.6554 38.1883 37.0094 31.7646ZM33.6388 9.08105C37.7973 14.6352 40.2013 21.3054 40.5424 28.2354H51.1306C50.4716 18.5565 43.2183 10.6136 33.6388 9.08105ZM30.3529 10.5991C26.3738 15.6538 24.0495 21.812 23.6965 28.2354H37.0094C36.6564 21.812 34.3321 15.6538 30.3529 10.5991ZM27.0706 9.08105C17.4897 10.6121 10.2346 18.5554 9.5753 28.2354H20.1635C20.5046 21.3054 22.9086 14.6352 27.0671 9.08105H27.0706Z" fill="white"/>
</g>
</g>
</mask>
<g mask="url(#mask1_1278_35797)">
<g id="Group_5">
<g id="Group_6">
<path id="Vector_4" d="M10.5225 27C16.8737 27 22.0225 21.8513 22.0225 15.5C22.0225 9.14873 16.8737 4 10.5225 4C4.17119 4 -0.977539 9.14873 -0.977539 15.5C-0.977539 21.8513 4.17119 27 10.5225 27Z" fill="#FFA100"/>
</g>
</g>
</g>
</g>
</g>
</g>
</g>
</svg>
